G75*
%MOIN*%
%OFA0B0*%
%FSLAX25Y25*%
%IPPOS*%
%LPD*%
%AMOC8*
5,1,8,0,0,1.08239X$1,22.5*
%
%ADD10C,0.00000*%
%ADD11C,0.00600*%
%ADD12R,0.07874X0.04724*%
%ADD13R,0.04724X0.07874*%
%ADD14R,0.05906X0.05118*%
%ADD15R,0.04600X0.06300*%
%ADD16C,0.04331*%
%ADD17C,0.05250*%
%ADD18C,0.04724*%
%ADD19C,0.13843*%
%ADD20C,0.12661*%
%ADD21C,0.05400*%
%ADD22C,0.04800*%
%ADD23C,0.01000*%
%ADD24C,0.03169*%
%ADD25C,0.01600*%
%ADD26C,0.05000*%
%ADD27C,0.01200*%
%ADD28C,0.03562*%
%ADD29C,0.03200*%
D10*
X0066345Y0060183D02*
X0066345Y0191433D01*
X0075095Y0206433D02*
X0088845Y0206433D01*
X0088943Y0206431D01*
X0089041Y0206425D01*
X0089139Y0206416D01*
X0089236Y0206402D01*
X0089333Y0206385D01*
X0089429Y0206364D01*
X0089524Y0206339D01*
X0089618Y0206311D01*
X0089710Y0206278D01*
X0089802Y0206243D01*
X0089892Y0206203D01*
X0089980Y0206161D01*
X0090067Y0206114D01*
X0090151Y0206065D01*
X0090234Y0206012D01*
X0090314Y0205956D01*
X0090393Y0205896D01*
X0090469Y0205834D01*
X0090542Y0205769D01*
X0090613Y0205701D01*
X0090681Y0205630D01*
X0090746Y0205557D01*
X0090808Y0205481D01*
X0090868Y0205402D01*
X0090924Y0205322D01*
X0090977Y0205239D01*
X0091026Y0205155D01*
X0091073Y0205068D01*
X0091115Y0204980D01*
X0091155Y0204890D01*
X0091190Y0204798D01*
X0091223Y0204706D01*
X0091251Y0204612D01*
X0091276Y0204517D01*
X0091297Y0204421D01*
X0091314Y0204324D01*
X0091328Y0204227D01*
X0091337Y0204129D01*
X0091343Y0204031D01*
X0091345Y0203933D01*
X0091343Y0203835D01*
X0091337Y0203737D01*
X0091328Y0203639D01*
X0091314Y0203542D01*
X0091297Y0203445D01*
X0091276Y0203349D01*
X0091251Y0203254D01*
X0091223Y0203160D01*
X0091190Y0203068D01*
X0091155Y0202976D01*
X0091115Y0202886D01*
X0091073Y0202798D01*
X0091026Y0202711D01*
X0090977Y0202627D01*
X0090924Y0202544D01*
X0090868Y0202464D01*
X0090808Y0202385D01*
X0090746Y0202309D01*
X0090681Y0202236D01*
X0090613Y0202165D01*
X0090542Y0202097D01*
X0090469Y0202032D01*
X0090393Y0201970D01*
X0090314Y0201910D01*
X0090234Y0201854D01*
X0090151Y0201801D01*
X0090067Y0201752D01*
X0089980Y0201705D01*
X0089892Y0201663D01*
X0089802Y0201623D01*
X0089710Y0201588D01*
X0089618Y0201555D01*
X0089524Y0201527D01*
X0089429Y0201502D01*
X0089333Y0201481D01*
X0089236Y0201464D01*
X0089139Y0201450D01*
X0089041Y0201441D01*
X0088943Y0201435D01*
X0088845Y0201433D01*
X0076345Y0201433D01*
X0076103Y0201430D01*
X0075862Y0201421D01*
X0075621Y0201407D01*
X0075380Y0201386D01*
X0075140Y0201360D01*
X0074900Y0201328D01*
X0074661Y0201290D01*
X0074424Y0201247D01*
X0074187Y0201197D01*
X0073952Y0201142D01*
X0073718Y0201082D01*
X0073486Y0201015D01*
X0073255Y0200944D01*
X0073026Y0200866D01*
X0072799Y0200783D01*
X0072574Y0200695D01*
X0072351Y0200601D01*
X0072131Y0200502D01*
X0071913Y0200397D01*
X0071698Y0200288D01*
X0071485Y0200173D01*
X0071275Y0200053D01*
X0071069Y0199928D01*
X0070865Y0199798D01*
X0070664Y0199663D01*
X0070467Y0199523D01*
X0070273Y0199379D01*
X0070083Y0199230D01*
X0069897Y0199076D01*
X0069714Y0198918D01*
X0069535Y0198756D01*
X0069360Y0198589D01*
X0069189Y0198418D01*
X0069022Y0198243D01*
X0068860Y0198064D01*
X0068702Y0197881D01*
X0068548Y0197695D01*
X0068399Y0197505D01*
X0068255Y0197311D01*
X0068115Y0197114D01*
X0067980Y0196913D01*
X0067850Y0196709D01*
X0067725Y0196503D01*
X0067605Y0196293D01*
X0067490Y0196080D01*
X0067381Y0195865D01*
X0067276Y0195647D01*
X0067177Y0195427D01*
X0067083Y0195204D01*
X0066995Y0194979D01*
X0066912Y0194752D01*
X0066834Y0194523D01*
X0066763Y0194292D01*
X0066696Y0194060D01*
X0066636Y0193826D01*
X0066581Y0193591D01*
X0066531Y0193354D01*
X0066488Y0193117D01*
X0066450Y0192878D01*
X0066418Y0192638D01*
X0066392Y0192398D01*
X0066371Y0192157D01*
X0066357Y0191916D01*
X0066348Y0191675D01*
X0066345Y0191433D01*
X0066345Y0215183D02*
X0066345Y0288933D01*
X0066348Y0289175D01*
X0066357Y0289416D01*
X0066371Y0289657D01*
X0066392Y0289898D01*
X0066418Y0290138D01*
X0066450Y0290378D01*
X0066488Y0290617D01*
X0066531Y0290854D01*
X0066581Y0291091D01*
X0066636Y0291326D01*
X0066696Y0291560D01*
X0066763Y0291792D01*
X0066834Y0292023D01*
X0066912Y0292252D01*
X0066995Y0292479D01*
X0067083Y0292704D01*
X0067177Y0292927D01*
X0067276Y0293147D01*
X0067381Y0293365D01*
X0067490Y0293580D01*
X0067605Y0293793D01*
X0067725Y0294003D01*
X0067850Y0294209D01*
X0067980Y0294413D01*
X0068115Y0294614D01*
X0068255Y0294811D01*
X0068399Y0295005D01*
X0068548Y0295195D01*
X0068702Y0295381D01*
X0068860Y0295564D01*
X0069022Y0295743D01*
X0069189Y0295918D01*
X0069360Y0296089D01*
X0069535Y0296256D01*
X0069714Y0296418D01*
X0069897Y0296576D01*
X0070083Y0296730D01*
X0070273Y0296879D01*
X0070467Y0297023D01*
X0070664Y0297163D01*
X0070865Y0297298D01*
X0071069Y0297428D01*
X0071275Y0297553D01*
X0071485Y0297673D01*
X0071698Y0297788D01*
X0071913Y0297897D01*
X0072131Y0298002D01*
X0072351Y0298101D01*
X0072574Y0298195D01*
X0072799Y0298283D01*
X0073026Y0298366D01*
X0073255Y0298444D01*
X0073486Y0298515D01*
X0073718Y0298582D01*
X0073952Y0298642D01*
X0074187Y0298697D01*
X0074424Y0298747D01*
X0074661Y0298790D01*
X0074900Y0298828D01*
X0075140Y0298860D01*
X0075380Y0298886D01*
X0075621Y0298907D01*
X0075862Y0298921D01*
X0076103Y0298930D01*
X0076345Y0298933D01*
X0150095Y0298933D01*
X0150337Y0298930D01*
X0150578Y0298921D01*
X0150819Y0298907D01*
X0151060Y0298886D01*
X0151300Y0298860D01*
X0151540Y0298828D01*
X0151779Y0298790D01*
X0152016Y0298747D01*
X0152253Y0298697D01*
X0152488Y0298642D01*
X0152722Y0298582D01*
X0152954Y0298515D01*
X0153185Y0298444D01*
X0153414Y0298366D01*
X0153641Y0298283D01*
X0153866Y0298195D01*
X0154089Y0298101D01*
X0154309Y0298002D01*
X0154527Y0297897D01*
X0154742Y0297788D01*
X0154955Y0297673D01*
X0155165Y0297553D01*
X0155371Y0297428D01*
X0155575Y0297298D01*
X0155776Y0297163D01*
X0155973Y0297023D01*
X0156167Y0296879D01*
X0156357Y0296730D01*
X0156543Y0296576D01*
X0156726Y0296418D01*
X0156905Y0296256D01*
X0157080Y0296089D01*
X0157251Y0295918D01*
X0157418Y0295743D01*
X0157580Y0295564D01*
X0157738Y0295381D01*
X0157892Y0295195D01*
X0158041Y0295005D01*
X0158185Y0294811D01*
X0158325Y0294614D01*
X0158460Y0294413D01*
X0158590Y0294209D01*
X0158715Y0294003D01*
X0158835Y0293793D01*
X0158950Y0293580D01*
X0159059Y0293365D01*
X0159164Y0293147D01*
X0159263Y0292927D01*
X0159357Y0292704D01*
X0159445Y0292479D01*
X0159528Y0292252D01*
X0159606Y0292023D01*
X0159677Y0291792D01*
X0159744Y0291560D01*
X0159804Y0291326D01*
X0159859Y0291091D01*
X0159909Y0290854D01*
X0159952Y0290617D01*
X0159990Y0290378D01*
X0160022Y0290138D01*
X0160048Y0289898D01*
X0160069Y0289657D01*
X0160083Y0289416D01*
X0160092Y0289175D01*
X0160095Y0288933D01*
X0160095Y0216433D01*
X0160092Y0216191D01*
X0160083Y0215950D01*
X0160069Y0215709D01*
X0160048Y0215468D01*
X0160022Y0215228D01*
X0159990Y0214988D01*
X0159952Y0214749D01*
X0159909Y0214512D01*
X0159859Y0214275D01*
X0159804Y0214040D01*
X0159744Y0213806D01*
X0159677Y0213574D01*
X0159606Y0213343D01*
X0159528Y0213114D01*
X0159445Y0212887D01*
X0159357Y0212662D01*
X0159263Y0212439D01*
X0159164Y0212219D01*
X0159059Y0212001D01*
X0158950Y0211786D01*
X0158835Y0211573D01*
X0158715Y0211363D01*
X0158590Y0211157D01*
X0158460Y0210953D01*
X0158325Y0210752D01*
X0158185Y0210555D01*
X0158041Y0210361D01*
X0157892Y0210171D01*
X0157738Y0209985D01*
X0157580Y0209802D01*
X0157418Y0209623D01*
X0157251Y0209448D01*
X0157080Y0209277D01*
X0156905Y0209110D01*
X0156726Y0208948D01*
X0156543Y0208790D01*
X0156357Y0208636D01*
X0156167Y0208487D01*
X0155973Y0208343D01*
X0155776Y0208203D01*
X0155575Y0208068D01*
X0155371Y0207938D01*
X0155165Y0207813D01*
X0154955Y0207693D01*
X0154742Y0207578D01*
X0154527Y0207469D01*
X0154309Y0207364D01*
X0154089Y0207265D01*
X0153866Y0207171D01*
X0153641Y0207083D01*
X0153414Y0207000D01*
X0153185Y0206922D01*
X0152954Y0206851D01*
X0152722Y0206784D01*
X0152488Y0206724D01*
X0152253Y0206669D01*
X0152016Y0206619D01*
X0151779Y0206576D01*
X0151540Y0206538D01*
X0151300Y0206506D01*
X0151060Y0206480D01*
X0150819Y0206459D01*
X0150578Y0206445D01*
X0150337Y0206436D01*
X0150095Y0206433D01*
X0137595Y0206433D01*
X0137497Y0206431D01*
X0137399Y0206425D01*
X0137301Y0206416D01*
X0137204Y0206402D01*
X0137107Y0206385D01*
X0137011Y0206364D01*
X0136916Y0206339D01*
X0136822Y0206311D01*
X0136730Y0206278D01*
X0136638Y0206243D01*
X0136548Y0206203D01*
X0136460Y0206161D01*
X0136373Y0206114D01*
X0136289Y0206065D01*
X0136206Y0206012D01*
X0136126Y0205956D01*
X0136047Y0205896D01*
X0135971Y0205834D01*
X0135898Y0205769D01*
X0135827Y0205701D01*
X0135759Y0205630D01*
X0135694Y0205557D01*
X0135632Y0205481D01*
X0135572Y0205402D01*
X0135516Y0205322D01*
X0135463Y0205239D01*
X0135414Y0205155D01*
X0135367Y0205068D01*
X0135325Y0204980D01*
X0135285Y0204890D01*
X0135250Y0204798D01*
X0135217Y0204706D01*
X0135189Y0204612D01*
X0135164Y0204517D01*
X0135143Y0204421D01*
X0135126Y0204324D01*
X0135112Y0204227D01*
X0135103Y0204129D01*
X0135097Y0204031D01*
X0135095Y0203933D01*
X0135097Y0203835D01*
X0135103Y0203737D01*
X0135112Y0203639D01*
X0135126Y0203542D01*
X0135143Y0203445D01*
X0135164Y0203349D01*
X0135189Y0203254D01*
X0135217Y0203160D01*
X0135250Y0203068D01*
X0135285Y0202976D01*
X0135325Y0202886D01*
X0135367Y0202798D01*
X0135414Y0202711D01*
X0135463Y0202627D01*
X0135516Y0202544D01*
X0135572Y0202464D01*
X0135632Y0202385D01*
X0135694Y0202309D01*
X0135759Y0202236D01*
X0135827Y0202165D01*
X0135898Y0202097D01*
X0135971Y0202032D01*
X0136047Y0201970D01*
X0136126Y0201910D01*
X0136206Y0201854D01*
X0136289Y0201801D01*
X0136373Y0201752D01*
X0136460Y0201705D01*
X0136548Y0201663D01*
X0136638Y0201623D01*
X0136730Y0201588D01*
X0136822Y0201555D01*
X0136916Y0201527D01*
X0137011Y0201502D01*
X0137107Y0201481D01*
X0137204Y0201464D01*
X0137301Y0201450D01*
X0137399Y0201441D01*
X0137497Y0201435D01*
X0137595Y0201433D01*
X0150095Y0201433D01*
X0150337Y0201430D01*
X0150578Y0201421D01*
X0150819Y0201407D01*
X0151060Y0201386D01*
X0151300Y0201360D01*
X0151540Y0201328D01*
X0151779Y0201290D01*
X0152016Y0201247D01*
X0152253Y0201197D01*
X0152488Y0201142D01*
X0152722Y0201082D01*
X0152954Y0201015D01*
X0153185Y0200944D01*
X0153414Y0200866D01*
X0153641Y0200783D01*
X0153866Y0200695D01*
X0154089Y0200601D01*
X0154309Y0200502D01*
X0154527Y0200397D01*
X0154742Y0200288D01*
X0154955Y0200173D01*
X0155165Y0200053D01*
X0155371Y0199928D01*
X0155575Y0199798D01*
X0155776Y0199663D01*
X0155973Y0199523D01*
X0156167Y0199379D01*
X0156357Y0199230D01*
X0156543Y0199076D01*
X0156726Y0198918D01*
X0156905Y0198756D01*
X0157080Y0198589D01*
X0157251Y0198418D01*
X0157418Y0198243D01*
X0157580Y0198064D01*
X0157738Y0197881D01*
X0157892Y0197695D01*
X0158041Y0197505D01*
X0158185Y0197311D01*
X0158325Y0197114D01*
X0158460Y0196913D01*
X0158590Y0196709D01*
X0158715Y0196503D01*
X0158835Y0196293D01*
X0158950Y0196080D01*
X0159059Y0195865D01*
X0159164Y0195647D01*
X0159263Y0195427D01*
X0159357Y0195204D01*
X0159445Y0194979D01*
X0159528Y0194752D01*
X0159606Y0194523D01*
X0159677Y0194292D01*
X0159744Y0194060D01*
X0159804Y0193826D01*
X0159859Y0193591D01*
X0159909Y0193354D01*
X0159952Y0193117D01*
X0159990Y0192878D01*
X0160022Y0192638D01*
X0160048Y0192398D01*
X0160069Y0192157D01*
X0160083Y0191916D01*
X0160092Y0191675D01*
X0160095Y0191433D01*
X0160095Y0060183D01*
X0160092Y0059941D01*
X0160083Y0059700D01*
X0160069Y0059459D01*
X0160048Y0059218D01*
X0160022Y0058978D01*
X0159990Y0058738D01*
X0159952Y0058499D01*
X0159909Y0058262D01*
X0159859Y0058025D01*
X0159804Y0057790D01*
X0159744Y0057556D01*
X0159677Y0057324D01*
X0159606Y0057093D01*
X0159528Y0056864D01*
X0159445Y0056637D01*
X0159357Y0056412D01*
X0159263Y0056189D01*
X0159164Y0055969D01*
X0159059Y0055751D01*
X0158950Y0055536D01*
X0158835Y0055323D01*
X0158715Y0055113D01*
X0158590Y0054907D01*
X0158460Y0054703D01*
X0158325Y0054502D01*
X0158185Y0054305D01*
X0158041Y0054111D01*
X0157892Y0053921D01*
X0157738Y0053735D01*
X0157580Y0053552D01*
X0157418Y0053373D01*
X0157251Y0053198D01*
X0157080Y0053027D01*
X0156905Y0052860D01*
X0156726Y0052698D01*
X0156543Y0052540D01*
X0156357Y0052386D01*
X0156167Y0052237D01*
X0155973Y0052093D01*
X0155776Y0051953D01*
X0155575Y0051818D01*
X0155371Y0051688D01*
X0155165Y0051563D01*
X0154955Y0051443D01*
X0154742Y0051328D01*
X0154527Y0051219D01*
X0154309Y0051114D01*
X0154089Y0051015D01*
X0153866Y0050921D01*
X0153641Y0050833D01*
X0153414Y0050750D01*
X0153185Y0050672D01*
X0152954Y0050601D01*
X0152722Y0050534D01*
X0152488Y0050474D01*
X0152253Y0050419D01*
X0152016Y0050369D01*
X0151779Y0050326D01*
X0151540Y0050288D01*
X0151300Y0050256D01*
X0151060Y0050230D01*
X0150819Y0050209D01*
X0150578Y0050195D01*
X0150337Y0050186D01*
X0150095Y0050183D01*
X0076345Y0050183D01*
X0076103Y0050186D01*
X0075862Y0050195D01*
X0075621Y0050209D01*
X0075380Y0050230D01*
X0075140Y0050256D01*
X0074900Y0050288D01*
X0074661Y0050326D01*
X0074424Y0050369D01*
X0074187Y0050419D01*
X0073952Y0050474D01*
X0073718Y0050534D01*
X0073486Y0050601D01*
X0073255Y0050672D01*
X0073026Y0050750D01*
X0072799Y0050833D01*
X0072574Y0050921D01*
X0072351Y0051015D01*
X0072131Y0051114D01*
X0071913Y0051219D01*
X0071698Y0051328D01*
X0071485Y0051443D01*
X0071275Y0051563D01*
X0071069Y0051688D01*
X0070865Y0051818D01*
X0070664Y0051953D01*
X0070467Y0052093D01*
X0070273Y0052237D01*
X0070083Y0052386D01*
X0069897Y0052540D01*
X0069714Y0052698D01*
X0069535Y0052860D01*
X0069360Y0053027D01*
X0069189Y0053198D01*
X0069022Y0053373D01*
X0068860Y0053552D01*
X0068702Y0053735D01*
X0068548Y0053921D01*
X0068399Y0054111D01*
X0068255Y0054305D01*
X0068115Y0054502D01*
X0067980Y0054703D01*
X0067850Y0054907D01*
X0067725Y0055113D01*
X0067605Y0055323D01*
X0067490Y0055536D01*
X0067381Y0055751D01*
X0067276Y0055969D01*
X0067177Y0056189D01*
X0067083Y0056412D01*
X0066995Y0056637D01*
X0066912Y0056864D01*
X0066834Y0057093D01*
X0066763Y0057324D01*
X0066696Y0057556D01*
X0066636Y0057790D01*
X0066581Y0058025D01*
X0066531Y0058262D01*
X0066488Y0058499D01*
X0066450Y0058738D01*
X0066418Y0058978D01*
X0066392Y0059218D01*
X0066371Y0059459D01*
X0066357Y0059700D01*
X0066348Y0059941D01*
X0066345Y0060183D01*
X0070046Y0060183D02*
X0070048Y0060341D01*
X0070054Y0060499D01*
X0070064Y0060657D01*
X0070078Y0060815D01*
X0070096Y0060972D01*
X0070117Y0061129D01*
X0070143Y0061285D01*
X0070173Y0061441D01*
X0070206Y0061596D01*
X0070244Y0061749D01*
X0070285Y0061902D01*
X0070330Y0062054D01*
X0070379Y0062205D01*
X0070432Y0062354D01*
X0070488Y0062502D01*
X0070548Y0062648D01*
X0070612Y0062793D01*
X0070680Y0062936D01*
X0070751Y0063078D01*
X0070825Y0063218D01*
X0070903Y0063355D01*
X0070985Y0063491D01*
X0071069Y0063625D01*
X0071158Y0063756D01*
X0071249Y0063885D01*
X0071344Y0064012D01*
X0071441Y0064137D01*
X0071542Y0064259D01*
X0071646Y0064378D01*
X0071753Y0064495D01*
X0071863Y0064609D01*
X0071976Y0064720D01*
X0072091Y0064829D01*
X0072209Y0064934D01*
X0072330Y0065036D01*
X0072453Y0065136D01*
X0072579Y0065232D01*
X0072707Y0065325D01*
X0072837Y0065415D01*
X0072970Y0065501D01*
X0073105Y0065585D01*
X0073241Y0065664D01*
X0073380Y0065741D01*
X0073521Y0065813D01*
X0073663Y0065883D01*
X0073807Y0065948D01*
X0073953Y0066010D01*
X0074100Y0066068D01*
X0074249Y0066123D01*
X0074399Y0066174D01*
X0074550Y0066221D01*
X0074702Y0066264D01*
X0074855Y0066303D01*
X0075010Y0066339D01*
X0075165Y0066370D01*
X0075321Y0066398D01*
X0075477Y0066422D01*
X0075634Y0066442D01*
X0075792Y0066458D01*
X0075949Y0066470D01*
X0076108Y0066478D01*
X0076266Y0066482D01*
X0076424Y0066482D01*
X0076582Y0066478D01*
X0076741Y0066470D01*
X0076898Y0066458D01*
X0077056Y0066442D01*
X0077213Y0066422D01*
X0077369Y0066398D01*
X0077525Y0066370D01*
X0077680Y0066339D01*
X0077835Y0066303D01*
X0077988Y0066264D01*
X0078140Y0066221D01*
X0078291Y0066174D01*
X0078441Y0066123D01*
X0078590Y0066068D01*
X0078737Y0066010D01*
X0078883Y0065948D01*
X0079027Y0065883D01*
X0079169Y0065813D01*
X0079310Y0065741D01*
X0079449Y0065664D01*
X0079585Y0065585D01*
X0079720Y0065501D01*
X0079853Y0065415D01*
X0079983Y0065325D01*
X0080111Y0065232D01*
X0080237Y0065136D01*
X0080360Y0065036D01*
X0080481Y0064934D01*
X0080599Y0064829D01*
X0080714Y0064720D01*
X0080827Y0064609D01*
X0080937Y0064495D01*
X0081044Y0064378D01*
X0081148Y0064259D01*
X0081249Y0064137D01*
X0081346Y0064012D01*
X0081441Y0063885D01*
X0081532Y0063756D01*
X0081621Y0063625D01*
X0081705Y0063491D01*
X0081787Y0063355D01*
X0081865Y0063218D01*
X0081939Y0063078D01*
X0082010Y0062936D01*
X0082078Y0062793D01*
X0082142Y0062648D01*
X0082202Y0062502D01*
X0082258Y0062354D01*
X0082311Y0062205D01*
X0082360Y0062054D01*
X0082405Y0061902D01*
X0082446Y0061749D01*
X0082484Y0061596D01*
X0082517Y0061441D01*
X0082547Y0061285D01*
X0082573Y0061129D01*
X0082594Y0060972D01*
X0082612Y0060815D01*
X0082626Y0060657D01*
X0082636Y0060499D01*
X0082642Y0060341D01*
X0082644Y0060183D01*
X0082642Y0060025D01*
X0082636Y0059867D01*
X0082626Y0059709D01*
X0082612Y0059551D01*
X0082594Y0059394D01*
X0082573Y0059237D01*
X0082547Y0059081D01*
X0082517Y0058925D01*
X0082484Y0058770D01*
X0082446Y0058617D01*
X0082405Y0058464D01*
X0082360Y0058312D01*
X0082311Y0058161D01*
X0082258Y0058012D01*
X0082202Y0057864D01*
X0082142Y0057718D01*
X0082078Y0057573D01*
X0082010Y0057430D01*
X0081939Y0057288D01*
X0081865Y0057148D01*
X0081787Y0057011D01*
X0081705Y0056875D01*
X0081621Y0056741D01*
X0081532Y0056610D01*
X0081441Y0056481D01*
X0081346Y0056354D01*
X0081249Y0056229D01*
X0081148Y0056107D01*
X0081044Y0055988D01*
X0080937Y0055871D01*
X0080827Y0055757D01*
X0080714Y0055646D01*
X0080599Y0055537D01*
X0080481Y0055432D01*
X0080360Y0055330D01*
X0080237Y0055230D01*
X0080111Y0055134D01*
X0079983Y0055041D01*
X0079853Y0054951D01*
X0079720Y0054865D01*
X0079585Y0054781D01*
X0079449Y0054702D01*
X0079310Y0054625D01*
X0079169Y0054553D01*
X0079027Y0054483D01*
X0078883Y0054418D01*
X0078737Y0054356D01*
X0078590Y0054298D01*
X0078441Y0054243D01*
X0078291Y0054192D01*
X0078140Y0054145D01*
X0077988Y0054102D01*
X0077835Y0054063D01*
X0077680Y0054027D01*
X0077525Y0053996D01*
X0077369Y0053968D01*
X0077213Y0053944D01*
X0077056Y0053924D01*
X0076898Y0053908D01*
X0076741Y0053896D01*
X0076582Y0053888D01*
X0076424Y0053884D01*
X0076266Y0053884D01*
X0076108Y0053888D01*
X0075949Y0053896D01*
X0075792Y0053908D01*
X0075634Y0053924D01*
X0075477Y0053944D01*
X0075321Y0053968D01*
X0075165Y0053996D01*
X0075010Y0054027D01*
X0074855Y0054063D01*
X0074702Y0054102D01*
X0074550Y0054145D01*
X0074399Y0054192D01*
X0074249Y0054243D01*
X0074100Y0054298D01*
X0073953Y0054356D01*
X0073807Y0054418D01*
X0073663Y0054483D01*
X0073521Y0054553D01*
X0073380Y0054625D01*
X0073241Y0054702D01*
X0073105Y0054781D01*
X0072970Y0054865D01*
X0072837Y0054951D01*
X0072707Y0055041D01*
X0072579Y0055134D01*
X0072453Y0055230D01*
X0072330Y0055330D01*
X0072209Y0055432D01*
X0072091Y0055537D01*
X0071976Y0055646D01*
X0071863Y0055757D01*
X0071753Y0055871D01*
X0071646Y0055988D01*
X0071542Y0056107D01*
X0071441Y0056229D01*
X0071344Y0056354D01*
X0071249Y0056481D01*
X0071158Y0056610D01*
X0071069Y0056741D01*
X0070985Y0056875D01*
X0070903Y0057011D01*
X0070825Y0057148D01*
X0070751Y0057288D01*
X0070680Y0057430D01*
X0070612Y0057573D01*
X0070548Y0057718D01*
X0070488Y0057864D01*
X0070432Y0058012D01*
X0070379Y0058161D01*
X0070330Y0058312D01*
X0070285Y0058464D01*
X0070244Y0058617D01*
X0070206Y0058770D01*
X0070173Y0058925D01*
X0070143Y0059081D01*
X0070117Y0059237D01*
X0070096Y0059394D01*
X0070078Y0059551D01*
X0070064Y0059709D01*
X0070054Y0059867D01*
X0070048Y0060025D01*
X0070046Y0060183D01*
X0128796Y0182683D02*
X0128798Y0182841D01*
X0128804Y0182999D01*
X0128814Y0183157D01*
X0128828Y0183315D01*
X0128846Y0183472D01*
X0128867Y0183629D01*
X0128893Y0183785D01*
X0128923Y0183941D01*
X0128956Y0184096D01*
X0128994Y0184249D01*
X0129035Y0184402D01*
X0129080Y0184554D01*
X0129129Y0184705D01*
X0129182Y0184854D01*
X0129238Y0185002D01*
X0129298Y0185148D01*
X0129362Y0185293D01*
X0129430Y0185436D01*
X0129501Y0185578D01*
X0129575Y0185718D01*
X0129653Y0185855D01*
X0129735Y0185991D01*
X0129819Y0186125D01*
X0129908Y0186256D01*
X0129999Y0186385D01*
X0130094Y0186512D01*
X0130191Y0186637D01*
X0130292Y0186759D01*
X0130396Y0186878D01*
X0130503Y0186995D01*
X0130613Y0187109D01*
X0130726Y0187220D01*
X0130841Y0187329D01*
X0130959Y0187434D01*
X0131080Y0187536D01*
X0131203Y0187636D01*
X0131329Y0187732D01*
X0131457Y0187825D01*
X0131587Y0187915D01*
X0131720Y0188001D01*
X0131855Y0188085D01*
X0131991Y0188164D01*
X0132130Y0188241D01*
X0132271Y0188313D01*
X0132413Y0188383D01*
X0132557Y0188448D01*
X0132703Y0188510D01*
X0132850Y0188568D01*
X0132999Y0188623D01*
X0133149Y0188674D01*
X0133300Y0188721D01*
X0133452Y0188764D01*
X0133605Y0188803D01*
X0133760Y0188839D01*
X0133915Y0188870D01*
X0134071Y0188898D01*
X0134227Y0188922D01*
X0134384Y0188942D01*
X0134542Y0188958D01*
X0134699Y0188970D01*
X0134858Y0188978D01*
X0135016Y0188982D01*
X0135174Y0188982D01*
X0135332Y0188978D01*
X0135491Y0188970D01*
X0135648Y0188958D01*
X0135806Y0188942D01*
X0135963Y0188922D01*
X0136119Y0188898D01*
X0136275Y0188870D01*
X0136430Y0188839D01*
X0136585Y0188803D01*
X0136738Y0188764D01*
X0136890Y0188721D01*
X0137041Y0188674D01*
X0137191Y0188623D01*
X0137340Y0188568D01*
X0137487Y0188510D01*
X0137633Y0188448D01*
X0137777Y0188383D01*
X0137919Y0188313D01*
X0138060Y0188241D01*
X0138199Y0188164D01*
X0138335Y0188085D01*
X0138470Y0188001D01*
X0138603Y0187915D01*
X0138733Y0187825D01*
X0138861Y0187732D01*
X0138987Y0187636D01*
X0139110Y0187536D01*
X0139231Y0187434D01*
X0139349Y0187329D01*
X0139464Y0187220D01*
X0139577Y0187109D01*
X0139687Y0186995D01*
X0139794Y0186878D01*
X0139898Y0186759D01*
X0139999Y0186637D01*
X0140096Y0186512D01*
X0140191Y0186385D01*
X0140282Y0186256D01*
X0140371Y0186125D01*
X0140455Y0185991D01*
X0140537Y0185855D01*
X0140615Y0185718D01*
X0140689Y0185578D01*
X0140760Y0185436D01*
X0140828Y0185293D01*
X0140892Y0185148D01*
X0140952Y0185002D01*
X0141008Y0184854D01*
X0141061Y0184705D01*
X0141110Y0184554D01*
X0141155Y0184402D01*
X0141196Y0184249D01*
X0141234Y0184096D01*
X0141267Y0183941D01*
X0141297Y0183785D01*
X0141323Y0183629D01*
X0141344Y0183472D01*
X0141362Y0183315D01*
X0141376Y0183157D01*
X0141386Y0182999D01*
X0141392Y0182841D01*
X0141394Y0182683D01*
X0141392Y0182525D01*
X0141386Y0182367D01*
X0141376Y0182209D01*
X0141362Y0182051D01*
X0141344Y0181894D01*
X0141323Y0181737D01*
X0141297Y0181581D01*
X0141267Y0181425D01*
X0141234Y0181270D01*
X0141196Y0181117D01*
X0141155Y0180964D01*
X0141110Y0180812D01*
X0141061Y0180661D01*
X0141008Y0180512D01*
X0140952Y0180364D01*
X0140892Y0180218D01*
X0140828Y0180073D01*
X0140760Y0179930D01*
X0140689Y0179788D01*
X0140615Y0179648D01*
X0140537Y0179511D01*
X0140455Y0179375D01*
X0140371Y0179241D01*
X0140282Y0179110D01*
X0140191Y0178981D01*
X0140096Y0178854D01*
X0139999Y0178729D01*
X0139898Y0178607D01*
X0139794Y0178488D01*
X0139687Y0178371D01*
X0139577Y0178257D01*
X0139464Y0178146D01*
X0139349Y0178037D01*
X0139231Y0177932D01*
X0139110Y0177830D01*
X0138987Y0177730D01*
X0138861Y0177634D01*
X0138733Y0177541D01*
X0138603Y0177451D01*
X0138470Y0177365D01*
X0138335Y0177281D01*
X0138199Y0177202D01*
X0138060Y0177125D01*
X0137919Y0177053D01*
X0137777Y0176983D01*
X0137633Y0176918D01*
X0137487Y0176856D01*
X0137340Y0176798D01*
X0137191Y0176743D01*
X0137041Y0176692D01*
X0136890Y0176645D01*
X0136738Y0176602D01*
X0136585Y0176563D01*
X0136430Y0176527D01*
X0136275Y0176496D01*
X0136119Y0176468D01*
X0135963Y0176444D01*
X0135806Y0176424D01*
X0135648Y0176408D01*
X0135491Y0176396D01*
X0135332Y0176388D01*
X0135174Y0176384D01*
X0135016Y0176384D01*
X0134858Y0176388D01*
X0134699Y0176396D01*
X0134542Y0176408D01*
X0134384Y0176424D01*
X0134227Y0176444D01*
X0134071Y0176468D01*
X0133915Y0176496D01*
X0133760Y0176527D01*
X0133605Y0176563D01*
X0133452Y0176602D01*
X0133300Y0176645D01*
X0133149Y0176692D01*
X0132999Y0176743D01*
X0132850Y0176798D01*
X0132703Y0176856D01*
X0132557Y0176918D01*
X0132413Y0176983D01*
X0132271Y0177053D01*
X0132130Y0177125D01*
X0131991Y0177202D01*
X0131855Y0177281D01*
X0131720Y0177365D01*
X0131587Y0177451D01*
X0131457Y0177541D01*
X0131329Y0177634D01*
X0131203Y0177730D01*
X0131080Y0177830D01*
X0130959Y0177932D01*
X0130841Y0178037D01*
X0130726Y0178146D01*
X0130613Y0178257D01*
X0130503Y0178371D01*
X0130396Y0178488D01*
X0130292Y0178607D01*
X0130191Y0178729D01*
X0130094Y0178854D01*
X0129999Y0178981D01*
X0129908Y0179110D01*
X0129819Y0179241D01*
X0129735Y0179375D01*
X0129653Y0179511D01*
X0129575Y0179648D01*
X0129501Y0179788D01*
X0129430Y0179930D01*
X0129362Y0180073D01*
X0129298Y0180218D01*
X0129238Y0180364D01*
X0129182Y0180512D01*
X0129129Y0180661D01*
X0129080Y0180812D01*
X0129035Y0180964D01*
X0128994Y0181117D01*
X0128956Y0181270D01*
X0128923Y0181425D01*
X0128893Y0181581D01*
X0128867Y0181737D01*
X0128846Y0181894D01*
X0128828Y0182051D01*
X0128814Y0182209D01*
X0128804Y0182367D01*
X0128798Y0182525D01*
X0128796Y0182683D01*
X0122595Y0201433D02*
X0103845Y0201433D01*
X0103747Y0201435D01*
X0103649Y0201441D01*
X0103551Y0201450D01*
X0103454Y0201464D01*
X0103357Y0201481D01*
X0103261Y0201502D01*
X0103166Y0201527D01*
X0103072Y0201555D01*
X0102980Y0201588D01*
X0102888Y0201623D01*
X0102798Y0201663D01*
X0102710Y0201705D01*
X0102623Y0201752D01*
X0102539Y0201801D01*
X0102456Y0201854D01*
X0102376Y0201910D01*
X0102297Y0201970D01*
X0102221Y0202032D01*
X0102148Y0202097D01*
X0102077Y0202165D01*
X0102009Y0202236D01*
X0101944Y0202309D01*
X0101882Y0202385D01*
X0101822Y0202464D01*
X0101766Y0202544D01*
X0101713Y0202627D01*
X0101664Y0202711D01*
X0101617Y0202798D01*
X0101575Y0202886D01*
X0101535Y0202976D01*
X0101500Y0203068D01*
X0101467Y0203160D01*
X0101439Y0203254D01*
X0101414Y0203349D01*
X0101393Y0203445D01*
X0101376Y0203542D01*
X0101362Y0203639D01*
X0101353Y0203737D01*
X0101347Y0203835D01*
X0101345Y0203933D01*
X0101347Y0204031D01*
X0101353Y0204129D01*
X0101362Y0204227D01*
X0101376Y0204324D01*
X0101393Y0204421D01*
X0101414Y0204517D01*
X0101439Y0204612D01*
X0101467Y0204706D01*
X0101500Y0204798D01*
X0101535Y0204890D01*
X0101575Y0204980D01*
X0101617Y0205068D01*
X0101664Y0205155D01*
X0101713Y0205239D01*
X0101766Y0205322D01*
X0101822Y0205402D01*
X0101882Y0205481D01*
X0101944Y0205557D01*
X0102009Y0205630D01*
X0102077Y0205701D01*
X0102148Y0205769D01*
X0102221Y0205834D01*
X0102297Y0205896D01*
X0102376Y0205956D01*
X0102456Y0206012D01*
X0102539Y0206065D01*
X0102623Y0206114D01*
X0102710Y0206161D01*
X0102798Y0206203D01*
X0102888Y0206243D01*
X0102980Y0206278D01*
X0103072Y0206311D01*
X0103166Y0206339D01*
X0103261Y0206364D01*
X0103357Y0206385D01*
X0103454Y0206402D01*
X0103551Y0206416D01*
X0103649Y0206425D01*
X0103747Y0206431D01*
X0103845Y0206433D01*
X0122595Y0206433D01*
X0122693Y0206431D01*
X0122791Y0206425D01*
X0122889Y0206416D01*
X0122986Y0206402D01*
X0123083Y0206385D01*
X0123179Y0206364D01*
X0123274Y0206339D01*
X0123368Y0206311D01*
X0123460Y0206278D01*
X0123552Y0206243D01*
X0123642Y0206203D01*
X0123730Y0206161D01*
X0123817Y0206114D01*
X0123901Y0206065D01*
X0123984Y0206012D01*
X0124064Y0205956D01*
X0124143Y0205896D01*
X0124219Y0205834D01*
X0124292Y0205769D01*
X0124363Y0205701D01*
X0124431Y0205630D01*
X0124496Y0205557D01*
X0124558Y0205481D01*
X0124618Y0205402D01*
X0124674Y0205322D01*
X0124727Y0205239D01*
X0124776Y0205155D01*
X0124823Y0205068D01*
X0124865Y0204980D01*
X0124905Y0204890D01*
X0124940Y0204798D01*
X0124973Y0204706D01*
X0125001Y0204612D01*
X0125026Y0204517D01*
X0125047Y0204421D01*
X0125064Y0204324D01*
X0125078Y0204227D01*
X0125087Y0204129D01*
X0125093Y0204031D01*
X0125095Y0203933D01*
X0125093Y0203835D01*
X0125087Y0203737D01*
X0125078Y0203639D01*
X0125064Y0203542D01*
X0125047Y0203445D01*
X0125026Y0203349D01*
X0125001Y0203254D01*
X0124973Y0203160D01*
X0124940Y0203068D01*
X0124905Y0202976D01*
X0124865Y0202886D01*
X0124823Y0202798D01*
X0124776Y0202711D01*
X0124727Y0202627D01*
X0124674Y0202544D01*
X0124618Y0202464D01*
X0124558Y0202385D01*
X0124496Y0202309D01*
X0124431Y0202236D01*
X0124363Y0202165D01*
X0124292Y0202097D01*
X0124219Y0202032D01*
X0124143Y0201970D01*
X0124064Y0201910D01*
X0123984Y0201854D01*
X0123901Y0201801D01*
X0123817Y0201752D01*
X0123730Y0201705D01*
X0123642Y0201663D01*
X0123552Y0201623D01*
X0123460Y0201588D01*
X0123368Y0201555D01*
X0123274Y0201527D01*
X0123179Y0201502D01*
X0123083Y0201481D01*
X0122986Y0201464D01*
X0122889Y0201450D01*
X0122791Y0201441D01*
X0122693Y0201435D01*
X0122595Y0201433D01*
X0143796Y0216433D02*
X0143798Y0216591D01*
X0143804Y0216749D01*
X0143814Y0216907D01*
X0143828Y0217065D01*
X0143846Y0217222D01*
X0143867Y0217379D01*
X0143893Y0217535D01*
X0143923Y0217691D01*
X0143956Y0217846D01*
X0143994Y0217999D01*
X0144035Y0218152D01*
X0144080Y0218304D01*
X0144129Y0218455D01*
X0144182Y0218604D01*
X0144238Y0218752D01*
X0144298Y0218898D01*
X0144362Y0219043D01*
X0144430Y0219186D01*
X0144501Y0219328D01*
X0144575Y0219468D01*
X0144653Y0219605D01*
X0144735Y0219741D01*
X0144819Y0219875D01*
X0144908Y0220006D01*
X0144999Y0220135D01*
X0145094Y0220262D01*
X0145191Y0220387D01*
X0145292Y0220509D01*
X0145396Y0220628D01*
X0145503Y0220745D01*
X0145613Y0220859D01*
X0145726Y0220970D01*
X0145841Y0221079D01*
X0145959Y0221184D01*
X0146080Y0221286D01*
X0146203Y0221386D01*
X0146329Y0221482D01*
X0146457Y0221575D01*
X0146587Y0221665D01*
X0146720Y0221751D01*
X0146855Y0221835D01*
X0146991Y0221914D01*
X0147130Y0221991D01*
X0147271Y0222063D01*
X0147413Y0222133D01*
X0147557Y0222198D01*
X0147703Y0222260D01*
X0147850Y0222318D01*
X0147999Y0222373D01*
X0148149Y0222424D01*
X0148300Y0222471D01*
X0148452Y0222514D01*
X0148605Y0222553D01*
X0148760Y0222589D01*
X0148915Y0222620D01*
X0149071Y0222648D01*
X0149227Y0222672D01*
X0149384Y0222692D01*
X0149542Y0222708D01*
X0149699Y0222720D01*
X0149858Y0222728D01*
X0150016Y0222732D01*
X0150174Y0222732D01*
X0150332Y0222728D01*
X0150491Y0222720D01*
X0150648Y0222708D01*
X0150806Y0222692D01*
X0150963Y0222672D01*
X0151119Y0222648D01*
X0151275Y0222620D01*
X0151430Y0222589D01*
X0151585Y0222553D01*
X0151738Y0222514D01*
X0151890Y0222471D01*
X0152041Y0222424D01*
X0152191Y0222373D01*
X0152340Y0222318D01*
X0152487Y0222260D01*
X0152633Y0222198D01*
X0152777Y0222133D01*
X0152919Y0222063D01*
X0153060Y0221991D01*
X0153199Y0221914D01*
X0153335Y0221835D01*
X0153470Y0221751D01*
X0153603Y0221665D01*
X0153733Y0221575D01*
X0153861Y0221482D01*
X0153987Y0221386D01*
X0154110Y0221286D01*
X0154231Y0221184D01*
X0154349Y0221079D01*
X0154464Y0220970D01*
X0154577Y0220859D01*
X0154687Y0220745D01*
X0154794Y0220628D01*
X0154898Y0220509D01*
X0154999Y0220387D01*
X0155096Y0220262D01*
X0155191Y0220135D01*
X0155282Y0220006D01*
X0155371Y0219875D01*
X0155455Y0219741D01*
X0155537Y0219605D01*
X0155615Y0219468D01*
X0155689Y0219328D01*
X0155760Y0219186D01*
X0155828Y0219043D01*
X0155892Y0218898D01*
X0155952Y0218752D01*
X0156008Y0218604D01*
X0156061Y0218455D01*
X0156110Y0218304D01*
X0156155Y0218152D01*
X0156196Y0217999D01*
X0156234Y0217846D01*
X0156267Y0217691D01*
X0156297Y0217535D01*
X0156323Y0217379D01*
X0156344Y0217222D01*
X0156362Y0217065D01*
X0156376Y0216907D01*
X0156386Y0216749D01*
X0156392Y0216591D01*
X0156394Y0216433D01*
X0156392Y0216275D01*
X0156386Y0216117D01*
X0156376Y0215959D01*
X0156362Y0215801D01*
X0156344Y0215644D01*
X0156323Y0215487D01*
X0156297Y0215331D01*
X0156267Y0215175D01*
X0156234Y0215020D01*
X0156196Y0214867D01*
X0156155Y0214714D01*
X0156110Y0214562D01*
X0156061Y0214411D01*
X0156008Y0214262D01*
X0155952Y0214114D01*
X0155892Y0213968D01*
X0155828Y0213823D01*
X0155760Y0213680D01*
X0155689Y0213538D01*
X0155615Y0213398D01*
X0155537Y0213261D01*
X0155455Y0213125D01*
X0155371Y0212991D01*
X0155282Y0212860D01*
X0155191Y0212731D01*
X0155096Y0212604D01*
X0154999Y0212479D01*
X0154898Y0212357D01*
X0154794Y0212238D01*
X0154687Y0212121D01*
X0154577Y0212007D01*
X0154464Y0211896D01*
X0154349Y0211787D01*
X0154231Y0211682D01*
X0154110Y0211580D01*
X0153987Y0211480D01*
X0153861Y0211384D01*
X0153733Y0211291D01*
X0153603Y0211201D01*
X0153470Y0211115D01*
X0153335Y0211031D01*
X0153199Y0210952D01*
X0153060Y0210875D01*
X0152919Y0210803D01*
X0152777Y0210733D01*
X0152633Y0210668D01*
X0152487Y0210606D01*
X0152340Y0210548D01*
X0152191Y0210493D01*
X0152041Y0210442D01*
X0151890Y0210395D01*
X0151738Y0210352D01*
X0151585Y0210313D01*
X0151430Y0210277D01*
X0151275Y0210246D01*
X0151119Y0210218D01*
X0150963Y0210194D01*
X0150806Y0210174D01*
X0150648Y0210158D01*
X0150491Y0210146D01*
X0150332Y0210138D01*
X0150174Y0210134D01*
X0150016Y0210134D01*
X0149858Y0210138D01*
X0149699Y0210146D01*
X0149542Y0210158D01*
X0149384Y0210174D01*
X0149227Y0210194D01*
X0149071Y0210218D01*
X0148915Y0210246D01*
X0148760Y0210277D01*
X0148605Y0210313D01*
X0148452Y0210352D01*
X0148300Y0210395D01*
X0148149Y0210442D01*
X0147999Y0210493D01*
X0147850Y0210548D01*
X0147703Y0210606D01*
X0147557Y0210668D01*
X0147413Y0210733D01*
X0147271Y0210803D01*
X0147130Y0210875D01*
X0146991Y0210952D01*
X0146855Y0211031D01*
X0146720Y0211115D01*
X0146587Y0211201D01*
X0146457Y0211291D01*
X0146329Y0211384D01*
X0146203Y0211480D01*
X0146080Y0211580D01*
X0145959Y0211682D01*
X0145841Y0211787D01*
X0145726Y0211896D01*
X0145613Y0212007D01*
X0145503Y0212121D01*
X0145396Y0212238D01*
X0145292Y0212357D01*
X0145191Y0212479D01*
X0145094Y0212604D01*
X0144999Y0212731D01*
X0144908Y0212860D01*
X0144819Y0212991D01*
X0144735Y0213125D01*
X0144653Y0213261D01*
X0144575Y0213398D01*
X0144501Y0213538D01*
X0144430Y0213680D01*
X0144362Y0213823D01*
X0144298Y0213968D01*
X0144238Y0214114D01*
X0144182Y0214262D01*
X0144129Y0214411D01*
X0144080Y0214562D01*
X0144035Y0214714D01*
X0143994Y0214867D01*
X0143956Y0215020D01*
X0143923Y0215175D01*
X0143893Y0215331D01*
X0143867Y0215487D01*
X0143846Y0215644D01*
X0143828Y0215801D01*
X0143814Y0215959D01*
X0143804Y0216117D01*
X0143798Y0216275D01*
X0143796Y0216433D01*
X0143695Y0241433D02*
X0143697Y0241593D01*
X0143703Y0241752D01*
X0143713Y0241911D01*
X0143727Y0242070D01*
X0143745Y0242229D01*
X0143766Y0242387D01*
X0143792Y0242544D01*
X0143822Y0242701D01*
X0143855Y0242857D01*
X0143893Y0243012D01*
X0143934Y0243166D01*
X0143979Y0243319D01*
X0144028Y0243471D01*
X0144081Y0243622D01*
X0144137Y0243771D01*
X0144198Y0243919D01*
X0144261Y0244065D01*
X0144329Y0244210D01*
X0144400Y0244353D01*
X0144474Y0244494D01*
X0144552Y0244633D01*
X0144634Y0244770D01*
X0144719Y0244905D01*
X0144807Y0245038D01*
X0144899Y0245169D01*
X0144993Y0245297D01*
X0145091Y0245423D01*
X0145192Y0245547D01*
X0145296Y0245668D01*
X0145403Y0245786D01*
X0145513Y0245902D01*
X0145626Y0246015D01*
X0145742Y0246125D01*
X0145860Y0246232D01*
X0145981Y0246336D01*
X0146105Y0246437D01*
X0146231Y0246535D01*
X0146359Y0246629D01*
X0146490Y0246721D01*
X0146623Y0246809D01*
X0146758Y0246894D01*
X0146895Y0246976D01*
X0147034Y0247054D01*
X0147175Y0247128D01*
X0147318Y0247199D01*
X0147463Y0247267D01*
X0147609Y0247330D01*
X0147757Y0247391D01*
X0147906Y0247447D01*
X0148057Y0247500D01*
X0148209Y0247549D01*
X0148362Y0247594D01*
X0148516Y0247635D01*
X0148671Y0247673D01*
X0148827Y0247706D01*
X0148984Y0247736D01*
X0149141Y0247762D01*
X0149299Y0247783D01*
X0149458Y0247801D01*
X0149617Y0247815D01*
X0149776Y0247825D01*
X0149935Y0247831D01*
X0150095Y0247833D01*
X0150255Y0247831D01*
X0150414Y0247825D01*
X0150573Y0247815D01*
X0150732Y0247801D01*
X0150891Y0247783D01*
X0151049Y0247762D01*
X0151206Y0247736D01*
X0151363Y0247706D01*
X0151519Y0247673D01*
X0151674Y0247635D01*
X0151828Y0247594D01*
X0151981Y0247549D01*
X0152133Y0247500D01*
X0152284Y0247447D01*
X0152433Y0247391D01*
X0152581Y0247330D01*
X0152727Y0247267D01*
X0152872Y0247199D01*
X0153015Y0247128D01*
X0153156Y0247054D01*
X0153295Y0246976D01*
X0153432Y0246894D01*
X0153567Y0246809D01*
X0153700Y0246721D01*
X0153831Y0246629D01*
X0153959Y0246535D01*
X0154085Y0246437D01*
X0154209Y0246336D01*
X0154330Y0246232D01*
X0154448Y0246125D01*
X0154564Y0246015D01*
X0154677Y0245902D01*
X0154787Y0245786D01*
X0154894Y0245668D01*
X0154998Y0245547D01*
X0155099Y0245423D01*
X0155197Y0245297D01*
X0155291Y0245169D01*
X0155383Y0245038D01*
X0155471Y0244905D01*
X0155556Y0244770D01*
X0155638Y0244633D01*
X0155716Y0244494D01*
X0155790Y0244353D01*
X0155861Y0244210D01*
X0155929Y0244065D01*
X0155992Y0243919D01*
X0156053Y0243771D01*
X0156109Y0243622D01*
X0156162Y0243471D01*
X0156211Y0243319D01*
X0156256Y0243166D01*
X0156297Y0243012D01*
X0156335Y0242857D01*
X0156368Y0242701D01*
X0156398Y0242544D01*
X0156424Y0242387D01*
X0156445Y0242229D01*
X0156463Y0242070D01*
X0156477Y0241911D01*
X0156487Y0241752D01*
X0156493Y0241593D01*
X0156495Y0241433D01*
X0156493Y0241273D01*
X0156487Y0241114D01*
X0156477Y0240955D01*
X0156463Y0240796D01*
X0156445Y0240637D01*
X0156424Y0240479D01*
X0156398Y0240322D01*
X0156368Y0240165D01*
X0156335Y0240009D01*
X0156297Y0239854D01*
X0156256Y0239700D01*
X0156211Y0239547D01*
X0156162Y0239395D01*
X0156109Y0239244D01*
X0156053Y0239095D01*
X0155992Y0238947D01*
X0155929Y0238801D01*
X0155861Y0238656D01*
X0155790Y0238513D01*
X0155716Y0238372D01*
X0155638Y0238233D01*
X0155556Y0238096D01*
X0155471Y0237961D01*
X0155383Y0237828D01*
X0155291Y0237697D01*
X0155197Y0237569D01*
X0155099Y0237443D01*
X0154998Y0237319D01*
X0154894Y0237198D01*
X0154787Y0237080D01*
X0154677Y0236964D01*
X0154564Y0236851D01*
X0154448Y0236741D01*
X0154330Y0236634D01*
X0154209Y0236530D01*
X0154085Y0236429D01*
X0153959Y0236331D01*
X0153831Y0236237D01*
X0153700Y0236145D01*
X0153567Y0236057D01*
X0153432Y0235972D01*
X0153295Y0235890D01*
X0153156Y0235812D01*
X0153015Y0235738D01*
X0152872Y0235667D01*
X0152727Y0235599D01*
X0152581Y0235536D01*
X0152433Y0235475D01*
X0152284Y0235419D01*
X0152133Y0235366D01*
X0151981Y0235317D01*
X0151828Y0235272D01*
X0151674Y0235231D01*
X0151519Y0235193D01*
X0151363Y0235160D01*
X0151206Y0235130D01*
X0151049Y0235104D01*
X0150891Y0235083D01*
X0150732Y0235065D01*
X0150573Y0235051D01*
X0150414Y0235041D01*
X0150255Y0235035D01*
X0150095Y0235033D01*
X0149935Y0235035D01*
X0149776Y0235041D01*
X0149617Y0235051D01*
X0149458Y0235065D01*
X0149299Y0235083D01*
X0149141Y0235104D01*
X0148984Y0235130D01*
X0148827Y0235160D01*
X0148671Y0235193D01*
X0148516Y0235231D01*
X0148362Y0235272D01*
X0148209Y0235317D01*
X0148057Y0235366D01*
X0147906Y0235419D01*
X0147757Y0235475D01*
X0147609Y0235536D01*
X0147463Y0235599D01*
X0147318Y0235667D01*
X0147175Y0235738D01*
X0147034Y0235812D01*
X0146895Y0235890D01*
X0146758Y0235972D01*
X0146623Y0236057D01*
X0146490Y0236145D01*
X0146359Y0236237D01*
X0146231Y0236331D01*
X0146105Y0236429D01*
X0145981Y0236530D01*
X0145860Y0236634D01*
X0145742Y0236741D01*
X0145626Y0236851D01*
X0145513Y0236964D01*
X0145403Y0237080D01*
X0145296Y0237198D01*
X0145192Y0237319D01*
X0145091Y0237443D01*
X0144993Y0237569D01*
X0144899Y0237697D01*
X0144807Y0237828D01*
X0144719Y0237961D01*
X0144634Y0238096D01*
X0144552Y0238233D01*
X0144474Y0238372D01*
X0144400Y0238513D01*
X0144329Y0238656D01*
X0144261Y0238801D01*
X0144198Y0238947D01*
X0144137Y0239095D01*
X0144081Y0239244D01*
X0144028Y0239395D01*
X0143979Y0239547D01*
X0143934Y0239700D01*
X0143893Y0239854D01*
X0143855Y0240009D01*
X0143822Y0240165D01*
X0143792Y0240322D01*
X0143766Y0240479D01*
X0143745Y0240637D01*
X0143727Y0240796D01*
X0143713Y0240955D01*
X0143703Y0241114D01*
X0143697Y0241273D01*
X0143695Y0241433D01*
X0143695Y0286433D02*
X0143697Y0286593D01*
X0143703Y0286752D01*
X0143713Y0286911D01*
X0143727Y0287070D01*
X0143745Y0287229D01*
X0143766Y0287387D01*
X0143792Y0287544D01*
X0143822Y0287701D01*
X0143855Y0287857D01*
X0143893Y0288012D01*
X0143934Y0288166D01*
X0143979Y0288319D01*
X0144028Y0288471D01*
X0144081Y0288622D01*
X0144137Y0288771D01*
X0144198Y0288919D01*
X0144261Y0289065D01*
X0144329Y0289210D01*
X0144400Y0289353D01*
X0144474Y0289494D01*
X0144552Y0289633D01*
X0144634Y0289770D01*
X0144719Y0289905D01*
X0144807Y0290038D01*
X0144899Y0290169D01*
X0144993Y0290297D01*
X0145091Y0290423D01*
X0145192Y0290547D01*
X0145296Y0290668D01*
X0145403Y0290786D01*
X0145513Y0290902D01*
X0145626Y0291015D01*
X0145742Y0291125D01*
X0145860Y0291232D01*
X0145981Y0291336D01*
X0146105Y0291437D01*
X0146231Y0291535D01*
X0146359Y0291629D01*
X0146490Y0291721D01*
X0146623Y0291809D01*
X0146758Y0291894D01*
X0146895Y0291976D01*
X0147034Y0292054D01*
X0147175Y0292128D01*
X0147318Y0292199D01*
X0147463Y0292267D01*
X0147609Y0292330D01*
X0147757Y0292391D01*
X0147906Y0292447D01*
X0148057Y0292500D01*
X0148209Y0292549D01*
X0148362Y0292594D01*
X0148516Y0292635D01*
X0148671Y0292673D01*
X0148827Y0292706D01*
X0148984Y0292736D01*
X0149141Y0292762D01*
X0149299Y0292783D01*
X0149458Y0292801D01*
X0149617Y0292815D01*
X0149776Y0292825D01*
X0149935Y0292831D01*
X0150095Y0292833D01*
X0150255Y0292831D01*
X0150414Y0292825D01*
X0150573Y0292815D01*
X0150732Y0292801D01*
X0150891Y0292783D01*
X0151049Y0292762D01*
X0151206Y0292736D01*
X0151363Y0292706D01*
X0151519Y0292673D01*
X0151674Y0292635D01*
X0151828Y0292594D01*
X0151981Y0292549D01*
X0152133Y0292500D01*
X0152284Y0292447D01*
X0152433Y0292391D01*
X0152581Y0292330D01*
X0152727Y0292267D01*
X0152872Y0292199D01*
X0153015Y0292128D01*
X0153156Y0292054D01*
X0153295Y0291976D01*
X0153432Y0291894D01*
X0153567Y0291809D01*
X0153700Y0291721D01*
X0153831Y0291629D01*
X0153959Y0291535D01*
X0154085Y0291437D01*
X0154209Y0291336D01*
X0154330Y0291232D01*
X0154448Y0291125D01*
X0154564Y0291015D01*
X0154677Y0290902D01*
X0154787Y0290786D01*
X0154894Y0290668D01*
X0154998Y0290547D01*
X0155099Y0290423D01*
X0155197Y0290297D01*
X0155291Y0290169D01*
X0155383Y0290038D01*
X0155471Y0289905D01*
X0155556Y0289770D01*
X0155638Y0289633D01*
X0155716Y0289494D01*
X0155790Y0289353D01*
X0155861Y0289210D01*
X0155929Y0289065D01*
X0155992Y0288919D01*
X0156053Y0288771D01*
X0156109Y0288622D01*
X0156162Y0288471D01*
X0156211Y0288319D01*
X0156256Y0288166D01*
X0156297Y0288012D01*
X0156335Y0287857D01*
X0156368Y0287701D01*
X0156398Y0287544D01*
X0156424Y0287387D01*
X0156445Y0287229D01*
X0156463Y0287070D01*
X0156477Y0286911D01*
X0156487Y0286752D01*
X0156493Y0286593D01*
X0156495Y0286433D01*
X0156493Y0286273D01*
X0156487Y0286114D01*
X0156477Y0285955D01*
X0156463Y0285796D01*
X0156445Y0285637D01*
X0156424Y0285479D01*
X0156398Y0285322D01*
X0156368Y0285165D01*
X0156335Y0285009D01*
X0156297Y0284854D01*
X0156256Y0284700D01*
X0156211Y0284547D01*
X0156162Y0284395D01*
X0156109Y0284244D01*
X0156053Y0284095D01*
X0155992Y0283947D01*
X0155929Y0283801D01*
X0155861Y0283656D01*
X0155790Y0283513D01*
X0155716Y0283372D01*
X0155638Y0283233D01*
X0155556Y0283096D01*
X0155471Y0282961D01*
X0155383Y0282828D01*
X0155291Y0282697D01*
X0155197Y0282569D01*
X0155099Y0282443D01*
X0154998Y0282319D01*
X0154894Y0282198D01*
X0154787Y0282080D01*
X0154677Y0281964D01*
X0154564Y0281851D01*
X0154448Y0281741D01*
X0154330Y0281634D01*
X0154209Y0281530D01*
X0154085Y0281429D01*
X0153959Y0281331D01*
X0153831Y0281237D01*
X0153700Y0281145D01*
X0153567Y0281057D01*
X0153432Y0280972D01*
X0153295Y0280890D01*
X0153156Y0280812D01*
X0153015Y0280738D01*
X0152872Y0280667D01*
X0152727Y0280599D01*
X0152581Y0280536D01*
X0152433Y0280475D01*
X0152284Y0280419D01*
X0152133Y0280366D01*
X0151981Y0280317D01*
X0151828Y0280272D01*
X0151674Y0280231D01*
X0151519Y0280193D01*
X0151363Y0280160D01*
X0151206Y0280130D01*
X0151049Y0280104D01*
X0150891Y0280083D01*
X0150732Y0280065D01*
X0150573Y0280051D01*
X0150414Y0280041D01*
X0150255Y0280035D01*
X0150095Y0280033D01*
X0149935Y0280035D01*
X0149776Y0280041D01*
X0149617Y0280051D01*
X0149458Y0280065D01*
X0149299Y0280083D01*
X0149141Y0280104D01*
X0148984Y0280130D01*
X0148827Y0280160D01*
X0148671Y0280193D01*
X0148516Y0280231D01*
X0148362Y0280272D01*
X0148209Y0280317D01*
X0148057Y0280366D01*
X0147906Y0280419D01*
X0147757Y0280475D01*
X0147609Y0280536D01*
X0147463Y0280599D01*
X0147318Y0280667D01*
X0147175Y0280738D01*
X0147034Y0280812D01*
X0146895Y0280890D01*
X0146758Y0280972D01*
X0146623Y0281057D01*
X0146490Y0281145D01*
X0146359Y0281237D01*
X0146231Y0281331D01*
X0146105Y0281429D01*
X0145981Y0281530D01*
X0145860Y0281634D01*
X0145742Y0281741D01*
X0145626Y0281851D01*
X0145513Y0281964D01*
X0145403Y0282080D01*
X0145296Y0282198D01*
X0145192Y0282319D01*
X0145091Y0282443D01*
X0144993Y0282569D01*
X0144899Y0282697D01*
X0144807Y0282828D01*
X0144719Y0282961D01*
X0144634Y0283096D01*
X0144552Y0283233D01*
X0144474Y0283372D01*
X0144400Y0283513D01*
X0144329Y0283656D01*
X0144261Y0283801D01*
X0144198Y0283947D01*
X0144137Y0284095D01*
X0144081Y0284244D01*
X0144028Y0284395D01*
X0143979Y0284547D01*
X0143934Y0284700D01*
X0143893Y0284854D01*
X0143855Y0285009D01*
X0143822Y0285165D01*
X0143792Y0285322D01*
X0143766Y0285479D01*
X0143745Y0285637D01*
X0143727Y0285796D01*
X0143713Y0285955D01*
X0143703Y0286114D01*
X0143697Y0286273D01*
X0143695Y0286433D01*
X0070046Y0288933D02*
X0070048Y0289091D01*
X0070054Y0289249D01*
X0070064Y0289407D01*
X0070078Y0289565D01*
X0070096Y0289722D01*
X0070117Y0289879D01*
X0070143Y0290035D01*
X0070173Y0290191D01*
X0070206Y0290346D01*
X0070244Y0290499D01*
X0070285Y0290652D01*
X0070330Y0290804D01*
X0070379Y0290955D01*
X0070432Y0291104D01*
X0070488Y0291252D01*
X0070548Y0291398D01*
X0070612Y0291543D01*
X0070680Y0291686D01*
X0070751Y0291828D01*
X0070825Y0291968D01*
X0070903Y0292105D01*
X0070985Y0292241D01*
X0071069Y0292375D01*
X0071158Y0292506D01*
X0071249Y0292635D01*
X0071344Y0292762D01*
X0071441Y0292887D01*
X0071542Y0293009D01*
X0071646Y0293128D01*
X0071753Y0293245D01*
X0071863Y0293359D01*
X0071976Y0293470D01*
X0072091Y0293579D01*
X0072209Y0293684D01*
X0072330Y0293786D01*
X0072453Y0293886D01*
X0072579Y0293982D01*
X0072707Y0294075D01*
X0072837Y0294165D01*
X0072970Y0294251D01*
X0073105Y0294335D01*
X0073241Y0294414D01*
X0073380Y0294491D01*
X0073521Y0294563D01*
X0073663Y0294633D01*
X0073807Y0294698D01*
X0073953Y0294760D01*
X0074100Y0294818D01*
X0074249Y0294873D01*
X0074399Y0294924D01*
X0074550Y0294971D01*
X0074702Y0295014D01*
X0074855Y0295053D01*
X0075010Y0295089D01*
X0075165Y0295120D01*
X0075321Y0295148D01*
X0075477Y0295172D01*
X0075634Y0295192D01*
X0075792Y0295208D01*
X0075949Y0295220D01*
X0076108Y0295228D01*
X0076266Y0295232D01*
X0076424Y0295232D01*
X0076582Y0295228D01*
X0076741Y0295220D01*
X0076898Y0295208D01*
X0077056Y0295192D01*
X0077213Y0295172D01*
X0077369Y0295148D01*
X0077525Y0295120D01*
X0077680Y0295089D01*
X0077835Y0295053D01*
X0077988Y0295014D01*
X0078140Y0294971D01*
X0078291Y0294924D01*
X0078441Y0294873D01*
X0078590Y0294818D01*
X0078737Y0294760D01*
X0078883Y0294698D01*
X0079027Y0294633D01*
X0079169Y0294563D01*
X0079310Y0294491D01*
X0079449Y0294414D01*
X0079585Y0294335D01*
X0079720Y0294251D01*
X0079853Y0294165D01*
X0079983Y0294075D01*
X0080111Y0293982D01*
X0080237Y0293886D01*
X0080360Y0293786D01*
X0080481Y0293684D01*
X0080599Y0293579D01*
X0080714Y0293470D01*
X0080827Y0293359D01*
X0080937Y0293245D01*
X0081044Y0293128D01*
X0081148Y0293009D01*
X0081249Y0292887D01*
X0081346Y0292762D01*
X0081441Y0292635D01*
X0081532Y0292506D01*
X0081621Y0292375D01*
X0081705Y0292241D01*
X0081787Y0292105D01*
X0081865Y0291968D01*
X0081939Y0291828D01*
X0082010Y0291686D01*
X0082078Y0291543D01*
X0082142Y0291398D01*
X0082202Y0291252D01*
X0082258Y0291104D01*
X0082311Y0290955D01*
X0082360Y0290804D01*
X0082405Y0290652D01*
X0082446Y0290499D01*
X0082484Y0290346D01*
X0082517Y0290191D01*
X0082547Y0290035D01*
X0082573Y0289879D01*
X0082594Y0289722D01*
X0082612Y0289565D01*
X0082626Y0289407D01*
X0082636Y0289249D01*
X0082642Y0289091D01*
X0082644Y0288933D01*
X0082642Y0288775D01*
X0082636Y0288617D01*
X0082626Y0288459D01*
X0082612Y0288301D01*
X0082594Y0288144D01*
X0082573Y0287987D01*
X0082547Y0287831D01*
X0082517Y0287675D01*
X0082484Y0287520D01*
X0082446Y0287367D01*
X0082405Y0287214D01*
X0082360Y0287062D01*
X0082311Y0286911D01*
X0082258Y0286762D01*
X0082202Y0286614D01*
X0082142Y0286468D01*
X0082078Y0286323D01*
X0082010Y0286180D01*
X0081939Y0286038D01*
X0081865Y0285898D01*
X0081787Y0285761D01*
X0081705Y0285625D01*
X0081621Y0285491D01*
X0081532Y0285360D01*
X0081441Y0285231D01*
X0081346Y0285104D01*
X0081249Y0284979D01*
X0081148Y0284857D01*
X0081044Y0284738D01*
X0080937Y0284621D01*
X0080827Y0284507D01*
X0080714Y0284396D01*
X0080599Y0284287D01*
X0080481Y0284182D01*
X0080360Y0284080D01*
X0080237Y0283980D01*
X0080111Y0283884D01*
X0079983Y0283791D01*
X0079853Y0283701D01*
X0079720Y0283615D01*
X0079585Y0283531D01*
X0079449Y0283452D01*
X0079310Y0283375D01*
X0079169Y0283303D01*
X0079027Y0283233D01*
X0078883Y0283168D01*
X0078737Y0283106D01*
X0078590Y0283048D01*
X0078441Y0282993D01*
X0078291Y0282942D01*
X0078140Y0282895D01*
X0077988Y0282852D01*
X0077835Y0282813D01*
X0077680Y0282777D01*
X0077525Y0282746D01*
X0077369Y0282718D01*
X0077213Y0282694D01*
X0077056Y0282674D01*
X0076898Y0282658D01*
X0076741Y0282646D01*
X0076582Y0282638D01*
X0076424Y0282634D01*
X0076266Y0282634D01*
X0076108Y0282638D01*
X0075949Y0282646D01*
X0075792Y0282658D01*
X0075634Y0282674D01*
X0075477Y0282694D01*
X0075321Y0282718D01*
X0075165Y0282746D01*
X0075010Y0282777D01*
X0074855Y0282813D01*
X0074702Y0282852D01*
X0074550Y0282895D01*
X0074399Y0282942D01*
X0074249Y0282993D01*
X0074100Y0283048D01*
X0073953Y0283106D01*
X0073807Y0283168D01*
X0073663Y0283233D01*
X0073521Y0283303D01*
X0073380Y0283375D01*
X0073241Y0283452D01*
X0073105Y0283531D01*
X0072970Y0283615D01*
X0072837Y0283701D01*
X0072707Y0283791D01*
X0072579Y0283884D01*
X0072453Y0283980D01*
X0072330Y0284080D01*
X0072209Y0284182D01*
X0072091Y0284287D01*
X0071976Y0284396D01*
X0071863Y0284507D01*
X0071753Y0284621D01*
X0071646Y0284738D01*
X0071542Y0284857D01*
X0071441Y0284979D01*
X0071344Y0285104D01*
X0071249Y0285231D01*
X0071158Y0285360D01*
X0071069Y0285491D01*
X0070985Y0285625D01*
X0070903Y0285761D01*
X0070825Y0285898D01*
X0070751Y0286038D01*
X0070680Y0286180D01*
X0070612Y0286323D01*
X0070548Y0286468D01*
X0070488Y0286614D01*
X0070432Y0286762D01*
X0070379Y0286911D01*
X0070330Y0287062D01*
X0070285Y0287214D01*
X0070244Y0287367D01*
X0070206Y0287520D01*
X0070173Y0287675D01*
X0070143Y0287831D01*
X0070117Y0287987D01*
X0070096Y0288144D01*
X0070078Y0288301D01*
X0070064Y0288459D01*
X0070054Y0288617D01*
X0070048Y0288775D01*
X0070046Y0288933D01*
X0066345Y0215183D02*
X0066348Y0214972D01*
X0066355Y0214760D01*
X0066368Y0214549D01*
X0066386Y0214339D01*
X0066409Y0214128D01*
X0066437Y0213919D01*
X0066470Y0213710D01*
X0066508Y0213502D01*
X0066551Y0213295D01*
X0066599Y0213089D01*
X0066652Y0212884D01*
X0066710Y0212681D01*
X0066773Y0212479D01*
X0066841Y0212279D01*
X0066914Y0212080D01*
X0066991Y0211883D01*
X0067073Y0211689D01*
X0067160Y0211496D01*
X0067251Y0211305D01*
X0067347Y0211117D01*
X0067448Y0210931D01*
X0067553Y0210747D01*
X0067662Y0210566D01*
X0067776Y0210388D01*
X0067894Y0210212D01*
X0068016Y0210040D01*
X0068142Y0209870D01*
X0068273Y0209704D01*
X0068407Y0209541D01*
X0068546Y0209381D01*
X0068688Y0209224D01*
X0068834Y0209071D01*
X0068983Y0208922D01*
X0069136Y0208776D01*
X0069293Y0208634D01*
X0069453Y0208495D01*
X0069616Y0208361D01*
X0069782Y0208230D01*
X0069952Y0208104D01*
X0070124Y0207982D01*
X0070300Y0207864D01*
X0070478Y0207750D01*
X0070659Y0207641D01*
X0070843Y0207536D01*
X0071029Y0207435D01*
X0071217Y0207339D01*
X0071408Y0207248D01*
X0071601Y0207161D01*
X0071795Y0207079D01*
X0071992Y0207002D01*
X0072191Y0206929D01*
X0072391Y0206861D01*
X0072593Y0206798D01*
X0072796Y0206740D01*
X0073001Y0206687D01*
X0073207Y0206639D01*
X0073414Y0206596D01*
X0073622Y0206558D01*
X0073831Y0206525D01*
X0074040Y0206497D01*
X0074251Y0206474D01*
X0074461Y0206456D01*
X0074672Y0206443D01*
X0074884Y0206436D01*
X0075095Y0206433D01*
D11*
X0130395Y0240483D02*
X0133798Y0240483D01*
X0133798Y0242185D01*
X0133231Y0242752D01*
X0132097Y0242752D01*
X0131529Y0242185D01*
X0131529Y0240483D01*
X0131529Y0241617D02*
X0130395Y0242752D01*
X0130962Y0244166D02*
X0132097Y0244166D01*
X0132664Y0244733D01*
X0132664Y0245868D01*
X0132097Y0246435D01*
X0131529Y0246435D01*
X0131529Y0244166D01*
X0130962Y0244166D02*
X0130395Y0244733D01*
X0130395Y0245868D01*
X0132664Y0247849D02*
X0130395Y0248984D01*
X0132664Y0250118D01*
X0136395Y0249551D02*
X0136962Y0250118D01*
X0136395Y0249551D02*
X0136395Y0248417D01*
X0136962Y0247849D01*
X0139231Y0247849D01*
X0139798Y0248417D01*
X0139798Y0249551D01*
X0139231Y0250118D01*
X0138664Y0251533D02*
X0139798Y0252667D01*
X0138664Y0253801D01*
X0136395Y0253801D01*
X0136395Y0255216D02*
X0139798Y0255216D01*
X0136395Y0257484D01*
X0139798Y0257484D01*
X0138097Y0253801D02*
X0138097Y0251533D01*
X0138664Y0251533D02*
X0136395Y0251533D01*
X0132664Y0255216D02*
X0133798Y0256350D01*
X0132664Y0257484D01*
X0130395Y0257484D01*
X0132097Y0257484D02*
X0132097Y0255216D01*
X0132664Y0255216D02*
X0130395Y0255216D01*
X0132664Y0262582D02*
X0130395Y0263716D01*
X0132664Y0264851D01*
X0133231Y0266265D02*
X0133798Y0266832D01*
X0133798Y0267967D01*
X0133231Y0268534D01*
X0130962Y0266265D01*
X0130395Y0266832D01*
X0130395Y0267967D01*
X0130962Y0268534D01*
X0133231Y0268534D01*
X0133231Y0266265D02*
X0130962Y0266265D01*
X0130962Y0269948D02*
X0130962Y0270515D01*
X0130395Y0270515D01*
X0130395Y0269948D01*
X0130962Y0269948D01*
X0130395Y0271790D02*
X0130395Y0274058D01*
X0130395Y0272924D02*
X0133798Y0272924D01*
X0132664Y0271790D01*
X0135261Y0273631D02*
X0138664Y0273631D01*
X0138664Y0275333D01*
X0138097Y0275900D01*
X0136962Y0275900D01*
X0136395Y0275333D01*
X0136395Y0273631D01*
X0136395Y0272217D02*
X0136395Y0270515D01*
X0136962Y0269948D01*
X0137529Y0270515D01*
X0137529Y0272217D01*
X0138097Y0272217D02*
X0136395Y0272217D01*
X0138097Y0272217D02*
X0138664Y0271650D01*
X0138664Y0270515D01*
X0138664Y0268534D02*
X0138664Y0266832D01*
X0138097Y0266265D01*
X0136962Y0266265D01*
X0136395Y0266832D01*
X0136395Y0268534D01*
X0139798Y0268534D01*
X0138664Y0264851D02*
X0136395Y0264851D01*
X0138097Y0264851D02*
X0138097Y0262582D01*
X0138664Y0262582D02*
X0139798Y0263716D01*
X0138664Y0264851D01*
X0138664Y0262582D02*
X0136395Y0262582D01*
X0136395Y0246435D02*
X0136395Y0244733D01*
X0136962Y0244166D01*
X0137529Y0244733D01*
X0137529Y0246435D01*
X0138097Y0246435D02*
X0136395Y0246435D01*
X0138097Y0246435D02*
X0138664Y0245868D01*
X0138664Y0244733D01*
X0139798Y0244733D02*
X0140365Y0244733D01*
X0140365Y0245868D02*
X0139798Y0245868D01*
X0139798Y0242752D02*
X0138664Y0241617D01*
X0139798Y0240483D01*
X0136395Y0240483D01*
X0136395Y0242752D02*
X0139798Y0242752D01*
D12*
X0136345Y0138175D03*
X0136345Y0130301D03*
X0136345Y0122427D03*
X0136345Y0114553D03*
X0136345Y0106679D03*
X0136345Y0098805D03*
X0136345Y0090931D03*
X0136345Y0083057D03*
X0072566Y0083057D03*
X0072566Y0090931D03*
X0072566Y0098805D03*
X0072566Y0106679D03*
X0072566Y0114553D03*
X0072566Y0122427D03*
X0072566Y0130301D03*
X0072566Y0138175D03*
D13*
X0085164Y0075183D03*
X0093038Y0075183D03*
X0100912Y0075183D03*
X0108786Y0075183D03*
X0116660Y0075183D03*
X0124534Y0075183D03*
D14*
X0141345Y0076423D03*
X0141345Y0068943D03*
X0151345Y0073943D03*
X0151345Y0081423D03*
X0153845Y0111443D03*
X0153845Y0118923D03*
D15*
X0153095Y0093933D03*
X0147095Y0093933D03*
D16*
X0151345Y0166325D03*
X0151345Y0172230D03*
X0151345Y0178136D03*
X0151345Y0184041D03*
X0133953Y0213933D03*
X0128048Y0213933D03*
X0122142Y0213933D03*
X0116237Y0213933D03*
D17*
X0125095Y0246433D03*
X0125095Y0256433D03*
X0125095Y0266433D03*
X0125095Y0276433D03*
X0115095Y0271433D03*
X0115095Y0261433D03*
X0115095Y0251433D03*
X0115095Y0281433D03*
D18*
X0101266Y0259484D03*
X0101266Y0251807D03*
X0101266Y0243933D03*
X0101266Y0236059D03*
X0101266Y0228382D03*
X0091424Y0228382D03*
X0091424Y0234878D03*
X0091424Y0242752D03*
X0091424Y0250626D03*
X0091424Y0259484D03*
D19*
X0076463Y0243933D03*
D20*
X0079613Y0215390D03*
X0079613Y0272476D03*
D21*
X0126345Y0229133D02*
X0126345Y0223733D01*
X0136345Y0223733D02*
X0136345Y0229133D01*
D22*
X0132595Y0066333D02*
X0132595Y0061533D01*
X0122595Y0061533D02*
X0122595Y0066333D01*
X0112595Y0066333D02*
X0112595Y0061533D01*
X0102595Y0061533D02*
X0102595Y0066333D01*
X0092595Y0066333D02*
X0092595Y0061533D01*
D23*
X0092295Y0061854D02*
X0092895Y0061854D01*
X0092895Y0060856D02*
X0092295Y0060856D01*
X0092295Y0059857D02*
X0092895Y0059857D01*
X0092895Y0058859D02*
X0092295Y0058859D01*
X0092295Y0057860D02*
X0092895Y0057860D01*
X0092895Y0057633D02*
X0092979Y0057633D01*
X0093733Y0057783D01*
X0094442Y0058077D01*
X0095081Y0058504D01*
X0095624Y0059047D01*
X0096051Y0059686D01*
X0096345Y0060395D01*
X0096495Y0061149D01*
X0096495Y0063633D01*
X0092895Y0063633D01*
X0092895Y0057633D01*
X0092295Y0057633D02*
X0092295Y0063633D01*
X0088695Y0063633D01*
X0088695Y0061149D01*
X0088845Y0060395D01*
X0089139Y0059686D01*
X0089566Y0059047D01*
X0090109Y0058504D01*
X0090748Y0058077D01*
X0091458Y0057783D01*
X0092211Y0057633D01*
X0092295Y0057633D01*
X0091271Y0057860D02*
X0084907Y0057860D01*
X0085144Y0058433D02*
X0083805Y0055199D01*
X0081329Y0052723D01*
X0081232Y0052683D01*
X0150095Y0052683D01*
X0151268Y0052775D01*
X0153500Y0053501D01*
X0155398Y0054880D01*
X0156778Y0056778D01*
X0157503Y0059010D01*
X0157595Y0060183D01*
X0157595Y0102954D01*
X0157371Y0102413D01*
X0156616Y0101657D01*
X0155629Y0101249D01*
X0154561Y0101249D01*
X0153575Y0101657D01*
X0152820Y0102413D01*
X0152411Y0103399D01*
X0152411Y0104213D01*
X0152145Y0104479D01*
X0152145Y0107784D01*
X0150437Y0107784D01*
X0149792Y0108428D01*
X0149792Y0114458D01*
X0150306Y0114971D01*
X0149971Y0115164D01*
X0149692Y0115443D01*
X0149495Y0115785D01*
X0149392Y0116167D01*
X0149392Y0118423D01*
X0153345Y0118423D01*
X0153345Y0119423D01*
X0149392Y0119423D01*
X0149392Y0121680D01*
X0149495Y0122061D01*
X0149692Y0122403D01*
X0149971Y0122683D01*
X0150313Y0122880D01*
X0150695Y0122982D01*
X0153345Y0122982D01*
X0153345Y0119423D01*
X0154345Y0119423D01*
X0154345Y0122982D01*
X0156995Y0122982D01*
X0157377Y0122880D01*
X0157595Y0122754D01*
X0157595Y0191433D01*
X0157503Y0192606D01*
X0156778Y0194838D01*
X0155398Y0196736D01*
X0153500Y0198116D01*
X0151268Y0198841D01*
X0151268Y0198841D01*
X0150095Y0198933D01*
X0136601Y0198933D01*
X0134763Y0199694D01*
X0134763Y0199694D01*
X0133356Y0201101D01*
X0133356Y0201101D01*
X0133219Y0201433D01*
X0126972Y0201433D01*
X0126834Y0201101D01*
X0126834Y0201101D01*
X0125427Y0199694D01*
X0125427Y0199694D01*
X0123590Y0198933D01*
X0102851Y0198933D01*
X0101013Y0199694D01*
X0101013Y0199694D01*
X0099606Y0201101D01*
X0099606Y0201101D01*
X0099469Y0201433D01*
X0093222Y0201433D01*
X0093084Y0201101D01*
X0093084Y0201101D01*
X0091677Y0199694D01*
X0091677Y0199694D01*
X0089840Y0198933D01*
X0076345Y0198933D01*
X0075172Y0198841D01*
X0072940Y0198116D01*
X0071042Y0196736D01*
X0069663Y0194838D01*
X0068937Y0192606D01*
X0068845Y0191433D01*
X0068845Y0141637D01*
X0076958Y0141637D01*
X0077603Y0140993D01*
X0077603Y0139875D01*
X0087807Y0139875D01*
X0100799Y0126883D01*
X0101795Y0125887D01*
X0101795Y0099637D01*
X0102214Y0099218D01*
X0102214Y0099506D01*
X0102653Y0100565D01*
X0103463Y0101376D01*
X0104522Y0101814D01*
X0105572Y0101814D01*
X0112137Y0108379D01*
X0131308Y0108379D01*
X0131308Y0109497D01*
X0131952Y0110141D01*
X0140738Y0110141D01*
X0141382Y0109497D01*
X0141382Y0103861D01*
X0140738Y0103217D01*
X0131952Y0103217D01*
X0131308Y0103861D01*
X0131308Y0104979D01*
X0113545Y0104979D01*
X0107976Y0099410D01*
X0107976Y0098360D01*
X0107538Y0097301D01*
X0106727Y0096491D01*
X0105668Y0096052D01*
X0105380Y0096052D01*
X0107214Y0094218D01*
X0107214Y0094506D01*
X0107653Y0095565D01*
X0108463Y0096376D01*
X0109522Y0096814D01*
X0110668Y0096814D01*
X0111727Y0096376D01*
X0112538Y0095565D01*
X0112976Y0094506D01*
X0112976Y0093456D01*
X0113801Y0092631D01*
X0127686Y0092631D01*
X0127820Y0092954D01*
X0128575Y0093709D01*
X0129561Y0094117D01*
X0130629Y0094117D01*
X0131370Y0093811D01*
X0131952Y0094393D01*
X0140738Y0094393D01*
X0141382Y0093749D01*
X0141382Y0089720D01*
X0141436Y0089742D01*
X0142504Y0089742D01*
X0143491Y0089334D01*
X0144246Y0088579D01*
X0144470Y0088037D01*
X0144695Y0088579D01*
X0145450Y0089334D01*
X0146293Y0089683D01*
X0144339Y0089683D01*
X0143695Y0090327D01*
X0143695Y0097539D01*
X0144339Y0098183D01*
X0145259Y0098183D01*
X0144911Y0099024D01*
X0144911Y0100092D01*
X0145139Y0100643D01*
X0144200Y0101032D01*
X0143445Y0101788D01*
X0143036Y0102774D01*
X0143036Y0103842D01*
X0143145Y0104104D01*
X0142770Y0104479D01*
X0142770Y0171965D01*
X0143766Y0172961D01*
X0148142Y0177337D01*
X0148080Y0177486D01*
X0148080Y0178785D01*
X0148577Y0179985D01*
X0149474Y0180883D01*
X0149009Y0181194D01*
X0148498Y0181705D01*
X0148097Y0182305D01*
X0147821Y0182972D01*
X0147680Y0183680D01*
X0147680Y0183852D01*
X0151156Y0183852D01*
X0151156Y0184230D01*
X0147680Y0184230D01*
X0147680Y0184402D01*
X0147821Y0185110D01*
X0148097Y0185778D01*
X0148498Y0186378D01*
X0149009Y0186888D01*
X0149609Y0187290D01*
X0150276Y0187566D01*
X0150984Y0187707D01*
X0151156Y0187707D01*
X0151156Y0184230D01*
X0151534Y0184230D01*
X0155010Y0184230D01*
X0155010Y0184402D01*
X0154870Y0185110D01*
X0154593Y0185778D01*
X0154192Y0186378D01*
X0153682Y0186888D01*
X0153081Y0187290D01*
X0152414Y0187566D01*
X0151706Y0187707D01*
X0151534Y0187707D01*
X0151534Y0184230D01*
X0151534Y0183852D01*
X0155010Y0183852D01*
X0155010Y0183680D01*
X0154870Y0182972D01*
X0154593Y0182305D01*
X0154192Y0181705D01*
X0153682Y0181194D01*
X0153216Y0180883D01*
X0154113Y0179985D01*
X0154610Y0178785D01*
X0154610Y0177486D01*
X0154113Y0176286D01*
X0153195Y0175368D01*
X0152749Y0175183D01*
X0153195Y0174999D01*
X0154113Y0174080D01*
X0154610Y0172880D01*
X0154610Y0171581D01*
X0154113Y0170381D01*
X0153195Y0169462D01*
X0152749Y0169278D01*
X0153195Y0169093D01*
X0154113Y0168174D01*
X0154610Y0166974D01*
X0154610Y0165675D01*
X0154113Y0164475D01*
X0153195Y0163557D01*
X0151995Y0163059D01*
X0150696Y0163059D01*
X0149495Y0163557D01*
X0148670Y0164382D01*
X0148670Y0108387D01*
X0150545Y0106512D01*
X0150545Y0100104D01*
X0150279Y0099838D01*
X0150279Y0099024D01*
X0149907Y0098126D01*
X0150095Y0097939D01*
X0150339Y0098183D01*
X0155851Y0098183D01*
X0156495Y0097539D01*
X0156495Y0090327D01*
X0155851Y0089683D01*
X0154795Y0089683D01*
X0154795Y0085041D01*
X0155398Y0084438D01*
X0155398Y0078409D01*
X0154754Y0077764D01*
X0148670Y0077764D01*
X0148670Y0077762D01*
X0148830Y0077602D01*
X0154754Y0077602D01*
X0155398Y0076958D01*
X0155398Y0070928D01*
X0154754Y0070284D01*
X0147937Y0070284D01*
X0147292Y0070928D01*
X0147292Y0074332D01*
X0146266Y0075358D01*
X0145398Y0076226D01*
X0145398Y0073409D01*
X0144885Y0072895D01*
X0145219Y0072702D01*
X0145498Y0072423D01*
X0145696Y0072081D01*
X0145798Y0071699D01*
X0145798Y0069443D01*
X0141845Y0069443D01*
X0141845Y0068443D01*
X0141845Y0064884D01*
X0144495Y0064884D01*
X0144877Y0064986D01*
X0145219Y0065184D01*
X0145498Y0065463D01*
X0145696Y0065805D01*
X0145798Y0066186D01*
X0145798Y0068443D01*
X0141845Y0068443D01*
X0140845Y0068443D01*
X0136892Y0068443D01*
X0136892Y0066186D01*
X0136995Y0065805D01*
X0137192Y0065463D01*
X0137471Y0065184D01*
X0137813Y0064986D01*
X0138195Y0064884D01*
X0140845Y0064884D01*
X0140845Y0068443D01*
X0140845Y0069443D01*
X0136892Y0069443D01*
X0136892Y0071699D01*
X0136995Y0072081D01*
X0137192Y0072423D01*
X0137471Y0072702D01*
X0137806Y0072895D01*
X0137292Y0073409D01*
X0137292Y0079438D01*
X0137449Y0079595D01*
X0131952Y0079595D01*
X0131308Y0080239D01*
X0131308Y0085358D01*
X0130016Y0085358D01*
X0129391Y0085983D01*
X0128395Y0086979D01*
X0128395Y0089231D01*
X0122201Y0089231D01*
X0134295Y0077137D01*
X0134295Y0069417D01*
X0134578Y0069300D01*
X0135562Y0068316D01*
X0136095Y0067029D01*
X0136095Y0060837D01*
X0135562Y0059550D01*
X0134578Y0058566D01*
X0133291Y0058033D01*
X0131899Y0058033D01*
X0130613Y0058566D01*
X0129628Y0059550D01*
X0129095Y0060837D01*
X0129095Y0067029D01*
X0129628Y0068316D01*
X0130613Y0069300D01*
X0130895Y0069417D01*
X0130895Y0075729D01*
X0127996Y0078628D01*
X0127996Y0070790D01*
X0127352Y0070146D01*
X0123161Y0070146D01*
X0123604Y0069704D01*
X0124578Y0069300D01*
X0125562Y0068316D01*
X0126095Y0067029D01*
X0126095Y0060837D01*
X0125562Y0059550D01*
X0124578Y0058566D01*
X0123291Y0058033D01*
X0121899Y0058033D01*
X0120613Y0058566D01*
X0119628Y0059550D01*
X0119095Y0060837D01*
X0119095Y0067029D01*
X0119628Y0068316D01*
X0119906Y0068593D01*
X0119020Y0069479D01*
X0119020Y0070146D01*
X0113842Y0070146D01*
X0113198Y0070790D01*
X0113198Y0079576D01*
X0113842Y0080220D01*
X0119020Y0080220D01*
X0119020Y0081979D01*
X0115641Y0085358D01*
X0108141Y0085358D01*
X0106795Y0086704D01*
X0106795Y0080220D01*
X0111604Y0080220D01*
X0112248Y0079576D01*
X0112248Y0070790D01*
X0111604Y0070146D01*
X0107536Y0070146D01*
X0109551Y0068131D01*
X0109628Y0068316D01*
X0110613Y0069300D01*
X0111899Y0069833D01*
X0113291Y0069833D01*
X0114578Y0069300D01*
X0115562Y0068316D01*
X0116095Y0067029D01*
X0116095Y0060837D01*
X0115562Y0059550D01*
X0114578Y0058566D01*
X0113291Y0058033D01*
X0111899Y0058033D01*
X0110613Y0058566D01*
X0109628Y0059550D01*
X0109095Y0060837D01*
X0109095Y0063779D01*
X0106495Y0066379D01*
X0106495Y0064233D01*
X0102895Y0064233D01*
X0102895Y0063633D01*
X0102895Y0057633D01*
X0102979Y0057633D01*
X0103733Y0057783D01*
X0104442Y0058077D01*
X0105081Y0058504D01*
X0105624Y0059047D01*
X0106051Y0059686D01*
X0106345Y0060395D01*
X0106495Y0061149D01*
X0106495Y0063633D01*
X0102895Y0063633D01*
X0102295Y0063633D01*
X0098695Y0063633D01*
X0098695Y0061149D01*
X0098845Y0060395D01*
X0099139Y0059686D01*
X0099566Y0059047D01*
X0100109Y0058504D01*
X0100748Y0058077D01*
X0101458Y0057783D01*
X0102211Y0057633D01*
X0102295Y0057633D01*
X0102295Y0063633D01*
X0102295Y0064233D01*
X0098695Y0064233D01*
X0098695Y0066717D01*
X0098845Y0067471D01*
X0099139Y0068180D01*
X0099566Y0068819D01*
X0100109Y0069362D01*
X0100748Y0069789D01*
X0101458Y0070083D01*
X0101774Y0070146D01*
X0098094Y0070146D01*
X0097450Y0070790D01*
X0097450Y0079576D01*
X0098094Y0080220D01*
X0103395Y0080220D01*
X0103395Y0086979D01*
X0097976Y0092398D01*
X0097976Y0092110D01*
X0097538Y0091051D01*
X0096727Y0090241D01*
X0095668Y0089802D01*
X0094522Y0089802D01*
X0093463Y0090241D01*
X0092653Y0091051D01*
X0092214Y0092110D01*
X0092214Y0093160D01*
X0091449Y0093925D01*
X0091726Y0093256D01*
X0091726Y0092110D01*
X0091288Y0091051D01*
X0090477Y0090241D01*
X0089418Y0089802D01*
X0088272Y0089802D01*
X0087213Y0090241D01*
X0086471Y0090983D01*
X0077603Y0090983D01*
X0077603Y0088113D01*
X0076958Y0087469D01*
X0068845Y0087469D01*
X0068845Y0086919D01*
X0072066Y0086919D01*
X0072066Y0083557D01*
X0073066Y0083557D01*
X0078003Y0083557D01*
X0078003Y0085617D01*
X0077900Y0085998D01*
X0077703Y0086340D01*
X0077424Y0086620D01*
X0077082Y0086817D01*
X0103395Y0086817D01*
X0103395Y0085818D02*
X0077949Y0085818D01*
X0078003Y0084820D02*
X0103395Y0084820D01*
X0103395Y0083821D02*
X0078003Y0083821D01*
X0078003Y0082557D02*
X0073066Y0082557D01*
X0073066Y0083557D01*
X0073066Y0086919D01*
X0076700Y0086919D01*
X0077082Y0086817D01*
X0077305Y0087815D02*
X0102559Y0087815D01*
X0101560Y0088814D02*
X0077603Y0088814D01*
X0077603Y0089812D02*
X0088247Y0089812D01*
X0089444Y0089812D02*
X0094497Y0089812D01*
X0095694Y0089812D02*
X0100562Y0089812D01*
X0099563Y0090811D02*
X0097298Y0090811D01*
X0097852Y0091810D02*
X0098565Y0091810D01*
X0092893Y0090811D02*
X0091048Y0090811D01*
X0091602Y0091810D02*
X0092338Y0091810D01*
X0092214Y0092808D02*
X0091726Y0092808D01*
X0091568Y0093807D02*
X0091498Y0093807D01*
X0086643Y0090811D02*
X0077603Y0090811D01*
X0073066Y0086817D02*
X0072066Y0086817D01*
X0072066Y0085818D02*
X0073066Y0085818D01*
X0073066Y0084820D02*
X0072066Y0084820D01*
X0072066Y0083821D02*
X0073066Y0083821D01*
X0073066Y0082823D02*
X0103395Y0082823D01*
X0103395Y0081824D02*
X0078003Y0081824D01*
X0078003Y0082557D02*
X0078003Y0080497D01*
X0077900Y0080116D01*
X0077703Y0079774D01*
X0077424Y0079495D01*
X0077082Y0079297D01*
X0076700Y0079195D01*
X0073066Y0079195D01*
X0073066Y0082557D01*
X0072066Y0082557D01*
X0072066Y0079195D01*
X0068845Y0079195D01*
X0068845Y0065070D01*
X0068886Y0065167D01*
X0071361Y0067643D01*
X0074595Y0068982D01*
X0078095Y0068982D01*
X0081329Y0067643D01*
X0083805Y0065167D01*
X0085144Y0061933D01*
X0085144Y0058433D01*
X0085144Y0058859D02*
X0089754Y0058859D01*
X0089068Y0059857D02*
X0085144Y0059857D01*
X0085144Y0060856D02*
X0088753Y0060856D01*
X0088695Y0061854D02*
X0085144Y0061854D01*
X0084764Y0062853D02*
X0088695Y0062853D01*
X0088695Y0064233D02*
X0092295Y0064233D01*
X0092295Y0063633D01*
X0092895Y0063633D01*
X0092895Y0064233D01*
X0096495Y0064233D01*
X0096495Y0066717D01*
X0096345Y0067471D01*
X0096051Y0068180D01*
X0095624Y0068819D01*
X0095081Y0069362D01*
X0094442Y0069789D01*
X0093733Y0070083D01*
X0093417Y0070146D01*
X0095856Y0070146D01*
X0096500Y0070790D01*
X0096500Y0079576D01*
X0095856Y0080220D01*
X0090220Y0080220D01*
X0089576Y0079576D01*
X0089576Y0070790D01*
X0090220Y0070146D01*
X0091774Y0070146D01*
X0091458Y0070083D01*
X0090748Y0069789D01*
X0090109Y0069362D01*
X0089566Y0068819D01*
X0089139Y0068180D01*
X0088845Y0067471D01*
X0088695Y0066717D01*
X0088695Y0064233D01*
X0088695Y0064850D02*
X0083936Y0064850D01*
X0084350Y0063851D02*
X0092295Y0063851D01*
X0092895Y0063851D02*
X0102295Y0063851D01*
X0102895Y0063851D02*
X0109023Y0063851D01*
X0109095Y0062853D02*
X0106495Y0062853D01*
X0106495Y0061854D02*
X0109095Y0061854D01*
X0109095Y0060856D02*
X0106437Y0060856D01*
X0106122Y0059857D02*
X0109501Y0059857D01*
X0110320Y0058859D02*
X0105436Y0058859D01*
X0103919Y0057860D02*
X0157129Y0057860D01*
X0156805Y0056862D02*
X0084494Y0056862D01*
X0084080Y0055863D02*
X0156113Y0055863D01*
X0155378Y0054865D02*
X0083471Y0054865D01*
X0082472Y0053866D02*
X0154003Y0053866D01*
X0151552Y0052868D02*
X0081474Y0052868D01*
X0083124Y0065848D02*
X0088695Y0065848D01*
X0088721Y0066847D02*
X0082125Y0066847D01*
X0080840Y0067845D02*
X0089000Y0067845D01*
X0089590Y0068844D02*
X0078430Y0068844D01*
X0081702Y0070790D02*
X0082346Y0070146D01*
X0087982Y0070146D01*
X0088626Y0070790D01*
X0088626Y0079576D01*
X0087982Y0080220D01*
X0082346Y0080220D01*
X0081702Y0079576D01*
X0081702Y0070790D01*
X0081702Y0070841D02*
X0068845Y0070841D01*
X0068845Y0071839D02*
X0081702Y0071839D01*
X0081702Y0072838D02*
X0068845Y0072838D01*
X0068845Y0073836D02*
X0081702Y0073836D01*
X0081702Y0074835D02*
X0068845Y0074835D01*
X0068845Y0075833D02*
X0081702Y0075833D01*
X0081702Y0076832D02*
X0068845Y0076832D01*
X0068845Y0077830D02*
X0081702Y0077830D01*
X0081702Y0078829D02*
X0068845Y0078829D01*
X0072066Y0079827D02*
X0073066Y0079827D01*
X0073066Y0080826D02*
X0072066Y0080826D01*
X0072066Y0081824D02*
X0073066Y0081824D01*
X0078003Y0080826D02*
X0103395Y0080826D01*
X0106795Y0080826D02*
X0119020Y0080826D01*
X0119020Y0081824D02*
X0106795Y0081824D01*
X0106795Y0082823D02*
X0118176Y0082823D01*
X0117178Y0083821D02*
X0106795Y0083821D01*
X0106795Y0084820D02*
X0116179Y0084820D01*
X0113450Y0079827D02*
X0111997Y0079827D01*
X0112248Y0078829D02*
X0113198Y0078829D01*
X0113198Y0077830D02*
X0112248Y0077830D01*
X0112248Y0076832D02*
X0113198Y0076832D01*
X0113198Y0075833D02*
X0112248Y0075833D01*
X0112248Y0074835D02*
X0113198Y0074835D01*
X0113198Y0073836D02*
X0112248Y0073836D01*
X0112248Y0072838D02*
X0113198Y0072838D01*
X0113198Y0071839D02*
X0112248Y0071839D01*
X0112248Y0070841D02*
X0113198Y0070841D01*
X0115034Y0068844D02*
X0119655Y0068844D01*
X0119433Y0067845D02*
X0115757Y0067845D01*
X0116095Y0066847D02*
X0119095Y0066847D01*
X0119095Y0065848D02*
X0116095Y0065848D01*
X0116095Y0064850D02*
X0119095Y0064850D01*
X0119095Y0063851D02*
X0116095Y0063851D01*
X0116095Y0062853D02*
X0119095Y0062853D01*
X0119095Y0061854D02*
X0116095Y0061854D01*
X0116095Y0060856D02*
X0119095Y0060856D01*
X0119501Y0059857D02*
X0115689Y0059857D01*
X0114870Y0058859D02*
X0120320Y0058859D01*
X0124870Y0058859D02*
X0130320Y0058859D01*
X0129501Y0059857D02*
X0125689Y0059857D01*
X0126095Y0060856D02*
X0129095Y0060856D01*
X0129095Y0061854D02*
X0126095Y0061854D01*
X0126095Y0062853D02*
X0129095Y0062853D01*
X0129095Y0063851D02*
X0126095Y0063851D01*
X0126095Y0064850D02*
X0129095Y0064850D01*
X0129095Y0065848D02*
X0126095Y0065848D01*
X0126095Y0066847D02*
X0129095Y0066847D01*
X0129433Y0067845D02*
X0125757Y0067845D01*
X0125034Y0068844D02*
X0130156Y0068844D01*
X0130895Y0069842D02*
X0123465Y0069842D01*
X0119020Y0069842D02*
X0107840Y0069842D01*
X0108839Y0068844D02*
X0110156Y0068844D01*
X0108024Y0064850D02*
X0106495Y0064850D01*
X0106495Y0065848D02*
X0107026Y0065848D01*
X0102895Y0062853D02*
X0102295Y0062853D01*
X0102295Y0061854D02*
X0102895Y0061854D01*
X0102895Y0060856D02*
X0102295Y0060856D01*
X0102295Y0059857D02*
X0102895Y0059857D01*
X0102895Y0058859D02*
X0102295Y0058859D01*
X0102295Y0057860D02*
X0102895Y0057860D01*
X0101271Y0057860D02*
X0093919Y0057860D01*
X0095436Y0058859D02*
X0099754Y0058859D01*
X0099068Y0059857D02*
X0096122Y0059857D01*
X0096437Y0060856D02*
X0098753Y0060856D01*
X0098695Y0061854D02*
X0096495Y0061854D01*
X0096495Y0062853D02*
X0098695Y0062853D01*
X0098695Y0064850D02*
X0096495Y0064850D01*
X0096495Y0065848D02*
X0098695Y0065848D01*
X0098721Y0066847D02*
X0096469Y0066847D01*
X0096190Y0067845D02*
X0099000Y0067845D01*
X0099590Y0068844D02*
X0095600Y0068844D01*
X0094314Y0069842D02*
X0100876Y0069842D01*
X0097450Y0070841D02*
X0096500Y0070841D01*
X0096500Y0071839D02*
X0097450Y0071839D01*
X0097450Y0072838D02*
X0096500Y0072838D01*
X0096500Y0073836D02*
X0097450Y0073836D01*
X0097450Y0074835D02*
X0096500Y0074835D01*
X0096500Y0075833D02*
X0097450Y0075833D01*
X0097450Y0076832D02*
X0096500Y0076832D01*
X0096500Y0077830D02*
X0097450Y0077830D01*
X0097450Y0078829D02*
X0096500Y0078829D01*
X0096249Y0079827D02*
X0097702Y0079827D01*
X0089828Y0079827D02*
X0088375Y0079827D01*
X0088626Y0078829D02*
X0089576Y0078829D01*
X0089576Y0077830D02*
X0088626Y0077830D01*
X0088626Y0076832D02*
X0089576Y0076832D01*
X0089576Y0075833D02*
X0088626Y0075833D01*
X0088626Y0074835D02*
X0089576Y0074835D01*
X0089576Y0073836D02*
X0088626Y0073836D01*
X0088626Y0072838D02*
X0089576Y0072838D01*
X0089576Y0071839D02*
X0088626Y0071839D01*
X0088626Y0070841D02*
X0089576Y0070841D01*
X0090876Y0069842D02*
X0068845Y0069842D01*
X0068845Y0068844D02*
X0074260Y0068844D01*
X0071850Y0067845D02*
X0068845Y0067845D01*
X0068845Y0066847D02*
X0070565Y0066847D01*
X0069566Y0065848D02*
X0068845Y0065848D01*
X0077734Y0079827D02*
X0081953Y0079827D01*
X0092295Y0062853D02*
X0092895Y0062853D01*
X0106795Y0085818D02*
X0107681Y0085818D01*
X0107338Y0094805D02*
X0106627Y0094805D01*
X0105629Y0095804D02*
X0107891Y0095804D01*
X0107039Y0096802D02*
X0109493Y0096802D01*
X0110697Y0096802D02*
X0113152Y0096802D01*
X0113463Y0096491D02*
X0114522Y0096052D01*
X0115668Y0096052D01*
X0116727Y0096491D01*
X0117342Y0097105D01*
X0131308Y0097105D01*
X0131308Y0095987D01*
X0131952Y0095343D01*
X0140738Y0095343D01*
X0141382Y0095987D01*
X0141382Y0101623D01*
X0140738Y0102267D01*
X0131952Y0102267D01*
X0131308Y0101623D01*
X0131308Y0100505D01*
X0117562Y0100505D01*
X0117538Y0100565D01*
X0116727Y0101376D01*
X0115668Y0101814D01*
X0114522Y0101814D01*
X0113463Y0101376D01*
X0112653Y0100565D01*
X0112214Y0099506D01*
X0112214Y0098360D01*
X0112653Y0097301D01*
X0113463Y0096491D01*
X0112299Y0095804D02*
X0131492Y0095804D01*
X0131308Y0096802D02*
X0117039Y0096802D01*
X0117307Y0100796D02*
X0131308Y0100796D01*
X0131480Y0101795D02*
X0115715Y0101795D01*
X0114475Y0101795D02*
X0110361Y0101795D01*
X0111359Y0102793D02*
X0143036Y0102793D01*
X0143036Y0103792D02*
X0141313Y0103792D01*
X0141382Y0104790D02*
X0142770Y0104790D01*
X0142770Y0105789D02*
X0141382Y0105789D01*
X0141382Y0106787D02*
X0142770Y0106787D01*
X0142770Y0107786D02*
X0141382Y0107786D01*
X0141382Y0108784D02*
X0142770Y0108784D01*
X0142770Y0109783D02*
X0141096Y0109783D01*
X0140738Y0111091D02*
X0141382Y0111735D01*
X0141382Y0117371D01*
X0140738Y0118015D01*
X0131952Y0118015D01*
X0131308Y0117371D01*
X0131308Y0111735D01*
X0131952Y0111091D01*
X0140738Y0111091D01*
X0141382Y0111780D02*
X0142770Y0111780D01*
X0142770Y0112778D02*
X0141382Y0112778D01*
X0141382Y0113777D02*
X0142770Y0113777D01*
X0142770Y0114775D02*
X0141382Y0114775D01*
X0141382Y0115774D02*
X0142770Y0115774D01*
X0142770Y0116772D02*
X0141382Y0116772D01*
X0140982Y0117771D02*
X0142770Y0117771D01*
X0142770Y0118769D02*
X0128868Y0118769D01*
X0127870Y0117771D02*
X0131708Y0117771D01*
X0131308Y0116772D02*
X0126871Y0116772D01*
X0125873Y0115774D02*
X0131308Y0115774D01*
X0131308Y0114775D02*
X0124874Y0114775D01*
X0124654Y0114555D02*
X0130626Y0120527D01*
X0131308Y0120527D01*
X0131308Y0119609D01*
X0131952Y0118965D01*
X0140738Y0118965D01*
X0141382Y0119609D01*
X0141382Y0125245D01*
X0140738Y0125889D01*
X0131952Y0125889D01*
X0131308Y0125245D01*
X0131308Y0124327D01*
X0129052Y0124327D01*
X0127939Y0123214D01*
X0121970Y0117245D01*
X0120745Y0118470D01*
X0120745Y0152037D01*
X0121121Y0152413D01*
X0121529Y0153399D01*
X0121529Y0154467D01*
X0121121Y0155454D01*
X0120366Y0156209D01*
X0119379Y0156617D01*
X0118311Y0156617D01*
X0117325Y0156209D01*
X0116570Y0155454D01*
X0116161Y0154467D01*
X0116161Y0153399D01*
X0116570Y0152413D01*
X0116945Y0152037D01*
X0116945Y0116896D01*
X0118058Y0115783D01*
X0119286Y0114555D01*
X0119286Y0114024D01*
X0119695Y0113038D01*
X0120450Y0112282D01*
X0121436Y0111874D01*
X0122504Y0111874D01*
X0123491Y0112282D01*
X0124246Y0113038D01*
X0124654Y0114024D01*
X0124654Y0114555D01*
X0124552Y0113777D02*
X0131308Y0113777D01*
X0131308Y0112778D02*
X0123986Y0112778D01*
X0122496Y0117771D02*
X0121444Y0117771D01*
X0120745Y0118769D02*
X0123494Y0118769D01*
X0124493Y0119768D02*
X0120745Y0119768D01*
X0120745Y0120766D02*
X0125491Y0120766D01*
X0126490Y0121765D02*
X0120745Y0121765D01*
X0120745Y0122763D02*
X0127488Y0122763D01*
X0127939Y0123214D02*
X0127939Y0123214D01*
X0128487Y0123762D02*
X0120745Y0123762D01*
X0120745Y0124760D02*
X0131308Y0124760D01*
X0131822Y0125759D02*
X0120745Y0125759D01*
X0120745Y0126757D02*
X0142770Y0126757D01*
X0142770Y0125759D02*
X0140868Y0125759D01*
X0140738Y0126839D02*
X0141382Y0127483D01*
X0141382Y0133119D01*
X0140738Y0133763D01*
X0131952Y0133763D01*
X0131308Y0133119D01*
X0131308Y0127483D01*
X0131952Y0126839D01*
X0140738Y0126839D01*
X0141382Y0127756D02*
X0142770Y0127756D01*
X0142770Y0128754D02*
X0141382Y0128754D01*
X0141382Y0129753D02*
X0142770Y0129753D01*
X0142770Y0130751D02*
X0141382Y0130751D01*
X0141382Y0131750D02*
X0142770Y0131750D01*
X0142770Y0132748D02*
X0141382Y0132748D01*
X0140754Y0133747D02*
X0142770Y0133747D01*
X0142770Y0134745D02*
X0140770Y0134745D01*
X0140738Y0134713D02*
X0141382Y0135357D01*
X0141382Y0140993D01*
X0140738Y0141637D01*
X0131952Y0141637D01*
X0131308Y0140993D01*
X0131308Y0135357D01*
X0131952Y0134713D01*
X0140738Y0134713D01*
X0141382Y0135744D02*
X0142770Y0135744D01*
X0142770Y0136743D02*
X0141382Y0136743D01*
X0141382Y0137741D02*
X0142770Y0137741D01*
X0142770Y0138740D02*
X0141382Y0138740D01*
X0141382Y0139738D02*
X0142770Y0139738D01*
X0142770Y0140737D02*
X0141382Y0140737D01*
X0142770Y0141735D02*
X0120745Y0141735D01*
X0120745Y0140737D02*
X0131308Y0140737D01*
X0131308Y0139738D02*
X0120745Y0139738D01*
X0120745Y0138740D02*
X0131308Y0138740D01*
X0131308Y0137741D02*
X0120745Y0137741D01*
X0120745Y0136743D02*
X0131308Y0136743D01*
X0131308Y0135744D02*
X0120745Y0135744D01*
X0120745Y0134745D02*
X0131920Y0134745D01*
X0131936Y0133747D02*
X0120745Y0133747D01*
X0120745Y0132748D02*
X0131308Y0132748D01*
X0131308Y0131750D02*
X0120745Y0131750D01*
X0120745Y0130751D02*
X0131308Y0130751D01*
X0131308Y0129753D02*
X0120745Y0129753D01*
X0120745Y0128754D02*
X0131308Y0128754D01*
X0131308Y0127756D02*
X0120745Y0127756D01*
X0116945Y0127756D02*
X0099926Y0127756D01*
X0098928Y0128754D02*
X0116945Y0128754D01*
X0116945Y0129753D02*
X0097929Y0129753D01*
X0096931Y0130751D02*
X0116945Y0130751D01*
X0116945Y0131750D02*
X0095932Y0131750D01*
X0094934Y0132748D02*
X0116945Y0132748D01*
X0116945Y0133747D02*
X0093935Y0133747D01*
X0092937Y0134745D02*
X0116945Y0134745D01*
X0116945Y0135744D02*
X0091938Y0135744D01*
X0090940Y0136743D02*
X0116945Y0136743D01*
X0116945Y0137741D02*
X0089941Y0137741D01*
X0088943Y0138740D02*
X0116945Y0138740D01*
X0116945Y0139738D02*
X0087944Y0139738D01*
X0077603Y0140737D02*
X0116945Y0140737D01*
X0116945Y0141735D02*
X0068845Y0141735D01*
X0068845Y0142734D02*
X0116945Y0142734D01*
X0116945Y0143732D02*
X0068845Y0143732D01*
X0068845Y0144731D02*
X0116945Y0144731D01*
X0116945Y0145729D02*
X0068845Y0145729D01*
X0068845Y0146728D02*
X0116945Y0146728D01*
X0116945Y0147726D02*
X0068845Y0147726D01*
X0068845Y0148725D02*
X0116945Y0148725D01*
X0116945Y0149723D02*
X0068845Y0149723D01*
X0068845Y0150722D02*
X0116945Y0150722D01*
X0116945Y0151720D02*
X0068845Y0151720D01*
X0068845Y0152719D02*
X0116443Y0152719D01*
X0116161Y0153717D02*
X0068845Y0153717D01*
X0068845Y0154716D02*
X0116264Y0154716D01*
X0116830Y0155714D02*
X0068845Y0155714D01*
X0068845Y0156713D02*
X0142770Y0156713D01*
X0142770Y0157711D02*
X0068845Y0157711D01*
X0068845Y0158710D02*
X0142770Y0158710D01*
X0142770Y0159708D02*
X0068845Y0159708D01*
X0068845Y0160707D02*
X0142770Y0160707D01*
X0142770Y0161705D02*
X0068845Y0161705D01*
X0068845Y0162704D02*
X0142770Y0162704D01*
X0142770Y0163702D02*
X0068845Y0163702D01*
X0068845Y0164701D02*
X0142770Y0164701D01*
X0142770Y0165699D02*
X0068845Y0165699D01*
X0068845Y0166698D02*
X0142770Y0166698D01*
X0142770Y0167696D02*
X0068845Y0167696D01*
X0068845Y0168695D02*
X0142770Y0168695D01*
X0142770Y0169693D02*
X0068845Y0169693D01*
X0068845Y0170692D02*
X0142770Y0170692D01*
X0142770Y0171690D02*
X0068845Y0171690D01*
X0068845Y0172689D02*
X0143494Y0172689D01*
X0144493Y0173687D02*
X0068845Y0173687D01*
X0068845Y0174686D02*
X0131408Y0174686D01*
X0130111Y0175223D02*
X0133345Y0173884D01*
X0136845Y0173884D01*
X0140079Y0175223D01*
X0142555Y0177699D01*
X0143894Y0180933D01*
X0143894Y0184433D01*
X0142555Y0187667D01*
X0150783Y0187667D01*
X0151156Y0187667D02*
X0151534Y0187667D01*
X0151908Y0187667D02*
X0157595Y0187667D01*
X0157595Y0188665D02*
X0141557Y0188665D01*
X0142555Y0187667D02*
X0140079Y0190143D01*
X0136845Y0191482D01*
X0133345Y0191482D01*
X0130111Y0190143D01*
X0127636Y0187667D01*
X0126296Y0184433D01*
X0126296Y0180933D01*
X0127636Y0177699D01*
X0130111Y0175223D01*
X0129650Y0175684D02*
X0068845Y0175684D01*
X0068845Y0176683D02*
X0128651Y0176683D01*
X0127653Y0177681D02*
X0068845Y0177681D01*
X0068845Y0178680D02*
X0127229Y0178680D01*
X0126815Y0179679D02*
X0068845Y0179679D01*
X0068845Y0180677D02*
X0126402Y0180677D01*
X0126296Y0181676D02*
X0068845Y0181676D01*
X0068845Y0182674D02*
X0126296Y0182674D01*
X0126296Y0183673D02*
X0068845Y0183673D01*
X0068845Y0184671D02*
X0126394Y0184671D01*
X0126808Y0185670D02*
X0068845Y0185670D01*
X0068845Y0186668D02*
X0127222Y0186668D01*
X0127635Y0187667D02*
X0068845Y0187667D01*
X0068845Y0188665D02*
X0128633Y0188665D01*
X0129632Y0189664D02*
X0068845Y0189664D01*
X0068845Y0190662D02*
X0131365Y0190662D01*
X0134873Y0199649D02*
X0125317Y0199649D01*
X0126380Y0200647D02*
X0133810Y0200647D01*
X0138825Y0190662D02*
X0157595Y0190662D01*
X0157595Y0189664D02*
X0140559Y0189664D01*
X0142969Y0186668D02*
X0148788Y0186668D01*
X0148052Y0185670D02*
X0143382Y0185670D01*
X0143796Y0184671D02*
X0147733Y0184671D01*
X0147681Y0183673D02*
X0143894Y0183673D01*
X0143894Y0182674D02*
X0147944Y0182674D01*
X0148527Y0181676D02*
X0143894Y0181676D01*
X0143788Y0180677D02*
X0149268Y0180677D01*
X0148450Y0179679D02*
X0143375Y0179679D01*
X0142961Y0178680D02*
X0148080Y0178680D01*
X0148080Y0177681D02*
X0142538Y0177681D01*
X0141539Y0176683D02*
X0147488Y0176683D01*
X0146490Y0175684D02*
X0140540Y0175684D01*
X0138782Y0174686D02*
X0145491Y0174686D01*
X0148670Y0163702D02*
X0149350Y0163702D01*
X0148670Y0162704D02*
X0157595Y0162704D01*
X0157595Y0163702D02*
X0153341Y0163702D01*
X0154207Y0164701D02*
X0157595Y0164701D01*
X0157595Y0165699D02*
X0154610Y0165699D01*
X0154610Y0166698D02*
X0157595Y0166698D01*
X0157595Y0167696D02*
X0154311Y0167696D01*
X0153593Y0168695D02*
X0157595Y0168695D01*
X0157595Y0169693D02*
X0153426Y0169693D01*
X0154242Y0170692D02*
X0157595Y0170692D01*
X0157595Y0171690D02*
X0154610Y0171690D01*
X0154610Y0172689D02*
X0157595Y0172689D01*
X0157595Y0173687D02*
X0154276Y0173687D01*
X0153507Y0174686D02*
X0157595Y0174686D01*
X0157595Y0175684D02*
X0153512Y0175684D01*
X0154278Y0176683D02*
X0157595Y0176683D01*
X0157595Y0177681D02*
X0154610Y0177681D01*
X0154610Y0178680D02*
X0157595Y0178680D01*
X0157595Y0179679D02*
X0154241Y0179679D01*
X0153422Y0180677D02*
X0157595Y0180677D01*
X0157595Y0181676D02*
X0154163Y0181676D01*
X0154746Y0182674D02*
X0157595Y0182674D01*
X0157595Y0183673D02*
X0155009Y0183673D01*
X0154957Y0184671D02*
X0157595Y0184671D01*
X0157595Y0185670D02*
X0154638Y0185670D01*
X0153902Y0186668D02*
X0157595Y0186668D01*
X0157577Y0191661D02*
X0068863Y0191661D01*
X0068955Y0192659D02*
X0157486Y0192659D01*
X0157161Y0193658D02*
X0069279Y0193658D01*
X0069604Y0194656D02*
X0156837Y0194656D01*
X0156184Y0195655D02*
X0070256Y0195655D01*
X0070981Y0196653D02*
X0155459Y0196653D01*
X0154139Y0197652D02*
X0072302Y0197652D01*
X0074586Y0198650D02*
X0151855Y0198650D01*
X0151534Y0186668D02*
X0151156Y0186668D01*
X0151156Y0185670D02*
X0151534Y0185670D01*
X0151534Y0184671D02*
X0151156Y0184671D01*
X0148670Y0161705D02*
X0157595Y0161705D01*
X0157595Y0160707D02*
X0148670Y0160707D01*
X0148670Y0159708D02*
X0157595Y0159708D01*
X0157595Y0158710D02*
X0148670Y0158710D01*
X0148670Y0157711D02*
X0157595Y0157711D01*
X0157595Y0156713D02*
X0148670Y0156713D01*
X0148670Y0155714D02*
X0157595Y0155714D01*
X0157595Y0154716D02*
X0148670Y0154716D01*
X0148670Y0153717D02*
X0157595Y0153717D01*
X0157595Y0152719D02*
X0148670Y0152719D01*
X0148670Y0151720D02*
X0157595Y0151720D01*
X0157595Y0150722D02*
X0148670Y0150722D01*
X0148670Y0149723D02*
X0157595Y0149723D01*
X0157595Y0148725D02*
X0148670Y0148725D01*
X0148670Y0147726D02*
X0157595Y0147726D01*
X0157595Y0146728D02*
X0148670Y0146728D01*
X0148670Y0145729D02*
X0157595Y0145729D01*
X0157595Y0144731D02*
X0148670Y0144731D01*
X0148670Y0143732D02*
X0157595Y0143732D01*
X0157595Y0142734D02*
X0148670Y0142734D01*
X0148670Y0141735D02*
X0157595Y0141735D01*
X0157595Y0140737D02*
X0148670Y0140737D01*
X0148670Y0139738D02*
X0157595Y0139738D01*
X0157595Y0138740D02*
X0148670Y0138740D01*
X0148670Y0137741D02*
X0157595Y0137741D01*
X0157595Y0136743D02*
X0148670Y0136743D01*
X0148670Y0135744D02*
X0157595Y0135744D01*
X0157595Y0134745D02*
X0148670Y0134745D01*
X0148670Y0133747D02*
X0157595Y0133747D01*
X0157595Y0132748D02*
X0148670Y0132748D01*
X0148670Y0131750D02*
X0157595Y0131750D01*
X0157595Y0130751D02*
X0148670Y0130751D01*
X0148670Y0129753D02*
X0157595Y0129753D01*
X0157595Y0128754D02*
X0148670Y0128754D01*
X0148670Y0127756D02*
X0157595Y0127756D01*
X0157595Y0126757D02*
X0148670Y0126757D01*
X0148670Y0125759D02*
X0157595Y0125759D01*
X0157595Y0124760D02*
X0148670Y0124760D01*
X0148670Y0123762D02*
X0157595Y0123762D01*
X0157579Y0122763D02*
X0157595Y0122763D01*
X0154345Y0122763D02*
X0153345Y0122763D01*
X0153345Y0121765D02*
X0154345Y0121765D01*
X0154345Y0120766D02*
X0153345Y0120766D01*
X0153345Y0119768D02*
X0154345Y0119768D01*
X0153345Y0118769D02*
X0148670Y0118769D01*
X0148670Y0117771D02*
X0149392Y0117771D01*
X0149392Y0116772D02*
X0148670Y0116772D01*
X0148670Y0115774D02*
X0149501Y0115774D01*
X0150110Y0114775D02*
X0148670Y0114775D01*
X0148670Y0113777D02*
X0149792Y0113777D01*
X0149792Y0112778D02*
X0148670Y0112778D01*
X0148670Y0111780D02*
X0149792Y0111780D01*
X0149792Y0110781D02*
X0148670Y0110781D01*
X0148670Y0109783D02*
X0149792Y0109783D01*
X0149792Y0108784D02*
X0148670Y0108784D01*
X0149272Y0107786D02*
X0150435Y0107786D01*
X0150270Y0106787D02*
X0152145Y0106787D01*
X0152145Y0105789D02*
X0150545Y0105789D01*
X0150545Y0104790D02*
X0152145Y0104790D01*
X0152411Y0103792D02*
X0150545Y0103792D01*
X0150545Y0102793D02*
X0152662Y0102793D01*
X0153437Y0101795D02*
X0150545Y0101795D01*
X0150545Y0100796D02*
X0157595Y0100796D01*
X0157595Y0099798D02*
X0150279Y0099798D01*
X0150186Y0098799D02*
X0157595Y0098799D01*
X0157595Y0097801D02*
X0156233Y0097801D01*
X0156495Y0096802D02*
X0157595Y0096802D01*
X0157595Y0095804D02*
X0156495Y0095804D01*
X0156495Y0094805D02*
X0157595Y0094805D01*
X0157595Y0093807D02*
X0156495Y0093807D01*
X0156495Y0092808D02*
X0157595Y0092808D01*
X0157595Y0091810D02*
X0156495Y0091810D01*
X0156495Y0090811D02*
X0157595Y0090811D01*
X0157595Y0089812D02*
X0155980Y0089812D01*
X0154795Y0088814D02*
X0157595Y0088814D01*
X0157595Y0087815D02*
X0154795Y0087815D01*
X0154795Y0086817D02*
X0157595Y0086817D01*
X0157595Y0085818D02*
X0154795Y0085818D01*
X0155016Y0084820D02*
X0157595Y0084820D01*
X0157595Y0083821D02*
X0155398Y0083821D01*
X0155398Y0082823D02*
X0157595Y0082823D01*
X0157595Y0081824D02*
X0155398Y0081824D01*
X0155398Y0080826D02*
X0157595Y0080826D01*
X0157595Y0079827D02*
X0155398Y0079827D01*
X0155398Y0078829D02*
X0157595Y0078829D01*
X0157595Y0077830D02*
X0154820Y0077830D01*
X0155398Y0076832D02*
X0157595Y0076832D01*
X0157595Y0075833D02*
X0155398Y0075833D01*
X0155398Y0074835D02*
X0157595Y0074835D01*
X0157595Y0073836D02*
X0155398Y0073836D01*
X0155398Y0072838D02*
X0157595Y0072838D01*
X0157595Y0071839D02*
X0155398Y0071839D01*
X0155310Y0070841D02*
X0157595Y0070841D01*
X0157595Y0069842D02*
X0145798Y0069842D01*
X0145798Y0070841D02*
X0147380Y0070841D01*
X0147292Y0071839D02*
X0145760Y0071839D01*
X0144984Y0072838D02*
X0147292Y0072838D01*
X0147292Y0073836D02*
X0145398Y0073836D01*
X0145398Y0074835D02*
X0146789Y0074835D01*
X0145791Y0075833D02*
X0145398Y0075833D01*
X0141845Y0068844D02*
X0157595Y0068844D01*
X0157595Y0067845D02*
X0145798Y0067845D01*
X0145798Y0066847D02*
X0157595Y0066847D01*
X0157595Y0065848D02*
X0145707Y0065848D01*
X0141845Y0065848D02*
X0140845Y0065848D01*
X0140845Y0066847D02*
X0141845Y0066847D01*
X0141845Y0067845D02*
X0140845Y0067845D01*
X0140845Y0068844D02*
X0135034Y0068844D01*
X0135757Y0067845D02*
X0136892Y0067845D01*
X0136892Y0066847D02*
X0136095Y0066847D01*
X0136095Y0065848D02*
X0136983Y0065848D01*
X0136095Y0064850D02*
X0157595Y0064850D01*
X0157595Y0063851D02*
X0136095Y0063851D01*
X0136095Y0062853D02*
X0157595Y0062853D01*
X0157595Y0061854D02*
X0136095Y0061854D01*
X0136095Y0060856D02*
X0157595Y0060856D01*
X0157570Y0059857D02*
X0135689Y0059857D01*
X0134870Y0058859D02*
X0157454Y0058859D01*
X0136892Y0069842D02*
X0134295Y0069842D01*
X0134295Y0070841D02*
X0136892Y0070841D01*
X0136930Y0071839D02*
X0134295Y0071839D01*
X0134295Y0072838D02*
X0137706Y0072838D01*
X0137292Y0073836D02*
X0134295Y0073836D01*
X0134295Y0074835D02*
X0137292Y0074835D01*
X0137292Y0075833D02*
X0134295Y0075833D01*
X0134295Y0076832D02*
X0137292Y0076832D01*
X0137292Y0077830D02*
X0133602Y0077830D01*
X0132603Y0078829D02*
X0137292Y0078829D01*
X0131720Y0079827D02*
X0131605Y0079827D01*
X0131308Y0080826D02*
X0130606Y0080826D01*
X0131308Y0081824D02*
X0129608Y0081824D01*
X0128609Y0082823D02*
X0131308Y0082823D01*
X0131308Y0083821D02*
X0127611Y0083821D01*
X0126612Y0084820D02*
X0131308Y0084820D01*
X0129556Y0085818D02*
X0125614Y0085818D01*
X0124615Y0086817D02*
X0128557Y0086817D01*
X0128395Y0087815D02*
X0123617Y0087815D01*
X0122618Y0088814D02*
X0128395Y0088814D01*
X0127759Y0092808D02*
X0113624Y0092808D01*
X0112976Y0093807D02*
X0128811Y0093807D01*
X0131378Y0103792D02*
X0112358Y0103792D01*
X0113356Y0104790D02*
X0131308Y0104790D01*
X0131308Y0108784D02*
X0101795Y0108784D01*
X0101795Y0107786D02*
X0111544Y0107786D01*
X0110545Y0106787D02*
X0101795Y0106787D01*
X0101795Y0105789D02*
X0109547Y0105789D01*
X0108548Y0104790D02*
X0101795Y0104790D01*
X0101795Y0103792D02*
X0107550Y0103792D01*
X0106551Y0102793D02*
X0101795Y0102793D01*
X0101795Y0101795D02*
X0104475Y0101795D01*
X0102884Y0100796D02*
X0101795Y0100796D01*
X0101795Y0099798D02*
X0102335Y0099798D01*
X0107976Y0098799D02*
X0112214Y0098799D01*
X0112335Y0099798D02*
X0108364Y0099798D01*
X0109362Y0100796D02*
X0112884Y0100796D01*
X0112446Y0097801D02*
X0107745Y0097801D01*
X0112852Y0094805D02*
X0143695Y0094805D01*
X0143695Y0093807D02*
X0141325Y0093807D01*
X0141382Y0092808D02*
X0143695Y0092808D01*
X0143695Y0091810D02*
X0141382Y0091810D01*
X0141382Y0090811D02*
X0143695Y0090811D01*
X0144210Y0089812D02*
X0141382Y0089812D01*
X0144010Y0088814D02*
X0144930Y0088814D01*
X0143695Y0095804D02*
X0141198Y0095804D01*
X0141382Y0096802D02*
X0143695Y0096802D01*
X0143957Y0097801D02*
X0141382Y0097801D01*
X0141382Y0098799D02*
X0145004Y0098799D01*
X0144911Y0099798D02*
X0141382Y0099798D01*
X0141382Y0100796D02*
X0144770Y0100796D01*
X0143442Y0101795D02*
X0141210Y0101795D01*
X0142770Y0110781D02*
X0101795Y0110781D01*
X0101795Y0109783D02*
X0131594Y0109783D01*
X0131308Y0111780D02*
X0101795Y0111780D01*
X0101795Y0112778D02*
X0119954Y0112778D01*
X0119388Y0113777D02*
X0101795Y0113777D01*
X0101795Y0114775D02*
X0119066Y0114775D01*
X0118067Y0115774D02*
X0101795Y0115774D01*
X0101795Y0116772D02*
X0117069Y0116772D01*
X0116945Y0117771D02*
X0101795Y0117771D01*
X0101795Y0118769D02*
X0116945Y0118769D01*
X0116945Y0119768D02*
X0101795Y0119768D01*
X0101795Y0120766D02*
X0116945Y0120766D01*
X0116945Y0121765D02*
X0101795Y0121765D01*
X0101795Y0122763D02*
X0116945Y0122763D01*
X0116945Y0123762D02*
X0101795Y0123762D01*
X0101795Y0124760D02*
X0116945Y0124760D01*
X0116945Y0125759D02*
X0101795Y0125759D01*
X0100925Y0126757D02*
X0116945Y0126757D01*
X0129867Y0119768D02*
X0131308Y0119768D01*
X0141382Y0119768D02*
X0142770Y0119768D01*
X0142770Y0120766D02*
X0141382Y0120766D01*
X0141382Y0121765D02*
X0142770Y0121765D01*
X0142770Y0122763D02*
X0141382Y0122763D01*
X0141382Y0123762D02*
X0142770Y0123762D01*
X0142770Y0124760D02*
X0141382Y0124760D01*
X0148670Y0122763D02*
X0150111Y0122763D01*
X0149415Y0121765D02*
X0148670Y0121765D01*
X0148670Y0120766D02*
X0149392Y0120766D01*
X0149392Y0119768D02*
X0148670Y0119768D01*
X0157528Y0102793D02*
X0157595Y0102793D01*
X0157595Y0101795D02*
X0156753Y0101795D01*
X0130791Y0075833D02*
X0127996Y0075833D01*
X0127996Y0074835D02*
X0130895Y0074835D01*
X0130895Y0073836D02*
X0127996Y0073836D01*
X0127996Y0072838D02*
X0130895Y0072838D01*
X0130895Y0071839D02*
X0127996Y0071839D01*
X0127996Y0070841D02*
X0130895Y0070841D01*
X0129792Y0076832D02*
X0127996Y0076832D01*
X0127996Y0077830D02*
X0128794Y0077830D01*
X0120745Y0142734D02*
X0142770Y0142734D01*
X0142770Y0143732D02*
X0120745Y0143732D01*
X0120745Y0144731D02*
X0142770Y0144731D01*
X0142770Y0145729D02*
X0120745Y0145729D01*
X0120745Y0146728D02*
X0142770Y0146728D01*
X0142770Y0147726D02*
X0120745Y0147726D01*
X0120745Y0148725D02*
X0142770Y0148725D01*
X0142770Y0149723D02*
X0120745Y0149723D01*
X0120745Y0150722D02*
X0142770Y0150722D01*
X0142770Y0151720D02*
X0120745Y0151720D01*
X0121248Y0152719D02*
X0142770Y0152719D01*
X0142770Y0153717D02*
X0121529Y0153717D01*
X0121426Y0154716D02*
X0142770Y0154716D01*
X0142770Y0155714D02*
X0120860Y0155714D01*
X0101123Y0199649D02*
X0091567Y0199649D01*
X0092630Y0200647D02*
X0100060Y0200647D01*
D24*
X0098845Y0175183D03*
X0105095Y0175183D03*
X0092595Y0175183D03*
X0092595Y0143308D03*
X0113845Y0112058D03*
X0121970Y0114558D03*
X0130095Y0091433D03*
X0141970Y0087058D03*
X0146970Y0087058D03*
X0147595Y0099558D03*
X0145720Y0103308D03*
X0151970Y0100808D03*
X0155095Y0103933D03*
X0155095Y0128308D03*
X0155720Y0175183D03*
X0118845Y0153933D03*
X0103220Y0102683D03*
X0087595Y0067058D03*
X0071970Y0071433D03*
D25*
X0118845Y0117683D02*
X0118845Y0153933D01*
X0129839Y0122427D02*
X0121970Y0114558D01*
X0118845Y0117683D01*
X0129839Y0122427D02*
X0136345Y0122427D01*
X0132894Y0206433D02*
X0127296Y0206433D01*
X0127088Y0206935D01*
X0125597Y0208426D01*
X0123649Y0209233D01*
X0102791Y0209233D01*
X0100843Y0208426D01*
X0100843Y0208426D01*
X0099352Y0206935D01*
X0099144Y0206433D01*
X0093546Y0206433D01*
X0093338Y0206935D01*
X0091847Y0208426D01*
X0089899Y0209233D01*
X0084945Y0209233D01*
X0084985Y0209264D01*
X0085739Y0210017D01*
X0086388Y0210863D01*
X0086921Y0211786D01*
X0087329Y0212771D01*
X0087604Y0213800D01*
X0087708Y0214590D01*
X0080413Y0214590D01*
X0080413Y0216190D01*
X0078813Y0216190D01*
X0078813Y0223485D01*
X0078023Y0223381D01*
X0076994Y0223105D01*
X0076009Y0222698D01*
X0075086Y0222165D01*
X0074240Y0221516D01*
X0073487Y0220762D01*
X0072838Y0219917D01*
X0072305Y0218994D01*
X0071897Y0218009D01*
X0071621Y0216979D01*
X0071517Y0216190D01*
X0078813Y0216190D01*
X0078813Y0214590D01*
X0071517Y0214590D01*
X0071621Y0213800D01*
X0071897Y0212771D01*
X0072305Y0211786D01*
X0072838Y0210863D01*
X0073487Y0210017D01*
X0074201Y0209303D01*
X0074164Y0209306D01*
X0072394Y0209882D01*
X0070888Y0210976D01*
X0069794Y0212482D01*
X0069218Y0214252D01*
X0069145Y0215183D01*
X0069145Y0239166D01*
X0069196Y0239077D01*
X0069892Y0238170D01*
X0070701Y0237362D01*
X0071608Y0236666D01*
X0072598Y0236094D01*
X0073654Y0235657D01*
X0074758Y0235361D01*
X0075663Y0235242D01*
X0075663Y0243133D01*
X0077263Y0243133D01*
X0077263Y0235242D01*
X0078168Y0235361D01*
X0079273Y0235657D01*
X0080329Y0236094D01*
X0081319Y0236666D01*
X0082226Y0237362D01*
X0083034Y0238170D01*
X0083730Y0239077D01*
X0084302Y0240067D01*
X0084739Y0241124D01*
X0085035Y0242228D01*
X0085154Y0243133D01*
X0077263Y0243133D01*
X0077263Y0244733D01*
X0075663Y0244733D01*
X0075663Y0252624D01*
X0074758Y0252505D01*
X0073654Y0252209D01*
X0072598Y0251772D01*
X0071608Y0251200D01*
X0070701Y0250504D01*
X0069892Y0249696D01*
X0069196Y0248789D01*
X0069145Y0248700D01*
X0069145Y0283265D01*
X0071191Y0281219D01*
X0074535Y0279834D01*
X0076129Y0279834D01*
X0076009Y0279784D01*
X0075086Y0279251D01*
X0074240Y0278602D01*
X0073487Y0277849D01*
X0072838Y0277003D01*
X0072305Y0276080D01*
X0071897Y0275096D01*
X0071621Y0274066D01*
X0071517Y0273276D01*
X0078813Y0273276D01*
X0078813Y0271676D01*
X0080413Y0271676D01*
X0080413Y0264381D01*
X0081202Y0264485D01*
X0082232Y0264761D01*
X0083217Y0265169D01*
X0084140Y0265701D01*
X0084985Y0266350D01*
X0085739Y0267104D01*
X0086388Y0267949D01*
X0086921Y0268873D01*
X0087329Y0269857D01*
X0087604Y0270887D01*
X0087708Y0271676D01*
X0080413Y0271676D01*
X0080413Y0273276D01*
X0087708Y0273276D01*
X0087604Y0274066D01*
X0087329Y0275096D01*
X0086921Y0276080D01*
X0086388Y0277003D01*
X0085739Y0277849D01*
X0084985Y0278602D01*
X0084140Y0279251D01*
X0083217Y0279784D01*
X0082232Y0280192D01*
X0081202Y0280468D01*
X0080413Y0280572D01*
X0080413Y0273276D01*
X0078813Y0273276D01*
X0078813Y0280106D01*
X0081499Y0281219D01*
X0084059Y0283779D01*
X0085444Y0287123D01*
X0085444Y0290743D01*
X0084059Y0294087D01*
X0082013Y0296133D01*
X0150095Y0296133D01*
X0151221Y0296044D01*
X0153364Y0295348D01*
X0154360Y0294624D01*
X0151925Y0295633D01*
X0148265Y0295633D01*
X0144884Y0294232D01*
X0142296Y0291644D01*
X0140895Y0288263D01*
X0140895Y0284603D01*
X0142296Y0281222D01*
X0144884Y0278634D01*
X0148265Y0277233D01*
X0151925Y0277233D01*
X0155307Y0278634D01*
X0157295Y0280622D01*
X0157295Y0247244D01*
X0155307Y0249232D01*
X0151925Y0250633D01*
X0148265Y0250633D01*
X0144884Y0249232D01*
X0142296Y0246644D01*
X0142065Y0246088D01*
X0142065Y0246572D01*
X0141211Y0247426D01*
X0141498Y0247712D01*
X0141498Y0250255D01*
X0140644Y0251109D01*
X0141498Y0251963D01*
X0141498Y0253371D01*
X0140966Y0253903D01*
X0141119Y0254133D01*
X0141498Y0254511D01*
X0141498Y0254701D01*
X0141603Y0254859D01*
X0141498Y0255384D01*
X0141498Y0255920D01*
X0141364Y0256054D01*
X0141327Y0256240D01*
X0141105Y0256387D01*
X0141498Y0256780D01*
X0141498Y0258188D01*
X0140502Y0259184D01*
X0136910Y0259184D01*
X0136752Y0259289D01*
X0136227Y0259184D01*
X0135691Y0259184D01*
X0135557Y0259050D01*
X0135371Y0259013D01*
X0135074Y0258567D01*
X0134695Y0258188D01*
X0134695Y0257999D01*
X0134638Y0257914D01*
X0134364Y0258188D01*
X0134364Y0258188D01*
X0133368Y0259184D01*
X0129691Y0259184D01*
X0128716Y0258209D01*
X0128507Y0258713D01*
X0127375Y0259845D01*
X0125896Y0260458D01*
X0124295Y0260458D01*
X0122815Y0259845D01*
X0121683Y0258713D01*
X0121070Y0257234D01*
X0121070Y0255632D01*
X0121683Y0254153D01*
X0122815Y0253021D01*
X0124295Y0252408D01*
X0125896Y0252408D01*
X0127375Y0253021D01*
X0128507Y0254153D01*
X0128695Y0254606D01*
X0128695Y0254511D01*
X0129691Y0253516D01*
X0133368Y0253516D01*
X0134364Y0254511D01*
X0134364Y0254511D01*
X0134502Y0254650D01*
X0134502Y0254650D01*
X0134695Y0254843D01*
X0134695Y0254511D01*
X0134698Y0254508D01*
X0134695Y0254505D01*
X0134695Y0253097D01*
X0135125Y0252667D01*
X0134695Y0252237D01*
X0134695Y0250828D01*
X0134982Y0250542D01*
X0134695Y0250255D01*
X0134695Y0247712D01*
X0134982Y0247426D01*
X0134695Y0247139D01*
X0134695Y0244029D01*
X0134982Y0243743D01*
X0134813Y0243574D01*
X0134361Y0244026D01*
X0134364Y0244029D01*
X0134364Y0246572D01*
X0134072Y0246864D01*
X0134499Y0247719D01*
X0134078Y0248984D01*
X0134499Y0250248D01*
X0133869Y0251508D01*
X0132533Y0251953D01*
X0129743Y0250558D01*
X0129190Y0250374D01*
X0129128Y0250251D01*
X0129005Y0250189D01*
X0128821Y0249636D01*
X0128560Y0249114D01*
X0128603Y0248984D01*
X0128560Y0248853D01*
X0128821Y0248331D01*
X0129005Y0247778D01*
X0129128Y0247717D01*
X0129190Y0247594D01*
X0129585Y0247462D01*
X0129120Y0246997D01*
X0129120Y0247234D01*
X0128507Y0248713D01*
X0127375Y0249845D01*
X0125896Y0250458D01*
X0124295Y0250458D01*
X0122815Y0249845D01*
X0121683Y0248713D01*
X0121070Y0247234D01*
X0121070Y0245632D01*
X0121683Y0244153D01*
X0122095Y0243741D01*
X0122095Y0237086D01*
X0122552Y0235984D01*
X0125369Y0233167D01*
X0124298Y0232723D01*
X0118095Y0238926D01*
X0118095Y0248741D01*
X0118507Y0249153D01*
X0119120Y0250632D01*
X0119120Y0252234D01*
X0118507Y0253713D01*
X0117375Y0254845D01*
X0115896Y0255458D01*
X0114295Y0255458D01*
X0112815Y0254845D01*
X0112745Y0254775D01*
X0112745Y0257671D01*
X0112776Y0257648D01*
X0113397Y0257332D01*
X0114059Y0257117D01*
X0114747Y0257008D01*
X0115020Y0257008D01*
X0115020Y0261358D01*
X0115170Y0261358D01*
X0115170Y0257008D01*
X0115443Y0257008D01*
X0116131Y0257117D01*
X0116794Y0257332D01*
X0117414Y0257648D01*
X0117978Y0258058D01*
X0118470Y0258550D01*
X0118880Y0259114D01*
X0119196Y0259734D01*
X0119411Y0260397D01*
X0119520Y0261085D01*
X0119520Y0261358D01*
X0115170Y0261358D01*
X0115170Y0261508D01*
X0115020Y0261508D01*
X0115020Y0265843D01*
X0117073Y0267896D01*
X0117375Y0268021D01*
X0118507Y0269153D01*
X0119120Y0270632D01*
X0119120Y0272234D01*
X0118507Y0273713D01*
X0117375Y0274845D01*
X0115896Y0275458D01*
X0114295Y0275458D01*
X0112815Y0274845D01*
X0111683Y0273713D01*
X0111558Y0273411D01*
X0106636Y0268489D01*
X0105539Y0267392D01*
X0104945Y0265959D01*
X0104945Y0260434D01*
X0104456Y0261615D01*
X0103398Y0262674D01*
X0102015Y0263246D01*
X0100518Y0263246D01*
X0099135Y0262674D01*
X0098077Y0261615D01*
X0097504Y0260233D01*
X0097504Y0258736D01*
X0098077Y0257353D01*
X0099135Y0256295D01*
X0100518Y0255722D01*
X0102015Y0255722D01*
X0103398Y0256295D01*
X0104456Y0257353D01*
X0104945Y0258534D01*
X0104945Y0252757D01*
X0104456Y0253938D01*
X0103398Y0254997D01*
X0102015Y0255569D01*
X0100518Y0255569D01*
X0099135Y0254997D01*
X0098077Y0253938D01*
X0097504Y0252555D01*
X0097504Y0251059D01*
X0098077Y0249676D01*
X0099135Y0248618D01*
X0100518Y0248045D01*
X0102015Y0248045D01*
X0103398Y0248618D01*
X0104456Y0249676D01*
X0104945Y0250857D01*
X0104945Y0244883D01*
X0104456Y0246064D01*
X0103398Y0247123D01*
X0102015Y0247695D01*
X0100518Y0247695D01*
X0099135Y0247123D01*
X0098077Y0246064D01*
X0097504Y0244681D01*
X0097504Y0243185D01*
X0098077Y0241802D01*
X0099135Y0240744D01*
X0100518Y0240171D01*
X0102015Y0240171D01*
X0103398Y0240744D01*
X0104456Y0241802D01*
X0104945Y0242983D01*
X0104945Y0237009D01*
X0104456Y0238190D01*
X0103398Y0239248D01*
X0102015Y0239821D01*
X0100518Y0239821D01*
X0099135Y0239248D01*
X0098077Y0238190D01*
X0097504Y0236807D01*
X0097504Y0235311D01*
X0098077Y0233928D01*
X0099135Y0232870D01*
X0100518Y0232297D01*
X0102015Y0232297D01*
X0103398Y0232870D01*
X0104456Y0233928D01*
X0104945Y0235109D01*
X0104945Y0229332D01*
X0104456Y0230513D01*
X0103398Y0231571D01*
X0102015Y0232144D01*
X0100518Y0232144D01*
X0099135Y0231571D01*
X0098077Y0230513D01*
X0097504Y0229130D01*
X0097504Y0227634D01*
X0098077Y0226251D01*
X0099103Y0225225D01*
X0093587Y0225225D01*
X0094613Y0226251D01*
X0095186Y0227634D01*
X0095186Y0229130D01*
X0094613Y0230513D01*
X0093578Y0231549D01*
X0093633Y0231572D01*
X0094730Y0232669D01*
X0095324Y0234102D01*
X0095324Y0235654D01*
X0094730Y0237087D01*
X0093633Y0238184D01*
X0092403Y0238694D01*
X0093022Y0238895D01*
X0093605Y0239192D01*
X0094135Y0239577D01*
X0094599Y0240040D01*
X0094984Y0240570D01*
X0095281Y0241154D01*
X0095484Y0241777D01*
X0095586Y0242424D01*
X0095586Y0242752D01*
X0095586Y0243080D01*
X0095484Y0243727D01*
X0095281Y0244350D01*
X0094984Y0244933D01*
X0094599Y0245463D01*
X0094135Y0245927D01*
X0093605Y0246312D01*
X0093022Y0246609D01*
X0092399Y0246812D01*
X0092069Y0246864D01*
X0092172Y0246864D01*
X0093555Y0247437D01*
X0094613Y0248495D01*
X0095186Y0249878D01*
X0095186Y0251374D01*
X0094613Y0252757D01*
X0093555Y0253815D01*
X0092172Y0254388D01*
X0090676Y0254388D01*
X0089293Y0253815D01*
X0088234Y0252757D01*
X0087662Y0251374D01*
X0087662Y0249878D01*
X0088234Y0248495D01*
X0089293Y0247437D01*
X0090676Y0246864D01*
X0090778Y0246864D01*
X0090449Y0246812D01*
X0089826Y0246609D01*
X0089242Y0246312D01*
X0088712Y0245927D01*
X0088249Y0245463D01*
X0087864Y0244933D01*
X0087567Y0244350D01*
X0087364Y0243727D01*
X0087262Y0243080D01*
X0087262Y0242752D01*
X0091424Y0242752D01*
X0095586Y0242752D01*
X0091424Y0242752D01*
X0091424Y0242752D01*
X0091424Y0242752D01*
X0087262Y0242752D01*
X0087262Y0242424D01*
X0087364Y0241777D01*
X0087567Y0241154D01*
X0087864Y0240570D01*
X0088249Y0240040D01*
X0088712Y0239577D01*
X0089242Y0239192D01*
X0089826Y0238895D01*
X0090186Y0238778D01*
X0087764Y0238778D01*
X0086331Y0238184D01*
X0085234Y0237087D01*
X0081789Y0233642D01*
X0081195Y0232209D01*
X0081195Y0224407D01*
X0081672Y0223255D01*
X0081202Y0223381D01*
X0080413Y0223485D01*
X0080413Y0216190D01*
X0087708Y0216190D01*
X0087604Y0216979D01*
X0087399Y0217747D01*
X0088178Y0217425D01*
X0107230Y0217425D01*
X0114028Y0210627D01*
X0115461Y0210033D01*
X0117013Y0210033D01*
X0118446Y0210627D01*
X0119426Y0211607D01*
X0120123Y0210911D01*
X0121433Y0210368D01*
X0122852Y0210368D01*
X0124162Y0210911D01*
X0125095Y0211844D01*
X0126028Y0210911D01*
X0127339Y0210368D01*
X0128757Y0210368D01*
X0130067Y0210911D01*
X0130749Y0211592D01*
X0130873Y0211405D01*
X0131426Y0210853D01*
X0132075Y0210419D01*
X0132797Y0210120D01*
X0133563Y0209968D01*
X0133953Y0209968D01*
X0133953Y0213933D01*
X0133953Y0213933D01*
X0133953Y0217898D01*
X0133563Y0217898D01*
X0132797Y0217746D01*
X0132075Y0217447D01*
X0131426Y0217013D01*
X0130873Y0216461D01*
X0130749Y0216274D01*
X0130067Y0216956D01*
X0128757Y0217498D01*
X0127339Y0217498D01*
X0126028Y0216956D01*
X0125095Y0216022D01*
X0124162Y0216956D01*
X0122852Y0217498D01*
X0121433Y0217498D01*
X0120123Y0216956D01*
X0119426Y0216259D01*
X0112745Y0222940D01*
X0112745Y0235790D01*
X0122245Y0226290D01*
X0122245Y0222918D01*
X0122869Y0221411D01*
X0124023Y0220257D01*
X0125530Y0219633D01*
X0127161Y0219633D01*
X0128668Y0220257D01*
X0129821Y0221411D01*
X0130445Y0222918D01*
X0130445Y0228090D01*
X0132245Y0226290D01*
X0132245Y0222918D01*
X0132869Y0221411D01*
X0134023Y0220257D01*
X0135530Y0219633D01*
X0137161Y0219633D01*
X0138668Y0220257D01*
X0139821Y0221411D01*
X0140445Y0222918D01*
X0140445Y0229949D01*
X0139821Y0231456D01*
X0138668Y0232609D01*
X0137161Y0233233D01*
X0135530Y0233233D01*
X0134298Y0232723D01*
X0128095Y0238926D01*
X0128095Y0243741D01*
X0128507Y0244153D01*
X0128695Y0244606D01*
X0128695Y0244029D01*
X0128982Y0243743D01*
X0128695Y0243456D01*
X0128695Y0242048D01*
X0129125Y0241617D01*
X0128695Y0241187D01*
X0128695Y0239779D01*
X0129691Y0238783D01*
X0134502Y0238783D01*
X0135097Y0239377D01*
X0135691Y0238783D01*
X0140502Y0238783D01*
X0141020Y0239301D01*
X0142296Y0236222D01*
X0144884Y0233634D01*
X0148265Y0232233D01*
X0151925Y0232233D01*
X0155307Y0233634D01*
X0157295Y0235622D01*
X0157295Y0222101D01*
X0155249Y0224147D01*
X0151905Y0225532D01*
X0148285Y0225532D01*
X0144941Y0224147D01*
X0142381Y0221587D01*
X0140996Y0218243D01*
X0140996Y0214623D01*
X0142381Y0211279D01*
X0144427Y0209233D01*
X0136541Y0209233D01*
X0134593Y0208426D01*
X0134593Y0208426D01*
X0133102Y0206935D01*
X0132894Y0206433D01*
X0133102Y0206935D02*
X0133102Y0206935D01*
X0133315Y0207148D02*
X0126875Y0207148D01*
X0127088Y0206935D02*
X0127088Y0206935D01*
X0125597Y0208426D02*
X0125597Y0208426D01*
X0124823Y0208747D02*
X0135367Y0208747D01*
X0135110Y0210120D02*
X0135832Y0210419D01*
X0136481Y0210853D01*
X0137033Y0211405D01*
X0137467Y0212055D01*
X0137766Y0212776D01*
X0137919Y0213543D01*
X0141444Y0213543D01*
X0140996Y0215141D02*
X0137745Y0215141D01*
X0137766Y0215090D02*
X0137467Y0215811D01*
X0137033Y0216461D01*
X0136481Y0217013D01*
X0135832Y0217447D01*
X0135110Y0217746D01*
X0134344Y0217898D01*
X0133953Y0217898D01*
X0133953Y0213933D01*
X0133953Y0213933D01*
X0133953Y0209968D01*
X0134344Y0209968D01*
X0135110Y0210120D01*
X0135654Y0210345D02*
X0143314Y0210345D01*
X0142106Y0211944D02*
X0137393Y0211944D01*
X0137919Y0213543D02*
X0137919Y0213933D01*
X0133954Y0213933D01*
X0133954Y0213933D01*
X0137919Y0213933D01*
X0137919Y0214324D01*
X0137766Y0215090D01*
X0136755Y0216740D02*
X0140996Y0216740D01*
X0141035Y0218338D02*
X0117347Y0218338D01*
X0115749Y0219937D02*
X0124797Y0219937D01*
X0122818Y0221535D02*
X0114150Y0221535D01*
X0112745Y0223134D02*
X0122245Y0223134D01*
X0122245Y0224732D02*
X0112745Y0224732D01*
X0112745Y0226331D02*
X0122205Y0226331D01*
X0120606Y0227929D02*
X0112745Y0227929D01*
X0112745Y0229528D02*
X0119008Y0229528D01*
X0117409Y0231126D02*
X0112745Y0231126D01*
X0112745Y0232725D02*
X0115811Y0232725D01*
X0114212Y0234323D02*
X0112745Y0234323D01*
X0118095Y0239119D02*
X0122095Y0239119D01*
X0122095Y0240717D02*
X0118095Y0240717D01*
X0118095Y0242316D02*
X0122095Y0242316D01*
X0121922Y0243914D02*
X0118095Y0243914D01*
X0118095Y0245513D02*
X0121120Y0245513D01*
X0121070Y0247111D02*
X0118095Y0247111D01*
X0118095Y0248710D02*
X0121682Y0248710D01*
X0123933Y0250308D02*
X0118986Y0250308D01*
X0119120Y0251907D02*
X0132440Y0251907D01*
X0132673Y0251907D02*
X0134695Y0251907D01*
X0134695Y0253505D02*
X0127860Y0253505D01*
X0129157Y0250308D02*
X0126257Y0250308D01*
X0128509Y0248710D02*
X0128631Y0248710D01*
X0129120Y0247111D02*
X0129235Y0247111D01*
X0128810Y0243914D02*
X0128269Y0243914D01*
X0128095Y0242316D02*
X0128695Y0242316D01*
X0128695Y0240717D02*
X0128095Y0240717D01*
X0128095Y0239119D02*
X0129355Y0239119D01*
X0129501Y0237520D02*
X0141758Y0237520D01*
X0141096Y0239119D02*
X0140838Y0239119D01*
X0142596Y0235922D02*
X0131099Y0235922D01*
X0132698Y0234323D02*
X0144194Y0234323D01*
X0147078Y0232725D02*
X0138388Y0232725D01*
X0139957Y0231126D02*
X0157295Y0231126D01*
X0157295Y0229528D02*
X0140445Y0229528D01*
X0140445Y0227929D02*
X0157295Y0227929D01*
X0157295Y0226331D02*
X0140445Y0226331D01*
X0140445Y0224732D02*
X0146353Y0224732D01*
X0143927Y0223134D02*
X0140445Y0223134D01*
X0139872Y0221535D02*
X0142360Y0221535D01*
X0141697Y0219937D02*
X0137893Y0219937D01*
X0134797Y0219937D02*
X0127893Y0219937D01*
X0129872Y0221535D02*
X0132818Y0221535D01*
X0132245Y0223134D02*
X0130445Y0223134D01*
X0130445Y0224732D02*
X0132245Y0224732D01*
X0132205Y0226331D02*
X0130445Y0226331D01*
X0130445Y0227929D02*
X0130606Y0227929D01*
X0134296Y0232725D02*
X0134302Y0232725D01*
X0134838Y0239119D02*
X0135355Y0239119D01*
X0134810Y0243914D02*
X0134472Y0243914D01*
X0134364Y0245513D02*
X0134695Y0245513D01*
X0134695Y0247111D02*
X0134195Y0247111D01*
X0134169Y0248710D02*
X0134695Y0248710D01*
X0134748Y0250308D02*
X0134469Y0250308D01*
X0141445Y0250308D02*
X0147481Y0250308D01*
X0144361Y0248710D02*
X0141498Y0248710D01*
X0141526Y0247111D02*
X0142763Y0247111D01*
X0141442Y0251907D02*
X0157295Y0251907D01*
X0157295Y0253505D02*
X0141364Y0253505D01*
X0141554Y0255104D02*
X0157295Y0255104D01*
X0157295Y0256702D02*
X0141420Y0256702D01*
X0141386Y0258301D02*
X0157295Y0258301D01*
X0157295Y0259899D02*
X0127245Y0259899D01*
X0128678Y0258301D02*
X0128808Y0258301D01*
X0131031Y0261498D02*
X0115170Y0261498D01*
X0115170Y0261508D02*
X0119520Y0261508D01*
X0119520Y0261781D01*
X0119411Y0262469D01*
X0119196Y0263132D01*
X0118880Y0263752D01*
X0118470Y0264316D01*
X0117978Y0264808D01*
X0117414Y0265218D01*
X0116794Y0265534D01*
X0116131Y0265749D01*
X0115443Y0265858D01*
X0115170Y0265858D01*
X0115170Y0261508D01*
X0115170Y0263096D02*
X0115020Y0263096D01*
X0115020Y0264695D02*
X0115170Y0264695D01*
X0115471Y0266293D02*
X0121070Y0266293D01*
X0121070Y0265632D02*
X0121683Y0264153D01*
X0122815Y0263021D01*
X0124295Y0262408D01*
X0125896Y0262408D01*
X0127375Y0263021D01*
X0128507Y0264153D01*
X0129120Y0265632D01*
X0129120Y0265703D01*
X0129262Y0265561D01*
X0129585Y0265238D01*
X0129190Y0265106D01*
X0129128Y0264983D01*
X0129005Y0264922D01*
X0128821Y0264368D01*
X0128560Y0263847D01*
X0128603Y0263716D01*
X0128560Y0263586D01*
X0128821Y0263064D01*
X0129005Y0262511D01*
X0129128Y0262449D01*
X0129190Y0262326D01*
X0129743Y0262142D01*
X0132533Y0260747D01*
X0133869Y0261192D01*
X0134499Y0262451D01*
X0134078Y0263716D01*
X0134499Y0264981D01*
X0134450Y0265080D01*
X0134502Y0265132D01*
X0134695Y0265325D01*
X0134695Y0264146D01*
X0135125Y0263716D01*
X0134695Y0263286D01*
X0134695Y0261878D01*
X0135691Y0260882D01*
X0139368Y0260882D01*
X0140502Y0262016D01*
X0141498Y0263012D01*
X0141498Y0264420D01*
X0140364Y0265555D01*
X0140077Y0265841D01*
X0140364Y0266128D01*
X0140364Y0266834D01*
X0140502Y0266834D01*
X0141498Y0267830D01*
X0141498Y0269238D01*
X0140502Y0270234D01*
X0140364Y0270234D01*
X0140364Y0272354D01*
X0140077Y0272641D01*
X0140364Y0272927D01*
X0140364Y0276037D01*
X0139797Y0276604D01*
X0138801Y0277600D01*
X0136258Y0277600D01*
X0135691Y0277033D01*
X0134695Y0276037D01*
X0134695Y0275331D01*
X0134557Y0275331D01*
X0133849Y0274624D01*
X0132095Y0274624D01*
X0132095Y0274763D01*
X0131099Y0275758D01*
X0129691Y0275758D01*
X0128806Y0274873D01*
X0129120Y0275632D01*
X0129120Y0277234D01*
X0128507Y0278713D01*
X0127375Y0279845D01*
X0125896Y0280458D01*
X0124295Y0280458D01*
X0122815Y0279845D01*
X0121683Y0278713D01*
X0121070Y0277234D01*
X0121070Y0275632D01*
X0121683Y0274153D01*
X0122815Y0273021D01*
X0124295Y0272408D01*
X0125896Y0272408D01*
X0127375Y0273021D01*
X0128507Y0274153D01*
X0128695Y0274606D01*
X0128695Y0269244D01*
X0128982Y0268957D01*
X0128695Y0268671D01*
X0128695Y0268260D01*
X0128507Y0268713D01*
X0127375Y0269845D01*
X0125896Y0270458D01*
X0124295Y0270458D01*
X0122815Y0269845D01*
X0121683Y0268713D01*
X0121070Y0267234D01*
X0121070Y0265632D01*
X0121458Y0264695D02*
X0118091Y0264695D01*
X0119207Y0263096D02*
X0122740Y0263096D01*
X0122946Y0259899D02*
X0119250Y0259899D01*
X0118221Y0258301D02*
X0121512Y0258301D01*
X0121070Y0256702D02*
X0112745Y0256702D01*
X0112745Y0255104D02*
X0113439Y0255104D01*
X0115020Y0258301D02*
X0115170Y0258301D01*
X0115170Y0259899D02*
X0115020Y0259899D01*
X0116751Y0255104D02*
X0121289Y0255104D01*
X0122331Y0253505D02*
X0118593Y0253505D01*
X0127451Y0263096D02*
X0128804Y0263096D01*
X0128732Y0264695D02*
X0128929Y0264695D01*
X0128695Y0269490D02*
X0127730Y0269490D01*
X0128695Y0271089D02*
X0119120Y0271089D01*
X0118932Y0272687D02*
X0123620Y0272687D01*
X0121628Y0274286D02*
X0117934Y0274286D01*
X0116077Y0277483D02*
X0121173Y0277483D01*
X0121070Y0275884D02*
X0087002Y0275884D01*
X0087545Y0274286D02*
X0112256Y0274286D01*
X0110834Y0272687D02*
X0080413Y0272687D01*
X0080413Y0271089D02*
X0078813Y0271089D01*
X0078813Y0271676D02*
X0078813Y0264381D01*
X0078023Y0264485D01*
X0076994Y0264761D01*
X0076009Y0265169D01*
X0075086Y0265701D01*
X0074240Y0266350D01*
X0073487Y0267104D01*
X0072838Y0267949D01*
X0072305Y0268873D01*
X0071897Y0269857D01*
X0071621Y0270887D01*
X0071517Y0271676D01*
X0078813Y0271676D01*
X0078813Y0272687D02*
X0069145Y0272687D01*
X0069145Y0271089D02*
X0071595Y0271089D01*
X0072049Y0269490D02*
X0069145Y0269490D01*
X0069145Y0267892D02*
X0072882Y0267892D01*
X0074315Y0266293D02*
X0069145Y0266293D01*
X0069145Y0264695D02*
X0077239Y0264695D01*
X0078813Y0264695D02*
X0080413Y0264695D01*
X0081987Y0264695D02*
X0104945Y0264695D01*
X0104945Y0263096D02*
X0102377Y0263096D01*
X0100156Y0263096D02*
X0092535Y0263096D01*
X0092172Y0263246D02*
X0090676Y0263246D01*
X0089293Y0262674D01*
X0088234Y0261615D01*
X0087662Y0260233D01*
X0087662Y0258736D01*
X0088234Y0257353D01*
X0089293Y0256295D01*
X0090676Y0255722D01*
X0092172Y0255722D01*
X0093555Y0256295D01*
X0094613Y0257353D01*
X0095186Y0258736D01*
X0095186Y0260233D01*
X0094613Y0261615D01*
X0093555Y0262674D01*
X0092172Y0263246D01*
X0090313Y0263096D02*
X0069145Y0263096D01*
X0069145Y0261498D02*
X0088186Y0261498D01*
X0087662Y0259899D02*
X0069145Y0259899D01*
X0069145Y0258301D02*
X0087842Y0258301D01*
X0088885Y0256702D02*
X0069145Y0256702D01*
X0069145Y0255104D02*
X0099394Y0255104D01*
X0098728Y0256702D02*
X0093963Y0256702D01*
X0095006Y0258301D02*
X0097684Y0258301D01*
X0097504Y0259899D02*
X0095186Y0259899D01*
X0094662Y0261498D02*
X0098028Y0261498D01*
X0104505Y0261498D02*
X0104945Y0261498D01*
X0104945Y0258301D02*
X0104848Y0258301D01*
X0104945Y0256702D02*
X0103805Y0256702D01*
X0103138Y0255104D02*
X0104945Y0255104D01*
X0104945Y0253505D02*
X0104635Y0253505D01*
X0104718Y0250308D02*
X0104945Y0250308D01*
X0104945Y0248710D02*
X0103490Y0248710D01*
X0103409Y0247111D02*
X0104945Y0247111D01*
X0104945Y0245513D02*
X0104684Y0245513D01*
X0104669Y0242316D02*
X0104945Y0242316D01*
X0104945Y0240717D02*
X0103334Y0240717D01*
X0103527Y0239119D02*
X0104945Y0239119D01*
X0104945Y0237520D02*
X0104733Y0237520D01*
X0104620Y0234323D02*
X0104945Y0234323D01*
X0104945Y0232725D02*
X0103048Y0232725D01*
X0103843Y0231126D02*
X0104945Y0231126D01*
X0104945Y0229528D02*
X0104864Y0229528D01*
X0099485Y0232725D02*
X0094753Y0232725D01*
X0095324Y0234323D02*
X0097913Y0234323D01*
X0097504Y0235922D02*
X0095213Y0235922D01*
X0094297Y0237520D02*
X0097799Y0237520D01*
X0099005Y0239119D02*
X0093461Y0239119D01*
X0095058Y0240717D02*
X0099199Y0240717D01*
X0097864Y0242316D02*
X0095569Y0242316D01*
X0095423Y0243914D02*
X0097504Y0243914D01*
X0097849Y0245513D02*
X0094549Y0245513D01*
X0092770Y0247111D02*
X0099124Y0247111D01*
X0099043Y0248710D02*
X0094702Y0248710D01*
X0095186Y0250308D02*
X0097815Y0250308D01*
X0097504Y0251907D02*
X0094966Y0251907D01*
X0093865Y0253505D02*
X0097898Y0253505D01*
X0090078Y0247111D02*
X0084587Y0247111D01*
X0084739Y0246742D02*
X0084302Y0247799D01*
X0083730Y0248789D01*
X0083034Y0249696D01*
X0082226Y0250504D01*
X0081319Y0251200D01*
X0080329Y0251772D01*
X0079273Y0252209D01*
X0078168Y0252505D01*
X0077263Y0252624D01*
X0077263Y0244733D01*
X0085154Y0244733D01*
X0085035Y0245638D01*
X0084739Y0246742D01*
X0085052Y0245513D02*
X0088298Y0245513D01*
X0087425Y0243914D02*
X0077263Y0243914D01*
X0077263Y0242316D02*
X0075663Y0242316D01*
X0075663Y0240717D02*
X0077263Y0240717D01*
X0077263Y0239119D02*
X0075663Y0239119D01*
X0075663Y0237520D02*
X0077263Y0237520D01*
X0077263Y0235922D02*
X0075663Y0235922D01*
X0073015Y0235922D02*
X0069145Y0235922D01*
X0069145Y0237520D02*
X0070542Y0237520D01*
X0069172Y0239119D02*
X0069145Y0239119D01*
X0069145Y0234323D02*
X0082470Y0234323D01*
X0081409Y0232725D02*
X0069145Y0232725D01*
X0069145Y0231126D02*
X0081195Y0231126D01*
X0081195Y0229528D02*
X0069145Y0229528D01*
X0069145Y0227929D02*
X0081195Y0227929D01*
X0081195Y0226331D02*
X0069145Y0226331D01*
X0069145Y0224732D02*
X0081195Y0224732D01*
X0080413Y0223134D02*
X0078813Y0223134D01*
X0078813Y0221535D02*
X0080413Y0221535D01*
X0080413Y0219937D02*
X0078813Y0219937D01*
X0078813Y0218338D02*
X0080413Y0218338D01*
X0080413Y0216740D02*
X0078813Y0216740D01*
X0078813Y0215141D02*
X0069148Y0215141D01*
X0069145Y0216740D02*
X0071590Y0216740D01*
X0072033Y0218338D02*
X0069145Y0218338D01*
X0069145Y0219937D02*
X0072853Y0219937D01*
X0074265Y0221535D02*
X0069145Y0221535D01*
X0069145Y0223134D02*
X0077099Y0223134D01*
X0080413Y0215141D02*
X0109513Y0215141D01*
X0107915Y0216740D02*
X0087636Y0216740D01*
X0087535Y0213543D02*
X0111112Y0213543D01*
X0112710Y0211944D02*
X0086986Y0211944D01*
X0085991Y0210345D02*
X0114707Y0210345D01*
X0117767Y0210345D02*
X0132253Y0210345D01*
X0133953Y0210345D02*
X0133953Y0210345D01*
X0133953Y0211944D02*
X0133953Y0211944D01*
X0133953Y0213543D02*
X0133953Y0213543D01*
X0133953Y0215141D02*
X0133953Y0215141D01*
X0133953Y0216740D02*
X0133953Y0216740D01*
X0131152Y0216740D02*
X0130284Y0216740D01*
X0125812Y0216740D02*
X0124378Y0216740D01*
X0119907Y0216740D02*
X0118946Y0216740D01*
X0124296Y0232725D02*
X0124302Y0232725D01*
X0124212Y0234323D02*
X0122698Y0234323D01*
X0122614Y0235922D02*
X0121099Y0235922D01*
X0122095Y0237520D02*
X0119501Y0237520D01*
X0134251Y0258301D02*
X0134808Y0258301D01*
X0135075Y0261498D02*
X0134022Y0261498D01*
X0134284Y0263096D02*
X0134695Y0263096D01*
X0134695Y0264695D02*
X0134404Y0264695D01*
X0128695Y0272687D02*
X0126570Y0272687D01*
X0128562Y0274286D02*
X0128695Y0274286D01*
X0129120Y0275884D02*
X0134695Y0275884D01*
X0136141Y0277483D02*
X0129017Y0277483D01*
X0128139Y0279081D02*
X0144436Y0279081D01*
X0142837Y0280680D02*
X0119120Y0280680D01*
X0119120Y0280632D02*
X0118507Y0279153D01*
X0117375Y0278021D01*
X0115896Y0277408D01*
X0114295Y0277408D01*
X0112815Y0278021D01*
X0111683Y0279153D01*
X0111070Y0280632D01*
X0111070Y0282234D01*
X0111683Y0283713D01*
X0112815Y0284845D01*
X0114295Y0285458D01*
X0115896Y0285458D01*
X0117375Y0284845D01*
X0118507Y0283713D01*
X0119120Y0282234D01*
X0119120Y0280632D01*
X0119102Y0282279D02*
X0141858Y0282279D01*
X0141196Y0283877D02*
X0118343Y0283877D01*
X0118436Y0279081D02*
X0122051Y0279081D01*
X0122460Y0269490D02*
X0118647Y0269490D01*
X0117069Y0267892D02*
X0121343Y0267892D01*
X0114114Y0277483D02*
X0086020Y0277483D01*
X0084361Y0279081D02*
X0111755Y0279081D01*
X0111070Y0280680D02*
X0080198Y0280680D01*
X0080413Y0279081D02*
X0078813Y0279081D01*
X0078813Y0277483D02*
X0080413Y0277483D01*
X0080413Y0275884D02*
X0078813Y0275884D01*
X0078813Y0274286D02*
X0080413Y0274286D01*
X0080413Y0269490D02*
X0078813Y0269490D01*
X0078813Y0267892D02*
X0080413Y0267892D01*
X0080413Y0266293D02*
X0078813Y0266293D01*
X0084911Y0266293D02*
X0105084Y0266293D01*
X0106039Y0267892D02*
X0086344Y0267892D01*
X0087177Y0269490D02*
X0107637Y0269490D01*
X0109236Y0271089D02*
X0087631Y0271089D01*
X0082559Y0282279D02*
X0111089Y0282279D01*
X0111847Y0283877D02*
X0084100Y0283877D01*
X0084762Y0285476D02*
X0140895Y0285476D01*
X0140895Y0287074D02*
X0085424Y0287074D01*
X0085444Y0288673D02*
X0141065Y0288673D01*
X0141727Y0290271D02*
X0085444Y0290271D01*
X0084978Y0291870D02*
X0142521Y0291870D01*
X0144119Y0293468D02*
X0084316Y0293468D01*
X0083080Y0295067D02*
X0146898Y0295067D01*
X0153293Y0295067D02*
X0153752Y0295067D01*
X0155754Y0279081D02*
X0157295Y0279081D01*
X0157295Y0277483D02*
X0152528Y0277483D01*
X0157295Y0275884D02*
X0140364Y0275884D01*
X0140364Y0274286D02*
X0157295Y0274286D01*
X0157295Y0272687D02*
X0140124Y0272687D01*
X0140364Y0271089D02*
X0157295Y0271089D01*
X0157295Y0269490D02*
X0141245Y0269490D01*
X0141498Y0267892D02*
X0157295Y0267892D01*
X0157295Y0266293D02*
X0140364Y0266293D01*
X0141224Y0264695D02*
X0157295Y0264695D01*
X0157295Y0263096D02*
X0141498Y0263096D01*
X0139984Y0261498D02*
X0157295Y0261498D01*
X0157295Y0250308D02*
X0152709Y0250308D01*
X0155829Y0248710D02*
X0157295Y0248710D01*
X0157295Y0234323D02*
X0155996Y0234323D01*
X0157295Y0232725D02*
X0153112Y0232725D01*
X0153837Y0224732D02*
X0157295Y0224732D01*
X0157295Y0223134D02*
X0156263Y0223134D01*
X0147662Y0277483D02*
X0138918Y0277483D01*
X0098690Y0231126D02*
X0094000Y0231126D01*
X0095021Y0229528D02*
X0097669Y0229528D01*
X0097504Y0227929D02*
X0095186Y0227929D01*
X0094646Y0226331D02*
X0098044Y0226331D01*
X0089387Y0239119D02*
X0083754Y0239119D01*
X0084571Y0240717D02*
X0087789Y0240717D01*
X0087279Y0242316D02*
X0085047Y0242316D01*
X0085667Y0237520D02*
X0082384Y0237520D01*
X0084068Y0235922D02*
X0079912Y0235922D01*
X0077263Y0245513D02*
X0075663Y0245513D01*
X0075663Y0247111D02*
X0077263Y0247111D01*
X0077263Y0248710D02*
X0075663Y0248710D01*
X0075663Y0250308D02*
X0077263Y0250308D01*
X0077263Y0251907D02*
X0075663Y0251907D01*
X0072924Y0251907D02*
X0069145Y0251907D01*
X0069145Y0253505D02*
X0088983Y0253505D01*
X0087882Y0251907D02*
X0080003Y0251907D01*
X0082422Y0250308D02*
X0087662Y0250308D01*
X0088145Y0248710D02*
X0083776Y0248710D01*
X0070505Y0250308D02*
X0069145Y0250308D01*
X0069145Y0248710D02*
X0069151Y0248710D01*
X0069145Y0274286D02*
X0071680Y0274286D01*
X0072224Y0275884D02*
X0069145Y0275884D01*
X0069145Y0277483D02*
X0073206Y0277483D01*
X0074865Y0279081D02*
X0069145Y0279081D01*
X0069145Y0280680D02*
X0072492Y0280680D01*
X0070131Y0282279D02*
X0069145Y0282279D01*
X0069449Y0213543D02*
X0071690Y0213543D01*
X0072240Y0211944D02*
X0070184Y0211944D01*
X0071755Y0210345D02*
X0073235Y0210345D01*
X0091073Y0208747D02*
X0101617Y0208747D01*
X0099565Y0207148D02*
X0093125Y0207148D01*
X0093338Y0206935D02*
X0093338Y0206935D01*
X0091847Y0208426D02*
X0091847Y0208426D01*
X0099352Y0206935D02*
X0099352Y0206935D01*
D26*
X0108845Y0221325D02*
X0116237Y0213933D01*
X0108845Y0221325D02*
X0088953Y0221325D01*
X0085095Y0225183D01*
X0085095Y0231433D01*
X0088540Y0234878D01*
X0091424Y0234878D01*
X0108845Y0221325D02*
X0108845Y0265183D01*
X0115095Y0271433D01*
X0130095Y0207683D02*
X0130095Y0201433D01*
D27*
X0151345Y0178136D02*
X0144470Y0171261D01*
X0144470Y0105183D01*
X0145720Y0103933D01*
X0145720Y0103308D01*
X0148845Y0100808D02*
X0147595Y0099558D01*
X0147095Y0099058D01*
X0147095Y0093933D01*
X0146970Y0087058D02*
X0146970Y0077058D01*
X0151335Y0072693D01*
X0151345Y0073943D01*
X0151345Y0081423D02*
X0153095Y0082173D01*
X0153095Y0093933D01*
X0148845Y0100808D02*
X0148845Y0105808D01*
X0146970Y0107683D01*
X0146970Y0167855D01*
X0151345Y0172230D01*
X0153845Y0111443D02*
X0153845Y0105183D01*
X0155095Y0103933D01*
X0141970Y0087058D02*
X0141970Y0078308D01*
X0141345Y0077683D01*
X0141345Y0076423D01*
X0135971Y0082683D02*
X0136345Y0083057D01*
X0136345Y0087058D01*
X0141970Y0087058D01*
X0136345Y0087058D02*
X0130720Y0087058D01*
X0130095Y0087683D01*
X0130095Y0091433D01*
X0136345Y0090931D02*
X0113097Y0090931D01*
X0110095Y0093933D01*
X0110095Y0088933D02*
X0100095Y0098933D01*
X0100095Y0125183D01*
X0087103Y0138175D01*
X0072566Y0138175D01*
X0072566Y0130301D02*
X0091852Y0130301D01*
X0098220Y0123933D01*
X0098220Y0097683D01*
X0108845Y0087058D01*
X0116345Y0087058D01*
X0120720Y0082683D01*
X0120720Y0070183D01*
X0122595Y0068308D01*
X0122595Y0063933D01*
X0112595Y0063933D02*
X0111345Y0063933D01*
X0105095Y0070183D01*
X0105095Y0087683D01*
X0086099Y0106679D01*
X0072566Y0106679D01*
X0072566Y0098805D02*
X0088973Y0098805D01*
X0095095Y0092683D01*
X0088845Y0092683D02*
X0074318Y0092683D01*
X0072566Y0090931D01*
X0105095Y0098933D02*
X0112841Y0106679D01*
X0136345Y0106679D01*
X0136345Y0098805D02*
X0115223Y0098805D01*
X0115095Y0098933D01*
X0120095Y0088933D02*
X0110095Y0088933D01*
X0120095Y0088933D02*
X0132595Y0076433D01*
X0132595Y0063933D01*
X0133845Y0082683D02*
X0135971Y0082683D01*
D28*
X0115095Y0098933D03*
X0110095Y0093933D03*
X0105095Y0098933D03*
X0095095Y0092683D03*
X0088845Y0092683D03*
D29*
X0126345Y0226433D02*
X0115095Y0237683D01*
X0115095Y0251433D01*
X0125095Y0246433D02*
X0125095Y0237683D01*
X0136345Y0226433D01*
M02*
