%
M48
M72
T01C0.01969
T02C0.02362
T03C0.02756
T04C0.03150
T05C0.03200
T06C0.03500
T07C0.03600
T08C0.08661
T09C0.09843
T10C0.12598
T11C0.12800
%
T01
X71970Y71433
X87595Y67058
X103220Y102683
X113845Y112058
X121970Y114558
X130095Y91433
X141970Y87058
X146970Y87058
X147595Y99558
X145720Y103308
X151970Y100808
X155095Y103933
X155095Y128308
X155720Y175183
X118845Y153933
X105095Y175183
X98845Y175183
X92595Y175183
X92595Y143308
T02
X105095Y98933
X110095Y93933
X115095Y98933
X95095Y92683
X88845Y92683
T03
X151345Y166325
X151345Y172230
X151345Y178136
X151345Y184041
X133953Y213933
X128048Y213933
X122142Y213933
X116237Y213933
T04
X101266Y228382
X101266Y236059
X101266Y243933
X101266Y251807
X101266Y259484
X91424Y259484
X91424Y250626
X91424Y242752
X91424Y234878
X91424Y228382
T05
X92595Y63933
X102595Y63933
X112595Y63933
X122595Y63933
X132595Y63933
T06
X125095Y246433
X125095Y256433
X125095Y266433
X125095Y276433
X115095Y271433
X115095Y261433
X115095Y251433
X115095Y281433
T07
X126345Y226433
X136345Y226433
T08
X79613Y215390
X79613Y272476
T09
X76463Y243933
T10
X76345Y288933
X150095Y216433
X135095Y182683
X76345Y60183
T11
X150095Y241433
X150095Y286433
M30
