G75*
%MOIN*%
%OFA0B0*%
%FSLAX25Y25*%
%IPPOS*%
%LPD*%
%AMOC8*
5,1,8,0,0,1.08239X$1,22.5*
%
%ADD10C,0.00000*%
%ADD11R,0.05118X0.05906*%
%ADD12R,0.05906X0.05118*%
%ADD13R,0.08800X0.04800*%
%ADD14R,0.08661X0.14173*%
%ADD15R,0.05512X0.07480*%
%ADD16R,0.02200X0.07800*%
%ADD17C,0.04331*%
%ADD18R,0.09843X0.09843*%
%ADD19C,0.05250*%
%ADD20C,0.04724*%
%ADD21C,0.13843*%
%ADD22C,0.12661*%
%ADD23C,0.05400*%
%ADD24C,0.04800*%
%ADD25C,0.01000*%
%ADD26C,0.03169*%
%ADD27C,0.01600*%
%ADD28C,0.02400*%
%ADD29C,0.01200*%
%ADD30C,0.03200*%
%ADD31C,0.05000*%
%ADD32C,0.03562*%
D10*
X0066345Y0060183D02*
X0066345Y0191433D01*
X0075095Y0206433D02*
X0088845Y0206433D01*
X0088943Y0206431D01*
X0089041Y0206425D01*
X0089139Y0206416D01*
X0089236Y0206402D01*
X0089333Y0206385D01*
X0089429Y0206364D01*
X0089524Y0206339D01*
X0089618Y0206311D01*
X0089710Y0206278D01*
X0089802Y0206243D01*
X0089892Y0206203D01*
X0089980Y0206161D01*
X0090067Y0206114D01*
X0090151Y0206065D01*
X0090234Y0206012D01*
X0090314Y0205956D01*
X0090393Y0205896D01*
X0090469Y0205834D01*
X0090542Y0205769D01*
X0090613Y0205701D01*
X0090681Y0205630D01*
X0090746Y0205557D01*
X0090808Y0205481D01*
X0090868Y0205402D01*
X0090924Y0205322D01*
X0090977Y0205239D01*
X0091026Y0205155D01*
X0091073Y0205068D01*
X0091115Y0204980D01*
X0091155Y0204890D01*
X0091190Y0204798D01*
X0091223Y0204706D01*
X0091251Y0204612D01*
X0091276Y0204517D01*
X0091297Y0204421D01*
X0091314Y0204324D01*
X0091328Y0204227D01*
X0091337Y0204129D01*
X0091343Y0204031D01*
X0091345Y0203933D01*
X0091343Y0203835D01*
X0091337Y0203737D01*
X0091328Y0203639D01*
X0091314Y0203542D01*
X0091297Y0203445D01*
X0091276Y0203349D01*
X0091251Y0203254D01*
X0091223Y0203160D01*
X0091190Y0203068D01*
X0091155Y0202976D01*
X0091115Y0202886D01*
X0091073Y0202798D01*
X0091026Y0202711D01*
X0090977Y0202627D01*
X0090924Y0202544D01*
X0090868Y0202464D01*
X0090808Y0202385D01*
X0090746Y0202309D01*
X0090681Y0202236D01*
X0090613Y0202165D01*
X0090542Y0202097D01*
X0090469Y0202032D01*
X0090393Y0201970D01*
X0090314Y0201910D01*
X0090234Y0201854D01*
X0090151Y0201801D01*
X0090067Y0201752D01*
X0089980Y0201705D01*
X0089892Y0201663D01*
X0089802Y0201623D01*
X0089710Y0201588D01*
X0089618Y0201555D01*
X0089524Y0201527D01*
X0089429Y0201502D01*
X0089333Y0201481D01*
X0089236Y0201464D01*
X0089139Y0201450D01*
X0089041Y0201441D01*
X0088943Y0201435D01*
X0088845Y0201433D01*
X0076345Y0201433D01*
X0076103Y0201430D01*
X0075862Y0201421D01*
X0075621Y0201407D01*
X0075380Y0201386D01*
X0075140Y0201360D01*
X0074900Y0201328D01*
X0074661Y0201290D01*
X0074424Y0201247D01*
X0074187Y0201197D01*
X0073952Y0201142D01*
X0073718Y0201082D01*
X0073486Y0201015D01*
X0073255Y0200944D01*
X0073026Y0200866D01*
X0072799Y0200783D01*
X0072574Y0200695D01*
X0072351Y0200601D01*
X0072131Y0200502D01*
X0071913Y0200397D01*
X0071698Y0200288D01*
X0071485Y0200173D01*
X0071275Y0200053D01*
X0071069Y0199928D01*
X0070865Y0199798D01*
X0070664Y0199663D01*
X0070467Y0199523D01*
X0070273Y0199379D01*
X0070083Y0199230D01*
X0069897Y0199076D01*
X0069714Y0198918D01*
X0069535Y0198756D01*
X0069360Y0198589D01*
X0069189Y0198418D01*
X0069022Y0198243D01*
X0068860Y0198064D01*
X0068702Y0197881D01*
X0068548Y0197695D01*
X0068399Y0197505D01*
X0068255Y0197311D01*
X0068115Y0197114D01*
X0067980Y0196913D01*
X0067850Y0196709D01*
X0067725Y0196503D01*
X0067605Y0196293D01*
X0067490Y0196080D01*
X0067381Y0195865D01*
X0067276Y0195647D01*
X0067177Y0195427D01*
X0067083Y0195204D01*
X0066995Y0194979D01*
X0066912Y0194752D01*
X0066834Y0194523D01*
X0066763Y0194292D01*
X0066696Y0194060D01*
X0066636Y0193826D01*
X0066581Y0193591D01*
X0066531Y0193354D01*
X0066488Y0193117D01*
X0066450Y0192878D01*
X0066418Y0192638D01*
X0066392Y0192398D01*
X0066371Y0192157D01*
X0066357Y0191916D01*
X0066348Y0191675D01*
X0066345Y0191433D01*
X0066345Y0215183D02*
X0066345Y0288933D01*
X0066348Y0289175D01*
X0066357Y0289416D01*
X0066371Y0289657D01*
X0066392Y0289898D01*
X0066418Y0290138D01*
X0066450Y0290378D01*
X0066488Y0290617D01*
X0066531Y0290854D01*
X0066581Y0291091D01*
X0066636Y0291326D01*
X0066696Y0291560D01*
X0066763Y0291792D01*
X0066834Y0292023D01*
X0066912Y0292252D01*
X0066995Y0292479D01*
X0067083Y0292704D01*
X0067177Y0292927D01*
X0067276Y0293147D01*
X0067381Y0293365D01*
X0067490Y0293580D01*
X0067605Y0293793D01*
X0067725Y0294003D01*
X0067850Y0294209D01*
X0067980Y0294413D01*
X0068115Y0294614D01*
X0068255Y0294811D01*
X0068399Y0295005D01*
X0068548Y0295195D01*
X0068702Y0295381D01*
X0068860Y0295564D01*
X0069022Y0295743D01*
X0069189Y0295918D01*
X0069360Y0296089D01*
X0069535Y0296256D01*
X0069714Y0296418D01*
X0069897Y0296576D01*
X0070083Y0296730D01*
X0070273Y0296879D01*
X0070467Y0297023D01*
X0070664Y0297163D01*
X0070865Y0297298D01*
X0071069Y0297428D01*
X0071275Y0297553D01*
X0071485Y0297673D01*
X0071698Y0297788D01*
X0071913Y0297897D01*
X0072131Y0298002D01*
X0072351Y0298101D01*
X0072574Y0298195D01*
X0072799Y0298283D01*
X0073026Y0298366D01*
X0073255Y0298444D01*
X0073486Y0298515D01*
X0073718Y0298582D01*
X0073952Y0298642D01*
X0074187Y0298697D01*
X0074424Y0298747D01*
X0074661Y0298790D01*
X0074900Y0298828D01*
X0075140Y0298860D01*
X0075380Y0298886D01*
X0075621Y0298907D01*
X0075862Y0298921D01*
X0076103Y0298930D01*
X0076345Y0298933D01*
X0150095Y0298933D01*
X0150337Y0298930D01*
X0150578Y0298921D01*
X0150819Y0298907D01*
X0151060Y0298886D01*
X0151300Y0298860D01*
X0151540Y0298828D01*
X0151779Y0298790D01*
X0152016Y0298747D01*
X0152253Y0298697D01*
X0152488Y0298642D01*
X0152722Y0298582D01*
X0152954Y0298515D01*
X0153185Y0298444D01*
X0153414Y0298366D01*
X0153641Y0298283D01*
X0153866Y0298195D01*
X0154089Y0298101D01*
X0154309Y0298002D01*
X0154527Y0297897D01*
X0154742Y0297788D01*
X0154955Y0297673D01*
X0155165Y0297553D01*
X0155371Y0297428D01*
X0155575Y0297298D01*
X0155776Y0297163D01*
X0155973Y0297023D01*
X0156167Y0296879D01*
X0156357Y0296730D01*
X0156543Y0296576D01*
X0156726Y0296418D01*
X0156905Y0296256D01*
X0157080Y0296089D01*
X0157251Y0295918D01*
X0157418Y0295743D01*
X0157580Y0295564D01*
X0157738Y0295381D01*
X0157892Y0295195D01*
X0158041Y0295005D01*
X0158185Y0294811D01*
X0158325Y0294614D01*
X0158460Y0294413D01*
X0158590Y0294209D01*
X0158715Y0294003D01*
X0158835Y0293793D01*
X0158950Y0293580D01*
X0159059Y0293365D01*
X0159164Y0293147D01*
X0159263Y0292927D01*
X0159357Y0292704D01*
X0159445Y0292479D01*
X0159528Y0292252D01*
X0159606Y0292023D01*
X0159677Y0291792D01*
X0159744Y0291560D01*
X0159804Y0291326D01*
X0159859Y0291091D01*
X0159909Y0290854D01*
X0159952Y0290617D01*
X0159990Y0290378D01*
X0160022Y0290138D01*
X0160048Y0289898D01*
X0160069Y0289657D01*
X0160083Y0289416D01*
X0160092Y0289175D01*
X0160095Y0288933D01*
X0160095Y0216433D01*
X0160092Y0216191D01*
X0160083Y0215950D01*
X0160069Y0215709D01*
X0160048Y0215468D01*
X0160022Y0215228D01*
X0159990Y0214988D01*
X0159952Y0214749D01*
X0159909Y0214512D01*
X0159859Y0214275D01*
X0159804Y0214040D01*
X0159744Y0213806D01*
X0159677Y0213574D01*
X0159606Y0213343D01*
X0159528Y0213114D01*
X0159445Y0212887D01*
X0159357Y0212662D01*
X0159263Y0212439D01*
X0159164Y0212219D01*
X0159059Y0212001D01*
X0158950Y0211786D01*
X0158835Y0211573D01*
X0158715Y0211363D01*
X0158590Y0211157D01*
X0158460Y0210953D01*
X0158325Y0210752D01*
X0158185Y0210555D01*
X0158041Y0210361D01*
X0157892Y0210171D01*
X0157738Y0209985D01*
X0157580Y0209802D01*
X0157418Y0209623D01*
X0157251Y0209448D01*
X0157080Y0209277D01*
X0156905Y0209110D01*
X0156726Y0208948D01*
X0156543Y0208790D01*
X0156357Y0208636D01*
X0156167Y0208487D01*
X0155973Y0208343D01*
X0155776Y0208203D01*
X0155575Y0208068D01*
X0155371Y0207938D01*
X0155165Y0207813D01*
X0154955Y0207693D01*
X0154742Y0207578D01*
X0154527Y0207469D01*
X0154309Y0207364D01*
X0154089Y0207265D01*
X0153866Y0207171D01*
X0153641Y0207083D01*
X0153414Y0207000D01*
X0153185Y0206922D01*
X0152954Y0206851D01*
X0152722Y0206784D01*
X0152488Y0206724D01*
X0152253Y0206669D01*
X0152016Y0206619D01*
X0151779Y0206576D01*
X0151540Y0206538D01*
X0151300Y0206506D01*
X0151060Y0206480D01*
X0150819Y0206459D01*
X0150578Y0206445D01*
X0150337Y0206436D01*
X0150095Y0206433D01*
X0137595Y0206433D01*
X0137497Y0206431D01*
X0137399Y0206425D01*
X0137301Y0206416D01*
X0137204Y0206402D01*
X0137107Y0206385D01*
X0137011Y0206364D01*
X0136916Y0206339D01*
X0136822Y0206311D01*
X0136730Y0206278D01*
X0136638Y0206243D01*
X0136548Y0206203D01*
X0136460Y0206161D01*
X0136373Y0206114D01*
X0136289Y0206065D01*
X0136206Y0206012D01*
X0136126Y0205956D01*
X0136047Y0205896D01*
X0135971Y0205834D01*
X0135898Y0205769D01*
X0135827Y0205701D01*
X0135759Y0205630D01*
X0135694Y0205557D01*
X0135632Y0205481D01*
X0135572Y0205402D01*
X0135516Y0205322D01*
X0135463Y0205239D01*
X0135414Y0205155D01*
X0135367Y0205068D01*
X0135325Y0204980D01*
X0135285Y0204890D01*
X0135250Y0204798D01*
X0135217Y0204706D01*
X0135189Y0204612D01*
X0135164Y0204517D01*
X0135143Y0204421D01*
X0135126Y0204324D01*
X0135112Y0204227D01*
X0135103Y0204129D01*
X0135097Y0204031D01*
X0135095Y0203933D01*
X0135097Y0203835D01*
X0135103Y0203737D01*
X0135112Y0203639D01*
X0135126Y0203542D01*
X0135143Y0203445D01*
X0135164Y0203349D01*
X0135189Y0203254D01*
X0135217Y0203160D01*
X0135250Y0203068D01*
X0135285Y0202976D01*
X0135325Y0202886D01*
X0135367Y0202798D01*
X0135414Y0202711D01*
X0135463Y0202627D01*
X0135516Y0202544D01*
X0135572Y0202464D01*
X0135632Y0202385D01*
X0135694Y0202309D01*
X0135759Y0202236D01*
X0135827Y0202165D01*
X0135898Y0202097D01*
X0135971Y0202032D01*
X0136047Y0201970D01*
X0136126Y0201910D01*
X0136206Y0201854D01*
X0136289Y0201801D01*
X0136373Y0201752D01*
X0136460Y0201705D01*
X0136548Y0201663D01*
X0136638Y0201623D01*
X0136730Y0201588D01*
X0136822Y0201555D01*
X0136916Y0201527D01*
X0137011Y0201502D01*
X0137107Y0201481D01*
X0137204Y0201464D01*
X0137301Y0201450D01*
X0137399Y0201441D01*
X0137497Y0201435D01*
X0137595Y0201433D01*
X0150095Y0201433D01*
X0150337Y0201430D01*
X0150578Y0201421D01*
X0150819Y0201407D01*
X0151060Y0201386D01*
X0151300Y0201360D01*
X0151540Y0201328D01*
X0151779Y0201290D01*
X0152016Y0201247D01*
X0152253Y0201197D01*
X0152488Y0201142D01*
X0152722Y0201082D01*
X0152954Y0201015D01*
X0153185Y0200944D01*
X0153414Y0200866D01*
X0153641Y0200783D01*
X0153866Y0200695D01*
X0154089Y0200601D01*
X0154309Y0200502D01*
X0154527Y0200397D01*
X0154742Y0200288D01*
X0154955Y0200173D01*
X0155165Y0200053D01*
X0155371Y0199928D01*
X0155575Y0199798D01*
X0155776Y0199663D01*
X0155973Y0199523D01*
X0156167Y0199379D01*
X0156357Y0199230D01*
X0156543Y0199076D01*
X0156726Y0198918D01*
X0156905Y0198756D01*
X0157080Y0198589D01*
X0157251Y0198418D01*
X0157418Y0198243D01*
X0157580Y0198064D01*
X0157738Y0197881D01*
X0157892Y0197695D01*
X0158041Y0197505D01*
X0158185Y0197311D01*
X0158325Y0197114D01*
X0158460Y0196913D01*
X0158590Y0196709D01*
X0158715Y0196503D01*
X0158835Y0196293D01*
X0158950Y0196080D01*
X0159059Y0195865D01*
X0159164Y0195647D01*
X0159263Y0195427D01*
X0159357Y0195204D01*
X0159445Y0194979D01*
X0159528Y0194752D01*
X0159606Y0194523D01*
X0159677Y0194292D01*
X0159744Y0194060D01*
X0159804Y0193826D01*
X0159859Y0193591D01*
X0159909Y0193354D01*
X0159952Y0193117D01*
X0159990Y0192878D01*
X0160022Y0192638D01*
X0160048Y0192398D01*
X0160069Y0192157D01*
X0160083Y0191916D01*
X0160092Y0191675D01*
X0160095Y0191433D01*
X0160095Y0060183D01*
X0160092Y0059941D01*
X0160083Y0059700D01*
X0160069Y0059459D01*
X0160048Y0059218D01*
X0160022Y0058978D01*
X0159990Y0058738D01*
X0159952Y0058499D01*
X0159909Y0058262D01*
X0159859Y0058025D01*
X0159804Y0057790D01*
X0159744Y0057556D01*
X0159677Y0057324D01*
X0159606Y0057093D01*
X0159528Y0056864D01*
X0159445Y0056637D01*
X0159357Y0056412D01*
X0159263Y0056189D01*
X0159164Y0055969D01*
X0159059Y0055751D01*
X0158950Y0055536D01*
X0158835Y0055323D01*
X0158715Y0055113D01*
X0158590Y0054907D01*
X0158460Y0054703D01*
X0158325Y0054502D01*
X0158185Y0054305D01*
X0158041Y0054111D01*
X0157892Y0053921D01*
X0157738Y0053735D01*
X0157580Y0053552D01*
X0157418Y0053373D01*
X0157251Y0053198D01*
X0157080Y0053027D01*
X0156905Y0052860D01*
X0156726Y0052698D01*
X0156543Y0052540D01*
X0156357Y0052386D01*
X0156167Y0052237D01*
X0155973Y0052093D01*
X0155776Y0051953D01*
X0155575Y0051818D01*
X0155371Y0051688D01*
X0155165Y0051563D01*
X0154955Y0051443D01*
X0154742Y0051328D01*
X0154527Y0051219D01*
X0154309Y0051114D01*
X0154089Y0051015D01*
X0153866Y0050921D01*
X0153641Y0050833D01*
X0153414Y0050750D01*
X0153185Y0050672D01*
X0152954Y0050601D01*
X0152722Y0050534D01*
X0152488Y0050474D01*
X0152253Y0050419D01*
X0152016Y0050369D01*
X0151779Y0050326D01*
X0151540Y0050288D01*
X0151300Y0050256D01*
X0151060Y0050230D01*
X0150819Y0050209D01*
X0150578Y0050195D01*
X0150337Y0050186D01*
X0150095Y0050183D01*
X0076345Y0050183D01*
X0076103Y0050186D01*
X0075862Y0050195D01*
X0075621Y0050209D01*
X0075380Y0050230D01*
X0075140Y0050256D01*
X0074900Y0050288D01*
X0074661Y0050326D01*
X0074424Y0050369D01*
X0074187Y0050419D01*
X0073952Y0050474D01*
X0073718Y0050534D01*
X0073486Y0050601D01*
X0073255Y0050672D01*
X0073026Y0050750D01*
X0072799Y0050833D01*
X0072574Y0050921D01*
X0072351Y0051015D01*
X0072131Y0051114D01*
X0071913Y0051219D01*
X0071698Y0051328D01*
X0071485Y0051443D01*
X0071275Y0051563D01*
X0071069Y0051688D01*
X0070865Y0051818D01*
X0070664Y0051953D01*
X0070467Y0052093D01*
X0070273Y0052237D01*
X0070083Y0052386D01*
X0069897Y0052540D01*
X0069714Y0052698D01*
X0069535Y0052860D01*
X0069360Y0053027D01*
X0069189Y0053198D01*
X0069022Y0053373D01*
X0068860Y0053552D01*
X0068702Y0053735D01*
X0068548Y0053921D01*
X0068399Y0054111D01*
X0068255Y0054305D01*
X0068115Y0054502D01*
X0067980Y0054703D01*
X0067850Y0054907D01*
X0067725Y0055113D01*
X0067605Y0055323D01*
X0067490Y0055536D01*
X0067381Y0055751D01*
X0067276Y0055969D01*
X0067177Y0056189D01*
X0067083Y0056412D01*
X0066995Y0056637D01*
X0066912Y0056864D01*
X0066834Y0057093D01*
X0066763Y0057324D01*
X0066696Y0057556D01*
X0066636Y0057790D01*
X0066581Y0058025D01*
X0066531Y0058262D01*
X0066488Y0058499D01*
X0066450Y0058738D01*
X0066418Y0058978D01*
X0066392Y0059218D01*
X0066371Y0059459D01*
X0066357Y0059700D01*
X0066348Y0059941D01*
X0066345Y0060183D01*
X0070046Y0060183D02*
X0070048Y0060341D01*
X0070054Y0060499D01*
X0070064Y0060657D01*
X0070078Y0060815D01*
X0070096Y0060972D01*
X0070117Y0061129D01*
X0070143Y0061285D01*
X0070173Y0061441D01*
X0070206Y0061596D01*
X0070244Y0061749D01*
X0070285Y0061902D01*
X0070330Y0062054D01*
X0070379Y0062205D01*
X0070432Y0062354D01*
X0070488Y0062502D01*
X0070548Y0062648D01*
X0070612Y0062793D01*
X0070680Y0062936D01*
X0070751Y0063078D01*
X0070825Y0063218D01*
X0070903Y0063355D01*
X0070985Y0063491D01*
X0071069Y0063625D01*
X0071158Y0063756D01*
X0071249Y0063885D01*
X0071344Y0064012D01*
X0071441Y0064137D01*
X0071542Y0064259D01*
X0071646Y0064378D01*
X0071753Y0064495D01*
X0071863Y0064609D01*
X0071976Y0064720D01*
X0072091Y0064829D01*
X0072209Y0064934D01*
X0072330Y0065036D01*
X0072453Y0065136D01*
X0072579Y0065232D01*
X0072707Y0065325D01*
X0072837Y0065415D01*
X0072970Y0065501D01*
X0073105Y0065585D01*
X0073241Y0065664D01*
X0073380Y0065741D01*
X0073521Y0065813D01*
X0073663Y0065883D01*
X0073807Y0065948D01*
X0073953Y0066010D01*
X0074100Y0066068D01*
X0074249Y0066123D01*
X0074399Y0066174D01*
X0074550Y0066221D01*
X0074702Y0066264D01*
X0074855Y0066303D01*
X0075010Y0066339D01*
X0075165Y0066370D01*
X0075321Y0066398D01*
X0075477Y0066422D01*
X0075634Y0066442D01*
X0075792Y0066458D01*
X0075949Y0066470D01*
X0076108Y0066478D01*
X0076266Y0066482D01*
X0076424Y0066482D01*
X0076582Y0066478D01*
X0076741Y0066470D01*
X0076898Y0066458D01*
X0077056Y0066442D01*
X0077213Y0066422D01*
X0077369Y0066398D01*
X0077525Y0066370D01*
X0077680Y0066339D01*
X0077835Y0066303D01*
X0077988Y0066264D01*
X0078140Y0066221D01*
X0078291Y0066174D01*
X0078441Y0066123D01*
X0078590Y0066068D01*
X0078737Y0066010D01*
X0078883Y0065948D01*
X0079027Y0065883D01*
X0079169Y0065813D01*
X0079310Y0065741D01*
X0079449Y0065664D01*
X0079585Y0065585D01*
X0079720Y0065501D01*
X0079853Y0065415D01*
X0079983Y0065325D01*
X0080111Y0065232D01*
X0080237Y0065136D01*
X0080360Y0065036D01*
X0080481Y0064934D01*
X0080599Y0064829D01*
X0080714Y0064720D01*
X0080827Y0064609D01*
X0080937Y0064495D01*
X0081044Y0064378D01*
X0081148Y0064259D01*
X0081249Y0064137D01*
X0081346Y0064012D01*
X0081441Y0063885D01*
X0081532Y0063756D01*
X0081621Y0063625D01*
X0081705Y0063491D01*
X0081787Y0063355D01*
X0081865Y0063218D01*
X0081939Y0063078D01*
X0082010Y0062936D01*
X0082078Y0062793D01*
X0082142Y0062648D01*
X0082202Y0062502D01*
X0082258Y0062354D01*
X0082311Y0062205D01*
X0082360Y0062054D01*
X0082405Y0061902D01*
X0082446Y0061749D01*
X0082484Y0061596D01*
X0082517Y0061441D01*
X0082547Y0061285D01*
X0082573Y0061129D01*
X0082594Y0060972D01*
X0082612Y0060815D01*
X0082626Y0060657D01*
X0082636Y0060499D01*
X0082642Y0060341D01*
X0082644Y0060183D01*
X0082642Y0060025D01*
X0082636Y0059867D01*
X0082626Y0059709D01*
X0082612Y0059551D01*
X0082594Y0059394D01*
X0082573Y0059237D01*
X0082547Y0059081D01*
X0082517Y0058925D01*
X0082484Y0058770D01*
X0082446Y0058617D01*
X0082405Y0058464D01*
X0082360Y0058312D01*
X0082311Y0058161D01*
X0082258Y0058012D01*
X0082202Y0057864D01*
X0082142Y0057718D01*
X0082078Y0057573D01*
X0082010Y0057430D01*
X0081939Y0057288D01*
X0081865Y0057148D01*
X0081787Y0057011D01*
X0081705Y0056875D01*
X0081621Y0056741D01*
X0081532Y0056610D01*
X0081441Y0056481D01*
X0081346Y0056354D01*
X0081249Y0056229D01*
X0081148Y0056107D01*
X0081044Y0055988D01*
X0080937Y0055871D01*
X0080827Y0055757D01*
X0080714Y0055646D01*
X0080599Y0055537D01*
X0080481Y0055432D01*
X0080360Y0055330D01*
X0080237Y0055230D01*
X0080111Y0055134D01*
X0079983Y0055041D01*
X0079853Y0054951D01*
X0079720Y0054865D01*
X0079585Y0054781D01*
X0079449Y0054702D01*
X0079310Y0054625D01*
X0079169Y0054553D01*
X0079027Y0054483D01*
X0078883Y0054418D01*
X0078737Y0054356D01*
X0078590Y0054298D01*
X0078441Y0054243D01*
X0078291Y0054192D01*
X0078140Y0054145D01*
X0077988Y0054102D01*
X0077835Y0054063D01*
X0077680Y0054027D01*
X0077525Y0053996D01*
X0077369Y0053968D01*
X0077213Y0053944D01*
X0077056Y0053924D01*
X0076898Y0053908D01*
X0076741Y0053896D01*
X0076582Y0053888D01*
X0076424Y0053884D01*
X0076266Y0053884D01*
X0076108Y0053888D01*
X0075949Y0053896D01*
X0075792Y0053908D01*
X0075634Y0053924D01*
X0075477Y0053944D01*
X0075321Y0053968D01*
X0075165Y0053996D01*
X0075010Y0054027D01*
X0074855Y0054063D01*
X0074702Y0054102D01*
X0074550Y0054145D01*
X0074399Y0054192D01*
X0074249Y0054243D01*
X0074100Y0054298D01*
X0073953Y0054356D01*
X0073807Y0054418D01*
X0073663Y0054483D01*
X0073521Y0054553D01*
X0073380Y0054625D01*
X0073241Y0054702D01*
X0073105Y0054781D01*
X0072970Y0054865D01*
X0072837Y0054951D01*
X0072707Y0055041D01*
X0072579Y0055134D01*
X0072453Y0055230D01*
X0072330Y0055330D01*
X0072209Y0055432D01*
X0072091Y0055537D01*
X0071976Y0055646D01*
X0071863Y0055757D01*
X0071753Y0055871D01*
X0071646Y0055988D01*
X0071542Y0056107D01*
X0071441Y0056229D01*
X0071344Y0056354D01*
X0071249Y0056481D01*
X0071158Y0056610D01*
X0071069Y0056741D01*
X0070985Y0056875D01*
X0070903Y0057011D01*
X0070825Y0057148D01*
X0070751Y0057288D01*
X0070680Y0057430D01*
X0070612Y0057573D01*
X0070548Y0057718D01*
X0070488Y0057864D01*
X0070432Y0058012D01*
X0070379Y0058161D01*
X0070330Y0058312D01*
X0070285Y0058464D01*
X0070244Y0058617D01*
X0070206Y0058770D01*
X0070173Y0058925D01*
X0070143Y0059081D01*
X0070117Y0059237D01*
X0070096Y0059394D01*
X0070078Y0059551D01*
X0070064Y0059709D01*
X0070054Y0059867D01*
X0070048Y0060025D01*
X0070046Y0060183D01*
X0128796Y0182683D02*
X0128798Y0182841D01*
X0128804Y0182999D01*
X0128814Y0183157D01*
X0128828Y0183315D01*
X0128846Y0183472D01*
X0128867Y0183629D01*
X0128893Y0183785D01*
X0128923Y0183941D01*
X0128956Y0184096D01*
X0128994Y0184249D01*
X0129035Y0184402D01*
X0129080Y0184554D01*
X0129129Y0184705D01*
X0129182Y0184854D01*
X0129238Y0185002D01*
X0129298Y0185148D01*
X0129362Y0185293D01*
X0129430Y0185436D01*
X0129501Y0185578D01*
X0129575Y0185718D01*
X0129653Y0185855D01*
X0129735Y0185991D01*
X0129819Y0186125D01*
X0129908Y0186256D01*
X0129999Y0186385D01*
X0130094Y0186512D01*
X0130191Y0186637D01*
X0130292Y0186759D01*
X0130396Y0186878D01*
X0130503Y0186995D01*
X0130613Y0187109D01*
X0130726Y0187220D01*
X0130841Y0187329D01*
X0130959Y0187434D01*
X0131080Y0187536D01*
X0131203Y0187636D01*
X0131329Y0187732D01*
X0131457Y0187825D01*
X0131587Y0187915D01*
X0131720Y0188001D01*
X0131855Y0188085D01*
X0131991Y0188164D01*
X0132130Y0188241D01*
X0132271Y0188313D01*
X0132413Y0188383D01*
X0132557Y0188448D01*
X0132703Y0188510D01*
X0132850Y0188568D01*
X0132999Y0188623D01*
X0133149Y0188674D01*
X0133300Y0188721D01*
X0133452Y0188764D01*
X0133605Y0188803D01*
X0133760Y0188839D01*
X0133915Y0188870D01*
X0134071Y0188898D01*
X0134227Y0188922D01*
X0134384Y0188942D01*
X0134542Y0188958D01*
X0134699Y0188970D01*
X0134858Y0188978D01*
X0135016Y0188982D01*
X0135174Y0188982D01*
X0135332Y0188978D01*
X0135491Y0188970D01*
X0135648Y0188958D01*
X0135806Y0188942D01*
X0135963Y0188922D01*
X0136119Y0188898D01*
X0136275Y0188870D01*
X0136430Y0188839D01*
X0136585Y0188803D01*
X0136738Y0188764D01*
X0136890Y0188721D01*
X0137041Y0188674D01*
X0137191Y0188623D01*
X0137340Y0188568D01*
X0137487Y0188510D01*
X0137633Y0188448D01*
X0137777Y0188383D01*
X0137919Y0188313D01*
X0138060Y0188241D01*
X0138199Y0188164D01*
X0138335Y0188085D01*
X0138470Y0188001D01*
X0138603Y0187915D01*
X0138733Y0187825D01*
X0138861Y0187732D01*
X0138987Y0187636D01*
X0139110Y0187536D01*
X0139231Y0187434D01*
X0139349Y0187329D01*
X0139464Y0187220D01*
X0139577Y0187109D01*
X0139687Y0186995D01*
X0139794Y0186878D01*
X0139898Y0186759D01*
X0139999Y0186637D01*
X0140096Y0186512D01*
X0140191Y0186385D01*
X0140282Y0186256D01*
X0140371Y0186125D01*
X0140455Y0185991D01*
X0140537Y0185855D01*
X0140615Y0185718D01*
X0140689Y0185578D01*
X0140760Y0185436D01*
X0140828Y0185293D01*
X0140892Y0185148D01*
X0140952Y0185002D01*
X0141008Y0184854D01*
X0141061Y0184705D01*
X0141110Y0184554D01*
X0141155Y0184402D01*
X0141196Y0184249D01*
X0141234Y0184096D01*
X0141267Y0183941D01*
X0141297Y0183785D01*
X0141323Y0183629D01*
X0141344Y0183472D01*
X0141362Y0183315D01*
X0141376Y0183157D01*
X0141386Y0182999D01*
X0141392Y0182841D01*
X0141394Y0182683D01*
X0141392Y0182525D01*
X0141386Y0182367D01*
X0141376Y0182209D01*
X0141362Y0182051D01*
X0141344Y0181894D01*
X0141323Y0181737D01*
X0141297Y0181581D01*
X0141267Y0181425D01*
X0141234Y0181270D01*
X0141196Y0181117D01*
X0141155Y0180964D01*
X0141110Y0180812D01*
X0141061Y0180661D01*
X0141008Y0180512D01*
X0140952Y0180364D01*
X0140892Y0180218D01*
X0140828Y0180073D01*
X0140760Y0179930D01*
X0140689Y0179788D01*
X0140615Y0179648D01*
X0140537Y0179511D01*
X0140455Y0179375D01*
X0140371Y0179241D01*
X0140282Y0179110D01*
X0140191Y0178981D01*
X0140096Y0178854D01*
X0139999Y0178729D01*
X0139898Y0178607D01*
X0139794Y0178488D01*
X0139687Y0178371D01*
X0139577Y0178257D01*
X0139464Y0178146D01*
X0139349Y0178037D01*
X0139231Y0177932D01*
X0139110Y0177830D01*
X0138987Y0177730D01*
X0138861Y0177634D01*
X0138733Y0177541D01*
X0138603Y0177451D01*
X0138470Y0177365D01*
X0138335Y0177281D01*
X0138199Y0177202D01*
X0138060Y0177125D01*
X0137919Y0177053D01*
X0137777Y0176983D01*
X0137633Y0176918D01*
X0137487Y0176856D01*
X0137340Y0176798D01*
X0137191Y0176743D01*
X0137041Y0176692D01*
X0136890Y0176645D01*
X0136738Y0176602D01*
X0136585Y0176563D01*
X0136430Y0176527D01*
X0136275Y0176496D01*
X0136119Y0176468D01*
X0135963Y0176444D01*
X0135806Y0176424D01*
X0135648Y0176408D01*
X0135491Y0176396D01*
X0135332Y0176388D01*
X0135174Y0176384D01*
X0135016Y0176384D01*
X0134858Y0176388D01*
X0134699Y0176396D01*
X0134542Y0176408D01*
X0134384Y0176424D01*
X0134227Y0176444D01*
X0134071Y0176468D01*
X0133915Y0176496D01*
X0133760Y0176527D01*
X0133605Y0176563D01*
X0133452Y0176602D01*
X0133300Y0176645D01*
X0133149Y0176692D01*
X0132999Y0176743D01*
X0132850Y0176798D01*
X0132703Y0176856D01*
X0132557Y0176918D01*
X0132413Y0176983D01*
X0132271Y0177053D01*
X0132130Y0177125D01*
X0131991Y0177202D01*
X0131855Y0177281D01*
X0131720Y0177365D01*
X0131587Y0177451D01*
X0131457Y0177541D01*
X0131329Y0177634D01*
X0131203Y0177730D01*
X0131080Y0177830D01*
X0130959Y0177932D01*
X0130841Y0178037D01*
X0130726Y0178146D01*
X0130613Y0178257D01*
X0130503Y0178371D01*
X0130396Y0178488D01*
X0130292Y0178607D01*
X0130191Y0178729D01*
X0130094Y0178854D01*
X0129999Y0178981D01*
X0129908Y0179110D01*
X0129819Y0179241D01*
X0129735Y0179375D01*
X0129653Y0179511D01*
X0129575Y0179648D01*
X0129501Y0179788D01*
X0129430Y0179930D01*
X0129362Y0180073D01*
X0129298Y0180218D01*
X0129238Y0180364D01*
X0129182Y0180512D01*
X0129129Y0180661D01*
X0129080Y0180812D01*
X0129035Y0180964D01*
X0128994Y0181117D01*
X0128956Y0181270D01*
X0128923Y0181425D01*
X0128893Y0181581D01*
X0128867Y0181737D01*
X0128846Y0181894D01*
X0128828Y0182051D01*
X0128814Y0182209D01*
X0128804Y0182367D01*
X0128798Y0182525D01*
X0128796Y0182683D01*
X0122595Y0201433D02*
X0103845Y0201433D01*
X0103747Y0201435D01*
X0103649Y0201441D01*
X0103551Y0201450D01*
X0103454Y0201464D01*
X0103357Y0201481D01*
X0103261Y0201502D01*
X0103166Y0201527D01*
X0103072Y0201555D01*
X0102980Y0201588D01*
X0102888Y0201623D01*
X0102798Y0201663D01*
X0102710Y0201705D01*
X0102623Y0201752D01*
X0102539Y0201801D01*
X0102456Y0201854D01*
X0102376Y0201910D01*
X0102297Y0201970D01*
X0102221Y0202032D01*
X0102148Y0202097D01*
X0102077Y0202165D01*
X0102009Y0202236D01*
X0101944Y0202309D01*
X0101882Y0202385D01*
X0101822Y0202464D01*
X0101766Y0202544D01*
X0101713Y0202627D01*
X0101664Y0202711D01*
X0101617Y0202798D01*
X0101575Y0202886D01*
X0101535Y0202976D01*
X0101500Y0203068D01*
X0101467Y0203160D01*
X0101439Y0203254D01*
X0101414Y0203349D01*
X0101393Y0203445D01*
X0101376Y0203542D01*
X0101362Y0203639D01*
X0101353Y0203737D01*
X0101347Y0203835D01*
X0101345Y0203933D01*
X0101347Y0204031D01*
X0101353Y0204129D01*
X0101362Y0204227D01*
X0101376Y0204324D01*
X0101393Y0204421D01*
X0101414Y0204517D01*
X0101439Y0204612D01*
X0101467Y0204706D01*
X0101500Y0204798D01*
X0101535Y0204890D01*
X0101575Y0204980D01*
X0101617Y0205068D01*
X0101664Y0205155D01*
X0101713Y0205239D01*
X0101766Y0205322D01*
X0101822Y0205402D01*
X0101882Y0205481D01*
X0101944Y0205557D01*
X0102009Y0205630D01*
X0102077Y0205701D01*
X0102148Y0205769D01*
X0102221Y0205834D01*
X0102297Y0205896D01*
X0102376Y0205956D01*
X0102456Y0206012D01*
X0102539Y0206065D01*
X0102623Y0206114D01*
X0102710Y0206161D01*
X0102798Y0206203D01*
X0102888Y0206243D01*
X0102980Y0206278D01*
X0103072Y0206311D01*
X0103166Y0206339D01*
X0103261Y0206364D01*
X0103357Y0206385D01*
X0103454Y0206402D01*
X0103551Y0206416D01*
X0103649Y0206425D01*
X0103747Y0206431D01*
X0103845Y0206433D01*
X0122595Y0206433D01*
X0122693Y0206431D01*
X0122791Y0206425D01*
X0122889Y0206416D01*
X0122986Y0206402D01*
X0123083Y0206385D01*
X0123179Y0206364D01*
X0123274Y0206339D01*
X0123368Y0206311D01*
X0123460Y0206278D01*
X0123552Y0206243D01*
X0123642Y0206203D01*
X0123730Y0206161D01*
X0123817Y0206114D01*
X0123901Y0206065D01*
X0123984Y0206012D01*
X0124064Y0205956D01*
X0124143Y0205896D01*
X0124219Y0205834D01*
X0124292Y0205769D01*
X0124363Y0205701D01*
X0124431Y0205630D01*
X0124496Y0205557D01*
X0124558Y0205481D01*
X0124618Y0205402D01*
X0124674Y0205322D01*
X0124727Y0205239D01*
X0124776Y0205155D01*
X0124823Y0205068D01*
X0124865Y0204980D01*
X0124905Y0204890D01*
X0124940Y0204798D01*
X0124973Y0204706D01*
X0125001Y0204612D01*
X0125026Y0204517D01*
X0125047Y0204421D01*
X0125064Y0204324D01*
X0125078Y0204227D01*
X0125087Y0204129D01*
X0125093Y0204031D01*
X0125095Y0203933D01*
X0125093Y0203835D01*
X0125087Y0203737D01*
X0125078Y0203639D01*
X0125064Y0203542D01*
X0125047Y0203445D01*
X0125026Y0203349D01*
X0125001Y0203254D01*
X0124973Y0203160D01*
X0124940Y0203068D01*
X0124905Y0202976D01*
X0124865Y0202886D01*
X0124823Y0202798D01*
X0124776Y0202711D01*
X0124727Y0202627D01*
X0124674Y0202544D01*
X0124618Y0202464D01*
X0124558Y0202385D01*
X0124496Y0202309D01*
X0124431Y0202236D01*
X0124363Y0202165D01*
X0124292Y0202097D01*
X0124219Y0202032D01*
X0124143Y0201970D01*
X0124064Y0201910D01*
X0123984Y0201854D01*
X0123901Y0201801D01*
X0123817Y0201752D01*
X0123730Y0201705D01*
X0123642Y0201663D01*
X0123552Y0201623D01*
X0123460Y0201588D01*
X0123368Y0201555D01*
X0123274Y0201527D01*
X0123179Y0201502D01*
X0123083Y0201481D01*
X0122986Y0201464D01*
X0122889Y0201450D01*
X0122791Y0201441D01*
X0122693Y0201435D01*
X0122595Y0201433D01*
X0143796Y0216433D02*
X0143798Y0216591D01*
X0143804Y0216749D01*
X0143814Y0216907D01*
X0143828Y0217065D01*
X0143846Y0217222D01*
X0143867Y0217379D01*
X0143893Y0217535D01*
X0143923Y0217691D01*
X0143956Y0217846D01*
X0143994Y0217999D01*
X0144035Y0218152D01*
X0144080Y0218304D01*
X0144129Y0218455D01*
X0144182Y0218604D01*
X0144238Y0218752D01*
X0144298Y0218898D01*
X0144362Y0219043D01*
X0144430Y0219186D01*
X0144501Y0219328D01*
X0144575Y0219468D01*
X0144653Y0219605D01*
X0144735Y0219741D01*
X0144819Y0219875D01*
X0144908Y0220006D01*
X0144999Y0220135D01*
X0145094Y0220262D01*
X0145191Y0220387D01*
X0145292Y0220509D01*
X0145396Y0220628D01*
X0145503Y0220745D01*
X0145613Y0220859D01*
X0145726Y0220970D01*
X0145841Y0221079D01*
X0145959Y0221184D01*
X0146080Y0221286D01*
X0146203Y0221386D01*
X0146329Y0221482D01*
X0146457Y0221575D01*
X0146587Y0221665D01*
X0146720Y0221751D01*
X0146855Y0221835D01*
X0146991Y0221914D01*
X0147130Y0221991D01*
X0147271Y0222063D01*
X0147413Y0222133D01*
X0147557Y0222198D01*
X0147703Y0222260D01*
X0147850Y0222318D01*
X0147999Y0222373D01*
X0148149Y0222424D01*
X0148300Y0222471D01*
X0148452Y0222514D01*
X0148605Y0222553D01*
X0148760Y0222589D01*
X0148915Y0222620D01*
X0149071Y0222648D01*
X0149227Y0222672D01*
X0149384Y0222692D01*
X0149542Y0222708D01*
X0149699Y0222720D01*
X0149858Y0222728D01*
X0150016Y0222732D01*
X0150174Y0222732D01*
X0150332Y0222728D01*
X0150491Y0222720D01*
X0150648Y0222708D01*
X0150806Y0222692D01*
X0150963Y0222672D01*
X0151119Y0222648D01*
X0151275Y0222620D01*
X0151430Y0222589D01*
X0151585Y0222553D01*
X0151738Y0222514D01*
X0151890Y0222471D01*
X0152041Y0222424D01*
X0152191Y0222373D01*
X0152340Y0222318D01*
X0152487Y0222260D01*
X0152633Y0222198D01*
X0152777Y0222133D01*
X0152919Y0222063D01*
X0153060Y0221991D01*
X0153199Y0221914D01*
X0153335Y0221835D01*
X0153470Y0221751D01*
X0153603Y0221665D01*
X0153733Y0221575D01*
X0153861Y0221482D01*
X0153987Y0221386D01*
X0154110Y0221286D01*
X0154231Y0221184D01*
X0154349Y0221079D01*
X0154464Y0220970D01*
X0154577Y0220859D01*
X0154687Y0220745D01*
X0154794Y0220628D01*
X0154898Y0220509D01*
X0154999Y0220387D01*
X0155096Y0220262D01*
X0155191Y0220135D01*
X0155282Y0220006D01*
X0155371Y0219875D01*
X0155455Y0219741D01*
X0155537Y0219605D01*
X0155615Y0219468D01*
X0155689Y0219328D01*
X0155760Y0219186D01*
X0155828Y0219043D01*
X0155892Y0218898D01*
X0155952Y0218752D01*
X0156008Y0218604D01*
X0156061Y0218455D01*
X0156110Y0218304D01*
X0156155Y0218152D01*
X0156196Y0217999D01*
X0156234Y0217846D01*
X0156267Y0217691D01*
X0156297Y0217535D01*
X0156323Y0217379D01*
X0156344Y0217222D01*
X0156362Y0217065D01*
X0156376Y0216907D01*
X0156386Y0216749D01*
X0156392Y0216591D01*
X0156394Y0216433D01*
X0156392Y0216275D01*
X0156386Y0216117D01*
X0156376Y0215959D01*
X0156362Y0215801D01*
X0156344Y0215644D01*
X0156323Y0215487D01*
X0156297Y0215331D01*
X0156267Y0215175D01*
X0156234Y0215020D01*
X0156196Y0214867D01*
X0156155Y0214714D01*
X0156110Y0214562D01*
X0156061Y0214411D01*
X0156008Y0214262D01*
X0155952Y0214114D01*
X0155892Y0213968D01*
X0155828Y0213823D01*
X0155760Y0213680D01*
X0155689Y0213538D01*
X0155615Y0213398D01*
X0155537Y0213261D01*
X0155455Y0213125D01*
X0155371Y0212991D01*
X0155282Y0212860D01*
X0155191Y0212731D01*
X0155096Y0212604D01*
X0154999Y0212479D01*
X0154898Y0212357D01*
X0154794Y0212238D01*
X0154687Y0212121D01*
X0154577Y0212007D01*
X0154464Y0211896D01*
X0154349Y0211787D01*
X0154231Y0211682D01*
X0154110Y0211580D01*
X0153987Y0211480D01*
X0153861Y0211384D01*
X0153733Y0211291D01*
X0153603Y0211201D01*
X0153470Y0211115D01*
X0153335Y0211031D01*
X0153199Y0210952D01*
X0153060Y0210875D01*
X0152919Y0210803D01*
X0152777Y0210733D01*
X0152633Y0210668D01*
X0152487Y0210606D01*
X0152340Y0210548D01*
X0152191Y0210493D01*
X0152041Y0210442D01*
X0151890Y0210395D01*
X0151738Y0210352D01*
X0151585Y0210313D01*
X0151430Y0210277D01*
X0151275Y0210246D01*
X0151119Y0210218D01*
X0150963Y0210194D01*
X0150806Y0210174D01*
X0150648Y0210158D01*
X0150491Y0210146D01*
X0150332Y0210138D01*
X0150174Y0210134D01*
X0150016Y0210134D01*
X0149858Y0210138D01*
X0149699Y0210146D01*
X0149542Y0210158D01*
X0149384Y0210174D01*
X0149227Y0210194D01*
X0149071Y0210218D01*
X0148915Y0210246D01*
X0148760Y0210277D01*
X0148605Y0210313D01*
X0148452Y0210352D01*
X0148300Y0210395D01*
X0148149Y0210442D01*
X0147999Y0210493D01*
X0147850Y0210548D01*
X0147703Y0210606D01*
X0147557Y0210668D01*
X0147413Y0210733D01*
X0147271Y0210803D01*
X0147130Y0210875D01*
X0146991Y0210952D01*
X0146855Y0211031D01*
X0146720Y0211115D01*
X0146587Y0211201D01*
X0146457Y0211291D01*
X0146329Y0211384D01*
X0146203Y0211480D01*
X0146080Y0211580D01*
X0145959Y0211682D01*
X0145841Y0211787D01*
X0145726Y0211896D01*
X0145613Y0212007D01*
X0145503Y0212121D01*
X0145396Y0212238D01*
X0145292Y0212357D01*
X0145191Y0212479D01*
X0145094Y0212604D01*
X0144999Y0212731D01*
X0144908Y0212860D01*
X0144819Y0212991D01*
X0144735Y0213125D01*
X0144653Y0213261D01*
X0144575Y0213398D01*
X0144501Y0213538D01*
X0144430Y0213680D01*
X0144362Y0213823D01*
X0144298Y0213968D01*
X0144238Y0214114D01*
X0144182Y0214262D01*
X0144129Y0214411D01*
X0144080Y0214562D01*
X0144035Y0214714D01*
X0143994Y0214867D01*
X0143956Y0215020D01*
X0143923Y0215175D01*
X0143893Y0215331D01*
X0143867Y0215487D01*
X0143846Y0215644D01*
X0143828Y0215801D01*
X0143814Y0215959D01*
X0143804Y0216117D01*
X0143798Y0216275D01*
X0143796Y0216433D01*
X0143695Y0241433D02*
X0143697Y0241593D01*
X0143703Y0241752D01*
X0143713Y0241911D01*
X0143727Y0242070D01*
X0143745Y0242229D01*
X0143766Y0242387D01*
X0143792Y0242544D01*
X0143822Y0242701D01*
X0143855Y0242857D01*
X0143893Y0243012D01*
X0143934Y0243166D01*
X0143979Y0243319D01*
X0144028Y0243471D01*
X0144081Y0243622D01*
X0144137Y0243771D01*
X0144198Y0243919D01*
X0144261Y0244065D01*
X0144329Y0244210D01*
X0144400Y0244353D01*
X0144474Y0244494D01*
X0144552Y0244633D01*
X0144634Y0244770D01*
X0144719Y0244905D01*
X0144807Y0245038D01*
X0144899Y0245169D01*
X0144993Y0245297D01*
X0145091Y0245423D01*
X0145192Y0245547D01*
X0145296Y0245668D01*
X0145403Y0245786D01*
X0145513Y0245902D01*
X0145626Y0246015D01*
X0145742Y0246125D01*
X0145860Y0246232D01*
X0145981Y0246336D01*
X0146105Y0246437D01*
X0146231Y0246535D01*
X0146359Y0246629D01*
X0146490Y0246721D01*
X0146623Y0246809D01*
X0146758Y0246894D01*
X0146895Y0246976D01*
X0147034Y0247054D01*
X0147175Y0247128D01*
X0147318Y0247199D01*
X0147463Y0247267D01*
X0147609Y0247330D01*
X0147757Y0247391D01*
X0147906Y0247447D01*
X0148057Y0247500D01*
X0148209Y0247549D01*
X0148362Y0247594D01*
X0148516Y0247635D01*
X0148671Y0247673D01*
X0148827Y0247706D01*
X0148984Y0247736D01*
X0149141Y0247762D01*
X0149299Y0247783D01*
X0149458Y0247801D01*
X0149617Y0247815D01*
X0149776Y0247825D01*
X0149935Y0247831D01*
X0150095Y0247833D01*
X0150255Y0247831D01*
X0150414Y0247825D01*
X0150573Y0247815D01*
X0150732Y0247801D01*
X0150891Y0247783D01*
X0151049Y0247762D01*
X0151206Y0247736D01*
X0151363Y0247706D01*
X0151519Y0247673D01*
X0151674Y0247635D01*
X0151828Y0247594D01*
X0151981Y0247549D01*
X0152133Y0247500D01*
X0152284Y0247447D01*
X0152433Y0247391D01*
X0152581Y0247330D01*
X0152727Y0247267D01*
X0152872Y0247199D01*
X0153015Y0247128D01*
X0153156Y0247054D01*
X0153295Y0246976D01*
X0153432Y0246894D01*
X0153567Y0246809D01*
X0153700Y0246721D01*
X0153831Y0246629D01*
X0153959Y0246535D01*
X0154085Y0246437D01*
X0154209Y0246336D01*
X0154330Y0246232D01*
X0154448Y0246125D01*
X0154564Y0246015D01*
X0154677Y0245902D01*
X0154787Y0245786D01*
X0154894Y0245668D01*
X0154998Y0245547D01*
X0155099Y0245423D01*
X0155197Y0245297D01*
X0155291Y0245169D01*
X0155383Y0245038D01*
X0155471Y0244905D01*
X0155556Y0244770D01*
X0155638Y0244633D01*
X0155716Y0244494D01*
X0155790Y0244353D01*
X0155861Y0244210D01*
X0155929Y0244065D01*
X0155992Y0243919D01*
X0156053Y0243771D01*
X0156109Y0243622D01*
X0156162Y0243471D01*
X0156211Y0243319D01*
X0156256Y0243166D01*
X0156297Y0243012D01*
X0156335Y0242857D01*
X0156368Y0242701D01*
X0156398Y0242544D01*
X0156424Y0242387D01*
X0156445Y0242229D01*
X0156463Y0242070D01*
X0156477Y0241911D01*
X0156487Y0241752D01*
X0156493Y0241593D01*
X0156495Y0241433D01*
X0156493Y0241273D01*
X0156487Y0241114D01*
X0156477Y0240955D01*
X0156463Y0240796D01*
X0156445Y0240637D01*
X0156424Y0240479D01*
X0156398Y0240322D01*
X0156368Y0240165D01*
X0156335Y0240009D01*
X0156297Y0239854D01*
X0156256Y0239700D01*
X0156211Y0239547D01*
X0156162Y0239395D01*
X0156109Y0239244D01*
X0156053Y0239095D01*
X0155992Y0238947D01*
X0155929Y0238801D01*
X0155861Y0238656D01*
X0155790Y0238513D01*
X0155716Y0238372D01*
X0155638Y0238233D01*
X0155556Y0238096D01*
X0155471Y0237961D01*
X0155383Y0237828D01*
X0155291Y0237697D01*
X0155197Y0237569D01*
X0155099Y0237443D01*
X0154998Y0237319D01*
X0154894Y0237198D01*
X0154787Y0237080D01*
X0154677Y0236964D01*
X0154564Y0236851D01*
X0154448Y0236741D01*
X0154330Y0236634D01*
X0154209Y0236530D01*
X0154085Y0236429D01*
X0153959Y0236331D01*
X0153831Y0236237D01*
X0153700Y0236145D01*
X0153567Y0236057D01*
X0153432Y0235972D01*
X0153295Y0235890D01*
X0153156Y0235812D01*
X0153015Y0235738D01*
X0152872Y0235667D01*
X0152727Y0235599D01*
X0152581Y0235536D01*
X0152433Y0235475D01*
X0152284Y0235419D01*
X0152133Y0235366D01*
X0151981Y0235317D01*
X0151828Y0235272D01*
X0151674Y0235231D01*
X0151519Y0235193D01*
X0151363Y0235160D01*
X0151206Y0235130D01*
X0151049Y0235104D01*
X0150891Y0235083D01*
X0150732Y0235065D01*
X0150573Y0235051D01*
X0150414Y0235041D01*
X0150255Y0235035D01*
X0150095Y0235033D01*
X0149935Y0235035D01*
X0149776Y0235041D01*
X0149617Y0235051D01*
X0149458Y0235065D01*
X0149299Y0235083D01*
X0149141Y0235104D01*
X0148984Y0235130D01*
X0148827Y0235160D01*
X0148671Y0235193D01*
X0148516Y0235231D01*
X0148362Y0235272D01*
X0148209Y0235317D01*
X0148057Y0235366D01*
X0147906Y0235419D01*
X0147757Y0235475D01*
X0147609Y0235536D01*
X0147463Y0235599D01*
X0147318Y0235667D01*
X0147175Y0235738D01*
X0147034Y0235812D01*
X0146895Y0235890D01*
X0146758Y0235972D01*
X0146623Y0236057D01*
X0146490Y0236145D01*
X0146359Y0236237D01*
X0146231Y0236331D01*
X0146105Y0236429D01*
X0145981Y0236530D01*
X0145860Y0236634D01*
X0145742Y0236741D01*
X0145626Y0236851D01*
X0145513Y0236964D01*
X0145403Y0237080D01*
X0145296Y0237198D01*
X0145192Y0237319D01*
X0145091Y0237443D01*
X0144993Y0237569D01*
X0144899Y0237697D01*
X0144807Y0237828D01*
X0144719Y0237961D01*
X0144634Y0238096D01*
X0144552Y0238233D01*
X0144474Y0238372D01*
X0144400Y0238513D01*
X0144329Y0238656D01*
X0144261Y0238801D01*
X0144198Y0238947D01*
X0144137Y0239095D01*
X0144081Y0239244D01*
X0144028Y0239395D01*
X0143979Y0239547D01*
X0143934Y0239700D01*
X0143893Y0239854D01*
X0143855Y0240009D01*
X0143822Y0240165D01*
X0143792Y0240322D01*
X0143766Y0240479D01*
X0143745Y0240637D01*
X0143727Y0240796D01*
X0143713Y0240955D01*
X0143703Y0241114D01*
X0143697Y0241273D01*
X0143695Y0241433D01*
X0143695Y0286433D02*
X0143697Y0286593D01*
X0143703Y0286752D01*
X0143713Y0286911D01*
X0143727Y0287070D01*
X0143745Y0287229D01*
X0143766Y0287387D01*
X0143792Y0287544D01*
X0143822Y0287701D01*
X0143855Y0287857D01*
X0143893Y0288012D01*
X0143934Y0288166D01*
X0143979Y0288319D01*
X0144028Y0288471D01*
X0144081Y0288622D01*
X0144137Y0288771D01*
X0144198Y0288919D01*
X0144261Y0289065D01*
X0144329Y0289210D01*
X0144400Y0289353D01*
X0144474Y0289494D01*
X0144552Y0289633D01*
X0144634Y0289770D01*
X0144719Y0289905D01*
X0144807Y0290038D01*
X0144899Y0290169D01*
X0144993Y0290297D01*
X0145091Y0290423D01*
X0145192Y0290547D01*
X0145296Y0290668D01*
X0145403Y0290786D01*
X0145513Y0290902D01*
X0145626Y0291015D01*
X0145742Y0291125D01*
X0145860Y0291232D01*
X0145981Y0291336D01*
X0146105Y0291437D01*
X0146231Y0291535D01*
X0146359Y0291629D01*
X0146490Y0291721D01*
X0146623Y0291809D01*
X0146758Y0291894D01*
X0146895Y0291976D01*
X0147034Y0292054D01*
X0147175Y0292128D01*
X0147318Y0292199D01*
X0147463Y0292267D01*
X0147609Y0292330D01*
X0147757Y0292391D01*
X0147906Y0292447D01*
X0148057Y0292500D01*
X0148209Y0292549D01*
X0148362Y0292594D01*
X0148516Y0292635D01*
X0148671Y0292673D01*
X0148827Y0292706D01*
X0148984Y0292736D01*
X0149141Y0292762D01*
X0149299Y0292783D01*
X0149458Y0292801D01*
X0149617Y0292815D01*
X0149776Y0292825D01*
X0149935Y0292831D01*
X0150095Y0292833D01*
X0150255Y0292831D01*
X0150414Y0292825D01*
X0150573Y0292815D01*
X0150732Y0292801D01*
X0150891Y0292783D01*
X0151049Y0292762D01*
X0151206Y0292736D01*
X0151363Y0292706D01*
X0151519Y0292673D01*
X0151674Y0292635D01*
X0151828Y0292594D01*
X0151981Y0292549D01*
X0152133Y0292500D01*
X0152284Y0292447D01*
X0152433Y0292391D01*
X0152581Y0292330D01*
X0152727Y0292267D01*
X0152872Y0292199D01*
X0153015Y0292128D01*
X0153156Y0292054D01*
X0153295Y0291976D01*
X0153432Y0291894D01*
X0153567Y0291809D01*
X0153700Y0291721D01*
X0153831Y0291629D01*
X0153959Y0291535D01*
X0154085Y0291437D01*
X0154209Y0291336D01*
X0154330Y0291232D01*
X0154448Y0291125D01*
X0154564Y0291015D01*
X0154677Y0290902D01*
X0154787Y0290786D01*
X0154894Y0290668D01*
X0154998Y0290547D01*
X0155099Y0290423D01*
X0155197Y0290297D01*
X0155291Y0290169D01*
X0155383Y0290038D01*
X0155471Y0289905D01*
X0155556Y0289770D01*
X0155638Y0289633D01*
X0155716Y0289494D01*
X0155790Y0289353D01*
X0155861Y0289210D01*
X0155929Y0289065D01*
X0155992Y0288919D01*
X0156053Y0288771D01*
X0156109Y0288622D01*
X0156162Y0288471D01*
X0156211Y0288319D01*
X0156256Y0288166D01*
X0156297Y0288012D01*
X0156335Y0287857D01*
X0156368Y0287701D01*
X0156398Y0287544D01*
X0156424Y0287387D01*
X0156445Y0287229D01*
X0156463Y0287070D01*
X0156477Y0286911D01*
X0156487Y0286752D01*
X0156493Y0286593D01*
X0156495Y0286433D01*
X0156493Y0286273D01*
X0156487Y0286114D01*
X0156477Y0285955D01*
X0156463Y0285796D01*
X0156445Y0285637D01*
X0156424Y0285479D01*
X0156398Y0285322D01*
X0156368Y0285165D01*
X0156335Y0285009D01*
X0156297Y0284854D01*
X0156256Y0284700D01*
X0156211Y0284547D01*
X0156162Y0284395D01*
X0156109Y0284244D01*
X0156053Y0284095D01*
X0155992Y0283947D01*
X0155929Y0283801D01*
X0155861Y0283656D01*
X0155790Y0283513D01*
X0155716Y0283372D01*
X0155638Y0283233D01*
X0155556Y0283096D01*
X0155471Y0282961D01*
X0155383Y0282828D01*
X0155291Y0282697D01*
X0155197Y0282569D01*
X0155099Y0282443D01*
X0154998Y0282319D01*
X0154894Y0282198D01*
X0154787Y0282080D01*
X0154677Y0281964D01*
X0154564Y0281851D01*
X0154448Y0281741D01*
X0154330Y0281634D01*
X0154209Y0281530D01*
X0154085Y0281429D01*
X0153959Y0281331D01*
X0153831Y0281237D01*
X0153700Y0281145D01*
X0153567Y0281057D01*
X0153432Y0280972D01*
X0153295Y0280890D01*
X0153156Y0280812D01*
X0153015Y0280738D01*
X0152872Y0280667D01*
X0152727Y0280599D01*
X0152581Y0280536D01*
X0152433Y0280475D01*
X0152284Y0280419D01*
X0152133Y0280366D01*
X0151981Y0280317D01*
X0151828Y0280272D01*
X0151674Y0280231D01*
X0151519Y0280193D01*
X0151363Y0280160D01*
X0151206Y0280130D01*
X0151049Y0280104D01*
X0150891Y0280083D01*
X0150732Y0280065D01*
X0150573Y0280051D01*
X0150414Y0280041D01*
X0150255Y0280035D01*
X0150095Y0280033D01*
X0149935Y0280035D01*
X0149776Y0280041D01*
X0149617Y0280051D01*
X0149458Y0280065D01*
X0149299Y0280083D01*
X0149141Y0280104D01*
X0148984Y0280130D01*
X0148827Y0280160D01*
X0148671Y0280193D01*
X0148516Y0280231D01*
X0148362Y0280272D01*
X0148209Y0280317D01*
X0148057Y0280366D01*
X0147906Y0280419D01*
X0147757Y0280475D01*
X0147609Y0280536D01*
X0147463Y0280599D01*
X0147318Y0280667D01*
X0147175Y0280738D01*
X0147034Y0280812D01*
X0146895Y0280890D01*
X0146758Y0280972D01*
X0146623Y0281057D01*
X0146490Y0281145D01*
X0146359Y0281237D01*
X0146231Y0281331D01*
X0146105Y0281429D01*
X0145981Y0281530D01*
X0145860Y0281634D01*
X0145742Y0281741D01*
X0145626Y0281851D01*
X0145513Y0281964D01*
X0145403Y0282080D01*
X0145296Y0282198D01*
X0145192Y0282319D01*
X0145091Y0282443D01*
X0144993Y0282569D01*
X0144899Y0282697D01*
X0144807Y0282828D01*
X0144719Y0282961D01*
X0144634Y0283096D01*
X0144552Y0283233D01*
X0144474Y0283372D01*
X0144400Y0283513D01*
X0144329Y0283656D01*
X0144261Y0283801D01*
X0144198Y0283947D01*
X0144137Y0284095D01*
X0144081Y0284244D01*
X0144028Y0284395D01*
X0143979Y0284547D01*
X0143934Y0284700D01*
X0143893Y0284854D01*
X0143855Y0285009D01*
X0143822Y0285165D01*
X0143792Y0285322D01*
X0143766Y0285479D01*
X0143745Y0285637D01*
X0143727Y0285796D01*
X0143713Y0285955D01*
X0143703Y0286114D01*
X0143697Y0286273D01*
X0143695Y0286433D01*
X0070046Y0288933D02*
X0070048Y0289091D01*
X0070054Y0289249D01*
X0070064Y0289407D01*
X0070078Y0289565D01*
X0070096Y0289722D01*
X0070117Y0289879D01*
X0070143Y0290035D01*
X0070173Y0290191D01*
X0070206Y0290346D01*
X0070244Y0290499D01*
X0070285Y0290652D01*
X0070330Y0290804D01*
X0070379Y0290955D01*
X0070432Y0291104D01*
X0070488Y0291252D01*
X0070548Y0291398D01*
X0070612Y0291543D01*
X0070680Y0291686D01*
X0070751Y0291828D01*
X0070825Y0291968D01*
X0070903Y0292105D01*
X0070985Y0292241D01*
X0071069Y0292375D01*
X0071158Y0292506D01*
X0071249Y0292635D01*
X0071344Y0292762D01*
X0071441Y0292887D01*
X0071542Y0293009D01*
X0071646Y0293128D01*
X0071753Y0293245D01*
X0071863Y0293359D01*
X0071976Y0293470D01*
X0072091Y0293579D01*
X0072209Y0293684D01*
X0072330Y0293786D01*
X0072453Y0293886D01*
X0072579Y0293982D01*
X0072707Y0294075D01*
X0072837Y0294165D01*
X0072970Y0294251D01*
X0073105Y0294335D01*
X0073241Y0294414D01*
X0073380Y0294491D01*
X0073521Y0294563D01*
X0073663Y0294633D01*
X0073807Y0294698D01*
X0073953Y0294760D01*
X0074100Y0294818D01*
X0074249Y0294873D01*
X0074399Y0294924D01*
X0074550Y0294971D01*
X0074702Y0295014D01*
X0074855Y0295053D01*
X0075010Y0295089D01*
X0075165Y0295120D01*
X0075321Y0295148D01*
X0075477Y0295172D01*
X0075634Y0295192D01*
X0075792Y0295208D01*
X0075949Y0295220D01*
X0076108Y0295228D01*
X0076266Y0295232D01*
X0076424Y0295232D01*
X0076582Y0295228D01*
X0076741Y0295220D01*
X0076898Y0295208D01*
X0077056Y0295192D01*
X0077213Y0295172D01*
X0077369Y0295148D01*
X0077525Y0295120D01*
X0077680Y0295089D01*
X0077835Y0295053D01*
X0077988Y0295014D01*
X0078140Y0294971D01*
X0078291Y0294924D01*
X0078441Y0294873D01*
X0078590Y0294818D01*
X0078737Y0294760D01*
X0078883Y0294698D01*
X0079027Y0294633D01*
X0079169Y0294563D01*
X0079310Y0294491D01*
X0079449Y0294414D01*
X0079585Y0294335D01*
X0079720Y0294251D01*
X0079853Y0294165D01*
X0079983Y0294075D01*
X0080111Y0293982D01*
X0080237Y0293886D01*
X0080360Y0293786D01*
X0080481Y0293684D01*
X0080599Y0293579D01*
X0080714Y0293470D01*
X0080827Y0293359D01*
X0080937Y0293245D01*
X0081044Y0293128D01*
X0081148Y0293009D01*
X0081249Y0292887D01*
X0081346Y0292762D01*
X0081441Y0292635D01*
X0081532Y0292506D01*
X0081621Y0292375D01*
X0081705Y0292241D01*
X0081787Y0292105D01*
X0081865Y0291968D01*
X0081939Y0291828D01*
X0082010Y0291686D01*
X0082078Y0291543D01*
X0082142Y0291398D01*
X0082202Y0291252D01*
X0082258Y0291104D01*
X0082311Y0290955D01*
X0082360Y0290804D01*
X0082405Y0290652D01*
X0082446Y0290499D01*
X0082484Y0290346D01*
X0082517Y0290191D01*
X0082547Y0290035D01*
X0082573Y0289879D01*
X0082594Y0289722D01*
X0082612Y0289565D01*
X0082626Y0289407D01*
X0082636Y0289249D01*
X0082642Y0289091D01*
X0082644Y0288933D01*
X0082642Y0288775D01*
X0082636Y0288617D01*
X0082626Y0288459D01*
X0082612Y0288301D01*
X0082594Y0288144D01*
X0082573Y0287987D01*
X0082547Y0287831D01*
X0082517Y0287675D01*
X0082484Y0287520D01*
X0082446Y0287367D01*
X0082405Y0287214D01*
X0082360Y0287062D01*
X0082311Y0286911D01*
X0082258Y0286762D01*
X0082202Y0286614D01*
X0082142Y0286468D01*
X0082078Y0286323D01*
X0082010Y0286180D01*
X0081939Y0286038D01*
X0081865Y0285898D01*
X0081787Y0285761D01*
X0081705Y0285625D01*
X0081621Y0285491D01*
X0081532Y0285360D01*
X0081441Y0285231D01*
X0081346Y0285104D01*
X0081249Y0284979D01*
X0081148Y0284857D01*
X0081044Y0284738D01*
X0080937Y0284621D01*
X0080827Y0284507D01*
X0080714Y0284396D01*
X0080599Y0284287D01*
X0080481Y0284182D01*
X0080360Y0284080D01*
X0080237Y0283980D01*
X0080111Y0283884D01*
X0079983Y0283791D01*
X0079853Y0283701D01*
X0079720Y0283615D01*
X0079585Y0283531D01*
X0079449Y0283452D01*
X0079310Y0283375D01*
X0079169Y0283303D01*
X0079027Y0283233D01*
X0078883Y0283168D01*
X0078737Y0283106D01*
X0078590Y0283048D01*
X0078441Y0282993D01*
X0078291Y0282942D01*
X0078140Y0282895D01*
X0077988Y0282852D01*
X0077835Y0282813D01*
X0077680Y0282777D01*
X0077525Y0282746D01*
X0077369Y0282718D01*
X0077213Y0282694D01*
X0077056Y0282674D01*
X0076898Y0282658D01*
X0076741Y0282646D01*
X0076582Y0282638D01*
X0076424Y0282634D01*
X0076266Y0282634D01*
X0076108Y0282638D01*
X0075949Y0282646D01*
X0075792Y0282658D01*
X0075634Y0282674D01*
X0075477Y0282694D01*
X0075321Y0282718D01*
X0075165Y0282746D01*
X0075010Y0282777D01*
X0074855Y0282813D01*
X0074702Y0282852D01*
X0074550Y0282895D01*
X0074399Y0282942D01*
X0074249Y0282993D01*
X0074100Y0283048D01*
X0073953Y0283106D01*
X0073807Y0283168D01*
X0073663Y0283233D01*
X0073521Y0283303D01*
X0073380Y0283375D01*
X0073241Y0283452D01*
X0073105Y0283531D01*
X0072970Y0283615D01*
X0072837Y0283701D01*
X0072707Y0283791D01*
X0072579Y0283884D01*
X0072453Y0283980D01*
X0072330Y0284080D01*
X0072209Y0284182D01*
X0072091Y0284287D01*
X0071976Y0284396D01*
X0071863Y0284507D01*
X0071753Y0284621D01*
X0071646Y0284738D01*
X0071542Y0284857D01*
X0071441Y0284979D01*
X0071344Y0285104D01*
X0071249Y0285231D01*
X0071158Y0285360D01*
X0071069Y0285491D01*
X0070985Y0285625D01*
X0070903Y0285761D01*
X0070825Y0285898D01*
X0070751Y0286038D01*
X0070680Y0286180D01*
X0070612Y0286323D01*
X0070548Y0286468D01*
X0070488Y0286614D01*
X0070432Y0286762D01*
X0070379Y0286911D01*
X0070330Y0287062D01*
X0070285Y0287214D01*
X0070244Y0287367D01*
X0070206Y0287520D01*
X0070173Y0287675D01*
X0070143Y0287831D01*
X0070117Y0287987D01*
X0070096Y0288144D01*
X0070078Y0288301D01*
X0070064Y0288459D01*
X0070054Y0288617D01*
X0070048Y0288775D01*
X0070046Y0288933D01*
X0066345Y0215183D02*
X0066348Y0214972D01*
X0066355Y0214760D01*
X0066368Y0214549D01*
X0066386Y0214339D01*
X0066409Y0214128D01*
X0066437Y0213919D01*
X0066470Y0213710D01*
X0066508Y0213502D01*
X0066551Y0213295D01*
X0066599Y0213089D01*
X0066652Y0212884D01*
X0066710Y0212681D01*
X0066773Y0212479D01*
X0066841Y0212279D01*
X0066914Y0212080D01*
X0066991Y0211883D01*
X0067073Y0211689D01*
X0067160Y0211496D01*
X0067251Y0211305D01*
X0067347Y0211117D01*
X0067448Y0210931D01*
X0067553Y0210747D01*
X0067662Y0210566D01*
X0067776Y0210388D01*
X0067894Y0210212D01*
X0068016Y0210040D01*
X0068142Y0209870D01*
X0068273Y0209704D01*
X0068407Y0209541D01*
X0068546Y0209381D01*
X0068688Y0209224D01*
X0068834Y0209071D01*
X0068983Y0208922D01*
X0069136Y0208776D01*
X0069293Y0208634D01*
X0069453Y0208495D01*
X0069616Y0208361D01*
X0069782Y0208230D01*
X0069952Y0208104D01*
X0070124Y0207982D01*
X0070300Y0207864D01*
X0070478Y0207750D01*
X0070659Y0207641D01*
X0070843Y0207536D01*
X0071029Y0207435D01*
X0071217Y0207339D01*
X0071408Y0207248D01*
X0071601Y0207161D01*
X0071795Y0207079D01*
X0071992Y0207002D01*
X0072191Y0206929D01*
X0072391Y0206861D01*
X0072593Y0206798D01*
X0072796Y0206740D01*
X0073001Y0206687D01*
X0073207Y0206639D01*
X0073414Y0206596D01*
X0073622Y0206558D01*
X0073831Y0206525D01*
X0074040Y0206497D01*
X0074251Y0206474D01*
X0074461Y0206456D01*
X0074672Y0206443D01*
X0074884Y0206436D01*
X0075095Y0206433D01*
D11*
X0073855Y0118933D03*
X0081335Y0118933D03*
X0081335Y0086433D03*
X0081335Y0077683D03*
X0073855Y0077683D03*
X0073855Y0086433D03*
X0141355Y0125808D03*
X0148835Y0125808D03*
D12*
X0126345Y0153943D03*
X0126345Y0161423D03*
X0142595Y0078923D03*
X0142595Y0071443D03*
X0153845Y0071443D03*
X0153845Y0078923D03*
D13*
X0151670Y0133583D03*
X0151670Y0142683D03*
X0151670Y0151783D03*
D14*
X0127269Y0142683D03*
D15*
X0082320Y0111344D03*
X0072871Y0111344D03*
X0072871Y0094022D03*
X0082320Y0094022D03*
D16*
X0090095Y0084183D03*
X0095095Y0084183D03*
X0100095Y0084183D03*
X0105095Y0084183D03*
X0110095Y0084183D03*
X0115095Y0084183D03*
X0120095Y0084183D03*
X0125095Y0084183D03*
X0130095Y0084183D03*
X0137595Y0093383D03*
X0142595Y0093383D03*
X0147595Y0093383D03*
X0152595Y0093383D03*
X0152595Y0111983D03*
X0147595Y0111983D03*
X0142595Y0111983D03*
X0137595Y0111983D03*
X0130095Y0121183D03*
X0125095Y0121183D03*
X0120095Y0121183D03*
X0115095Y0121183D03*
X0110095Y0121183D03*
X0105095Y0121183D03*
X0100095Y0121183D03*
X0095095Y0121183D03*
X0090095Y0121183D03*
D17*
X0151345Y0166325D03*
X0151345Y0172230D03*
X0151345Y0178136D03*
X0151345Y0184041D03*
X0133953Y0213933D03*
X0128048Y0213933D03*
X0122142Y0213933D03*
X0116237Y0213933D03*
D18*
X0115764Y0177821D03*
X0115764Y0132545D03*
X0074426Y0132545D03*
X0074426Y0177821D03*
D19*
X0115095Y0251433D03*
X0115095Y0261433D03*
X0115095Y0271433D03*
X0115095Y0281433D03*
X0125095Y0276433D03*
X0125095Y0266433D03*
X0125095Y0256433D03*
X0125095Y0246433D03*
D20*
X0101266Y0243933D03*
X0101266Y0236059D03*
X0101266Y0228382D03*
X0091424Y0228382D03*
X0091424Y0234878D03*
X0091424Y0242752D03*
X0091424Y0250626D03*
X0091424Y0259484D03*
X0101266Y0259484D03*
X0101266Y0251807D03*
D21*
X0076463Y0243933D03*
D22*
X0079613Y0215390D03*
X0079613Y0272476D03*
D23*
X0126345Y0229133D02*
X0126345Y0223733D01*
X0136345Y0223733D02*
X0136345Y0229133D01*
D24*
X0132595Y0066333D02*
X0132595Y0061533D01*
X0122595Y0061533D02*
X0122595Y0066333D01*
X0112595Y0066333D02*
X0112595Y0061533D01*
X0102595Y0061533D02*
X0102595Y0066333D01*
X0092595Y0066333D02*
X0092595Y0061533D01*
D25*
X0092295Y0061854D02*
X0092895Y0061854D01*
X0092895Y0060856D02*
X0092295Y0060856D01*
X0092295Y0059857D02*
X0092895Y0059857D01*
X0092895Y0058859D02*
X0092295Y0058859D01*
X0092295Y0057860D02*
X0092895Y0057860D01*
X0092895Y0057633D02*
X0092979Y0057633D01*
X0093733Y0057783D01*
X0094442Y0058077D01*
X0095081Y0058504D01*
X0095624Y0059047D01*
X0096051Y0059686D01*
X0096345Y0060395D01*
X0096495Y0061149D01*
X0096495Y0063633D01*
X0092895Y0063633D01*
X0092895Y0057633D01*
X0092295Y0057633D02*
X0092295Y0063633D01*
X0088695Y0063633D01*
X0088695Y0061149D01*
X0088845Y0060395D01*
X0089139Y0059686D01*
X0089566Y0059047D01*
X0090109Y0058504D01*
X0090748Y0058077D01*
X0091458Y0057783D01*
X0092211Y0057633D01*
X0092295Y0057633D01*
X0091271Y0057860D02*
X0084907Y0057860D01*
X0085144Y0058433D02*
X0083805Y0055199D01*
X0081329Y0052723D01*
X0081232Y0052683D01*
X0150095Y0052683D01*
X0151268Y0052775D01*
X0153500Y0053501D01*
X0155398Y0054880D01*
X0156778Y0056778D01*
X0157503Y0059010D01*
X0157595Y0060183D01*
X0157595Y0068125D01*
X0157254Y0067784D01*
X0150437Y0067784D01*
X0149792Y0068428D01*
X0149792Y0069743D01*
X0148131Y0069743D01*
X0146970Y0070904D01*
X0146648Y0070582D01*
X0146648Y0068428D01*
X0146004Y0067784D01*
X0139187Y0067784D01*
X0138542Y0068428D01*
X0138542Y0074458D01*
X0139187Y0075102D01*
X0145270Y0075102D01*
X0145270Y0075264D01*
X0139187Y0075264D01*
X0138542Y0075909D01*
X0138542Y0081938D01*
X0139114Y0082510D01*
X0133395Y0088229D01*
X0133395Y0095729D01*
X0130016Y0099108D01*
X0128299Y0099108D01*
X0126795Y0097604D01*
X0126795Y0089039D01*
X0127295Y0088539D01*
X0127295Y0079827D01*
X0127895Y0079827D01*
X0128539Y0079183D01*
X0131651Y0079183D01*
X0132295Y0079827D01*
X0138542Y0079827D01*
X0138542Y0078829D02*
X0119895Y0078829D01*
X0120249Y0079183D02*
X0121651Y0079183D01*
X0122295Y0079827D01*
X0122895Y0079827D01*
X0123539Y0079183D01*
X0126651Y0079183D01*
X0127295Y0079827D01*
X0127895Y0079827D02*
X0127895Y0088539D01*
X0128395Y0089039D01*
X0128395Y0089337D01*
X0127820Y0089913D01*
X0127411Y0090899D01*
X0127411Y0091967D01*
X0127820Y0092954D01*
X0128575Y0093709D01*
X0129561Y0094117D01*
X0130629Y0094117D01*
X0131616Y0093709D01*
X0132371Y0092954D01*
X0132779Y0091967D01*
X0132779Y0090899D01*
X0132371Y0089913D01*
X0131795Y0089337D01*
X0131795Y0089039D01*
X0132295Y0088539D01*
X0132295Y0079827D01*
X0132295Y0080826D02*
X0138542Y0080826D01*
X0138542Y0081824D02*
X0132295Y0081824D01*
X0132295Y0082823D02*
X0138801Y0082823D01*
X0137803Y0083821D02*
X0132295Y0083821D01*
X0132295Y0084820D02*
X0136804Y0084820D01*
X0135806Y0085818D02*
X0132295Y0085818D01*
X0132295Y0086817D02*
X0134807Y0086817D01*
X0133809Y0087815D02*
X0132295Y0087815D01*
X0132020Y0088814D02*
X0133395Y0088814D01*
X0133395Y0089812D02*
X0132271Y0089812D01*
X0132743Y0090811D02*
X0133395Y0090811D01*
X0133395Y0091810D02*
X0132779Y0091810D01*
X0132431Y0092808D02*
X0133395Y0092808D01*
X0133395Y0093807D02*
X0131379Y0093807D01*
X0133395Y0094805D02*
X0126795Y0094805D01*
X0126795Y0093807D02*
X0128811Y0093807D01*
X0127759Y0092808D02*
X0126795Y0092808D01*
X0126795Y0091810D02*
X0127411Y0091810D01*
X0127447Y0090811D02*
X0126795Y0090811D01*
X0126795Y0089812D02*
X0127920Y0089812D01*
X0128170Y0088814D02*
X0127020Y0088814D01*
X0127295Y0087815D02*
X0127895Y0087815D01*
X0127895Y0086817D02*
X0127295Y0086817D01*
X0127295Y0085818D02*
X0127895Y0085818D01*
X0127895Y0084820D02*
X0127295Y0084820D01*
X0127295Y0083821D02*
X0127895Y0083821D01*
X0127895Y0082823D02*
X0127295Y0082823D01*
X0127295Y0081824D02*
X0127895Y0081824D01*
X0127895Y0080826D02*
X0127295Y0080826D01*
X0122895Y0080826D02*
X0122295Y0080826D01*
X0122295Y0081824D02*
X0122895Y0081824D01*
X0122895Y0082823D02*
X0122295Y0082823D01*
X0122295Y0083821D02*
X0122895Y0083821D01*
X0122895Y0084820D02*
X0122295Y0084820D01*
X0122295Y0085818D02*
X0122895Y0085818D01*
X0122895Y0086817D02*
X0122295Y0086817D01*
X0122295Y0087815D02*
X0122895Y0087815D01*
X0122895Y0088539D02*
X0122895Y0079827D01*
X0122295Y0079827D02*
X0122295Y0088539D01*
X0121651Y0089183D01*
X0118539Y0089183D01*
X0117895Y0088539D01*
X0117895Y0081637D01*
X0117295Y0081037D01*
X0117295Y0088539D01*
X0116795Y0089039D01*
X0116795Y0096559D01*
X0117538Y0097301D01*
X0117976Y0098360D01*
X0117976Y0099506D01*
X0117538Y0100565D01*
X0116727Y0101376D01*
X0115668Y0101814D01*
X0114522Y0101814D01*
X0113463Y0101376D01*
X0112653Y0100565D01*
X0112214Y0099506D01*
X0112214Y0098360D01*
X0112653Y0097301D01*
X0113395Y0096559D01*
X0113395Y0089039D01*
X0112895Y0088539D01*
X0112895Y0079827D01*
X0112295Y0079827D01*
X0112295Y0088539D01*
X0111795Y0089039D01*
X0111795Y0091559D01*
X0112538Y0092301D01*
X0112976Y0093360D01*
X0112976Y0094506D01*
X0112538Y0095565D01*
X0111727Y0096376D01*
X0110668Y0096814D01*
X0109522Y0096814D01*
X0108463Y0096376D01*
X0107653Y0095565D01*
X0107214Y0094506D01*
X0107214Y0093360D01*
X0107653Y0092301D01*
X0108395Y0091559D01*
X0108395Y0089039D01*
X0107895Y0088539D01*
X0107895Y0079827D01*
X0107295Y0079827D01*
X0107295Y0088539D01*
X0106795Y0089039D01*
X0106795Y0096559D01*
X0107538Y0097301D01*
X0107976Y0098360D01*
X0107976Y0099506D01*
X0107538Y0100565D01*
X0106727Y0101376D01*
X0105668Y0101814D01*
X0104522Y0101814D01*
X0103463Y0101376D01*
X0102653Y0100565D01*
X0102214Y0099506D01*
X0102214Y0098360D01*
X0102653Y0097301D01*
X0103395Y0096559D01*
X0103395Y0089039D01*
X0102895Y0088539D01*
X0102895Y0079827D01*
X0102295Y0079827D01*
X0102295Y0088539D01*
X0101651Y0089183D01*
X0100999Y0089183D01*
X0097976Y0092206D01*
X0097976Y0093256D01*
X0097538Y0094315D01*
X0096727Y0095126D01*
X0095668Y0095564D01*
X0094522Y0095564D01*
X0093463Y0095126D01*
X0092653Y0094315D01*
X0092214Y0093256D01*
X0092214Y0092110D01*
X0092653Y0091051D01*
X0093463Y0090241D01*
X0094522Y0089802D01*
X0095572Y0089802D01*
X0096191Y0089183D01*
X0093539Y0089183D01*
X0092895Y0088539D01*
X0092895Y0079827D01*
X0092295Y0079827D01*
X0092295Y0088539D01*
X0091651Y0089183D01*
X0088539Y0089183D01*
X0088045Y0088689D01*
X0088045Y0089479D01*
X0088368Y0089802D01*
X0089418Y0089802D01*
X0090477Y0090241D01*
X0091288Y0091051D01*
X0091726Y0092110D01*
X0091726Y0093256D01*
X0091288Y0094315D01*
X0090477Y0095126D01*
X0089418Y0095564D01*
X0088272Y0095564D01*
X0087213Y0095126D01*
X0086403Y0094315D01*
X0086175Y0093766D01*
X0086175Y0097609D01*
X0101795Y0113229D01*
X0101795Y0116327D01*
X0102295Y0116827D01*
X0102295Y0125539D01*
X0101651Y0126183D01*
X0098539Y0126183D01*
X0097895Y0125539D01*
X0097895Y0116827D01*
X0098395Y0116327D01*
X0098395Y0114637D01*
X0096795Y0113037D01*
X0096795Y0116327D01*
X0097295Y0116827D01*
X0097295Y0125539D01*
X0096651Y0126183D01*
X0093539Y0126183D01*
X0092895Y0125539D01*
X0092895Y0116827D01*
X0093395Y0116327D01*
X0093395Y0113387D01*
X0086891Y0106883D01*
X0085910Y0106883D01*
X0086175Y0107149D01*
X0086175Y0115540D01*
X0085531Y0116185D01*
X0085394Y0116185D01*
X0085394Y0118433D01*
X0081835Y0118433D01*
X0081835Y0119433D01*
X0080835Y0119433D01*
X0080835Y0123386D01*
X0078579Y0123386D01*
X0078197Y0123284D01*
X0077855Y0123086D01*
X0077576Y0122807D01*
X0077383Y0122473D01*
X0076870Y0122986D01*
X0070840Y0122986D01*
X0070196Y0122341D01*
X0070196Y0116185D01*
X0069659Y0116185D01*
X0069015Y0115540D01*
X0069015Y0107149D01*
X0069659Y0106504D01*
X0071370Y0106504D01*
X0071891Y0105983D01*
X0074391Y0103483D01*
X0087241Y0103483D01*
X0082620Y0098862D01*
X0079108Y0098862D01*
X0078464Y0098217D01*
X0078464Y0090486D01*
X0078321Y0090486D01*
X0077807Y0089973D01*
X0077614Y0090307D01*
X0077335Y0090586D01*
X0076993Y0090784D01*
X0076727Y0090855D01*
X0076727Y0098217D01*
X0076082Y0098862D01*
X0069659Y0098862D01*
X0069015Y0098217D01*
X0069015Y0089826D01*
X0069659Y0089181D01*
X0069796Y0089181D01*
X0069796Y0086933D01*
X0073355Y0086933D01*
X0073355Y0085933D01*
X0074355Y0085933D01*
X0074355Y0078183D01*
X0073355Y0078183D01*
X0073355Y0077183D01*
X0074355Y0077183D01*
X0074355Y0073230D01*
X0076612Y0073230D01*
X0076993Y0073333D01*
X0077335Y0073530D01*
X0077614Y0073809D01*
X0077807Y0074144D01*
X0078321Y0073630D01*
X0084350Y0073630D01*
X0084994Y0074275D01*
X0084994Y0075983D01*
X0117049Y0075983D01*
X0120249Y0079183D01*
X0118897Y0077830D02*
X0138542Y0077830D01*
X0138542Y0076832D02*
X0117898Y0076832D01*
X0117895Y0081824D02*
X0117295Y0081824D01*
X0117295Y0082823D02*
X0117895Y0082823D01*
X0117895Y0083821D02*
X0117295Y0083821D01*
X0117295Y0084820D02*
X0117895Y0084820D01*
X0117895Y0085818D02*
X0117295Y0085818D01*
X0117295Y0086817D02*
X0117895Y0086817D01*
X0117895Y0087815D02*
X0117295Y0087815D01*
X0117020Y0088814D02*
X0118170Y0088814D01*
X0116795Y0089812D02*
X0123395Y0089812D01*
X0123395Y0089039D02*
X0122895Y0088539D01*
X0123170Y0088814D02*
X0122020Y0088814D01*
X0123395Y0089039D02*
X0123395Y0099012D01*
X0125895Y0101512D01*
X0126891Y0102508D01*
X0131333Y0102508D01*
X0121967Y0111874D01*
X0121436Y0111874D01*
X0120450Y0112282D01*
X0119695Y0113038D01*
X0119286Y0114024D01*
X0119286Y0115092D01*
X0119695Y0116079D01*
X0119799Y0116183D01*
X0118539Y0116183D01*
X0117895Y0116827D01*
X0117895Y0125539D01*
X0118539Y0126183D01*
X0121651Y0126183D01*
X0122295Y0125539D01*
X0122295Y0117242D01*
X0122504Y0117242D01*
X0122895Y0117080D01*
X0122895Y0125539D01*
X0123539Y0126183D01*
X0126651Y0126183D01*
X0127295Y0125539D01*
X0127295Y0116827D01*
X0126795Y0116327D01*
X0126795Y0115887D01*
X0128999Y0113683D01*
X0135395Y0113683D01*
X0135395Y0116339D01*
X0136039Y0116983D01*
X0137141Y0116983D01*
X0134641Y0119483D01*
X0132295Y0119483D01*
X0132295Y0116827D01*
X0131651Y0116183D01*
X0128539Y0116183D01*
X0127895Y0116827D01*
X0127895Y0125539D01*
X0128539Y0126183D01*
X0131651Y0126183D01*
X0132295Y0125539D01*
X0132295Y0122883D01*
X0136049Y0122883D01*
X0137045Y0121887D01*
X0140895Y0118037D01*
X0140895Y0121755D01*
X0138340Y0121755D01*
X0137696Y0122400D01*
X0137696Y0129216D01*
X0138325Y0129845D01*
X0121786Y0129845D01*
X0121786Y0127168D01*
X0121141Y0126524D01*
X0110388Y0126524D01*
X0109743Y0127168D01*
X0109743Y0137922D01*
X0110388Y0138567D01*
X0121141Y0138567D01*
X0121786Y0137922D01*
X0121786Y0135245D01*
X0121839Y0135245D01*
X0121839Y0150225D01*
X0122417Y0150804D01*
X0122292Y0150928D01*
X0122292Y0152038D01*
X0120749Y0152040D01*
X0120366Y0151657D01*
X0119379Y0151249D01*
X0118311Y0151249D01*
X0117325Y0151657D01*
X0116570Y0152413D01*
X0116161Y0153399D01*
X0116161Y0154467D01*
X0116570Y0155454D01*
X0117325Y0156209D01*
X0118311Y0156617D01*
X0119379Y0156617D01*
X0120366Y0156209D01*
X0120734Y0155840D01*
X0122292Y0155838D01*
X0122292Y0156958D01*
X0122806Y0157471D01*
X0122471Y0157664D01*
X0122192Y0157943D01*
X0121995Y0158285D01*
X0121892Y0158667D01*
X0121892Y0160923D01*
X0125845Y0160923D01*
X0125845Y0161923D01*
X0121892Y0161923D01*
X0121892Y0164083D01*
X0083848Y0164083D01*
X0082524Y0164631D01*
X0075356Y0171800D01*
X0069049Y0171800D01*
X0068845Y0172003D01*
X0068845Y0138363D01*
X0069049Y0138567D01*
X0079803Y0138567D01*
X0080447Y0137922D01*
X0080447Y0127168D01*
X0079803Y0126524D01*
X0069049Y0126524D01*
X0068845Y0126728D01*
X0068845Y0065070D01*
X0068886Y0065167D01*
X0071361Y0067643D01*
X0074595Y0068982D01*
X0078095Y0068982D01*
X0081329Y0067643D01*
X0083805Y0065167D01*
X0085144Y0061933D01*
X0085144Y0058433D01*
X0085144Y0058859D02*
X0089754Y0058859D01*
X0089068Y0059857D02*
X0085144Y0059857D01*
X0085144Y0060856D02*
X0088753Y0060856D01*
X0088695Y0061854D02*
X0085144Y0061854D01*
X0084764Y0062853D02*
X0088695Y0062853D01*
X0088695Y0064233D02*
X0092295Y0064233D01*
X0092295Y0063633D01*
X0092895Y0063633D01*
X0092895Y0064233D01*
X0092295Y0064233D01*
X0092295Y0070233D01*
X0092211Y0070233D01*
X0091458Y0070083D01*
X0090748Y0069789D01*
X0090109Y0069362D01*
X0089566Y0068819D01*
X0089139Y0068180D01*
X0088845Y0067471D01*
X0088695Y0066717D01*
X0088695Y0064233D01*
X0088695Y0064850D02*
X0083936Y0064850D01*
X0084350Y0063851D02*
X0092295Y0063851D01*
X0092895Y0063851D02*
X0102295Y0063851D01*
X0102295Y0063633D02*
X0098695Y0063633D01*
X0098695Y0061149D01*
X0098845Y0060395D01*
X0099139Y0059686D01*
X0099566Y0059047D01*
X0100109Y0058504D01*
X0100748Y0058077D01*
X0101458Y0057783D01*
X0102211Y0057633D01*
X0102295Y0057633D01*
X0102295Y0063633D01*
X0102295Y0064233D01*
X0098695Y0064233D01*
X0098695Y0066717D01*
X0098845Y0067471D01*
X0099139Y0068180D01*
X0099566Y0068819D01*
X0100109Y0069362D01*
X0100748Y0069789D01*
X0101458Y0070083D01*
X0102211Y0070233D01*
X0102295Y0070233D01*
X0102295Y0064233D01*
X0102895Y0064233D01*
X0102895Y0070233D01*
X0102979Y0070233D01*
X0103733Y0070083D01*
X0104442Y0069789D01*
X0105081Y0069362D01*
X0105624Y0068819D01*
X0106051Y0068180D01*
X0106345Y0067471D01*
X0106495Y0066717D01*
X0106495Y0064233D01*
X0102895Y0064233D01*
X0102895Y0063633D01*
X0102895Y0057633D01*
X0102979Y0057633D01*
X0103733Y0057783D01*
X0104442Y0058077D01*
X0105081Y0058504D01*
X0105624Y0059047D01*
X0106051Y0059686D01*
X0106345Y0060395D01*
X0106495Y0061149D01*
X0106495Y0063633D01*
X0102895Y0063633D01*
X0102295Y0063633D01*
X0102895Y0063851D02*
X0109095Y0063851D01*
X0109095Y0062853D02*
X0106495Y0062853D01*
X0106495Y0061854D02*
X0109095Y0061854D01*
X0109095Y0060856D02*
X0106437Y0060856D01*
X0106122Y0059857D02*
X0109501Y0059857D01*
X0109628Y0059550D02*
X0110613Y0058566D01*
X0111899Y0058033D01*
X0113291Y0058033D01*
X0114578Y0058566D01*
X0115562Y0059550D01*
X0116095Y0060837D01*
X0116095Y0067029D01*
X0115562Y0068316D01*
X0114578Y0069300D01*
X0113291Y0069833D01*
X0111899Y0069833D01*
X0110613Y0069300D01*
X0109628Y0068316D01*
X0109095Y0067029D01*
X0109095Y0060837D01*
X0109628Y0059550D01*
X0110320Y0058859D02*
X0105436Y0058859D01*
X0103919Y0057860D02*
X0157129Y0057860D01*
X0156805Y0056862D02*
X0084494Y0056862D01*
X0084080Y0055863D02*
X0156113Y0055863D01*
X0155378Y0054865D02*
X0083471Y0054865D01*
X0082472Y0053866D02*
X0154003Y0053866D01*
X0151552Y0052868D02*
X0081474Y0052868D01*
X0083124Y0065848D02*
X0088695Y0065848D01*
X0088721Y0066847D02*
X0082125Y0066847D01*
X0080840Y0067845D02*
X0089000Y0067845D01*
X0089590Y0068844D02*
X0078430Y0068844D01*
X0078115Y0073836D02*
X0077630Y0073836D01*
X0074355Y0073836D02*
X0073355Y0073836D01*
X0073355Y0073230D02*
X0073355Y0077183D01*
X0069796Y0077183D01*
X0069796Y0074533D01*
X0069898Y0074151D01*
X0070096Y0073809D01*
X0070375Y0073530D01*
X0070717Y0073333D01*
X0071098Y0073230D01*
X0073355Y0073230D01*
X0073355Y0074835D02*
X0074355Y0074835D01*
X0074355Y0075833D02*
X0073355Y0075833D01*
X0073355Y0076832D02*
X0074355Y0076832D01*
X0073355Y0077830D02*
X0068845Y0077830D01*
X0068845Y0076832D02*
X0069796Y0076832D01*
X0069796Y0075833D02*
X0068845Y0075833D01*
X0068845Y0074835D02*
X0069796Y0074835D01*
X0070080Y0073836D02*
X0068845Y0073836D01*
X0068845Y0072838D02*
X0138542Y0072838D01*
X0138542Y0073836D02*
X0084556Y0073836D01*
X0084994Y0074835D02*
X0138920Y0074835D01*
X0138618Y0075833D02*
X0084994Y0075833D01*
X0091851Y0079383D02*
X0092295Y0079827D01*
X0092895Y0079827D02*
X0093340Y0079383D01*
X0091851Y0079383D01*
X0092295Y0080826D02*
X0092895Y0080826D01*
X0092895Y0081824D02*
X0092295Y0081824D01*
X0092295Y0082823D02*
X0092895Y0082823D01*
X0092895Y0083821D02*
X0092295Y0083821D01*
X0092295Y0084820D02*
X0092895Y0084820D01*
X0092895Y0085818D02*
X0092295Y0085818D01*
X0092295Y0086817D02*
X0092895Y0086817D01*
X0092895Y0087815D02*
X0092295Y0087815D01*
X0092020Y0088814D02*
X0093170Y0088814D01*
X0094497Y0089812D02*
X0089444Y0089812D01*
X0088170Y0088814D02*
X0088045Y0088814D01*
X0091048Y0090811D02*
X0092893Y0090811D01*
X0092338Y0091810D02*
X0091602Y0091810D01*
X0091726Y0092808D02*
X0092214Y0092808D01*
X0092442Y0093807D02*
X0091498Y0093807D01*
X0090798Y0094805D02*
X0093143Y0094805D01*
X0097048Y0094805D02*
X0103395Y0094805D01*
X0103395Y0093807D02*
X0097748Y0093807D01*
X0097976Y0092808D02*
X0103395Y0092808D01*
X0103395Y0091810D02*
X0098373Y0091810D01*
X0099371Y0090811D02*
X0103395Y0090811D01*
X0103395Y0089812D02*
X0100370Y0089812D01*
X0102020Y0088814D02*
X0103170Y0088814D01*
X0102895Y0087815D02*
X0102295Y0087815D01*
X0102295Y0086817D02*
X0102895Y0086817D01*
X0102895Y0085818D02*
X0102295Y0085818D01*
X0102295Y0084820D02*
X0102895Y0084820D01*
X0102895Y0083821D02*
X0102295Y0083821D01*
X0102295Y0082823D02*
X0102895Y0082823D01*
X0102895Y0081824D02*
X0102295Y0081824D01*
X0102295Y0080826D02*
X0102895Y0080826D01*
X0102895Y0079827D02*
X0103340Y0079383D01*
X0101851Y0079383D01*
X0102295Y0079827D01*
X0106851Y0079383D02*
X0107295Y0079827D01*
X0107895Y0079827D02*
X0108340Y0079383D01*
X0106851Y0079383D01*
X0107295Y0080826D02*
X0107895Y0080826D01*
X0107895Y0081824D02*
X0107295Y0081824D01*
X0107295Y0082823D02*
X0107895Y0082823D01*
X0107895Y0083821D02*
X0107295Y0083821D01*
X0107295Y0084820D02*
X0107895Y0084820D01*
X0107895Y0085818D02*
X0107295Y0085818D01*
X0107295Y0086817D02*
X0107895Y0086817D01*
X0107895Y0087815D02*
X0107295Y0087815D01*
X0107020Y0088814D02*
X0108170Y0088814D01*
X0108395Y0089812D02*
X0106795Y0089812D01*
X0106795Y0090811D02*
X0108395Y0090811D01*
X0108144Y0091810D02*
X0106795Y0091810D01*
X0106795Y0092808D02*
X0107443Y0092808D01*
X0107214Y0093807D02*
X0106795Y0093807D01*
X0106795Y0094805D02*
X0107338Y0094805D01*
X0106795Y0095804D02*
X0107891Y0095804D01*
X0107039Y0096802D02*
X0109493Y0096802D01*
X0110697Y0096802D02*
X0113152Y0096802D01*
X0113395Y0095804D02*
X0112299Y0095804D01*
X0112852Y0094805D02*
X0113395Y0094805D01*
X0113395Y0093807D02*
X0112976Y0093807D01*
X0112748Y0092808D02*
X0113395Y0092808D01*
X0113395Y0091810D02*
X0112046Y0091810D01*
X0111795Y0090811D02*
X0113395Y0090811D01*
X0113395Y0089812D02*
X0111795Y0089812D01*
X0112020Y0088814D02*
X0113170Y0088814D01*
X0112895Y0087815D02*
X0112295Y0087815D01*
X0112295Y0086817D02*
X0112895Y0086817D01*
X0112895Y0085818D02*
X0112295Y0085818D01*
X0112295Y0084820D02*
X0112895Y0084820D01*
X0112895Y0083821D02*
X0112295Y0083821D01*
X0112295Y0082823D02*
X0112895Y0082823D01*
X0112895Y0081824D02*
X0112295Y0081824D01*
X0112295Y0080826D02*
X0112895Y0080826D01*
X0112895Y0079827D02*
X0113340Y0079383D01*
X0111851Y0079383D01*
X0112295Y0079827D01*
X0110156Y0068844D02*
X0105600Y0068844D01*
X0106190Y0067845D02*
X0109433Y0067845D01*
X0109095Y0066847D02*
X0106469Y0066847D01*
X0106495Y0065848D02*
X0109095Y0065848D01*
X0109095Y0064850D02*
X0106495Y0064850D01*
X0104314Y0069842D02*
X0138542Y0069842D01*
X0138542Y0068844D02*
X0135034Y0068844D01*
X0134578Y0069300D02*
X0133291Y0069833D01*
X0131899Y0069833D01*
X0130613Y0069300D01*
X0129628Y0068316D01*
X0129095Y0067029D01*
X0129095Y0060837D01*
X0129628Y0059550D01*
X0130613Y0058566D01*
X0131899Y0058033D01*
X0133291Y0058033D01*
X0134578Y0058566D01*
X0135562Y0059550D01*
X0136095Y0060837D01*
X0136095Y0067029D01*
X0135562Y0068316D01*
X0134578Y0069300D01*
X0135757Y0067845D02*
X0139125Y0067845D01*
X0138542Y0070841D02*
X0068845Y0070841D01*
X0068845Y0071839D02*
X0138542Y0071839D01*
X0136095Y0066847D02*
X0157595Y0066847D01*
X0157595Y0067845D02*
X0157315Y0067845D01*
X0157595Y0065848D02*
X0136095Y0065848D01*
X0136095Y0064850D02*
X0157595Y0064850D01*
X0157595Y0063851D02*
X0136095Y0063851D01*
X0136095Y0062853D02*
X0157595Y0062853D01*
X0157595Y0061854D02*
X0136095Y0061854D01*
X0136095Y0060856D02*
X0157595Y0060856D01*
X0157570Y0059857D02*
X0135689Y0059857D01*
X0134870Y0058859D02*
X0157454Y0058859D01*
X0150375Y0067845D02*
X0146065Y0067845D01*
X0146648Y0068844D02*
X0149792Y0068844D01*
X0148032Y0069842D02*
X0146648Y0069842D01*
X0146907Y0070841D02*
X0147033Y0070841D01*
X0149539Y0073143D02*
X0148670Y0074012D01*
X0148670Y0084012D01*
X0148073Y0084609D01*
X0148491Y0084782D01*
X0149246Y0085538D01*
X0149654Y0086524D01*
X0149654Y0087592D01*
X0149275Y0088507D01*
X0149795Y0089027D01*
X0149795Y0097739D01*
X0149683Y0097850D01*
X0149871Y0098038D01*
X0150279Y0099024D01*
X0150279Y0100092D01*
X0149871Y0101079D01*
X0149116Y0101834D01*
X0148176Y0102223D01*
X0148404Y0102774D01*
X0148404Y0103842D01*
X0148035Y0104733D01*
X0152049Y0104733D01*
X0153045Y0105729D01*
X0154295Y0106979D01*
X0154295Y0107127D01*
X0154795Y0107627D01*
X0154795Y0116339D01*
X0154151Y0116983D01*
X0151039Y0116983D01*
X0150395Y0116339D01*
X0150395Y0108133D01*
X0150195Y0108133D01*
X0150195Y0111933D01*
X0147645Y0111933D01*
X0147645Y0112033D01*
X0147545Y0112033D01*
X0147545Y0111933D01*
X0144995Y0111933D01*
X0144995Y0108133D01*
X0144795Y0108133D01*
X0144795Y0116339D01*
X0144295Y0116839D01*
X0144295Y0118483D01*
X0154391Y0118483D01*
X0155270Y0117604D01*
X0155270Y0106617D01*
X0154561Y0106617D01*
X0153575Y0106209D01*
X0152820Y0105454D01*
X0152411Y0104467D01*
X0152411Y0103399D01*
X0152820Y0102413D01*
X0153575Y0101657D01*
X0154561Y0101249D01*
X0155629Y0101249D01*
X0156616Y0101657D01*
X0157371Y0102413D01*
X0157595Y0102954D01*
X0157595Y0082754D01*
X0157377Y0082880D01*
X0156995Y0082982D01*
X0154345Y0082982D01*
X0154345Y0079423D01*
X0153345Y0079423D01*
X0153345Y0078423D01*
X0149392Y0078423D01*
X0149392Y0076167D01*
X0149495Y0075785D01*
X0149692Y0075443D01*
X0149971Y0075164D01*
X0150306Y0074971D01*
X0149792Y0074458D01*
X0149792Y0073143D01*
X0149539Y0073143D01*
X0149792Y0073836D02*
X0148846Y0073836D01*
X0148670Y0074835D02*
X0150170Y0074835D01*
X0149482Y0075833D02*
X0148670Y0075833D01*
X0148670Y0076832D02*
X0149392Y0076832D01*
X0149392Y0077830D02*
X0148670Y0077830D01*
X0148670Y0078829D02*
X0153345Y0078829D01*
X0153345Y0079423D02*
X0149392Y0079423D01*
X0149392Y0081680D01*
X0149495Y0082061D01*
X0149692Y0082403D01*
X0149971Y0082683D01*
X0150313Y0082880D01*
X0150695Y0082982D01*
X0153345Y0082982D01*
X0153345Y0079423D01*
X0153345Y0079827D02*
X0154345Y0079827D01*
X0154345Y0080826D02*
X0153345Y0080826D01*
X0153345Y0081824D02*
X0154345Y0081824D01*
X0154345Y0082823D02*
X0153345Y0082823D01*
X0150214Y0082823D02*
X0148670Y0082823D01*
X0148670Y0083821D02*
X0157595Y0083821D01*
X0157595Y0082823D02*
X0157476Y0082823D01*
X0157595Y0084820D02*
X0148528Y0084820D01*
X0149362Y0085818D02*
X0157595Y0085818D01*
X0157595Y0086817D02*
X0149654Y0086817D01*
X0149562Y0087815D02*
X0157595Y0087815D01*
X0157595Y0088814D02*
X0155041Y0088814D01*
X0155093Y0088904D02*
X0155195Y0089286D01*
X0155195Y0093333D01*
X0152645Y0093333D01*
X0152645Y0087983D01*
X0153893Y0087983D01*
X0154274Y0088085D01*
X0154616Y0088283D01*
X0154895Y0088562D01*
X0155093Y0088904D01*
X0155195Y0089812D02*
X0157595Y0089812D01*
X0157595Y0090811D02*
X0155195Y0090811D01*
X0155195Y0091810D02*
X0157595Y0091810D01*
X0157595Y0092808D02*
X0155195Y0092808D01*
X0155195Y0093433D02*
X0155195Y0097481D01*
X0155093Y0097862D01*
X0154895Y0098204D01*
X0154616Y0098483D01*
X0154274Y0098681D01*
X0153893Y0098783D01*
X0152645Y0098783D01*
X0152645Y0093433D01*
X0152545Y0093433D01*
X0152545Y0093333D01*
X0149995Y0093333D01*
X0149995Y0089286D01*
X0150097Y0088904D01*
X0150295Y0088562D01*
X0150574Y0088283D01*
X0150916Y0088085D01*
X0151298Y0087983D01*
X0152545Y0087983D01*
X0152545Y0093333D01*
X0152645Y0093333D01*
X0152645Y0093433D01*
X0155195Y0093433D01*
X0155195Y0093807D02*
X0157595Y0093807D01*
X0157595Y0094805D02*
X0155195Y0094805D01*
X0155195Y0095804D02*
X0157595Y0095804D01*
X0157595Y0096802D02*
X0155195Y0096802D01*
X0155109Y0097801D02*
X0157595Y0097801D01*
X0157595Y0098799D02*
X0150186Y0098799D01*
X0150574Y0098483D02*
X0150295Y0098204D01*
X0150097Y0097862D01*
X0149995Y0097481D01*
X0149995Y0093433D01*
X0152545Y0093433D01*
X0152545Y0098783D01*
X0151298Y0098783D01*
X0150916Y0098681D01*
X0150574Y0098483D01*
X0150081Y0097801D02*
X0149733Y0097801D01*
X0149795Y0096802D02*
X0149995Y0096802D01*
X0149995Y0095804D02*
X0149795Y0095804D01*
X0149795Y0094805D02*
X0149995Y0094805D01*
X0149995Y0093807D02*
X0149795Y0093807D01*
X0149795Y0092808D02*
X0149995Y0092808D01*
X0149995Y0091810D02*
X0149795Y0091810D01*
X0149795Y0090811D02*
X0149995Y0090811D01*
X0149995Y0089812D02*
X0149795Y0089812D01*
X0149582Y0088814D02*
X0150149Y0088814D01*
X0152545Y0088814D02*
X0152645Y0088814D01*
X0152645Y0089812D02*
X0152545Y0089812D01*
X0152545Y0090811D02*
X0152645Y0090811D01*
X0152645Y0091810D02*
X0152545Y0091810D01*
X0152545Y0092808D02*
X0152645Y0092808D01*
X0152645Y0093807D02*
X0152545Y0093807D01*
X0152545Y0094805D02*
X0152645Y0094805D01*
X0152645Y0095804D02*
X0152545Y0095804D01*
X0152545Y0096802D02*
X0152645Y0096802D01*
X0152645Y0097801D02*
X0152545Y0097801D01*
X0150279Y0099798D02*
X0157595Y0099798D01*
X0157595Y0100796D02*
X0149988Y0100796D01*
X0149155Y0101795D02*
X0153437Y0101795D01*
X0152662Y0102793D02*
X0148404Y0102793D01*
X0148404Y0103792D02*
X0152411Y0103792D01*
X0152545Y0104790D02*
X0152106Y0104790D01*
X0153105Y0105789D02*
X0153155Y0105789D01*
X0154103Y0106787D02*
X0155270Y0106787D01*
X0155270Y0107786D02*
X0154795Y0107786D01*
X0154795Y0108784D02*
X0155270Y0108784D01*
X0155270Y0109783D02*
X0154795Y0109783D01*
X0154795Y0110781D02*
X0155270Y0110781D01*
X0155270Y0111780D02*
X0154795Y0111780D01*
X0154795Y0112778D02*
X0155270Y0112778D01*
X0155270Y0113777D02*
X0154795Y0113777D01*
X0154795Y0114775D02*
X0155270Y0114775D01*
X0155270Y0115774D02*
X0154795Y0115774D01*
X0154362Y0116772D02*
X0155270Y0116772D01*
X0155103Y0117771D02*
X0144295Y0117771D01*
X0144362Y0116772D02*
X0145277Y0116772D01*
X0145295Y0116804D02*
X0145097Y0116462D01*
X0144995Y0116081D01*
X0144995Y0112033D01*
X0147545Y0112033D01*
X0147545Y0117383D01*
X0146298Y0117383D01*
X0145916Y0117281D01*
X0145574Y0117083D01*
X0145295Y0116804D01*
X0144995Y0115774D02*
X0144795Y0115774D01*
X0144795Y0114775D02*
X0144995Y0114775D01*
X0144995Y0113777D02*
X0144795Y0113777D01*
X0144795Y0112778D02*
X0144995Y0112778D01*
X0144995Y0111780D02*
X0144795Y0111780D01*
X0144795Y0110781D02*
X0144995Y0110781D01*
X0144995Y0109783D02*
X0144795Y0109783D01*
X0144795Y0108784D02*
X0144995Y0108784D01*
X0147645Y0112033D02*
X0150195Y0112033D01*
X0150195Y0116081D01*
X0150093Y0116462D01*
X0149895Y0116804D01*
X0149616Y0117083D01*
X0149274Y0117281D01*
X0148893Y0117383D01*
X0147645Y0117383D01*
X0147645Y0112033D01*
X0147645Y0112778D02*
X0147545Y0112778D01*
X0147545Y0113777D02*
X0147645Y0113777D01*
X0147645Y0114775D02*
X0147545Y0114775D01*
X0147545Y0115774D02*
X0147645Y0115774D01*
X0147645Y0116772D02*
X0147545Y0116772D01*
X0149914Y0116772D02*
X0150829Y0116772D01*
X0150395Y0115774D02*
X0150195Y0115774D01*
X0150195Y0114775D02*
X0150395Y0114775D01*
X0150395Y0113777D02*
X0150195Y0113777D01*
X0150195Y0112778D02*
X0150395Y0112778D01*
X0150395Y0111780D02*
X0150195Y0111780D01*
X0150195Y0110781D02*
X0150395Y0110781D01*
X0150395Y0109783D02*
X0150195Y0109783D01*
X0150195Y0108784D02*
X0150395Y0108784D01*
X0156753Y0101795D02*
X0157595Y0101795D01*
X0157595Y0102793D02*
X0157528Y0102793D01*
X0157595Y0120087D02*
X0155799Y0121883D01*
X0152543Y0121883D01*
X0152595Y0121934D01*
X0152792Y0122276D01*
X0152894Y0122658D01*
X0152894Y0125308D01*
X0149335Y0125308D01*
X0149335Y0126308D01*
X0152894Y0126308D01*
X0152894Y0128958D01*
X0152792Y0129340D01*
X0152595Y0129682D01*
X0152315Y0129961D01*
X0152104Y0130083D01*
X0156526Y0130083D01*
X0157170Y0130727D01*
X0157170Y0136439D01*
X0156526Y0137083D01*
X0146814Y0137083D01*
X0146170Y0136439D01*
X0146170Y0136283D01*
X0140458Y0136283D01*
X0139466Y0135872D01*
X0138839Y0135245D01*
X0132700Y0135245D01*
X0132700Y0149483D01*
X0146170Y0149483D01*
X0146170Y0148927D01*
X0146814Y0148283D01*
X0156526Y0148283D01*
X0157170Y0148927D01*
X0157170Y0154639D01*
X0156526Y0155283D01*
X0146814Y0155283D01*
X0146170Y0154639D01*
X0146170Y0154083D01*
X0130398Y0154083D01*
X0130398Y0156958D01*
X0129885Y0157471D01*
X0130219Y0157664D01*
X0130498Y0157943D01*
X0130696Y0158285D01*
X0130798Y0158667D01*
X0130798Y0160923D01*
X0126845Y0160923D01*
X0126845Y0161923D01*
X0130798Y0161923D01*
X0130798Y0164083D01*
X0143604Y0164083D01*
X0144414Y0163273D01*
X0145737Y0162725D01*
X0152061Y0162725D01*
X0153384Y0163273D01*
X0154397Y0164286D01*
X0154945Y0165609D01*
X0154945Y0167041D01*
X0154397Y0168364D01*
X0153384Y0169377D01*
X0153187Y0169459D01*
X0153195Y0169462D01*
X0154113Y0170381D01*
X0154610Y0171581D01*
X0154610Y0172880D01*
X0154113Y0174080D01*
X0153195Y0174999D01*
X0152749Y0175183D01*
X0153195Y0175368D01*
X0154113Y0176286D01*
X0154610Y0177486D01*
X0154610Y0178785D01*
X0154548Y0178935D01*
X0157420Y0181807D01*
X0157420Y0186512D01*
X0156424Y0187508D01*
X0144999Y0198933D01*
X0149598Y0198933D01*
X0150095Y0198933D01*
X0151268Y0198841D01*
X0153500Y0198116D01*
X0155398Y0196736D01*
X0156778Y0194838D01*
X0157503Y0192606D01*
X0157595Y0191433D01*
X0157595Y0120087D01*
X0157595Y0120766D02*
X0156916Y0120766D01*
X0157595Y0121765D02*
X0155918Y0121765D01*
X0157595Y0122763D02*
X0152894Y0122763D01*
X0152894Y0123762D02*
X0157595Y0123762D01*
X0157595Y0124760D02*
X0152894Y0124760D01*
X0152894Y0126757D02*
X0157595Y0126757D01*
X0157595Y0125759D02*
X0149335Y0125759D01*
X0152894Y0127756D02*
X0157595Y0127756D01*
X0157595Y0128754D02*
X0152894Y0128754D01*
X0152524Y0129753D02*
X0157595Y0129753D01*
X0157595Y0130751D02*
X0157170Y0130751D01*
X0157170Y0131750D02*
X0157595Y0131750D01*
X0157595Y0132748D02*
X0157170Y0132748D01*
X0157170Y0133747D02*
X0157595Y0133747D01*
X0157595Y0134745D02*
X0157170Y0134745D01*
X0157170Y0135744D02*
X0157595Y0135744D01*
X0157595Y0136743D02*
X0156866Y0136743D01*
X0157595Y0137741D02*
X0132700Y0137741D01*
X0132700Y0136743D02*
X0146474Y0136743D01*
X0147073Y0138783D02*
X0151170Y0138783D01*
X0151170Y0142183D01*
X0145770Y0142183D01*
X0145770Y0140086D01*
X0145872Y0139704D01*
X0146070Y0139362D01*
X0146349Y0139083D01*
X0146691Y0138885D01*
X0147073Y0138783D01*
X0145863Y0139738D02*
X0132700Y0139738D01*
X0132700Y0138740D02*
X0157595Y0138740D01*
X0156991Y0139083D02*
X0157270Y0139362D01*
X0157468Y0139704D01*
X0157570Y0140086D01*
X0157570Y0142183D01*
X0152170Y0142183D01*
X0152170Y0138783D01*
X0156268Y0138783D01*
X0156649Y0138885D01*
X0156991Y0139083D01*
X0157477Y0139738D02*
X0157595Y0139738D01*
X0157570Y0140737D02*
X0157595Y0140737D01*
X0157570Y0141735D02*
X0157595Y0141735D01*
X0157595Y0142734D02*
X0152170Y0142734D01*
X0152170Y0143183D02*
X0157570Y0143183D01*
X0157570Y0145281D01*
X0157468Y0145662D01*
X0157270Y0146004D01*
X0156991Y0146283D01*
X0156649Y0146481D01*
X0156268Y0146583D01*
X0152170Y0146583D01*
X0152170Y0143183D01*
X0151170Y0143183D01*
X0151170Y0142183D01*
X0152170Y0142183D01*
X0152170Y0143183D01*
X0152170Y0143732D02*
X0151170Y0143732D01*
X0151170Y0143183D02*
X0151170Y0146583D01*
X0147073Y0146583D01*
X0146691Y0146481D01*
X0146349Y0146283D01*
X0146070Y0146004D01*
X0145872Y0145662D01*
X0145770Y0145281D01*
X0145770Y0143183D01*
X0151170Y0143183D01*
X0151170Y0142734D02*
X0132700Y0142734D01*
X0132700Y0143732D02*
X0145770Y0143732D01*
X0145770Y0144731D02*
X0132700Y0144731D01*
X0132700Y0145729D02*
X0145911Y0145729D01*
X0146373Y0148725D02*
X0132700Y0148725D01*
X0132700Y0147726D02*
X0157595Y0147726D01*
X0157595Y0146728D02*
X0132700Y0146728D01*
X0132700Y0141735D02*
X0145770Y0141735D01*
X0145770Y0140737D02*
X0132700Y0140737D01*
X0132700Y0135744D02*
X0139338Y0135744D01*
X0138232Y0129753D02*
X0121786Y0129753D01*
X0121786Y0128754D02*
X0137696Y0128754D01*
X0137696Y0127756D02*
X0121786Y0127756D01*
X0121375Y0126757D02*
X0137696Y0126757D01*
X0137696Y0125759D02*
X0132075Y0125759D01*
X0132295Y0124760D02*
X0137696Y0124760D01*
X0137696Y0123762D02*
X0132295Y0123762D01*
X0136169Y0122763D02*
X0137696Y0122763D01*
X0137168Y0121765D02*
X0138331Y0121765D01*
X0138166Y0120766D02*
X0140895Y0120766D01*
X0140895Y0119768D02*
X0139165Y0119768D01*
X0140163Y0118769D02*
X0140895Y0118769D01*
X0136353Y0117771D02*
X0132295Y0117771D01*
X0132295Y0118769D02*
X0135355Y0118769D01*
X0135829Y0116772D02*
X0132240Y0116772D01*
X0135395Y0115774D02*
X0126909Y0115774D01*
X0127240Y0116772D02*
X0127950Y0116772D01*
X0127895Y0117771D02*
X0127295Y0117771D01*
X0127295Y0118769D02*
X0127895Y0118769D01*
X0127895Y0119768D02*
X0127295Y0119768D01*
X0127295Y0120766D02*
X0127895Y0120766D01*
X0127895Y0121765D02*
X0127295Y0121765D01*
X0127295Y0122763D02*
X0127895Y0122763D01*
X0127895Y0123762D02*
X0127295Y0123762D01*
X0127295Y0124760D02*
X0127895Y0124760D01*
X0128115Y0125759D02*
X0127075Y0125759D01*
X0123115Y0125759D02*
X0122075Y0125759D01*
X0122295Y0124760D02*
X0122895Y0124760D01*
X0122895Y0123762D02*
X0122295Y0123762D01*
X0122295Y0122763D02*
X0122895Y0122763D01*
X0122895Y0121765D02*
X0122295Y0121765D01*
X0122295Y0120766D02*
X0122895Y0120766D01*
X0122895Y0119768D02*
X0122295Y0119768D01*
X0122295Y0118769D02*
X0122895Y0118769D01*
X0122895Y0117771D02*
X0122295Y0117771D01*
X0119568Y0115774D02*
X0101795Y0115774D01*
X0101795Y0114775D02*
X0119286Y0114775D01*
X0119388Y0113777D02*
X0101795Y0113777D01*
X0101344Y0112778D02*
X0119954Y0112778D01*
X0122061Y0111780D02*
X0100346Y0111780D01*
X0099347Y0110781D02*
X0123060Y0110781D01*
X0124058Y0109783D02*
X0098349Y0109783D01*
X0097350Y0108784D02*
X0125057Y0108784D01*
X0126056Y0107786D02*
X0096352Y0107786D01*
X0095353Y0106787D02*
X0127054Y0106787D01*
X0128053Y0105789D02*
X0094355Y0105789D01*
X0093356Y0104790D02*
X0129051Y0104790D01*
X0130050Y0103792D02*
X0092358Y0103792D01*
X0091359Y0102793D02*
X0131048Y0102793D01*
X0130325Y0098799D02*
X0127990Y0098799D01*
X0126992Y0097801D02*
X0131323Y0097801D01*
X0132322Y0096802D02*
X0126795Y0096802D01*
X0126795Y0095804D02*
X0133320Y0095804D01*
X0126178Y0101795D02*
X0115715Y0101795D01*
X0114475Y0101795D02*
X0105715Y0101795D01*
X0104475Y0101795D02*
X0090361Y0101795D01*
X0089362Y0100796D02*
X0102884Y0100796D01*
X0102335Y0099798D02*
X0088364Y0099798D01*
X0087365Y0098799D02*
X0102214Y0098799D01*
X0102446Y0097801D02*
X0086367Y0097801D01*
X0086175Y0096802D02*
X0103152Y0096802D01*
X0103395Y0095804D02*
X0086175Y0095804D01*
X0086175Y0094805D02*
X0086893Y0094805D01*
X0086192Y0093807D02*
X0086175Y0093807D01*
X0083556Y0099798D02*
X0068845Y0099798D01*
X0068845Y0100796D02*
X0084554Y0100796D01*
X0085553Y0101795D02*
X0068845Y0101795D01*
X0068845Y0102793D02*
X0086551Y0102793D01*
X0086175Y0107786D02*
X0087794Y0107786D01*
X0088792Y0108784D02*
X0086175Y0108784D01*
X0086175Y0109783D02*
X0089791Y0109783D01*
X0090789Y0110781D02*
X0086175Y0110781D01*
X0086175Y0111780D02*
X0091788Y0111780D01*
X0092786Y0112778D02*
X0086175Y0112778D01*
X0086175Y0113777D02*
X0093395Y0113777D01*
X0093395Y0114775D02*
X0086175Y0114775D01*
X0085942Y0115774D02*
X0093395Y0115774D01*
X0092950Y0116772D02*
X0092611Y0116772D01*
X0092593Y0116704D02*
X0092695Y0117086D01*
X0092695Y0121133D01*
X0090145Y0121133D01*
X0090145Y0115783D01*
X0091393Y0115783D01*
X0091774Y0115885D01*
X0092116Y0116083D01*
X0092395Y0116362D01*
X0092593Y0116704D01*
X0092695Y0117771D02*
X0092895Y0117771D01*
X0092895Y0118769D02*
X0092695Y0118769D01*
X0092695Y0119768D02*
X0092895Y0119768D01*
X0092895Y0120766D02*
X0092695Y0120766D01*
X0092695Y0121233D02*
X0092695Y0125281D01*
X0092593Y0125662D01*
X0092395Y0126004D01*
X0092116Y0126283D01*
X0091774Y0126481D01*
X0091393Y0126583D01*
X0090145Y0126583D01*
X0090145Y0121233D01*
X0090045Y0121233D01*
X0090045Y0121133D01*
X0087495Y0121133D01*
X0087495Y0117086D01*
X0087597Y0116704D01*
X0087795Y0116362D01*
X0088074Y0116083D01*
X0088416Y0115885D01*
X0088798Y0115783D01*
X0090045Y0115783D01*
X0090045Y0121133D01*
X0090145Y0121133D01*
X0090145Y0121233D01*
X0092695Y0121233D01*
X0092695Y0121765D02*
X0092895Y0121765D01*
X0092895Y0122763D02*
X0092695Y0122763D01*
X0092695Y0123762D02*
X0092895Y0123762D01*
X0092895Y0124760D02*
X0092695Y0124760D01*
X0092537Y0125759D02*
X0093115Y0125759D01*
X0090145Y0125759D02*
X0090045Y0125759D01*
X0090045Y0126583D02*
X0088798Y0126583D01*
X0088416Y0126481D01*
X0088074Y0126283D01*
X0087795Y0126004D01*
X0087597Y0125662D01*
X0087495Y0125281D01*
X0087495Y0121233D01*
X0090045Y0121233D01*
X0090045Y0126583D01*
X0090045Y0124760D02*
X0090145Y0124760D01*
X0090145Y0123762D02*
X0090045Y0123762D01*
X0090045Y0122763D02*
X0090145Y0122763D01*
X0090145Y0121765D02*
X0090045Y0121765D01*
X0090045Y0120766D02*
X0090145Y0120766D01*
X0090145Y0119768D02*
X0090045Y0119768D01*
X0090045Y0118769D02*
X0090145Y0118769D01*
X0090145Y0117771D02*
X0090045Y0117771D01*
X0090045Y0116772D02*
X0090145Y0116772D01*
X0087579Y0116772D02*
X0085394Y0116772D01*
X0085394Y0117771D02*
X0087495Y0117771D01*
X0087495Y0118769D02*
X0081835Y0118769D01*
X0081835Y0119433D02*
X0085394Y0119433D01*
X0085394Y0122083D01*
X0085292Y0122465D01*
X0085095Y0122807D01*
X0084815Y0123086D01*
X0084473Y0123284D01*
X0084092Y0123386D01*
X0081835Y0123386D01*
X0081835Y0119433D01*
X0081835Y0119768D02*
X0080835Y0119768D01*
X0080835Y0120766D02*
X0081835Y0120766D01*
X0081835Y0121765D02*
X0080835Y0121765D01*
X0080835Y0122763D02*
X0081835Y0122763D01*
X0085120Y0122763D02*
X0087495Y0122763D01*
X0087495Y0121765D02*
X0085394Y0121765D01*
X0085394Y0120766D02*
X0087495Y0120766D01*
X0087495Y0119768D02*
X0085394Y0119768D01*
X0087495Y0123762D02*
X0068845Y0123762D01*
X0068845Y0124760D02*
X0087495Y0124760D01*
X0087653Y0125759D02*
X0068845Y0125759D01*
X0068845Y0122763D02*
X0070618Y0122763D01*
X0070196Y0121765D02*
X0068845Y0121765D01*
X0068845Y0120766D02*
X0070196Y0120766D01*
X0070196Y0119768D02*
X0068845Y0119768D01*
X0068845Y0118769D02*
X0070196Y0118769D01*
X0070196Y0117771D02*
X0068845Y0117771D01*
X0068845Y0116772D02*
X0070196Y0116772D01*
X0069248Y0115774D02*
X0068845Y0115774D01*
X0068845Y0114775D02*
X0069015Y0114775D01*
X0069015Y0113777D02*
X0068845Y0113777D01*
X0068845Y0112778D02*
X0069015Y0112778D01*
X0069015Y0111780D02*
X0068845Y0111780D01*
X0068845Y0110781D02*
X0069015Y0110781D01*
X0069015Y0109783D02*
X0068845Y0109783D01*
X0068845Y0108784D02*
X0069015Y0108784D01*
X0069015Y0107786D02*
X0068845Y0107786D01*
X0068845Y0106787D02*
X0069376Y0106787D01*
X0068845Y0105789D02*
X0072085Y0105789D01*
X0073084Y0104790D02*
X0068845Y0104790D01*
X0068845Y0103792D02*
X0074082Y0103792D01*
X0076145Y0098799D02*
X0079045Y0098799D01*
X0078464Y0097801D02*
X0076727Y0097801D01*
X0076727Y0096802D02*
X0078464Y0096802D01*
X0078464Y0095804D02*
X0076727Y0095804D01*
X0076727Y0094805D02*
X0078464Y0094805D01*
X0078464Y0093807D02*
X0076727Y0093807D01*
X0076727Y0092808D02*
X0078464Y0092808D01*
X0078464Y0091810D02*
X0076727Y0091810D01*
X0076891Y0090811D02*
X0078464Y0090811D01*
X0074355Y0085818D02*
X0073355Y0085818D01*
X0073355Y0085933D02*
X0073355Y0081980D01*
X0073355Y0078183D01*
X0069796Y0078183D01*
X0069796Y0080833D01*
X0069898Y0081215D01*
X0070096Y0081557D01*
X0070375Y0081836D01*
X0070717Y0082034D01*
X0070808Y0082058D01*
X0070717Y0082083D01*
X0070375Y0082280D01*
X0070096Y0082559D01*
X0069898Y0082901D01*
X0069796Y0083283D01*
X0069796Y0085933D01*
X0073355Y0085933D01*
X0073355Y0086817D02*
X0068845Y0086817D01*
X0068845Y0087815D02*
X0069796Y0087815D01*
X0069796Y0088814D02*
X0068845Y0088814D01*
X0068845Y0089812D02*
X0069028Y0089812D01*
X0069015Y0090811D02*
X0068845Y0090811D01*
X0068845Y0091810D02*
X0069015Y0091810D01*
X0069015Y0092808D02*
X0068845Y0092808D01*
X0068845Y0093807D02*
X0069015Y0093807D01*
X0069015Y0094805D02*
X0068845Y0094805D01*
X0068845Y0095804D02*
X0069015Y0095804D01*
X0069015Y0096802D02*
X0068845Y0096802D01*
X0068845Y0097801D02*
X0069015Y0097801D01*
X0068845Y0098799D02*
X0069596Y0098799D01*
X0069796Y0085818D02*
X0068845Y0085818D01*
X0068845Y0084820D02*
X0069796Y0084820D01*
X0069796Y0083821D02*
X0068845Y0083821D01*
X0068845Y0082823D02*
X0069943Y0082823D01*
X0070363Y0081824D02*
X0068845Y0081824D01*
X0068845Y0080826D02*
X0069796Y0080826D01*
X0069796Y0079827D02*
X0068845Y0079827D01*
X0068845Y0078829D02*
X0069796Y0078829D01*
X0073355Y0078829D02*
X0074355Y0078829D01*
X0074355Y0079827D02*
X0073355Y0079827D01*
X0073355Y0080826D02*
X0074355Y0080826D01*
X0074355Y0081824D02*
X0073355Y0081824D01*
X0073355Y0082823D02*
X0074355Y0082823D01*
X0074355Y0083821D02*
X0073355Y0083821D01*
X0073355Y0084820D02*
X0074355Y0084820D01*
X0068845Y0069842D02*
X0090876Y0069842D01*
X0092295Y0069842D02*
X0092895Y0069842D01*
X0092895Y0070233D02*
X0092895Y0064233D01*
X0096495Y0064233D01*
X0096495Y0066717D01*
X0096345Y0067471D01*
X0096051Y0068180D01*
X0095624Y0068819D01*
X0095081Y0069362D01*
X0094442Y0069789D01*
X0093733Y0070083D01*
X0092979Y0070233D01*
X0092895Y0070233D01*
X0092895Y0068844D02*
X0092295Y0068844D01*
X0092295Y0067845D02*
X0092895Y0067845D01*
X0092895Y0066847D02*
X0092295Y0066847D01*
X0092295Y0065848D02*
X0092895Y0065848D01*
X0092895Y0064850D02*
X0092295Y0064850D01*
X0092295Y0062853D02*
X0092895Y0062853D01*
X0096122Y0059857D02*
X0099068Y0059857D01*
X0098753Y0060856D02*
X0096437Y0060856D01*
X0096495Y0061854D02*
X0098695Y0061854D01*
X0098695Y0062853D02*
X0096495Y0062853D01*
X0096495Y0064850D02*
X0098695Y0064850D01*
X0098695Y0065848D02*
X0096495Y0065848D01*
X0096469Y0066847D02*
X0098721Y0066847D01*
X0099000Y0067845D02*
X0096190Y0067845D01*
X0095600Y0068844D02*
X0099590Y0068844D01*
X0100876Y0069842D02*
X0094314Y0069842D01*
X0102295Y0069842D02*
X0102895Y0069842D01*
X0102895Y0068844D02*
X0102295Y0068844D01*
X0102295Y0067845D02*
X0102895Y0067845D01*
X0102895Y0066847D02*
X0102295Y0066847D01*
X0102295Y0065848D02*
X0102895Y0065848D01*
X0102895Y0064850D02*
X0102295Y0064850D01*
X0102295Y0062853D02*
X0102895Y0062853D01*
X0102895Y0061854D02*
X0102295Y0061854D01*
X0102295Y0060856D02*
X0102895Y0060856D01*
X0102895Y0059857D02*
X0102295Y0059857D01*
X0102295Y0058859D02*
X0102895Y0058859D01*
X0102895Y0057860D02*
X0102295Y0057860D01*
X0101271Y0057860D02*
X0093919Y0057860D01*
X0095436Y0058859D02*
X0099754Y0058859D01*
X0114870Y0058859D02*
X0120320Y0058859D01*
X0120613Y0058566D02*
X0121899Y0058033D01*
X0123291Y0058033D01*
X0124578Y0058566D01*
X0125562Y0059550D01*
X0126095Y0060837D01*
X0126095Y0067029D01*
X0125562Y0068316D01*
X0124578Y0069300D01*
X0123291Y0069833D01*
X0121899Y0069833D01*
X0120613Y0069300D01*
X0119628Y0068316D01*
X0119095Y0067029D01*
X0119095Y0060837D01*
X0119628Y0059550D01*
X0120613Y0058566D01*
X0119501Y0059857D02*
X0115689Y0059857D01*
X0116095Y0060856D02*
X0119095Y0060856D01*
X0119095Y0061854D02*
X0116095Y0061854D01*
X0116095Y0062853D02*
X0119095Y0062853D01*
X0119095Y0063851D02*
X0116095Y0063851D01*
X0116095Y0064850D02*
X0119095Y0064850D01*
X0119095Y0065848D02*
X0116095Y0065848D01*
X0116095Y0066847D02*
X0119095Y0066847D01*
X0119433Y0067845D02*
X0115757Y0067845D01*
X0115034Y0068844D02*
X0120156Y0068844D01*
X0125034Y0068844D02*
X0130156Y0068844D01*
X0129433Y0067845D02*
X0125757Y0067845D01*
X0126095Y0066847D02*
X0129095Y0066847D01*
X0129095Y0065848D02*
X0126095Y0065848D01*
X0126095Y0064850D02*
X0129095Y0064850D01*
X0129095Y0063851D02*
X0126095Y0063851D01*
X0126095Y0062853D02*
X0129095Y0062853D01*
X0129095Y0061854D02*
X0126095Y0061854D01*
X0126095Y0060856D02*
X0129095Y0060856D01*
X0129501Y0059857D02*
X0125689Y0059857D01*
X0124870Y0058859D02*
X0130320Y0058859D01*
X0148670Y0079827D02*
X0149392Y0079827D01*
X0149392Y0080826D02*
X0148670Y0080826D01*
X0148670Y0081824D02*
X0149431Y0081824D01*
X0135395Y0113777D02*
X0128906Y0113777D01*
X0127907Y0114775D02*
X0135395Y0114775D01*
X0125179Y0100796D02*
X0117307Y0100796D01*
X0117856Y0099798D02*
X0124181Y0099798D01*
X0123395Y0098799D02*
X0117976Y0098799D01*
X0117745Y0097801D02*
X0123395Y0097801D01*
X0123395Y0096802D02*
X0117039Y0096802D01*
X0116795Y0095804D02*
X0123395Y0095804D01*
X0123395Y0094805D02*
X0116795Y0094805D01*
X0116795Y0093807D02*
X0123395Y0093807D01*
X0123395Y0092808D02*
X0116795Y0092808D01*
X0116795Y0091810D02*
X0123395Y0091810D01*
X0123395Y0090811D02*
X0116795Y0090811D01*
X0112446Y0097801D02*
X0107745Y0097801D01*
X0107976Y0098799D02*
X0112214Y0098799D01*
X0112335Y0099798D02*
X0107856Y0099798D01*
X0107307Y0100796D02*
X0112884Y0100796D01*
X0113539Y0116183D02*
X0112895Y0116827D01*
X0112895Y0125539D01*
X0113539Y0126183D01*
X0116651Y0126183D01*
X0117295Y0125539D01*
X0117295Y0116827D01*
X0116651Y0116183D01*
X0113539Y0116183D01*
X0112950Y0116772D02*
X0112240Y0116772D01*
X0112295Y0116827D02*
X0112295Y0125539D01*
X0111651Y0126183D01*
X0108539Y0126183D01*
X0107895Y0125539D01*
X0107895Y0116827D01*
X0108539Y0116183D01*
X0111651Y0116183D01*
X0112295Y0116827D01*
X0112295Y0117771D02*
X0112895Y0117771D01*
X0112895Y0118769D02*
X0112295Y0118769D01*
X0112295Y0119768D02*
X0112895Y0119768D01*
X0112895Y0120766D02*
X0112295Y0120766D01*
X0112295Y0121765D02*
X0112895Y0121765D01*
X0112895Y0122763D02*
X0112295Y0122763D01*
X0112295Y0123762D02*
X0112895Y0123762D01*
X0112895Y0124760D02*
X0112295Y0124760D01*
X0112075Y0125759D02*
X0113115Y0125759D01*
X0110154Y0126757D02*
X0080036Y0126757D01*
X0080447Y0127756D02*
X0109743Y0127756D01*
X0109743Y0128754D02*
X0080447Y0128754D01*
X0080447Y0129753D02*
X0109743Y0129753D01*
X0109743Y0130751D02*
X0080447Y0130751D01*
X0080447Y0131750D02*
X0109743Y0131750D01*
X0109743Y0132748D02*
X0080447Y0132748D01*
X0080447Y0133747D02*
X0109743Y0133747D01*
X0109743Y0134745D02*
X0080447Y0134745D01*
X0080447Y0135744D02*
X0109743Y0135744D01*
X0109743Y0136743D02*
X0080447Y0136743D01*
X0080447Y0137741D02*
X0109743Y0137741D01*
X0106651Y0126183D02*
X0103539Y0126183D01*
X0102895Y0125539D01*
X0102895Y0116827D01*
X0103539Y0116183D01*
X0106651Y0116183D01*
X0107295Y0116827D01*
X0107295Y0125539D01*
X0106651Y0126183D01*
X0107075Y0125759D02*
X0108115Y0125759D01*
X0107895Y0124760D02*
X0107295Y0124760D01*
X0107295Y0123762D02*
X0107895Y0123762D01*
X0107895Y0122763D02*
X0107295Y0122763D01*
X0107295Y0121765D02*
X0107895Y0121765D01*
X0107895Y0120766D02*
X0107295Y0120766D01*
X0107295Y0119768D02*
X0107895Y0119768D01*
X0107895Y0118769D02*
X0107295Y0118769D01*
X0107295Y0117771D02*
X0107895Y0117771D01*
X0107950Y0116772D02*
X0107240Y0116772D01*
X0102950Y0116772D02*
X0102240Y0116772D01*
X0102295Y0117771D02*
X0102895Y0117771D01*
X0102895Y0118769D02*
X0102295Y0118769D01*
X0102295Y0119768D02*
X0102895Y0119768D01*
X0102895Y0120766D02*
X0102295Y0120766D01*
X0102295Y0121765D02*
X0102895Y0121765D01*
X0102895Y0122763D02*
X0102295Y0122763D01*
X0102295Y0123762D02*
X0102895Y0123762D01*
X0102895Y0124760D02*
X0102295Y0124760D01*
X0102075Y0125759D02*
X0103115Y0125759D01*
X0098115Y0125759D02*
X0097075Y0125759D01*
X0097295Y0124760D02*
X0097895Y0124760D01*
X0097895Y0123762D02*
X0097295Y0123762D01*
X0097295Y0122763D02*
X0097895Y0122763D01*
X0097895Y0121765D02*
X0097295Y0121765D01*
X0097295Y0120766D02*
X0097895Y0120766D01*
X0097895Y0119768D02*
X0097295Y0119768D01*
X0097295Y0118769D02*
X0097895Y0118769D01*
X0097895Y0117771D02*
X0097295Y0117771D01*
X0097240Y0116772D02*
X0097950Y0116772D01*
X0098395Y0115774D02*
X0096795Y0115774D01*
X0096795Y0114775D02*
X0098395Y0114775D01*
X0097535Y0113777D02*
X0096795Y0113777D01*
X0117240Y0116772D02*
X0117950Y0116772D01*
X0117895Y0117771D02*
X0117295Y0117771D01*
X0117295Y0118769D02*
X0117895Y0118769D01*
X0117895Y0119768D02*
X0117295Y0119768D01*
X0117295Y0120766D02*
X0117895Y0120766D01*
X0117895Y0121765D02*
X0117295Y0121765D01*
X0117295Y0122763D02*
X0117895Y0122763D01*
X0117895Y0123762D02*
X0117295Y0123762D01*
X0117295Y0124760D02*
X0117895Y0124760D01*
X0118115Y0125759D02*
X0117075Y0125759D01*
X0121786Y0135744D02*
X0121839Y0135744D01*
X0121839Y0136743D02*
X0121786Y0136743D01*
X0121786Y0137741D02*
X0121839Y0137741D01*
X0121839Y0138740D02*
X0068845Y0138740D01*
X0068845Y0139738D02*
X0121839Y0139738D01*
X0121839Y0140737D02*
X0068845Y0140737D01*
X0068845Y0141735D02*
X0121839Y0141735D01*
X0121839Y0142734D02*
X0068845Y0142734D01*
X0068845Y0143732D02*
X0121839Y0143732D01*
X0121839Y0144731D02*
X0068845Y0144731D01*
X0068845Y0145729D02*
X0121839Y0145729D01*
X0121839Y0146728D02*
X0068845Y0146728D01*
X0068845Y0147726D02*
X0121839Y0147726D01*
X0121839Y0148725D02*
X0068845Y0148725D01*
X0068845Y0149723D02*
X0121839Y0149723D01*
X0122335Y0150722D02*
X0068845Y0150722D01*
X0068845Y0151720D02*
X0117262Y0151720D01*
X0116443Y0152719D02*
X0068845Y0152719D01*
X0068845Y0153717D02*
X0116161Y0153717D01*
X0116264Y0154716D02*
X0068845Y0154716D01*
X0068845Y0155714D02*
X0116830Y0155714D01*
X0120428Y0151720D02*
X0122292Y0151720D01*
X0122292Y0156713D02*
X0068845Y0156713D01*
X0068845Y0157711D02*
X0122424Y0157711D01*
X0121892Y0158710D02*
X0068845Y0158710D01*
X0068845Y0159708D02*
X0121892Y0159708D01*
X0121892Y0160707D02*
X0068845Y0160707D01*
X0068845Y0161705D02*
X0125845Y0161705D01*
X0126845Y0161705D02*
X0157595Y0161705D01*
X0157595Y0160707D02*
X0130798Y0160707D01*
X0130798Y0159708D02*
X0157595Y0159708D01*
X0157595Y0158710D02*
X0130798Y0158710D01*
X0130266Y0157711D02*
X0157595Y0157711D01*
X0157595Y0156713D02*
X0130398Y0156713D01*
X0130398Y0155714D02*
X0157595Y0155714D01*
X0157595Y0154716D02*
X0157093Y0154716D01*
X0157170Y0153717D02*
X0157595Y0153717D01*
X0157595Y0152719D02*
X0157170Y0152719D01*
X0157170Y0151720D02*
X0157595Y0151720D01*
X0157595Y0150722D02*
X0157170Y0150722D01*
X0157170Y0149723D02*
X0157595Y0149723D01*
X0157595Y0148725D02*
X0156967Y0148725D01*
X0157429Y0145729D02*
X0157595Y0145729D01*
X0157570Y0144731D02*
X0157595Y0144731D01*
X0157570Y0143732D02*
X0157595Y0143732D01*
X0152170Y0144731D02*
X0151170Y0144731D01*
X0151170Y0145729D02*
X0152170Y0145729D01*
X0152170Y0141735D02*
X0151170Y0141735D01*
X0151170Y0140737D02*
X0152170Y0140737D01*
X0152170Y0139738D02*
X0151170Y0139738D01*
X0146247Y0154716D02*
X0130398Y0154716D01*
X0130798Y0162704D02*
X0157595Y0162704D01*
X0157595Y0163702D02*
X0153814Y0163702D01*
X0154569Y0164701D02*
X0157595Y0164701D01*
X0157595Y0165699D02*
X0154945Y0165699D01*
X0154945Y0166698D02*
X0157595Y0166698D01*
X0157595Y0167696D02*
X0154674Y0167696D01*
X0154066Y0168695D02*
X0157595Y0168695D01*
X0157595Y0169693D02*
X0153426Y0169693D01*
X0154242Y0170692D02*
X0157595Y0170692D01*
X0157595Y0171690D02*
X0154610Y0171690D01*
X0154610Y0172689D02*
X0157595Y0172689D01*
X0157595Y0173687D02*
X0154276Y0173687D01*
X0153507Y0174686D02*
X0157595Y0174686D01*
X0157595Y0175684D02*
X0153512Y0175684D01*
X0154278Y0176683D02*
X0157595Y0176683D01*
X0157595Y0177681D02*
X0154610Y0177681D01*
X0154610Y0178680D02*
X0157595Y0178680D01*
X0157595Y0179679D02*
X0155292Y0179679D01*
X0156290Y0180677D02*
X0157595Y0180677D01*
X0157595Y0181676D02*
X0157289Y0181676D01*
X0157420Y0182674D02*
X0157595Y0182674D01*
X0157595Y0183673D02*
X0157420Y0183673D01*
X0157420Y0184671D02*
X0157595Y0184671D01*
X0157595Y0185670D02*
X0157420Y0185670D01*
X0157264Y0186668D02*
X0157595Y0186668D01*
X0157595Y0187667D02*
X0156266Y0187667D01*
X0155267Y0188665D02*
X0157595Y0188665D01*
X0157595Y0189664D02*
X0154269Y0189664D01*
X0153270Y0190662D02*
X0157595Y0190662D01*
X0157577Y0191661D02*
X0152272Y0191661D01*
X0151273Y0192659D02*
X0157486Y0192659D01*
X0157161Y0193658D02*
X0150275Y0193658D01*
X0149276Y0194656D02*
X0156837Y0194656D01*
X0156184Y0195655D02*
X0148278Y0195655D01*
X0147279Y0196653D02*
X0155459Y0196653D01*
X0154139Y0197652D02*
X0146281Y0197652D01*
X0145282Y0198650D02*
X0151855Y0198650D01*
X0149295Y0189829D02*
X0151534Y0187590D01*
X0151534Y0184230D01*
X0151156Y0184230D01*
X0151156Y0187707D01*
X0150984Y0187707D01*
X0150276Y0187566D01*
X0149609Y0187290D01*
X0149295Y0187080D01*
X0149295Y0189829D01*
X0149295Y0189664D02*
X0149460Y0189664D01*
X0149295Y0188665D02*
X0150459Y0188665D01*
X0150783Y0187667D02*
X0149295Y0187667D01*
X0151156Y0187667D02*
X0151457Y0187667D01*
X0151534Y0186668D02*
X0151156Y0186668D01*
X0151156Y0185670D02*
X0151534Y0185670D01*
X0151534Y0184671D02*
X0151156Y0184671D01*
X0145895Y0184671D02*
X0143796Y0184671D01*
X0143894Y0184433D02*
X0142555Y0187667D01*
X0145895Y0187667D01*
X0145895Y0188665D02*
X0141557Y0188665D01*
X0142555Y0187667D02*
X0140079Y0190143D01*
X0136845Y0191482D01*
X0133345Y0191482D01*
X0130111Y0190143D01*
X0127636Y0187667D01*
X0126296Y0184433D01*
X0126296Y0180933D01*
X0127636Y0177699D01*
X0130111Y0175223D01*
X0133345Y0173884D01*
X0136845Y0173884D01*
X0140079Y0175223D01*
X0142555Y0177699D01*
X0143894Y0180933D01*
X0143894Y0184433D01*
X0143894Y0183673D02*
X0145895Y0183673D01*
X0145895Y0182674D02*
X0143894Y0182674D01*
X0143894Y0181676D02*
X0145895Y0181676D01*
X0145895Y0180677D02*
X0143788Y0180677D01*
X0143375Y0179679D02*
X0145895Y0179679D01*
X0145895Y0178680D02*
X0142961Y0178680D01*
X0142538Y0177681D02*
X0145895Y0177681D01*
X0145895Y0176683D02*
X0141539Y0176683D01*
X0140540Y0175684D02*
X0145895Y0175684D01*
X0145895Y0175276D02*
X0148142Y0173030D01*
X0148080Y0172880D01*
X0148080Y0171581D01*
X0148577Y0170381D01*
X0149033Y0169925D01*
X0147945Y0169925D01*
X0147134Y0170735D01*
X0145811Y0171283D01*
X0086055Y0171283D01*
X0080447Y0176891D01*
X0080447Y0183198D01*
X0079803Y0183842D01*
X0078026Y0183842D01*
X0078026Y0189273D01*
X0080474Y0191721D01*
X0093449Y0191721D01*
X0094772Y0192269D01*
X0095785Y0193282D01*
X0098384Y0195881D01*
X0099397Y0196894D01*
X0099945Y0198217D01*
X0099945Y0200762D01*
X0101013Y0199694D01*
X0102851Y0198933D01*
X0123590Y0198933D01*
X0125427Y0199694D01*
X0125427Y0199694D01*
X0126834Y0201101D01*
X0126972Y0201433D01*
X0127145Y0201433D01*
X0127145Y0199479D01*
X0132145Y0194479D01*
X0133141Y0193483D01*
X0141891Y0193483D01*
X0145895Y0189479D01*
X0145895Y0175276D01*
X0146485Y0174686D02*
X0138782Y0174686D01*
X0131408Y0174686D02*
X0122186Y0174686D01*
X0122186Y0175684D02*
X0129650Y0175684D01*
X0128651Y0176683D02*
X0122186Y0176683D01*
X0122186Y0177321D02*
X0116264Y0177321D01*
X0116264Y0171400D01*
X0120883Y0171400D01*
X0121265Y0171502D01*
X0121607Y0171699D01*
X0121886Y0171979D01*
X0122083Y0172321D01*
X0122186Y0172702D01*
X0122186Y0177321D01*
X0122186Y0178321D02*
X0122186Y0182940D01*
X0122083Y0183321D01*
X0121886Y0183663D01*
X0121607Y0183942D01*
X0121265Y0184140D01*
X0120883Y0184242D01*
X0116264Y0184242D01*
X0116264Y0178321D01*
X0115264Y0178321D01*
X0115264Y0177321D01*
X0109343Y0177321D01*
X0109343Y0172702D01*
X0109445Y0172321D01*
X0109643Y0171979D01*
X0109922Y0171699D01*
X0110264Y0171502D01*
X0110646Y0171400D01*
X0115264Y0171400D01*
X0115264Y0177321D01*
X0116264Y0177321D01*
X0116264Y0178321D01*
X0122186Y0178321D01*
X0122186Y0178680D02*
X0127229Y0178680D01*
X0126815Y0179679D02*
X0122186Y0179679D01*
X0122186Y0180677D02*
X0126402Y0180677D01*
X0126296Y0181676D02*
X0122186Y0181676D01*
X0122186Y0182674D02*
X0126296Y0182674D01*
X0126296Y0183673D02*
X0121877Y0183673D01*
X0126394Y0184671D02*
X0078026Y0184671D01*
X0078026Y0185670D02*
X0126808Y0185670D01*
X0127222Y0186668D02*
X0078026Y0186668D01*
X0078026Y0187667D02*
X0127635Y0187667D01*
X0128633Y0188665D02*
X0078026Y0188665D01*
X0078417Y0189664D02*
X0129632Y0189664D01*
X0131365Y0190662D02*
X0079415Y0190662D01*
X0080414Y0191661D02*
X0143713Y0191661D01*
X0142715Y0192659D02*
X0095162Y0192659D01*
X0096161Y0193658D02*
X0132966Y0193658D01*
X0131968Y0194656D02*
X0097159Y0194656D01*
X0098158Y0195655D02*
X0130969Y0195655D01*
X0129971Y0196653D02*
X0099156Y0196653D01*
X0099711Y0197652D02*
X0128972Y0197652D01*
X0127974Y0198650D02*
X0099945Y0198650D01*
X0099945Y0199649D02*
X0101123Y0199649D01*
X0100060Y0200647D02*
X0099945Y0200647D01*
X0109922Y0183942D02*
X0109643Y0183663D01*
X0109445Y0183321D01*
X0109343Y0182940D01*
X0109343Y0178321D01*
X0115264Y0178321D01*
X0115264Y0184242D01*
X0110646Y0184242D01*
X0110264Y0184140D01*
X0109922Y0183942D01*
X0109652Y0183673D02*
X0079972Y0183673D01*
X0080447Y0182674D02*
X0109343Y0182674D01*
X0109343Y0181676D02*
X0080447Y0181676D01*
X0080447Y0180677D02*
X0109343Y0180677D01*
X0109343Y0179679D02*
X0080447Y0179679D01*
X0080447Y0178680D02*
X0109343Y0178680D01*
X0109343Y0176683D02*
X0080655Y0176683D01*
X0080447Y0177681D02*
X0115264Y0177681D01*
X0115264Y0176683D02*
X0116264Y0176683D01*
X0116264Y0177681D02*
X0127653Y0177681D01*
X0122186Y0173687D02*
X0147484Y0173687D01*
X0148080Y0172689D02*
X0122182Y0172689D01*
X0121591Y0171690D02*
X0148080Y0171690D01*
X0148448Y0170692D02*
X0147177Y0170692D01*
X0143985Y0163702D02*
X0130798Y0163702D01*
X0121892Y0163702D02*
X0068845Y0163702D01*
X0068845Y0162704D02*
X0121892Y0162704D01*
X0116264Y0171690D02*
X0115264Y0171690D01*
X0115264Y0172689D02*
X0116264Y0172689D01*
X0116264Y0173687D02*
X0115264Y0173687D01*
X0115264Y0174686D02*
X0116264Y0174686D01*
X0116264Y0175684D02*
X0115264Y0175684D01*
X0115264Y0178680D02*
X0116264Y0178680D01*
X0116264Y0179679D02*
X0115264Y0179679D01*
X0115264Y0180677D02*
X0116264Y0180677D01*
X0116264Y0181676D02*
X0115264Y0181676D01*
X0115264Y0182674D02*
X0116264Y0182674D01*
X0116264Y0183673D02*
X0115264Y0183673D01*
X0109343Y0175684D02*
X0081653Y0175684D01*
X0082652Y0174686D02*
X0109343Y0174686D01*
X0109343Y0173687D02*
X0083650Y0173687D01*
X0084649Y0172689D02*
X0109347Y0172689D01*
X0109938Y0171690D02*
X0085647Y0171690D01*
X0081456Y0165699D02*
X0068845Y0165699D01*
X0068845Y0164701D02*
X0082455Y0164701D01*
X0080458Y0166698D02*
X0068845Y0166698D01*
X0068845Y0167696D02*
X0079459Y0167696D01*
X0078461Y0168695D02*
X0068845Y0168695D01*
X0068845Y0169693D02*
X0077462Y0169693D01*
X0076464Y0170692D02*
X0068845Y0170692D01*
X0068845Y0171690D02*
X0075465Y0171690D01*
X0077092Y0122763D02*
X0077551Y0122763D01*
X0074260Y0068844D02*
X0068845Y0068844D01*
X0068845Y0067845D02*
X0071850Y0067845D01*
X0070565Y0066847D02*
X0068845Y0066847D01*
X0068845Y0065848D02*
X0069566Y0065848D01*
X0143382Y0185670D02*
X0145895Y0185670D01*
X0145895Y0186668D02*
X0142969Y0186668D01*
X0140559Y0189664D02*
X0145710Y0189664D01*
X0144712Y0190662D02*
X0138825Y0190662D01*
X0127145Y0199649D02*
X0125317Y0199649D01*
X0126380Y0200647D02*
X0127145Y0200647D01*
X0126834Y0201101D02*
X0126834Y0201101D01*
D26*
X0105095Y0175183D03*
X0098845Y0175183D03*
X0092595Y0175183D03*
X0092595Y0143308D03*
X0113845Y0112058D03*
X0121970Y0114558D03*
X0130095Y0091433D03*
X0141970Y0087058D03*
X0146970Y0087058D03*
X0147595Y0099558D03*
X0145720Y0103308D03*
X0151970Y0100808D03*
X0155095Y0103933D03*
X0155095Y0128308D03*
X0155720Y0175183D03*
X0118845Y0153933D03*
X0103220Y0102683D03*
X0087595Y0067058D03*
X0071970Y0071433D03*
D27*
X0121970Y0114558D02*
X0132595Y0103933D01*
X0137595Y0098933D01*
X0137595Y0093383D01*
X0141355Y0125808D02*
X0142595Y0126443D01*
X0126335Y0153933D02*
X0118845Y0153943D01*
X0118845Y0153933D01*
X0133345Y0207178D02*
X0133345Y0210011D01*
X0133563Y0209968D01*
X0133953Y0209968D01*
X0133953Y0213933D01*
X0133953Y0213933D01*
X0133953Y0217898D01*
X0133563Y0217898D01*
X0132797Y0217746D01*
X0132075Y0217447D01*
X0131426Y0217013D01*
X0130873Y0216461D01*
X0130749Y0216274D01*
X0130067Y0216956D01*
X0128757Y0217498D01*
X0127339Y0217498D01*
X0127319Y0217490D01*
X0124926Y0219883D01*
X0125530Y0219633D01*
X0127161Y0219633D01*
X0128668Y0220257D01*
X0129821Y0221411D01*
X0130445Y0222918D01*
X0130445Y0229949D01*
X0129821Y0231456D01*
X0128668Y0232609D01*
X0127161Y0233233D01*
X0125530Y0233233D01*
X0124023Y0232609D01*
X0122869Y0231456D01*
X0122245Y0229949D01*
X0122245Y0222918D01*
X0122495Y0222314D01*
X0117525Y0227284D01*
X0122095Y0231855D01*
X0122095Y0243741D01*
X0122815Y0243021D01*
X0124295Y0242408D01*
X0125896Y0242408D01*
X0127375Y0243021D01*
X0128507Y0244153D01*
X0129120Y0245632D01*
X0129120Y0247234D01*
X0128507Y0248713D01*
X0127375Y0249845D01*
X0125896Y0250458D01*
X0124295Y0250458D01*
X0122815Y0249845D01*
X0122095Y0249125D01*
X0122095Y0253741D01*
X0122815Y0253021D01*
X0124295Y0252408D01*
X0125896Y0252408D01*
X0127375Y0253021D01*
X0128507Y0254153D01*
X0129120Y0255632D01*
X0129120Y0257234D01*
X0128507Y0258713D01*
X0127375Y0259845D01*
X0125896Y0260458D01*
X0124295Y0260458D01*
X0122815Y0259845D01*
X0122095Y0259125D01*
X0122095Y0263741D01*
X0122815Y0263021D01*
X0124295Y0262408D01*
X0125896Y0262408D01*
X0127375Y0263021D01*
X0128507Y0264153D01*
X0129120Y0265632D01*
X0129120Y0267234D01*
X0128507Y0268713D01*
X0127375Y0269845D01*
X0125896Y0270458D01*
X0124295Y0270458D01*
X0122815Y0269845D01*
X0122095Y0269125D01*
X0122095Y0270605D01*
X0124015Y0272524D01*
X0124295Y0272408D01*
X0125896Y0272408D01*
X0127375Y0273021D01*
X0128507Y0274153D01*
X0129120Y0275632D01*
X0129120Y0277234D01*
X0128507Y0278713D01*
X0127375Y0279845D01*
X0125896Y0280458D01*
X0124295Y0280458D01*
X0122815Y0279845D01*
X0121683Y0278713D01*
X0121070Y0277234D01*
X0121070Y0275632D01*
X0121186Y0275352D01*
X0118812Y0272978D01*
X0118507Y0273713D01*
X0117375Y0274845D01*
X0115896Y0275458D01*
X0114295Y0275458D01*
X0112815Y0274845D01*
X0111683Y0273713D01*
X0111070Y0272234D01*
X0111070Y0270632D01*
X0111683Y0269153D01*
X0112815Y0268021D01*
X0114295Y0267408D01*
X0115896Y0267408D01*
X0117375Y0268021D01*
X0118095Y0268741D01*
X0118095Y0264691D01*
X0117978Y0264808D01*
X0117414Y0265218D01*
X0116794Y0265534D01*
X0116131Y0265749D01*
X0115443Y0265858D01*
X0115170Y0265858D01*
X0115170Y0261508D01*
X0115020Y0261508D01*
X0115020Y0261358D01*
X0110670Y0261358D01*
X0110670Y0261085D01*
X0110779Y0260397D01*
X0110994Y0259734D01*
X0111311Y0259114D01*
X0111720Y0258550D01*
X0112212Y0258058D01*
X0112776Y0257648D01*
X0113397Y0257332D01*
X0114059Y0257117D01*
X0114747Y0257008D01*
X0115020Y0257008D01*
X0115020Y0261358D01*
X0115170Y0261358D01*
X0115170Y0257008D01*
X0115443Y0257008D01*
X0116131Y0257117D01*
X0116794Y0257332D01*
X0117414Y0257648D01*
X0117978Y0258058D01*
X0118095Y0258175D01*
X0118095Y0254125D01*
X0117375Y0254845D01*
X0115896Y0255458D01*
X0114295Y0255458D01*
X0112815Y0254845D01*
X0111683Y0253713D01*
X0111070Y0252234D01*
X0111070Y0250632D01*
X0111683Y0249153D01*
X0112815Y0248021D01*
X0114295Y0247408D01*
X0115896Y0247408D01*
X0117375Y0248021D01*
X0118095Y0248741D01*
X0118095Y0233511D01*
X0114697Y0230113D01*
X0114427Y0230382D01*
X0104510Y0230382D01*
X0104456Y0230513D01*
X0103398Y0231571D01*
X0102015Y0232144D01*
X0100518Y0232144D01*
X0099135Y0231571D01*
X0098077Y0230513D01*
X0097504Y0229130D01*
X0097504Y0227634D01*
X0098077Y0226251D01*
X0099135Y0225192D01*
X0100518Y0224620D01*
X0102015Y0224620D01*
X0103398Y0225192D01*
X0104456Y0226251D01*
X0104510Y0226382D01*
X0112771Y0226382D01*
X0121654Y0217498D01*
X0121433Y0217498D01*
X0121414Y0217490D01*
X0116721Y0222183D01*
X0099674Y0222183D01*
X0094904Y0226953D01*
X0095186Y0227634D01*
X0095186Y0228693D01*
X0097009Y0230053D01*
X0097174Y0230053D01*
X0097657Y0230537D01*
X0098205Y0230945D01*
X0098229Y0231108D01*
X0098345Y0231225D01*
X0098345Y0231908D01*
X0098444Y0232585D01*
X0098345Y0232717D01*
X0098345Y0233660D01*
X0099135Y0232870D01*
X0100518Y0232297D01*
X0102015Y0232297D01*
X0103398Y0232870D01*
X0104456Y0233928D01*
X0105029Y0235311D01*
X0105029Y0236807D01*
X0104456Y0238190D01*
X0103398Y0239248D01*
X0102015Y0239821D01*
X0100518Y0239821D01*
X0099135Y0239248D01*
X0098345Y0238458D01*
X0098345Y0241534D01*
X0099135Y0240744D01*
X0100518Y0240171D01*
X0102015Y0240171D01*
X0103398Y0240744D01*
X0104456Y0241802D01*
X0105029Y0243185D01*
X0105029Y0244681D01*
X0104456Y0246064D01*
X0103398Y0247123D01*
X0102015Y0247695D01*
X0100518Y0247695D01*
X0099135Y0247123D01*
X0098345Y0246332D01*
X0098345Y0249408D01*
X0099135Y0248618D01*
X0100518Y0248045D01*
X0102015Y0248045D01*
X0103398Y0248618D01*
X0104456Y0249676D01*
X0105029Y0251059D01*
X0105029Y0252555D01*
X0104456Y0253938D01*
X0103398Y0254997D01*
X0102015Y0255569D01*
X0100518Y0255569D01*
X0099135Y0254997D01*
X0098345Y0254206D01*
X0098345Y0257085D01*
X0099135Y0256295D01*
X0100518Y0255722D01*
X0102015Y0255722D01*
X0103398Y0256295D01*
X0104456Y0257353D01*
X0105029Y0258736D01*
X0105029Y0260233D01*
X0104456Y0261615D01*
X0103398Y0262674D01*
X0102015Y0263246D01*
X0100518Y0263246D01*
X0099135Y0262674D01*
X0098345Y0261884D01*
X0098345Y0265605D01*
X0111788Y0279048D01*
X0112815Y0278021D01*
X0114295Y0277408D01*
X0115896Y0277408D01*
X0117375Y0278021D01*
X0118507Y0279153D01*
X0119120Y0280632D01*
X0119120Y0282234D01*
X0118507Y0283713D01*
X0117375Y0284845D01*
X0115896Y0285458D01*
X0114295Y0285458D01*
X0112815Y0284845D01*
X0111683Y0283713D01*
X0111567Y0283433D01*
X0110517Y0283433D01*
X0109345Y0282261D01*
X0094345Y0267261D01*
X0094345Y0261884D01*
X0093555Y0262674D01*
X0092172Y0263246D01*
X0090676Y0263246D01*
X0089293Y0262674D01*
X0088234Y0261615D01*
X0087662Y0260233D01*
X0087662Y0258736D01*
X0088234Y0257353D01*
X0089293Y0256295D01*
X0090676Y0255722D01*
X0092172Y0255722D01*
X0093555Y0256295D01*
X0094345Y0257085D01*
X0094345Y0253025D01*
X0093555Y0253815D01*
X0092172Y0254388D01*
X0090676Y0254388D01*
X0089293Y0253815D01*
X0088234Y0252757D01*
X0087662Y0251374D01*
X0087662Y0249878D01*
X0088234Y0248495D01*
X0089293Y0247437D01*
X0090676Y0246864D01*
X0090778Y0246864D01*
X0090449Y0246812D01*
X0089826Y0246609D01*
X0089242Y0246312D01*
X0088712Y0245927D01*
X0088249Y0245463D01*
X0087864Y0244933D01*
X0087567Y0244350D01*
X0087364Y0243727D01*
X0087262Y0243080D01*
X0087262Y0242752D01*
X0091424Y0242752D01*
X0091424Y0242752D01*
X0087262Y0242752D01*
X0087262Y0242424D01*
X0087364Y0241777D01*
X0087567Y0241154D01*
X0087864Y0240570D01*
X0088249Y0240040D01*
X0088712Y0239577D01*
X0089242Y0239192D01*
X0089826Y0238895D01*
X0090449Y0238692D01*
X0090778Y0238640D01*
X0090676Y0238640D01*
X0089293Y0238067D01*
X0088234Y0237009D01*
X0087662Y0235626D01*
X0087662Y0234130D01*
X0088234Y0232747D01*
X0089293Y0231689D01*
X0089434Y0231630D01*
X0089293Y0231571D01*
X0088234Y0230513D01*
X0087662Y0229130D01*
X0087662Y0227634D01*
X0088234Y0226251D01*
X0089293Y0225192D01*
X0090676Y0224620D01*
X0091580Y0224620D01*
X0096845Y0219355D01*
X0096845Y0219355D01*
X0098017Y0218183D01*
X0115064Y0218183D01*
X0115414Y0217833D01*
X0101819Y0217833D01*
X0100386Y0217239D01*
X0099289Y0216142D01*
X0093039Y0209892D01*
X0092445Y0208459D01*
X0092445Y0207828D01*
X0091847Y0208426D01*
X0089899Y0209233D01*
X0084945Y0209233D01*
X0084985Y0209264D01*
X0085739Y0210017D01*
X0086388Y0210863D01*
X0086921Y0211786D01*
X0087329Y0212771D01*
X0087604Y0213800D01*
X0087708Y0214590D01*
X0080413Y0214590D01*
X0080413Y0216190D01*
X0078813Y0216190D01*
X0078813Y0223485D01*
X0078023Y0223381D01*
X0076994Y0223105D01*
X0076009Y0222698D01*
X0075086Y0222165D01*
X0074240Y0221516D01*
X0073487Y0220762D01*
X0072838Y0219917D01*
X0072305Y0218994D01*
X0071897Y0218009D01*
X0071621Y0216979D01*
X0071517Y0216190D01*
X0078813Y0216190D01*
X0078813Y0214590D01*
X0071517Y0214590D01*
X0071621Y0213800D01*
X0071897Y0212771D01*
X0072305Y0211786D01*
X0072838Y0210863D01*
X0073487Y0210017D01*
X0074201Y0209303D01*
X0074164Y0209306D01*
X0074164Y0209306D01*
X0072394Y0209882D01*
X0070888Y0210976D01*
X0069794Y0212482D01*
X0069218Y0214252D01*
X0069145Y0215183D01*
X0069145Y0239166D01*
X0069196Y0239077D01*
X0069892Y0238170D01*
X0070701Y0237362D01*
X0071608Y0236666D01*
X0072598Y0236094D01*
X0073654Y0235657D01*
X0074758Y0235361D01*
X0075663Y0235242D01*
X0075663Y0243133D01*
X0077263Y0243133D01*
X0077263Y0235242D01*
X0078168Y0235361D01*
X0079273Y0235657D01*
X0080329Y0236094D01*
X0081319Y0236666D01*
X0082226Y0237362D01*
X0083034Y0238170D01*
X0083730Y0239077D01*
X0084302Y0240067D01*
X0084739Y0241124D01*
X0085035Y0242228D01*
X0085154Y0243133D01*
X0077263Y0243133D01*
X0077263Y0244733D01*
X0075663Y0244733D01*
X0075663Y0252624D01*
X0074758Y0252505D01*
X0073654Y0252209D01*
X0072598Y0251772D01*
X0071608Y0251200D01*
X0070701Y0250504D01*
X0069892Y0249696D01*
X0069196Y0248789D01*
X0069145Y0248700D01*
X0069145Y0283265D01*
X0071191Y0281219D01*
X0074535Y0279834D01*
X0076129Y0279834D01*
X0076009Y0279784D01*
X0075086Y0279251D01*
X0074240Y0278602D01*
X0073487Y0277849D01*
X0072838Y0277003D01*
X0072305Y0276080D01*
X0071897Y0275096D01*
X0071621Y0274066D01*
X0071517Y0273276D01*
X0078813Y0273276D01*
X0078813Y0271676D01*
X0080413Y0271676D01*
X0080413Y0264381D01*
X0081202Y0264485D01*
X0082232Y0264761D01*
X0083217Y0265169D01*
X0084140Y0265701D01*
X0084985Y0266350D01*
X0085739Y0267104D01*
X0086388Y0267949D01*
X0086921Y0268873D01*
X0087329Y0269857D01*
X0087604Y0270887D01*
X0087708Y0271676D01*
X0080413Y0271676D01*
X0080413Y0273276D01*
X0087708Y0273276D01*
X0087604Y0274066D01*
X0087329Y0275096D01*
X0086921Y0276080D01*
X0086388Y0277003D01*
X0085739Y0277849D01*
X0084985Y0278602D01*
X0084140Y0279251D01*
X0083217Y0279784D01*
X0082232Y0280192D01*
X0081202Y0280468D01*
X0080413Y0280572D01*
X0080413Y0273276D01*
X0078813Y0273276D01*
X0078813Y0280106D01*
X0081499Y0281219D01*
X0084059Y0283779D01*
X0085444Y0287123D01*
X0085444Y0290743D01*
X0084059Y0294087D01*
X0082013Y0296133D01*
X0150095Y0296133D01*
X0151221Y0296044D01*
X0153364Y0295348D01*
X0154360Y0294624D01*
X0151925Y0295633D01*
X0148265Y0295633D01*
X0144884Y0294232D01*
X0142296Y0291644D01*
X0140895Y0288263D01*
X0140895Y0284603D01*
X0142296Y0281222D01*
X0144884Y0278634D01*
X0148265Y0277233D01*
X0151925Y0277233D01*
X0155307Y0278634D01*
X0157295Y0280622D01*
X0157295Y0247244D01*
X0155307Y0249232D01*
X0151925Y0250633D01*
X0148265Y0250633D01*
X0144884Y0249232D01*
X0142296Y0246644D01*
X0140895Y0243263D01*
X0140895Y0239603D01*
X0142296Y0236222D01*
X0144884Y0233634D01*
X0148265Y0232233D01*
X0151925Y0232233D01*
X0155307Y0233634D01*
X0157295Y0235622D01*
X0157295Y0222101D01*
X0155249Y0224147D01*
X0151905Y0225532D01*
X0148285Y0225532D01*
X0144941Y0224147D01*
X0142381Y0221587D01*
X0140996Y0218243D01*
X0140996Y0214623D01*
X0142381Y0211279D01*
X0144427Y0209233D01*
X0136541Y0209233D01*
X0134593Y0208426D01*
X0134593Y0208426D01*
X0133345Y0207178D01*
X0133345Y0208747D02*
X0135367Y0208747D01*
X0135110Y0210120D02*
X0135832Y0210419D01*
X0136481Y0210853D01*
X0137033Y0211405D01*
X0137467Y0212055D01*
X0137766Y0212776D01*
X0137919Y0213543D01*
X0141444Y0213543D01*
X0140996Y0215141D02*
X0137745Y0215141D01*
X0137766Y0215090D02*
X0137467Y0215811D01*
X0137033Y0216461D01*
X0136481Y0217013D01*
X0135832Y0217447D01*
X0135110Y0217746D01*
X0134344Y0217898D01*
X0133953Y0217898D01*
X0133953Y0213933D01*
X0133953Y0213933D01*
X0133953Y0209968D01*
X0134344Y0209968D01*
X0135110Y0210120D01*
X0135654Y0210345D02*
X0143314Y0210345D01*
X0142106Y0211944D02*
X0137393Y0211944D01*
X0137919Y0213543D02*
X0137919Y0213933D01*
X0133954Y0213933D01*
X0133954Y0213933D01*
X0137919Y0213933D01*
X0137919Y0214324D01*
X0137766Y0215090D01*
X0136755Y0216740D02*
X0140996Y0216740D01*
X0141035Y0218338D02*
X0126471Y0218338D01*
X0127893Y0219937D02*
X0134797Y0219937D01*
X0135530Y0219633D02*
X0137161Y0219633D01*
X0138668Y0220257D01*
X0139821Y0221411D01*
X0140445Y0222918D01*
X0140445Y0229949D01*
X0139821Y0231456D01*
X0138668Y0232609D01*
X0137161Y0233233D01*
X0135530Y0233233D01*
X0134023Y0232609D01*
X0132869Y0231456D01*
X0132245Y0229949D01*
X0132245Y0222918D01*
X0132869Y0221411D01*
X0134023Y0220257D01*
X0135530Y0219633D01*
X0137893Y0219937D02*
X0141697Y0219937D01*
X0142360Y0221535D02*
X0139872Y0221535D01*
X0140445Y0223134D02*
X0143927Y0223134D01*
X0146353Y0224732D02*
X0140445Y0224732D01*
X0140445Y0226331D02*
X0157295Y0226331D01*
X0157295Y0227929D02*
X0140445Y0227929D01*
X0140445Y0229528D02*
X0157295Y0229528D01*
X0157295Y0231126D02*
X0139957Y0231126D01*
X0138388Y0232725D02*
X0147078Y0232725D01*
X0144194Y0234323D02*
X0122095Y0234323D01*
X0122095Y0232725D02*
X0124302Y0232725D01*
X0122733Y0231126D02*
X0121367Y0231126D01*
X0122245Y0229528D02*
X0119768Y0229528D01*
X0118170Y0227929D02*
X0122245Y0227929D01*
X0122245Y0226331D02*
X0118479Y0226331D01*
X0120077Y0224732D02*
X0122245Y0224732D01*
X0122245Y0223134D02*
X0121676Y0223134D01*
X0119216Y0219937D02*
X0118967Y0219937D01*
X0117617Y0221535D02*
X0117369Y0221535D01*
X0116019Y0223134D02*
X0098723Y0223134D01*
X0100247Y0224732D02*
X0097125Y0224732D01*
X0098044Y0226331D02*
X0095526Y0226331D01*
X0095186Y0227929D02*
X0097504Y0227929D01*
X0097669Y0229528D02*
X0096304Y0229528D01*
X0098247Y0231126D02*
X0098690Y0231126D01*
X0098345Y0232725D02*
X0099485Y0232725D01*
X0103048Y0232725D02*
X0117308Y0232725D01*
X0118095Y0234323D02*
X0104620Y0234323D01*
X0105029Y0235922D02*
X0118095Y0235922D01*
X0118095Y0237520D02*
X0104733Y0237520D01*
X0103527Y0239119D02*
X0118095Y0239119D01*
X0118095Y0240717D02*
X0103334Y0240717D01*
X0104669Y0242316D02*
X0118095Y0242316D01*
X0118095Y0243914D02*
X0105029Y0243914D01*
X0104684Y0245513D02*
X0118095Y0245513D01*
X0118095Y0247111D02*
X0103409Y0247111D01*
X0103490Y0248710D02*
X0112126Y0248710D01*
X0111204Y0250308D02*
X0104718Y0250308D01*
X0105029Y0251907D02*
X0111070Y0251907D01*
X0111597Y0253505D02*
X0104635Y0253505D01*
X0103138Y0255104D02*
X0113439Y0255104D01*
X0111969Y0258301D02*
X0104848Y0258301D01*
X0105029Y0259899D02*
X0110941Y0259899D01*
X0110670Y0261508D02*
X0115020Y0261508D01*
X0115020Y0265858D01*
X0114747Y0265858D01*
X0114059Y0265749D01*
X0113397Y0265534D01*
X0112776Y0265218D01*
X0112212Y0264808D01*
X0111720Y0264316D01*
X0111311Y0263752D01*
X0110994Y0263132D01*
X0110779Y0262469D01*
X0110670Y0261781D01*
X0110670Y0261508D01*
X0110983Y0263096D02*
X0102377Y0263096D01*
X0100156Y0263096D02*
X0098345Y0263096D01*
X0098345Y0264695D02*
X0112099Y0264695D01*
X0115020Y0264695D02*
X0115170Y0264695D01*
X0115170Y0263096D02*
X0115020Y0263096D01*
X0115020Y0261498D02*
X0104505Y0261498D01*
X0103805Y0256702D02*
X0118095Y0256702D01*
X0118095Y0255104D02*
X0116751Y0255104D01*
X0115170Y0258301D02*
X0115020Y0258301D01*
X0115020Y0259899D02*
X0115170Y0259899D01*
X0118091Y0264695D02*
X0118095Y0264695D01*
X0118095Y0266293D02*
X0099034Y0266293D01*
X0100632Y0267892D02*
X0113126Y0267892D01*
X0111543Y0269490D02*
X0102231Y0269490D01*
X0103829Y0271089D02*
X0111070Y0271089D01*
X0111258Y0272687D02*
X0105428Y0272687D01*
X0107026Y0274286D02*
X0112256Y0274286D01*
X0114114Y0277483D02*
X0110223Y0277483D01*
X0108625Y0275884D02*
X0121070Y0275884D01*
X0121173Y0277483D02*
X0116077Y0277483D01*
X0118436Y0279081D02*
X0122051Y0279081D01*
X0119120Y0280680D02*
X0142837Y0280680D01*
X0141858Y0282279D02*
X0119102Y0282279D01*
X0118343Y0283877D02*
X0141196Y0283877D01*
X0140895Y0285476D02*
X0084762Y0285476D01*
X0085424Y0287074D02*
X0140895Y0287074D01*
X0141065Y0288673D02*
X0085444Y0288673D01*
X0085444Y0290271D02*
X0141727Y0290271D01*
X0142521Y0291870D02*
X0084978Y0291870D01*
X0084316Y0293468D02*
X0144119Y0293468D01*
X0146898Y0295067D02*
X0083080Y0295067D01*
X0084100Y0283877D02*
X0111847Y0283877D01*
X0109362Y0282279D02*
X0082559Y0282279D01*
X0080198Y0280680D02*
X0107764Y0280680D01*
X0106165Y0279081D02*
X0084361Y0279081D01*
X0086020Y0277483D02*
X0104567Y0277483D01*
X0102968Y0275884D02*
X0087002Y0275884D01*
X0087545Y0274286D02*
X0101370Y0274286D01*
X0099771Y0272687D02*
X0080413Y0272687D01*
X0080413Y0271089D02*
X0078813Y0271089D01*
X0078813Y0271676D02*
X0078813Y0264381D01*
X0078023Y0264485D01*
X0076994Y0264761D01*
X0076009Y0265169D01*
X0075086Y0265701D01*
X0074240Y0266350D01*
X0073487Y0267104D01*
X0072838Y0267949D01*
X0072305Y0268873D01*
X0071897Y0269857D01*
X0071621Y0270887D01*
X0071517Y0271676D01*
X0078813Y0271676D01*
X0078813Y0272687D02*
X0069145Y0272687D01*
X0069145Y0271089D02*
X0071595Y0271089D01*
X0072049Y0269490D02*
X0069145Y0269490D01*
X0069145Y0267892D02*
X0072882Y0267892D01*
X0074315Y0266293D02*
X0069145Y0266293D01*
X0069145Y0264695D02*
X0077239Y0264695D01*
X0078813Y0264695D02*
X0080413Y0264695D01*
X0081987Y0264695D02*
X0094345Y0264695D01*
X0094345Y0266293D02*
X0084911Y0266293D01*
X0086344Y0267892D02*
X0094976Y0267892D01*
X0096574Y0269490D02*
X0087177Y0269490D01*
X0087631Y0271089D02*
X0098173Y0271089D01*
X0094345Y0263096D02*
X0092535Y0263096D01*
X0090313Y0263096D02*
X0069145Y0263096D01*
X0069145Y0261498D02*
X0088186Y0261498D01*
X0087662Y0259899D02*
X0069145Y0259899D01*
X0069145Y0258301D02*
X0087842Y0258301D01*
X0088885Y0256702D02*
X0069145Y0256702D01*
X0069145Y0255104D02*
X0094345Y0255104D01*
X0094345Y0256702D02*
X0093962Y0256702D01*
X0093865Y0253505D02*
X0094345Y0253505D01*
X0098345Y0255104D02*
X0099394Y0255104D01*
X0098728Y0256702D02*
X0098345Y0256702D01*
X0098345Y0248710D02*
X0099043Y0248710D01*
X0099124Y0247111D02*
X0098345Y0247111D01*
X0098345Y0240717D02*
X0099199Y0240717D01*
X0099005Y0239119D02*
X0098345Y0239119D01*
X0103843Y0231126D02*
X0115710Y0231126D01*
X0112822Y0226331D02*
X0104489Y0226331D01*
X0102286Y0224732D02*
X0114420Y0224732D01*
X0120566Y0218338D02*
X0120814Y0218338D01*
X0129872Y0221535D02*
X0132818Y0221535D01*
X0132245Y0223134D02*
X0130445Y0223134D01*
X0130445Y0224732D02*
X0132245Y0224732D01*
X0132245Y0226331D02*
X0130445Y0226331D01*
X0130445Y0227929D02*
X0132245Y0227929D01*
X0132245Y0229528D02*
X0130445Y0229528D01*
X0129957Y0231126D02*
X0132733Y0231126D01*
X0134302Y0232725D02*
X0128388Y0232725D01*
X0122095Y0235922D02*
X0142596Y0235922D01*
X0141758Y0237520D02*
X0122095Y0237520D01*
X0122095Y0239119D02*
X0141096Y0239119D01*
X0140895Y0240717D02*
X0122095Y0240717D01*
X0122095Y0242316D02*
X0140895Y0242316D01*
X0141165Y0243914D02*
X0128269Y0243914D01*
X0129071Y0245513D02*
X0141827Y0245513D01*
X0142763Y0247111D02*
X0129120Y0247111D01*
X0128509Y0248710D02*
X0144361Y0248710D01*
X0147481Y0250308D02*
X0126257Y0250308D01*
X0123933Y0250308D02*
X0122095Y0250308D01*
X0122095Y0251907D02*
X0157295Y0251907D01*
X0157295Y0253505D02*
X0127860Y0253505D01*
X0128901Y0255104D02*
X0157295Y0255104D01*
X0157295Y0256702D02*
X0129120Y0256702D01*
X0128678Y0258301D02*
X0157295Y0258301D01*
X0157295Y0259899D02*
X0127245Y0259899D01*
X0127451Y0263096D02*
X0157295Y0263096D01*
X0157295Y0261498D02*
X0122095Y0261498D01*
X0122095Y0263096D02*
X0122740Y0263096D01*
X0122946Y0259899D02*
X0122095Y0259899D01*
X0122095Y0253505D02*
X0122331Y0253505D01*
X0118095Y0248710D02*
X0118064Y0248710D01*
X0128732Y0264695D02*
X0157295Y0264695D01*
X0157295Y0266293D02*
X0129120Y0266293D01*
X0128847Y0267892D02*
X0157295Y0267892D01*
X0157295Y0269490D02*
X0127730Y0269490D01*
X0126570Y0272687D02*
X0157295Y0272687D01*
X0157295Y0271089D02*
X0122579Y0271089D01*
X0122460Y0269490D02*
X0122095Y0269490D01*
X0120120Y0274286D02*
X0117934Y0274286D01*
X0118095Y0267892D02*
X0117064Y0267892D01*
X0128562Y0274286D02*
X0157295Y0274286D01*
X0157295Y0275884D02*
X0129120Y0275884D01*
X0129017Y0277483D02*
X0147662Y0277483D01*
X0144436Y0279081D02*
X0128139Y0279081D01*
X0152528Y0277483D02*
X0157295Y0277483D01*
X0157295Y0279081D02*
X0155754Y0279081D01*
X0153752Y0295067D02*
X0153293Y0295067D01*
X0152709Y0250308D02*
X0157295Y0250308D01*
X0157295Y0248710D02*
X0155829Y0248710D01*
X0155996Y0234323D02*
X0157295Y0234323D01*
X0157295Y0232725D02*
X0153112Y0232725D01*
X0153837Y0224732D02*
X0157295Y0224732D01*
X0157295Y0223134D02*
X0156263Y0223134D01*
X0133953Y0216740D02*
X0133953Y0216740D01*
X0133953Y0215141D02*
X0133953Y0215141D01*
X0133953Y0213543D02*
X0133953Y0213543D01*
X0133953Y0211944D02*
X0133953Y0211944D01*
X0133953Y0210345D02*
X0133953Y0210345D01*
X0131152Y0216740D02*
X0130284Y0216740D01*
X0099886Y0216740D02*
X0087636Y0216740D01*
X0087604Y0216979D02*
X0087708Y0216190D01*
X0080413Y0216190D01*
X0080413Y0223485D01*
X0081202Y0223381D01*
X0082232Y0223105D01*
X0083217Y0222698D01*
X0084140Y0222165D01*
X0084985Y0221516D01*
X0085739Y0220762D01*
X0086388Y0219917D01*
X0086921Y0218994D01*
X0087329Y0218009D01*
X0087604Y0216979D01*
X0087192Y0218338D02*
X0097862Y0218338D01*
X0096263Y0219937D02*
X0086373Y0219937D01*
X0084960Y0221535D02*
X0094665Y0221535D01*
X0093066Y0223134D02*
X0082127Y0223134D01*
X0080413Y0223134D02*
X0078813Y0223134D01*
X0078813Y0221535D02*
X0080413Y0221535D01*
X0080413Y0219937D02*
X0078813Y0219937D01*
X0078813Y0218338D02*
X0080413Y0218338D01*
X0080413Y0216740D02*
X0078813Y0216740D01*
X0078813Y0215141D02*
X0069148Y0215141D01*
X0069145Y0216740D02*
X0071590Y0216740D01*
X0072033Y0218338D02*
X0069145Y0218338D01*
X0069145Y0219937D02*
X0072853Y0219937D01*
X0074265Y0221535D02*
X0069145Y0221535D01*
X0069145Y0223134D02*
X0077099Y0223134D01*
X0080413Y0215141D02*
X0098288Y0215141D01*
X0096689Y0213543D02*
X0087535Y0213543D01*
X0086986Y0211944D02*
X0095091Y0211944D01*
X0093492Y0210345D02*
X0085991Y0210345D01*
X0091073Y0208747D02*
X0092565Y0208747D01*
X0091847Y0208426D02*
X0091847Y0208426D01*
X0090404Y0224732D02*
X0069145Y0224732D01*
X0069145Y0226331D02*
X0088201Y0226331D01*
X0087662Y0227929D02*
X0069145Y0227929D01*
X0069145Y0229528D02*
X0087826Y0229528D01*
X0088848Y0231126D02*
X0069145Y0231126D01*
X0069145Y0232725D02*
X0088257Y0232725D01*
X0087662Y0234323D02*
X0069145Y0234323D01*
X0069145Y0235922D02*
X0073015Y0235922D01*
X0075663Y0235922D02*
X0077263Y0235922D01*
X0077263Y0237520D02*
X0075663Y0237520D01*
X0075663Y0239119D02*
X0077263Y0239119D01*
X0077263Y0240717D02*
X0075663Y0240717D01*
X0075663Y0242316D02*
X0077263Y0242316D01*
X0077263Y0243914D02*
X0087425Y0243914D01*
X0087279Y0242316D02*
X0085047Y0242316D01*
X0084571Y0240717D02*
X0087789Y0240717D01*
X0089387Y0239119D02*
X0083754Y0239119D01*
X0082384Y0237520D02*
X0088746Y0237520D01*
X0087784Y0235922D02*
X0079912Y0235922D01*
X0077263Y0244733D02*
X0085154Y0244733D01*
X0085035Y0245638D01*
X0084739Y0246742D01*
X0084302Y0247799D01*
X0083730Y0248789D01*
X0083034Y0249696D01*
X0082226Y0250504D01*
X0081319Y0251200D01*
X0080329Y0251772D01*
X0079273Y0252209D01*
X0078168Y0252505D01*
X0077263Y0252624D01*
X0077263Y0244733D01*
X0077263Y0245513D02*
X0075663Y0245513D01*
X0075663Y0247111D02*
X0077263Y0247111D01*
X0077263Y0248710D02*
X0075663Y0248710D01*
X0075663Y0250308D02*
X0077263Y0250308D01*
X0077263Y0251907D02*
X0075663Y0251907D01*
X0072924Y0251907D02*
X0069145Y0251907D01*
X0069145Y0253505D02*
X0088983Y0253505D01*
X0087882Y0251907D02*
X0080003Y0251907D01*
X0082422Y0250308D02*
X0087662Y0250308D01*
X0088145Y0248710D02*
X0083776Y0248710D01*
X0084587Y0247111D02*
X0090078Y0247111D01*
X0088298Y0245513D02*
X0085052Y0245513D01*
X0070505Y0250308D02*
X0069145Y0250308D01*
X0069145Y0248710D02*
X0069151Y0248710D01*
X0069145Y0239119D02*
X0069172Y0239119D01*
X0069145Y0237520D02*
X0070542Y0237520D01*
X0069449Y0213543D02*
X0071690Y0213543D01*
X0072240Y0211944D02*
X0070184Y0211944D01*
X0071755Y0210345D02*
X0073235Y0210345D01*
X0078813Y0266293D02*
X0080413Y0266293D01*
X0080413Y0267892D02*
X0078813Y0267892D01*
X0078813Y0269490D02*
X0080413Y0269490D01*
X0080413Y0274286D02*
X0078813Y0274286D01*
X0078813Y0275884D02*
X0080413Y0275884D01*
X0080413Y0277483D02*
X0078813Y0277483D01*
X0078813Y0279081D02*
X0080413Y0279081D01*
X0074865Y0279081D02*
X0069145Y0279081D01*
X0069145Y0277483D02*
X0073206Y0277483D01*
X0072224Y0275884D02*
X0069145Y0275884D01*
X0069145Y0274286D02*
X0071680Y0274286D01*
X0072492Y0280680D02*
X0069145Y0280680D01*
X0069145Y0282279D02*
X0070131Y0282279D01*
D28*
X0126345Y0153943D02*
X0128505Y0151783D01*
X0151670Y0151783D01*
D29*
X0151345Y0172230D02*
X0147595Y0175980D01*
X0147595Y0190183D01*
X0142595Y0195183D01*
X0133845Y0195183D01*
X0128845Y0200183D01*
X0128845Y0207230D01*
X0122142Y0213933D01*
X0115892Y0220183D01*
X0098845Y0220183D01*
X0091424Y0227604D01*
X0091424Y0228382D01*
X0096345Y0232053D01*
X0096345Y0266433D01*
X0111345Y0281433D01*
X0115095Y0281433D01*
X0120095Y0271433D02*
X0125095Y0276433D01*
X0120095Y0271433D02*
X0120095Y0232683D01*
X0114697Y0227284D01*
X0128048Y0213933D01*
X0131345Y0210636D01*
X0131345Y0201433D01*
X0135095Y0197683D01*
X0143845Y0197683D01*
X0155720Y0185808D01*
X0155720Y0182511D01*
X0151345Y0178136D01*
X0126345Y0153943D02*
X0126335Y0153933D01*
X0142595Y0126443D02*
X0142595Y0120183D01*
X0155095Y0120183D01*
X0156970Y0118308D01*
X0156970Y0105808D01*
X0155095Y0103933D01*
X0152595Y0107683D02*
X0151345Y0106433D01*
X0141345Y0106433D01*
X0140095Y0107683D01*
X0140095Y0116433D01*
X0135345Y0121183D01*
X0130095Y0121183D01*
X0125095Y0115183D02*
X0128295Y0111983D01*
X0137595Y0111983D01*
X0142595Y0111983D02*
X0142595Y0120183D01*
X0152595Y0111983D02*
X0152595Y0107683D01*
X0145720Y0103308D02*
X0142595Y0100183D01*
X0142595Y0093383D01*
X0142595Y0091433D01*
X0146970Y0087058D01*
X0146345Y0083933D02*
X0143845Y0083933D01*
X0141970Y0085808D01*
X0141970Y0087058D01*
X0140720Y0087058D01*
X0137595Y0090183D01*
X0137595Y0093383D01*
X0135095Y0096433D02*
X0135095Y0088933D01*
X0142595Y0081433D01*
X0142595Y0078923D01*
X0146970Y0083308D02*
X0146970Y0073308D01*
X0148835Y0071443D01*
X0153845Y0071443D01*
X0146970Y0073308D02*
X0145105Y0071443D01*
X0142595Y0071443D01*
X0143865Y0071443D01*
X0146970Y0083308D02*
X0146345Y0083933D01*
X0147595Y0093383D02*
X0147595Y0099558D01*
X0135095Y0096433D02*
X0130720Y0100808D01*
X0127595Y0100808D01*
X0125095Y0098308D01*
X0125095Y0084183D01*
X0120095Y0084183D02*
X0120095Y0081433D01*
X0116345Y0077683D01*
X0086345Y0077683D01*
X0081335Y0077683D01*
X0082595Y0077683D01*
X0086345Y0077683D02*
X0086345Y0090183D01*
X0088845Y0092683D01*
X0095095Y0092683D02*
X0100095Y0087683D01*
X0100095Y0084183D01*
X0105095Y0084183D02*
X0105095Y0098933D01*
X0110095Y0093933D02*
X0110095Y0084183D01*
X0115095Y0084183D02*
X0115095Y0098933D01*
X0125095Y0115183D02*
X0125095Y0121183D01*
X0130095Y0106433D02*
X0132595Y0103933D01*
X0130095Y0091433D02*
X0130095Y0084183D01*
X0100095Y0113933D02*
X0082595Y0096433D01*
X0082595Y0094297D01*
X0082320Y0094022D01*
X0082320Y0087417D01*
X0081335Y0086433D01*
X0075095Y0105183D02*
X0072595Y0107683D01*
X0072595Y0111069D01*
X0072871Y0111344D01*
X0073855Y0112329D01*
X0073855Y0118933D01*
X0075095Y0105183D02*
X0087595Y0105183D01*
X0095095Y0112683D01*
X0095095Y0121183D01*
X0100095Y0121183D02*
X0100095Y0113933D01*
X0114697Y0227284D02*
X0113599Y0228382D01*
X0101266Y0228382D01*
D30*
X0115764Y0132545D02*
X0139957Y0132545D01*
X0140995Y0133583D01*
X0141345Y0133583D01*
X0141355Y0133573D01*
X0141355Y0125808D01*
X0141345Y0133583D02*
X0151670Y0133583D01*
D31*
X0151345Y0166325D02*
X0146453Y0166325D01*
X0145095Y0167683D01*
X0084564Y0167683D01*
X0074426Y0177821D01*
X0074426Y0190764D01*
X0078983Y0195321D01*
X0092733Y0195321D01*
X0096345Y0198933D01*
X0096345Y0207683D01*
X0102595Y0213933D01*
X0116237Y0213933D01*
D32*
X0115095Y0098933D03*
X0110095Y0093933D03*
X0105095Y0098933D03*
X0095095Y0092683D03*
X0088845Y0092683D03*
M02*
