G75*
%MOIN*%
%OFA0B0*%
%FSLAX25Y25*%
%IPPOS*%
%LPD*%
%AMOC8*
5,1,8,0,0,1.08239X$1,22.5*
%
%ADD10C,0.00000*%
%ADD11C,0.12598*%
%ADD12R,0.07874X0.04724*%
%ADD13R,0.04724X0.07874*%
%ADD14R,0.05906X0.05118*%
%ADD15R,0.04600X0.06300*%
%ADD16R,0.00600X0.07200*%
%ADD17C,0.04331*%
%ADD18C,0.05250*%
%ADD19C,0.12800*%
%ADD20C,0.04724*%
%ADD21C,0.13843*%
%ADD22C,0.12661*%
%ADD23C,0.05400*%
%ADD24C,0.04800*%
D10*
X0066345Y0060183D02*
X0066345Y0191433D01*
X0075095Y0206433D02*
X0088845Y0206433D01*
X0088943Y0206431D01*
X0089041Y0206425D01*
X0089139Y0206416D01*
X0089236Y0206402D01*
X0089333Y0206385D01*
X0089429Y0206364D01*
X0089524Y0206339D01*
X0089618Y0206311D01*
X0089710Y0206278D01*
X0089802Y0206243D01*
X0089892Y0206203D01*
X0089980Y0206161D01*
X0090067Y0206114D01*
X0090151Y0206065D01*
X0090234Y0206012D01*
X0090314Y0205956D01*
X0090393Y0205896D01*
X0090469Y0205834D01*
X0090542Y0205769D01*
X0090613Y0205701D01*
X0090681Y0205630D01*
X0090746Y0205557D01*
X0090808Y0205481D01*
X0090868Y0205402D01*
X0090924Y0205322D01*
X0090977Y0205239D01*
X0091026Y0205155D01*
X0091073Y0205068D01*
X0091115Y0204980D01*
X0091155Y0204890D01*
X0091190Y0204798D01*
X0091223Y0204706D01*
X0091251Y0204612D01*
X0091276Y0204517D01*
X0091297Y0204421D01*
X0091314Y0204324D01*
X0091328Y0204227D01*
X0091337Y0204129D01*
X0091343Y0204031D01*
X0091345Y0203933D01*
X0091343Y0203835D01*
X0091337Y0203737D01*
X0091328Y0203639D01*
X0091314Y0203542D01*
X0091297Y0203445D01*
X0091276Y0203349D01*
X0091251Y0203254D01*
X0091223Y0203160D01*
X0091190Y0203068D01*
X0091155Y0202976D01*
X0091115Y0202886D01*
X0091073Y0202798D01*
X0091026Y0202711D01*
X0090977Y0202627D01*
X0090924Y0202544D01*
X0090868Y0202464D01*
X0090808Y0202385D01*
X0090746Y0202309D01*
X0090681Y0202236D01*
X0090613Y0202165D01*
X0090542Y0202097D01*
X0090469Y0202032D01*
X0090393Y0201970D01*
X0090314Y0201910D01*
X0090234Y0201854D01*
X0090151Y0201801D01*
X0090067Y0201752D01*
X0089980Y0201705D01*
X0089892Y0201663D01*
X0089802Y0201623D01*
X0089710Y0201588D01*
X0089618Y0201555D01*
X0089524Y0201527D01*
X0089429Y0201502D01*
X0089333Y0201481D01*
X0089236Y0201464D01*
X0089139Y0201450D01*
X0089041Y0201441D01*
X0088943Y0201435D01*
X0088845Y0201433D01*
X0076345Y0201433D01*
X0076103Y0201430D01*
X0075862Y0201421D01*
X0075621Y0201407D01*
X0075380Y0201386D01*
X0075140Y0201360D01*
X0074900Y0201328D01*
X0074661Y0201290D01*
X0074424Y0201247D01*
X0074187Y0201197D01*
X0073952Y0201142D01*
X0073718Y0201082D01*
X0073486Y0201015D01*
X0073255Y0200944D01*
X0073026Y0200866D01*
X0072799Y0200783D01*
X0072574Y0200695D01*
X0072351Y0200601D01*
X0072131Y0200502D01*
X0071913Y0200397D01*
X0071698Y0200288D01*
X0071485Y0200173D01*
X0071275Y0200053D01*
X0071069Y0199928D01*
X0070865Y0199798D01*
X0070664Y0199663D01*
X0070467Y0199523D01*
X0070273Y0199379D01*
X0070083Y0199230D01*
X0069897Y0199076D01*
X0069714Y0198918D01*
X0069535Y0198756D01*
X0069360Y0198589D01*
X0069189Y0198418D01*
X0069022Y0198243D01*
X0068860Y0198064D01*
X0068702Y0197881D01*
X0068548Y0197695D01*
X0068399Y0197505D01*
X0068255Y0197311D01*
X0068115Y0197114D01*
X0067980Y0196913D01*
X0067850Y0196709D01*
X0067725Y0196503D01*
X0067605Y0196293D01*
X0067490Y0196080D01*
X0067381Y0195865D01*
X0067276Y0195647D01*
X0067177Y0195427D01*
X0067083Y0195204D01*
X0066995Y0194979D01*
X0066912Y0194752D01*
X0066834Y0194523D01*
X0066763Y0194292D01*
X0066696Y0194060D01*
X0066636Y0193826D01*
X0066581Y0193591D01*
X0066531Y0193354D01*
X0066488Y0193117D01*
X0066450Y0192878D01*
X0066418Y0192638D01*
X0066392Y0192398D01*
X0066371Y0192157D01*
X0066357Y0191916D01*
X0066348Y0191675D01*
X0066345Y0191433D01*
X0066345Y0215183D02*
X0066345Y0288933D01*
X0066348Y0289175D01*
X0066357Y0289416D01*
X0066371Y0289657D01*
X0066392Y0289898D01*
X0066418Y0290138D01*
X0066450Y0290378D01*
X0066488Y0290617D01*
X0066531Y0290854D01*
X0066581Y0291091D01*
X0066636Y0291326D01*
X0066696Y0291560D01*
X0066763Y0291792D01*
X0066834Y0292023D01*
X0066912Y0292252D01*
X0066995Y0292479D01*
X0067083Y0292704D01*
X0067177Y0292927D01*
X0067276Y0293147D01*
X0067381Y0293365D01*
X0067490Y0293580D01*
X0067605Y0293793D01*
X0067725Y0294003D01*
X0067850Y0294209D01*
X0067980Y0294413D01*
X0068115Y0294614D01*
X0068255Y0294811D01*
X0068399Y0295005D01*
X0068548Y0295195D01*
X0068702Y0295381D01*
X0068860Y0295564D01*
X0069022Y0295743D01*
X0069189Y0295918D01*
X0069360Y0296089D01*
X0069535Y0296256D01*
X0069714Y0296418D01*
X0069897Y0296576D01*
X0070083Y0296730D01*
X0070273Y0296879D01*
X0070467Y0297023D01*
X0070664Y0297163D01*
X0070865Y0297298D01*
X0071069Y0297428D01*
X0071275Y0297553D01*
X0071485Y0297673D01*
X0071698Y0297788D01*
X0071913Y0297897D01*
X0072131Y0298002D01*
X0072351Y0298101D01*
X0072574Y0298195D01*
X0072799Y0298283D01*
X0073026Y0298366D01*
X0073255Y0298444D01*
X0073486Y0298515D01*
X0073718Y0298582D01*
X0073952Y0298642D01*
X0074187Y0298697D01*
X0074424Y0298747D01*
X0074661Y0298790D01*
X0074900Y0298828D01*
X0075140Y0298860D01*
X0075380Y0298886D01*
X0075621Y0298907D01*
X0075862Y0298921D01*
X0076103Y0298930D01*
X0076345Y0298933D01*
X0150095Y0298933D01*
X0150337Y0298930D01*
X0150578Y0298921D01*
X0150819Y0298907D01*
X0151060Y0298886D01*
X0151300Y0298860D01*
X0151540Y0298828D01*
X0151779Y0298790D01*
X0152016Y0298747D01*
X0152253Y0298697D01*
X0152488Y0298642D01*
X0152722Y0298582D01*
X0152954Y0298515D01*
X0153185Y0298444D01*
X0153414Y0298366D01*
X0153641Y0298283D01*
X0153866Y0298195D01*
X0154089Y0298101D01*
X0154309Y0298002D01*
X0154527Y0297897D01*
X0154742Y0297788D01*
X0154955Y0297673D01*
X0155165Y0297553D01*
X0155371Y0297428D01*
X0155575Y0297298D01*
X0155776Y0297163D01*
X0155973Y0297023D01*
X0156167Y0296879D01*
X0156357Y0296730D01*
X0156543Y0296576D01*
X0156726Y0296418D01*
X0156905Y0296256D01*
X0157080Y0296089D01*
X0157251Y0295918D01*
X0157418Y0295743D01*
X0157580Y0295564D01*
X0157738Y0295381D01*
X0157892Y0295195D01*
X0158041Y0295005D01*
X0158185Y0294811D01*
X0158325Y0294614D01*
X0158460Y0294413D01*
X0158590Y0294209D01*
X0158715Y0294003D01*
X0158835Y0293793D01*
X0158950Y0293580D01*
X0159059Y0293365D01*
X0159164Y0293147D01*
X0159263Y0292927D01*
X0159357Y0292704D01*
X0159445Y0292479D01*
X0159528Y0292252D01*
X0159606Y0292023D01*
X0159677Y0291792D01*
X0159744Y0291560D01*
X0159804Y0291326D01*
X0159859Y0291091D01*
X0159909Y0290854D01*
X0159952Y0290617D01*
X0159990Y0290378D01*
X0160022Y0290138D01*
X0160048Y0289898D01*
X0160069Y0289657D01*
X0160083Y0289416D01*
X0160092Y0289175D01*
X0160095Y0288933D01*
X0160095Y0216433D01*
X0160092Y0216191D01*
X0160083Y0215950D01*
X0160069Y0215709D01*
X0160048Y0215468D01*
X0160022Y0215228D01*
X0159990Y0214988D01*
X0159952Y0214749D01*
X0159909Y0214512D01*
X0159859Y0214275D01*
X0159804Y0214040D01*
X0159744Y0213806D01*
X0159677Y0213574D01*
X0159606Y0213343D01*
X0159528Y0213114D01*
X0159445Y0212887D01*
X0159357Y0212662D01*
X0159263Y0212439D01*
X0159164Y0212219D01*
X0159059Y0212001D01*
X0158950Y0211786D01*
X0158835Y0211573D01*
X0158715Y0211363D01*
X0158590Y0211157D01*
X0158460Y0210953D01*
X0158325Y0210752D01*
X0158185Y0210555D01*
X0158041Y0210361D01*
X0157892Y0210171D01*
X0157738Y0209985D01*
X0157580Y0209802D01*
X0157418Y0209623D01*
X0157251Y0209448D01*
X0157080Y0209277D01*
X0156905Y0209110D01*
X0156726Y0208948D01*
X0156543Y0208790D01*
X0156357Y0208636D01*
X0156167Y0208487D01*
X0155973Y0208343D01*
X0155776Y0208203D01*
X0155575Y0208068D01*
X0155371Y0207938D01*
X0155165Y0207813D01*
X0154955Y0207693D01*
X0154742Y0207578D01*
X0154527Y0207469D01*
X0154309Y0207364D01*
X0154089Y0207265D01*
X0153866Y0207171D01*
X0153641Y0207083D01*
X0153414Y0207000D01*
X0153185Y0206922D01*
X0152954Y0206851D01*
X0152722Y0206784D01*
X0152488Y0206724D01*
X0152253Y0206669D01*
X0152016Y0206619D01*
X0151779Y0206576D01*
X0151540Y0206538D01*
X0151300Y0206506D01*
X0151060Y0206480D01*
X0150819Y0206459D01*
X0150578Y0206445D01*
X0150337Y0206436D01*
X0150095Y0206433D01*
X0137595Y0206433D01*
X0137497Y0206431D01*
X0137399Y0206425D01*
X0137301Y0206416D01*
X0137204Y0206402D01*
X0137107Y0206385D01*
X0137011Y0206364D01*
X0136916Y0206339D01*
X0136822Y0206311D01*
X0136730Y0206278D01*
X0136638Y0206243D01*
X0136548Y0206203D01*
X0136460Y0206161D01*
X0136373Y0206114D01*
X0136289Y0206065D01*
X0136206Y0206012D01*
X0136126Y0205956D01*
X0136047Y0205896D01*
X0135971Y0205834D01*
X0135898Y0205769D01*
X0135827Y0205701D01*
X0135759Y0205630D01*
X0135694Y0205557D01*
X0135632Y0205481D01*
X0135572Y0205402D01*
X0135516Y0205322D01*
X0135463Y0205239D01*
X0135414Y0205155D01*
X0135367Y0205068D01*
X0135325Y0204980D01*
X0135285Y0204890D01*
X0135250Y0204798D01*
X0135217Y0204706D01*
X0135189Y0204612D01*
X0135164Y0204517D01*
X0135143Y0204421D01*
X0135126Y0204324D01*
X0135112Y0204227D01*
X0135103Y0204129D01*
X0135097Y0204031D01*
X0135095Y0203933D01*
X0135097Y0203835D01*
X0135103Y0203737D01*
X0135112Y0203639D01*
X0135126Y0203542D01*
X0135143Y0203445D01*
X0135164Y0203349D01*
X0135189Y0203254D01*
X0135217Y0203160D01*
X0135250Y0203068D01*
X0135285Y0202976D01*
X0135325Y0202886D01*
X0135367Y0202798D01*
X0135414Y0202711D01*
X0135463Y0202627D01*
X0135516Y0202544D01*
X0135572Y0202464D01*
X0135632Y0202385D01*
X0135694Y0202309D01*
X0135759Y0202236D01*
X0135827Y0202165D01*
X0135898Y0202097D01*
X0135971Y0202032D01*
X0136047Y0201970D01*
X0136126Y0201910D01*
X0136206Y0201854D01*
X0136289Y0201801D01*
X0136373Y0201752D01*
X0136460Y0201705D01*
X0136548Y0201663D01*
X0136638Y0201623D01*
X0136730Y0201588D01*
X0136822Y0201555D01*
X0136916Y0201527D01*
X0137011Y0201502D01*
X0137107Y0201481D01*
X0137204Y0201464D01*
X0137301Y0201450D01*
X0137399Y0201441D01*
X0137497Y0201435D01*
X0137595Y0201433D01*
X0150095Y0201433D01*
X0150337Y0201430D01*
X0150578Y0201421D01*
X0150819Y0201407D01*
X0151060Y0201386D01*
X0151300Y0201360D01*
X0151540Y0201328D01*
X0151779Y0201290D01*
X0152016Y0201247D01*
X0152253Y0201197D01*
X0152488Y0201142D01*
X0152722Y0201082D01*
X0152954Y0201015D01*
X0153185Y0200944D01*
X0153414Y0200866D01*
X0153641Y0200783D01*
X0153866Y0200695D01*
X0154089Y0200601D01*
X0154309Y0200502D01*
X0154527Y0200397D01*
X0154742Y0200288D01*
X0154955Y0200173D01*
X0155165Y0200053D01*
X0155371Y0199928D01*
X0155575Y0199798D01*
X0155776Y0199663D01*
X0155973Y0199523D01*
X0156167Y0199379D01*
X0156357Y0199230D01*
X0156543Y0199076D01*
X0156726Y0198918D01*
X0156905Y0198756D01*
X0157080Y0198589D01*
X0157251Y0198418D01*
X0157418Y0198243D01*
X0157580Y0198064D01*
X0157738Y0197881D01*
X0157892Y0197695D01*
X0158041Y0197505D01*
X0158185Y0197311D01*
X0158325Y0197114D01*
X0158460Y0196913D01*
X0158590Y0196709D01*
X0158715Y0196503D01*
X0158835Y0196293D01*
X0158950Y0196080D01*
X0159059Y0195865D01*
X0159164Y0195647D01*
X0159263Y0195427D01*
X0159357Y0195204D01*
X0159445Y0194979D01*
X0159528Y0194752D01*
X0159606Y0194523D01*
X0159677Y0194292D01*
X0159744Y0194060D01*
X0159804Y0193826D01*
X0159859Y0193591D01*
X0159909Y0193354D01*
X0159952Y0193117D01*
X0159990Y0192878D01*
X0160022Y0192638D01*
X0160048Y0192398D01*
X0160069Y0192157D01*
X0160083Y0191916D01*
X0160092Y0191675D01*
X0160095Y0191433D01*
X0160095Y0060183D01*
X0160092Y0059941D01*
X0160083Y0059700D01*
X0160069Y0059459D01*
X0160048Y0059218D01*
X0160022Y0058978D01*
X0159990Y0058738D01*
X0159952Y0058499D01*
X0159909Y0058262D01*
X0159859Y0058025D01*
X0159804Y0057790D01*
X0159744Y0057556D01*
X0159677Y0057324D01*
X0159606Y0057093D01*
X0159528Y0056864D01*
X0159445Y0056637D01*
X0159357Y0056412D01*
X0159263Y0056189D01*
X0159164Y0055969D01*
X0159059Y0055751D01*
X0158950Y0055536D01*
X0158835Y0055323D01*
X0158715Y0055113D01*
X0158590Y0054907D01*
X0158460Y0054703D01*
X0158325Y0054502D01*
X0158185Y0054305D01*
X0158041Y0054111D01*
X0157892Y0053921D01*
X0157738Y0053735D01*
X0157580Y0053552D01*
X0157418Y0053373D01*
X0157251Y0053198D01*
X0157080Y0053027D01*
X0156905Y0052860D01*
X0156726Y0052698D01*
X0156543Y0052540D01*
X0156357Y0052386D01*
X0156167Y0052237D01*
X0155973Y0052093D01*
X0155776Y0051953D01*
X0155575Y0051818D01*
X0155371Y0051688D01*
X0155165Y0051563D01*
X0154955Y0051443D01*
X0154742Y0051328D01*
X0154527Y0051219D01*
X0154309Y0051114D01*
X0154089Y0051015D01*
X0153866Y0050921D01*
X0153641Y0050833D01*
X0153414Y0050750D01*
X0153185Y0050672D01*
X0152954Y0050601D01*
X0152722Y0050534D01*
X0152488Y0050474D01*
X0152253Y0050419D01*
X0152016Y0050369D01*
X0151779Y0050326D01*
X0151540Y0050288D01*
X0151300Y0050256D01*
X0151060Y0050230D01*
X0150819Y0050209D01*
X0150578Y0050195D01*
X0150337Y0050186D01*
X0150095Y0050183D01*
X0076345Y0050183D01*
X0076103Y0050186D01*
X0075862Y0050195D01*
X0075621Y0050209D01*
X0075380Y0050230D01*
X0075140Y0050256D01*
X0074900Y0050288D01*
X0074661Y0050326D01*
X0074424Y0050369D01*
X0074187Y0050419D01*
X0073952Y0050474D01*
X0073718Y0050534D01*
X0073486Y0050601D01*
X0073255Y0050672D01*
X0073026Y0050750D01*
X0072799Y0050833D01*
X0072574Y0050921D01*
X0072351Y0051015D01*
X0072131Y0051114D01*
X0071913Y0051219D01*
X0071698Y0051328D01*
X0071485Y0051443D01*
X0071275Y0051563D01*
X0071069Y0051688D01*
X0070865Y0051818D01*
X0070664Y0051953D01*
X0070467Y0052093D01*
X0070273Y0052237D01*
X0070083Y0052386D01*
X0069897Y0052540D01*
X0069714Y0052698D01*
X0069535Y0052860D01*
X0069360Y0053027D01*
X0069189Y0053198D01*
X0069022Y0053373D01*
X0068860Y0053552D01*
X0068702Y0053735D01*
X0068548Y0053921D01*
X0068399Y0054111D01*
X0068255Y0054305D01*
X0068115Y0054502D01*
X0067980Y0054703D01*
X0067850Y0054907D01*
X0067725Y0055113D01*
X0067605Y0055323D01*
X0067490Y0055536D01*
X0067381Y0055751D01*
X0067276Y0055969D01*
X0067177Y0056189D01*
X0067083Y0056412D01*
X0066995Y0056637D01*
X0066912Y0056864D01*
X0066834Y0057093D01*
X0066763Y0057324D01*
X0066696Y0057556D01*
X0066636Y0057790D01*
X0066581Y0058025D01*
X0066531Y0058262D01*
X0066488Y0058499D01*
X0066450Y0058738D01*
X0066418Y0058978D01*
X0066392Y0059218D01*
X0066371Y0059459D01*
X0066357Y0059700D01*
X0066348Y0059941D01*
X0066345Y0060183D01*
X0070046Y0060183D02*
X0070048Y0060341D01*
X0070054Y0060499D01*
X0070064Y0060657D01*
X0070078Y0060815D01*
X0070096Y0060972D01*
X0070117Y0061129D01*
X0070143Y0061285D01*
X0070173Y0061441D01*
X0070206Y0061596D01*
X0070244Y0061749D01*
X0070285Y0061902D01*
X0070330Y0062054D01*
X0070379Y0062205D01*
X0070432Y0062354D01*
X0070488Y0062502D01*
X0070548Y0062648D01*
X0070612Y0062793D01*
X0070680Y0062936D01*
X0070751Y0063078D01*
X0070825Y0063218D01*
X0070903Y0063355D01*
X0070985Y0063491D01*
X0071069Y0063625D01*
X0071158Y0063756D01*
X0071249Y0063885D01*
X0071344Y0064012D01*
X0071441Y0064137D01*
X0071542Y0064259D01*
X0071646Y0064378D01*
X0071753Y0064495D01*
X0071863Y0064609D01*
X0071976Y0064720D01*
X0072091Y0064829D01*
X0072209Y0064934D01*
X0072330Y0065036D01*
X0072453Y0065136D01*
X0072579Y0065232D01*
X0072707Y0065325D01*
X0072837Y0065415D01*
X0072970Y0065501D01*
X0073105Y0065585D01*
X0073241Y0065664D01*
X0073380Y0065741D01*
X0073521Y0065813D01*
X0073663Y0065883D01*
X0073807Y0065948D01*
X0073953Y0066010D01*
X0074100Y0066068D01*
X0074249Y0066123D01*
X0074399Y0066174D01*
X0074550Y0066221D01*
X0074702Y0066264D01*
X0074855Y0066303D01*
X0075010Y0066339D01*
X0075165Y0066370D01*
X0075321Y0066398D01*
X0075477Y0066422D01*
X0075634Y0066442D01*
X0075792Y0066458D01*
X0075949Y0066470D01*
X0076108Y0066478D01*
X0076266Y0066482D01*
X0076424Y0066482D01*
X0076582Y0066478D01*
X0076741Y0066470D01*
X0076898Y0066458D01*
X0077056Y0066442D01*
X0077213Y0066422D01*
X0077369Y0066398D01*
X0077525Y0066370D01*
X0077680Y0066339D01*
X0077835Y0066303D01*
X0077988Y0066264D01*
X0078140Y0066221D01*
X0078291Y0066174D01*
X0078441Y0066123D01*
X0078590Y0066068D01*
X0078737Y0066010D01*
X0078883Y0065948D01*
X0079027Y0065883D01*
X0079169Y0065813D01*
X0079310Y0065741D01*
X0079449Y0065664D01*
X0079585Y0065585D01*
X0079720Y0065501D01*
X0079853Y0065415D01*
X0079983Y0065325D01*
X0080111Y0065232D01*
X0080237Y0065136D01*
X0080360Y0065036D01*
X0080481Y0064934D01*
X0080599Y0064829D01*
X0080714Y0064720D01*
X0080827Y0064609D01*
X0080937Y0064495D01*
X0081044Y0064378D01*
X0081148Y0064259D01*
X0081249Y0064137D01*
X0081346Y0064012D01*
X0081441Y0063885D01*
X0081532Y0063756D01*
X0081621Y0063625D01*
X0081705Y0063491D01*
X0081787Y0063355D01*
X0081865Y0063218D01*
X0081939Y0063078D01*
X0082010Y0062936D01*
X0082078Y0062793D01*
X0082142Y0062648D01*
X0082202Y0062502D01*
X0082258Y0062354D01*
X0082311Y0062205D01*
X0082360Y0062054D01*
X0082405Y0061902D01*
X0082446Y0061749D01*
X0082484Y0061596D01*
X0082517Y0061441D01*
X0082547Y0061285D01*
X0082573Y0061129D01*
X0082594Y0060972D01*
X0082612Y0060815D01*
X0082626Y0060657D01*
X0082636Y0060499D01*
X0082642Y0060341D01*
X0082644Y0060183D01*
X0082642Y0060025D01*
X0082636Y0059867D01*
X0082626Y0059709D01*
X0082612Y0059551D01*
X0082594Y0059394D01*
X0082573Y0059237D01*
X0082547Y0059081D01*
X0082517Y0058925D01*
X0082484Y0058770D01*
X0082446Y0058617D01*
X0082405Y0058464D01*
X0082360Y0058312D01*
X0082311Y0058161D01*
X0082258Y0058012D01*
X0082202Y0057864D01*
X0082142Y0057718D01*
X0082078Y0057573D01*
X0082010Y0057430D01*
X0081939Y0057288D01*
X0081865Y0057148D01*
X0081787Y0057011D01*
X0081705Y0056875D01*
X0081621Y0056741D01*
X0081532Y0056610D01*
X0081441Y0056481D01*
X0081346Y0056354D01*
X0081249Y0056229D01*
X0081148Y0056107D01*
X0081044Y0055988D01*
X0080937Y0055871D01*
X0080827Y0055757D01*
X0080714Y0055646D01*
X0080599Y0055537D01*
X0080481Y0055432D01*
X0080360Y0055330D01*
X0080237Y0055230D01*
X0080111Y0055134D01*
X0079983Y0055041D01*
X0079853Y0054951D01*
X0079720Y0054865D01*
X0079585Y0054781D01*
X0079449Y0054702D01*
X0079310Y0054625D01*
X0079169Y0054553D01*
X0079027Y0054483D01*
X0078883Y0054418D01*
X0078737Y0054356D01*
X0078590Y0054298D01*
X0078441Y0054243D01*
X0078291Y0054192D01*
X0078140Y0054145D01*
X0077988Y0054102D01*
X0077835Y0054063D01*
X0077680Y0054027D01*
X0077525Y0053996D01*
X0077369Y0053968D01*
X0077213Y0053944D01*
X0077056Y0053924D01*
X0076898Y0053908D01*
X0076741Y0053896D01*
X0076582Y0053888D01*
X0076424Y0053884D01*
X0076266Y0053884D01*
X0076108Y0053888D01*
X0075949Y0053896D01*
X0075792Y0053908D01*
X0075634Y0053924D01*
X0075477Y0053944D01*
X0075321Y0053968D01*
X0075165Y0053996D01*
X0075010Y0054027D01*
X0074855Y0054063D01*
X0074702Y0054102D01*
X0074550Y0054145D01*
X0074399Y0054192D01*
X0074249Y0054243D01*
X0074100Y0054298D01*
X0073953Y0054356D01*
X0073807Y0054418D01*
X0073663Y0054483D01*
X0073521Y0054553D01*
X0073380Y0054625D01*
X0073241Y0054702D01*
X0073105Y0054781D01*
X0072970Y0054865D01*
X0072837Y0054951D01*
X0072707Y0055041D01*
X0072579Y0055134D01*
X0072453Y0055230D01*
X0072330Y0055330D01*
X0072209Y0055432D01*
X0072091Y0055537D01*
X0071976Y0055646D01*
X0071863Y0055757D01*
X0071753Y0055871D01*
X0071646Y0055988D01*
X0071542Y0056107D01*
X0071441Y0056229D01*
X0071344Y0056354D01*
X0071249Y0056481D01*
X0071158Y0056610D01*
X0071069Y0056741D01*
X0070985Y0056875D01*
X0070903Y0057011D01*
X0070825Y0057148D01*
X0070751Y0057288D01*
X0070680Y0057430D01*
X0070612Y0057573D01*
X0070548Y0057718D01*
X0070488Y0057864D01*
X0070432Y0058012D01*
X0070379Y0058161D01*
X0070330Y0058312D01*
X0070285Y0058464D01*
X0070244Y0058617D01*
X0070206Y0058770D01*
X0070173Y0058925D01*
X0070143Y0059081D01*
X0070117Y0059237D01*
X0070096Y0059394D01*
X0070078Y0059551D01*
X0070064Y0059709D01*
X0070054Y0059867D01*
X0070048Y0060025D01*
X0070046Y0060183D01*
X0128796Y0182683D02*
X0128798Y0182841D01*
X0128804Y0182999D01*
X0128814Y0183157D01*
X0128828Y0183315D01*
X0128846Y0183472D01*
X0128867Y0183629D01*
X0128893Y0183785D01*
X0128923Y0183941D01*
X0128956Y0184096D01*
X0128994Y0184249D01*
X0129035Y0184402D01*
X0129080Y0184554D01*
X0129129Y0184705D01*
X0129182Y0184854D01*
X0129238Y0185002D01*
X0129298Y0185148D01*
X0129362Y0185293D01*
X0129430Y0185436D01*
X0129501Y0185578D01*
X0129575Y0185718D01*
X0129653Y0185855D01*
X0129735Y0185991D01*
X0129819Y0186125D01*
X0129908Y0186256D01*
X0129999Y0186385D01*
X0130094Y0186512D01*
X0130191Y0186637D01*
X0130292Y0186759D01*
X0130396Y0186878D01*
X0130503Y0186995D01*
X0130613Y0187109D01*
X0130726Y0187220D01*
X0130841Y0187329D01*
X0130959Y0187434D01*
X0131080Y0187536D01*
X0131203Y0187636D01*
X0131329Y0187732D01*
X0131457Y0187825D01*
X0131587Y0187915D01*
X0131720Y0188001D01*
X0131855Y0188085D01*
X0131991Y0188164D01*
X0132130Y0188241D01*
X0132271Y0188313D01*
X0132413Y0188383D01*
X0132557Y0188448D01*
X0132703Y0188510D01*
X0132850Y0188568D01*
X0132999Y0188623D01*
X0133149Y0188674D01*
X0133300Y0188721D01*
X0133452Y0188764D01*
X0133605Y0188803D01*
X0133760Y0188839D01*
X0133915Y0188870D01*
X0134071Y0188898D01*
X0134227Y0188922D01*
X0134384Y0188942D01*
X0134542Y0188958D01*
X0134699Y0188970D01*
X0134858Y0188978D01*
X0135016Y0188982D01*
X0135174Y0188982D01*
X0135332Y0188978D01*
X0135491Y0188970D01*
X0135648Y0188958D01*
X0135806Y0188942D01*
X0135963Y0188922D01*
X0136119Y0188898D01*
X0136275Y0188870D01*
X0136430Y0188839D01*
X0136585Y0188803D01*
X0136738Y0188764D01*
X0136890Y0188721D01*
X0137041Y0188674D01*
X0137191Y0188623D01*
X0137340Y0188568D01*
X0137487Y0188510D01*
X0137633Y0188448D01*
X0137777Y0188383D01*
X0137919Y0188313D01*
X0138060Y0188241D01*
X0138199Y0188164D01*
X0138335Y0188085D01*
X0138470Y0188001D01*
X0138603Y0187915D01*
X0138733Y0187825D01*
X0138861Y0187732D01*
X0138987Y0187636D01*
X0139110Y0187536D01*
X0139231Y0187434D01*
X0139349Y0187329D01*
X0139464Y0187220D01*
X0139577Y0187109D01*
X0139687Y0186995D01*
X0139794Y0186878D01*
X0139898Y0186759D01*
X0139999Y0186637D01*
X0140096Y0186512D01*
X0140191Y0186385D01*
X0140282Y0186256D01*
X0140371Y0186125D01*
X0140455Y0185991D01*
X0140537Y0185855D01*
X0140615Y0185718D01*
X0140689Y0185578D01*
X0140760Y0185436D01*
X0140828Y0185293D01*
X0140892Y0185148D01*
X0140952Y0185002D01*
X0141008Y0184854D01*
X0141061Y0184705D01*
X0141110Y0184554D01*
X0141155Y0184402D01*
X0141196Y0184249D01*
X0141234Y0184096D01*
X0141267Y0183941D01*
X0141297Y0183785D01*
X0141323Y0183629D01*
X0141344Y0183472D01*
X0141362Y0183315D01*
X0141376Y0183157D01*
X0141386Y0182999D01*
X0141392Y0182841D01*
X0141394Y0182683D01*
X0141392Y0182525D01*
X0141386Y0182367D01*
X0141376Y0182209D01*
X0141362Y0182051D01*
X0141344Y0181894D01*
X0141323Y0181737D01*
X0141297Y0181581D01*
X0141267Y0181425D01*
X0141234Y0181270D01*
X0141196Y0181117D01*
X0141155Y0180964D01*
X0141110Y0180812D01*
X0141061Y0180661D01*
X0141008Y0180512D01*
X0140952Y0180364D01*
X0140892Y0180218D01*
X0140828Y0180073D01*
X0140760Y0179930D01*
X0140689Y0179788D01*
X0140615Y0179648D01*
X0140537Y0179511D01*
X0140455Y0179375D01*
X0140371Y0179241D01*
X0140282Y0179110D01*
X0140191Y0178981D01*
X0140096Y0178854D01*
X0139999Y0178729D01*
X0139898Y0178607D01*
X0139794Y0178488D01*
X0139687Y0178371D01*
X0139577Y0178257D01*
X0139464Y0178146D01*
X0139349Y0178037D01*
X0139231Y0177932D01*
X0139110Y0177830D01*
X0138987Y0177730D01*
X0138861Y0177634D01*
X0138733Y0177541D01*
X0138603Y0177451D01*
X0138470Y0177365D01*
X0138335Y0177281D01*
X0138199Y0177202D01*
X0138060Y0177125D01*
X0137919Y0177053D01*
X0137777Y0176983D01*
X0137633Y0176918D01*
X0137487Y0176856D01*
X0137340Y0176798D01*
X0137191Y0176743D01*
X0137041Y0176692D01*
X0136890Y0176645D01*
X0136738Y0176602D01*
X0136585Y0176563D01*
X0136430Y0176527D01*
X0136275Y0176496D01*
X0136119Y0176468D01*
X0135963Y0176444D01*
X0135806Y0176424D01*
X0135648Y0176408D01*
X0135491Y0176396D01*
X0135332Y0176388D01*
X0135174Y0176384D01*
X0135016Y0176384D01*
X0134858Y0176388D01*
X0134699Y0176396D01*
X0134542Y0176408D01*
X0134384Y0176424D01*
X0134227Y0176444D01*
X0134071Y0176468D01*
X0133915Y0176496D01*
X0133760Y0176527D01*
X0133605Y0176563D01*
X0133452Y0176602D01*
X0133300Y0176645D01*
X0133149Y0176692D01*
X0132999Y0176743D01*
X0132850Y0176798D01*
X0132703Y0176856D01*
X0132557Y0176918D01*
X0132413Y0176983D01*
X0132271Y0177053D01*
X0132130Y0177125D01*
X0131991Y0177202D01*
X0131855Y0177281D01*
X0131720Y0177365D01*
X0131587Y0177451D01*
X0131457Y0177541D01*
X0131329Y0177634D01*
X0131203Y0177730D01*
X0131080Y0177830D01*
X0130959Y0177932D01*
X0130841Y0178037D01*
X0130726Y0178146D01*
X0130613Y0178257D01*
X0130503Y0178371D01*
X0130396Y0178488D01*
X0130292Y0178607D01*
X0130191Y0178729D01*
X0130094Y0178854D01*
X0129999Y0178981D01*
X0129908Y0179110D01*
X0129819Y0179241D01*
X0129735Y0179375D01*
X0129653Y0179511D01*
X0129575Y0179648D01*
X0129501Y0179788D01*
X0129430Y0179930D01*
X0129362Y0180073D01*
X0129298Y0180218D01*
X0129238Y0180364D01*
X0129182Y0180512D01*
X0129129Y0180661D01*
X0129080Y0180812D01*
X0129035Y0180964D01*
X0128994Y0181117D01*
X0128956Y0181270D01*
X0128923Y0181425D01*
X0128893Y0181581D01*
X0128867Y0181737D01*
X0128846Y0181894D01*
X0128828Y0182051D01*
X0128814Y0182209D01*
X0128804Y0182367D01*
X0128798Y0182525D01*
X0128796Y0182683D01*
X0122595Y0201433D02*
X0103845Y0201433D01*
X0103747Y0201435D01*
X0103649Y0201441D01*
X0103551Y0201450D01*
X0103454Y0201464D01*
X0103357Y0201481D01*
X0103261Y0201502D01*
X0103166Y0201527D01*
X0103072Y0201555D01*
X0102980Y0201588D01*
X0102888Y0201623D01*
X0102798Y0201663D01*
X0102710Y0201705D01*
X0102623Y0201752D01*
X0102539Y0201801D01*
X0102456Y0201854D01*
X0102376Y0201910D01*
X0102297Y0201970D01*
X0102221Y0202032D01*
X0102148Y0202097D01*
X0102077Y0202165D01*
X0102009Y0202236D01*
X0101944Y0202309D01*
X0101882Y0202385D01*
X0101822Y0202464D01*
X0101766Y0202544D01*
X0101713Y0202627D01*
X0101664Y0202711D01*
X0101617Y0202798D01*
X0101575Y0202886D01*
X0101535Y0202976D01*
X0101500Y0203068D01*
X0101467Y0203160D01*
X0101439Y0203254D01*
X0101414Y0203349D01*
X0101393Y0203445D01*
X0101376Y0203542D01*
X0101362Y0203639D01*
X0101353Y0203737D01*
X0101347Y0203835D01*
X0101345Y0203933D01*
X0101347Y0204031D01*
X0101353Y0204129D01*
X0101362Y0204227D01*
X0101376Y0204324D01*
X0101393Y0204421D01*
X0101414Y0204517D01*
X0101439Y0204612D01*
X0101467Y0204706D01*
X0101500Y0204798D01*
X0101535Y0204890D01*
X0101575Y0204980D01*
X0101617Y0205068D01*
X0101664Y0205155D01*
X0101713Y0205239D01*
X0101766Y0205322D01*
X0101822Y0205402D01*
X0101882Y0205481D01*
X0101944Y0205557D01*
X0102009Y0205630D01*
X0102077Y0205701D01*
X0102148Y0205769D01*
X0102221Y0205834D01*
X0102297Y0205896D01*
X0102376Y0205956D01*
X0102456Y0206012D01*
X0102539Y0206065D01*
X0102623Y0206114D01*
X0102710Y0206161D01*
X0102798Y0206203D01*
X0102888Y0206243D01*
X0102980Y0206278D01*
X0103072Y0206311D01*
X0103166Y0206339D01*
X0103261Y0206364D01*
X0103357Y0206385D01*
X0103454Y0206402D01*
X0103551Y0206416D01*
X0103649Y0206425D01*
X0103747Y0206431D01*
X0103845Y0206433D01*
X0122595Y0206433D01*
X0122693Y0206431D01*
X0122791Y0206425D01*
X0122889Y0206416D01*
X0122986Y0206402D01*
X0123083Y0206385D01*
X0123179Y0206364D01*
X0123274Y0206339D01*
X0123368Y0206311D01*
X0123460Y0206278D01*
X0123552Y0206243D01*
X0123642Y0206203D01*
X0123730Y0206161D01*
X0123817Y0206114D01*
X0123901Y0206065D01*
X0123984Y0206012D01*
X0124064Y0205956D01*
X0124143Y0205896D01*
X0124219Y0205834D01*
X0124292Y0205769D01*
X0124363Y0205701D01*
X0124431Y0205630D01*
X0124496Y0205557D01*
X0124558Y0205481D01*
X0124618Y0205402D01*
X0124674Y0205322D01*
X0124727Y0205239D01*
X0124776Y0205155D01*
X0124823Y0205068D01*
X0124865Y0204980D01*
X0124905Y0204890D01*
X0124940Y0204798D01*
X0124973Y0204706D01*
X0125001Y0204612D01*
X0125026Y0204517D01*
X0125047Y0204421D01*
X0125064Y0204324D01*
X0125078Y0204227D01*
X0125087Y0204129D01*
X0125093Y0204031D01*
X0125095Y0203933D01*
X0125093Y0203835D01*
X0125087Y0203737D01*
X0125078Y0203639D01*
X0125064Y0203542D01*
X0125047Y0203445D01*
X0125026Y0203349D01*
X0125001Y0203254D01*
X0124973Y0203160D01*
X0124940Y0203068D01*
X0124905Y0202976D01*
X0124865Y0202886D01*
X0124823Y0202798D01*
X0124776Y0202711D01*
X0124727Y0202627D01*
X0124674Y0202544D01*
X0124618Y0202464D01*
X0124558Y0202385D01*
X0124496Y0202309D01*
X0124431Y0202236D01*
X0124363Y0202165D01*
X0124292Y0202097D01*
X0124219Y0202032D01*
X0124143Y0201970D01*
X0124064Y0201910D01*
X0123984Y0201854D01*
X0123901Y0201801D01*
X0123817Y0201752D01*
X0123730Y0201705D01*
X0123642Y0201663D01*
X0123552Y0201623D01*
X0123460Y0201588D01*
X0123368Y0201555D01*
X0123274Y0201527D01*
X0123179Y0201502D01*
X0123083Y0201481D01*
X0122986Y0201464D01*
X0122889Y0201450D01*
X0122791Y0201441D01*
X0122693Y0201435D01*
X0122595Y0201433D01*
X0143796Y0216433D02*
X0143798Y0216591D01*
X0143804Y0216749D01*
X0143814Y0216907D01*
X0143828Y0217065D01*
X0143846Y0217222D01*
X0143867Y0217379D01*
X0143893Y0217535D01*
X0143923Y0217691D01*
X0143956Y0217846D01*
X0143994Y0217999D01*
X0144035Y0218152D01*
X0144080Y0218304D01*
X0144129Y0218455D01*
X0144182Y0218604D01*
X0144238Y0218752D01*
X0144298Y0218898D01*
X0144362Y0219043D01*
X0144430Y0219186D01*
X0144501Y0219328D01*
X0144575Y0219468D01*
X0144653Y0219605D01*
X0144735Y0219741D01*
X0144819Y0219875D01*
X0144908Y0220006D01*
X0144999Y0220135D01*
X0145094Y0220262D01*
X0145191Y0220387D01*
X0145292Y0220509D01*
X0145396Y0220628D01*
X0145503Y0220745D01*
X0145613Y0220859D01*
X0145726Y0220970D01*
X0145841Y0221079D01*
X0145959Y0221184D01*
X0146080Y0221286D01*
X0146203Y0221386D01*
X0146329Y0221482D01*
X0146457Y0221575D01*
X0146587Y0221665D01*
X0146720Y0221751D01*
X0146855Y0221835D01*
X0146991Y0221914D01*
X0147130Y0221991D01*
X0147271Y0222063D01*
X0147413Y0222133D01*
X0147557Y0222198D01*
X0147703Y0222260D01*
X0147850Y0222318D01*
X0147999Y0222373D01*
X0148149Y0222424D01*
X0148300Y0222471D01*
X0148452Y0222514D01*
X0148605Y0222553D01*
X0148760Y0222589D01*
X0148915Y0222620D01*
X0149071Y0222648D01*
X0149227Y0222672D01*
X0149384Y0222692D01*
X0149542Y0222708D01*
X0149699Y0222720D01*
X0149858Y0222728D01*
X0150016Y0222732D01*
X0150174Y0222732D01*
X0150332Y0222728D01*
X0150491Y0222720D01*
X0150648Y0222708D01*
X0150806Y0222692D01*
X0150963Y0222672D01*
X0151119Y0222648D01*
X0151275Y0222620D01*
X0151430Y0222589D01*
X0151585Y0222553D01*
X0151738Y0222514D01*
X0151890Y0222471D01*
X0152041Y0222424D01*
X0152191Y0222373D01*
X0152340Y0222318D01*
X0152487Y0222260D01*
X0152633Y0222198D01*
X0152777Y0222133D01*
X0152919Y0222063D01*
X0153060Y0221991D01*
X0153199Y0221914D01*
X0153335Y0221835D01*
X0153470Y0221751D01*
X0153603Y0221665D01*
X0153733Y0221575D01*
X0153861Y0221482D01*
X0153987Y0221386D01*
X0154110Y0221286D01*
X0154231Y0221184D01*
X0154349Y0221079D01*
X0154464Y0220970D01*
X0154577Y0220859D01*
X0154687Y0220745D01*
X0154794Y0220628D01*
X0154898Y0220509D01*
X0154999Y0220387D01*
X0155096Y0220262D01*
X0155191Y0220135D01*
X0155282Y0220006D01*
X0155371Y0219875D01*
X0155455Y0219741D01*
X0155537Y0219605D01*
X0155615Y0219468D01*
X0155689Y0219328D01*
X0155760Y0219186D01*
X0155828Y0219043D01*
X0155892Y0218898D01*
X0155952Y0218752D01*
X0156008Y0218604D01*
X0156061Y0218455D01*
X0156110Y0218304D01*
X0156155Y0218152D01*
X0156196Y0217999D01*
X0156234Y0217846D01*
X0156267Y0217691D01*
X0156297Y0217535D01*
X0156323Y0217379D01*
X0156344Y0217222D01*
X0156362Y0217065D01*
X0156376Y0216907D01*
X0156386Y0216749D01*
X0156392Y0216591D01*
X0156394Y0216433D01*
X0156392Y0216275D01*
X0156386Y0216117D01*
X0156376Y0215959D01*
X0156362Y0215801D01*
X0156344Y0215644D01*
X0156323Y0215487D01*
X0156297Y0215331D01*
X0156267Y0215175D01*
X0156234Y0215020D01*
X0156196Y0214867D01*
X0156155Y0214714D01*
X0156110Y0214562D01*
X0156061Y0214411D01*
X0156008Y0214262D01*
X0155952Y0214114D01*
X0155892Y0213968D01*
X0155828Y0213823D01*
X0155760Y0213680D01*
X0155689Y0213538D01*
X0155615Y0213398D01*
X0155537Y0213261D01*
X0155455Y0213125D01*
X0155371Y0212991D01*
X0155282Y0212860D01*
X0155191Y0212731D01*
X0155096Y0212604D01*
X0154999Y0212479D01*
X0154898Y0212357D01*
X0154794Y0212238D01*
X0154687Y0212121D01*
X0154577Y0212007D01*
X0154464Y0211896D01*
X0154349Y0211787D01*
X0154231Y0211682D01*
X0154110Y0211580D01*
X0153987Y0211480D01*
X0153861Y0211384D01*
X0153733Y0211291D01*
X0153603Y0211201D01*
X0153470Y0211115D01*
X0153335Y0211031D01*
X0153199Y0210952D01*
X0153060Y0210875D01*
X0152919Y0210803D01*
X0152777Y0210733D01*
X0152633Y0210668D01*
X0152487Y0210606D01*
X0152340Y0210548D01*
X0152191Y0210493D01*
X0152041Y0210442D01*
X0151890Y0210395D01*
X0151738Y0210352D01*
X0151585Y0210313D01*
X0151430Y0210277D01*
X0151275Y0210246D01*
X0151119Y0210218D01*
X0150963Y0210194D01*
X0150806Y0210174D01*
X0150648Y0210158D01*
X0150491Y0210146D01*
X0150332Y0210138D01*
X0150174Y0210134D01*
X0150016Y0210134D01*
X0149858Y0210138D01*
X0149699Y0210146D01*
X0149542Y0210158D01*
X0149384Y0210174D01*
X0149227Y0210194D01*
X0149071Y0210218D01*
X0148915Y0210246D01*
X0148760Y0210277D01*
X0148605Y0210313D01*
X0148452Y0210352D01*
X0148300Y0210395D01*
X0148149Y0210442D01*
X0147999Y0210493D01*
X0147850Y0210548D01*
X0147703Y0210606D01*
X0147557Y0210668D01*
X0147413Y0210733D01*
X0147271Y0210803D01*
X0147130Y0210875D01*
X0146991Y0210952D01*
X0146855Y0211031D01*
X0146720Y0211115D01*
X0146587Y0211201D01*
X0146457Y0211291D01*
X0146329Y0211384D01*
X0146203Y0211480D01*
X0146080Y0211580D01*
X0145959Y0211682D01*
X0145841Y0211787D01*
X0145726Y0211896D01*
X0145613Y0212007D01*
X0145503Y0212121D01*
X0145396Y0212238D01*
X0145292Y0212357D01*
X0145191Y0212479D01*
X0145094Y0212604D01*
X0144999Y0212731D01*
X0144908Y0212860D01*
X0144819Y0212991D01*
X0144735Y0213125D01*
X0144653Y0213261D01*
X0144575Y0213398D01*
X0144501Y0213538D01*
X0144430Y0213680D01*
X0144362Y0213823D01*
X0144298Y0213968D01*
X0144238Y0214114D01*
X0144182Y0214262D01*
X0144129Y0214411D01*
X0144080Y0214562D01*
X0144035Y0214714D01*
X0143994Y0214867D01*
X0143956Y0215020D01*
X0143923Y0215175D01*
X0143893Y0215331D01*
X0143867Y0215487D01*
X0143846Y0215644D01*
X0143828Y0215801D01*
X0143814Y0215959D01*
X0143804Y0216117D01*
X0143798Y0216275D01*
X0143796Y0216433D01*
X0143695Y0241433D02*
X0143697Y0241593D01*
X0143703Y0241752D01*
X0143713Y0241911D01*
X0143727Y0242070D01*
X0143745Y0242229D01*
X0143766Y0242387D01*
X0143792Y0242544D01*
X0143822Y0242701D01*
X0143855Y0242857D01*
X0143893Y0243012D01*
X0143934Y0243166D01*
X0143979Y0243319D01*
X0144028Y0243471D01*
X0144081Y0243622D01*
X0144137Y0243771D01*
X0144198Y0243919D01*
X0144261Y0244065D01*
X0144329Y0244210D01*
X0144400Y0244353D01*
X0144474Y0244494D01*
X0144552Y0244633D01*
X0144634Y0244770D01*
X0144719Y0244905D01*
X0144807Y0245038D01*
X0144899Y0245169D01*
X0144993Y0245297D01*
X0145091Y0245423D01*
X0145192Y0245547D01*
X0145296Y0245668D01*
X0145403Y0245786D01*
X0145513Y0245902D01*
X0145626Y0246015D01*
X0145742Y0246125D01*
X0145860Y0246232D01*
X0145981Y0246336D01*
X0146105Y0246437D01*
X0146231Y0246535D01*
X0146359Y0246629D01*
X0146490Y0246721D01*
X0146623Y0246809D01*
X0146758Y0246894D01*
X0146895Y0246976D01*
X0147034Y0247054D01*
X0147175Y0247128D01*
X0147318Y0247199D01*
X0147463Y0247267D01*
X0147609Y0247330D01*
X0147757Y0247391D01*
X0147906Y0247447D01*
X0148057Y0247500D01*
X0148209Y0247549D01*
X0148362Y0247594D01*
X0148516Y0247635D01*
X0148671Y0247673D01*
X0148827Y0247706D01*
X0148984Y0247736D01*
X0149141Y0247762D01*
X0149299Y0247783D01*
X0149458Y0247801D01*
X0149617Y0247815D01*
X0149776Y0247825D01*
X0149935Y0247831D01*
X0150095Y0247833D01*
X0150255Y0247831D01*
X0150414Y0247825D01*
X0150573Y0247815D01*
X0150732Y0247801D01*
X0150891Y0247783D01*
X0151049Y0247762D01*
X0151206Y0247736D01*
X0151363Y0247706D01*
X0151519Y0247673D01*
X0151674Y0247635D01*
X0151828Y0247594D01*
X0151981Y0247549D01*
X0152133Y0247500D01*
X0152284Y0247447D01*
X0152433Y0247391D01*
X0152581Y0247330D01*
X0152727Y0247267D01*
X0152872Y0247199D01*
X0153015Y0247128D01*
X0153156Y0247054D01*
X0153295Y0246976D01*
X0153432Y0246894D01*
X0153567Y0246809D01*
X0153700Y0246721D01*
X0153831Y0246629D01*
X0153959Y0246535D01*
X0154085Y0246437D01*
X0154209Y0246336D01*
X0154330Y0246232D01*
X0154448Y0246125D01*
X0154564Y0246015D01*
X0154677Y0245902D01*
X0154787Y0245786D01*
X0154894Y0245668D01*
X0154998Y0245547D01*
X0155099Y0245423D01*
X0155197Y0245297D01*
X0155291Y0245169D01*
X0155383Y0245038D01*
X0155471Y0244905D01*
X0155556Y0244770D01*
X0155638Y0244633D01*
X0155716Y0244494D01*
X0155790Y0244353D01*
X0155861Y0244210D01*
X0155929Y0244065D01*
X0155992Y0243919D01*
X0156053Y0243771D01*
X0156109Y0243622D01*
X0156162Y0243471D01*
X0156211Y0243319D01*
X0156256Y0243166D01*
X0156297Y0243012D01*
X0156335Y0242857D01*
X0156368Y0242701D01*
X0156398Y0242544D01*
X0156424Y0242387D01*
X0156445Y0242229D01*
X0156463Y0242070D01*
X0156477Y0241911D01*
X0156487Y0241752D01*
X0156493Y0241593D01*
X0156495Y0241433D01*
X0156493Y0241273D01*
X0156487Y0241114D01*
X0156477Y0240955D01*
X0156463Y0240796D01*
X0156445Y0240637D01*
X0156424Y0240479D01*
X0156398Y0240322D01*
X0156368Y0240165D01*
X0156335Y0240009D01*
X0156297Y0239854D01*
X0156256Y0239700D01*
X0156211Y0239547D01*
X0156162Y0239395D01*
X0156109Y0239244D01*
X0156053Y0239095D01*
X0155992Y0238947D01*
X0155929Y0238801D01*
X0155861Y0238656D01*
X0155790Y0238513D01*
X0155716Y0238372D01*
X0155638Y0238233D01*
X0155556Y0238096D01*
X0155471Y0237961D01*
X0155383Y0237828D01*
X0155291Y0237697D01*
X0155197Y0237569D01*
X0155099Y0237443D01*
X0154998Y0237319D01*
X0154894Y0237198D01*
X0154787Y0237080D01*
X0154677Y0236964D01*
X0154564Y0236851D01*
X0154448Y0236741D01*
X0154330Y0236634D01*
X0154209Y0236530D01*
X0154085Y0236429D01*
X0153959Y0236331D01*
X0153831Y0236237D01*
X0153700Y0236145D01*
X0153567Y0236057D01*
X0153432Y0235972D01*
X0153295Y0235890D01*
X0153156Y0235812D01*
X0153015Y0235738D01*
X0152872Y0235667D01*
X0152727Y0235599D01*
X0152581Y0235536D01*
X0152433Y0235475D01*
X0152284Y0235419D01*
X0152133Y0235366D01*
X0151981Y0235317D01*
X0151828Y0235272D01*
X0151674Y0235231D01*
X0151519Y0235193D01*
X0151363Y0235160D01*
X0151206Y0235130D01*
X0151049Y0235104D01*
X0150891Y0235083D01*
X0150732Y0235065D01*
X0150573Y0235051D01*
X0150414Y0235041D01*
X0150255Y0235035D01*
X0150095Y0235033D01*
X0149935Y0235035D01*
X0149776Y0235041D01*
X0149617Y0235051D01*
X0149458Y0235065D01*
X0149299Y0235083D01*
X0149141Y0235104D01*
X0148984Y0235130D01*
X0148827Y0235160D01*
X0148671Y0235193D01*
X0148516Y0235231D01*
X0148362Y0235272D01*
X0148209Y0235317D01*
X0148057Y0235366D01*
X0147906Y0235419D01*
X0147757Y0235475D01*
X0147609Y0235536D01*
X0147463Y0235599D01*
X0147318Y0235667D01*
X0147175Y0235738D01*
X0147034Y0235812D01*
X0146895Y0235890D01*
X0146758Y0235972D01*
X0146623Y0236057D01*
X0146490Y0236145D01*
X0146359Y0236237D01*
X0146231Y0236331D01*
X0146105Y0236429D01*
X0145981Y0236530D01*
X0145860Y0236634D01*
X0145742Y0236741D01*
X0145626Y0236851D01*
X0145513Y0236964D01*
X0145403Y0237080D01*
X0145296Y0237198D01*
X0145192Y0237319D01*
X0145091Y0237443D01*
X0144993Y0237569D01*
X0144899Y0237697D01*
X0144807Y0237828D01*
X0144719Y0237961D01*
X0144634Y0238096D01*
X0144552Y0238233D01*
X0144474Y0238372D01*
X0144400Y0238513D01*
X0144329Y0238656D01*
X0144261Y0238801D01*
X0144198Y0238947D01*
X0144137Y0239095D01*
X0144081Y0239244D01*
X0144028Y0239395D01*
X0143979Y0239547D01*
X0143934Y0239700D01*
X0143893Y0239854D01*
X0143855Y0240009D01*
X0143822Y0240165D01*
X0143792Y0240322D01*
X0143766Y0240479D01*
X0143745Y0240637D01*
X0143727Y0240796D01*
X0143713Y0240955D01*
X0143703Y0241114D01*
X0143697Y0241273D01*
X0143695Y0241433D01*
X0143695Y0286433D02*
X0143697Y0286593D01*
X0143703Y0286752D01*
X0143713Y0286911D01*
X0143727Y0287070D01*
X0143745Y0287229D01*
X0143766Y0287387D01*
X0143792Y0287544D01*
X0143822Y0287701D01*
X0143855Y0287857D01*
X0143893Y0288012D01*
X0143934Y0288166D01*
X0143979Y0288319D01*
X0144028Y0288471D01*
X0144081Y0288622D01*
X0144137Y0288771D01*
X0144198Y0288919D01*
X0144261Y0289065D01*
X0144329Y0289210D01*
X0144400Y0289353D01*
X0144474Y0289494D01*
X0144552Y0289633D01*
X0144634Y0289770D01*
X0144719Y0289905D01*
X0144807Y0290038D01*
X0144899Y0290169D01*
X0144993Y0290297D01*
X0145091Y0290423D01*
X0145192Y0290547D01*
X0145296Y0290668D01*
X0145403Y0290786D01*
X0145513Y0290902D01*
X0145626Y0291015D01*
X0145742Y0291125D01*
X0145860Y0291232D01*
X0145981Y0291336D01*
X0146105Y0291437D01*
X0146231Y0291535D01*
X0146359Y0291629D01*
X0146490Y0291721D01*
X0146623Y0291809D01*
X0146758Y0291894D01*
X0146895Y0291976D01*
X0147034Y0292054D01*
X0147175Y0292128D01*
X0147318Y0292199D01*
X0147463Y0292267D01*
X0147609Y0292330D01*
X0147757Y0292391D01*
X0147906Y0292447D01*
X0148057Y0292500D01*
X0148209Y0292549D01*
X0148362Y0292594D01*
X0148516Y0292635D01*
X0148671Y0292673D01*
X0148827Y0292706D01*
X0148984Y0292736D01*
X0149141Y0292762D01*
X0149299Y0292783D01*
X0149458Y0292801D01*
X0149617Y0292815D01*
X0149776Y0292825D01*
X0149935Y0292831D01*
X0150095Y0292833D01*
X0150255Y0292831D01*
X0150414Y0292825D01*
X0150573Y0292815D01*
X0150732Y0292801D01*
X0150891Y0292783D01*
X0151049Y0292762D01*
X0151206Y0292736D01*
X0151363Y0292706D01*
X0151519Y0292673D01*
X0151674Y0292635D01*
X0151828Y0292594D01*
X0151981Y0292549D01*
X0152133Y0292500D01*
X0152284Y0292447D01*
X0152433Y0292391D01*
X0152581Y0292330D01*
X0152727Y0292267D01*
X0152872Y0292199D01*
X0153015Y0292128D01*
X0153156Y0292054D01*
X0153295Y0291976D01*
X0153432Y0291894D01*
X0153567Y0291809D01*
X0153700Y0291721D01*
X0153831Y0291629D01*
X0153959Y0291535D01*
X0154085Y0291437D01*
X0154209Y0291336D01*
X0154330Y0291232D01*
X0154448Y0291125D01*
X0154564Y0291015D01*
X0154677Y0290902D01*
X0154787Y0290786D01*
X0154894Y0290668D01*
X0154998Y0290547D01*
X0155099Y0290423D01*
X0155197Y0290297D01*
X0155291Y0290169D01*
X0155383Y0290038D01*
X0155471Y0289905D01*
X0155556Y0289770D01*
X0155638Y0289633D01*
X0155716Y0289494D01*
X0155790Y0289353D01*
X0155861Y0289210D01*
X0155929Y0289065D01*
X0155992Y0288919D01*
X0156053Y0288771D01*
X0156109Y0288622D01*
X0156162Y0288471D01*
X0156211Y0288319D01*
X0156256Y0288166D01*
X0156297Y0288012D01*
X0156335Y0287857D01*
X0156368Y0287701D01*
X0156398Y0287544D01*
X0156424Y0287387D01*
X0156445Y0287229D01*
X0156463Y0287070D01*
X0156477Y0286911D01*
X0156487Y0286752D01*
X0156493Y0286593D01*
X0156495Y0286433D01*
X0156493Y0286273D01*
X0156487Y0286114D01*
X0156477Y0285955D01*
X0156463Y0285796D01*
X0156445Y0285637D01*
X0156424Y0285479D01*
X0156398Y0285322D01*
X0156368Y0285165D01*
X0156335Y0285009D01*
X0156297Y0284854D01*
X0156256Y0284700D01*
X0156211Y0284547D01*
X0156162Y0284395D01*
X0156109Y0284244D01*
X0156053Y0284095D01*
X0155992Y0283947D01*
X0155929Y0283801D01*
X0155861Y0283656D01*
X0155790Y0283513D01*
X0155716Y0283372D01*
X0155638Y0283233D01*
X0155556Y0283096D01*
X0155471Y0282961D01*
X0155383Y0282828D01*
X0155291Y0282697D01*
X0155197Y0282569D01*
X0155099Y0282443D01*
X0154998Y0282319D01*
X0154894Y0282198D01*
X0154787Y0282080D01*
X0154677Y0281964D01*
X0154564Y0281851D01*
X0154448Y0281741D01*
X0154330Y0281634D01*
X0154209Y0281530D01*
X0154085Y0281429D01*
X0153959Y0281331D01*
X0153831Y0281237D01*
X0153700Y0281145D01*
X0153567Y0281057D01*
X0153432Y0280972D01*
X0153295Y0280890D01*
X0153156Y0280812D01*
X0153015Y0280738D01*
X0152872Y0280667D01*
X0152727Y0280599D01*
X0152581Y0280536D01*
X0152433Y0280475D01*
X0152284Y0280419D01*
X0152133Y0280366D01*
X0151981Y0280317D01*
X0151828Y0280272D01*
X0151674Y0280231D01*
X0151519Y0280193D01*
X0151363Y0280160D01*
X0151206Y0280130D01*
X0151049Y0280104D01*
X0150891Y0280083D01*
X0150732Y0280065D01*
X0150573Y0280051D01*
X0150414Y0280041D01*
X0150255Y0280035D01*
X0150095Y0280033D01*
X0149935Y0280035D01*
X0149776Y0280041D01*
X0149617Y0280051D01*
X0149458Y0280065D01*
X0149299Y0280083D01*
X0149141Y0280104D01*
X0148984Y0280130D01*
X0148827Y0280160D01*
X0148671Y0280193D01*
X0148516Y0280231D01*
X0148362Y0280272D01*
X0148209Y0280317D01*
X0148057Y0280366D01*
X0147906Y0280419D01*
X0147757Y0280475D01*
X0147609Y0280536D01*
X0147463Y0280599D01*
X0147318Y0280667D01*
X0147175Y0280738D01*
X0147034Y0280812D01*
X0146895Y0280890D01*
X0146758Y0280972D01*
X0146623Y0281057D01*
X0146490Y0281145D01*
X0146359Y0281237D01*
X0146231Y0281331D01*
X0146105Y0281429D01*
X0145981Y0281530D01*
X0145860Y0281634D01*
X0145742Y0281741D01*
X0145626Y0281851D01*
X0145513Y0281964D01*
X0145403Y0282080D01*
X0145296Y0282198D01*
X0145192Y0282319D01*
X0145091Y0282443D01*
X0144993Y0282569D01*
X0144899Y0282697D01*
X0144807Y0282828D01*
X0144719Y0282961D01*
X0144634Y0283096D01*
X0144552Y0283233D01*
X0144474Y0283372D01*
X0144400Y0283513D01*
X0144329Y0283656D01*
X0144261Y0283801D01*
X0144198Y0283947D01*
X0144137Y0284095D01*
X0144081Y0284244D01*
X0144028Y0284395D01*
X0143979Y0284547D01*
X0143934Y0284700D01*
X0143893Y0284854D01*
X0143855Y0285009D01*
X0143822Y0285165D01*
X0143792Y0285322D01*
X0143766Y0285479D01*
X0143745Y0285637D01*
X0143727Y0285796D01*
X0143713Y0285955D01*
X0143703Y0286114D01*
X0143697Y0286273D01*
X0143695Y0286433D01*
X0070046Y0288933D02*
X0070048Y0289091D01*
X0070054Y0289249D01*
X0070064Y0289407D01*
X0070078Y0289565D01*
X0070096Y0289722D01*
X0070117Y0289879D01*
X0070143Y0290035D01*
X0070173Y0290191D01*
X0070206Y0290346D01*
X0070244Y0290499D01*
X0070285Y0290652D01*
X0070330Y0290804D01*
X0070379Y0290955D01*
X0070432Y0291104D01*
X0070488Y0291252D01*
X0070548Y0291398D01*
X0070612Y0291543D01*
X0070680Y0291686D01*
X0070751Y0291828D01*
X0070825Y0291968D01*
X0070903Y0292105D01*
X0070985Y0292241D01*
X0071069Y0292375D01*
X0071158Y0292506D01*
X0071249Y0292635D01*
X0071344Y0292762D01*
X0071441Y0292887D01*
X0071542Y0293009D01*
X0071646Y0293128D01*
X0071753Y0293245D01*
X0071863Y0293359D01*
X0071976Y0293470D01*
X0072091Y0293579D01*
X0072209Y0293684D01*
X0072330Y0293786D01*
X0072453Y0293886D01*
X0072579Y0293982D01*
X0072707Y0294075D01*
X0072837Y0294165D01*
X0072970Y0294251D01*
X0073105Y0294335D01*
X0073241Y0294414D01*
X0073380Y0294491D01*
X0073521Y0294563D01*
X0073663Y0294633D01*
X0073807Y0294698D01*
X0073953Y0294760D01*
X0074100Y0294818D01*
X0074249Y0294873D01*
X0074399Y0294924D01*
X0074550Y0294971D01*
X0074702Y0295014D01*
X0074855Y0295053D01*
X0075010Y0295089D01*
X0075165Y0295120D01*
X0075321Y0295148D01*
X0075477Y0295172D01*
X0075634Y0295192D01*
X0075792Y0295208D01*
X0075949Y0295220D01*
X0076108Y0295228D01*
X0076266Y0295232D01*
X0076424Y0295232D01*
X0076582Y0295228D01*
X0076741Y0295220D01*
X0076898Y0295208D01*
X0077056Y0295192D01*
X0077213Y0295172D01*
X0077369Y0295148D01*
X0077525Y0295120D01*
X0077680Y0295089D01*
X0077835Y0295053D01*
X0077988Y0295014D01*
X0078140Y0294971D01*
X0078291Y0294924D01*
X0078441Y0294873D01*
X0078590Y0294818D01*
X0078737Y0294760D01*
X0078883Y0294698D01*
X0079027Y0294633D01*
X0079169Y0294563D01*
X0079310Y0294491D01*
X0079449Y0294414D01*
X0079585Y0294335D01*
X0079720Y0294251D01*
X0079853Y0294165D01*
X0079983Y0294075D01*
X0080111Y0293982D01*
X0080237Y0293886D01*
X0080360Y0293786D01*
X0080481Y0293684D01*
X0080599Y0293579D01*
X0080714Y0293470D01*
X0080827Y0293359D01*
X0080937Y0293245D01*
X0081044Y0293128D01*
X0081148Y0293009D01*
X0081249Y0292887D01*
X0081346Y0292762D01*
X0081441Y0292635D01*
X0081532Y0292506D01*
X0081621Y0292375D01*
X0081705Y0292241D01*
X0081787Y0292105D01*
X0081865Y0291968D01*
X0081939Y0291828D01*
X0082010Y0291686D01*
X0082078Y0291543D01*
X0082142Y0291398D01*
X0082202Y0291252D01*
X0082258Y0291104D01*
X0082311Y0290955D01*
X0082360Y0290804D01*
X0082405Y0290652D01*
X0082446Y0290499D01*
X0082484Y0290346D01*
X0082517Y0290191D01*
X0082547Y0290035D01*
X0082573Y0289879D01*
X0082594Y0289722D01*
X0082612Y0289565D01*
X0082626Y0289407D01*
X0082636Y0289249D01*
X0082642Y0289091D01*
X0082644Y0288933D01*
X0082642Y0288775D01*
X0082636Y0288617D01*
X0082626Y0288459D01*
X0082612Y0288301D01*
X0082594Y0288144D01*
X0082573Y0287987D01*
X0082547Y0287831D01*
X0082517Y0287675D01*
X0082484Y0287520D01*
X0082446Y0287367D01*
X0082405Y0287214D01*
X0082360Y0287062D01*
X0082311Y0286911D01*
X0082258Y0286762D01*
X0082202Y0286614D01*
X0082142Y0286468D01*
X0082078Y0286323D01*
X0082010Y0286180D01*
X0081939Y0286038D01*
X0081865Y0285898D01*
X0081787Y0285761D01*
X0081705Y0285625D01*
X0081621Y0285491D01*
X0081532Y0285360D01*
X0081441Y0285231D01*
X0081346Y0285104D01*
X0081249Y0284979D01*
X0081148Y0284857D01*
X0081044Y0284738D01*
X0080937Y0284621D01*
X0080827Y0284507D01*
X0080714Y0284396D01*
X0080599Y0284287D01*
X0080481Y0284182D01*
X0080360Y0284080D01*
X0080237Y0283980D01*
X0080111Y0283884D01*
X0079983Y0283791D01*
X0079853Y0283701D01*
X0079720Y0283615D01*
X0079585Y0283531D01*
X0079449Y0283452D01*
X0079310Y0283375D01*
X0079169Y0283303D01*
X0079027Y0283233D01*
X0078883Y0283168D01*
X0078737Y0283106D01*
X0078590Y0283048D01*
X0078441Y0282993D01*
X0078291Y0282942D01*
X0078140Y0282895D01*
X0077988Y0282852D01*
X0077835Y0282813D01*
X0077680Y0282777D01*
X0077525Y0282746D01*
X0077369Y0282718D01*
X0077213Y0282694D01*
X0077056Y0282674D01*
X0076898Y0282658D01*
X0076741Y0282646D01*
X0076582Y0282638D01*
X0076424Y0282634D01*
X0076266Y0282634D01*
X0076108Y0282638D01*
X0075949Y0282646D01*
X0075792Y0282658D01*
X0075634Y0282674D01*
X0075477Y0282694D01*
X0075321Y0282718D01*
X0075165Y0282746D01*
X0075010Y0282777D01*
X0074855Y0282813D01*
X0074702Y0282852D01*
X0074550Y0282895D01*
X0074399Y0282942D01*
X0074249Y0282993D01*
X0074100Y0283048D01*
X0073953Y0283106D01*
X0073807Y0283168D01*
X0073663Y0283233D01*
X0073521Y0283303D01*
X0073380Y0283375D01*
X0073241Y0283452D01*
X0073105Y0283531D01*
X0072970Y0283615D01*
X0072837Y0283701D01*
X0072707Y0283791D01*
X0072579Y0283884D01*
X0072453Y0283980D01*
X0072330Y0284080D01*
X0072209Y0284182D01*
X0072091Y0284287D01*
X0071976Y0284396D01*
X0071863Y0284507D01*
X0071753Y0284621D01*
X0071646Y0284738D01*
X0071542Y0284857D01*
X0071441Y0284979D01*
X0071344Y0285104D01*
X0071249Y0285231D01*
X0071158Y0285360D01*
X0071069Y0285491D01*
X0070985Y0285625D01*
X0070903Y0285761D01*
X0070825Y0285898D01*
X0070751Y0286038D01*
X0070680Y0286180D01*
X0070612Y0286323D01*
X0070548Y0286468D01*
X0070488Y0286614D01*
X0070432Y0286762D01*
X0070379Y0286911D01*
X0070330Y0287062D01*
X0070285Y0287214D01*
X0070244Y0287367D01*
X0070206Y0287520D01*
X0070173Y0287675D01*
X0070143Y0287831D01*
X0070117Y0287987D01*
X0070096Y0288144D01*
X0070078Y0288301D01*
X0070064Y0288459D01*
X0070054Y0288617D01*
X0070048Y0288775D01*
X0070046Y0288933D01*
X0066345Y0215183D02*
X0066348Y0214972D01*
X0066355Y0214760D01*
X0066368Y0214549D01*
X0066386Y0214339D01*
X0066409Y0214128D01*
X0066437Y0213919D01*
X0066470Y0213710D01*
X0066508Y0213502D01*
X0066551Y0213295D01*
X0066599Y0213089D01*
X0066652Y0212884D01*
X0066710Y0212681D01*
X0066773Y0212479D01*
X0066841Y0212279D01*
X0066914Y0212080D01*
X0066991Y0211883D01*
X0067073Y0211689D01*
X0067160Y0211496D01*
X0067251Y0211305D01*
X0067347Y0211117D01*
X0067448Y0210931D01*
X0067553Y0210747D01*
X0067662Y0210566D01*
X0067776Y0210388D01*
X0067894Y0210212D01*
X0068016Y0210040D01*
X0068142Y0209870D01*
X0068273Y0209704D01*
X0068407Y0209541D01*
X0068546Y0209381D01*
X0068688Y0209224D01*
X0068834Y0209071D01*
X0068983Y0208922D01*
X0069136Y0208776D01*
X0069293Y0208634D01*
X0069453Y0208495D01*
X0069616Y0208361D01*
X0069782Y0208230D01*
X0069952Y0208104D01*
X0070124Y0207982D01*
X0070300Y0207864D01*
X0070478Y0207750D01*
X0070659Y0207641D01*
X0070843Y0207536D01*
X0071029Y0207435D01*
X0071217Y0207339D01*
X0071408Y0207248D01*
X0071601Y0207161D01*
X0071795Y0207079D01*
X0071992Y0207002D01*
X0072191Y0206929D01*
X0072391Y0206861D01*
X0072593Y0206798D01*
X0072796Y0206740D01*
X0073001Y0206687D01*
X0073207Y0206639D01*
X0073414Y0206596D01*
X0073622Y0206558D01*
X0073831Y0206525D01*
X0074040Y0206497D01*
X0074251Y0206474D01*
X0074461Y0206456D01*
X0074672Y0206443D01*
X0074884Y0206436D01*
X0075095Y0206433D01*
D11*
X0076345Y0288933D03*
X0150095Y0216433D03*
X0135095Y0182683D03*
X0076345Y0060183D03*
D12*
X0072566Y0083057D03*
X0072566Y0090931D03*
X0072566Y0098805D03*
X0072566Y0106679D03*
X0072566Y0114553D03*
X0072566Y0122427D03*
X0072566Y0130301D03*
X0072566Y0138175D03*
X0136345Y0138175D03*
X0136345Y0130301D03*
X0136345Y0122427D03*
X0136345Y0114553D03*
X0136345Y0106679D03*
X0136345Y0098805D03*
X0136345Y0090931D03*
X0136345Y0083057D03*
D13*
X0124534Y0075183D03*
X0116660Y0075183D03*
X0108786Y0075183D03*
X0100912Y0075183D03*
X0093038Y0075183D03*
X0085164Y0075183D03*
D14*
X0141345Y0076423D03*
X0141345Y0068943D03*
X0151345Y0073943D03*
X0151345Y0081423D03*
X0153845Y0111443D03*
X0153845Y0118923D03*
D15*
X0153095Y0093933D03*
X0147095Y0093933D03*
D16*
X0150095Y0093933D03*
D17*
X0151345Y0166325D03*
X0151345Y0172230D03*
X0151345Y0178136D03*
X0151345Y0184041D03*
X0133953Y0213933D03*
X0128048Y0213933D03*
X0122142Y0213933D03*
X0116237Y0213933D03*
D18*
X0125095Y0246433D03*
X0125095Y0256433D03*
X0125095Y0266433D03*
X0125095Y0276433D03*
X0115095Y0271433D03*
X0115095Y0261433D03*
X0115095Y0251433D03*
X0115095Y0281433D03*
D19*
X0150095Y0286433D03*
X0150095Y0241433D03*
D20*
X0101266Y0243933D03*
X0101266Y0236059D03*
X0101266Y0228382D03*
X0091424Y0228382D03*
X0091424Y0234878D03*
X0091424Y0242752D03*
X0091424Y0250626D03*
X0091424Y0259484D03*
X0101266Y0259484D03*
X0101266Y0251807D03*
D21*
X0076463Y0243933D03*
D22*
X0079613Y0215390D03*
X0079613Y0272476D03*
D23*
X0126345Y0229133D02*
X0126345Y0223733D01*
X0136345Y0223733D02*
X0136345Y0229133D01*
D24*
X0132595Y0066333D02*
X0132595Y0061533D01*
X0122595Y0061533D02*
X0122595Y0066333D01*
X0112595Y0066333D02*
X0112595Y0061533D01*
X0102595Y0061533D02*
X0102595Y0066333D01*
X0092595Y0066333D02*
X0092595Y0061533D01*
M02*
