%
M48
M72
T01C0.01969
T02C0.02362
T03C0.02756
T04C0.03150
T05C0.03200
T06C0.03500
T07C0.03600
T08C0.08661
T09C0.09843
T10C0.12598
T11C0.12800
%
T01
X51970Y43800
X67595Y39425
X83220Y75050
X93845Y84425
X101970Y86925
X125720Y75675
X127595Y71925
X131970Y73175
X136345Y76300
X126970Y59425
X121970Y59425
X110095Y63800
X150720Y43800
X166345Y39425
X208845Y63800
X220720Y59425
X225720Y59425
X226345Y71925
X224470Y75675
X230720Y73175
X235095Y76300
X233845Y100675
X215095Y118175
X197595Y126300
X217595Y131925
X234470Y147550
X270095Y147550
X276345Y147550
X282595Y147550
X296345Y126300
X313845Y118175
X316345Y131925
X333220Y147550
X368845Y147550
X375095Y147550
X381345Y147550
X395095Y126300
X412595Y118175
X415095Y131925
X431970Y147550
X431345Y100675
X432595Y76300
X428220Y73175
X423845Y71925
X421970Y75675
X406345Y63800
X418220Y59425
X423220Y59425
X390095Y84425
X398220Y86925
X379470Y75050
X348220Y43800
X363845Y39425
X324470Y59425
X319470Y59425
X307595Y63800
X325095Y71925
X323220Y75675
X329470Y73175
X333845Y76300
X332595Y100675
X299470Y86925
X291345Y84425
X280720Y75050
X249470Y43800
X265095Y39425
X200720Y86925
X192595Y84425
X181970Y75050
X135095Y100675
X116345Y118175
X118845Y131925
X98845Y126300
X85095Y147550
X78845Y147550
X72595Y147550
X72595Y115675
X135720Y147550
X171345Y147550
X177595Y147550
X183845Y147550
X171345Y115675
X270095Y115675
X368845Y115675
T02
X381345Y71300
X386345Y66300
X391345Y71300
X370095Y66300
X365095Y65050
X340095Y67550
X340095Y71300
X292595Y71300
X287595Y66300
X282595Y71300
X271345Y66300
X266345Y65050
X241345Y67550
X241345Y71300
X193845Y71300
X188845Y66300
X183845Y71300
X172595Y66300
X167595Y65050
X142595Y67550
X142595Y71300
X95095Y71300
X90095Y66300
X85095Y71300
X73845Y66300
X68845Y65050
X142595Y230050
X142595Y233800
X241345Y233800
X241345Y230050
X340095Y230050
X340095Y233800
T03
X311453Y186300
X305548Y186300
X299642Y186300
X293737Y186300
X328845Y156408
X328845Y150503
X328845Y144597
X328845Y138692
X392487Y186300
X398392Y186300
X404298Y186300
X410203Y186300
X427595Y156408
X427595Y150503
X427595Y144597
X427595Y138692
X230095Y138692
X230095Y144597
X230095Y150503
X230095Y156408
X212703Y186300
X206798Y186300
X200892Y186300
X194987Y186300
X131345Y156408
X131345Y150503
X131345Y144597
X131345Y138692
X113953Y186300
X108048Y186300
X102142Y186300
X96237Y186300
T04
X81266Y200749
X71424Y200749
X71424Y207245
X81266Y208426
X81266Y216300
X81266Y224174
X81266Y231851
X71424Y231851
X71424Y222993
X71424Y215119
X170174Y215119
X170174Y222993
X170174Y231851
X180016Y231851
X180016Y224174
X180016Y216300
X180016Y208426
X170174Y207245
X170174Y200749
X180016Y200749
X268924Y200749
X268924Y207245
X278766Y208426
X278766Y216300
X278766Y224174
X278766Y231851
X268924Y231851
X268924Y222993
X268924Y215119
X278766Y200749
X367674Y200749
X367674Y207245
X377516Y208426
X377516Y216300
X377516Y224174
X377516Y231851
X367674Y231851
X367674Y222993
X367674Y215119
X377516Y200749
T05
X378845Y36300
X368845Y36300
X388845Y36300
X398845Y36300
X408845Y36300
X310095Y36300
X300095Y36300
X290095Y36300
X280095Y36300
X270095Y36300
X211345Y36300
X201345Y36300
X191345Y36300
X181345Y36300
X171345Y36300
X112595Y36300
X102595Y36300
X92595Y36300
X82595Y36300
X72595Y36300
T06
X105095Y218800
X105095Y228800
X95095Y233800
X105095Y238800
X95095Y243800
X95095Y253800
X105095Y248800
X95095Y223800
X193845Y223800
X203845Y218800
X203845Y228800
X193845Y233800
X203845Y238800
X193845Y243800
X193845Y253800
X203845Y248800
X292595Y243800
X292595Y253800
X302595Y248800
X302595Y238800
X302595Y228800
X302595Y218800
X292595Y223800
X292595Y233800
X391345Y233800
X401345Y228800
X401345Y218800
X391345Y223800
X401345Y238800
X391345Y243800
X391345Y253800
X401345Y248800
T07
X402595Y198800
X412595Y198800
X313845Y198800
X303845Y198800
X215095Y198800
X205095Y198800
X116345Y198800
X106345Y198800
T08
X59613Y187757
X59613Y244843
X158363Y244843
X158363Y187757
X257113Y187757
X257113Y244843
X355863Y244843
X355863Y187757
T09
X352713Y216300
X253963Y216300
X155213Y216300
X56463Y216300
T10
X56345Y32550
X155095Y32550
X253845Y32550
X352595Y32550
X312595Y155050
X327595Y188800
X411345Y155050
X426345Y188800
X352595Y261300
X253845Y261300
X228845Y188800
X213845Y155050
X130095Y188800
X115095Y155050
X155095Y261300
X56345Y261300
T11
X130095Y258800
X130095Y213800
X228845Y213800
X228845Y258800
X327595Y258800
X327595Y213800
X426345Y213800
X426345Y258800
M30
