%
M48
M72
T01C0.02362
T02C0.03200
T03C0.03500
T04C0.03600
T05C0.04000
T06C0.12598
T07C0.12800
%
T01
X150000Y25000
X170000Y180000
X60000Y37500
X182500Y127500
X170000Y130000
T02
X70000Y100000
X70000Y110000
X140000Y80000
X150000Y80000
X192500Y95000
X192500Y105000
X192500Y85000
X192500Y75000
X90000Y192500
X80000Y192500
X60000Y192500
X70000Y192500
X205000Y50000
X215000Y50000
X160000Y70000
X150000Y70000
X130000Y40000
X140000Y40000
X140000Y70000
X130000Y70000
X150000Y40000
X160000Y40000
X80000Y90000
X90000Y90000
X120000Y90000
X130000Y90000
X100000Y90000
X110000Y90000
X140000Y90000
X150000Y90000
X160000Y90000
X160000Y120000
X150000Y120000
X140000Y120000
X130000Y120000
X120000Y120000
X110000Y120000
X100000Y120000
X90000Y120000
X80000Y120000
X160000Y180000
X150000Y180000
X100000Y180000
X90000Y180000
X140000Y180000
X130000Y180000
X110000Y180000
X120000Y180000
X80000Y180000
X70000Y180000
X60000Y180000
X50000Y180000
X40000Y180000
X30000Y180000
X30000Y150000
X40000Y150000
X50000Y150000
X60000Y150000
X70000Y150000
X80000Y150000
X90000Y150000
X100000Y150000
X110000Y150000
X120000Y150000
X130000Y150000
X140000Y150000
X150000Y150000
X160000Y150000
X180000Y150000
X190000Y150000
X220000Y150000
X230000Y150000
X200000Y150000
X210000Y150000
X240000Y150000
X250000Y150000
X260000Y150000
X260000Y180000
X250000Y180000
X240000Y180000
X230000Y180000
X220000Y180000
X210000Y180000
X200000Y180000
X190000Y180000
X180000Y180000
X20000Y140000
X20000Y130000
X177500Y80500
X177500Y99500
X65500Y207500
X84500Y207500
X285000Y142500
X285000Y102500
X295000Y142500
X295000Y102500
X305000Y142500
X305000Y102500
X315000Y142500
X315000Y102500
X140000Y20000
X100000Y20000
X20000Y70000
X20000Y110000
X30000Y90000
X70000Y90000
X285000Y190000
X285000Y150000
X295000Y190000
X295000Y150000
X305000Y190000
X305000Y150000
X315000Y190000
X315000Y150000
X245000Y50000
X235000Y50000
T03
X56555Y54685
X51555Y44685
X46555Y54685
X41555Y44685
X61555Y44685
X66555Y54685
X71555Y44685
X76555Y54685
X292776Y54685
X287776Y44685
X282776Y54685
X277776Y44685
X297776Y44685
X302776Y54685
X307776Y44685
X312776Y54685
T04
X160000Y20000
X160000Y30000
T05
X235000Y77500
X225000Y77500
X215000Y77500
X30000Y100000
X40000Y100000
X50000Y100000
X30000Y110000
X40000Y110000
X50000Y110000
X145000Y217500
X155000Y217500
X165000Y217500
X185000Y217500
X195000Y217500
X205000Y217500
X225000Y217500
X235000Y217500
X245000Y217500
X265000Y217500
X275000Y217500
X285000Y217500
X215000Y21250
X225000Y21250
X235000Y21250
X177500Y21250
X187500Y21250
X197500Y21250
X340000Y110000
X340000Y120000
X340000Y130000
X340000Y140000
T06
X11811Y11811
X342520Y11811
X342520Y224409
X11811Y224409
T07
X36555Y19685
X81555Y19685
X272776Y19685
X317776Y19685
M30
