G75*
%MOIN*%
%OFA0B0*%
%FSLAX25Y25*%
%IPPOS*%
%LPD*%
%AMOC8*
5,1,8,0,0,1.08239X$1,22.5*
%
%ADD10C,0.00000*%
%ADD11C,0.00600*%
%ADD12OC8,0.06300*%
%ADD13C,0.06300*%
%ADD14C,0.05200*%
%ADD15C,0.06000*%
%ADD16C,0.05600*%
%ADD17OC8,0.05200*%
%ADD18C,0.05200*%
%ADD19C,0.06000*%
%ADD20OC8,0.06000*%
%ADD21C,0.05500*%
%ADD22C,0.02400*%
%ADD23C,0.03200*%
%ADD24C,0.01600*%
%ADD25C,0.03562*%
%ADD26C,0.05000*%
D10*
X0017043Y0012215D02*
X0351688Y0012215D01*
X0351688Y0012214D02*
X0351926Y0012217D01*
X0352164Y0012225D01*
X0352401Y0012240D01*
X0352638Y0012260D01*
X0352874Y0012286D01*
X0353110Y0012317D01*
X0353345Y0012354D01*
X0353579Y0012397D01*
X0353812Y0012446D01*
X0354044Y0012500D01*
X0354274Y0012560D01*
X0354503Y0012625D01*
X0354730Y0012696D01*
X0354955Y0012772D01*
X0355178Y0012854D01*
X0355400Y0012941D01*
X0355619Y0013033D01*
X0355836Y0013131D01*
X0356050Y0013233D01*
X0356262Y0013341D01*
X0356472Y0013455D01*
X0356678Y0013573D01*
X0356882Y0013696D01*
X0357082Y0013824D01*
X0357279Y0013956D01*
X0357474Y0014094D01*
X0357664Y0014236D01*
X0357852Y0014383D01*
X0358035Y0014534D01*
X0358215Y0014689D01*
X0358391Y0014849D01*
X0358563Y0015013D01*
X0358732Y0015182D01*
X0358896Y0015354D01*
X0359056Y0015530D01*
X0359211Y0015710D01*
X0359362Y0015893D01*
X0359509Y0016081D01*
X0359651Y0016271D01*
X0359789Y0016466D01*
X0359921Y0016663D01*
X0360049Y0016863D01*
X0360172Y0017067D01*
X0360290Y0017273D01*
X0360404Y0017483D01*
X0360512Y0017695D01*
X0360614Y0017909D01*
X0360712Y0018126D01*
X0360804Y0018345D01*
X0360891Y0018567D01*
X0360973Y0018790D01*
X0361049Y0019015D01*
X0361120Y0019242D01*
X0361185Y0019471D01*
X0361245Y0019701D01*
X0361299Y0019933D01*
X0361348Y0020166D01*
X0361391Y0020400D01*
X0361428Y0020635D01*
X0361459Y0020871D01*
X0361485Y0021107D01*
X0361505Y0021344D01*
X0361520Y0021581D01*
X0361528Y0021819D01*
X0361531Y0022057D01*
X0361531Y0238593D01*
X0361528Y0238831D01*
X0361520Y0239069D01*
X0361505Y0239306D01*
X0361485Y0239543D01*
X0361459Y0239779D01*
X0361428Y0240015D01*
X0361391Y0240250D01*
X0361348Y0240484D01*
X0361299Y0240717D01*
X0361245Y0240949D01*
X0361185Y0241179D01*
X0361120Y0241408D01*
X0361049Y0241635D01*
X0360973Y0241860D01*
X0360891Y0242083D01*
X0360804Y0242305D01*
X0360712Y0242524D01*
X0360614Y0242741D01*
X0360512Y0242955D01*
X0360404Y0243167D01*
X0360290Y0243377D01*
X0360172Y0243583D01*
X0360049Y0243787D01*
X0359921Y0243987D01*
X0359789Y0244184D01*
X0359651Y0244379D01*
X0359509Y0244569D01*
X0359362Y0244757D01*
X0359211Y0244940D01*
X0359056Y0245120D01*
X0358896Y0245296D01*
X0358732Y0245468D01*
X0358563Y0245637D01*
X0358391Y0245801D01*
X0358215Y0245961D01*
X0358035Y0246116D01*
X0357852Y0246267D01*
X0357664Y0246414D01*
X0357474Y0246556D01*
X0357279Y0246694D01*
X0357082Y0246826D01*
X0356882Y0246954D01*
X0356678Y0247077D01*
X0356472Y0247195D01*
X0356262Y0247309D01*
X0356050Y0247417D01*
X0355836Y0247519D01*
X0355619Y0247617D01*
X0355400Y0247709D01*
X0355178Y0247796D01*
X0354955Y0247878D01*
X0354730Y0247954D01*
X0354503Y0248025D01*
X0354274Y0248090D01*
X0354044Y0248150D01*
X0353812Y0248204D01*
X0353579Y0248253D01*
X0353345Y0248296D01*
X0353110Y0248333D01*
X0352874Y0248364D01*
X0352638Y0248390D01*
X0352401Y0248410D01*
X0352164Y0248425D01*
X0351926Y0248433D01*
X0351688Y0248436D01*
X0351688Y0248435D02*
X0017043Y0248435D01*
X0017043Y0248436D02*
X0016805Y0248433D01*
X0016567Y0248425D01*
X0016330Y0248410D01*
X0016093Y0248390D01*
X0015857Y0248364D01*
X0015621Y0248333D01*
X0015386Y0248296D01*
X0015152Y0248253D01*
X0014919Y0248204D01*
X0014687Y0248150D01*
X0014457Y0248090D01*
X0014228Y0248025D01*
X0014001Y0247954D01*
X0013776Y0247878D01*
X0013553Y0247796D01*
X0013331Y0247709D01*
X0013112Y0247617D01*
X0012895Y0247519D01*
X0012681Y0247417D01*
X0012469Y0247309D01*
X0012259Y0247195D01*
X0012053Y0247077D01*
X0011849Y0246954D01*
X0011649Y0246826D01*
X0011452Y0246694D01*
X0011257Y0246556D01*
X0011067Y0246414D01*
X0010879Y0246267D01*
X0010696Y0246116D01*
X0010516Y0245961D01*
X0010340Y0245801D01*
X0010168Y0245637D01*
X0009999Y0245468D01*
X0009835Y0245296D01*
X0009675Y0245120D01*
X0009520Y0244940D01*
X0009369Y0244757D01*
X0009222Y0244569D01*
X0009080Y0244379D01*
X0008942Y0244184D01*
X0008810Y0243987D01*
X0008682Y0243787D01*
X0008559Y0243583D01*
X0008441Y0243377D01*
X0008327Y0243167D01*
X0008219Y0242955D01*
X0008117Y0242741D01*
X0008019Y0242524D01*
X0007927Y0242305D01*
X0007840Y0242083D01*
X0007758Y0241860D01*
X0007682Y0241635D01*
X0007611Y0241408D01*
X0007546Y0241179D01*
X0007486Y0240949D01*
X0007432Y0240717D01*
X0007383Y0240484D01*
X0007340Y0240250D01*
X0007303Y0240015D01*
X0007272Y0239779D01*
X0007246Y0239543D01*
X0007226Y0239306D01*
X0007211Y0239069D01*
X0007203Y0238831D01*
X0007200Y0238593D01*
X0007200Y0022057D01*
X0007203Y0021819D01*
X0007211Y0021581D01*
X0007226Y0021344D01*
X0007246Y0021107D01*
X0007272Y0020871D01*
X0007303Y0020635D01*
X0007340Y0020400D01*
X0007383Y0020166D01*
X0007432Y0019933D01*
X0007486Y0019701D01*
X0007546Y0019471D01*
X0007611Y0019242D01*
X0007682Y0019015D01*
X0007758Y0018790D01*
X0007840Y0018567D01*
X0007927Y0018345D01*
X0008019Y0018126D01*
X0008117Y0017909D01*
X0008219Y0017695D01*
X0008327Y0017483D01*
X0008441Y0017273D01*
X0008559Y0017067D01*
X0008682Y0016863D01*
X0008810Y0016663D01*
X0008942Y0016466D01*
X0009080Y0016271D01*
X0009222Y0016081D01*
X0009369Y0015893D01*
X0009520Y0015710D01*
X0009675Y0015530D01*
X0009835Y0015354D01*
X0009999Y0015182D01*
X0010168Y0015013D01*
X0010340Y0014849D01*
X0010516Y0014689D01*
X0010696Y0014534D01*
X0010879Y0014383D01*
X0011067Y0014236D01*
X0011257Y0014094D01*
X0011452Y0013956D01*
X0011649Y0013824D01*
X0011849Y0013696D01*
X0012053Y0013573D01*
X0012259Y0013455D01*
X0012469Y0013341D01*
X0012681Y0013233D01*
X0012895Y0013131D01*
X0013112Y0013033D01*
X0013331Y0012941D01*
X0013553Y0012854D01*
X0013776Y0012772D01*
X0014001Y0012696D01*
X0014228Y0012625D01*
X0014457Y0012560D01*
X0014687Y0012500D01*
X0014919Y0012446D01*
X0015152Y0012397D01*
X0015386Y0012354D01*
X0015621Y0012317D01*
X0015857Y0012286D01*
X0016093Y0012260D01*
X0016330Y0012240D01*
X0016567Y0012225D01*
X0016805Y0012217D01*
X0017043Y0012214D01*
X0012712Y0024026D02*
X0012714Y0024184D01*
X0012720Y0024342D01*
X0012730Y0024500D01*
X0012744Y0024658D01*
X0012762Y0024815D01*
X0012783Y0024972D01*
X0012809Y0025128D01*
X0012839Y0025284D01*
X0012872Y0025439D01*
X0012910Y0025592D01*
X0012951Y0025745D01*
X0012996Y0025897D01*
X0013045Y0026048D01*
X0013098Y0026197D01*
X0013154Y0026345D01*
X0013214Y0026491D01*
X0013278Y0026636D01*
X0013346Y0026779D01*
X0013417Y0026921D01*
X0013491Y0027061D01*
X0013569Y0027198D01*
X0013651Y0027334D01*
X0013735Y0027468D01*
X0013824Y0027599D01*
X0013915Y0027728D01*
X0014010Y0027855D01*
X0014107Y0027980D01*
X0014208Y0028102D01*
X0014312Y0028221D01*
X0014419Y0028338D01*
X0014529Y0028452D01*
X0014642Y0028563D01*
X0014757Y0028672D01*
X0014875Y0028777D01*
X0014996Y0028879D01*
X0015119Y0028979D01*
X0015245Y0029075D01*
X0015373Y0029168D01*
X0015503Y0029258D01*
X0015636Y0029344D01*
X0015771Y0029428D01*
X0015907Y0029507D01*
X0016046Y0029584D01*
X0016187Y0029656D01*
X0016329Y0029726D01*
X0016473Y0029791D01*
X0016619Y0029853D01*
X0016766Y0029911D01*
X0016915Y0029966D01*
X0017065Y0030017D01*
X0017216Y0030064D01*
X0017368Y0030107D01*
X0017521Y0030146D01*
X0017676Y0030182D01*
X0017831Y0030213D01*
X0017987Y0030241D01*
X0018143Y0030265D01*
X0018300Y0030285D01*
X0018458Y0030301D01*
X0018615Y0030313D01*
X0018774Y0030321D01*
X0018932Y0030325D01*
X0019090Y0030325D01*
X0019248Y0030321D01*
X0019407Y0030313D01*
X0019564Y0030301D01*
X0019722Y0030285D01*
X0019879Y0030265D01*
X0020035Y0030241D01*
X0020191Y0030213D01*
X0020346Y0030182D01*
X0020501Y0030146D01*
X0020654Y0030107D01*
X0020806Y0030064D01*
X0020957Y0030017D01*
X0021107Y0029966D01*
X0021256Y0029911D01*
X0021403Y0029853D01*
X0021549Y0029791D01*
X0021693Y0029726D01*
X0021835Y0029656D01*
X0021976Y0029584D01*
X0022115Y0029507D01*
X0022251Y0029428D01*
X0022386Y0029344D01*
X0022519Y0029258D01*
X0022649Y0029168D01*
X0022777Y0029075D01*
X0022903Y0028979D01*
X0023026Y0028879D01*
X0023147Y0028777D01*
X0023265Y0028672D01*
X0023380Y0028563D01*
X0023493Y0028452D01*
X0023603Y0028338D01*
X0023710Y0028221D01*
X0023814Y0028102D01*
X0023915Y0027980D01*
X0024012Y0027855D01*
X0024107Y0027728D01*
X0024198Y0027599D01*
X0024287Y0027468D01*
X0024371Y0027334D01*
X0024453Y0027198D01*
X0024531Y0027061D01*
X0024605Y0026921D01*
X0024676Y0026779D01*
X0024744Y0026636D01*
X0024808Y0026491D01*
X0024868Y0026345D01*
X0024924Y0026197D01*
X0024977Y0026048D01*
X0025026Y0025897D01*
X0025071Y0025745D01*
X0025112Y0025592D01*
X0025150Y0025439D01*
X0025183Y0025284D01*
X0025213Y0025128D01*
X0025239Y0024972D01*
X0025260Y0024815D01*
X0025278Y0024658D01*
X0025292Y0024500D01*
X0025302Y0024342D01*
X0025308Y0024184D01*
X0025310Y0024026D01*
X0025308Y0023868D01*
X0025302Y0023710D01*
X0025292Y0023552D01*
X0025278Y0023394D01*
X0025260Y0023237D01*
X0025239Y0023080D01*
X0025213Y0022924D01*
X0025183Y0022768D01*
X0025150Y0022613D01*
X0025112Y0022460D01*
X0025071Y0022307D01*
X0025026Y0022155D01*
X0024977Y0022004D01*
X0024924Y0021855D01*
X0024868Y0021707D01*
X0024808Y0021561D01*
X0024744Y0021416D01*
X0024676Y0021273D01*
X0024605Y0021131D01*
X0024531Y0020991D01*
X0024453Y0020854D01*
X0024371Y0020718D01*
X0024287Y0020584D01*
X0024198Y0020453D01*
X0024107Y0020324D01*
X0024012Y0020197D01*
X0023915Y0020072D01*
X0023814Y0019950D01*
X0023710Y0019831D01*
X0023603Y0019714D01*
X0023493Y0019600D01*
X0023380Y0019489D01*
X0023265Y0019380D01*
X0023147Y0019275D01*
X0023026Y0019173D01*
X0022903Y0019073D01*
X0022777Y0018977D01*
X0022649Y0018884D01*
X0022519Y0018794D01*
X0022386Y0018708D01*
X0022251Y0018624D01*
X0022115Y0018545D01*
X0021976Y0018468D01*
X0021835Y0018396D01*
X0021693Y0018326D01*
X0021549Y0018261D01*
X0021403Y0018199D01*
X0021256Y0018141D01*
X0021107Y0018086D01*
X0020957Y0018035D01*
X0020806Y0017988D01*
X0020654Y0017945D01*
X0020501Y0017906D01*
X0020346Y0017870D01*
X0020191Y0017839D01*
X0020035Y0017811D01*
X0019879Y0017787D01*
X0019722Y0017767D01*
X0019564Y0017751D01*
X0019407Y0017739D01*
X0019248Y0017731D01*
X0019090Y0017727D01*
X0018932Y0017727D01*
X0018774Y0017731D01*
X0018615Y0017739D01*
X0018458Y0017751D01*
X0018300Y0017767D01*
X0018143Y0017787D01*
X0017987Y0017811D01*
X0017831Y0017839D01*
X0017676Y0017870D01*
X0017521Y0017906D01*
X0017368Y0017945D01*
X0017216Y0017988D01*
X0017065Y0018035D01*
X0016915Y0018086D01*
X0016766Y0018141D01*
X0016619Y0018199D01*
X0016473Y0018261D01*
X0016329Y0018326D01*
X0016187Y0018396D01*
X0016046Y0018468D01*
X0015907Y0018545D01*
X0015771Y0018624D01*
X0015636Y0018708D01*
X0015503Y0018794D01*
X0015373Y0018884D01*
X0015245Y0018977D01*
X0015119Y0019073D01*
X0014996Y0019173D01*
X0014875Y0019275D01*
X0014757Y0019380D01*
X0014642Y0019489D01*
X0014529Y0019600D01*
X0014419Y0019714D01*
X0014312Y0019831D01*
X0014208Y0019950D01*
X0014107Y0020072D01*
X0014010Y0020197D01*
X0013915Y0020324D01*
X0013824Y0020453D01*
X0013735Y0020584D01*
X0013651Y0020718D01*
X0013569Y0020854D01*
X0013491Y0020991D01*
X0013417Y0021131D01*
X0013346Y0021273D01*
X0013278Y0021416D01*
X0013214Y0021561D01*
X0013154Y0021707D01*
X0013098Y0021855D01*
X0013045Y0022004D01*
X0012996Y0022155D01*
X0012951Y0022307D01*
X0012910Y0022460D01*
X0012872Y0022613D01*
X0012839Y0022768D01*
X0012809Y0022924D01*
X0012783Y0023080D01*
X0012762Y0023237D01*
X0012744Y0023394D01*
X0012730Y0023552D01*
X0012720Y0023710D01*
X0012714Y0023868D01*
X0012712Y0024026D01*
X0037355Y0031900D02*
X0037357Y0032060D01*
X0037363Y0032219D01*
X0037373Y0032378D01*
X0037387Y0032537D01*
X0037405Y0032696D01*
X0037426Y0032854D01*
X0037452Y0033011D01*
X0037482Y0033168D01*
X0037515Y0033324D01*
X0037553Y0033479D01*
X0037594Y0033633D01*
X0037639Y0033786D01*
X0037688Y0033938D01*
X0037741Y0034089D01*
X0037797Y0034238D01*
X0037858Y0034386D01*
X0037921Y0034532D01*
X0037989Y0034677D01*
X0038060Y0034820D01*
X0038134Y0034961D01*
X0038212Y0035100D01*
X0038294Y0035237D01*
X0038379Y0035372D01*
X0038467Y0035505D01*
X0038559Y0035636D01*
X0038653Y0035764D01*
X0038751Y0035890D01*
X0038852Y0036014D01*
X0038956Y0036135D01*
X0039063Y0036253D01*
X0039173Y0036369D01*
X0039286Y0036482D01*
X0039402Y0036592D01*
X0039520Y0036699D01*
X0039641Y0036803D01*
X0039765Y0036904D01*
X0039891Y0037002D01*
X0040019Y0037096D01*
X0040150Y0037188D01*
X0040283Y0037276D01*
X0040418Y0037361D01*
X0040555Y0037443D01*
X0040694Y0037521D01*
X0040835Y0037595D01*
X0040978Y0037666D01*
X0041123Y0037734D01*
X0041269Y0037797D01*
X0041417Y0037858D01*
X0041566Y0037914D01*
X0041717Y0037967D01*
X0041869Y0038016D01*
X0042022Y0038061D01*
X0042176Y0038102D01*
X0042331Y0038140D01*
X0042487Y0038173D01*
X0042644Y0038203D01*
X0042801Y0038229D01*
X0042959Y0038250D01*
X0043118Y0038268D01*
X0043277Y0038282D01*
X0043436Y0038292D01*
X0043595Y0038298D01*
X0043755Y0038300D01*
X0043915Y0038298D01*
X0044074Y0038292D01*
X0044233Y0038282D01*
X0044392Y0038268D01*
X0044551Y0038250D01*
X0044709Y0038229D01*
X0044866Y0038203D01*
X0045023Y0038173D01*
X0045179Y0038140D01*
X0045334Y0038102D01*
X0045488Y0038061D01*
X0045641Y0038016D01*
X0045793Y0037967D01*
X0045944Y0037914D01*
X0046093Y0037858D01*
X0046241Y0037797D01*
X0046387Y0037734D01*
X0046532Y0037666D01*
X0046675Y0037595D01*
X0046816Y0037521D01*
X0046955Y0037443D01*
X0047092Y0037361D01*
X0047227Y0037276D01*
X0047360Y0037188D01*
X0047491Y0037096D01*
X0047619Y0037002D01*
X0047745Y0036904D01*
X0047869Y0036803D01*
X0047990Y0036699D01*
X0048108Y0036592D01*
X0048224Y0036482D01*
X0048337Y0036369D01*
X0048447Y0036253D01*
X0048554Y0036135D01*
X0048658Y0036014D01*
X0048759Y0035890D01*
X0048857Y0035764D01*
X0048951Y0035636D01*
X0049043Y0035505D01*
X0049131Y0035372D01*
X0049216Y0035237D01*
X0049298Y0035100D01*
X0049376Y0034961D01*
X0049450Y0034820D01*
X0049521Y0034677D01*
X0049589Y0034532D01*
X0049652Y0034386D01*
X0049713Y0034238D01*
X0049769Y0034089D01*
X0049822Y0033938D01*
X0049871Y0033786D01*
X0049916Y0033633D01*
X0049957Y0033479D01*
X0049995Y0033324D01*
X0050028Y0033168D01*
X0050058Y0033011D01*
X0050084Y0032854D01*
X0050105Y0032696D01*
X0050123Y0032537D01*
X0050137Y0032378D01*
X0050147Y0032219D01*
X0050153Y0032060D01*
X0050155Y0031900D01*
X0050153Y0031740D01*
X0050147Y0031581D01*
X0050137Y0031422D01*
X0050123Y0031263D01*
X0050105Y0031104D01*
X0050084Y0030946D01*
X0050058Y0030789D01*
X0050028Y0030632D01*
X0049995Y0030476D01*
X0049957Y0030321D01*
X0049916Y0030167D01*
X0049871Y0030014D01*
X0049822Y0029862D01*
X0049769Y0029711D01*
X0049713Y0029562D01*
X0049652Y0029414D01*
X0049589Y0029268D01*
X0049521Y0029123D01*
X0049450Y0028980D01*
X0049376Y0028839D01*
X0049298Y0028700D01*
X0049216Y0028563D01*
X0049131Y0028428D01*
X0049043Y0028295D01*
X0048951Y0028164D01*
X0048857Y0028036D01*
X0048759Y0027910D01*
X0048658Y0027786D01*
X0048554Y0027665D01*
X0048447Y0027547D01*
X0048337Y0027431D01*
X0048224Y0027318D01*
X0048108Y0027208D01*
X0047990Y0027101D01*
X0047869Y0026997D01*
X0047745Y0026896D01*
X0047619Y0026798D01*
X0047491Y0026704D01*
X0047360Y0026612D01*
X0047227Y0026524D01*
X0047092Y0026439D01*
X0046955Y0026357D01*
X0046816Y0026279D01*
X0046675Y0026205D01*
X0046532Y0026134D01*
X0046387Y0026066D01*
X0046241Y0026003D01*
X0046093Y0025942D01*
X0045944Y0025886D01*
X0045793Y0025833D01*
X0045641Y0025784D01*
X0045488Y0025739D01*
X0045334Y0025698D01*
X0045179Y0025660D01*
X0045023Y0025627D01*
X0044866Y0025597D01*
X0044709Y0025571D01*
X0044551Y0025550D01*
X0044392Y0025532D01*
X0044233Y0025518D01*
X0044074Y0025508D01*
X0043915Y0025502D01*
X0043755Y0025500D01*
X0043595Y0025502D01*
X0043436Y0025508D01*
X0043277Y0025518D01*
X0043118Y0025532D01*
X0042959Y0025550D01*
X0042801Y0025571D01*
X0042644Y0025597D01*
X0042487Y0025627D01*
X0042331Y0025660D01*
X0042176Y0025698D01*
X0042022Y0025739D01*
X0041869Y0025784D01*
X0041717Y0025833D01*
X0041566Y0025886D01*
X0041417Y0025942D01*
X0041269Y0026003D01*
X0041123Y0026066D01*
X0040978Y0026134D01*
X0040835Y0026205D01*
X0040694Y0026279D01*
X0040555Y0026357D01*
X0040418Y0026439D01*
X0040283Y0026524D01*
X0040150Y0026612D01*
X0040019Y0026704D01*
X0039891Y0026798D01*
X0039765Y0026896D01*
X0039641Y0026997D01*
X0039520Y0027101D01*
X0039402Y0027208D01*
X0039286Y0027318D01*
X0039173Y0027431D01*
X0039063Y0027547D01*
X0038956Y0027665D01*
X0038852Y0027786D01*
X0038751Y0027910D01*
X0038653Y0028036D01*
X0038559Y0028164D01*
X0038467Y0028295D01*
X0038379Y0028428D01*
X0038294Y0028563D01*
X0038212Y0028700D01*
X0038134Y0028839D01*
X0038060Y0028980D01*
X0037989Y0029123D01*
X0037921Y0029268D01*
X0037858Y0029414D01*
X0037797Y0029562D01*
X0037741Y0029711D01*
X0037688Y0029862D01*
X0037639Y0030014D01*
X0037594Y0030167D01*
X0037553Y0030321D01*
X0037515Y0030476D01*
X0037482Y0030632D01*
X0037452Y0030789D01*
X0037426Y0030946D01*
X0037405Y0031104D01*
X0037387Y0031263D01*
X0037373Y0031422D01*
X0037363Y0031581D01*
X0037357Y0031740D01*
X0037355Y0031900D01*
X0082355Y0031900D02*
X0082357Y0032060D01*
X0082363Y0032219D01*
X0082373Y0032378D01*
X0082387Y0032537D01*
X0082405Y0032696D01*
X0082426Y0032854D01*
X0082452Y0033011D01*
X0082482Y0033168D01*
X0082515Y0033324D01*
X0082553Y0033479D01*
X0082594Y0033633D01*
X0082639Y0033786D01*
X0082688Y0033938D01*
X0082741Y0034089D01*
X0082797Y0034238D01*
X0082858Y0034386D01*
X0082921Y0034532D01*
X0082989Y0034677D01*
X0083060Y0034820D01*
X0083134Y0034961D01*
X0083212Y0035100D01*
X0083294Y0035237D01*
X0083379Y0035372D01*
X0083467Y0035505D01*
X0083559Y0035636D01*
X0083653Y0035764D01*
X0083751Y0035890D01*
X0083852Y0036014D01*
X0083956Y0036135D01*
X0084063Y0036253D01*
X0084173Y0036369D01*
X0084286Y0036482D01*
X0084402Y0036592D01*
X0084520Y0036699D01*
X0084641Y0036803D01*
X0084765Y0036904D01*
X0084891Y0037002D01*
X0085019Y0037096D01*
X0085150Y0037188D01*
X0085283Y0037276D01*
X0085418Y0037361D01*
X0085555Y0037443D01*
X0085694Y0037521D01*
X0085835Y0037595D01*
X0085978Y0037666D01*
X0086123Y0037734D01*
X0086269Y0037797D01*
X0086417Y0037858D01*
X0086566Y0037914D01*
X0086717Y0037967D01*
X0086869Y0038016D01*
X0087022Y0038061D01*
X0087176Y0038102D01*
X0087331Y0038140D01*
X0087487Y0038173D01*
X0087644Y0038203D01*
X0087801Y0038229D01*
X0087959Y0038250D01*
X0088118Y0038268D01*
X0088277Y0038282D01*
X0088436Y0038292D01*
X0088595Y0038298D01*
X0088755Y0038300D01*
X0088915Y0038298D01*
X0089074Y0038292D01*
X0089233Y0038282D01*
X0089392Y0038268D01*
X0089551Y0038250D01*
X0089709Y0038229D01*
X0089866Y0038203D01*
X0090023Y0038173D01*
X0090179Y0038140D01*
X0090334Y0038102D01*
X0090488Y0038061D01*
X0090641Y0038016D01*
X0090793Y0037967D01*
X0090944Y0037914D01*
X0091093Y0037858D01*
X0091241Y0037797D01*
X0091387Y0037734D01*
X0091532Y0037666D01*
X0091675Y0037595D01*
X0091816Y0037521D01*
X0091955Y0037443D01*
X0092092Y0037361D01*
X0092227Y0037276D01*
X0092360Y0037188D01*
X0092491Y0037096D01*
X0092619Y0037002D01*
X0092745Y0036904D01*
X0092869Y0036803D01*
X0092990Y0036699D01*
X0093108Y0036592D01*
X0093224Y0036482D01*
X0093337Y0036369D01*
X0093447Y0036253D01*
X0093554Y0036135D01*
X0093658Y0036014D01*
X0093759Y0035890D01*
X0093857Y0035764D01*
X0093951Y0035636D01*
X0094043Y0035505D01*
X0094131Y0035372D01*
X0094216Y0035237D01*
X0094298Y0035100D01*
X0094376Y0034961D01*
X0094450Y0034820D01*
X0094521Y0034677D01*
X0094589Y0034532D01*
X0094652Y0034386D01*
X0094713Y0034238D01*
X0094769Y0034089D01*
X0094822Y0033938D01*
X0094871Y0033786D01*
X0094916Y0033633D01*
X0094957Y0033479D01*
X0094995Y0033324D01*
X0095028Y0033168D01*
X0095058Y0033011D01*
X0095084Y0032854D01*
X0095105Y0032696D01*
X0095123Y0032537D01*
X0095137Y0032378D01*
X0095147Y0032219D01*
X0095153Y0032060D01*
X0095155Y0031900D01*
X0095153Y0031740D01*
X0095147Y0031581D01*
X0095137Y0031422D01*
X0095123Y0031263D01*
X0095105Y0031104D01*
X0095084Y0030946D01*
X0095058Y0030789D01*
X0095028Y0030632D01*
X0094995Y0030476D01*
X0094957Y0030321D01*
X0094916Y0030167D01*
X0094871Y0030014D01*
X0094822Y0029862D01*
X0094769Y0029711D01*
X0094713Y0029562D01*
X0094652Y0029414D01*
X0094589Y0029268D01*
X0094521Y0029123D01*
X0094450Y0028980D01*
X0094376Y0028839D01*
X0094298Y0028700D01*
X0094216Y0028563D01*
X0094131Y0028428D01*
X0094043Y0028295D01*
X0093951Y0028164D01*
X0093857Y0028036D01*
X0093759Y0027910D01*
X0093658Y0027786D01*
X0093554Y0027665D01*
X0093447Y0027547D01*
X0093337Y0027431D01*
X0093224Y0027318D01*
X0093108Y0027208D01*
X0092990Y0027101D01*
X0092869Y0026997D01*
X0092745Y0026896D01*
X0092619Y0026798D01*
X0092491Y0026704D01*
X0092360Y0026612D01*
X0092227Y0026524D01*
X0092092Y0026439D01*
X0091955Y0026357D01*
X0091816Y0026279D01*
X0091675Y0026205D01*
X0091532Y0026134D01*
X0091387Y0026066D01*
X0091241Y0026003D01*
X0091093Y0025942D01*
X0090944Y0025886D01*
X0090793Y0025833D01*
X0090641Y0025784D01*
X0090488Y0025739D01*
X0090334Y0025698D01*
X0090179Y0025660D01*
X0090023Y0025627D01*
X0089866Y0025597D01*
X0089709Y0025571D01*
X0089551Y0025550D01*
X0089392Y0025532D01*
X0089233Y0025518D01*
X0089074Y0025508D01*
X0088915Y0025502D01*
X0088755Y0025500D01*
X0088595Y0025502D01*
X0088436Y0025508D01*
X0088277Y0025518D01*
X0088118Y0025532D01*
X0087959Y0025550D01*
X0087801Y0025571D01*
X0087644Y0025597D01*
X0087487Y0025627D01*
X0087331Y0025660D01*
X0087176Y0025698D01*
X0087022Y0025739D01*
X0086869Y0025784D01*
X0086717Y0025833D01*
X0086566Y0025886D01*
X0086417Y0025942D01*
X0086269Y0026003D01*
X0086123Y0026066D01*
X0085978Y0026134D01*
X0085835Y0026205D01*
X0085694Y0026279D01*
X0085555Y0026357D01*
X0085418Y0026439D01*
X0085283Y0026524D01*
X0085150Y0026612D01*
X0085019Y0026704D01*
X0084891Y0026798D01*
X0084765Y0026896D01*
X0084641Y0026997D01*
X0084520Y0027101D01*
X0084402Y0027208D01*
X0084286Y0027318D01*
X0084173Y0027431D01*
X0084063Y0027547D01*
X0083956Y0027665D01*
X0083852Y0027786D01*
X0083751Y0027910D01*
X0083653Y0028036D01*
X0083559Y0028164D01*
X0083467Y0028295D01*
X0083379Y0028428D01*
X0083294Y0028563D01*
X0083212Y0028700D01*
X0083134Y0028839D01*
X0083060Y0028980D01*
X0082989Y0029123D01*
X0082921Y0029268D01*
X0082858Y0029414D01*
X0082797Y0029562D01*
X0082741Y0029711D01*
X0082688Y0029862D01*
X0082639Y0030014D01*
X0082594Y0030167D01*
X0082553Y0030321D01*
X0082515Y0030476D01*
X0082482Y0030632D01*
X0082452Y0030789D01*
X0082426Y0030946D01*
X0082405Y0031104D01*
X0082387Y0031263D01*
X0082373Y0031422D01*
X0082363Y0031581D01*
X0082357Y0031740D01*
X0082355Y0031900D01*
X0273576Y0031900D02*
X0273578Y0032060D01*
X0273584Y0032219D01*
X0273594Y0032378D01*
X0273608Y0032537D01*
X0273626Y0032696D01*
X0273647Y0032854D01*
X0273673Y0033011D01*
X0273703Y0033168D01*
X0273736Y0033324D01*
X0273774Y0033479D01*
X0273815Y0033633D01*
X0273860Y0033786D01*
X0273909Y0033938D01*
X0273962Y0034089D01*
X0274018Y0034238D01*
X0274079Y0034386D01*
X0274142Y0034532D01*
X0274210Y0034677D01*
X0274281Y0034820D01*
X0274355Y0034961D01*
X0274433Y0035100D01*
X0274515Y0035237D01*
X0274600Y0035372D01*
X0274688Y0035505D01*
X0274780Y0035636D01*
X0274874Y0035764D01*
X0274972Y0035890D01*
X0275073Y0036014D01*
X0275177Y0036135D01*
X0275284Y0036253D01*
X0275394Y0036369D01*
X0275507Y0036482D01*
X0275623Y0036592D01*
X0275741Y0036699D01*
X0275862Y0036803D01*
X0275986Y0036904D01*
X0276112Y0037002D01*
X0276240Y0037096D01*
X0276371Y0037188D01*
X0276504Y0037276D01*
X0276639Y0037361D01*
X0276776Y0037443D01*
X0276915Y0037521D01*
X0277056Y0037595D01*
X0277199Y0037666D01*
X0277344Y0037734D01*
X0277490Y0037797D01*
X0277638Y0037858D01*
X0277787Y0037914D01*
X0277938Y0037967D01*
X0278090Y0038016D01*
X0278243Y0038061D01*
X0278397Y0038102D01*
X0278552Y0038140D01*
X0278708Y0038173D01*
X0278865Y0038203D01*
X0279022Y0038229D01*
X0279180Y0038250D01*
X0279339Y0038268D01*
X0279498Y0038282D01*
X0279657Y0038292D01*
X0279816Y0038298D01*
X0279976Y0038300D01*
X0280136Y0038298D01*
X0280295Y0038292D01*
X0280454Y0038282D01*
X0280613Y0038268D01*
X0280772Y0038250D01*
X0280930Y0038229D01*
X0281087Y0038203D01*
X0281244Y0038173D01*
X0281400Y0038140D01*
X0281555Y0038102D01*
X0281709Y0038061D01*
X0281862Y0038016D01*
X0282014Y0037967D01*
X0282165Y0037914D01*
X0282314Y0037858D01*
X0282462Y0037797D01*
X0282608Y0037734D01*
X0282753Y0037666D01*
X0282896Y0037595D01*
X0283037Y0037521D01*
X0283176Y0037443D01*
X0283313Y0037361D01*
X0283448Y0037276D01*
X0283581Y0037188D01*
X0283712Y0037096D01*
X0283840Y0037002D01*
X0283966Y0036904D01*
X0284090Y0036803D01*
X0284211Y0036699D01*
X0284329Y0036592D01*
X0284445Y0036482D01*
X0284558Y0036369D01*
X0284668Y0036253D01*
X0284775Y0036135D01*
X0284879Y0036014D01*
X0284980Y0035890D01*
X0285078Y0035764D01*
X0285172Y0035636D01*
X0285264Y0035505D01*
X0285352Y0035372D01*
X0285437Y0035237D01*
X0285519Y0035100D01*
X0285597Y0034961D01*
X0285671Y0034820D01*
X0285742Y0034677D01*
X0285810Y0034532D01*
X0285873Y0034386D01*
X0285934Y0034238D01*
X0285990Y0034089D01*
X0286043Y0033938D01*
X0286092Y0033786D01*
X0286137Y0033633D01*
X0286178Y0033479D01*
X0286216Y0033324D01*
X0286249Y0033168D01*
X0286279Y0033011D01*
X0286305Y0032854D01*
X0286326Y0032696D01*
X0286344Y0032537D01*
X0286358Y0032378D01*
X0286368Y0032219D01*
X0286374Y0032060D01*
X0286376Y0031900D01*
X0286374Y0031740D01*
X0286368Y0031581D01*
X0286358Y0031422D01*
X0286344Y0031263D01*
X0286326Y0031104D01*
X0286305Y0030946D01*
X0286279Y0030789D01*
X0286249Y0030632D01*
X0286216Y0030476D01*
X0286178Y0030321D01*
X0286137Y0030167D01*
X0286092Y0030014D01*
X0286043Y0029862D01*
X0285990Y0029711D01*
X0285934Y0029562D01*
X0285873Y0029414D01*
X0285810Y0029268D01*
X0285742Y0029123D01*
X0285671Y0028980D01*
X0285597Y0028839D01*
X0285519Y0028700D01*
X0285437Y0028563D01*
X0285352Y0028428D01*
X0285264Y0028295D01*
X0285172Y0028164D01*
X0285078Y0028036D01*
X0284980Y0027910D01*
X0284879Y0027786D01*
X0284775Y0027665D01*
X0284668Y0027547D01*
X0284558Y0027431D01*
X0284445Y0027318D01*
X0284329Y0027208D01*
X0284211Y0027101D01*
X0284090Y0026997D01*
X0283966Y0026896D01*
X0283840Y0026798D01*
X0283712Y0026704D01*
X0283581Y0026612D01*
X0283448Y0026524D01*
X0283313Y0026439D01*
X0283176Y0026357D01*
X0283037Y0026279D01*
X0282896Y0026205D01*
X0282753Y0026134D01*
X0282608Y0026066D01*
X0282462Y0026003D01*
X0282314Y0025942D01*
X0282165Y0025886D01*
X0282014Y0025833D01*
X0281862Y0025784D01*
X0281709Y0025739D01*
X0281555Y0025698D01*
X0281400Y0025660D01*
X0281244Y0025627D01*
X0281087Y0025597D01*
X0280930Y0025571D01*
X0280772Y0025550D01*
X0280613Y0025532D01*
X0280454Y0025518D01*
X0280295Y0025508D01*
X0280136Y0025502D01*
X0279976Y0025500D01*
X0279816Y0025502D01*
X0279657Y0025508D01*
X0279498Y0025518D01*
X0279339Y0025532D01*
X0279180Y0025550D01*
X0279022Y0025571D01*
X0278865Y0025597D01*
X0278708Y0025627D01*
X0278552Y0025660D01*
X0278397Y0025698D01*
X0278243Y0025739D01*
X0278090Y0025784D01*
X0277938Y0025833D01*
X0277787Y0025886D01*
X0277638Y0025942D01*
X0277490Y0026003D01*
X0277344Y0026066D01*
X0277199Y0026134D01*
X0277056Y0026205D01*
X0276915Y0026279D01*
X0276776Y0026357D01*
X0276639Y0026439D01*
X0276504Y0026524D01*
X0276371Y0026612D01*
X0276240Y0026704D01*
X0276112Y0026798D01*
X0275986Y0026896D01*
X0275862Y0026997D01*
X0275741Y0027101D01*
X0275623Y0027208D01*
X0275507Y0027318D01*
X0275394Y0027431D01*
X0275284Y0027547D01*
X0275177Y0027665D01*
X0275073Y0027786D01*
X0274972Y0027910D01*
X0274874Y0028036D01*
X0274780Y0028164D01*
X0274688Y0028295D01*
X0274600Y0028428D01*
X0274515Y0028563D01*
X0274433Y0028700D01*
X0274355Y0028839D01*
X0274281Y0028980D01*
X0274210Y0029123D01*
X0274142Y0029268D01*
X0274079Y0029414D01*
X0274018Y0029562D01*
X0273962Y0029711D01*
X0273909Y0029862D01*
X0273860Y0030014D01*
X0273815Y0030167D01*
X0273774Y0030321D01*
X0273736Y0030476D01*
X0273703Y0030632D01*
X0273673Y0030789D01*
X0273647Y0030946D01*
X0273626Y0031104D01*
X0273608Y0031263D01*
X0273594Y0031422D01*
X0273584Y0031581D01*
X0273578Y0031740D01*
X0273576Y0031900D01*
X0318576Y0031900D02*
X0318578Y0032060D01*
X0318584Y0032219D01*
X0318594Y0032378D01*
X0318608Y0032537D01*
X0318626Y0032696D01*
X0318647Y0032854D01*
X0318673Y0033011D01*
X0318703Y0033168D01*
X0318736Y0033324D01*
X0318774Y0033479D01*
X0318815Y0033633D01*
X0318860Y0033786D01*
X0318909Y0033938D01*
X0318962Y0034089D01*
X0319018Y0034238D01*
X0319079Y0034386D01*
X0319142Y0034532D01*
X0319210Y0034677D01*
X0319281Y0034820D01*
X0319355Y0034961D01*
X0319433Y0035100D01*
X0319515Y0035237D01*
X0319600Y0035372D01*
X0319688Y0035505D01*
X0319780Y0035636D01*
X0319874Y0035764D01*
X0319972Y0035890D01*
X0320073Y0036014D01*
X0320177Y0036135D01*
X0320284Y0036253D01*
X0320394Y0036369D01*
X0320507Y0036482D01*
X0320623Y0036592D01*
X0320741Y0036699D01*
X0320862Y0036803D01*
X0320986Y0036904D01*
X0321112Y0037002D01*
X0321240Y0037096D01*
X0321371Y0037188D01*
X0321504Y0037276D01*
X0321639Y0037361D01*
X0321776Y0037443D01*
X0321915Y0037521D01*
X0322056Y0037595D01*
X0322199Y0037666D01*
X0322344Y0037734D01*
X0322490Y0037797D01*
X0322638Y0037858D01*
X0322787Y0037914D01*
X0322938Y0037967D01*
X0323090Y0038016D01*
X0323243Y0038061D01*
X0323397Y0038102D01*
X0323552Y0038140D01*
X0323708Y0038173D01*
X0323865Y0038203D01*
X0324022Y0038229D01*
X0324180Y0038250D01*
X0324339Y0038268D01*
X0324498Y0038282D01*
X0324657Y0038292D01*
X0324816Y0038298D01*
X0324976Y0038300D01*
X0325136Y0038298D01*
X0325295Y0038292D01*
X0325454Y0038282D01*
X0325613Y0038268D01*
X0325772Y0038250D01*
X0325930Y0038229D01*
X0326087Y0038203D01*
X0326244Y0038173D01*
X0326400Y0038140D01*
X0326555Y0038102D01*
X0326709Y0038061D01*
X0326862Y0038016D01*
X0327014Y0037967D01*
X0327165Y0037914D01*
X0327314Y0037858D01*
X0327462Y0037797D01*
X0327608Y0037734D01*
X0327753Y0037666D01*
X0327896Y0037595D01*
X0328037Y0037521D01*
X0328176Y0037443D01*
X0328313Y0037361D01*
X0328448Y0037276D01*
X0328581Y0037188D01*
X0328712Y0037096D01*
X0328840Y0037002D01*
X0328966Y0036904D01*
X0329090Y0036803D01*
X0329211Y0036699D01*
X0329329Y0036592D01*
X0329445Y0036482D01*
X0329558Y0036369D01*
X0329668Y0036253D01*
X0329775Y0036135D01*
X0329879Y0036014D01*
X0329980Y0035890D01*
X0330078Y0035764D01*
X0330172Y0035636D01*
X0330264Y0035505D01*
X0330352Y0035372D01*
X0330437Y0035237D01*
X0330519Y0035100D01*
X0330597Y0034961D01*
X0330671Y0034820D01*
X0330742Y0034677D01*
X0330810Y0034532D01*
X0330873Y0034386D01*
X0330934Y0034238D01*
X0330990Y0034089D01*
X0331043Y0033938D01*
X0331092Y0033786D01*
X0331137Y0033633D01*
X0331178Y0033479D01*
X0331216Y0033324D01*
X0331249Y0033168D01*
X0331279Y0033011D01*
X0331305Y0032854D01*
X0331326Y0032696D01*
X0331344Y0032537D01*
X0331358Y0032378D01*
X0331368Y0032219D01*
X0331374Y0032060D01*
X0331376Y0031900D01*
X0331374Y0031740D01*
X0331368Y0031581D01*
X0331358Y0031422D01*
X0331344Y0031263D01*
X0331326Y0031104D01*
X0331305Y0030946D01*
X0331279Y0030789D01*
X0331249Y0030632D01*
X0331216Y0030476D01*
X0331178Y0030321D01*
X0331137Y0030167D01*
X0331092Y0030014D01*
X0331043Y0029862D01*
X0330990Y0029711D01*
X0330934Y0029562D01*
X0330873Y0029414D01*
X0330810Y0029268D01*
X0330742Y0029123D01*
X0330671Y0028980D01*
X0330597Y0028839D01*
X0330519Y0028700D01*
X0330437Y0028563D01*
X0330352Y0028428D01*
X0330264Y0028295D01*
X0330172Y0028164D01*
X0330078Y0028036D01*
X0329980Y0027910D01*
X0329879Y0027786D01*
X0329775Y0027665D01*
X0329668Y0027547D01*
X0329558Y0027431D01*
X0329445Y0027318D01*
X0329329Y0027208D01*
X0329211Y0027101D01*
X0329090Y0026997D01*
X0328966Y0026896D01*
X0328840Y0026798D01*
X0328712Y0026704D01*
X0328581Y0026612D01*
X0328448Y0026524D01*
X0328313Y0026439D01*
X0328176Y0026357D01*
X0328037Y0026279D01*
X0327896Y0026205D01*
X0327753Y0026134D01*
X0327608Y0026066D01*
X0327462Y0026003D01*
X0327314Y0025942D01*
X0327165Y0025886D01*
X0327014Y0025833D01*
X0326862Y0025784D01*
X0326709Y0025739D01*
X0326555Y0025698D01*
X0326400Y0025660D01*
X0326244Y0025627D01*
X0326087Y0025597D01*
X0325930Y0025571D01*
X0325772Y0025550D01*
X0325613Y0025532D01*
X0325454Y0025518D01*
X0325295Y0025508D01*
X0325136Y0025502D01*
X0324976Y0025500D01*
X0324816Y0025502D01*
X0324657Y0025508D01*
X0324498Y0025518D01*
X0324339Y0025532D01*
X0324180Y0025550D01*
X0324022Y0025571D01*
X0323865Y0025597D01*
X0323708Y0025627D01*
X0323552Y0025660D01*
X0323397Y0025698D01*
X0323243Y0025739D01*
X0323090Y0025784D01*
X0322938Y0025833D01*
X0322787Y0025886D01*
X0322638Y0025942D01*
X0322490Y0026003D01*
X0322344Y0026066D01*
X0322199Y0026134D01*
X0322056Y0026205D01*
X0321915Y0026279D01*
X0321776Y0026357D01*
X0321639Y0026439D01*
X0321504Y0026524D01*
X0321371Y0026612D01*
X0321240Y0026704D01*
X0321112Y0026798D01*
X0320986Y0026896D01*
X0320862Y0026997D01*
X0320741Y0027101D01*
X0320623Y0027208D01*
X0320507Y0027318D01*
X0320394Y0027431D01*
X0320284Y0027547D01*
X0320177Y0027665D01*
X0320073Y0027786D01*
X0319972Y0027910D01*
X0319874Y0028036D01*
X0319780Y0028164D01*
X0319688Y0028295D01*
X0319600Y0028428D01*
X0319515Y0028563D01*
X0319433Y0028700D01*
X0319355Y0028839D01*
X0319281Y0028980D01*
X0319210Y0029123D01*
X0319142Y0029268D01*
X0319079Y0029414D01*
X0319018Y0029562D01*
X0318962Y0029711D01*
X0318909Y0029862D01*
X0318860Y0030014D01*
X0318815Y0030167D01*
X0318774Y0030321D01*
X0318736Y0030476D01*
X0318703Y0030632D01*
X0318673Y0030789D01*
X0318647Y0030946D01*
X0318626Y0031104D01*
X0318608Y0031263D01*
X0318594Y0031422D01*
X0318584Y0031581D01*
X0318578Y0031740D01*
X0318576Y0031900D01*
X0343421Y0024026D02*
X0343423Y0024184D01*
X0343429Y0024342D01*
X0343439Y0024500D01*
X0343453Y0024658D01*
X0343471Y0024815D01*
X0343492Y0024972D01*
X0343518Y0025128D01*
X0343548Y0025284D01*
X0343581Y0025439D01*
X0343619Y0025592D01*
X0343660Y0025745D01*
X0343705Y0025897D01*
X0343754Y0026048D01*
X0343807Y0026197D01*
X0343863Y0026345D01*
X0343923Y0026491D01*
X0343987Y0026636D01*
X0344055Y0026779D01*
X0344126Y0026921D01*
X0344200Y0027061D01*
X0344278Y0027198D01*
X0344360Y0027334D01*
X0344444Y0027468D01*
X0344533Y0027599D01*
X0344624Y0027728D01*
X0344719Y0027855D01*
X0344816Y0027980D01*
X0344917Y0028102D01*
X0345021Y0028221D01*
X0345128Y0028338D01*
X0345238Y0028452D01*
X0345351Y0028563D01*
X0345466Y0028672D01*
X0345584Y0028777D01*
X0345705Y0028879D01*
X0345828Y0028979D01*
X0345954Y0029075D01*
X0346082Y0029168D01*
X0346212Y0029258D01*
X0346345Y0029344D01*
X0346480Y0029428D01*
X0346616Y0029507D01*
X0346755Y0029584D01*
X0346896Y0029656D01*
X0347038Y0029726D01*
X0347182Y0029791D01*
X0347328Y0029853D01*
X0347475Y0029911D01*
X0347624Y0029966D01*
X0347774Y0030017D01*
X0347925Y0030064D01*
X0348077Y0030107D01*
X0348230Y0030146D01*
X0348385Y0030182D01*
X0348540Y0030213D01*
X0348696Y0030241D01*
X0348852Y0030265D01*
X0349009Y0030285D01*
X0349167Y0030301D01*
X0349324Y0030313D01*
X0349483Y0030321D01*
X0349641Y0030325D01*
X0349799Y0030325D01*
X0349957Y0030321D01*
X0350116Y0030313D01*
X0350273Y0030301D01*
X0350431Y0030285D01*
X0350588Y0030265D01*
X0350744Y0030241D01*
X0350900Y0030213D01*
X0351055Y0030182D01*
X0351210Y0030146D01*
X0351363Y0030107D01*
X0351515Y0030064D01*
X0351666Y0030017D01*
X0351816Y0029966D01*
X0351965Y0029911D01*
X0352112Y0029853D01*
X0352258Y0029791D01*
X0352402Y0029726D01*
X0352544Y0029656D01*
X0352685Y0029584D01*
X0352824Y0029507D01*
X0352960Y0029428D01*
X0353095Y0029344D01*
X0353228Y0029258D01*
X0353358Y0029168D01*
X0353486Y0029075D01*
X0353612Y0028979D01*
X0353735Y0028879D01*
X0353856Y0028777D01*
X0353974Y0028672D01*
X0354089Y0028563D01*
X0354202Y0028452D01*
X0354312Y0028338D01*
X0354419Y0028221D01*
X0354523Y0028102D01*
X0354624Y0027980D01*
X0354721Y0027855D01*
X0354816Y0027728D01*
X0354907Y0027599D01*
X0354996Y0027468D01*
X0355080Y0027334D01*
X0355162Y0027198D01*
X0355240Y0027061D01*
X0355314Y0026921D01*
X0355385Y0026779D01*
X0355453Y0026636D01*
X0355517Y0026491D01*
X0355577Y0026345D01*
X0355633Y0026197D01*
X0355686Y0026048D01*
X0355735Y0025897D01*
X0355780Y0025745D01*
X0355821Y0025592D01*
X0355859Y0025439D01*
X0355892Y0025284D01*
X0355922Y0025128D01*
X0355948Y0024972D01*
X0355969Y0024815D01*
X0355987Y0024658D01*
X0356001Y0024500D01*
X0356011Y0024342D01*
X0356017Y0024184D01*
X0356019Y0024026D01*
X0356017Y0023868D01*
X0356011Y0023710D01*
X0356001Y0023552D01*
X0355987Y0023394D01*
X0355969Y0023237D01*
X0355948Y0023080D01*
X0355922Y0022924D01*
X0355892Y0022768D01*
X0355859Y0022613D01*
X0355821Y0022460D01*
X0355780Y0022307D01*
X0355735Y0022155D01*
X0355686Y0022004D01*
X0355633Y0021855D01*
X0355577Y0021707D01*
X0355517Y0021561D01*
X0355453Y0021416D01*
X0355385Y0021273D01*
X0355314Y0021131D01*
X0355240Y0020991D01*
X0355162Y0020854D01*
X0355080Y0020718D01*
X0354996Y0020584D01*
X0354907Y0020453D01*
X0354816Y0020324D01*
X0354721Y0020197D01*
X0354624Y0020072D01*
X0354523Y0019950D01*
X0354419Y0019831D01*
X0354312Y0019714D01*
X0354202Y0019600D01*
X0354089Y0019489D01*
X0353974Y0019380D01*
X0353856Y0019275D01*
X0353735Y0019173D01*
X0353612Y0019073D01*
X0353486Y0018977D01*
X0353358Y0018884D01*
X0353228Y0018794D01*
X0353095Y0018708D01*
X0352960Y0018624D01*
X0352824Y0018545D01*
X0352685Y0018468D01*
X0352544Y0018396D01*
X0352402Y0018326D01*
X0352258Y0018261D01*
X0352112Y0018199D01*
X0351965Y0018141D01*
X0351816Y0018086D01*
X0351666Y0018035D01*
X0351515Y0017988D01*
X0351363Y0017945D01*
X0351210Y0017906D01*
X0351055Y0017870D01*
X0350900Y0017839D01*
X0350744Y0017811D01*
X0350588Y0017787D01*
X0350431Y0017767D01*
X0350273Y0017751D01*
X0350116Y0017739D01*
X0349957Y0017731D01*
X0349799Y0017727D01*
X0349641Y0017727D01*
X0349483Y0017731D01*
X0349324Y0017739D01*
X0349167Y0017751D01*
X0349009Y0017767D01*
X0348852Y0017787D01*
X0348696Y0017811D01*
X0348540Y0017839D01*
X0348385Y0017870D01*
X0348230Y0017906D01*
X0348077Y0017945D01*
X0347925Y0017988D01*
X0347774Y0018035D01*
X0347624Y0018086D01*
X0347475Y0018141D01*
X0347328Y0018199D01*
X0347182Y0018261D01*
X0347038Y0018326D01*
X0346896Y0018396D01*
X0346755Y0018468D01*
X0346616Y0018545D01*
X0346480Y0018624D01*
X0346345Y0018708D01*
X0346212Y0018794D01*
X0346082Y0018884D01*
X0345954Y0018977D01*
X0345828Y0019073D01*
X0345705Y0019173D01*
X0345584Y0019275D01*
X0345466Y0019380D01*
X0345351Y0019489D01*
X0345238Y0019600D01*
X0345128Y0019714D01*
X0345021Y0019831D01*
X0344917Y0019950D01*
X0344816Y0020072D01*
X0344719Y0020197D01*
X0344624Y0020324D01*
X0344533Y0020453D01*
X0344444Y0020584D01*
X0344360Y0020718D01*
X0344278Y0020854D01*
X0344200Y0020991D01*
X0344126Y0021131D01*
X0344055Y0021273D01*
X0343987Y0021416D01*
X0343923Y0021561D01*
X0343863Y0021707D01*
X0343807Y0021855D01*
X0343754Y0022004D01*
X0343705Y0022155D01*
X0343660Y0022307D01*
X0343619Y0022460D01*
X0343581Y0022613D01*
X0343548Y0022768D01*
X0343518Y0022924D01*
X0343492Y0023080D01*
X0343471Y0023237D01*
X0343453Y0023394D01*
X0343439Y0023552D01*
X0343429Y0023710D01*
X0343423Y0023868D01*
X0343421Y0024026D01*
X0343421Y0236624D02*
X0343423Y0236782D01*
X0343429Y0236940D01*
X0343439Y0237098D01*
X0343453Y0237256D01*
X0343471Y0237413D01*
X0343492Y0237570D01*
X0343518Y0237726D01*
X0343548Y0237882D01*
X0343581Y0238037D01*
X0343619Y0238190D01*
X0343660Y0238343D01*
X0343705Y0238495D01*
X0343754Y0238646D01*
X0343807Y0238795D01*
X0343863Y0238943D01*
X0343923Y0239089D01*
X0343987Y0239234D01*
X0344055Y0239377D01*
X0344126Y0239519D01*
X0344200Y0239659D01*
X0344278Y0239796D01*
X0344360Y0239932D01*
X0344444Y0240066D01*
X0344533Y0240197D01*
X0344624Y0240326D01*
X0344719Y0240453D01*
X0344816Y0240578D01*
X0344917Y0240700D01*
X0345021Y0240819D01*
X0345128Y0240936D01*
X0345238Y0241050D01*
X0345351Y0241161D01*
X0345466Y0241270D01*
X0345584Y0241375D01*
X0345705Y0241477D01*
X0345828Y0241577D01*
X0345954Y0241673D01*
X0346082Y0241766D01*
X0346212Y0241856D01*
X0346345Y0241942D01*
X0346480Y0242026D01*
X0346616Y0242105D01*
X0346755Y0242182D01*
X0346896Y0242254D01*
X0347038Y0242324D01*
X0347182Y0242389D01*
X0347328Y0242451D01*
X0347475Y0242509D01*
X0347624Y0242564D01*
X0347774Y0242615D01*
X0347925Y0242662D01*
X0348077Y0242705D01*
X0348230Y0242744D01*
X0348385Y0242780D01*
X0348540Y0242811D01*
X0348696Y0242839D01*
X0348852Y0242863D01*
X0349009Y0242883D01*
X0349167Y0242899D01*
X0349324Y0242911D01*
X0349483Y0242919D01*
X0349641Y0242923D01*
X0349799Y0242923D01*
X0349957Y0242919D01*
X0350116Y0242911D01*
X0350273Y0242899D01*
X0350431Y0242883D01*
X0350588Y0242863D01*
X0350744Y0242839D01*
X0350900Y0242811D01*
X0351055Y0242780D01*
X0351210Y0242744D01*
X0351363Y0242705D01*
X0351515Y0242662D01*
X0351666Y0242615D01*
X0351816Y0242564D01*
X0351965Y0242509D01*
X0352112Y0242451D01*
X0352258Y0242389D01*
X0352402Y0242324D01*
X0352544Y0242254D01*
X0352685Y0242182D01*
X0352824Y0242105D01*
X0352960Y0242026D01*
X0353095Y0241942D01*
X0353228Y0241856D01*
X0353358Y0241766D01*
X0353486Y0241673D01*
X0353612Y0241577D01*
X0353735Y0241477D01*
X0353856Y0241375D01*
X0353974Y0241270D01*
X0354089Y0241161D01*
X0354202Y0241050D01*
X0354312Y0240936D01*
X0354419Y0240819D01*
X0354523Y0240700D01*
X0354624Y0240578D01*
X0354721Y0240453D01*
X0354816Y0240326D01*
X0354907Y0240197D01*
X0354996Y0240066D01*
X0355080Y0239932D01*
X0355162Y0239796D01*
X0355240Y0239659D01*
X0355314Y0239519D01*
X0355385Y0239377D01*
X0355453Y0239234D01*
X0355517Y0239089D01*
X0355577Y0238943D01*
X0355633Y0238795D01*
X0355686Y0238646D01*
X0355735Y0238495D01*
X0355780Y0238343D01*
X0355821Y0238190D01*
X0355859Y0238037D01*
X0355892Y0237882D01*
X0355922Y0237726D01*
X0355948Y0237570D01*
X0355969Y0237413D01*
X0355987Y0237256D01*
X0356001Y0237098D01*
X0356011Y0236940D01*
X0356017Y0236782D01*
X0356019Y0236624D01*
X0356017Y0236466D01*
X0356011Y0236308D01*
X0356001Y0236150D01*
X0355987Y0235992D01*
X0355969Y0235835D01*
X0355948Y0235678D01*
X0355922Y0235522D01*
X0355892Y0235366D01*
X0355859Y0235211D01*
X0355821Y0235058D01*
X0355780Y0234905D01*
X0355735Y0234753D01*
X0355686Y0234602D01*
X0355633Y0234453D01*
X0355577Y0234305D01*
X0355517Y0234159D01*
X0355453Y0234014D01*
X0355385Y0233871D01*
X0355314Y0233729D01*
X0355240Y0233589D01*
X0355162Y0233452D01*
X0355080Y0233316D01*
X0354996Y0233182D01*
X0354907Y0233051D01*
X0354816Y0232922D01*
X0354721Y0232795D01*
X0354624Y0232670D01*
X0354523Y0232548D01*
X0354419Y0232429D01*
X0354312Y0232312D01*
X0354202Y0232198D01*
X0354089Y0232087D01*
X0353974Y0231978D01*
X0353856Y0231873D01*
X0353735Y0231771D01*
X0353612Y0231671D01*
X0353486Y0231575D01*
X0353358Y0231482D01*
X0353228Y0231392D01*
X0353095Y0231306D01*
X0352960Y0231222D01*
X0352824Y0231143D01*
X0352685Y0231066D01*
X0352544Y0230994D01*
X0352402Y0230924D01*
X0352258Y0230859D01*
X0352112Y0230797D01*
X0351965Y0230739D01*
X0351816Y0230684D01*
X0351666Y0230633D01*
X0351515Y0230586D01*
X0351363Y0230543D01*
X0351210Y0230504D01*
X0351055Y0230468D01*
X0350900Y0230437D01*
X0350744Y0230409D01*
X0350588Y0230385D01*
X0350431Y0230365D01*
X0350273Y0230349D01*
X0350116Y0230337D01*
X0349957Y0230329D01*
X0349799Y0230325D01*
X0349641Y0230325D01*
X0349483Y0230329D01*
X0349324Y0230337D01*
X0349167Y0230349D01*
X0349009Y0230365D01*
X0348852Y0230385D01*
X0348696Y0230409D01*
X0348540Y0230437D01*
X0348385Y0230468D01*
X0348230Y0230504D01*
X0348077Y0230543D01*
X0347925Y0230586D01*
X0347774Y0230633D01*
X0347624Y0230684D01*
X0347475Y0230739D01*
X0347328Y0230797D01*
X0347182Y0230859D01*
X0347038Y0230924D01*
X0346896Y0230994D01*
X0346755Y0231066D01*
X0346616Y0231143D01*
X0346480Y0231222D01*
X0346345Y0231306D01*
X0346212Y0231392D01*
X0346082Y0231482D01*
X0345954Y0231575D01*
X0345828Y0231671D01*
X0345705Y0231771D01*
X0345584Y0231873D01*
X0345466Y0231978D01*
X0345351Y0232087D01*
X0345238Y0232198D01*
X0345128Y0232312D01*
X0345021Y0232429D01*
X0344917Y0232548D01*
X0344816Y0232670D01*
X0344719Y0232795D01*
X0344624Y0232922D01*
X0344533Y0233051D01*
X0344444Y0233182D01*
X0344360Y0233316D01*
X0344278Y0233452D01*
X0344200Y0233589D01*
X0344126Y0233729D01*
X0344055Y0233871D01*
X0343987Y0234014D01*
X0343923Y0234159D01*
X0343863Y0234305D01*
X0343807Y0234453D01*
X0343754Y0234602D01*
X0343705Y0234753D01*
X0343660Y0234905D01*
X0343619Y0235058D01*
X0343581Y0235211D01*
X0343548Y0235366D01*
X0343518Y0235522D01*
X0343492Y0235678D01*
X0343471Y0235835D01*
X0343453Y0235992D01*
X0343439Y0236150D01*
X0343429Y0236308D01*
X0343423Y0236466D01*
X0343421Y0236624D01*
X0012712Y0236624D02*
X0012714Y0236782D01*
X0012720Y0236940D01*
X0012730Y0237098D01*
X0012744Y0237256D01*
X0012762Y0237413D01*
X0012783Y0237570D01*
X0012809Y0237726D01*
X0012839Y0237882D01*
X0012872Y0238037D01*
X0012910Y0238190D01*
X0012951Y0238343D01*
X0012996Y0238495D01*
X0013045Y0238646D01*
X0013098Y0238795D01*
X0013154Y0238943D01*
X0013214Y0239089D01*
X0013278Y0239234D01*
X0013346Y0239377D01*
X0013417Y0239519D01*
X0013491Y0239659D01*
X0013569Y0239796D01*
X0013651Y0239932D01*
X0013735Y0240066D01*
X0013824Y0240197D01*
X0013915Y0240326D01*
X0014010Y0240453D01*
X0014107Y0240578D01*
X0014208Y0240700D01*
X0014312Y0240819D01*
X0014419Y0240936D01*
X0014529Y0241050D01*
X0014642Y0241161D01*
X0014757Y0241270D01*
X0014875Y0241375D01*
X0014996Y0241477D01*
X0015119Y0241577D01*
X0015245Y0241673D01*
X0015373Y0241766D01*
X0015503Y0241856D01*
X0015636Y0241942D01*
X0015771Y0242026D01*
X0015907Y0242105D01*
X0016046Y0242182D01*
X0016187Y0242254D01*
X0016329Y0242324D01*
X0016473Y0242389D01*
X0016619Y0242451D01*
X0016766Y0242509D01*
X0016915Y0242564D01*
X0017065Y0242615D01*
X0017216Y0242662D01*
X0017368Y0242705D01*
X0017521Y0242744D01*
X0017676Y0242780D01*
X0017831Y0242811D01*
X0017987Y0242839D01*
X0018143Y0242863D01*
X0018300Y0242883D01*
X0018458Y0242899D01*
X0018615Y0242911D01*
X0018774Y0242919D01*
X0018932Y0242923D01*
X0019090Y0242923D01*
X0019248Y0242919D01*
X0019407Y0242911D01*
X0019564Y0242899D01*
X0019722Y0242883D01*
X0019879Y0242863D01*
X0020035Y0242839D01*
X0020191Y0242811D01*
X0020346Y0242780D01*
X0020501Y0242744D01*
X0020654Y0242705D01*
X0020806Y0242662D01*
X0020957Y0242615D01*
X0021107Y0242564D01*
X0021256Y0242509D01*
X0021403Y0242451D01*
X0021549Y0242389D01*
X0021693Y0242324D01*
X0021835Y0242254D01*
X0021976Y0242182D01*
X0022115Y0242105D01*
X0022251Y0242026D01*
X0022386Y0241942D01*
X0022519Y0241856D01*
X0022649Y0241766D01*
X0022777Y0241673D01*
X0022903Y0241577D01*
X0023026Y0241477D01*
X0023147Y0241375D01*
X0023265Y0241270D01*
X0023380Y0241161D01*
X0023493Y0241050D01*
X0023603Y0240936D01*
X0023710Y0240819D01*
X0023814Y0240700D01*
X0023915Y0240578D01*
X0024012Y0240453D01*
X0024107Y0240326D01*
X0024198Y0240197D01*
X0024287Y0240066D01*
X0024371Y0239932D01*
X0024453Y0239796D01*
X0024531Y0239659D01*
X0024605Y0239519D01*
X0024676Y0239377D01*
X0024744Y0239234D01*
X0024808Y0239089D01*
X0024868Y0238943D01*
X0024924Y0238795D01*
X0024977Y0238646D01*
X0025026Y0238495D01*
X0025071Y0238343D01*
X0025112Y0238190D01*
X0025150Y0238037D01*
X0025183Y0237882D01*
X0025213Y0237726D01*
X0025239Y0237570D01*
X0025260Y0237413D01*
X0025278Y0237256D01*
X0025292Y0237098D01*
X0025302Y0236940D01*
X0025308Y0236782D01*
X0025310Y0236624D01*
X0025308Y0236466D01*
X0025302Y0236308D01*
X0025292Y0236150D01*
X0025278Y0235992D01*
X0025260Y0235835D01*
X0025239Y0235678D01*
X0025213Y0235522D01*
X0025183Y0235366D01*
X0025150Y0235211D01*
X0025112Y0235058D01*
X0025071Y0234905D01*
X0025026Y0234753D01*
X0024977Y0234602D01*
X0024924Y0234453D01*
X0024868Y0234305D01*
X0024808Y0234159D01*
X0024744Y0234014D01*
X0024676Y0233871D01*
X0024605Y0233729D01*
X0024531Y0233589D01*
X0024453Y0233452D01*
X0024371Y0233316D01*
X0024287Y0233182D01*
X0024198Y0233051D01*
X0024107Y0232922D01*
X0024012Y0232795D01*
X0023915Y0232670D01*
X0023814Y0232548D01*
X0023710Y0232429D01*
X0023603Y0232312D01*
X0023493Y0232198D01*
X0023380Y0232087D01*
X0023265Y0231978D01*
X0023147Y0231873D01*
X0023026Y0231771D01*
X0022903Y0231671D01*
X0022777Y0231575D01*
X0022649Y0231482D01*
X0022519Y0231392D01*
X0022386Y0231306D01*
X0022251Y0231222D01*
X0022115Y0231143D01*
X0021976Y0231066D01*
X0021835Y0230994D01*
X0021693Y0230924D01*
X0021549Y0230859D01*
X0021403Y0230797D01*
X0021256Y0230739D01*
X0021107Y0230684D01*
X0020957Y0230633D01*
X0020806Y0230586D01*
X0020654Y0230543D01*
X0020501Y0230504D01*
X0020346Y0230468D01*
X0020191Y0230437D01*
X0020035Y0230409D01*
X0019879Y0230385D01*
X0019722Y0230365D01*
X0019564Y0230349D01*
X0019407Y0230337D01*
X0019248Y0230329D01*
X0019090Y0230325D01*
X0018932Y0230325D01*
X0018774Y0230329D01*
X0018615Y0230337D01*
X0018458Y0230349D01*
X0018300Y0230365D01*
X0018143Y0230385D01*
X0017987Y0230409D01*
X0017831Y0230437D01*
X0017676Y0230468D01*
X0017521Y0230504D01*
X0017368Y0230543D01*
X0017216Y0230586D01*
X0017065Y0230633D01*
X0016915Y0230684D01*
X0016766Y0230739D01*
X0016619Y0230797D01*
X0016473Y0230859D01*
X0016329Y0230924D01*
X0016187Y0230994D01*
X0016046Y0231066D01*
X0015907Y0231143D01*
X0015771Y0231222D01*
X0015636Y0231306D01*
X0015503Y0231392D01*
X0015373Y0231482D01*
X0015245Y0231575D01*
X0015119Y0231671D01*
X0014996Y0231771D01*
X0014875Y0231873D01*
X0014757Y0231978D01*
X0014642Y0232087D01*
X0014529Y0232198D01*
X0014419Y0232312D01*
X0014312Y0232429D01*
X0014208Y0232548D01*
X0014107Y0232670D01*
X0014010Y0232795D01*
X0013915Y0232922D01*
X0013824Y0233051D01*
X0013735Y0233182D01*
X0013651Y0233316D01*
X0013569Y0233452D01*
X0013491Y0233589D01*
X0013417Y0233729D01*
X0013346Y0233871D01*
X0013278Y0234014D01*
X0013214Y0234159D01*
X0013154Y0234305D01*
X0013098Y0234453D01*
X0013045Y0234602D01*
X0012996Y0234753D01*
X0012951Y0234905D01*
X0012910Y0235058D01*
X0012872Y0235211D01*
X0012839Y0235366D01*
X0012809Y0235522D01*
X0012783Y0235678D01*
X0012762Y0235835D01*
X0012744Y0235992D01*
X0012730Y0236150D01*
X0012720Y0236308D01*
X0012714Y0236466D01*
X0012712Y0236624D01*
D11*
X0346930Y0067547D02*
X0347497Y0067547D01*
X0348631Y0067547D02*
X0350900Y0067547D01*
X0350900Y0066980D02*
X0350900Y0068114D01*
X0350333Y0069436D02*
X0350900Y0070003D01*
X0350900Y0071704D01*
X0350900Y0073119D02*
X0347497Y0073119D01*
X0348631Y0073686D02*
X0348631Y0074820D01*
X0349199Y0075387D01*
X0350900Y0075387D01*
X0350333Y0076802D02*
X0349199Y0076802D01*
X0348631Y0077369D01*
X0348631Y0078503D01*
X0349199Y0079070D01*
X0349766Y0079070D01*
X0349766Y0076802D01*
X0350333Y0076802D02*
X0350900Y0077369D01*
X0350900Y0078503D01*
X0350900Y0080485D02*
X0348631Y0080485D01*
X0348631Y0082186D01*
X0349199Y0082754D01*
X0350900Y0082754D01*
X0350333Y0084168D02*
X0349199Y0084168D01*
X0348631Y0084735D01*
X0348631Y0086437D01*
X0347497Y0086437D02*
X0350900Y0086437D01*
X0350900Y0084735D01*
X0350333Y0084168D01*
X0350333Y0087851D02*
X0349199Y0087851D01*
X0348631Y0088418D01*
X0348631Y0089553D01*
X0349199Y0090120D01*
X0349766Y0090120D01*
X0349766Y0087851D01*
X0350333Y0087851D02*
X0350900Y0088418D01*
X0350900Y0089553D01*
X0350333Y0091534D02*
X0350900Y0092102D01*
X0350900Y0093803D01*
X0350333Y0095218D02*
X0350900Y0095785D01*
X0350900Y0096919D01*
X0350333Y0097486D01*
X0349199Y0097486D01*
X0348631Y0096919D01*
X0348631Y0095785D01*
X0349199Y0095218D01*
X0350333Y0095218D01*
X0348631Y0093803D02*
X0348631Y0092102D01*
X0349199Y0091534D01*
X0350333Y0091534D01*
X0350333Y0098901D02*
X0349199Y0098901D01*
X0348631Y0099468D01*
X0348631Y0101169D01*
X0347497Y0101169D02*
X0350900Y0101169D01*
X0350900Y0099468D01*
X0350333Y0098901D01*
X0350333Y0102584D02*
X0349199Y0102584D01*
X0348631Y0103151D01*
X0348631Y0104285D01*
X0349199Y0104852D01*
X0349766Y0104852D01*
X0349766Y0102584D01*
X0350333Y0102584D02*
X0350900Y0103151D01*
X0350900Y0104285D01*
X0350900Y0106267D02*
X0348631Y0106267D01*
X0348631Y0107401D02*
X0349766Y0106267D01*
X0348631Y0107401D02*
X0348631Y0107968D01*
X0354631Y0077229D02*
X0356900Y0077229D01*
X0355199Y0077229D02*
X0355199Y0074960D01*
X0354631Y0074960D02*
X0353497Y0076095D01*
X0354631Y0077229D01*
X0354631Y0074960D02*
X0356900Y0074960D01*
X0354631Y0069863D02*
X0356900Y0068728D01*
X0354631Y0067594D01*
X0355199Y0066179D02*
X0355766Y0066179D01*
X0355766Y0063911D01*
X0356333Y0063911D02*
X0355199Y0063911D01*
X0354631Y0064478D01*
X0354631Y0065612D01*
X0355199Y0066179D01*
X0356900Y0065612D02*
X0356900Y0064478D01*
X0356333Y0063911D01*
X0356900Y0062496D02*
X0355766Y0061362D01*
X0355766Y0061929D02*
X0355766Y0060228D01*
X0356900Y0060228D02*
X0353497Y0060228D01*
X0353497Y0061929D01*
X0354064Y0062496D01*
X0355199Y0062496D01*
X0355766Y0061929D01*
X0350900Y0061882D02*
X0349766Y0060748D01*
X0350900Y0059614D01*
X0347497Y0059614D01*
X0349199Y0058199D02*
X0349199Y0055931D01*
X0350900Y0054516D02*
X0347497Y0054516D01*
X0347497Y0052248D02*
X0350900Y0054516D01*
X0350900Y0052248D02*
X0347497Y0052248D01*
X0348631Y0050833D02*
X0350900Y0050833D01*
X0349199Y0050833D02*
X0349199Y0048564D01*
X0348631Y0048564D02*
X0347497Y0049699D01*
X0348631Y0050833D01*
X0348631Y0048564D02*
X0350900Y0048564D01*
X0350333Y0047150D02*
X0350900Y0046583D01*
X0350900Y0045448D01*
X0350333Y0044881D01*
X0348064Y0044881D01*
X0347497Y0045448D01*
X0347497Y0046583D01*
X0348064Y0047150D01*
X0349199Y0043467D02*
X0350900Y0043467D01*
X0350900Y0041765D01*
X0350333Y0041198D01*
X0349766Y0041765D01*
X0349766Y0043467D01*
X0349199Y0043467D02*
X0348631Y0042900D01*
X0348631Y0041765D01*
X0347497Y0041765D02*
X0346930Y0041765D01*
X0346930Y0042900D02*
X0347497Y0042900D01*
X0347497Y0039784D02*
X0350900Y0039784D01*
X0350900Y0037515D02*
X0347497Y0037515D01*
X0348631Y0038649D01*
X0347497Y0039784D01*
X0353497Y0039784D02*
X0355766Y0039784D01*
X0356900Y0038649D01*
X0355766Y0037515D01*
X0353497Y0037515D01*
X0354064Y0044881D02*
X0353497Y0045448D01*
X0353497Y0046583D01*
X0354064Y0047150D01*
X0356333Y0044881D01*
X0356900Y0045448D01*
X0356900Y0046583D01*
X0356333Y0047150D01*
X0354064Y0047150D01*
X0354064Y0044881D02*
X0356333Y0044881D01*
X0356333Y0048564D02*
X0356333Y0049132D01*
X0356900Y0049132D01*
X0356900Y0048564D01*
X0356333Y0048564D01*
X0356900Y0050406D02*
X0356900Y0052675D01*
X0356900Y0051540D02*
X0353497Y0051540D01*
X0354631Y0050406D01*
X0354631Y0054656D02*
X0355199Y0054656D01*
X0355199Y0055223D01*
X0354631Y0055223D01*
X0354631Y0054656D01*
X0356333Y0054656D02*
X0356900Y0054656D01*
X0356900Y0055223D01*
X0356333Y0055223D01*
X0356333Y0054656D01*
X0356900Y0055223D02*
X0358034Y0054089D01*
X0350900Y0061882D02*
X0347497Y0061882D01*
X0349199Y0063297D02*
X0348631Y0063864D01*
X0348631Y0064998D01*
X0349199Y0065566D01*
X0349766Y0065566D01*
X0349766Y0063297D01*
X0350333Y0063297D02*
X0349199Y0063297D01*
X0350333Y0063297D02*
X0350900Y0063864D01*
X0350900Y0064998D01*
X0348631Y0066980D02*
X0348631Y0067547D01*
X0349199Y0069436D02*
X0350333Y0069436D01*
X0349199Y0069436D02*
X0348631Y0070003D01*
X0348631Y0071704D01*
X0349199Y0073119D02*
X0348631Y0073686D01*
D12*
X0252200Y0062215D03*
X0212200Y0062215D03*
X0199700Y0087215D03*
X0199700Y0097215D03*
X0199700Y0107215D03*
X0199700Y0117215D03*
X0157200Y0092215D03*
X0147200Y0092215D03*
X0077200Y0112215D03*
X0077200Y0122215D03*
X0077200Y0204715D03*
X0067200Y0204715D03*
X0087200Y0204715D03*
X0097200Y0204715D03*
D13*
X0222200Y0062215D03*
X0242200Y0062215D03*
D14*
X0167200Y0054815D02*
X0167200Y0049615D01*
X0157200Y0049615D02*
X0157200Y0054815D01*
X0147200Y0054815D02*
X0147200Y0049615D01*
X0137200Y0049615D02*
X0137200Y0054815D01*
X0137200Y0079615D02*
X0137200Y0084815D01*
X0147200Y0084815D02*
X0147200Y0079615D01*
X0157200Y0079615D02*
X0157200Y0084815D01*
X0167200Y0084815D02*
X0167200Y0079615D01*
X0167200Y0099615D02*
X0167200Y0104815D01*
X0157200Y0104815D02*
X0157200Y0099615D01*
X0147200Y0099615D02*
X0147200Y0104815D01*
X0137200Y0104815D02*
X0137200Y0099615D01*
X0127200Y0099615D02*
X0127200Y0104815D01*
X0117200Y0104815D02*
X0117200Y0099615D01*
X0107200Y0099615D02*
X0107200Y0104815D01*
X0097200Y0104815D02*
X0097200Y0099615D01*
X0087200Y0099615D02*
X0087200Y0104815D01*
X0087200Y0129615D02*
X0087200Y0134815D01*
X0097200Y0134815D02*
X0097200Y0129615D01*
X0107200Y0129615D02*
X0107200Y0134815D01*
X0117200Y0134815D02*
X0117200Y0129615D01*
X0127200Y0129615D02*
X0127200Y0134815D01*
X0137200Y0134815D02*
X0137200Y0129615D01*
X0147200Y0129615D02*
X0147200Y0134815D01*
X0157200Y0134815D02*
X0157200Y0129615D01*
X0167200Y0129615D02*
X0167200Y0134815D01*
X0167200Y0159615D02*
X0167200Y0164815D01*
X0157200Y0164815D02*
X0157200Y0159615D01*
X0147200Y0159615D02*
X0147200Y0164815D01*
X0137200Y0164815D02*
X0137200Y0159615D01*
X0127200Y0159615D02*
X0127200Y0164815D01*
X0117200Y0164815D02*
X0117200Y0159615D01*
X0107200Y0159615D02*
X0107200Y0164815D01*
X0097200Y0164815D02*
X0097200Y0159615D01*
X0087200Y0159615D02*
X0087200Y0164815D01*
X0077200Y0164815D02*
X0077200Y0159615D01*
X0067200Y0159615D02*
X0067200Y0164815D01*
X0057200Y0164815D02*
X0057200Y0159615D01*
X0047200Y0159615D02*
X0047200Y0164815D01*
X0037200Y0164815D02*
X0037200Y0159615D01*
X0037200Y0189615D02*
X0037200Y0194815D01*
X0047200Y0194815D02*
X0047200Y0189615D01*
X0057200Y0189615D02*
X0057200Y0194815D01*
X0067200Y0194815D02*
X0067200Y0189615D01*
X0077200Y0189615D02*
X0077200Y0194815D01*
X0087200Y0194815D02*
X0087200Y0189615D01*
X0097200Y0189615D02*
X0097200Y0194815D01*
X0107200Y0194815D02*
X0107200Y0189615D01*
X0117200Y0189615D02*
X0117200Y0194815D01*
X0127200Y0194815D02*
X0127200Y0189615D01*
X0137200Y0189615D02*
X0137200Y0194815D01*
X0147200Y0194815D02*
X0147200Y0189615D01*
X0157200Y0189615D02*
X0157200Y0194815D01*
X0167200Y0194815D02*
X0167200Y0189615D01*
X0187200Y0189615D02*
X0187200Y0194815D01*
X0197200Y0194815D02*
X0197200Y0189615D01*
X0207200Y0189615D02*
X0207200Y0194815D01*
X0217200Y0194815D02*
X0217200Y0189615D01*
X0227200Y0189615D02*
X0227200Y0194815D01*
X0237200Y0194815D02*
X0237200Y0189615D01*
X0247200Y0189615D02*
X0247200Y0194815D01*
X0257200Y0194815D02*
X0257200Y0189615D01*
X0267200Y0189615D02*
X0267200Y0194815D01*
X0267200Y0164815D02*
X0267200Y0159615D01*
X0257200Y0159615D02*
X0257200Y0164815D01*
X0247200Y0164815D02*
X0247200Y0159615D01*
X0237200Y0159615D02*
X0237200Y0164815D01*
X0227200Y0164815D02*
X0227200Y0159615D01*
X0217200Y0159615D02*
X0217200Y0164815D01*
X0207200Y0164815D02*
X0207200Y0159615D01*
X0197200Y0159615D02*
X0197200Y0164815D01*
X0187200Y0164815D02*
X0187200Y0159615D01*
D15*
X0222200Y0092715D02*
X0222200Y0086715D01*
X0232200Y0086715D02*
X0232200Y0092715D01*
X0242200Y0092715D02*
X0242200Y0086715D01*
X0242200Y0036465D02*
X0242200Y0030465D01*
X0232200Y0030465D02*
X0232200Y0036465D01*
X0222200Y0036465D02*
X0222200Y0030465D01*
X0204700Y0030465D02*
X0204700Y0036465D01*
X0194700Y0036465D02*
X0194700Y0030465D01*
X0184700Y0030465D02*
X0184700Y0036465D01*
X0344200Y0122215D02*
X0350200Y0122215D01*
X0350200Y0132215D02*
X0344200Y0132215D01*
X0344200Y0142215D02*
X0350200Y0142215D01*
X0350200Y0152215D02*
X0344200Y0152215D01*
X0292200Y0226715D02*
X0292200Y0232715D01*
X0282200Y0232715D02*
X0282200Y0226715D01*
X0272200Y0226715D02*
X0272200Y0232715D01*
X0252200Y0232715D02*
X0252200Y0226715D01*
X0242200Y0226715D02*
X0242200Y0232715D01*
X0232200Y0232715D02*
X0232200Y0226715D01*
X0212200Y0226715D02*
X0212200Y0232715D01*
X0202200Y0232715D02*
X0202200Y0226715D01*
X0192200Y0226715D02*
X0192200Y0232715D01*
X0172200Y0232715D02*
X0172200Y0226715D01*
X0162200Y0226715D02*
X0162200Y0232715D01*
X0152200Y0232715D02*
X0152200Y0226715D01*
D16*
X0164400Y0042215D02*
X0170000Y0042215D01*
X0170000Y0032215D02*
X0164400Y0032215D01*
D17*
X0147200Y0032215D03*
X0107200Y0032215D03*
X0027200Y0082215D03*
X0037200Y0102215D03*
X0027200Y0122215D03*
X0027200Y0142215D03*
X0027200Y0152215D03*
X0077200Y0102215D03*
X0292200Y0114715D03*
X0302200Y0114715D03*
X0312200Y0114715D03*
X0322200Y0114715D03*
X0322200Y0154715D03*
X0322200Y0162215D03*
X0312200Y0162215D03*
X0312200Y0154715D03*
X0302200Y0154715D03*
X0292200Y0154715D03*
X0292200Y0162215D03*
X0302200Y0162215D03*
X0302200Y0202215D03*
X0292200Y0202215D03*
X0312200Y0202215D03*
X0322200Y0202215D03*
D18*
X0184700Y0111715D03*
X0184700Y0092715D03*
X0091700Y0219715D03*
X0072700Y0219715D03*
D19*
X0037200Y0112215D03*
D20*
X0047200Y0112215D03*
X0057200Y0112215D03*
X0057200Y0122215D03*
X0047200Y0122215D03*
X0037200Y0122215D03*
D21*
X0053755Y0066900D03*
X0063755Y0066900D03*
X0073755Y0066900D03*
X0083755Y0066900D03*
X0078755Y0056900D03*
X0068755Y0056900D03*
X0058755Y0056900D03*
X0048755Y0056900D03*
X0284976Y0056900D03*
X0294976Y0056900D03*
X0304976Y0056900D03*
X0314976Y0056900D03*
X0319976Y0066900D03*
X0309976Y0066900D03*
X0299976Y0066900D03*
X0289976Y0066900D03*
D22*
X0294106Y0064982D02*
X0295397Y0064982D01*
X0295388Y0065000D02*
X0295742Y0064306D01*
X0296200Y0063675D01*
X0296751Y0063124D01*
X0297381Y0062666D01*
X0298075Y0062313D01*
X0298816Y0062072D01*
X0299586Y0061950D01*
X0299976Y0061950D01*
X0300365Y0061950D01*
X0300676Y0061999D01*
X0300676Y0058409D01*
X0300426Y0057805D01*
X0300426Y0056522D01*
X0299834Y0055930D01*
X0299926Y0056510D01*
X0299926Y0056900D01*
X0299926Y0057290D01*
X0299804Y0058059D01*
X0299563Y0058800D01*
X0299209Y0059494D01*
X0298751Y0060125D01*
X0298200Y0060676D01*
X0297570Y0061134D01*
X0296876Y0061487D01*
X0296135Y0061728D01*
X0295365Y0061850D01*
X0294976Y0061850D01*
X0294976Y0056900D01*
X0299926Y0056900D01*
X0294976Y0056900D01*
X0294976Y0056900D01*
X0294976Y0056900D01*
X0294976Y0061850D01*
X0294586Y0061850D01*
X0293816Y0061728D01*
X0293075Y0061487D01*
X0292381Y0061134D01*
X0291751Y0060676D01*
X0291200Y0060125D01*
X0290742Y0059494D01*
X0290388Y0058800D01*
X0290147Y0058059D01*
X0290026Y0057290D01*
X0290026Y0056900D01*
X0290026Y0056510D01*
X0290147Y0055741D01*
X0290388Y0055000D01*
X0290742Y0054306D01*
X0290953Y0054015D01*
X0288525Y0054015D01*
X0288833Y0054323D01*
X0289526Y0055995D01*
X0289526Y0057805D01*
X0288833Y0059477D01*
X0287553Y0060757D01*
X0285881Y0061450D01*
X0284071Y0061450D01*
X0282398Y0060757D01*
X0281118Y0059477D01*
X0280426Y0057805D01*
X0280426Y0055995D01*
X0281118Y0054323D01*
X0281426Y0054015D01*
X0191481Y0054015D01*
X0180845Y0064651D01*
X0179636Y0065860D01*
X0178055Y0066515D01*
X0103981Y0066515D01*
X0093345Y0077151D01*
X0092136Y0078360D01*
X0090555Y0079015D01*
X0080715Y0079015D01*
X0079134Y0078360D01*
X0071781Y0071007D01*
X0071178Y0070757D01*
X0069898Y0069477D01*
X0069205Y0067805D01*
X0069205Y0065995D01*
X0069455Y0065391D01*
X0069455Y0063681D01*
X0066781Y0061007D01*
X0066178Y0060757D01*
X0064898Y0059477D01*
X0064205Y0057805D01*
X0064205Y0055995D01*
X0064898Y0054323D01*
X0066089Y0053131D01*
X0065171Y0052751D01*
X0065136Y0052715D01*
X0061416Y0052715D01*
X0061980Y0053124D01*
X0062531Y0053675D01*
X0062989Y0054306D01*
X0063342Y0055000D01*
X0063583Y0055741D01*
X0063705Y0056510D01*
X0063705Y0056900D01*
X0063705Y0057290D01*
X0063583Y0058059D01*
X0063342Y0058800D01*
X0062989Y0059494D01*
X0062531Y0060125D01*
X0061980Y0060676D01*
X0061349Y0061134D01*
X0060655Y0061487D01*
X0059914Y0061728D01*
X0059145Y0061850D01*
X0058755Y0061850D01*
X0058366Y0061850D01*
X0057596Y0061728D01*
X0056855Y0061487D01*
X0056161Y0061134D01*
X0055530Y0060676D01*
X0054979Y0060125D01*
X0054521Y0059494D01*
X0054168Y0058800D01*
X0053927Y0058059D01*
X0053805Y0057290D01*
X0053805Y0056900D01*
X0058755Y0056900D01*
X0058755Y0056900D01*
X0053805Y0056900D01*
X0053805Y0056510D01*
X0053927Y0055741D01*
X0054168Y0055000D01*
X0054521Y0054306D01*
X0054979Y0053675D01*
X0055530Y0053124D01*
X0056094Y0052715D01*
X0050541Y0052715D01*
X0051332Y0053043D01*
X0052612Y0054323D01*
X0053305Y0055995D01*
X0053305Y0057805D01*
X0052612Y0059477D01*
X0051332Y0060757D01*
X0049660Y0061450D01*
X0048178Y0061450D01*
X0050474Y0063746D01*
X0051178Y0063043D01*
X0052850Y0062350D01*
X0054660Y0062350D01*
X0056332Y0063043D01*
X0057612Y0064323D01*
X0058305Y0065995D01*
X0058305Y0067805D01*
X0057612Y0069477D01*
X0056332Y0070757D01*
X0054660Y0071450D01*
X0052850Y0071450D01*
X0051178Y0070757D01*
X0050320Y0069900D01*
X0048788Y0069900D01*
X0047686Y0069443D01*
X0046842Y0068599D01*
X0039657Y0061414D01*
X0039200Y0060312D01*
X0039200Y0054118D01*
X0039657Y0053016D01*
X0040501Y0052172D01*
X0045501Y0047172D01*
X0046603Y0046715D01*
X0065136Y0046715D01*
X0065171Y0046679D01*
X0066488Y0046134D01*
X0067912Y0046134D01*
X0069229Y0046679D01*
X0070236Y0047686D01*
X0070781Y0049003D01*
X0070781Y0050427D01*
X0070236Y0051743D01*
X0069629Y0052350D01*
X0069660Y0052350D01*
X0071332Y0053043D01*
X0072612Y0054323D01*
X0072862Y0054926D01*
X0074205Y0056269D01*
X0074205Y0055995D01*
X0074898Y0054323D01*
X0076178Y0053043D01*
X0077850Y0052350D01*
X0079628Y0052350D01*
X0092194Y0039784D01*
X0090466Y0040500D01*
X0087044Y0040500D01*
X0083884Y0039191D01*
X0081464Y0036772D01*
X0080155Y0033611D01*
X0080155Y0030189D01*
X0081464Y0027028D01*
X0083884Y0024609D01*
X0087044Y0023300D01*
X0090466Y0023300D01*
X0093627Y0024609D01*
X0096046Y0027028D01*
X0097355Y0030189D01*
X0097355Y0033611D01*
X0096639Y0035339D01*
X0096967Y0035011D01*
X0097923Y0034615D01*
X0103377Y0034615D01*
X0102800Y0034037D01*
X0102800Y0030392D01*
X0105377Y0027815D01*
X0109023Y0027815D01*
X0111600Y0030392D01*
X0111600Y0034037D01*
X0111023Y0034615D01*
X0143377Y0034615D01*
X0142800Y0034037D01*
X0142800Y0030392D01*
X0145377Y0027815D01*
X0149023Y0027815D01*
X0150823Y0029615D01*
X0160498Y0029615D01*
X0160500Y0029609D01*
X0161794Y0028315D01*
X0163485Y0027615D01*
X0170915Y0027615D01*
X0172606Y0028315D01*
X0173900Y0029609D01*
X0174600Y0031300D01*
X0174600Y0033130D01*
X0173900Y0034821D01*
X0173691Y0035029D01*
X0178277Y0039615D01*
X0180561Y0039615D01*
X0180253Y0039190D01*
X0179881Y0038461D01*
X0179628Y0037683D01*
X0179500Y0036874D01*
X0179500Y0033465D01*
X0184700Y0033465D01*
X0189900Y0033465D01*
X0189900Y0036874D01*
X0189772Y0037683D01*
X0189519Y0038461D01*
X0189147Y0039190D01*
X0188839Y0039615D01*
X0191062Y0039615D01*
X0190631Y0039184D01*
X0189900Y0037420D01*
X0189900Y0029510D01*
X0190631Y0027746D01*
X0191981Y0026396D01*
X0193745Y0025665D01*
X0195655Y0025665D01*
X0197419Y0026396D01*
X0198769Y0027746D01*
X0199500Y0029510D01*
X0199500Y0037420D01*
X0198769Y0039184D01*
X0198338Y0039615D01*
X0201062Y0039615D01*
X0200631Y0039184D01*
X0199900Y0037420D01*
X0199900Y0029510D01*
X0200631Y0027746D01*
X0201981Y0026396D01*
X0203745Y0025665D01*
X0205655Y0025665D01*
X0207419Y0026396D01*
X0208769Y0027746D01*
X0209500Y0029510D01*
X0209500Y0037420D01*
X0208769Y0039184D01*
X0208338Y0039615D01*
X0218562Y0039615D01*
X0218131Y0039184D01*
X0217400Y0037420D01*
X0217400Y0029510D01*
X0218131Y0027746D01*
X0219481Y0026396D01*
X0221245Y0025665D01*
X0223155Y0025665D01*
X0224919Y0026396D01*
X0226269Y0027746D01*
X0227000Y0029510D01*
X0227000Y0037420D01*
X0226269Y0039184D01*
X0225838Y0039615D01*
X0228061Y0039615D01*
X0227753Y0039190D01*
X0227381Y0038461D01*
X0227128Y0037683D01*
X0227000Y0036874D01*
X0227000Y0033465D01*
X0232200Y0033465D01*
X0237400Y0033465D01*
X0237400Y0036874D01*
X0237272Y0037683D01*
X0237019Y0038461D01*
X0236647Y0039190D01*
X0236339Y0039615D01*
X0238562Y0039615D01*
X0238131Y0039184D01*
X0237400Y0037420D01*
X0237400Y0029510D01*
X0238131Y0027746D01*
X0239481Y0026396D01*
X0241245Y0025665D01*
X0243155Y0025665D01*
X0244919Y0026396D01*
X0246269Y0027746D01*
X0247000Y0029510D01*
X0247000Y0037420D01*
X0246269Y0039184D01*
X0245838Y0039615D01*
X0276128Y0039615D01*
X0275104Y0039191D01*
X0272685Y0036772D01*
X0271376Y0033611D01*
X0271376Y0030189D01*
X0272685Y0027028D01*
X0275104Y0024609D01*
X0278265Y0023300D01*
X0281686Y0023300D01*
X0284847Y0024609D01*
X0287266Y0027028D01*
X0288576Y0030189D01*
X0288576Y0033611D01*
X0287266Y0036772D01*
X0284847Y0039191D01*
X0283823Y0039615D01*
X0305217Y0039615D01*
X0306173Y0040011D01*
X0316448Y0050286D01*
X0317180Y0051018D01*
X0317576Y0051973D01*
X0317576Y0053065D01*
X0318833Y0054323D01*
X0319526Y0055995D01*
X0319526Y0057805D01*
X0318833Y0059477D01*
X0317553Y0060757D01*
X0315881Y0061450D01*
X0315112Y0061450D01*
X0317051Y0063389D01*
X0317398Y0063043D01*
X0319071Y0062350D01*
X0320881Y0062350D01*
X0322553Y0063043D01*
X0323833Y0064323D01*
X0324526Y0065995D01*
X0324526Y0067805D01*
X0323833Y0069477D01*
X0322553Y0070757D01*
X0320881Y0071450D01*
X0319071Y0071450D01*
X0317398Y0070757D01*
X0316118Y0069477D01*
X0316078Y0069380D01*
X0315412Y0069104D01*
X0314681Y0068373D01*
X0314405Y0068097D01*
X0313833Y0069477D01*
X0312553Y0070757D01*
X0310881Y0071450D01*
X0309071Y0071450D01*
X0307398Y0070757D01*
X0306118Y0069477D01*
X0305868Y0068874D01*
X0304838Y0067843D01*
X0304804Y0068059D01*
X0304563Y0068800D01*
X0304209Y0069494D01*
X0303751Y0070125D01*
X0303200Y0070676D01*
X0302570Y0071134D01*
X0301876Y0071487D01*
X0301135Y0071728D01*
X0300365Y0071850D01*
X0299976Y0071850D01*
X0299976Y0066900D01*
X0299976Y0066900D01*
X0299976Y0061950D01*
X0299976Y0066900D01*
X0299976Y0066900D01*
X0299976Y0071850D01*
X0299586Y0071850D01*
X0298816Y0071728D01*
X0298075Y0071487D01*
X0297381Y0071134D01*
X0296751Y0070676D01*
X0296200Y0070125D01*
X0295742Y0069494D01*
X0295388Y0068800D01*
X0295147Y0068059D01*
X0295026Y0067290D01*
X0295026Y0066900D01*
X0295026Y0066510D01*
X0295147Y0065741D01*
X0295388Y0065000D01*
X0294526Y0065995D02*
X0293833Y0064323D01*
X0292553Y0063043D01*
X0290881Y0062350D01*
X0289071Y0062350D01*
X0287398Y0063043D01*
X0286118Y0064323D01*
X0285426Y0065995D01*
X0285426Y0067805D01*
X0286118Y0069477D01*
X0287398Y0070757D01*
X0289071Y0071450D01*
X0290881Y0071450D01*
X0292553Y0070757D01*
X0293833Y0069477D01*
X0294526Y0067805D01*
X0294526Y0065995D01*
X0295026Y0066900D02*
X0299975Y0066900D01*
X0299975Y0066900D01*
X0295026Y0066900D01*
X0295040Y0067381D02*
X0294526Y0067381D01*
X0293531Y0069779D02*
X0295949Y0069779D01*
X0299976Y0069779D02*
X0299976Y0069779D01*
X0299976Y0067381D02*
X0299976Y0067381D01*
X0299976Y0064982D02*
X0299976Y0064982D01*
X0299976Y0062584D02*
X0299976Y0062584D01*
X0297543Y0062584D02*
X0291445Y0062584D01*
X0291260Y0060185D02*
X0288125Y0060185D01*
X0288506Y0062584D02*
X0257550Y0062584D01*
X0257550Y0062215D02*
X0257550Y0064431D01*
X0254416Y0067565D01*
X0252200Y0067565D01*
X0252200Y0062215D01*
X0252200Y0062215D01*
X0252200Y0067565D01*
X0249984Y0067565D01*
X0246850Y0064431D01*
X0246850Y0063924D01*
X0246396Y0065019D01*
X0245004Y0066411D01*
X0243185Y0067165D01*
X0241215Y0067165D01*
X0239396Y0066411D01*
X0238004Y0065019D01*
X0237250Y0063200D01*
X0237250Y0061230D01*
X0238004Y0059411D01*
X0239396Y0058019D01*
X0241215Y0057265D01*
X0243185Y0057265D01*
X0245004Y0058019D01*
X0246396Y0059411D01*
X0246850Y0060506D01*
X0246850Y0059999D01*
X0249984Y0056865D01*
X0252200Y0056865D01*
X0254416Y0056865D01*
X0257550Y0059999D01*
X0257550Y0062215D01*
X0252200Y0062215D01*
X0252200Y0062215D01*
X0257550Y0062215D01*
X0257550Y0060185D02*
X0281826Y0060185D01*
X0280426Y0057787D02*
X0255338Y0057787D01*
X0252200Y0057787D02*
X0252200Y0057787D01*
X0252200Y0056865D02*
X0252200Y0062215D01*
X0252200Y0062215D01*
X0252200Y0056865D01*
X0249062Y0057787D02*
X0244444Y0057787D01*
X0246717Y0060185D02*
X0246850Y0060185D01*
X0246412Y0064982D02*
X0247401Y0064982D01*
X0249800Y0067381D02*
X0214600Y0067381D01*
X0214416Y0067565D02*
X0212200Y0067565D01*
X0212200Y0062215D01*
X0212200Y0062215D01*
X0212200Y0067565D01*
X0209984Y0067565D01*
X0206850Y0064431D01*
X0206850Y0062215D01*
X0212200Y0062215D01*
X0212200Y0062215D01*
X0212200Y0056865D01*
X0214416Y0056865D01*
X0217550Y0059999D01*
X0217550Y0060506D01*
X0218004Y0059411D01*
X0219396Y0058019D01*
X0221215Y0057265D01*
X0223185Y0057265D01*
X0225004Y0058019D01*
X0226396Y0059411D01*
X0227150Y0061230D01*
X0227150Y0063200D01*
X0226396Y0065019D01*
X0225004Y0066411D01*
X0223185Y0067165D01*
X0221215Y0067165D01*
X0219396Y0066411D01*
X0218004Y0065019D01*
X0217550Y0063924D01*
X0217550Y0064431D01*
X0214416Y0067565D01*
X0212200Y0067381D02*
X0212200Y0067381D01*
X0212200Y0064982D02*
X0212200Y0064982D01*
X0212200Y0062584D02*
X0212200Y0062584D01*
X0212200Y0062215D02*
X0206850Y0062215D01*
X0206850Y0059999D01*
X0209984Y0056865D01*
X0212200Y0056865D01*
X0212200Y0062215D01*
X0212200Y0062215D01*
X0212200Y0060185D02*
X0212200Y0060185D01*
X0212200Y0057787D02*
X0212200Y0057787D01*
X0215338Y0057787D02*
X0219956Y0057787D01*
X0217683Y0060185D02*
X0217550Y0060185D01*
X0217988Y0064982D02*
X0216999Y0064982D01*
X0209800Y0067381D02*
X0103115Y0067381D01*
X0100717Y0069779D02*
X0286420Y0069779D01*
X0285426Y0067381D02*
X0254600Y0067381D01*
X0252200Y0067381D02*
X0252200Y0067381D01*
X0252200Y0064982D02*
X0252200Y0064982D01*
X0252200Y0062584D02*
X0252200Y0062584D01*
X0252200Y0060185D02*
X0252200Y0060185D01*
X0256999Y0064982D02*
X0285845Y0064982D01*
X0294976Y0060185D02*
X0294976Y0060185D01*
X0294976Y0057787D02*
X0294976Y0057787D01*
X0294975Y0056900D02*
X0294975Y0056900D01*
X0290026Y0056900D01*
X0294975Y0056900D01*
X0290262Y0055388D02*
X0289274Y0055388D01*
X0289526Y0057787D02*
X0290104Y0057787D01*
X0298691Y0060185D02*
X0300676Y0060185D01*
X0300426Y0057787D02*
X0299847Y0057787D01*
X0316246Y0062584D02*
X0318506Y0062584D01*
X0318125Y0060185D02*
X0342200Y0060185D01*
X0342200Y0057787D02*
X0319526Y0057787D01*
X0319274Y0055388D02*
X0342200Y0055388D01*
X0342200Y0052990D02*
X0317576Y0052990D01*
X0316753Y0050591D02*
X0342200Y0050591D01*
X0342200Y0048193D02*
X0314355Y0048193D01*
X0311956Y0045794D02*
X0342200Y0045794D01*
X0342200Y0043396D02*
X0309558Y0043396D01*
X0307159Y0040997D02*
X0342200Y0040997D01*
X0342200Y0038599D02*
X0330439Y0038599D01*
X0329847Y0039191D02*
X0326686Y0040500D01*
X0323265Y0040500D01*
X0320104Y0039191D01*
X0317685Y0036772D01*
X0316376Y0033611D01*
X0316376Y0030189D01*
X0317685Y0027028D01*
X0320104Y0024609D01*
X0323265Y0023300D01*
X0326686Y0023300D01*
X0329847Y0024609D01*
X0332266Y0027028D01*
X0333576Y0030189D01*
X0333576Y0033611D01*
X0332266Y0036772D01*
X0329847Y0039191D01*
X0332503Y0036200D02*
X0342200Y0036200D01*
X0342200Y0033802D02*
X0333497Y0033802D01*
X0333576Y0031403D02*
X0345320Y0031403D01*
X0344905Y0031231D02*
X0342514Y0028840D01*
X0341220Y0025717D01*
X0341220Y0022335D01*
X0342514Y0019212D01*
X0344905Y0016821D01*
X0348029Y0015527D01*
X0351410Y0015527D01*
X0354534Y0016821D01*
X0356925Y0019212D01*
X0358219Y0022335D01*
X0358219Y0025717D01*
X0356925Y0028840D01*
X0354534Y0031231D01*
X0352159Y0032215D01*
X0359331Y0032215D01*
X0359331Y0022057D01*
X0359237Y0020862D01*
X0358498Y0018588D01*
X0357092Y0016653D01*
X0355158Y0015248D01*
X0352884Y0014509D01*
X0351688Y0014415D01*
X0017043Y0014415D01*
X0015847Y0014509D01*
X0013573Y0015248D01*
X0011638Y0016653D01*
X0010233Y0018588D01*
X0009494Y0020862D01*
X0009400Y0022057D01*
X0009400Y0238593D01*
X0009494Y0239788D01*
X0010233Y0242063D01*
X0011638Y0243997D01*
X0013573Y0245402D01*
X0015847Y0246141D01*
X0017042Y0246235D01*
X0351688Y0246235D01*
X0352884Y0246141D01*
X0355158Y0245402D01*
X0357092Y0243997D01*
X0358498Y0242063D01*
X0359237Y0239788D01*
X0359331Y0238593D01*
X0359331Y0149893D01*
X0359126Y0150097D01*
X0354126Y0155097D01*
X0354092Y0155112D01*
X0352919Y0156284D01*
X0351155Y0157015D01*
X0343245Y0157015D01*
X0341481Y0156284D01*
X0340131Y0154934D01*
X0339400Y0153170D01*
X0339400Y0151260D01*
X0340131Y0149496D01*
X0341481Y0148146D01*
X0343245Y0147415D01*
X0351155Y0147415D01*
X0351888Y0147719D01*
X0352994Y0146612D01*
X0352925Y0146662D01*
X0352196Y0147034D01*
X0351418Y0147287D01*
X0350609Y0147415D01*
X0347200Y0147415D01*
X0347200Y0142215D01*
X0347200Y0142215D01*
X0347200Y0147415D01*
X0343791Y0147415D01*
X0342982Y0147287D01*
X0342204Y0147034D01*
X0341475Y0146662D01*
X0340812Y0146181D01*
X0340234Y0145603D01*
X0339753Y0144940D01*
X0339381Y0144211D01*
X0339128Y0143433D01*
X0339000Y0142624D01*
X0339000Y0142215D01*
X0347200Y0142215D01*
X0347200Y0142215D01*
X0347200Y0137015D01*
X0350609Y0137015D01*
X0351418Y0137143D01*
X0352196Y0137396D01*
X0352925Y0137768D01*
X0353588Y0138249D01*
X0353800Y0138461D01*
X0353800Y0135403D01*
X0352919Y0136284D01*
X0351155Y0137015D01*
X0343245Y0137015D01*
X0341481Y0136284D01*
X0340131Y0134934D01*
X0339400Y0133170D01*
X0339400Y0131260D01*
X0340131Y0129496D01*
X0340467Y0129159D01*
X0338623Y0127315D01*
X0300777Y0127315D01*
X0285977Y0142115D01*
X0312717Y0142115D01*
X0313673Y0142511D01*
X0321477Y0150315D01*
X0324023Y0150315D01*
X0326600Y0152892D01*
X0326600Y0156537D01*
X0325200Y0157937D01*
X0325200Y0158992D01*
X0326600Y0160392D01*
X0326600Y0164037D01*
X0324023Y0166615D01*
X0320377Y0166615D01*
X0317800Y0164037D01*
X0317800Y0160392D01*
X0319200Y0158992D01*
X0319200Y0157937D01*
X0317800Y0156537D01*
X0317800Y0153992D01*
X0311123Y0147315D01*
X0308477Y0147315D01*
X0311477Y0150315D01*
X0314023Y0150315D01*
X0316600Y0152892D01*
X0316600Y0156537D01*
X0315200Y0157937D01*
X0315200Y0158992D01*
X0316600Y0160392D01*
X0316600Y0164037D01*
X0314023Y0166615D01*
X0310377Y0166615D01*
X0307800Y0164037D01*
X0307800Y0160392D01*
X0309200Y0158992D01*
X0309200Y0157937D01*
X0307800Y0156537D01*
X0307800Y0153992D01*
X0303623Y0149815D01*
X0300977Y0149815D01*
X0301477Y0150315D01*
X0304023Y0150315D01*
X0306600Y0152892D01*
X0306600Y0156537D01*
X0305200Y0157937D01*
X0305200Y0158992D01*
X0306600Y0160392D01*
X0306600Y0164037D01*
X0304023Y0166615D01*
X0300377Y0166615D01*
X0297800Y0164037D01*
X0297800Y0160392D01*
X0299200Y0158992D01*
X0299200Y0157937D01*
X0297800Y0156537D01*
X0297800Y0153992D01*
X0296123Y0152315D01*
X0296023Y0152315D01*
X0296600Y0152892D01*
X0296600Y0156537D01*
X0295200Y0157937D01*
X0295200Y0158992D01*
X0296600Y0160392D01*
X0296600Y0164037D01*
X0294023Y0166615D01*
X0290377Y0166615D01*
X0287800Y0164037D01*
X0287800Y0160392D01*
X0289200Y0158992D01*
X0289200Y0157937D01*
X0288577Y0157315D01*
X0271415Y0157315D01*
X0271648Y0157772D01*
X0271882Y0158491D01*
X0272000Y0159237D01*
X0272000Y0162215D01*
X0272000Y0165193D01*
X0271882Y0165939D01*
X0271648Y0166658D01*
X0271305Y0167331D01*
X0270861Y0167942D01*
X0270327Y0168476D01*
X0269716Y0168920D01*
X0269043Y0169263D01*
X0268324Y0169497D01*
X0267578Y0169615D01*
X0267200Y0169615D01*
X0267200Y0162215D01*
X0267200Y0162215D01*
X0267200Y0169615D01*
X0266822Y0169615D01*
X0266076Y0169497D01*
X0265357Y0169263D01*
X0264684Y0168920D01*
X0264073Y0168476D01*
X0263539Y0167942D01*
X0263095Y0167331D01*
X0262752Y0166658D01*
X0262518Y0165939D01*
X0262400Y0165193D01*
X0262400Y0162215D01*
X0267200Y0162215D01*
X0272000Y0162215D01*
X0267200Y0162215D01*
X0267200Y0162215D01*
X0267200Y0162215D01*
X0262400Y0162215D01*
X0262400Y0159237D01*
X0262518Y0158491D01*
X0262752Y0157772D01*
X0262985Y0157315D01*
X0261010Y0157315D01*
X0261600Y0158740D01*
X0261600Y0165690D01*
X0260930Y0167307D01*
X0259800Y0168437D01*
X0259800Y0170232D01*
X0259404Y0171188D01*
X0258673Y0171919D01*
X0243673Y0186919D01*
X0242717Y0187315D01*
X0241010Y0187315D01*
X0241600Y0188740D01*
X0241600Y0195690D01*
X0241500Y0195932D01*
X0241500Y0207934D01*
X0254636Y0221070D01*
X0255845Y0222279D01*
X0256500Y0223860D01*
X0256500Y0224553D01*
X0257000Y0225760D01*
X0257000Y0233670D01*
X0256269Y0235434D01*
X0254919Y0236784D01*
X0253155Y0237515D01*
X0251245Y0237515D01*
X0249481Y0236784D01*
X0248131Y0235434D01*
X0247400Y0233670D01*
X0247400Y0225996D01*
X0246884Y0225480D01*
X0247000Y0225760D01*
X0247000Y0233670D01*
X0246269Y0235434D01*
X0244919Y0236784D01*
X0243155Y0237515D01*
X0241245Y0237515D01*
X0239481Y0236784D01*
X0238131Y0235434D01*
X0237400Y0233670D01*
X0237400Y0225760D01*
X0238131Y0223996D01*
X0239481Y0222646D01*
X0241245Y0221915D01*
X0243155Y0221915D01*
X0243435Y0222031D01*
X0233555Y0212151D01*
X0232900Y0210570D01*
X0232900Y0195932D01*
X0232800Y0195690D01*
X0232800Y0188740D01*
X0233390Y0187315D01*
X0231010Y0187315D01*
X0231600Y0188740D01*
X0231600Y0195690D01*
X0231500Y0195932D01*
X0231500Y0221915D01*
X0233155Y0221915D01*
X0234919Y0222646D01*
X0236269Y0223996D01*
X0237000Y0225760D01*
X0237000Y0233670D01*
X0236269Y0235434D01*
X0234919Y0236784D01*
X0233155Y0237515D01*
X0231245Y0237515D01*
X0229481Y0236784D01*
X0228131Y0235434D01*
X0227400Y0233670D01*
X0227400Y0230996D01*
X0223555Y0227151D01*
X0222900Y0225570D01*
X0222900Y0195932D01*
X0222800Y0195690D01*
X0222800Y0188740D01*
X0223390Y0187315D01*
X0221010Y0187315D01*
X0221600Y0188740D01*
X0221600Y0195690D01*
X0221500Y0195932D01*
X0221500Y0225570D01*
X0220845Y0227151D01*
X0217000Y0230996D01*
X0217000Y0233670D01*
X0216269Y0235434D01*
X0214919Y0236784D01*
X0213155Y0237515D01*
X0211245Y0237515D01*
X0209481Y0236784D01*
X0208131Y0235434D01*
X0207400Y0233670D01*
X0207400Y0225760D01*
X0208131Y0223996D01*
X0209481Y0222646D01*
X0211245Y0221915D01*
X0212900Y0221915D01*
X0212900Y0195932D01*
X0212800Y0195690D01*
X0212800Y0188740D01*
X0213390Y0187315D01*
X0211010Y0187315D01*
X0211600Y0188740D01*
X0211600Y0195690D01*
X0211500Y0195932D01*
X0211500Y0210570D01*
X0210845Y0212151D01*
X0209636Y0213360D01*
X0200965Y0222031D01*
X0201245Y0221915D01*
X0203155Y0221915D01*
X0204919Y0222646D01*
X0206269Y0223996D01*
X0207000Y0225760D01*
X0207000Y0233670D01*
X0206269Y0235434D01*
X0204919Y0236784D01*
X0203155Y0237515D01*
X0201245Y0237515D01*
X0199481Y0236784D01*
X0198131Y0235434D01*
X0197400Y0233670D01*
X0197400Y0225760D01*
X0197516Y0225480D01*
X0197000Y0225996D01*
X0197000Y0233670D01*
X0196269Y0235434D01*
X0194919Y0236784D01*
X0193155Y0237515D01*
X0191245Y0237515D01*
X0189481Y0236784D01*
X0188131Y0235434D01*
X0187400Y0233670D01*
X0187400Y0225760D01*
X0187900Y0224553D01*
X0187900Y0223860D01*
X0188555Y0222279D01*
X0189764Y0221070D01*
X0202900Y0207934D01*
X0202900Y0195932D01*
X0202800Y0195690D01*
X0202800Y0188740D01*
X0203390Y0187315D01*
X0201010Y0187315D01*
X0201600Y0188740D01*
X0201600Y0195690D01*
X0201500Y0195932D01*
X0201500Y0205570D01*
X0200845Y0207151D01*
X0177000Y0230996D01*
X0177000Y0233670D01*
X0176269Y0235434D01*
X0174919Y0236784D01*
X0173155Y0237515D01*
X0171245Y0237515D01*
X0169481Y0236784D01*
X0168131Y0235434D01*
X0167400Y0233670D01*
X0167400Y0225760D01*
X0168131Y0223996D01*
X0169481Y0222646D01*
X0171245Y0221915D01*
X0173155Y0221915D01*
X0173695Y0222139D01*
X0192900Y0202934D01*
X0192900Y0195932D01*
X0192800Y0195690D01*
X0192800Y0188740D01*
X0193390Y0187315D01*
X0191010Y0187315D01*
X0191600Y0188740D01*
X0191600Y0195690D01*
X0191500Y0195932D01*
X0191500Y0203070D01*
X0190845Y0204651D01*
X0183345Y0212151D01*
X0182136Y0213360D01*
X0180555Y0214015D01*
X0168981Y0214015D01*
X0160965Y0222031D01*
X0161245Y0221915D01*
X0163155Y0221915D01*
X0164919Y0222646D01*
X0166269Y0223996D01*
X0167000Y0225760D01*
X0167000Y0233670D01*
X0166269Y0235434D01*
X0164919Y0236784D01*
X0163155Y0237515D01*
X0161245Y0237515D01*
X0159481Y0236784D01*
X0158131Y0235434D01*
X0157400Y0233670D01*
X0157400Y0225760D01*
X0157516Y0225480D01*
X0157000Y0225996D01*
X0157000Y0233670D01*
X0156269Y0235434D01*
X0154919Y0236784D01*
X0153155Y0237515D01*
X0151245Y0237515D01*
X0149481Y0236784D01*
X0148131Y0235434D01*
X0147400Y0233670D01*
X0147400Y0225760D01*
X0147900Y0224553D01*
X0147900Y0223860D01*
X0148555Y0222279D01*
X0149764Y0221070D01*
X0164764Y0206070D01*
X0166345Y0205415D01*
X0177919Y0205415D01*
X0182900Y0200434D01*
X0182900Y0195932D01*
X0182800Y0195690D01*
X0182800Y0188740D01*
X0183390Y0187315D01*
X0171010Y0187315D01*
X0171600Y0188740D01*
X0171600Y0194138D01*
X0173619Y0192119D01*
X0173619Y0191503D01*
X0174164Y0190186D01*
X0175171Y0189179D01*
X0176488Y0188634D01*
X0177912Y0188634D01*
X0179229Y0189179D01*
X0180236Y0190186D01*
X0180781Y0191503D01*
X0180781Y0192927D01*
X0180236Y0194243D01*
X0179229Y0195251D01*
X0177912Y0195796D01*
X0177296Y0195796D01*
X0171173Y0201919D01*
X0170217Y0202315D01*
X0102366Y0202315D01*
X0102550Y0202499D01*
X0102550Y0204715D01*
X0102550Y0206931D01*
X0099416Y0210065D01*
X0097200Y0210065D01*
X0097200Y0204715D01*
X0097200Y0204715D01*
X0097200Y0210065D01*
X0094984Y0210065D01*
X0091917Y0206998D01*
X0089250Y0209665D01*
X0085150Y0209665D01*
X0082250Y0206765D01*
X0082250Y0202665D01*
X0082600Y0202315D01*
X0081800Y0202315D01*
X0082150Y0202665D01*
X0082150Y0206765D01*
X0079250Y0209665D01*
X0075150Y0209665D01*
X0072483Y0206998D01*
X0069416Y0210065D01*
X0067200Y0210065D01*
X0067200Y0204715D01*
X0067200Y0204715D01*
X0067200Y0210065D01*
X0064984Y0210065D01*
X0061850Y0206931D01*
X0061850Y0204715D01*
X0067200Y0204715D01*
X0067200Y0204715D01*
X0061850Y0204715D01*
X0061850Y0202499D01*
X0062034Y0202315D01*
X0044183Y0202315D01*
X0043227Y0201919D01*
X0042496Y0201188D01*
X0039773Y0198465D01*
X0039692Y0198545D01*
X0038075Y0199215D01*
X0036325Y0199215D01*
X0034708Y0198545D01*
X0033470Y0197307D01*
X0032800Y0195690D01*
X0032800Y0188740D01*
X0033470Y0187123D01*
X0034708Y0185885D01*
X0036325Y0185215D01*
X0038075Y0185215D01*
X0039692Y0185885D01*
X0040930Y0187123D01*
X0041600Y0188740D01*
X0041600Y0192938D01*
X0042800Y0194138D01*
X0042800Y0188740D01*
X0043470Y0187123D01*
X0044708Y0185885D01*
X0046325Y0185215D01*
X0048075Y0185215D01*
X0049692Y0185885D01*
X0049773Y0185965D01*
X0066523Y0169215D01*
X0066325Y0169215D01*
X0064708Y0168545D01*
X0063470Y0167307D01*
X0062800Y0165690D01*
X0062800Y0158740D01*
X0063470Y0157123D01*
X0064200Y0156392D01*
X0064200Y0154118D01*
X0064657Y0153016D01*
X0069657Y0148016D01*
X0069957Y0147715D01*
X0063443Y0147715D01*
X0060200Y0150958D01*
X0060200Y0156392D01*
X0060930Y0157123D01*
X0061600Y0158740D01*
X0061600Y0165690D01*
X0060930Y0167307D01*
X0059692Y0168545D01*
X0058075Y0169215D01*
X0056325Y0169215D01*
X0054708Y0168545D01*
X0053470Y0167307D01*
X0052800Y0165690D01*
X0052800Y0158740D01*
X0053470Y0157123D01*
X0054200Y0156392D01*
X0054200Y0149458D01*
X0050200Y0153458D01*
X0050200Y0156392D01*
X0050930Y0157123D01*
X0051600Y0158740D01*
X0051600Y0165690D01*
X0050930Y0167307D01*
X0049692Y0168545D01*
X0048075Y0169215D01*
X0046325Y0169215D01*
X0044708Y0168545D01*
X0043470Y0167307D01*
X0042800Y0165690D01*
X0042800Y0158740D01*
X0043470Y0157123D01*
X0044200Y0156392D01*
X0044200Y0151618D01*
X0044657Y0150516D01*
X0045501Y0149672D01*
X0058001Y0137172D01*
X0059103Y0136715D01*
X0083224Y0136715D01*
X0082800Y0135690D01*
X0082800Y0128740D01*
X0083470Y0127123D01*
X0084200Y0126392D01*
X0084200Y0125215D01*
X0081200Y0125215D01*
X0079250Y0127165D01*
X0075150Y0127165D01*
X0073200Y0125215D01*
X0070200Y0125215D01*
X0070200Y0125312D01*
X0069743Y0126414D01*
X0064743Y0131414D01*
X0063899Y0132258D01*
X0062797Y0132715D01*
X0044103Y0132715D01*
X0043001Y0132258D01*
X0042157Y0131414D01*
X0037757Y0127015D01*
X0035212Y0127015D01*
X0032400Y0124203D01*
X0032400Y0120227D01*
X0035212Y0117415D01*
X0039188Y0117415D01*
X0042000Y0120227D01*
X0042000Y0122772D01*
X0042400Y0123172D01*
X0042400Y0120227D01*
X0045212Y0117415D01*
X0049188Y0117415D01*
X0052000Y0120227D01*
X0052000Y0124203D01*
X0049488Y0126715D01*
X0054346Y0126715D01*
X0052000Y0124369D01*
X0052000Y0122215D01*
X0057200Y0122215D01*
X0062400Y0122215D01*
X0062400Y0124369D01*
X0060054Y0126715D01*
X0060957Y0126715D01*
X0064200Y0123472D01*
X0064200Y0106618D01*
X0064657Y0105516D01*
X0065501Y0104672D01*
X0070501Y0099672D01*
X0071603Y0099215D01*
X0073977Y0099215D01*
X0075377Y0097815D01*
X0079023Y0097815D01*
X0081600Y0100392D01*
X0081600Y0104037D01*
X0079023Y0106615D01*
X0075377Y0106615D01*
X0073977Y0105215D01*
X0073443Y0105215D01*
X0070200Y0108458D01*
X0070200Y0119215D01*
X0073200Y0119215D01*
X0074917Y0117498D01*
X0071850Y0114431D01*
X0071850Y0112215D01*
X0077200Y0112215D01*
X0082550Y0112215D01*
X0082550Y0114431D01*
X0079483Y0117498D01*
X0081200Y0119215D01*
X0085957Y0119215D01*
X0096065Y0109107D01*
X0094708Y0108545D01*
X0093470Y0107307D01*
X0092800Y0105690D01*
X0092800Y0100858D01*
X0091600Y0102058D01*
X0091600Y0105690D01*
X0090930Y0107307D01*
X0089692Y0108545D01*
X0088075Y0109215D01*
X0086325Y0109215D01*
X0084708Y0108545D01*
X0083470Y0107307D01*
X0082800Y0105690D01*
X0082800Y0098740D01*
X0083470Y0097123D01*
X0084708Y0095885D01*
X0086325Y0095215D01*
X0088075Y0095215D01*
X0089406Y0095766D01*
X0112157Y0073016D01*
X0113001Y0072172D01*
X0114103Y0071715D01*
X0162797Y0071715D01*
X0163899Y0072172D01*
X0166943Y0075215D01*
X0168075Y0075215D01*
X0169692Y0075885D01*
X0170930Y0077123D01*
X0171600Y0078740D01*
X0171600Y0085690D01*
X0170930Y0087307D01*
X0169692Y0088545D01*
X0168075Y0089215D01*
X0166325Y0089215D01*
X0164708Y0088545D01*
X0163470Y0087307D01*
X0162800Y0085690D01*
X0162800Y0079558D01*
X0161910Y0078667D01*
X0162000Y0079237D01*
X0162000Y0082215D01*
X0162000Y0085193D01*
X0161882Y0085939D01*
X0161648Y0086658D01*
X0161305Y0087331D01*
X0160861Y0087942D01*
X0160677Y0088126D01*
X0162550Y0089999D01*
X0162550Y0092215D01*
X0162550Y0092622D01*
X0165001Y0090172D01*
X0166103Y0089715D01*
X0181477Y0089715D01*
X0182208Y0088985D01*
X0183825Y0088315D01*
X0185575Y0088315D01*
X0187192Y0088985D01*
X0187923Y0089715D01*
X0192957Y0089715D01*
X0194750Y0087922D01*
X0194750Y0085165D01*
X0197650Y0082265D01*
X0201750Y0082265D01*
X0204650Y0085165D01*
X0204650Y0089265D01*
X0201983Y0091932D01*
X0205050Y0094999D01*
X0205050Y0097215D01*
X0205050Y0099431D01*
X0202266Y0102215D01*
X0205050Y0104999D01*
X0205050Y0107215D01*
X0205050Y0109431D01*
X0201983Y0112498D01*
X0204650Y0115165D01*
X0204650Y0119265D01*
X0201750Y0122165D01*
X0197650Y0122165D01*
X0194750Y0119265D01*
X0194750Y0116508D01*
X0192957Y0114715D01*
X0187923Y0114715D01*
X0187192Y0115445D01*
X0185575Y0116115D01*
X0183825Y0116115D01*
X0182208Y0115445D01*
X0181477Y0114715D01*
X0156103Y0114715D01*
X0155001Y0114258D01*
X0149406Y0108664D01*
X0148075Y0109215D01*
X0146325Y0109215D01*
X0144708Y0108545D01*
X0143470Y0107307D01*
X0142800Y0105690D01*
X0142800Y0098740D01*
X0143470Y0097123D01*
X0144289Y0096304D01*
X0143200Y0095215D01*
X0108443Y0095215D01*
X0108335Y0095323D01*
X0109692Y0095885D01*
X0110930Y0097123D01*
X0111600Y0098740D01*
X0111600Y0105690D01*
X0110930Y0107307D01*
X0109692Y0108545D01*
X0108075Y0109215D01*
X0106325Y0109215D01*
X0104869Y0108612D01*
X0104743Y0108914D01*
X0090200Y0123458D01*
X0090200Y0126392D01*
X0090930Y0127123D01*
X0091600Y0128740D01*
X0091600Y0135690D01*
X0091176Y0136715D01*
X0093224Y0136715D01*
X0092800Y0135690D01*
X0092800Y0128740D01*
X0093470Y0127123D01*
X0094708Y0125885D01*
X0096325Y0125215D01*
X0098075Y0125215D01*
X0099692Y0125885D01*
X0100930Y0127123D01*
X0101600Y0128740D01*
X0101600Y0135690D01*
X0101176Y0136715D01*
X0103224Y0136715D01*
X0102800Y0135690D01*
X0102800Y0128740D01*
X0103470Y0127123D01*
X0104708Y0125885D01*
X0106325Y0125215D01*
X0108075Y0125215D01*
X0109531Y0125818D01*
X0109657Y0125516D01*
X0112157Y0123016D01*
X0113001Y0122172D01*
X0114103Y0121715D01*
X0120297Y0121715D01*
X0121399Y0122172D01*
X0124994Y0125766D01*
X0126325Y0125215D01*
X0128075Y0125215D01*
X0129692Y0125885D01*
X0130930Y0127123D01*
X0131600Y0128740D01*
X0131600Y0133572D01*
X0132800Y0132372D01*
X0132800Y0128740D01*
X0133470Y0127123D01*
X0134708Y0125885D01*
X0136325Y0125215D01*
X0138075Y0125215D01*
X0139692Y0125885D01*
X0140930Y0127123D01*
X0141600Y0128740D01*
X0141600Y0135690D01*
X0140930Y0137307D01*
X0139692Y0138545D01*
X0138075Y0139215D01*
X0136325Y0139215D01*
X0134994Y0138664D01*
X0118335Y0155323D01*
X0119692Y0155885D01*
X0119773Y0155965D01*
X0129996Y0145742D01*
X0130727Y0145011D01*
X0131683Y0144615D01*
X0174536Y0144615D01*
X0174164Y0144243D01*
X0173619Y0142927D01*
X0173619Y0141503D01*
X0174164Y0140186D01*
X0175171Y0139179D01*
X0176488Y0138634D01*
X0177912Y0138634D01*
X0179229Y0139179D01*
X0180236Y0140186D01*
X0180781Y0141503D01*
X0180781Y0142115D01*
X0187036Y0142115D01*
X0186664Y0141743D01*
X0186119Y0140427D01*
X0186119Y0139003D01*
X0186664Y0137686D01*
X0187671Y0136679D01*
X0188988Y0136134D01*
X0190412Y0136134D01*
X0191729Y0136679D01*
X0192736Y0137686D01*
X0193281Y0139003D01*
X0193281Y0139615D01*
X0276123Y0139615D01*
X0294996Y0120742D01*
X0295727Y0120011D01*
X0296683Y0119615D01*
X0340081Y0119615D01*
X0340131Y0119496D01*
X0341481Y0118146D01*
X0343245Y0117415D01*
X0351155Y0117415D01*
X0352919Y0118146D01*
X0353800Y0119027D01*
X0353800Y0118623D01*
X0350792Y0115615D01*
X0331524Y0115615D01*
X0330274Y0115097D01*
X0325792Y0110615D01*
X0324888Y0110615D01*
X0327000Y0112727D01*
X0327000Y0114715D01*
X0327000Y0116703D01*
X0324188Y0119515D01*
X0322200Y0119515D01*
X0322200Y0114715D01*
X0322200Y0114715D01*
X0322200Y0119515D01*
X0320212Y0119515D01*
X0317400Y0116703D01*
X0317400Y0114715D01*
X0322200Y0114715D01*
X0327000Y0114715D01*
X0322200Y0114715D01*
X0322200Y0114715D01*
X0322200Y0114715D01*
X0317400Y0114715D01*
X0317400Y0112727D01*
X0319512Y0110615D01*
X0314888Y0110615D01*
X0317000Y0112727D01*
X0317000Y0114715D01*
X0317000Y0116703D01*
X0314188Y0119515D01*
X0312200Y0119515D01*
X0312200Y0114715D01*
X0312200Y0114715D01*
X0312200Y0119515D01*
X0310212Y0119515D01*
X0307400Y0116703D01*
X0307400Y0114715D01*
X0312200Y0114715D01*
X0317000Y0114715D01*
X0312200Y0114715D01*
X0312200Y0114715D01*
X0312200Y0114715D01*
X0307400Y0114715D01*
X0307400Y0112727D01*
X0309512Y0110615D01*
X0304888Y0110615D01*
X0307000Y0112727D01*
X0307000Y0114715D01*
X0307000Y0116703D01*
X0304188Y0119515D01*
X0302200Y0119515D01*
X0302200Y0114715D01*
X0302200Y0114715D01*
X0302200Y0119515D01*
X0300212Y0119515D01*
X0297400Y0116703D01*
X0297400Y0114715D01*
X0302200Y0114715D01*
X0307000Y0114715D01*
X0302200Y0114715D01*
X0302200Y0114715D01*
X0302200Y0114715D01*
X0297400Y0114715D01*
X0297400Y0112727D01*
X0299512Y0110615D01*
X0294888Y0110615D01*
X0297000Y0112727D01*
X0297000Y0114715D01*
X0297000Y0116703D01*
X0294188Y0119515D01*
X0292200Y0119515D01*
X0292200Y0114715D01*
X0292200Y0114715D01*
X0292200Y0119515D01*
X0290212Y0119515D01*
X0287400Y0116703D01*
X0287400Y0114715D01*
X0292200Y0114715D01*
X0297000Y0114715D01*
X0292200Y0114715D01*
X0292200Y0114715D01*
X0292200Y0114715D01*
X0287400Y0114715D01*
X0287400Y0112727D01*
X0289512Y0110615D01*
X0231524Y0110615D01*
X0230274Y0110097D01*
X0220274Y0100097D01*
X0219318Y0099141D01*
X0218800Y0097891D01*
X0218800Y0096103D01*
X0218131Y0095434D01*
X0217400Y0093670D01*
X0217400Y0085760D01*
X0218131Y0083996D01*
X0219481Y0082646D01*
X0221245Y0081915D01*
X0223155Y0081915D01*
X0224919Y0082646D01*
X0226269Y0083996D01*
X0227000Y0085760D01*
X0227000Y0093670D01*
X0226269Y0095434D01*
X0225748Y0095955D01*
X0233608Y0103815D01*
X0327876Y0103815D01*
X0329126Y0104333D01*
X0330082Y0105289D01*
X0333608Y0108815D01*
X0342200Y0108815D01*
X0342200Y0032215D01*
X0347280Y0032215D01*
X0344905Y0031231D01*
X0342679Y0029005D02*
X0333085Y0029005D01*
X0331844Y0026606D02*
X0341589Y0026606D01*
X0341220Y0024208D02*
X0328877Y0024208D01*
X0321074Y0024208D02*
X0283877Y0024208D01*
X0286844Y0026606D02*
X0318107Y0026606D01*
X0316866Y0029005D02*
X0288085Y0029005D01*
X0288576Y0031403D02*
X0316376Y0031403D01*
X0316455Y0033802D02*
X0288497Y0033802D01*
X0287503Y0036200D02*
X0317448Y0036200D01*
X0319512Y0038599D02*
X0285439Y0038599D01*
X0274512Y0038599D02*
X0246512Y0038599D01*
X0247000Y0036200D02*
X0272448Y0036200D01*
X0271455Y0033802D02*
X0247000Y0033802D01*
X0247000Y0031403D02*
X0271376Y0031403D01*
X0271866Y0029005D02*
X0246791Y0029005D01*
X0245129Y0026606D02*
X0273107Y0026606D01*
X0276074Y0024208D02*
X0092657Y0024208D01*
X0095623Y0026606D02*
X0181205Y0026606D01*
X0181312Y0026499D02*
X0181975Y0026018D01*
X0182704Y0025646D01*
X0183482Y0025393D01*
X0184291Y0025265D01*
X0184700Y0025265D01*
X0185109Y0025265D01*
X0185918Y0025393D01*
X0186696Y0025646D01*
X0187425Y0026018D01*
X0188088Y0026499D01*
X0188666Y0027077D01*
X0189147Y0027740D01*
X0189519Y0028469D01*
X0189772Y0029247D01*
X0189900Y0030056D01*
X0189900Y0033465D01*
X0184700Y0033465D01*
X0184700Y0033465D01*
X0184700Y0033465D01*
X0184700Y0025265D01*
X0184700Y0033465D01*
X0184700Y0033465D01*
X0179500Y0033465D01*
X0179500Y0030056D01*
X0179628Y0029247D01*
X0179881Y0028469D01*
X0180253Y0027740D01*
X0180734Y0027077D01*
X0181312Y0026499D01*
X0179707Y0029005D02*
X0173295Y0029005D01*
X0174600Y0031403D02*
X0179500Y0031403D01*
X0179500Y0033802D02*
X0174322Y0033802D01*
X0174862Y0036200D02*
X0179500Y0036200D01*
X0179951Y0038599D02*
X0177261Y0038599D01*
X0171683Y0047315D02*
X0171344Y0047174D01*
X0171648Y0047772D01*
X0171882Y0048491D01*
X0172000Y0049237D01*
X0172000Y0052215D01*
X0172000Y0055193D01*
X0171882Y0055939D01*
X0171648Y0056658D01*
X0171305Y0057331D01*
X0170881Y0057915D01*
X0175419Y0057915D01*
X0186019Y0047315D01*
X0171683Y0047315D01*
X0171785Y0048193D02*
X0185141Y0048193D01*
X0182743Y0050591D02*
X0172000Y0050591D01*
X0172000Y0052215D02*
X0167200Y0052215D01*
X0172000Y0052215D01*
X0172000Y0052990D02*
X0180344Y0052990D01*
X0177946Y0055388D02*
X0171969Y0055388D01*
X0170974Y0057787D02*
X0175547Y0057787D01*
X0182912Y0062584D02*
X0206850Y0062584D01*
X0206850Y0060185D02*
X0185311Y0060185D01*
X0187709Y0057787D02*
X0209062Y0057787D01*
X0207401Y0064982D02*
X0180514Y0064982D01*
X0190108Y0055388D02*
X0280677Y0055388D01*
X0304002Y0069779D02*
X0306420Y0069779D01*
X0313531Y0069779D02*
X0316420Y0069779D01*
X0314681Y0068373D02*
X0314681Y0068373D01*
X0321445Y0062584D02*
X0342200Y0062584D01*
X0342200Y0064982D02*
X0324106Y0064982D01*
X0324526Y0067381D02*
X0342200Y0067381D01*
X0342200Y0069779D02*
X0323531Y0069779D01*
X0342200Y0072178D02*
X0163905Y0072178D01*
X0162200Y0074715D02*
X0167200Y0079715D01*
X0167200Y0082215D01*
X0171600Y0081772D02*
X0230586Y0081772D01*
X0230204Y0081896D02*
X0230982Y0081643D01*
X0231791Y0081515D01*
X0232200Y0081515D01*
X0232609Y0081515D01*
X0233418Y0081643D01*
X0234196Y0081896D01*
X0234925Y0082268D01*
X0235588Y0082749D01*
X0236166Y0083327D01*
X0236647Y0083990D01*
X0237019Y0084719D01*
X0237272Y0085497D01*
X0237400Y0086306D01*
X0237400Y0089715D01*
X0237400Y0093124D01*
X0237272Y0093933D01*
X0237019Y0094711D01*
X0236647Y0095440D01*
X0236166Y0096103D01*
X0235588Y0096681D01*
X0234925Y0097162D01*
X0234196Y0097534D01*
X0233418Y0097787D01*
X0232609Y0097915D01*
X0232200Y0097915D01*
X0232200Y0089715D01*
X0232200Y0089715D01*
X0232200Y0097915D01*
X0231791Y0097915D01*
X0230982Y0097787D01*
X0230204Y0097534D01*
X0229475Y0097162D01*
X0228812Y0096681D01*
X0228234Y0096103D01*
X0227753Y0095440D01*
X0227381Y0094711D01*
X0227128Y0093933D01*
X0227000Y0093124D01*
X0227000Y0089715D01*
X0232200Y0089715D01*
X0237400Y0089715D01*
X0232200Y0089715D01*
X0232200Y0089715D01*
X0232200Y0089715D01*
X0227000Y0089715D01*
X0227000Y0086306D01*
X0227128Y0085497D01*
X0227381Y0084719D01*
X0227753Y0083990D01*
X0228234Y0083327D01*
X0228812Y0082749D01*
X0229475Y0082268D01*
X0230204Y0081896D01*
X0232200Y0081772D02*
X0232200Y0081772D01*
X0232200Y0081515D02*
X0232200Y0089715D01*
X0232200Y0089715D01*
X0232200Y0081515D01*
X0233814Y0081772D02*
X0342200Y0081772D01*
X0342200Y0084170D02*
X0246341Y0084170D01*
X0246269Y0083996D02*
X0247000Y0085760D01*
X0247000Y0093670D01*
X0246269Y0095434D01*
X0244919Y0096784D01*
X0243155Y0097515D01*
X0241245Y0097515D01*
X0239481Y0096784D01*
X0238131Y0095434D01*
X0237400Y0093670D01*
X0237400Y0085760D01*
X0238131Y0083996D01*
X0239481Y0082646D01*
X0241245Y0081915D01*
X0243155Y0081915D01*
X0244919Y0082646D01*
X0246269Y0083996D01*
X0247000Y0086569D02*
X0342200Y0086569D01*
X0342200Y0088967D02*
X0247000Y0088967D01*
X0247000Y0091366D02*
X0342200Y0091366D01*
X0342200Y0093764D02*
X0246961Y0093764D01*
X0245540Y0096163D02*
X0342200Y0096163D01*
X0342200Y0098561D02*
X0228355Y0098561D01*
X0228294Y0096163D02*
X0225956Y0096163D01*
X0226961Y0093764D02*
X0227101Y0093764D01*
X0227000Y0091366D02*
X0227000Y0091366D01*
X0227000Y0088967D02*
X0227000Y0088967D01*
X0227000Y0086569D02*
X0227000Y0086569D01*
X0226341Y0084170D02*
X0227660Y0084170D01*
X0232200Y0084170D02*
X0232200Y0084170D01*
X0232200Y0086569D02*
X0232200Y0086569D01*
X0232200Y0088967D02*
X0232200Y0088967D01*
X0232200Y0091366D02*
X0232200Y0091366D01*
X0232200Y0093764D02*
X0232200Y0093764D01*
X0232200Y0096163D02*
X0232200Y0096163D01*
X0236106Y0096163D02*
X0238860Y0096163D01*
X0237439Y0093764D02*
X0237299Y0093764D01*
X0237400Y0091366D02*
X0237400Y0091366D01*
X0237400Y0088967D02*
X0237400Y0088967D01*
X0237400Y0086569D02*
X0237400Y0086569D01*
X0238059Y0084170D02*
X0236740Y0084170D01*
X0218059Y0084170D02*
X0203656Y0084170D01*
X0204650Y0086569D02*
X0217400Y0086569D01*
X0217400Y0088967D02*
X0204650Y0088967D01*
X0202549Y0091366D02*
X0217400Y0091366D01*
X0217439Y0093764D02*
X0203815Y0093764D01*
X0205050Y0096163D02*
X0218800Y0096163D01*
X0219078Y0098561D02*
X0205050Y0098561D01*
X0205050Y0097215D02*
X0199700Y0097215D01*
X0199700Y0097215D01*
X0199700Y0107215D01*
X0205050Y0107215D01*
X0199700Y0107215D01*
X0199700Y0107215D01*
X0199700Y0107215D01*
X0194350Y0107215D01*
X0194350Y0108715D01*
X0187923Y0108715D01*
X0187192Y0107985D01*
X0185575Y0107315D01*
X0183825Y0107315D01*
X0182208Y0107985D01*
X0181477Y0108715D01*
X0169998Y0108715D01*
X0170327Y0108476D01*
X0170861Y0107942D01*
X0171305Y0107331D01*
X0171648Y0106658D01*
X0171882Y0105939D01*
X0172000Y0105193D01*
X0172000Y0102215D01*
X0167200Y0102215D01*
X0167200Y0102215D01*
X0167200Y0102215D01*
X0162400Y0102215D01*
X0162400Y0105193D01*
X0162518Y0105939D01*
X0162752Y0106658D01*
X0163095Y0107331D01*
X0163539Y0107942D01*
X0164073Y0108476D01*
X0164402Y0108715D01*
X0159282Y0108715D01*
X0159692Y0108545D01*
X0160930Y0107307D01*
X0161600Y0105690D01*
X0161600Y0102058D01*
X0162400Y0101258D01*
X0162400Y0102215D01*
X0167200Y0102215D01*
X0172000Y0102215D01*
X0172000Y0099237D01*
X0171882Y0098491D01*
X0171648Y0097772D01*
X0171305Y0097099D01*
X0170861Y0096488D01*
X0170327Y0095954D01*
X0169998Y0095715D01*
X0181477Y0095715D01*
X0182208Y0096445D01*
X0183825Y0097115D01*
X0185575Y0097115D01*
X0187192Y0096445D01*
X0187923Y0095715D01*
X0194350Y0095715D01*
X0194350Y0097215D01*
X0199700Y0097215D01*
X0199700Y0102565D01*
X0199700Y0107215D01*
X0194350Y0107215D01*
X0194350Y0104999D01*
X0197134Y0102215D01*
X0194350Y0099431D01*
X0194350Y0097215D01*
X0199700Y0097215D01*
X0199700Y0097215D01*
X0199700Y0097215D01*
X0205050Y0097215D01*
X0203521Y0100960D02*
X0221137Y0100960D01*
X0223535Y0103358D02*
X0203409Y0103358D01*
X0205050Y0105757D02*
X0225934Y0105757D01*
X0228332Y0108155D02*
X0205050Y0108155D01*
X0203927Y0110554D02*
X0231376Y0110554D01*
X0233152Y0103358D02*
X0342200Y0103358D01*
X0342200Y0100960D02*
X0230753Y0100960D01*
X0204650Y0115351D02*
X0287400Y0115351D01*
X0287400Y0112952D02*
X0202438Y0112952D01*
X0199700Y0117215D02*
X0194200Y0111715D01*
X0184700Y0111715D01*
X0156700Y0111715D01*
X0147200Y0102215D01*
X0142800Y0103358D02*
X0141600Y0103358D01*
X0141600Y0105690D02*
X0140930Y0107307D01*
X0139692Y0108545D01*
X0138075Y0109215D01*
X0136325Y0109215D01*
X0134708Y0108545D01*
X0133470Y0107307D01*
X0132800Y0105690D01*
X0132800Y0098740D01*
X0133470Y0097123D01*
X0134708Y0095885D01*
X0136325Y0095215D01*
X0138075Y0095215D01*
X0139692Y0095885D01*
X0140930Y0097123D01*
X0141600Y0098740D01*
X0141600Y0105690D01*
X0141572Y0105757D02*
X0142828Y0105757D01*
X0144318Y0108155D02*
X0140082Y0108155D01*
X0134318Y0108155D02*
X0130082Y0108155D01*
X0129692Y0108545D02*
X0128075Y0109215D01*
X0126325Y0109215D01*
X0124708Y0108545D01*
X0123470Y0107307D01*
X0122800Y0105690D01*
X0122800Y0098740D01*
X0123470Y0097123D01*
X0124708Y0095885D01*
X0126325Y0095215D01*
X0128075Y0095215D01*
X0129692Y0095885D01*
X0130930Y0097123D01*
X0131600Y0098740D01*
X0131600Y0105690D01*
X0130930Y0107307D01*
X0129692Y0108545D01*
X0131572Y0105757D02*
X0132828Y0105757D01*
X0132800Y0103358D02*
X0131600Y0103358D01*
X0131600Y0100960D02*
X0132800Y0100960D01*
X0132874Y0098561D02*
X0131526Y0098561D01*
X0129970Y0096163D02*
X0134430Y0096163D01*
X0139970Y0096163D02*
X0144148Y0096163D01*
X0142874Y0098561D02*
X0141526Y0098561D01*
X0141600Y0100960D02*
X0142800Y0100960D01*
X0147200Y0092215D02*
X0107200Y0092215D01*
X0102200Y0097215D01*
X0102200Y0107215D01*
X0087200Y0122215D01*
X0087200Y0132215D01*
X0091600Y0132141D02*
X0092800Y0132141D01*
X0092800Y0134539D02*
X0091600Y0134539D01*
X0091600Y0129742D02*
X0092800Y0129742D01*
X0093378Y0127344D02*
X0091022Y0127344D01*
X0090200Y0124945D02*
X0110227Y0124945D01*
X0112200Y0127215D02*
X0114700Y0124715D01*
X0119700Y0124715D01*
X0127200Y0132215D01*
X0131600Y0132141D02*
X0132800Y0132141D01*
X0132800Y0129742D02*
X0131600Y0129742D01*
X0131022Y0127344D02*
X0133378Y0127344D01*
X0137200Y0132215D02*
X0114700Y0154715D01*
X0079700Y0154715D01*
X0077200Y0157215D01*
X0077200Y0162215D01*
X0067200Y0162215D02*
X0067200Y0154715D01*
X0072200Y0149715D01*
X0109700Y0149715D01*
X0117200Y0142215D01*
X0117200Y0132215D01*
X0112200Y0127215D02*
X0112200Y0139715D01*
X0107200Y0144715D01*
X0062200Y0144715D01*
X0057200Y0149715D01*
X0057200Y0162215D01*
X0061600Y0163321D02*
X0062800Y0163321D01*
X0062800Y0160923D02*
X0061600Y0160923D01*
X0061511Y0158524D02*
X0062889Y0158524D01*
X0064200Y0156126D02*
X0060200Y0156126D01*
X0060200Y0153727D02*
X0064362Y0153727D01*
X0066344Y0151329D02*
X0060200Y0151329D01*
X0062227Y0148930D02*
X0068742Y0148930D01*
X0059700Y0139715D02*
X0047200Y0152215D01*
X0047200Y0162215D01*
X0051600Y0163321D02*
X0052800Y0163321D01*
X0052800Y0160923D02*
X0051600Y0160923D01*
X0051511Y0158524D02*
X0052889Y0158524D01*
X0054200Y0156126D02*
X0050200Y0156126D01*
X0050200Y0153727D02*
X0054200Y0153727D01*
X0054200Y0151329D02*
X0052329Y0151329D01*
X0048641Y0146532D02*
X0029106Y0146532D01*
X0029023Y0146615D02*
X0025377Y0146615D01*
X0022800Y0144037D01*
X0022800Y0140392D01*
X0024200Y0138992D01*
X0024200Y0125437D01*
X0022800Y0124037D01*
X0022800Y0120392D01*
X0025377Y0117815D01*
X0029023Y0117815D01*
X0031600Y0120392D01*
X0031600Y0124037D01*
X0030200Y0125437D01*
X0030200Y0138992D01*
X0031600Y0140392D01*
X0031600Y0144037D01*
X0029023Y0146615D01*
X0029023Y0147815D02*
X0025377Y0147815D01*
X0022800Y0150392D01*
X0022800Y0154037D01*
X0025377Y0156615D01*
X0027357Y0156615D01*
X0032800Y0162058D01*
X0032800Y0165690D01*
X0033470Y0167307D01*
X0034708Y0168545D01*
X0036325Y0169215D01*
X0038075Y0169215D01*
X0039692Y0168545D01*
X0040930Y0167307D01*
X0041600Y0165690D01*
X0041600Y0158740D01*
X0040930Y0157123D01*
X0039692Y0155885D01*
X0038075Y0155215D01*
X0036325Y0155215D01*
X0034994Y0155766D01*
X0031600Y0152372D01*
X0031600Y0150392D01*
X0029023Y0147815D01*
X0030138Y0148930D02*
X0046242Y0148930D01*
X0044320Y0151329D02*
X0031600Y0151329D01*
X0032955Y0153727D02*
X0044200Y0153727D01*
X0044200Y0156126D02*
X0039933Y0156126D01*
X0041511Y0158524D02*
X0042889Y0158524D01*
X0042800Y0160923D02*
X0041600Y0160923D01*
X0041600Y0163321D02*
X0042800Y0163321D01*
X0042812Y0165720D02*
X0041588Y0165720D01*
X0040119Y0168118D02*
X0044281Y0168118D01*
X0050119Y0168118D02*
X0054281Y0168118D01*
X0052812Y0165720D02*
X0051588Y0165720D01*
X0060119Y0168118D02*
X0064281Y0168118D01*
X0065221Y0170517D02*
X0009400Y0170517D01*
X0009400Y0172915D02*
X0062823Y0172915D01*
X0060424Y0175314D02*
X0009400Y0175314D01*
X0009400Y0177712D02*
X0058026Y0177712D01*
X0055627Y0180111D02*
X0009400Y0180111D01*
X0009400Y0182509D02*
X0053229Y0182509D01*
X0050830Y0184908D02*
X0009400Y0184908D01*
X0009400Y0187306D02*
X0033394Y0187306D01*
X0032800Y0189705D02*
X0009400Y0189705D01*
X0009400Y0192103D02*
X0032800Y0192103D01*
X0032800Y0194502D02*
X0009400Y0194502D01*
X0009400Y0196900D02*
X0033301Y0196900D01*
X0040607Y0199299D02*
X0009400Y0199299D01*
X0009400Y0201697D02*
X0043005Y0201697D01*
X0042800Y0192103D02*
X0041600Y0192103D01*
X0041600Y0189705D02*
X0042800Y0189705D01*
X0043394Y0187306D02*
X0041006Y0187306D01*
X0034281Y0168118D02*
X0009400Y0168118D01*
X0009400Y0165720D02*
X0032812Y0165720D01*
X0032800Y0163321D02*
X0009400Y0163321D01*
X0009400Y0160923D02*
X0031665Y0160923D01*
X0029267Y0158524D02*
X0009400Y0158524D01*
X0009400Y0156126D02*
X0024888Y0156126D01*
X0022800Y0153727D02*
X0009400Y0153727D01*
X0009400Y0151329D02*
X0022800Y0151329D01*
X0024262Y0148930D02*
X0009400Y0148930D01*
X0009400Y0146532D02*
X0025294Y0146532D01*
X0022896Y0144133D02*
X0009400Y0144133D01*
X0009400Y0141735D02*
X0022800Y0141735D01*
X0023856Y0139336D02*
X0009400Y0139336D01*
X0009400Y0136938D02*
X0024200Y0136938D01*
X0024200Y0134539D02*
X0009400Y0134539D01*
X0009400Y0132141D02*
X0024200Y0132141D01*
X0024200Y0129742D02*
X0009400Y0129742D01*
X0009400Y0127344D02*
X0024200Y0127344D01*
X0023708Y0124945D02*
X0009400Y0124945D01*
X0009400Y0122546D02*
X0022800Y0122546D01*
X0023044Y0120148D02*
X0009400Y0120148D01*
X0009400Y0117749D02*
X0034877Y0117749D01*
X0034481Y0116284D02*
X0033131Y0114934D01*
X0032400Y0113170D01*
X0032400Y0111260D01*
X0033131Y0109496D01*
X0034481Y0108146D01*
X0036245Y0107415D01*
X0038155Y0107415D01*
X0039919Y0108146D01*
X0041269Y0109496D01*
X0042000Y0111260D01*
X0042000Y0113170D01*
X0041269Y0114934D01*
X0039919Y0116284D01*
X0038155Y0117015D01*
X0036245Y0117015D01*
X0034481Y0116284D01*
X0033548Y0115351D02*
X0009400Y0115351D01*
X0009400Y0112952D02*
X0032400Y0112952D01*
X0032693Y0110554D02*
X0009400Y0110554D01*
X0009400Y0108155D02*
X0034471Y0108155D01*
X0035377Y0106615D02*
X0032800Y0104037D01*
X0032800Y0100392D01*
X0035377Y0097815D01*
X0039023Y0097815D01*
X0040423Y0099215D01*
X0047797Y0099215D01*
X0048899Y0099672D01*
X0056643Y0107415D01*
X0059188Y0107415D01*
X0062000Y0110227D01*
X0062000Y0114203D01*
X0059188Y0117015D01*
X0055212Y0117015D01*
X0052400Y0114203D01*
X0052400Y0111658D01*
X0052000Y0111258D01*
X0052000Y0114203D01*
X0049188Y0117015D01*
X0045212Y0117015D01*
X0042400Y0114203D01*
X0042400Y0110227D01*
X0045212Y0107415D01*
X0048157Y0107415D01*
X0045957Y0105215D01*
X0040423Y0105215D01*
X0039023Y0106615D01*
X0035377Y0106615D01*
X0034519Y0105757D02*
X0009400Y0105757D01*
X0009400Y0103358D02*
X0032800Y0103358D01*
X0032800Y0100960D02*
X0009400Y0100960D01*
X0009400Y0098561D02*
X0034631Y0098561D01*
X0039769Y0098561D02*
X0074631Y0098561D01*
X0079769Y0098561D02*
X0082874Y0098561D01*
X0082800Y0100960D02*
X0081600Y0100960D01*
X0081600Y0103358D02*
X0082800Y0103358D01*
X0082828Y0105757D02*
X0079881Y0105757D01*
X0079416Y0106865D02*
X0077200Y0106865D01*
X0077200Y0112215D01*
X0077200Y0112215D01*
X0077200Y0112215D01*
X0082550Y0112215D01*
X0082550Y0109999D01*
X0079416Y0106865D01*
X0080706Y0108155D02*
X0084318Y0108155D01*
X0082550Y0110554D02*
X0094618Y0110554D01*
X0094318Y0108155D02*
X0090082Y0108155D01*
X0091572Y0105757D02*
X0092828Y0105757D01*
X0092800Y0103358D02*
X0091600Y0103358D01*
X0092698Y0100960D02*
X0092800Y0100960D01*
X0097200Y0102215D02*
X0097200Y0097215D01*
X0112200Y0082215D01*
X0137200Y0082215D01*
X0147200Y0082215D02*
X0147200Y0092215D01*
X0150953Y0088967D02*
X0152882Y0088967D01*
X0153723Y0088126D02*
X0153539Y0087942D01*
X0153095Y0087331D01*
X0152752Y0086658D01*
X0152518Y0085939D01*
X0152400Y0085193D01*
X0152400Y0082215D01*
X0157200Y0082215D01*
X0157200Y0082215D01*
X0157200Y0092215D01*
X0162550Y0092215D01*
X0157200Y0092215D01*
X0157200Y0092215D01*
X0157200Y0092215D01*
X0157200Y0086865D01*
X0157200Y0082215D01*
X0162000Y0082215D01*
X0157200Y0082215D01*
X0157200Y0082215D01*
X0157200Y0082215D01*
X0152400Y0082215D01*
X0152400Y0079237D01*
X0152518Y0078491D01*
X0152752Y0077772D01*
X0152781Y0077715D01*
X0151176Y0077715D01*
X0151600Y0078740D01*
X0151600Y0085690D01*
X0150930Y0087307D01*
X0150200Y0088037D01*
X0150200Y0088215D01*
X0151917Y0089932D01*
X0153723Y0088126D01*
X0152723Y0086569D02*
X0151236Y0086569D01*
X0151600Y0084170D02*
X0152400Y0084170D01*
X0152400Y0081772D02*
X0151600Y0081772D01*
X0151600Y0079373D02*
X0152400Y0079373D01*
X0157200Y0084170D02*
X0157200Y0084170D01*
X0157200Y0086569D02*
X0157200Y0086569D01*
X0157200Y0088967D02*
X0157200Y0088967D01*
X0157200Y0091366D02*
X0157200Y0091366D01*
X0161518Y0088967D02*
X0165727Y0088967D01*
X0168673Y0088967D02*
X0182250Y0088967D01*
X0187150Y0088967D02*
X0193705Y0088967D01*
X0194750Y0086569D02*
X0171236Y0086569D01*
X0171600Y0084170D02*
X0195744Y0084170D01*
X0199700Y0087215D02*
X0194200Y0092715D01*
X0184700Y0092715D01*
X0166700Y0092715D01*
X0157200Y0102215D01*
X0161600Y0103358D02*
X0162400Y0103358D01*
X0162489Y0105757D02*
X0161572Y0105757D01*
X0160082Y0108155D02*
X0163752Y0108155D01*
X0170648Y0108155D02*
X0182037Y0108155D01*
X0187363Y0108155D02*
X0194350Y0108155D01*
X0194350Y0105757D02*
X0171911Y0105757D01*
X0172000Y0103358D02*
X0195991Y0103358D01*
X0195879Y0100960D02*
X0172000Y0100960D01*
X0171893Y0098561D02*
X0194350Y0098561D01*
X0194350Y0096163D02*
X0187475Y0096163D01*
X0181925Y0096163D02*
X0170536Y0096163D01*
X0163806Y0091366D02*
X0162550Y0091366D01*
X0163164Y0086569D02*
X0161677Y0086569D01*
X0162000Y0084170D02*
X0162800Y0084170D01*
X0162800Y0081772D02*
X0162000Y0081772D01*
X0162000Y0079373D02*
X0162616Y0079373D01*
X0162200Y0074715D02*
X0114700Y0074715D01*
X0087200Y0102215D01*
X0084430Y0096163D02*
X0009400Y0096163D01*
X0009400Y0093764D02*
X0091408Y0093764D01*
X0093806Y0091366D02*
X0009400Y0091366D01*
X0009400Y0088967D02*
X0096205Y0088967D01*
X0098603Y0086569D02*
X0029634Y0086569D01*
X0029188Y0087015D02*
X0032000Y0084203D01*
X0032000Y0082215D01*
X0027200Y0082215D01*
X0027200Y0082215D01*
X0027200Y0087015D01*
X0029188Y0087015D01*
X0027200Y0087015D02*
X0025212Y0087015D01*
X0022400Y0084203D01*
X0022400Y0082215D01*
X0027200Y0082215D01*
X0027200Y0087015D01*
X0027200Y0086569D02*
X0027200Y0086569D01*
X0027200Y0084170D02*
X0027200Y0084170D01*
X0027200Y0082215D02*
X0027200Y0082215D01*
X0027200Y0082215D01*
X0032000Y0082215D01*
X0032000Y0080227D01*
X0029188Y0077415D01*
X0027200Y0077415D01*
X0027200Y0082215D01*
X0022400Y0082215D01*
X0022400Y0080227D01*
X0025212Y0077415D01*
X0027200Y0077415D01*
X0027200Y0082215D01*
X0027200Y0082215D01*
X0027200Y0081772D02*
X0027200Y0081772D01*
X0027200Y0079373D02*
X0027200Y0079373D01*
X0031147Y0079373D02*
X0105799Y0079373D01*
X0108198Y0076975D02*
X0093521Y0076975D01*
X0093345Y0077151D02*
X0093345Y0077151D01*
X0095920Y0074576D02*
X0110596Y0074576D01*
X0112995Y0072178D02*
X0098318Y0072178D01*
X0103401Y0081772D02*
X0032000Y0081772D01*
X0032000Y0084170D02*
X0101002Y0084170D01*
X0109970Y0096163D02*
X0114430Y0096163D01*
X0114708Y0095885D02*
X0113470Y0097123D01*
X0112800Y0098740D01*
X0112800Y0105690D01*
X0113470Y0107307D01*
X0114708Y0108545D01*
X0116325Y0109215D01*
X0118075Y0109215D01*
X0119692Y0108545D01*
X0120930Y0107307D01*
X0121600Y0105690D01*
X0121600Y0098740D01*
X0120930Y0097123D01*
X0119692Y0095885D01*
X0118075Y0095215D01*
X0116325Y0095215D01*
X0114708Y0095885D01*
X0112874Y0098561D02*
X0111526Y0098561D01*
X0111600Y0100960D02*
X0112800Y0100960D01*
X0112800Y0103358D02*
X0111600Y0103358D01*
X0111572Y0105757D02*
X0112828Y0105757D01*
X0114318Y0108155D02*
X0110082Y0108155D01*
X0103104Y0110554D02*
X0151296Y0110554D01*
X0153695Y0112952D02*
X0100705Y0112952D01*
X0098307Y0115351D02*
X0182113Y0115351D01*
X0187287Y0115351D02*
X0193593Y0115351D01*
X0194750Y0117749D02*
X0095908Y0117749D01*
X0093510Y0120148D02*
X0195633Y0120148D01*
X0203767Y0120148D02*
X0295590Y0120148D01*
X0295954Y0117749D02*
X0298446Y0117749D01*
X0297400Y0115351D02*
X0297000Y0115351D01*
X0297000Y0112952D02*
X0297400Y0112952D01*
X0302200Y0115351D02*
X0302200Y0115351D01*
X0302200Y0117749D02*
X0302200Y0117749D01*
X0305954Y0117749D02*
X0308446Y0117749D01*
X0307400Y0115351D02*
X0307000Y0115351D01*
X0307000Y0112952D02*
X0307400Y0112952D01*
X0312200Y0115351D02*
X0312200Y0115351D01*
X0312200Y0117749D02*
X0312200Y0117749D01*
X0315954Y0117749D02*
X0318446Y0117749D01*
X0317400Y0115351D02*
X0317000Y0115351D01*
X0317000Y0112952D02*
X0317400Y0112952D01*
X0322200Y0115351D02*
X0322200Y0115351D01*
X0322200Y0117749D02*
X0322200Y0117749D01*
X0325954Y0117749D02*
X0342438Y0117749D01*
X0351962Y0117749D02*
X0352926Y0117749D01*
X0342200Y0108155D02*
X0332949Y0108155D01*
X0330550Y0105757D02*
X0342200Y0105757D01*
X0330886Y0115351D02*
X0327000Y0115351D01*
X0327000Y0112952D02*
X0328129Y0112952D01*
X0338652Y0127344D02*
X0300748Y0127344D01*
X0298350Y0129742D02*
X0340029Y0129742D01*
X0339400Y0132141D02*
X0295951Y0132141D01*
X0293553Y0134539D02*
X0339967Y0134539D01*
X0342204Y0137396D02*
X0342982Y0137143D01*
X0343791Y0137015D01*
X0347200Y0137015D01*
X0347200Y0142215D01*
X0347200Y0142215D01*
X0339000Y0142215D01*
X0339000Y0141806D01*
X0339128Y0140997D01*
X0339381Y0140219D01*
X0339753Y0139490D01*
X0340234Y0138827D01*
X0340812Y0138249D01*
X0341475Y0137768D01*
X0342204Y0137396D01*
X0343058Y0136938D02*
X0291154Y0136938D01*
X0288756Y0139336D02*
X0339864Y0139336D01*
X0339011Y0141735D02*
X0286357Y0141735D01*
X0278800Y0136938D02*
X0191987Y0136938D01*
X0193281Y0139336D02*
X0276402Y0139336D01*
X0281199Y0134539D02*
X0171600Y0134539D01*
X0171600Y0135690D02*
X0170930Y0137307D01*
X0169692Y0138545D01*
X0168075Y0139215D01*
X0166325Y0139215D01*
X0164708Y0138545D01*
X0163470Y0137307D01*
X0162800Y0135690D01*
X0162800Y0128740D01*
X0163470Y0127123D01*
X0164708Y0125885D01*
X0166325Y0125215D01*
X0168075Y0125215D01*
X0169692Y0125885D01*
X0170930Y0127123D01*
X0171600Y0128740D01*
X0171600Y0135690D01*
X0171083Y0136938D02*
X0187413Y0136938D01*
X0186119Y0139336D02*
X0179386Y0139336D01*
X0180781Y0141735D02*
X0186660Y0141735D01*
X0175014Y0139336D02*
X0134322Y0139336D01*
X0131923Y0141735D02*
X0173619Y0141735D01*
X0174118Y0144133D02*
X0129525Y0144133D01*
X0129206Y0146532D02*
X0127126Y0146532D01*
X0126808Y0148930D02*
X0124727Y0148930D01*
X0124409Y0151329D02*
X0122329Y0151329D01*
X0122011Y0153727D02*
X0119930Y0153727D01*
X0113224Y0157715D02*
X0112800Y0158740D01*
X0112800Y0165690D01*
X0113390Y0167115D01*
X0111415Y0167115D01*
X0111648Y0166658D01*
X0111882Y0165939D01*
X0112000Y0165193D01*
X0112000Y0162215D01*
X0107200Y0162215D01*
X0107200Y0162215D01*
X0107200Y0162215D01*
X0102400Y0162215D01*
X0102400Y0165193D01*
X0102518Y0165939D01*
X0102752Y0166658D01*
X0102985Y0167115D01*
X0101010Y0167115D01*
X0101600Y0165690D01*
X0101600Y0158740D01*
X0101176Y0157715D01*
X0102781Y0157715D01*
X0102752Y0157772D01*
X0102518Y0158491D01*
X0102400Y0159237D01*
X0102400Y0162215D01*
X0107200Y0162215D01*
X0112000Y0162215D01*
X0112000Y0159237D01*
X0111882Y0158491D01*
X0111648Y0157772D01*
X0111619Y0157715D01*
X0113224Y0157715D01*
X0112889Y0158524D02*
X0111887Y0158524D01*
X0112000Y0160923D02*
X0112800Y0160923D01*
X0112800Y0163321D02*
X0112000Y0163321D01*
X0111917Y0165720D02*
X0112812Y0165720D01*
X0102483Y0165720D02*
X0101588Y0165720D01*
X0101600Y0163321D02*
X0102400Y0163321D01*
X0102400Y0160923D02*
X0101600Y0160923D01*
X0101511Y0158524D02*
X0102513Y0158524D01*
X0097200Y0159715D02*
X0097200Y0162215D01*
X0087200Y0162215D01*
X0085777Y0177315D02*
X0077877Y0185215D01*
X0078075Y0185215D01*
X0079692Y0185885D01*
X0080930Y0187123D01*
X0081600Y0188740D01*
X0081600Y0195690D01*
X0081010Y0197115D01*
X0083390Y0197115D01*
X0082800Y0195690D01*
X0082800Y0188740D01*
X0083470Y0187123D01*
X0084708Y0185885D01*
X0086325Y0185215D01*
X0088075Y0185215D01*
X0089692Y0185885D01*
X0090930Y0187123D01*
X0091600Y0188740D01*
X0091600Y0195690D01*
X0091010Y0197115D01*
X0092985Y0197115D01*
X0092752Y0196658D01*
X0092518Y0195939D01*
X0092400Y0195193D01*
X0092400Y0192215D01*
X0097200Y0192215D01*
X0102000Y0192215D01*
X0102000Y0195193D01*
X0101882Y0195939D01*
X0101648Y0196658D01*
X0101415Y0197115D01*
X0103390Y0197115D01*
X0102800Y0195690D01*
X0102800Y0188740D01*
X0103470Y0187123D01*
X0104708Y0185885D01*
X0106325Y0185215D01*
X0108075Y0185215D01*
X0109692Y0185885D01*
X0110930Y0187123D01*
X0111600Y0188740D01*
X0111600Y0195690D01*
X0111010Y0197115D01*
X0113390Y0197115D01*
X0112800Y0195690D01*
X0112800Y0188740D01*
X0113470Y0187123D01*
X0114708Y0185885D01*
X0116325Y0185215D01*
X0118075Y0185215D01*
X0119692Y0185885D01*
X0119773Y0185965D01*
X0128423Y0177315D01*
X0085777Y0177315D01*
X0085380Y0177712D02*
X0128026Y0177712D01*
X0125627Y0180111D02*
X0082981Y0180111D01*
X0080583Y0182509D02*
X0123229Y0182509D01*
X0120830Y0184908D02*
X0098164Y0184908D01*
X0098324Y0184933D02*
X0099043Y0185167D01*
X0099716Y0185510D01*
X0100327Y0185954D01*
X0100861Y0186488D01*
X0101305Y0187099D01*
X0101648Y0187772D01*
X0101882Y0188491D01*
X0102000Y0189237D01*
X0102000Y0192215D01*
X0097200Y0192215D01*
X0097200Y0192215D01*
X0097200Y0192215D01*
X0097200Y0184815D01*
X0097578Y0184815D01*
X0098324Y0184933D01*
X0097200Y0184908D02*
X0097200Y0184908D01*
X0097200Y0184815D02*
X0097200Y0192215D01*
X0097200Y0192215D01*
X0092400Y0192215D01*
X0092400Y0189237D01*
X0092518Y0188491D01*
X0092752Y0187772D01*
X0093095Y0187099D01*
X0093539Y0186488D01*
X0094073Y0185954D01*
X0094684Y0185510D01*
X0095357Y0185167D01*
X0096076Y0184933D01*
X0096822Y0184815D01*
X0097200Y0184815D01*
X0096236Y0184908D02*
X0078184Y0184908D01*
X0081006Y0187306D02*
X0083394Y0187306D01*
X0082800Y0189705D02*
X0081600Y0189705D01*
X0081600Y0192103D02*
X0082800Y0192103D01*
X0082800Y0194502D02*
X0081600Y0194502D01*
X0081099Y0196900D02*
X0083301Y0196900D01*
X0091099Y0196900D02*
X0092875Y0196900D01*
X0092400Y0194502D02*
X0091600Y0194502D01*
X0091600Y0192103D02*
X0092400Y0192103D01*
X0092400Y0189705D02*
X0091600Y0189705D01*
X0091006Y0187306D02*
X0092989Y0187306D01*
X0097200Y0187306D02*
X0097200Y0187306D01*
X0097200Y0189705D02*
X0097200Y0189705D01*
X0097200Y0192103D02*
X0097200Y0192103D01*
X0102000Y0192103D02*
X0102800Y0192103D01*
X0102800Y0189705D02*
X0102000Y0189705D01*
X0101411Y0187306D02*
X0103394Y0187306D01*
X0102800Y0194502D02*
X0102000Y0194502D01*
X0101525Y0196900D02*
X0103301Y0196900D01*
X0102550Y0204096D02*
X0179238Y0204096D01*
X0181636Y0201697D02*
X0171395Y0201697D01*
X0173793Y0199299D02*
X0182900Y0199299D01*
X0182900Y0196900D02*
X0176192Y0196900D01*
X0179978Y0194502D02*
X0182800Y0194502D01*
X0182800Y0192103D02*
X0180781Y0192103D01*
X0179754Y0189705D02*
X0182800Y0189705D01*
X0174646Y0189705D02*
X0171600Y0189705D01*
X0171600Y0192103D02*
X0173619Y0192103D01*
X0191600Y0192103D02*
X0192800Y0192103D01*
X0192800Y0189705D02*
X0191600Y0189705D01*
X0191600Y0194502D02*
X0192800Y0194502D01*
X0192900Y0196900D02*
X0191500Y0196900D01*
X0191500Y0199299D02*
X0192900Y0199299D01*
X0192900Y0201697D02*
X0191500Y0201697D01*
X0191738Y0204096D02*
X0191075Y0204096D01*
X0189339Y0206494D02*
X0189002Y0206494D01*
X0186941Y0208893D02*
X0186603Y0208893D01*
X0184542Y0211291D02*
X0184205Y0211291D01*
X0182144Y0213690D02*
X0181340Y0213690D01*
X0179745Y0216088D02*
X0166908Y0216088D01*
X0164509Y0218487D02*
X0177347Y0218487D01*
X0174948Y0220885D02*
X0162111Y0220885D01*
X0165557Y0223284D02*
X0168843Y0223284D01*
X0167432Y0225682D02*
X0166968Y0225682D01*
X0167000Y0228081D02*
X0167400Y0228081D01*
X0167400Y0230479D02*
X0167000Y0230479D01*
X0167000Y0232878D02*
X0167400Y0232878D01*
X0168066Y0235277D02*
X0166334Y0235277D01*
X0176334Y0235277D02*
X0188066Y0235277D01*
X0187400Y0232878D02*
X0177000Y0232878D01*
X0177517Y0230479D02*
X0187400Y0230479D01*
X0187400Y0228081D02*
X0179915Y0228081D01*
X0182314Y0225682D02*
X0187432Y0225682D01*
X0188138Y0223284D02*
X0184712Y0223284D01*
X0187111Y0220885D02*
X0189948Y0220885D01*
X0189764Y0221070D02*
X0189764Y0221070D01*
X0189509Y0218487D02*
X0192347Y0218487D01*
X0191908Y0216088D02*
X0194745Y0216088D01*
X0194306Y0213690D02*
X0197144Y0213690D01*
X0196705Y0211291D02*
X0199542Y0211291D01*
X0199103Y0208893D02*
X0201941Y0208893D01*
X0201117Y0206494D02*
X0202900Y0206494D01*
X0202900Y0204096D02*
X0201500Y0204096D01*
X0201500Y0201697D02*
X0202900Y0201697D01*
X0202900Y0199299D02*
X0201500Y0199299D01*
X0201500Y0196900D02*
X0202900Y0196900D01*
X0202800Y0194502D02*
X0201600Y0194502D01*
X0201600Y0192103D02*
X0202800Y0192103D01*
X0202800Y0189705D02*
X0201600Y0189705D01*
X0211600Y0189705D02*
X0212800Y0189705D01*
X0212800Y0192103D02*
X0211600Y0192103D01*
X0211600Y0194502D02*
X0212800Y0194502D01*
X0212900Y0196900D02*
X0211500Y0196900D01*
X0211500Y0199299D02*
X0212900Y0199299D01*
X0212900Y0201697D02*
X0211500Y0201697D01*
X0211500Y0204096D02*
X0212900Y0204096D01*
X0212900Y0206494D02*
X0211500Y0206494D01*
X0211500Y0208893D02*
X0212900Y0208893D01*
X0212900Y0211291D02*
X0211201Y0211291D01*
X0209636Y0213360D02*
X0209636Y0213360D01*
X0209306Y0213690D02*
X0212900Y0213690D01*
X0212900Y0216088D02*
X0206908Y0216088D01*
X0204509Y0218487D02*
X0212900Y0218487D01*
X0212900Y0220885D02*
X0202111Y0220885D01*
X0205557Y0223284D02*
X0208843Y0223284D01*
X0207432Y0225682D02*
X0206968Y0225682D01*
X0207000Y0228081D02*
X0207400Y0228081D01*
X0207400Y0230479D02*
X0207000Y0230479D01*
X0207000Y0232878D02*
X0207400Y0232878D01*
X0208066Y0235277D02*
X0206334Y0235277D01*
X0198066Y0235277D02*
X0196334Y0235277D01*
X0197000Y0232878D02*
X0197400Y0232878D01*
X0197400Y0230479D02*
X0197000Y0230479D01*
X0197000Y0228081D02*
X0197400Y0228081D01*
X0197432Y0225682D02*
X0197314Y0225682D01*
X0217517Y0230479D02*
X0226883Y0230479D01*
X0227400Y0232878D02*
X0217000Y0232878D01*
X0216334Y0235277D02*
X0228066Y0235277D01*
X0236334Y0235277D02*
X0238066Y0235277D01*
X0237400Y0232878D02*
X0237000Y0232878D01*
X0237000Y0230479D02*
X0237400Y0230479D01*
X0237400Y0228081D02*
X0237000Y0228081D01*
X0236968Y0225682D02*
X0237432Y0225682D01*
X0238843Y0223284D02*
X0235557Y0223284D01*
X0231500Y0220885D02*
X0242289Y0220885D01*
X0239891Y0218487D02*
X0231500Y0218487D01*
X0231500Y0216088D02*
X0237492Y0216088D01*
X0235094Y0213690D02*
X0231500Y0213690D01*
X0231500Y0211291D02*
X0233199Y0211291D01*
X0232900Y0208893D02*
X0231500Y0208893D01*
X0231500Y0206494D02*
X0232900Y0206494D01*
X0232900Y0204096D02*
X0231500Y0204096D01*
X0231500Y0201697D02*
X0232900Y0201697D01*
X0232900Y0199299D02*
X0231500Y0199299D01*
X0231500Y0196900D02*
X0232900Y0196900D01*
X0232800Y0194502D02*
X0231600Y0194502D01*
X0231600Y0192103D02*
X0232800Y0192103D01*
X0232800Y0189705D02*
X0231600Y0189705D01*
X0222800Y0189705D02*
X0221600Y0189705D01*
X0221600Y0192103D02*
X0222800Y0192103D01*
X0222800Y0194502D02*
X0221600Y0194502D01*
X0221500Y0196900D02*
X0222900Y0196900D01*
X0222900Y0199299D02*
X0221500Y0199299D01*
X0221500Y0201697D02*
X0222900Y0201697D01*
X0222900Y0204096D02*
X0221500Y0204096D01*
X0221500Y0206494D02*
X0222900Y0206494D01*
X0222900Y0208893D02*
X0221500Y0208893D01*
X0221500Y0211291D02*
X0222900Y0211291D01*
X0222900Y0213690D02*
X0221500Y0213690D01*
X0221500Y0216088D02*
X0222900Y0216088D01*
X0222900Y0218487D02*
X0221500Y0218487D01*
X0221500Y0220885D02*
X0222900Y0220885D01*
X0222900Y0223284D02*
X0221500Y0223284D01*
X0221454Y0225682D02*
X0222946Y0225682D01*
X0224485Y0228081D02*
X0219915Y0228081D01*
X0247000Y0228081D02*
X0247400Y0228081D01*
X0247400Y0230479D02*
X0247000Y0230479D01*
X0247000Y0232878D02*
X0247400Y0232878D01*
X0248066Y0235277D02*
X0246334Y0235277D01*
X0256334Y0235277D02*
X0268066Y0235277D01*
X0268131Y0235434D02*
X0267400Y0233670D01*
X0267400Y0230996D01*
X0243555Y0207151D01*
X0242900Y0205570D01*
X0242900Y0195932D01*
X0242800Y0195690D01*
X0242800Y0188740D01*
X0243470Y0187123D01*
X0244708Y0185885D01*
X0246325Y0185215D01*
X0248075Y0185215D01*
X0249692Y0185885D01*
X0250930Y0187123D01*
X0251600Y0188740D01*
X0251600Y0195690D01*
X0251500Y0195932D01*
X0251500Y0202934D01*
X0270705Y0222139D01*
X0271245Y0221915D01*
X0273155Y0221915D01*
X0274919Y0222646D01*
X0276269Y0223996D01*
X0277000Y0225760D01*
X0277000Y0233670D01*
X0276269Y0235434D01*
X0274919Y0236784D01*
X0273155Y0237515D01*
X0271245Y0237515D01*
X0269481Y0236784D01*
X0268131Y0235434D01*
X0267400Y0232878D02*
X0257000Y0232878D01*
X0257000Y0230479D02*
X0266883Y0230479D01*
X0264485Y0228081D02*
X0257000Y0228081D01*
X0256968Y0225682D02*
X0262086Y0225682D01*
X0259688Y0223284D02*
X0256262Y0223284D01*
X0257289Y0220885D02*
X0254452Y0220885D01*
X0254891Y0218487D02*
X0252053Y0218487D01*
X0252492Y0216088D02*
X0249655Y0216088D01*
X0250094Y0213690D02*
X0247256Y0213690D01*
X0247695Y0211291D02*
X0244858Y0211291D01*
X0245297Y0208893D02*
X0242459Y0208893D01*
X0243283Y0206494D02*
X0241500Y0206494D01*
X0241500Y0204096D02*
X0242900Y0204096D01*
X0242900Y0201697D02*
X0241500Y0201697D01*
X0241500Y0199299D02*
X0242900Y0199299D01*
X0242900Y0196900D02*
X0241500Y0196900D01*
X0241600Y0194502D02*
X0242800Y0194502D01*
X0242800Y0192103D02*
X0241600Y0192103D01*
X0241600Y0189705D02*
X0242800Y0189705D01*
X0242738Y0187306D02*
X0243394Y0187306D01*
X0245684Y0184908D02*
X0359331Y0184908D01*
X0359331Y0187306D02*
X0271006Y0187306D01*
X0270930Y0187123D02*
X0271600Y0188740D01*
X0271600Y0195690D01*
X0270930Y0197307D01*
X0269692Y0198545D01*
X0268075Y0199215D01*
X0266325Y0199215D01*
X0264708Y0198545D01*
X0263470Y0197307D01*
X0262800Y0195690D01*
X0262800Y0188740D01*
X0263470Y0187123D01*
X0264708Y0185885D01*
X0266325Y0185215D01*
X0268075Y0185215D01*
X0269692Y0185885D01*
X0270930Y0187123D01*
X0271600Y0189705D02*
X0359331Y0189705D01*
X0359331Y0192103D02*
X0271600Y0192103D01*
X0271600Y0194502D02*
X0359331Y0194502D01*
X0359331Y0196900D02*
X0271099Y0196900D01*
X0263301Y0196900D02*
X0261500Y0196900D01*
X0261500Y0195932D02*
X0261500Y0200434D01*
X0266481Y0205415D01*
X0278055Y0205415D01*
X0279636Y0206070D01*
X0294636Y0221070D01*
X0295845Y0222279D01*
X0296500Y0223860D01*
X0296500Y0224553D01*
X0297000Y0225760D01*
X0297000Y0233670D01*
X0296269Y0235434D01*
X0294919Y0236784D01*
X0293155Y0237515D01*
X0291245Y0237515D01*
X0289481Y0236784D01*
X0288131Y0235434D01*
X0287400Y0233670D01*
X0287400Y0225996D01*
X0286884Y0225480D01*
X0287000Y0225760D01*
X0287000Y0233670D01*
X0286269Y0235434D01*
X0284919Y0236784D01*
X0283155Y0237515D01*
X0281245Y0237515D01*
X0279481Y0236784D01*
X0278131Y0235434D01*
X0277400Y0233670D01*
X0277400Y0225760D01*
X0278131Y0223996D01*
X0279481Y0222646D01*
X0281245Y0221915D01*
X0283155Y0221915D01*
X0283435Y0222031D01*
X0275419Y0214015D01*
X0263845Y0214015D01*
X0262264Y0213360D01*
X0261055Y0212151D01*
X0253555Y0204651D01*
X0252900Y0203070D01*
X0252900Y0195932D01*
X0252800Y0195690D01*
X0252800Y0188740D01*
X0253470Y0187123D01*
X0254708Y0185885D01*
X0256325Y0185215D01*
X0258075Y0185215D01*
X0259692Y0185885D01*
X0260930Y0187123D01*
X0261600Y0188740D01*
X0261600Y0195690D01*
X0261500Y0195932D01*
X0261600Y0194502D02*
X0262800Y0194502D01*
X0262800Y0192103D02*
X0261600Y0192103D01*
X0261600Y0189705D02*
X0262800Y0189705D01*
X0263394Y0187306D02*
X0261006Y0187306D01*
X0253394Y0187306D02*
X0251006Y0187306D01*
X0251600Y0189705D02*
X0252800Y0189705D01*
X0252800Y0192103D02*
X0251600Y0192103D01*
X0251600Y0194502D02*
X0252800Y0194502D01*
X0252900Y0196900D02*
X0251500Y0196900D01*
X0251500Y0199299D02*
X0252900Y0199299D01*
X0252900Y0201697D02*
X0251500Y0201697D01*
X0252662Y0204096D02*
X0253325Y0204096D01*
X0255061Y0206494D02*
X0255398Y0206494D01*
X0257459Y0208893D02*
X0257797Y0208893D01*
X0259858Y0211291D02*
X0260195Y0211291D01*
X0262256Y0213690D02*
X0263060Y0213690D01*
X0264655Y0216088D02*
X0277492Y0216088D01*
X0279891Y0218487D02*
X0267053Y0218487D01*
X0269452Y0220885D02*
X0282289Y0220885D01*
X0278843Y0223284D02*
X0275557Y0223284D01*
X0276968Y0225682D02*
X0277432Y0225682D01*
X0277400Y0228081D02*
X0277000Y0228081D01*
X0277000Y0230479D02*
X0277400Y0230479D01*
X0277400Y0232878D02*
X0277000Y0232878D01*
X0276334Y0235277D02*
X0278066Y0235277D01*
X0286334Y0235277D02*
X0288066Y0235277D01*
X0287400Y0232878D02*
X0287000Y0232878D01*
X0287000Y0230479D02*
X0287400Y0230479D01*
X0287400Y0228081D02*
X0287000Y0228081D01*
X0286968Y0225682D02*
X0287086Y0225682D01*
X0294452Y0220885D02*
X0359331Y0220885D01*
X0359331Y0218487D02*
X0292053Y0218487D01*
X0289655Y0216088D02*
X0359331Y0216088D01*
X0359331Y0213690D02*
X0287256Y0213690D01*
X0284858Y0211291D02*
X0359331Y0211291D01*
X0359331Y0208893D02*
X0282459Y0208893D01*
X0280061Y0206494D02*
X0290257Y0206494D01*
X0290377Y0206615D02*
X0287800Y0204037D01*
X0287800Y0200392D01*
X0290377Y0197815D01*
X0294023Y0197815D01*
X0296600Y0200392D01*
X0296600Y0204037D01*
X0294023Y0206615D01*
X0290377Y0206615D01*
X0287858Y0204096D02*
X0265162Y0204096D01*
X0262764Y0201697D02*
X0287800Y0201697D01*
X0288894Y0199299D02*
X0261500Y0199299D01*
X0248083Y0182509D02*
X0359331Y0182509D01*
X0359331Y0180111D02*
X0250481Y0180111D01*
X0252880Y0177712D02*
X0359331Y0177712D01*
X0359331Y0175314D02*
X0255278Y0175314D01*
X0257677Y0172915D02*
X0359331Y0172915D01*
X0359331Y0170517D02*
X0259682Y0170517D01*
X0260119Y0168118D02*
X0263715Y0168118D01*
X0262483Y0165720D02*
X0261588Y0165720D01*
X0261600Y0163321D02*
X0262400Y0163321D01*
X0262400Y0160923D02*
X0261600Y0160923D01*
X0261511Y0158524D02*
X0262513Y0158524D01*
X0267200Y0163321D02*
X0267200Y0163321D01*
X0267200Y0165720D02*
X0267200Y0165720D01*
X0267200Y0168118D02*
X0267200Y0168118D01*
X0270685Y0168118D02*
X0359331Y0168118D01*
X0359331Y0165720D02*
X0324918Y0165720D01*
X0326600Y0163321D02*
X0359331Y0163321D01*
X0359331Y0160923D02*
X0326600Y0160923D01*
X0325200Y0158524D02*
X0359331Y0158524D01*
X0359331Y0156126D02*
X0353078Y0156126D01*
X0355496Y0153727D02*
X0359331Y0153727D01*
X0359331Y0151329D02*
X0357895Y0151329D01*
X0347200Y0146532D02*
X0347200Y0146532D01*
X0347200Y0144133D02*
X0347200Y0144133D01*
X0347200Y0141735D02*
X0347200Y0141735D01*
X0347200Y0139336D02*
X0347200Y0139336D01*
X0351342Y0136938D02*
X0353800Y0136938D01*
X0341295Y0146532D02*
X0317694Y0146532D01*
X0320092Y0148930D02*
X0340697Y0148930D01*
X0339400Y0151329D02*
X0325036Y0151329D01*
X0326600Y0153727D02*
X0339631Y0153727D01*
X0341322Y0156126D02*
X0326600Y0156126D01*
X0322200Y0154715D02*
X0322200Y0162215D01*
X0317800Y0163321D02*
X0316600Y0163321D01*
X0316600Y0160923D02*
X0317800Y0160923D01*
X0319200Y0158524D02*
X0315200Y0158524D01*
X0316600Y0156126D02*
X0317800Y0156126D01*
X0317535Y0153727D02*
X0316600Y0153727D01*
X0315137Y0151329D02*
X0315036Y0151329D01*
X0312738Y0148930D02*
X0310092Y0148930D01*
X0305137Y0151329D02*
X0305036Y0151329D01*
X0306600Y0153727D02*
X0307535Y0153727D01*
X0307800Y0156126D02*
X0306600Y0156126D01*
X0305200Y0158524D02*
X0309200Y0158524D01*
X0307800Y0160923D02*
X0306600Y0160923D01*
X0306600Y0163321D02*
X0307800Y0163321D01*
X0309482Y0165720D02*
X0304918Y0165720D01*
X0299482Y0165720D02*
X0294918Y0165720D01*
X0296600Y0163321D02*
X0297800Y0163321D01*
X0297800Y0160923D02*
X0296600Y0160923D01*
X0295200Y0158524D02*
X0299200Y0158524D01*
X0297800Y0156126D02*
X0296600Y0156126D01*
X0296600Y0153727D02*
X0297535Y0153727D01*
X0302200Y0154715D02*
X0302200Y0162215D01*
X0292200Y0162215D02*
X0292200Y0154715D01*
X0289200Y0158524D02*
X0271887Y0158524D01*
X0272000Y0160923D02*
X0287800Y0160923D01*
X0287800Y0163321D02*
X0272000Y0163321D01*
X0271917Y0165720D02*
X0289482Y0165720D01*
X0312200Y0162215D02*
X0312200Y0154715D01*
X0315295Y0144133D02*
X0339356Y0144133D01*
X0319482Y0165720D02*
X0314918Y0165720D01*
X0314023Y0197815D02*
X0310377Y0197815D01*
X0307800Y0200392D01*
X0307800Y0204037D01*
X0310377Y0206615D01*
X0314023Y0206615D01*
X0316600Y0204037D01*
X0316600Y0200392D01*
X0314023Y0197815D01*
X0315506Y0199299D02*
X0318894Y0199299D01*
X0317800Y0200392D02*
X0320377Y0197815D01*
X0324023Y0197815D01*
X0326600Y0200392D01*
X0326600Y0204037D01*
X0324023Y0206615D01*
X0320377Y0206615D01*
X0317800Y0204037D01*
X0317800Y0200392D01*
X0317800Y0201697D02*
X0316600Y0201697D01*
X0316542Y0204096D02*
X0317858Y0204096D01*
X0320257Y0206494D02*
X0314143Y0206494D01*
X0310257Y0206494D02*
X0304143Y0206494D01*
X0304023Y0206615D02*
X0300377Y0206615D01*
X0297800Y0204037D01*
X0297800Y0200392D01*
X0300377Y0197815D01*
X0304023Y0197815D01*
X0306600Y0200392D01*
X0306600Y0204037D01*
X0304023Y0206615D01*
X0306542Y0204096D02*
X0307858Y0204096D01*
X0307800Y0201697D02*
X0306600Y0201697D01*
X0305506Y0199299D02*
X0308894Y0199299D01*
X0298894Y0199299D02*
X0295506Y0199299D01*
X0296600Y0201697D02*
X0297800Y0201697D01*
X0297858Y0204096D02*
X0296542Y0204096D01*
X0294143Y0206494D02*
X0300257Y0206494D01*
X0296262Y0223284D02*
X0359331Y0223284D01*
X0359331Y0225682D02*
X0296968Y0225682D01*
X0297000Y0228081D02*
X0359331Y0228081D01*
X0359331Y0230479D02*
X0355594Y0230479D01*
X0354534Y0229419D02*
X0351410Y0228125D01*
X0348029Y0228125D01*
X0344905Y0229419D01*
X0342514Y0231810D01*
X0341220Y0234934D01*
X0341220Y0238315D01*
X0342514Y0241439D01*
X0344905Y0243830D01*
X0348029Y0245124D01*
X0351410Y0245124D01*
X0354534Y0243830D01*
X0356925Y0241439D01*
X0358219Y0238315D01*
X0358219Y0234934D01*
X0356925Y0231810D01*
X0354534Y0229419D01*
X0357367Y0232878D02*
X0359331Y0232878D01*
X0359331Y0235277D02*
X0358219Y0235277D01*
X0358219Y0237675D02*
X0359331Y0237675D01*
X0359144Y0240074D02*
X0357490Y0240074D01*
X0358200Y0242472D02*
X0355892Y0242472D01*
X0355890Y0244871D02*
X0352021Y0244871D01*
X0352884Y0246141D02*
X0352884Y0246141D01*
X0347418Y0244871D02*
X0021313Y0244871D01*
X0020702Y0245124D02*
X0017320Y0245124D01*
X0014197Y0243830D01*
X0011806Y0241439D01*
X0010512Y0238315D01*
X0010512Y0234934D01*
X0011806Y0231810D01*
X0014197Y0229419D01*
X0017320Y0228125D01*
X0020702Y0228125D01*
X0023825Y0229419D01*
X0026216Y0231810D01*
X0027510Y0234934D01*
X0027510Y0238315D01*
X0026216Y0241439D01*
X0023825Y0243830D01*
X0020702Y0245124D01*
X0016709Y0244871D02*
X0012841Y0244871D01*
X0012839Y0242472D02*
X0010530Y0242472D01*
X0011240Y0240074D02*
X0009587Y0240074D01*
X0009400Y0237675D02*
X0010512Y0237675D01*
X0010512Y0235277D02*
X0009400Y0235277D01*
X0009400Y0232878D02*
X0011363Y0232878D01*
X0013136Y0230479D02*
X0009400Y0230479D01*
X0009400Y0228081D02*
X0147400Y0228081D01*
X0147400Y0230479D02*
X0024886Y0230479D01*
X0026659Y0232878D02*
X0147400Y0232878D01*
X0148066Y0235277D02*
X0027510Y0235277D01*
X0027510Y0237675D02*
X0341220Y0237675D01*
X0341220Y0235277D02*
X0296334Y0235277D01*
X0297000Y0232878D02*
X0342072Y0232878D01*
X0343845Y0230479D02*
X0297000Y0230479D01*
X0324143Y0206494D02*
X0359331Y0206494D01*
X0359331Y0204096D02*
X0326542Y0204096D01*
X0326600Y0201697D02*
X0359331Y0201697D01*
X0359331Y0199299D02*
X0325506Y0199299D01*
X0341949Y0240074D02*
X0026782Y0240074D01*
X0025183Y0242472D02*
X0343548Y0242472D01*
X0247086Y0225682D02*
X0246968Y0225682D01*
X0164339Y0206494D02*
X0102550Y0206494D01*
X0102550Y0204715D02*
X0097200Y0204715D01*
X0097200Y0204715D01*
X0102550Y0204715D01*
X0097200Y0206494D02*
X0097200Y0206494D01*
X0097200Y0208893D02*
X0097200Y0208893D01*
X0093812Y0208893D02*
X0090022Y0208893D01*
X0084378Y0208893D02*
X0080022Y0208893D01*
X0082150Y0206494D02*
X0082250Y0206494D01*
X0082250Y0204096D02*
X0082150Y0204096D01*
X0074378Y0208893D02*
X0070588Y0208893D01*
X0067200Y0208893D02*
X0067200Y0208893D01*
X0067200Y0206494D02*
X0067200Y0206494D01*
X0063812Y0208893D02*
X0009400Y0208893D01*
X0009400Y0211291D02*
X0159542Y0211291D01*
X0157144Y0213690D02*
X0009400Y0213690D01*
X0009400Y0216088D02*
X0070104Y0216088D01*
X0070208Y0215985D02*
X0068970Y0217223D01*
X0068300Y0218840D01*
X0068300Y0220590D01*
X0068970Y0222207D01*
X0070208Y0223445D01*
X0071825Y0224115D01*
X0073575Y0224115D01*
X0075192Y0223445D01*
X0076430Y0222207D01*
X0077100Y0220590D01*
X0077100Y0218840D01*
X0076430Y0217223D01*
X0075192Y0215985D01*
X0073575Y0215315D01*
X0071825Y0215315D01*
X0070208Y0215985D01*
X0068446Y0218487D02*
X0009400Y0218487D01*
X0009400Y0220885D02*
X0068422Y0220885D01*
X0070046Y0223284D02*
X0009400Y0223284D01*
X0009400Y0225682D02*
X0147432Y0225682D01*
X0148138Y0223284D02*
X0094354Y0223284D01*
X0094192Y0223445D02*
X0092575Y0224115D01*
X0090825Y0224115D01*
X0089208Y0223445D01*
X0087970Y0222207D01*
X0087300Y0220590D01*
X0087300Y0218840D01*
X0087970Y0217223D01*
X0089208Y0215985D01*
X0090825Y0215315D01*
X0092575Y0215315D01*
X0094192Y0215985D01*
X0095430Y0217223D01*
X0096100Y0218840D01*
X0096100Y0220590D01*
X0095430Y0222207D01*
X0094192Y0223445D01*
X0095978Y0220885D02*
X0149948Y0220885D01*
X0152347Y0218487D02*
X0095954Y0218487D01*
X0094296Y0216088D02*
X0154745Y0216088D01*
X0161941Y0208893D02*
X0100588Y0208893D01*
X0089104Y0216088D02*
X0075296Y0216088D01*
X0076954Y0218487D02*
X0087446Y0218487D01*
X0087422Y0220885D02*
X0076978Y0220885D01*
X0075354Y0223284D02*
X0089046Y0223284D01*
X0061850Y0206494D02*
X0009400Y0206494D01*
X0009400Y0204096D02*
X0061850Y0204096D01*
X0111099Y0196900D02*
X0113301Y0196900D01*
X0112800Y0194502D02*
X0111600Y0194502D01*
X0111600Y0192103D02*
X0112800Y0192103D01*
X0112800Y0189705D02*
X0111600Y0189705D01*
X0111006Y0187306D02*
X0113394Y0187306D01*
X0062812Y0165720D02*
X0061588Y0165720D01*
X0037200Y0162215D02*
X0027200Y0152215D01*
X0031504Y0144133D02*
X0051039Y0144133D01*
X0053438Y0141735D02*
X0031600Y0141735D01*
X0030544Y0139336D02*
X0055836Y0139336D01*
X0058566Y0136938D02*
X0030200Y0136938D01*
X0030200Y0134539D02*
X0082800Y0134539D01*
X0082800Y0132141D02*
X0064017Y0132141D01*
X0062200Y0129715D02*
X0044700Y0129715D01*
X0037200Y0122215D01*
X0042000Y0122546D02*
X0042400Y0122546D01*
X0042479Y0120148D02*
X0041921Y0120148D01*
X0039523Y0117749D02*
X0044877Y0117749D01*
X0043548Y0115351D02*
X0040852Y0115351D01*
X0042000Y0112952D02*
X0042400Y0112952D01*
X0042400Y0110554D02*
X0041707Y0110554D01*
X0039929Y0108155D02*
X0044471Y0108155D01*
X0046499Y0105757D02*
X0039881Y0105757D01*
X0037200Y0102215D02*
X0047200Y0102215D01*
X0057200Y0112215D01*
X0057200Y0117015D02*
X0055046Y0117015D01*
X0052000Y0120061D01*
X0052000Y0122215D01*
X0057200Y0122215D01*
X0057200Y0122215D01*
X0057200Y0122215D01*
X0062400Y0122215D01*
X0062400Y0120061D01*
X0059354Y0117015D01*
X0057200Y0117015D01*
X0057200Y0122215D01*
X0057200Y0122215D01*
X0057200Y0117015D01*
X0057200Y0117749D02*
X0057200Y0117749D01*
X0057200Y0120148D02*
X0057200Y0120148D01*
X0060088Y0117749D02*
X0064200Y0117749D01*
X0064200Y0115351D02*
X0060852Y0115351D01*
X0062000Y0112952D02*
X0064200Y0112952D01*
X0064200Y0110554D02*
X0062000Y0110554D01*
X0059929Y0108155D02*
X0064200Y0108155D01*
X0064557Y0105757D02*
X0054985Y0105757D01*
X0052586Y0103358D02*
X0066814Y0103358D01*
X0069212Y0100960D02*
X0050188Y0100960D01*
X0052000Y0112952D02*
X0052400Y0112952D01*
X0053548Y0115351D02*
X0050852Y0115351D01*
X0049523Y0117749D02*
X0054312Y0117749D01*
X0052000Y0120148D02*
X0051921Y0120148D01*
X0052000Y0122546D02*
X0052000Y0122546D01*
X0052576Y0124945D02*
X0051258Y0124945D01*
X0042883Y0132141D02*
X0030200Y0132141D01*
X0030200Y0129742D02*
X0040484Y0129742D01*
X0042157Y0131414D02*
X0042157Y0131414D01*
X0038086Y0127344D02*
X0030200Y0127344D01*
X0030692Y0124945D02*
X0033142Y0124945D01*
X0032400Y0122546D02*
X0031600Y0122546D01*
X0031356Y0120148D02*
X0032479Y0120148D01*
X0027200Y0122215D02*
X0027200Y0142215D01*
X0059700Y0139715D02*
X0104700Y0139715D01*
X0107200Y0137215D01*
X0107200Y0132215D01*
X0102800Y0132141D02*
X0101600Y0132141D01*
X0101600Y0134539D02*
X0102800Y0134539D01*
X0102800Y0129742D02*
X0101600Y0129742D01*
X0101022Y0127344D02*
X0103378Y0127344D01*
X0112626Y0122546D02*
X0091111Y0122546D01*
X0087200Y0122215D02*
X0077200Y0122215D01*
X0067200Y0122215D01*
X0067200Y0124715D01*
X0062200Y0129715D01*
X0066416Y0129742D02*
X0082800Y0129742D01*
X0083378Y0127344D02*
X0068814Y0127344D01*
X0067200Y0122215D02*
X0067200Y0107215D01*
X0072200Y0102215D01*
X0077200Y0102215D01*
X0074519Y0105757D02*
X0072901Y0105757D01*
X0074984Y0106865D02*
X0077200Y0106865D01*
X0077200Y0112215D01*
X0077200Y0112215D01*
X0071850Y0112215D01*
X0071850Y0109999D01*
X0074984Y0106865D01*
X0073694Y0108155D02*
X0070502Y0108155D01*
X0070200Y0110554D02*
X0071850Y0110554D01*
X0071850Y0112952D02*
X0070200Y0112952D01*
X0070200Y0115351D02*
X0072770Y0115351D01*
X0074665Y0117749D02*
X0070200Y0117749D01*
X0064200Y0120148D02*
X0062400Y0120148D01*
X0062400Y0122546D02*
X0064200Y0122546D01*
X0062727Y0124945D02*
X0061824Y0124945D01*
X0079735Y0117749D02*
X0087423Y0117749D01*
X0089821Y0115351D02*
X0081630Y0115351D01*
X0082550Y0112952D02*
X0092220Y0112952D01*
X0077200Y0110554D02*
X0077200Y0110554D01*
X0077200Y0108155D02*
X0077200Y0108155D01*
X0077749Y0076975D02*
X0009400Y0076975D01*
X0009400Y0079373D02*
X0023253Y0079373D01*
X0022400Y0081772D02*
X0009400Y0081772D01*
X0009400Y0084170D02*
X0022400Y0084170D01*
X0024766Y0086569D02*
X0009400Y0086569D01*
X0009400Y0074576D02*
X0075350Y0074576D01*
X0072952Y0072178D02*
X0009400Y0072178D01*
X0009400Y0069779D02*
X0048497Y0069779D01*
X0049385Y0066900D02*
X0053755Y0066900D01*
X0049385Y0066900D02*
X0042200Y0059715D01*
X0042200Y0054715D01*
X0047200Y0049715D01*
X0067200Y0049715D01*
X0065748Y0052990D02*
X0061794Y0052990D01*
X0063469Y0055388D02*
X0064456Y0055388D01*
X0063705Y0056900D02*
X0058755Y0056900D01*
X0058755Y0061850D01*
X0058755Y0056900D01*
X0058755Y0056900D01*
X0063705Y0056900D01*
X0063626Y0057787D02*
X0064205Y0057787D01*
X0065606Y0060185D02*
X0062470Y0060185D01*
X0062596Y0062072D02*
X0063366Y0061950D01*
X0063755Y0061950D01*
X0063755Y0066900D01*
X0063755Y0066900D01*
X0058805Y0066900D01*
X0058805Y0067290D01*
X0058927Y0068059D01*
X0059168Y0068800D01*
X0059521Y0069494D01*
X0059979Y0070125D01*
X0060530Y0070676D01*
X0061161Y0071134D01*
X0061855Y0071487D01*
X0062596Y0071728D01*
X0063366Y0071850D01*
X0063755Y0071850D01*
X0063755Y0066900D01*
X0058805Y0066900D01*
X0058805Y0066510D01*
X0058927Y0065741D01*
X0059168Y0065000D01*
X0059521Y0064306D01*
X0059979Y0063675D01*
X0060530Y0063124D01*
X0061161Y0062666D01*
X0061855Y0062313D01*
X0062596Y0062072D01*
X0063755Y0061950D02*
X0064145Y0061950D01*
X0064914Y0062072D01*
X0065655Y0062313D01*
X0066349Y0062666D01*
X0066980Y0063124D01*
X0067531Y0063675D01*
X0067989Y0064306D01*
X0068342Y0065000D01*
X0068583Y0065741D01*
X0068705Y0066510D01*
X0068705Y0066900D01*
X0068705Y0067290D01*
X0068583Y0068059D01*
X0068342Y0068800D01*
X0067989Y0069494D01*
X0067531Y0070125D01*
X0066980Y0070676D01*
X0066349Y0071134D01*
X0065655Y0071487D01*
X0064914Y0071728D01*
X0064145Y0071850D01*
X0063755Y0071850D01*
X0063755Y0066900D01*
X0063755Y0066900D01*
X0063755Y0066900D01*
X0063755Y0061950D01*
X0063755Y0062584D02*
X0063755Y0062584D01*
X0063755Y0064982D02*
X0063755Y0064982D01*
X0063755Y0066900D02*
X0063755Y0066900D01*
X0068705Y0066900D01*
X0063755Y0066900D01*
X0063755Y0067381D02*
X0063755Y0067381D01*
X0063755Y0069779D02*
X0063755Y0069779D01*
X0059728Y0069779D02*
X0057311Y0069779D01*
X0058305Y0067381D02*
X0058820Y0067381D01*
X0059177Y0064982D02*
X0057886Y0064982D01*
X0055224Y0062584D02*
X0061323Y0062584D01*
X0058755Y0060185D02*
X0058755Y0060185D01*
X0058755Y0057787D02*
X0058755Y0057787D01*
X0058755Y0056900D02*
X0058755Y0056900D01*
X0054042Y0055388D02*
X0053054Y0055388D01*
X0053305Y0057787D02*
X0053884Y0057787D01*
X0055040Y0060185D02*
X0051905Y0060185D01*
X0052286Y0062584D02*
X0049311Y0062584D01*
X0045623Y0067381D02*
X0009400Y0067381D01*
X0009400Y0064982D02*
X0043225Y0064982D01*
X0040826Y0062584D02*
X0009400Y0062584D01*
X0009400Y0060185D02*
X0039200Y0060185D01*
X0039200Y0057787D02*
X0009400Y0057787D01*
X0009400Y0055388D02*
X0039200Y0055388D01*
X0039683Y0052990D02*
X0009400Y0052990D01*
X0009400Y0050591D02*
X0042081Y0050591D01*
X0044480Y0048193D02*
X0009400Y0048193D01*
X0009400Y0045794D02*
X0086184Y0045794D01*
X0088583Y0043396D02*
X0009400Y0043396D01*
X0009400Y0040997D02*
X0090981Y0040997D01*
X0083291Y0038599D02*
X0049219Y0038599D01*
X0048627Y0039191D02*
X0045466Y0040500D01*
X0042044Y0040500D01*
X0038884Y0039191D01*
X0036464Y0036772D01*
X0035155Y0033611D01*
X0035155Y0030189D01*
X0036464Y0027028D01*
X0038884Y0024609D01*
X0042044Y0023300D01*
X0045466Y0023300D01*
X0048627Y0024609D01*
X0051046Y0027028D01*
X0052355Y0030189D01*
X0052355Y0033611D01*
X0051046Y0036772D01*
X0048627Y0039191D01*
X0051283Y0036200D02*
X0081228Y0036200D01*
X0080234Y0033802D02*
X0052276Y0033802D01*
X0052355Y0031403D02*
X0080155Y0031403D01*
X0080646Y0029005D02*
X0051864Y0029005D01*
X0050623Y0026606D02*
X0081887Y0026606D01*
X0084854Y0024208D02*
X0047657Y0024208D01*
X0039854Y0024208D02*
X0027510Y0024208D01*
X0027510Y0025717D02*
X0027510Y0022335D01*
X0026216Y0019212D01*
X0023825Y0016821D01*
X0020702Y0015527D01*
X0017320Y0015527D01*
X0014197Y0016821D01*
X0011806Y0019212D01*
X0010512Y0022335D01*
X0010512Y0025717D01*
X0011806Y0028840D01*
X0014197Y0031231D01*
X0017320Y0032525D01*
X0020702Y0032525D01*
X0023825Y0031231D01*
X0026216Y0028840D01*
X0027510Y0025717D01*
X0027142Y0026606D02*
X0036887Y0026606D01*
X0035646Y0029005D02*
X0026052Y0029005D01*
X0023411Y0031403D02*
X0035155Y0031403D01*
X0035234Y0033802D02*
X0009400Y0033802D01*
X0009400Y0036200D02*
X0036228Y0036200D01*
X0038291Y0038599D02*
X0009400Y0038599D01*
X0009400Y0031403D02*
X0014611Y0031403D01*
X0011970Y0029005D02*
X0009400Y0029005D01*
X0009400Y0026606D02*
X0010880Y0026606D01*
X0010512Y0024208D02*
X0009400Y0024208D01*
X0009420Y0021809D02*
X0010730Y0021809D01*
X0009966Y0019410D02*
X0011723Y0019410D01*
X0011378Y0017012D02*
X0014005Y0017012D01*
X0015526Y0014613D02*
X0353205Y0014613D01*
X0354725Y0017012D02*
X0357353Y0017012D01*
X0357007Y0019410D02*
X0358765Y0019410D01*
X0359311Y0021809D02*
X0358001Y0021809D01*
X0358219Y0024208D02*
X0359331Y0024208D01*
X0359331Y0026606D02*
X0357850Y0026606D01*
X0356761Y0029005D02*
X0359331Y0029005D01*
X0359331Y0031403D02*
X0354119Y0031403D01*
X0341438Y0021809D02*
X0027292Y0021809D01*
X0026299Y0019410D02*
X0342432Y0019410D01*
X0344714Y0017012D02*
X0024017Y0017012D01*
X0070446Y0048193D02*
X0083786Y0048193D01*
X0081387Y0050591D02*
X0070713Y0050591D01*
X0071204Y0052990D02*
X0076306Y0052990D01*
X0074456Y0055388D02*
X0073324Y0055388D01*
X0068358Y0062584D02*
X0066187Y0062584D01*
X0068333Y0064982D02*
X0069455Y0064982D01*
X0069205Y0067381D02*
X0068691Y0067381D01*
X0067782Y0069779D02*
X0070200Y0069779D01*
X0055716Y0052990D02*
X0051204Y0052990D01*
X0097276Y0033802D02*
X0102800Y0033802D01*
X0102800Y0031403D02*
X0097355Y0031403D01*
X0096864Y0029005D02*
X0104188Y0029005D01*
X0110212Y0029005D02*
X0144188Y0029005D01*
X0142800Y0031403D02*
X0111600Y0031403D01*
X0111600Y0033802D02*
X0142800Y0033802D01*
X0150212Y0029005D02*
X0161105Y0029005D01*
X0160498Y0044815D02*
X0159800Y0044815D01*
X0159800Y0045992D01*
X0160930Y0047123D01*
X0161600Y0048740D01*
X0161600Y0055690D01*
X0160930Y0057307D01*
X0160323Y0057915D01*
X0163519Y0057915D01*
X0163095Y0057331D01*
X0162752Y0056658D01*
X0162518Y0055939D01*
X0162400Y0055193D01*
X0162400Y0052215D01*
X0167200Y0052215D01*
X0167200Y0052215D01*
X0167200Y0052215D01*
X0162400Y0052215D01*
X0162400Y0049237D01*
X0162518Y0048491D01*
X0162752Y0047772D01*
X0163095Y0047099D01*
X0163344Y0046756D01*
X0161794Y0046115D01*
X0160500Y0044821D01*
X0160498Y0044815D01*
X0159800Y0045794D02*
X0161474Y0045794D01*
X0161373Y0048193D02*
X0162615Y0048193D01*
X0162400Y0050591D02*
X0161600Y0050591D01*
X0161600Y0052990D02*
X0162400Y0052990D01*
X0162431Y0055388D02*
X0161600Y0055388D01*
X0160451Y0057787D02*
X0163426Y0057787D01*
X0166304Y0074576D02*
X0342200Y0074576D01*
X0342200Y0076975D02*
X0170782Y0076975D01*
X0171600Y0079373D02*
X0342200Y0079373D01*
X0292200Y0115351D02*
X0292200Y0115351D01*
X0292200Y0117749D02*
X0292200Y0117749D01*
X0288446Y0117749D02*
X0204650Y0117749D01*
X0199700Y0107215D02*
X0199700Y0107215D01*
X0199700Y0105757D02*
X0199700Y0105757D01*
X0199700Y0103358D02*
X0199700Y0103358D01*
X0199700Y0100960D02*
X0199700Y0100960D01*
X0199700Y0098561D02*
X0199700Y0098561D01*
X0160930Y0127123D02*
X0161600Y0128740D01*
X0161600Y0135690D01*
X0160930Y0137307D01*
X0159692Y0138545D01*
X0158075Y0139215D01*
X0156325Y0139215D01*
X0154708Y0138545D01*
X0153470Y0137307D01*
X0152800Y0135690D01*
X0152800Y0128740D01*
X0153470Y0127123D01*
X0154708Y0125885D01*
X0156325Y0125215D01*
X0158075Y0125215D01*
X0159692Y0125885D01*
X0160930Y0127123D01*
X0161022Y0127344D02*
X0163378Y0127344D01*
X0162800Y0129742D02*
X0161600Y0129742D01*
X0161600Y0132141D02*
X0162800Y0132141D01*
X0162800Y0134539D02*
X0161600Y0134539D01*
X0161083Y0136938D02*
X0163317Y0136938D01*
X0171600Y0132141D02*
X0283597Y0132141D01*
X0285996Y0129742D02*
X0171600Y0129742D01*
X0171022Y0127344D02*
X0288395Y0127344D01*
X0290793Y0124945D02*
X0124173Y0124945D01*
X0121774Y0122546D02*
X0293192Y0122546D01*
X0237988Y0064982D02*
X0226412Y0064982D01*
X0227150Y0062584D02*
X0237250Y0062584D01*
X0237683Y0060185D02*
X0226717Y0060185D01*
X0224444Y0057787D02*
X0239956Y0057787D01*
X0237888Y0038599D02*
X0236949Y0038599D01*
X0237400Y0036200D02*
X0237400Y0036200D01*
X0237400Y0033802D02*
X0237400Y0033802D01*
X0237400Y0033465D02*
X0232200Y0033465D01*
X0232200Y0033465D01*
X0232200Y0033465D01*
X0232200Y0025265D01*
X0232609Y0025265D01*
X0233418Y0025393D01*
X0234196Y0025646D01*
X0234925Y0026018D01*
X0235588Y0026499D01*
X0236166Y0027077D01*
X0236647Y0027740D01*
X0237019Y0028469D01*
X0237272Y0029247D01*
X0237400Y0030056D01*
X0237400Y0033465D01*
X0237400Y0031403D02*
X0237400Y0031403D01*
X0237193Y0029005D02*
X0237609Y0029005D01*
X0239271Y0026606D02*
X0235695Y0026606D01*
X0232200Y0026606D02*
X0232200Y0026606D01*
X0232200Y0025265D02*
X0232200Y0033465D01*
X0232200Y0033465D01*
X0227000Y0033465D01*
X0227000Y0030056D01*
X0227128Y0029247D01*
X0227381Y0028469D01*
X0227753Y0027740D01*
X0228234Y0027077D01*
X0228812Y0026499D01*
X0229475Y0026018D01*
X0230204Y0025646D01*
X0230982Y0025393D01*
X0231791Y0025265D01*
X0232200Y0025265D01*
X0228705Y0026606D02*
X0225129Y0026606D01*
X0226791Y0029005D02*
X0227207Y0029005D01*
X0227000Y0031403D02*
X0227000Y0031403D01*
X0227000Y0033802D02*
X0227000Y0033802D01*
X0227000Y0036200D02*
X0227000Y0036200D01*
X0227451Y0038599D02*
X0226512Y0038599D01*
X0217888Y0038599D02*
X0209012Y0038599D01*
X0209500Y0036200D02*
X0217400Y0036200D01*
X0217400Y0033802D02*
X0209500Y0033802D01*
X0209500Y0031403D02*
X0217400Y0031403D01*
X0217609Y0029005D02*
X0209291Y0029005D01*
X0207629Y0026606D02*
X0219271Y0026606D01*
X0232200Y0029005D02*
X0232200Y0029005D01*
X0232200Y0031403D02*
X0232200Y0031403D01*
X0201771Y0026606D02*
X0197629Y0026606D01*
X0199291Y0029005D02*
X0200109Y0029005D01*
X0199900Y0031403D02*
X0199500Y0031403D01*
X0199500Y0033802D02*
X0199900Y0033802D01*
X0199900Y0036200D02*
X0199500Y0036200D01*
X0199012Y0038599D02*
X0200388Y0038599D01*
X0190388Y0038599D02*
X0189449Y0038599D01*
X0189900Y0036200D02*
X0189900Y0036200D01*
X0189900Y0033802D02*
X0189900Y0033802D01*
X0189900Y0031403D02*
X0189900Y0031403D01*
X0189693Y0029005D02*
X0190109Y0029005D01*
X0191771Y0026606D02*
X0188195Y0026606D01*
X0184700Y0026606D02*
X0184700Y0026606D01*
X0184700Y0029005D02*
X0184700Y0029005D01*
X0184700Y0031403D02*
X0184700Y0031403D01*
X0124430Y0096163D02*
X0119970Y0096163D01*
X0121526Y0098561D02*
X0122874Y0098561D01*
X0122800Y0100960D02*
X0121600Y0100960D01*
X0121600Y0103358D02*
X0122800Y0103358D01*
X0122828Y0105757D02*
X0121572Y0105757D01*
X0120082Y0108155D02*
X0124318Y0108155D01*
X0143470Y0127123D02*
X0144708Y0125885D01*
X0146325Y0125215D01*
X0148075Y0125215D01*
X0149692Y0125885D01*
X0150930Y0127123D01*
X0151600Y0128740D01*
X0151600Y0135690D01*
X0150930Y0137307D01*
X0149692Y0138545D01*
X0148075Y0139215D01*
X0146325Y0139215D01*
X0144708Y0138545D01*
X0143470Y0137307D01*
X0142800Y0135690D01*
X0142800Y0128740D01*
X0143470Y0127123D01*
X0143378Y0127344D02*
X0141022Y0127344D01*
X0141600Y0129742D02*
X0142800Y0129742D01*
X0142800Y0132141D02*
X0141600Y0132141D01*
X0141600Y0134539D02*
X0142800Y0134539D01*
X0143317Y0136938D02*
X0141083Y0136938D01*
X0151083Y0136938D02*
X0153317Y0136938D01*
X0152800Y0134539D02*
X0151600Y0134539D01*
X0151600Y0132141D02*
X0152800Y0132141D01*
X0152800Y0129742D02*
X0151600Y0129742D01*
X0151022Y0127344D02*
X0153378Y0127344D01*
X0157314Y0225682D02*
X0157432Y0225682D01*
X0157400Y0228081D02*
X0157000Y0228081D01*
X0157000Y0230479D02*
X0157400Y0230479D01*
X0157400Y0232878D02*
X0157000Y0232878D01*
X0156334Y0235277D02*
X0158066Y0235277D01*
D23*
X0327200Y0107215D02*
X0332200Y0112215D01*
X0352200Y0112215D01*
X0357200Y0117215D01*
X0357200Y0147215D01*
X0352200Y0152215D01*
X0347200Y0152215D01*
X0327200Y0107215D02*
X0232200Y0107215D01*
X0222200Y0097215D01*
X0222200Y0089715D01*
D24*
X0172200Y0044715D02*
X0302200Y0044715D01*
X0309700Y0052215D01*
X0309700Y0059715D01*
X0316885Y0066900D01*
X0319976Y0066900D01*
X0314976Y0056900D02*
X0314976Y0052491D01*
X0304700Y0042215D01*
X0204700Y0042215D01*
X0204700Y0033465D01*
X0204700Y0042215D02*
X0177200Y0042215D01*
X0172200Y0037215D01*
X0157200Y0037215D01*
X0107200Y0037215D01*
X0107200Y0032215D01*
X0107200Y0037215D02*
X0098440Y0037215D01*
X0078755Y0056900D01*
X0083755Y0066900D02*
X0108440Y0042215D01*
X0157200Y0042215D01*
X0167200Y0042215D01*
X0169700Y0042215D01*
X0172200Y0044715D01*
X0157200Y0042215D02*
X0157200Y0052215D01*
X0147200Y0032215D02*
X0167200Y0032215D01*
X0277200Y0142215D02*
X0297200Y0122215D01*
X0347200Y0122215D01*
X0339700Y0124715D02*
X0347200Y0132215D01*
X0339700Y0124715D02*
X0299700Y0124715D01*
X0279700Y0144715D01*
X0179700Y0144715D01*
X0177200Y0142215D01*
X0189700Y0139715D02*
X0192200Y0142215D01*
X0277200Y0142215D01*
X0282200Y0147215D02*
X0284700Y0144715D01*
X0312200Y0144715D01*
X0322200Y0154715D01*
X0312200Y0154715D02*
X0304700Y0147215D01*
X0287200Y0147215D01*
X0284700Y0149715D01*
X0139700Y0149715D01*
X0127200Y0162215D01*
X0117200Y0162215D02*
X0132200Y0147215D01*
X0282200Y0147215D01*
X0287200Y0152215D02*
X0289700Y0149715D01*
X0297200Y0149715D01*
X0302200Y0154715D01*
X0292200Y0154715D02*
X0154700Y0154715D01*
X0147200Y0162215D01*
X0147200Y0152215D02*
X0137200Y0162215D01*
X0147200Y0152215D02*
X0287200Y0152215D01*
X0257200Y0162215D02*
X0257200Y0169715D01*
X0242200Y0184715D01*
X0164700Y0184715D01*
X0157200Y0192215D01*
X0147200Y0192215D02*
X0157200Y0182215D01*
X0234700Y0182215D01*
X0247200Y0169715D01*
X0247200Y0162215D01*
X0237200Y0162215D02*
X0237200Y0169715D01*
X0227200Y0179715D01*
X0139700Y0179715D01*
X0127200Y0192215D01*
X0117200Y0192215D02*
X0132200Y0177215D01*
X0219700Y0177215D01*
X0227200Y0169715D01*
X0227200Y0162215D01*
X0217200Y0162215D02*
X0217200Y0169715D01*
X0212200Y0174715D01*
X0084700Y0174715D01*
X0067200Y0192215D01*
X0057200Y0192215D02*
X0077200Y0172215D01*
X0204700Y0172215D01*
X0207200Y0169715D01*
X0207200Y0162215D01*
X0197200Y0162215D02*
X0189700Y0169715D01*
X0069700Y0169715D01*
X0047200Y0192215D01*
X0044700Y0199715D02*
X0037200Y0192215D01*
X0044700Y0199715D02*
X0169700Y0199715D01*
X0177200Y0192215D01*
D25*
X0177200Y0192215D03*
X0177200Y0142215D03*
X0189700Y0139715D03*
X0067200Y0049715D03*
X0157200Y0037215D03*
D26*
X0177200Y0062215D02*
X0189700Y0049715D01*
X0299700Y0049715D01*
X0304976Y0054991D01*
X0304976Y0056900D01*
X0304976Y0061900D01*
X0309976Y0066900D01*
X0177200Y0062215D02*
X0102200Y0062215D01*
X0089700Y0074715D01*
X0081570Y0074715D01*
X0073755Y0066900D01*
X0073755Y0061900D01*
X0068755Y0056900D01*
X0187200Y0192215D02*
X0187200Y0202215D01*
X0179700Y0209715D01*
X0167200Y0209715D01*
X0152200Y0224715D01*
X0152200Y0229715D01*
X0172200Y0229715D02*
X0197200Y0204715D01*
X0197200Y0192215D01*
X0207200Y0192215D02*
X0207200Y0209715D01*
X0192200Y0224715D01*
X0192200Y0229715D01*
X0212200Y0229715D02*
X0217200Y0224715D01*
X0217200Y0192215D01*
X0227200Y0192215D02*
X0227200Y0224715D01*
X0232200Y0229715D01*
X0252200Y0229715D02*
X0252200Y0224715D01*
X0237200Y0209715D01*
X0237200Y0192215D01*
X0247200Y0192215D02*
X0247200Y0204715D01*
X0272200Y0229715D01*
X0292200Y0229715D02*
X0292200Y0224715D01*
X0277200Y0209715D01*
X0264700Y0209715D01*
X0257200Y0202215D01*
X0257200Y0192215D01*
M02*
