G75*
%MOIN*%
%OFA0B0*%
%FSLAX25Y25*%
%IPPOS*%
%LPD*%
%AMOC8*
5,1,8,0,0,1.08239X$1,22.5*
%
%ADD10C,0.00000*%
%ADD11C,0.00300*%
%ADD12C,0.00600*%
%ADD13C,0.01000*%
%ADD14C,0.00500*%
%ADD15R,0.42000X0.03000*%
%ADD16R,0.07500X0.02000*%
%ADD17R,0.03000X0.02000*%
%ADD18C,0.00800*%
%ADD19C,0.01600*%
%ADD20R,0.02400X0.03400*%
%ADD21R,0.03400X0.02400*%
D10*
X0026059Y0048303D02*
X0360705Y0048303D01*
X0360943Y0048306D01*
X0361181Y0048314D01*
X0361418Y0048329D01*
X0361655Y0048349D01*
X0361891Y0048375D01*
X0362127Y0048406D01*
X0362362Y0048443D01*
X0362596Y0048486D01*
X0362829Y0048535D01*
X0363061Y0048589D01*
X0363291Y0048649D01*
X0363520Y0048714D01*
X0363747Y0048785D01*
X0363972Y0048861D01*
X0364195Y0048943D01*
X0364417Y0049030D01*
X0364636Y0049122D01*
X0364853Y0049220D01*
X0365067Y0049322D01*
X0365279Y0049430D01*
X0365489Y0049544D01*
X0365695Y0049662D01*
X0365899Y0049785D01*
X0366099Y0049913D01*
X0366296Y0050045D01*
X0366491Y0050183D01*
X0366681Y0050325D01*
X0366869Y0050472D01*
X0367052Y0050623D01*
X0367232Y0050778D01*
X0367408Y0050938D01*
X0367580Y0051102D01*
X0367749Y0051271D01*
X0367913Y0051443D01*
X0368073Y0051619D01*
X0368228Y0051799D01*
X0368379Y0051982D01*
X0368526Y0052170D01*
X0368668Y0052360D01*
X0368806Y0052555D01*
X0368938Y0052752D01*
X0369066Y0052952D01*
X0369189Y0053156D01*
X0369307Y0053362D01*
X0369421Y0053572D01*
X0369529Y0053784D01*
X0369631Y0053998D01*
X0369729Y0054215D01*
X0369821Y0054434D01*
X0369908Y0054656D01*
X0369990Y0054879D01*
X0370066Y0055104D01*
X0370137Y0055331D01*
X0370202Y0055560D01*
X0370262Y0055790D01*
X0370316Y0056022D01*
X0370365Y0056255D01*
X0370408Y0056489D01*
X0370445Y0056724D01*
X0370476Y0056960D01*
X0370502Y0057196D01*
X0370522Y0057433D01*
X0370537Y0057670D01*
X0370545Y0057908D01*
X0370548Y0058146D01*
X0370547Y0058146D02*
X0370547Y0274681D01*
X0370548Y0274681D02*
X0370545Y0274919D01*
X0370537Y0275157D01*
X0370522Y0275394D01*
X0370502Y0275631D01*
X0370476Y0275867D01*
X0370445Y0276103D01*
X0370408Y0276338D01*
X0370365Y0276572D01*
X0370316Y0276805D01*
X0370262Y0277037D01*
X0370202Y0277267D01*
X0370137Y0277496D01*
X0370066Y0277723D01*
X0369990Y0277948D01*
X0369908Y0278171D01*
X0369821Y0278393D01*
X0369729Y0278612D01*
X0369631Y0278829D01*
X0369529Y0279043D01*
X0369421Y0279255D01*
X0369307Y0279465D01*
X0369189Y0279671D01*
X0369066Y0279875D01*
X0368938Y0280075D01*
X0368806Y0280272D01*
X0368668Y0280467D01*
X0368526Y0280657D01*
X0368379Y0280845D01*
X0368228Y0281028D01*
X0368073Y0281208D01*
X0367913Y0281384D01*
X0367749Y0281556D01*
X0367580Y0281725D01*
X0367408Y0281889D01*
X0367232Y0282049D01*
X0367052Y0282204D01*
X0366869Y0282355D01*
X0366681Y0282502D01*
X0366491Y0282644D01*
X0366296Y0282782D01*
X0366099Y0282914D01*
X0365899Y0283042D01*
X0365695Y0283165D01*
X0365489Y0283283D01*
X0365279Y0283397D01*
X0365067Y0283505D01*
X0364853Y0283607D01*
X0364636Y0283705D01*
X0364417Y0283797D01*
X0364195Y0283884D01*
X0363972Y0283966D01*
X0363747Y0284042D01*
X0363520Y0284113D01*
X0363291Y0284178D01*
X0363061Y0284238D01*
X0362829Y0284292D01*
X0362596Y0284341D01*
X0362362Y0284384D01*
X0362127Y0284421D01*
X0361891Y0284452D01*
X0361655Y0284478D01*
X0361418Y0284498D01*
X0361181Y0284513D01*
X0360943Y0284521D01*
X0360705Y0284524D01*
X0026059Y0284524D01*
X0025821Y0284521D01*
X0025583Y0284513D01*
X0025346Y0284498D01*
X0025109Y0284478D01*
X0024873Y0284452D01*
X0024637Y0284421D01*
X0024402Y0284384D01*
X0024168Y0284341D01*
X0023935Y0284292D01*
X0023703Y0284238D01*
X0023473Y0284178D01*
X0023244Y0284113D01*
X0023017Y0284042D01*
X0022792Y0283966D01*
X0022569Y0283884D01*
X0022347Y0283797D01*
X0022128Y0283705D01*
X0021911Y0283607D01*
X0021697Y0283505D01*
X0021485Y0283397D01*
X0021275Y0283283D01*
X0021069Y0283165D01*
X0020865Y0283042D01*
X0020665Y0282914D01*
X0020468Y0282782D01*
X0020273Y0282644D01*
X0020083Y0282502D01*
X0019895Y0282355D01*
X0019712Y0282204D01*
X0019532Y0282049D01*
X0019356Y0281889D01*
X0019184Y0281725D01*
X0019015Y0281556D01*
X0018851Y0281384D01*
X0018691Y0281208D01*
X0018536Y0281028D01*
X0018385Y0280845D01*
X0018238Y0280657D01*
X0018096Y0280467D01*
X0017958Y0280272D01*
X0017826Y0280075D01*
X0017698Y0279875D01*
X0017575Y0279671D01*
X0017457Y0279465D01*
X0017343Y0279255D01*
X0017235Y0279043D01*
X0017133Y0278829D01*
X0017035Y0278612D01*
X0016943Y0278393D01*
X0016856Y0278171D01*
X0016774Y0277948D01*
X0016698Y0277723D01*
X0016627Y0277496D01*
X0016562Y0277267D01*
X0016502Y0277037D01*
X0016448Y0276805D01*
X0016399Y0276572D01*
X0016356Y0276338D01*
X0016319Y0276103D01*
X0016288Y0275867D01*
X0016262Y0275631D01*
X0016242Y0275394D01*
X0016227Y0275157D01*
X0016219Y0274919D01*
X0016216Y0274681D01*
X0016217Y0274681D02*
X0016217Y0058146D01*
X0016216Y0058146D02*
X0016219Y0057908D01*
X0016227Y0057670D01*
X0016242Y0057433D01*
X0016262Y0057196D01*
X0016288Y0056960D01*
X0016319Y0056724D01*
X0016356Y0056489D01*
X0016399Y0056255D01*
X0016448Y0056022D01*
X0016502Y0055790D01*
X0016562Y0055560D01*
X0016627Y0055331D01*
X0016698Y0055104D01*
X0016774Y0054879D01*
X0016856Y0054656D01*
X0016943Y0054434D01*
X0017035Y0054215D01*
X0017133Y0053998D01*
X0017235Y0053784D01*
X0017343Y0053572D01*
X0017457Y0053362D01*
X0017575Y0053156D01*
X0017698Y0052952D01*
X0017826Y0052752D01*
X0017958Y0052555D01*
X0018096Y0052360D01*
X0018238Y0052170D01*
X0018385Y0051982D01*
X0018536Y0051799D01*
X0018691Y0051619D01*
X0018851Y0051443D01*
X0019015Y0051271D01*
X0019184Y0051102D01*
X0019356Y0050938D01*
X0019532Y0050778D01*
X0019712Y0050623D01*
X0019895Y0050472D01*
X0020083Y0050325D01*
X0020273Y0050183D01*
X0020468Y0050045D01*
X0020665Y0049913D01*
X0020865Y0049785D01*
X0021069Y0049662D01*
X0021275Y0049544D01*
X0021485Y0049430D01*
X0021697Y0049322D01*
X0021911Y0049220D01*
X0022128Y0049122D01*
X0022347Y0049030D01*
X0022569Y0048943D01*
X0022792Y0048861D01*
X0023017Y0048785D01*
X0023244Y0048714D01*
X0023473Y0048649D01*
X0023703Y0048589D01*
X0023935Y0048535D01*
X0024168Y0048486D01*
X0024402Y0048443D01*
X0024637Y0048406D01*
X0024873Y0048375D01*
X0025109Y0048349D01*
X0025346Y0048329D01*
X0025583Y0048314D01*
X0025821Y0048306D01*
X0026059Y0048303D01*
X0021729Y0060114D02*
X0021731Y0060272D01*
X0021737Y0060430D01*
X0021747Y0060588D01*
X0021761Y0060746D01*
X0021779Y0060903D01*
X0021800Y0061060D01*
X0021826Y0061216D01*
X0021856Y0061372D01*
X0021889Y0061527D01*
X0021927Y0061680D01*
X0021968Y0061833D01*
X0022013Y0061985D01*
X0022062Y0062136D01*
X0022115Y0062285D01*
X0022171Y0062433D01*
X0022231Y0062579D01*
X0022295Y0062724D01*
X0022363Y0062867D01*
X0022434Y0063009D01*
X0022508Y0063149D01*
X0022586Y0063286D01*
X0022668Y0063422D01*
X0022752Y0063556D01*
X0022841Y0063687D01*
X0022932Y0063816D01*
X0023027Y0063943D01*
X0023124Y0064068D01*
X0023225Y0064190D01*
X0023329Y0064309D01*
X0023436Y0064426D01*
X0023546Y0064540D01*
X0023659Y0064651D01*
X0023774Y0064760D01*
X0023892Y0064865D01*
X0024013Y0064967D01*
X0024136Y0065067D01*
X0024262Y0065163D01*
X0024390Y0065256D01*
X0024520Y0065346D01*
X0024653Y0065432D01*
X0024788Y0065516D01*
X0024924Y0065595D01*
X0025063Y0065672D01*
X0025204Y0065744D01*
X0025346Y0065814D01*
X0025490Y0065879D01*
X0025636Y0065941D01*
X0025783Y0065999D01*
X0025932Y0066054D01*
X0026082Y0066105D01*
X0026233Y0066152D01*
X0026385Y0066195D01*
X0026538Y0066234D01*
X0026693Y0066270D01*
X0026848Y0066301D01*
X0027004Y0066329D01*
X0027160Y0066353D01*
X0027317Y0066373D01*
X0027475Y0066389D01*
X0027632Y0066401D01*
X0027791Y0066409D01*
X0027949Y0066413D01*
X0028107Y0066413D01*
X0028265Y0066409D01*
X0028424Y0066401D01*
X0028581Y0066389D01*
X0028739Y0066373D01*
X0028896Y0066353D01*
X0029052Y0066329D01*
X0029208Y0066301D01*
X0029363Y0066270D01*
X0029518Y0066234D01*
X0029671Y0066195D01*
X0029823Y0066152D01*
X0029974Y0066105D01*
X0030124Y0066054D01*
X0030273Y0065999D01*
X0030420Y0065941D01*
X0030566Y0065879D01*
X0030710Y0065814D01*
X0030852Y0065744D01*
X0030993Y0065672D01*
X0031132Y0065595D01*
X0031268Y0065516D01*
X0031403Y0065432D01*
X0031536Y0065346D01*
X0031666Y0065256D01*
X0031794Y0065163D01*
X0031920Y0065067D01*
X0032043Y0064967D01*
X0032164Y0064865D01*
X0032282Y0064760D01*
X0032397Y0064651D01*
X0032510Y0064540D01*
X0032620Y0064426D01*
X0032727Y0064309D01*
X0032831Y0064190D01*
X0032932Y0064068D01*
X0033029Y0063943D01*
X0033124Y0063816D01*
X0033215Y0063687D01*
X0033304Y0063556D01*
X0033388Y0063422D01*
X0033470Y0063286D01*
X0033548Y0063149D01*
X0033622Y0063009D01*
X0033693Y0062867D01*
X0033761Y0062724D01*
X0033825Y0062579D01*
X0033885Y0062433D01*
X0033941Y0062285D01*
X0033994Y0062136D01*
X0034043Y0061985D01*
X0034088Y0061833D01*
X0034129Y0061680D01*
X0034167Y0061527D01*
X0034200Y0061372D01*
X0034230Y0061216D01*
X0034256Y0061060D01*
X0034277Y0060903D01*
X0034295Y0060746D01*
X0034309Y0060588D01*
X0034319Y0060430D01*
X0034325Y0060272D01*
X0034327Y0060114D01*
X0034325Y0059956D01*
X0034319Y0059798D01*
X0034309Y0059640D01*
X0034295Y0059482D01*
X0034277Y0059325D01*
X0034256Y0059168D01*
X0034230Y0059012D01*
X0034200Y0058856D01*
X0034167Y0058701D01*
X0034129Y0058548D01*
X0034088Y0058395D01*
X0034043Y0058243D01*
X0033994Y0058092D01*
X0033941Y0057943D01*
X0033885Y0057795D01*
X0033825Y0057649D01*
X0033761Y0057504D01*
X0033693Y0057361D01*
X0033622Y0057219D01*
X0033548Y0057079D01*
X0033470Y0056942D01*
X0033388Y0056806D01*
X0033304Y0056672D01*
X0033215Y0056541D01*
X0033124Y0056412D01*
X0033029Y0056285D01*
X0032932Y0056160D01*
X0032831Y0056038D01*
X0032727Y0055919D01*
X0032620Y0055802D01*
X0032510Y0055688D01*
X0032397Y0055577D01*
X0032282Y0055468D01*
X0032164Y0055363D01*
X0032043Y0055261D01*
X0031920Y0055161D01*
X0031794Y0055065D01*
X0031666Y0054972D01*
X0031536Y0054882D01*
X0031403Y0054796D01*
X0031268Y0054712D01*
X0031132Y0054633D01*
X0030993Y0054556D01*
X0030852Y0054484D01*
X0030710Y0054414D01*
X0030566Y0054349D01*
X0030420Y0054287D01*
X0030273Y0054229D01*
X0030124Y0054174D01*
X0029974Y0054123D01*
X0029823Y0054076D01*
X0029671Y0054033D01*
X0029518Y0053994D01*
X0029363Y0053958D01*
X0029208Y0053927D01*
X0029052Y0053899D01*
X0028896Y0053875D01*
X0028739Y0053855D01*
X0028581Y0053839D01*
X0028424Y0053827D01*
X0028265Y0053819D01*
X0028107Y0053815D01*
X0027949Y0053815D01*
X0027791Y0053819D01*
X0027632Y0053827D01*
X0027475Y0053839D01*
X0027317Y0053855D01*
X0027160Y0053875D01*
X0027004Y0053899D01*
X0026848Y0053927D01*
X0026693Y0053958D01*
X0026538Y0053994D01*
X0026385Y0054033D01*
X0026233Y0054076D01*
X0026082Y0054123D01*
X0025932Y0054174D01*
X0025783Y0054229D01*
X0025636Y0054287D01*
X0025490Y0054349D01*
X0025346Y0054414D01*
X0025204Y0054484D01*
X0025063Y0054556D01*
X0024924Y0054633D01*
X0024788Y0054712D01*
X0024653Y0054796D01*
X0024520Y0054882D01*
X0024390Y0054972D01*
X0024262Y0055065D01*
X0024136Y0055161D01*
X0024013Y0055261D01*
X0023892Y0055363D01*
X0023774Y0055468D01*
X0023659Y0055577D01*
X0023546Y0055688D01*
X0023436Y0055802D01*
X0023329Y0055919D01*
X0023225Y0056038D01*
X0023124Y0056160D01*
X0023027Y0056285D01*
X0022932Y0056412D01*
X0022841Y0056541D01*
X0022752Y0056672D01*
X0022668Y0056806D01*
X0022586Y0056942D01*
X0022508Y0057079D01*
X0022434Y0057219D01*
X0022363Y0057361D01*
X0022295Y0057504D01*
X0022231Y0057649D01*
X0022171Y0057795D01*
X0022115Y0057943D01*
X0022062Y0058092D01*
X0022013Y0058243D01*
X0021968Y0058395D01*
X0021927Y0058548D01*
X0021889Y0058701D01*
X0021856Y0058856D01*
X0021826Y0059012D01*
X0021800Y0059168D01*
X0021779Y0059325D01*
X0021761Y0059482D01*
X0021747Y0059640D01*
X0021737Y0059798D01*
X0021731Y0059956D01*
X0021729Y0060114D01*
X0046372Y0067988D02*
X0046374Y0068148D01*
X0046380Y0068307D01*
X0046390Y0068466D01*
X0046404Y0068625D01*
X0046422Y0068784D01*
X0046443Y0068942D01*
X0046469Y0069099D01*
X0046499Y0069256D01*
X0046532Y0069412D01*
X0046570Y0069567D01*
X0046611Y0069721D01*
X0046656Y0069874D01*
X0046705Y0070026D01*
X0046758Y0070177D01*
X0046814Y0070326D01*
X0046875Y0070474D01*
X0046938Y0070620D01*
X0047006Y0070765D01*
X0047077Y0070908D01*
X0047151Y0071049D01*
X0047229Y0071188D01*
X0047311Y0071325D01*
X0047396Y0071460D01*
X0047484Y0071593D01*
X0047576Y0071724D01*
X0047670Y0071852D01*
X0047768Y0071978D01*
X0047869Y0072102D01*
X0047973Y0072223D01*
X0048080Y0072341D01*
X0048190Y0072457D01*
X0048303Y0072570D01*
X0048419Y0072680D01*
X0048537Y0072787D01*
X0048658Y0072891D01*
X0048782Y0072992D01*
X0048908Y0073090D01*
X0049036Y0073184D01*
X0049167Y0073276D01*
X0049300Y0073364D01*
X0049435Y0073449D01*
X0049572Y0073531D01*
X0049711Y0073609D01*
X0049852Y0073683D01*
X0049995Y0073754D01*
X0050140Y0073822D01*
X0050286Y0073885D01*
X0050434Y0073946D01*
X0050583Y0074002D01*
X0050734Y0074055D01*
X0050886Y0074104D01*
X0051039Y0074149D01*
X0051193Y0074190D01*
X0051348Y0074228D01*
X0051504Y0074261D01*
X0051661Y0074291D01*
X0051818Y0074317D01*
X0051976Y0074338D01*
X0052135Y0074356D01*
X0052294Y0074370D01*
X0052453Y0074380D01*
X0052612Y0074386D01*
X0052772Y0074388D01*
X0052932Y0074386D01*
X0053091Y0074380D01*
X0053250Y0074370D01*
X0053409Y0074356D01*
X0053568Y0074338D01*
X0053726Y0074317D01*
X0053883Y0074291D01*
X0054040Y0074261D01*
X0054196Y0074228D01*
X0054351Y0074190D01*
X0054505Y0074149D01*
X0054658Y0074104D01*
X0054810Y0074055D01*
X0054961Y0074002D01*
X0055110Y0073946D01*
X0055258Y0073885D01*
X0055404Y0073822D01*
X0055549Y0073754D01*
X0055692Y0073683D01*
X0055833Y0073609D01*
X0055972Y0073531D01*
X0056109Y0073449D01*
X0056244Y0073364D01*
X0056377Y0073276D01*
X0056508Y0073184D01*
X0056636Y0073090D01*
X0056762Y0072992D01*
X0056886Y0072891D01*
X0057007Y0072787D01*
X0057125Y0072680D01*
X0057241Y0072570D01*
X0057354Y0072457D01*
X0057464Y0072341D01*
X0057571Y0072223D01*
X0057675Y0072102D01*
X0057776Y0071978D01*
X0057874Y0071852D01*
X0057968Y0071724D01*
X0058060Y0071593D01*
X0058148Y0071460D01*
X0058233Y0071325D01*
X0058315Y0071188D01*
X0058393Y0071049D01*
X0058467Y0070908D01*
X0058538Y0070765D01*
X0058606Y0070620D01*
X0058669Y0070474D01*
X0058730Y0070326D01*
X0058786Y0070177D01*
X0058839Y0070026D01*
X0058888Y0069874D01*
X0058933Y0069721D01*
X0058974Y0069567D01*
X0059012Y0069412D01*
X0059045Y0069256D01*
X0059075Y0069099D01*
X0059101Y0068942D01*
X0059122Y0068784D01*
X0059140Y0068625D01*
X0059154Y0068466D01*
X0059164Y0068307D01*
X0059170Y0068148D01*
X0059172Y0067988D01*
X0059170Y0067828D01*
X0059164Y0067669D01*
X0059154Y0067510D01*
X0059140Y0067351D01*
X0059122Y0067192D01*
X0059101Y0067034D01*
X0059075Y0066877D01*
X0059045Y0066720D01*
X0059012Y0066564D01*
X0058974Y0066409D01*
X0058933Y0066255D01*
X0058888Y0066102D01*
X0058839Y0065950D01*
X0058786Y0065799D01*
X0058730Y0065650D01*
X0058669Y0065502D01*
X0058606Y0065356D01*
X0058538Y0065211D01*
X0058467Y0065068D01*
X0058393Y0064927D01*
X0058315Y0064788D01*
X0058233Y0064651D01*
X0058148Y0064516D01*
X0058060Y0064383D01*
X0057968Y0064252D01*
X0057874Y0064124D01*
X0057776Y0063998D01*
X0057675Y0063874D01*
X0057571Y0063753D01*
X0057464Y0063635D01*
X0057354Y0063519D01*
X0057241Y0063406D01*
X0057125Y0063296D01*
X0057007Y0063189D01*
X0056886Y0063085D01*
X0056762Y0062984D01*
X0056636Y0062886D01*
X0056508Y0062792D01*
X0056377Y0062700D01*
X0056244Y0062612D01*
X0056109Y0062527D01*
X0055972Y0062445D01*
X0055833Y0062367D01*
X0055692Y0062293D01*
X0055549Y0062222D01*
X0055404Y0062154D01*
X0055258Y0062091D01*
X0055110Y0062030D01*
X0054961Y0061974D01*
X0054810Y0061921D01*
X0054658Y0061872D01*
X0054505Y0061827D01*
X0054351Y0061786D01*
X0054196Y0061748D01*
X0054040Y0061715D01*
X0053883Y0061685D01*
X0053726Y0061659D01*
X0053568Y0061638D01*
X0053409Y0061620D01*
X0053250Y0061606D01*
X0053091Y0061596D01*
X0052932Y0061590D01*
X0052772Y0061588D01*
X0052612Y0061590D01*
X0052453Y0061596D01*
X0052294Y0061606D01*
X0052135Y0061620D01*
X0051976Y0061638D01*
X0051818Y0061659D01*
X0051661Y0061685D01*
X0051504Y0061715D01*
X0051348Y0061748D01*
X0051193Y0061786D01*
X0051039Y0061827D01*
X0050886Y0061872D01*
X0050734Y0061921D01*
X0050583Y0061974D01*
X0050434Y0062030D01*
X0050286Y0062091D01*
X0050140Y0062154D01*
X0049995Y0062222D01*
X0049852Y0062293D01*
X0049711Y0062367D01*
X0049572Y0062445D01*
X0049435Y0062527D01*
X0049300Y0062612D01*
X0049167Y0062700D01*
X0049036Y0062792D01*
X0048908Y0062886D01*
X0048782Y0062984D01*
X0048658Y0063085D01*
X0048537Y0063189D01*
X0048419Y0063296D01*
X0048303Y0063406D01*
X0048190Y0063519D01*
X0048080Y0063635D01*
X0047973Y0063753D01*
X0047869Y0063874D01*
X0047768Y0063998D01*
X0047670Y0064124D01*
X0047576Y0064252D01*
X0047484Y0064383D01*
X0047396Y0064516D01*
X0047311Y0064651D01*
X0047229Y0064788D01*
X0047151Y0064927D01*
X0047077Y0065068D01*
X0047006Y0065211D01*
X0046938Y0065356D01*
X0046875Y0065502D01*
X0046814Y0065650D01*
X0046758Y0065799D01*
X0046705Y0065950D01*
X0046656Y0066102D01*
X0046611Y0066255D01*
X0046570Y0066409D01*
X0046532Y0066564D01*
X0046499Y0066720D01*
X0046469Y0066877D01*
X0046443Y0067034D01*
X0046422Y0067192D01*
X0046404Y0067351D01*
X0046390Y0067510D01*
X0046380Y0067669D01*
X0046374Y0067828D01*
X0046372Y0067988D01*
X0091372Y0067988D02*
X0091374Y0068148D01*
X0091380Y0068307D01*
X0091390Y0068466D01*
X0091404Y0068625D01*
X0091422Y0068784D01*
X0091443Y0068942D01*
X0091469Y0069099D01*
X0091499Y0069256D01*
X0091532Y0069412D01*
X0091570Y0069567D01*
X0091611Y0069721D01*
X0091656Y0069874D01*
X0091705Y0070026D01*
X0091758Y0070177D01*
X0091814Y0070326D01*
X0091875Y0070474D01*
X0091938Y0070620D01*
X0092006Y0070765D01*
X0092077Y0070908D01*
X0092151Y0071049D01*
X0092229Y0071188D01*
X0092311Y0071325D01*
X0092396Y0071460D01*
X0092484Y0071593D01*
X0092576Y0071724D01*
X0092670Y0071852D01*
X0092768Y0071978D01*
X0092869Y0072102D01*
X0092973Y0072223D01*
X0093080Y0072341D01*
X0093190Y0072457D01*
X0093303Y0072570D01*
X0093419Y0072680D01*
X0093537Y0072787D01*
X0093658Y0072891D01*
X0093782Y0072992D01*
X0093908Y0073090D01*
X0094036Y0073184D01*
X0094167Y0073276D01*
X0094300Y0073364D01*
X0094435Y0073449D01*
X0094572Y0073531D01*
X0094711Y0073609D01*
X0094852Y0073683D01*
X0094995Y0073754D01*
X0095140Y0073822D01*
X0095286Y0073885D01*
X0095434Y0073946D01*
X0095583Y0074002D01*
X0095734Y0074055D01*
X0095886Y0074104D01*
X0096039Y0074149D01*
X0096193Y0074190D01*
X0096348Y0074228D01*
X0096504Y0074261D01*
X0096661Y0074291D01*
X0096818Y0074317D01*
X0096976Y0074338D01*
X0097135Y0074356D01*
X0097294Y0074370D01*
X0097453Y0074380D01*
X0097612Y0074386D01*
X0097772Y0074388D01*
X0097932Y0074386D01*
X0098091Y0074380D01*
X0098250Y0074370D01*
X0098409Y0074356D01*
X0098568Y0074338D01*
X0098726Y0074317D01*
X0098883Y0074291D01*
X0099040Y0074261D01*
X0099196Y0074228D01*
X0099351Y0074190D01*
X0099505Y0074149D01*
X0099658Y0074104D01*
X0099810Y0074055D01*
X0099961Y0074002D01*
X0100110Y0073946D01*
X0100258Y0073885D01*
X0100404Y0073822D01*
X0100549Y0073754D01*
X0100692Y0073683D01*
X0100833Y0073609D01*
X0100972Y0073531D01*
X0101109Y0073449D01*
X0101244Y0073364D01*
X0101377Y0073276D01*
X0101508Y0073184D01*
X0101636Y0073090D01*
X0101762Y0072992D01*
X0101886Y0072891D01*
X0102007Y0072787D01*
X0102125Y0072680D01*
X0102241Y0072570D01*
X0102354Y0072457D01*
X0102464Y0072341D01*
X0102571Y0072223D01*
X0102675Y0072102D01*
X0102776Y0071978D01*
X0102874Y0071852D01*
X0102968Y0071724D01*
X0103060Y0071593D01*
X0103148Y0071460D01*
X0103233Y0071325D01*
X0103315Y0071188D01*
X0103393Y0071049D01*
X0103467Y0070908D01*
X0103538Y0070765D01*
X0103606Y0070620D01*
X0103669Y0070474D01*
X0103730Y0070326D01*
X0103786Y0070177D01*
X0103839Y0070026D01*
X0103888Y0069874D01*
X0103933Y0069721D01*
X0103974Y0069567D01*
X0104012Y0069412D01*
X0104045Y0069256D01*
X0104075Y0069099D01*
X0104101Y0068942D01*
X0104122Y0068784D01*
X0104140Y0068625D01*
X0104154Y0068466D01*
X0104164Y0068307D01*
X0104170Y0068148D01*
X0104172Y0067988D01*
X0104170Y0067828D01*
X0104164Y0067669D01*
X0104154Y0067510D01*
X0104140Y0067351D01*
X0104122Y0067192D01*
X0104101Y0067034D01*
X0104075Y0066877D01*
X0104045Y0066720D01*
X0104012Y0066564D01*
X0103974Y0066409D01*
X0103933Y0066255D01*
X0103888Y0066102D01*
X0103839Y0065950D01*
X0103786Y0065799D01*
X0103730Y0065650D01*
X0103669Y0065502D01*
X0103606Y0065356D01*
X0103538Y0065211D01*
X0103467Y0065068D01*
X0103393Y0064927D01*
X0103315Y0064788D01*
X0103233Y0064651D01*
X0103148Y0064516D01*
X0103060Y0064383D01*
X0102968Y0064252D01*
X0102874Y0064124D01*
X0102776Y0063998D01*
X0102675Y0063874D01*
X0102571Y0063753D01*
X0102464Y0063635D01*
X0102354Y0063519D01*
X0102241Y0063406D01*
X0102125Y0063296D01*
X0102007Y0063189D01*
X0101886Y0063085D01*
X0101762Y0062984D01*
X0101636Y0062886D01*
X0101508Y0062792D01*
X0101377Y0062700D01*
X0101244Y0062612D01*
X0101109Y0062527D01*
X0100972Y0062445D01*
X0100833Y0062367D01*
X0100692Y0062293D01*
X0100549Y0062222D01*
X0100404Y0062154D01*
X0100258Y0062091D01*
X0100110Y0062030D01*
X0099961Y0061974D01*
X0099810Y0061921D01*
X0099658Y0061872D01*
X0099505Y0061827D01*
X0099351Y0061786D01*
X0099196Y0061748D01*
X0099040Y0061715D01*
X0098883Y0061685D01*
X0098726Y0061659D01*
X0098568Y0061638D01*
X0098409Y0061620D01*
X0098250Y0061606D01*
X0098091Y0061596D01*
X0097932Y0061590D01*
X0097772Y0061588D01*
X0097612Y0061590D01*
X0097453Y0061596D01*
X0097294Y0061606D01*
X0097135Y0061620D01*
X0096976Y0061638D01*
X0096818Y0061659D01*
X0096661Y0061685D01*
X0096504Y0061715D01*
X0096348Y0061748D01*
X0096193Y0061786D01*
X0096039Y0061827D01*
X0095886Y0061872D01*
X0095734Y0061921D01*
X0095583Y0061974D01*
X0095434Y0062030D01*
X0095286Y0062091D01*
X0095140Y0062154D01*
X0094995Y0062222D01*
X0094852Y0062293D01*
X0094711Y0062367D01*
X0094572Y0062445D01*
X0094435Y0062527D01*
X0094300Y0062612D01*
X0094167Y0062700D01*
X0094036Y0062792D01*
X0093908Y0062886D01*
X0093782Y0062984D01*
X0093658Y0063085D01*
X0093537Y0063189D01*
X0093419Y0063296D01*
X0093303Y0063406D01*
X0093190Y0063519D01*
X0093080Y0063635D01*
X0092973Y0063753D01*
X0092869Y0063874D01*
X0092768Y0063998D01*
X0092670Y0064124D01*
X0092576Y0064252D01*
X0092484Y0064383D01*
X0092396Y0064516D01*
X0092311Y0064651D01*
X0092229Y0064788D01*
X0092151Y0064927D01*
X0092077Y0065068D01*
X0092006Y0065211D01*
X0091938Y0065356D01*
X0091875Y0065502D01*
X0091814Y0065650D01*
X0091758Y0065799D01*
X0091705Y0065950D01*
X0091656Y0066102D01*
X0091611Y0066255D01*
X0091570Y0066409D01*
X0091532Y0066564D01*
X0091499Y0066720D01*
X0091469Y0066877D01*
X0091443Y0067034D01*
X0091422Y0067192D01*
X0091404Y0067351D01*
X0091390Y0067510D01*
X0091380Y0067669D01*
X0091374Y0067828D01*
X0091372Y0067988D01*
X0282592Y0067988D02*
X0282594Y0068148D01*
X0282600Y0068307D01*
X0282610Y0068466D01*
X0282624Y0068625D01*
X0282642Y0068784D01*
X0282663Y0068942D01*
X0282689Y0069099D01*
X0282719Y0069256D01*
X0282752Y0069412D01*
X0282790Y0069567D01*
X0282831Y0069721D01*
X0282876Y0069874D01*
X0282925Y0070026D01*
X0282978Y0070177D01*
X0283034Y0070326D01*
X0283095Y0070474D01*
X0283158Y0070620D01*
X0283226Y0070765D01*
X0283297Y0070908D01*
X0283371Y0071049D01*
X0283449Y0071188D01*
X0283531Y0071325D01*
X0283616Y0071460D01*
X0283704Y0071593D01*
X0283796Y0071724D01*
X0283890Y0071852D01*
X0283988Y0071978D01*
X0284089Y0072102D01*
X0284193Y0072223D01*
X0284300Y0072341D01*
X0284410Y0072457D01*
X0284523Y0072570D01*
X0284639Y0072680D01*
X0284757Y0072787D01*
X0284878Y0072891D01*
X0285002Y0072992D01*
X0285128Y0073090D01*
X0285256Y0073184D01*
X0285387Y0073276D01*
X0285520Y0073364D01*
X0285655Y0073449D01*
X0285792Y0073531D01*
X0285931Y0073609D01*
X0286072Y0073683D01*
X0286215Y0073754D01*
X0286360Y0073822D01*
X0286506Y0073885D01*
X0286654Y0073946D01*
X0286803Y0074002D01*
X0286954Y0074055D01*
X0287106Y0074104D01*
X0287259Y0074149D01*
X0287413Y0074190D01*
X0287568Y0074228D01*
X0287724Y0074261D01*
X0287881Y0074291D01*
X0288038Y0074317D01*
X0288196Y0074338D01*
X0288355Y0074356D01*
X0288514Y0074370D01*
X0288673Y0074380D01*
X0288832Y0074386D01*
X0288992Y0074388D01*
X0289152Y0074386D01*
X0289311Y0074380D01*
X0289470Y0074370D01*
X0289629Y0074356D01*
X0289788Y0074338D01*
X0289946Y0074317D01*
X0290103Y0074291D01*
X0290260Y0074261D01*
X0290416Y0074228D01*
X0290571Y0074190D01*
X0290725Y0074149D01*
X0290878Y0074104D01*
X0291030Y0074055D01*
X0291181Y0074002D01*
X0291330Y0073946D01*
X0291478Y0073885D01*
X0291624Y0073822D01*
X0291769Y0073754D01*
X0291912Y0073683D01*
X0292053Y0073609D01*
X0292192Y0073531D01*
X0292329Y0073449D01*
X0292464Y0073364D01*
X0292597Y0073276D01*
X0292728Y0073184D01*
X0292856Y0073090D01*
X0292982Y0072992D01*
X0293106Y0072891D01*
X0293227Y0072787D01*
X0293345Y0072680D01*
X0293461Y0072570D01*
X0293574Y0072457D01*
X0293684Y0072341D01*
X0293791Y0072223D01*
X0293895Y0072102D01*
X0293996Y0071978D01*
X0294094Y0071852D01*
X0294188Y0071724D01*
X0294280Y0071593D01*
X0294368Y0071460D01*
X0294453Y0071325D01*
X0294535Y0071188D01*
X0294613Y0071049D01*
X0294687Y0070908D01*
X0294758Y0070765D01*
X0294826Y0070620D01*
X0294889Y0070474D01*
X0294950Y0070326D01*
X0295006Y0070177D01*
X0295059Y0070026D01*
X0295108Y0069874D01*
X0295153Y0069721D01*
X0295194Y0069567D01*
X0295232Y0069412D01*
X0295265Y0069256D01*
X0295295Y0069099D01*
X0295321Y0068942D01*
X0295342Y0068784D01*
X0295360Y0068625D01*
X0295374Y0068466D01*
X0295384Y0068307D01*
X0295390Y0068148D01*
X0295392Y0067988D01*
X0295390Y0067828D01*
X0295384Y0067669D01*
X0295374Y0067510D01*
X0295360Y0067351D01*
X0295342Y0067192D01*
X0295321Y0067034D01*
X0295295Y0066877D01*
X0295265Y0066720D01*
X0295232Y0066564D01*
X0295194Y0066409D01*
X0295153Y0066255D01*
X0295108Y0066102D01*
X0295059Y0065950D01*
X0295006Y0065799D01*
X0294950Y0065650D01*
X0294889Y0065502D01*
X0294826Y0065356D01*
X0294758Y0065211D01*
X0294687Y0065068D01*
X0294613Y0064927D01*
X0294535Y0064788D01*
X0294453Y0064651D01*
X0294368Y0064516D01*
X0294280Y0064383D01*
X0294188Y0064252D01*
X0294094Y0064124D01*
X0293996Y0063998D01*
X0293895Y0063874D01*
X0293791Y0063753D01*
X0293684Y0063635D01*
X0293574Y0063519D01*
X0293461Y0063406D01*
X0293345Y0063296D01*
X0293227Y0063189D01*
X0293106Y0063085D01*
X0292982Y0062984D01*
X0292856Y0062886D01*
X0292728Y0062792D01*
X0292597Y0062700D01*
X0292464Y0062612D01*
X0292329Y0062527D01*
X0292192Y0062445D01*
X0292053Y0062367D01*
X0291912Y0062293D01*
X0291769Y0062222D01*
X0291624Y0062154D01*
X0291478Y0062091D01*
X0291330Y0062030D01*
X0291181Y0061974D01*
X0291030Y0061921D01*
X0290878Y0061872D01*
X0290725Y0061827D01*
X0290571Y0061786D01*
X0290416Y0061748D01*
X0290260Y0061715D01*
X0290103Y0061685D01*
X0289946Y0061659D01*
X0289788Y0061638D01*
X0289629Y0061620D01*
X0289470Y0061606D01*
X0289311Y0061596D01*
X0289152Y0061590D01*
X0288992Y0061588D01*
X0288832Y0061590D01*
X0288673Y0061596D01*
X0288514Y0061606D01*
X0288355Y0061620D01*
X0288196Y0061638D01*
X0288038Y0061659D01*
X0287881Y0061685D01*
X0287724Y0061715D01*
X0287568Y0061748D01*
X0287413Y0061786D01*
X0287259Y0061827D01*
X0287106Y0061872D01*
X0286954Y0061921D01*
X0286803Y0061974D01*
X0286654Y0062030D01*
X0286506Y0062091D01*
X0286360Y0062154D01*
X0286215Y0062222D01*
X0286072Y0062293D01*
X0285931Y0062367D01*
X0285792Y0062445D01*
X0285655Y0062527D01*
X0285520Y0062612D01*
X0285387Y0062700D01*
X0285256Y0062792D01*
X0285128Y0062886D01*
X0285002Y0062984D01*
X0284878Y0063085D01*
X0284757Y0063189D01*
X0284639Y0063296D01*
X0284523Y0063406D01*
X0284410Y0063519D01*
X0284300Y0063635D01*
X0284193Y0063753D01*
X0284089Y0063874D01*
X0283988Y0063998D01*
X0283890Y0064124D01*
X0283796Y0064252D01*
X0283704Y0064383D01*
X0283616Y0064516D01*
X0283531Y0064651D01*
X0283449Y0064788D01*
X0283371Y0064927D01*
X0283297Y0065068D01*
X0283226Y0065211D01*
X0283158Y0065356D01*
X0283095Y0065502D01*
X0283034Y0065650D01*
X0282978Y0065799D01*
X0282925Y0065950D01*
X0282876Y0066102D01*
X0282831Y0066255D01*
X0282790Y0066409D01*
X0282752Y0066564D01*
X0282719Y0066720D01*
X0282689Y0066877D01*
X0282663Y0067034D01*
X0282642Y0067192D01*
X0282624Y0067351D01*
X0282610Y0067510D01*
X0282600Y0067669D01*
X0282594Y0067828D01*
X0282592Y0067988D01*
X0327592Y0067988D02*
X0327594Y0068148D01*
X0327600Y0068307D01*
X0327610Y0068466D01*
X0327624Y0068625D01*
X0327642Y0068784D01*
X0327663Y0068942D01*
X0327689Y0069099D01*
X0327719Y0069256D01*
X0327752Y0069412D01*
X0327790Y0069567D01*
X0327831Y0069721D01*
X0327876Y0069874D01*
X0327925Y0070026D01*
X0327978Y0070177D01*
X0328034Y0070326D01*
X0328095Y0070474D01*
X0328158Y0070620D01*
X0328226Y0070765D01*
X0328297Y0070908D01*
X0328371Y0071049D01*
X0328449Y0071188D01*
X0328531Y0071325D01*
X0328616Y0071460D01*
X0328704Y0071593D01*
X0328796Y0071724D01*
X0328890Y0071852D01*
X0328988Y0071978D01*
X0329089Y0072102D01*
X0329193Y0072223D01*
X0329300Y0072341D01*
X0329410Y0072457D01*
X0329523Y0072570D01*
X0329639Y0072680D01*
X0329757Y0072787D01*
X0329878Y0072891D01*
X0330002Y0072992D01*
X0330128Y0073090D01*
X0330256Y0073184D01*
X0330387Y0073276D01*
X0330520Y0073364D01*
X0330655Y0073449D01*
X0330792Y0073531D01*
X0330931Y0073609D01*
X0331072Y0073683D01*
X0331215Y0073754D01*
X0331360Y0073822D01*
X0331506Y0073885D01*
X0331654Y0073946D01*
X0331803Y0074002D01*
X0331954Y0074055D01*
X0332106Y0074104D01*
X0332259Y0074149D01*
X0332413Y0074190D01*
X0332568Y0074228D01*
X0332724Y0074261D01*
X0332881Y0074291D01*
X0333038Y0074317D01*
X0333196Y0074338D01*
X0333355Y0074356D01*
X0333514Y0074370D01*
X0333673Y0074380D01*
X0333832Y0074386D01*
X0333992Y0074388D01*
X0334152Y0074386D01*
X0334311Y0074380D01*
X0334470Y0074370D01*
X0334629Y0074356D01*
X0334788Y0074338D01*
X0334946Y0074317D01*
X0335103Y0074291D01*
X0335260Y0074261D01*
X0335416Y0074228D01*
X0335571Y0074190D01*
X0335725Y0074149D01*
X0335878Y0074104D01*
X0336030Y0074055D01*
X0336181Y0074002D01*
X0336330Y0073946D01*
X0336478Y0073885D01*
X0336624Y0073822D01*
X0336769Y0073754D01*
X0336912Y0073683D01*
X0337053Y0073609D01*
X0337192Y0073531D01*
X0337329Y0073449D01*
X0337464Y0073364D01*
X0337597Y0073276D01*
X0337728Y0073184D01*
X0337856Y0073090D01*
X0337982Y0072992D01*
X0338106Y0072891D01*
X0338227Y0072787D01*
X0338345Y0072680D01*
X0338461Y0072570D01*
X0338574Y0072457D01*
X0338684Y0072341D01*
X0338791Y0072223D01*
X0338895Y0072102D01*
X0338996Y0071978D01*
X0339094Y0071852D01*
X0339188Y0071724D01*
X0339280Y0071593D01*
X0339368Y0071460D01*
X0339453Y0071325D01*
X0339535Y0071188D01*
X0339613Y0071049D01*
X0339687Y0070908D01*
X0339758Y0070765D01*
X0339826Y0070620D01*
X0339889Y0070474D01*
X0339950Y0070326D01*
X0340006Y0070177D01*
X0340059Y0070026D01*
X0340108Y0069874D01*
X0340153Y0069721D01*
X0340194Y0069567D01*
X0340232Y0069412D01*
X0340265Y0069256D01*
X0340295Y0069099D01*
X0340321Y0068942D01*
X0340342Y0068784D01*
X0340360Y0068625D01*
X0340374Y0068466D01*
X0340384Y0068307D01*
X0340390Y0068148D01*
X0340392Y0067988D01*
X0340390Y0067828D01*
X0340384Y0067669D01*
X0340374Y0067510D01*
X0340360Y0067351D01*
X0340342Y0067192D01*
X0340321Y0067034D01*
X0340295Y0066877D01*
X0340265Y0066720D01*
X0340232Y0066564D01*
X0340194Y0066409D01*
X0340153Y0066255D01*
X0340108Y0066102D01*
X0340059Y0065950D01*
X0340006Y0065799D01*
X0339950Y0065650D01*
X0339889Y0065502D01*
X0339826Y0065356D01*
X0339758Y0065211D01*
X0339687Y0065068D01*
X0339613Y0064927D01*
X0339535Y0064788D01*
X0339453Y0064651D01*
X0339368Y0064516D01*
X0339280Y0064383D01*
X0339188Y0064252D01*
X0339094Y0064124D01*
X0338996Y0063998D01*
X0338895Y0063874D01*
X0338791Y0063753D01*
X0338684Y0063635D01*
X0338574Y0063519D01*
X0338461Y0063406D01*
X0338345Y0063296D01*
X0338227Y0063189D01*
X0338106Y0063085D01*
X0337982Y0062984D01*
X0337856Y0062886D01*
X0337728Y0062792D01*
X0337597Y0062700D01*
X0337464Y0062612D01*
X0337329Y0062527D01*
X0337192Y0062445D01*
X0337053Y0062367D01*
X0336912Y0062293D01*
X0336769Y0062222D01*
X0336624Y0062154D01*
X0336478Y0062091D01*
X0336330Y0062030D01*
X0336181Y0061974D01*
X0336030Y0061921D01*
X0335878Y0061872D01*
X0335725Y0061827D01*
X0335571Y0061786D01*
X0335416Y0061748D01*
X0335260Y0061715D01*
X0335103Y0061685D01*
X0334946Y0061659D01*
X0334788Y0061638D01*
X0334629Y0061620D01*
X0334470Y0061606D01*
X0334311Y0061596D01*
X0334152Y0061590D01*
X0333992Y0061588D01*
X0333832Y0061590D01*
X0333673Y0061596D01*
X0333514Y0061606D01*
X0333355Y0061620D01*
X0333196Y0061638D01*
X0333038Y0061659D01*
X0332881Y0061685D01*
X0332724Y0061715D01*
X0332568Y0061748D01*
X0332413Y0061786D01*
X0332259Y0061827D01*
X0332106Y0061872D01*
X0331954Y0061921D01*
X0331803Y0061974D01*
X0331654Y0062030D01*
X0331506Y0062091D01*
X0331360Y0062154D01*
X0331215Y0062222D01*
X0331072Y0062293D01*
X0330931Y0062367D01*
X0330792Y0062445D01*
X0330655Y0062527D01*
X0330520Y0062612D01*
X0330387Y0062700D01*
X0330256Y0062792D01*
X0330128Y0062886D01*
X0330002Y0062984D01*
X0329878Y0063085D01*
X0329757Y0063189D01*
X0329639Y0063296D01*
X0329523Y0063406D01*
X0329410Y0063519D01*
X0329300Y0063635D01*
X0329193Y0063753D01*
X0329089Y0063874D01*
X0328988Y0063998D01*
X0328890Y0064124D01*
X0328796Y0064252D01*
X0328704Y0064383D01*
X0328616Y0064516D01*
X0328531Y0064651D01*
X0328449Y0064788D01*
X0328371Y0064927D01*
X0328297Y0065068D01*
X0328226Y0065211D01*
X0328158Y0065356D01*
X0328095Y0065502D01*
X0328034Y0065650D01*
X0327978Y0065799D01*
X0327925Y0065950D01*
X0327876Y0066102D01*
X0327831Y0066255D01*
X0327790Y0066409D01*
X0327752Y0066564D01*
X0327719Y0066720D01*
X0327689Y0066877D01*
X0327663Y0067034D01*
X0327642Y0067192D01*
X0327624Y0067351D01*
X0327610Y0067510D01*
X0327600Y0067669D01*
X0327594Y0067828D01*
X0327592Y0067988D01*
X0352437Y0060114D02*
X0352439Y0060272D01*
X0352445Y0060430D01*
X0352455Y0060588D01*
X0352469Y0060746D01*
X0352487Y0060903D01*
X0352508Y0061060D01*
X0352534Y0061216D01*
X0352564Y0061372D01*
X0352597Y0061527D01*
X0352635Y0061680D01*
X0352676Y0061833D01*
X0352721Y0061985D01*
X0352770Y0062136D01*
X0352823Y0062285D01*
X0352879Y0062433D01*
X0352939Y0062579D01*
X0353003Y0062724D01*
X0353071Y0062867D01*
X0353142Y0063009D01*
X0353216Y0063149D01*
X0353294Y0063286D01*
X0353376Y0063422D01*
X0353460Y0063556D01*
X0353549Y0063687D01*
X0353640Y0063816D01*
X0353735Y0063943D01*
X0353832Y0064068D01*
X0353933Y0064190D01*
X0354037Y0064309D01*
X0354144Y0064426D01*
X0354254Y0064540D01*
X0354367Y0064651D01*
X0354482Y0064760D01*
X0354600Y0064865D01*
X0354721Y0064967D01*
X0354844Y0065067D01*
X0354970Y0065163D01*
X0355098Y0065256D01*
X0355228Y0065346D01*
X0355361Y0065432D01*
X0355496Y0065516D01*
X0355632Y0065595D01*
X0355771Y0065672D01*
X0355912Y0065744D01*
X0356054Y0065814D01*
X0356198Y0065879D01*
X0356344Y0065941D01*
X0356491Y0065999D01*
X0356640Y0066054D01*
X0356790Y0066105D01*
X0356941Y0066152D01*
X0357093Y0066195D01*
X0357246Y0066234D01*
X0357401Y0066270D01*
X0357556Y0066301D01*
X0357712Y0066329D01*
X0357868Y0066353D01*
X0358025Y0066373D01*
X0358183Y0066389D01*
X0358340Y0066401D01*
X0358499Y0066409D01*
X0358657Y0066413D01*
X0358815Y0066413D01*
X0358973Y0066409D01*
X0359132Y0066401D01*
X0359289Y0066389D01*
X0359447Y0066373D01*
X0359604Y0066353D01*
X0359760Y0066329D01*
X0359916Y0066301D01*
X0360071Y0066270D01*
X0360226Y0066234D01*
X0360379Y0066195D01*
X0360531Y0066152D01*
X0360682Y0066105D01*
X0360832Y0066054D01*
X0360981Y0065999D01*
X0361128Y0065941D01*
X0361274Y0065879D01*
X0361418Y0065814D01*
X0361560Y0065744D01*
X0361701Y0065672D01*
X0361840Y0065595D01*
X0361976Y0065516D01*
X0362111Y0065432D01*
X0362244Y0065346D01*
X0362374Y0065256D01*
X0362502Y0065163D01*
X0362628Y0065067D01*
X0362751Y0064967D01*
X0362872Y0064865D01*
X0362990Y0064760D01*
X0363105Y0064651D01*
X0363218Y0064540D01*
X0363328Y0064426D01*
X0363435Y0064309D01*
X0363539Y0064190D01*
X0363640Y0064068D01*
X0363737Y0063943D01*
X0363832Y0063816D01*
X0363923Y0063687D01*
X0364012Y0063556D01*
X0364096Y0063422D01*
X0364178Y0063286D01*
X0364256Y0063149D01*
X0364330Y0063009D01*
X0364401Y0062867D01*
X0364469Y0062724D01*
X0364533Y0062579D01*
X0364593Y0062433D01*
X0364649Y0062285D01*
X0364702Y0062136D01*
X0364751Y0061985D01*
X0364796Y0061833D01*
X0364837Y0061680D01*
X0364875Y0061527D01*
X0364908Y0061372D01*
X0364938Y0061216D01*
X0364964Y0061060D01*
X0364985Y0060903D01*
X0365003Y0060746D01*
X0365017Y0060588D01*
X0365027Y0060430D01*
X0365033Y0060272D01*
X0365035Y0060114D01*
X0365033Y0059956D01*
X0365027Y0059798D01*
X0365017Y0059640D01*
X0365003Y0059482D01*
X0364985Y0059325D01*
X0364964Y0059168D01*
X0364938Y0059012D01*
X0364908Y0058856D01*
X0364875Y0058701D01*
X0364837Y0058548D01*
X0364796Y0058395D01*
X0364751Y0058243D01*
X0364702Y0058092D01*
X0364649Y0057943D01*
X0364593Y0057795D01*
X0364533Y0057649D01*
X0364469Y0057504D01*
X0364401Y0057361D01*
X0364330Y0057219D01*
X0364256Y0057079D01*
X0364178Y0056942D01*
X0364096Y0056806D01*
X0364012Y0056672D01*
X0363923Y0056541D01*
X0363832Y0056412D01*
X0363737Y0056285D01*
X0363640Y0056160D01*
X0363539Y0056038D01*
X0363435Y0055919D01*
X0363328Y0055802D01*
X0363218Y0055688D01*
X0363105Y0055577D01*
X0362990Y0055468D01*
X0362872Y0055363D01*
X0362751Y0055261D01*
X0362628Y0055161D01*
X0362502Y0055065D01*
X0362374Y0054972D01*
X0362244Y0054882D01*
X0362111Y0054796D01*
X0361976Y0054712D01*
X0361840Y0054633D01*
X0361701Y0054556D01*
X0361560Y0054484D01*
X0361418Y0054414D01*
X0361274Y0054349D01*
X0361128Y0054287D01*
X0360981Y0054229D01*
X0360832Y0054174D01*
X0360682Y0054123D01*
X0360531Y0054076D01*
X0360379Y0054033D01*
X0360226Y0053994D01*
X0360071Y0053958D01*
X0359916Y0053927D01*
X0359760Y0053899D01*
X0359604Y0053875D01*
X0359447Y0053855D01*
X0359289Y0053839D01*
X0359132Y0053827D01*
X0358973Y0053819D01*
X0358815Y0053815D01*
X0358657Y0053815D01*
X0358499Y0053819D01*
X0358340Y0053827D01*
X0358183Y0053839D01*
X0358025Y0053855D01*
X0357868Y0053875D01*
X0357712Y0053899D01*
X0357556Y0053927D01*
X0357401Y0053958D01*
X0357246Y0053994D01*
X0357093Y0054033D01*
X0356941Y0054076D01*
X0356790Y0054123D01*
X0356640Y0054174D01*
X0356491Y0054229D01*
X0356344Y0054287D01*
X0356198Y0054349D01*
X0356054Y0054414D01*
X0355912Y0054484D01*
X0355771Y0054556D01*
X0355632Y0054633D01*
X0355496Y0054712D01*
X0355361Y0054796D01*
X0355228Y0054882D01*
X0355098Y0054972D01*
X0354970Y0055065D01*
X0354844Y0055161D01*
X0354721Y0055261D01*
X0354600Y0055363D01*
X0354482Y0055468D01*
X0354367Y0055577D01*
X0354254Y0055688D01*
X0354144Y0055802D01*
X0354037Y0055919D01*
X0353933Y0056038D01*
X0353832Y0056160D01*
X0353735Y0056285D01*
X0353640Y0056412D01*
X0353549Y0056541D01*
X0353460Y0056672D01*
X0353376Y0056806D01*
X0353294Y0056942D01*
X0353216Y0057079D01*
X0353142Y0057219D01*
X0353071Y0057361D01*
X0353003Y0057504D01*
X0352939Y0057649D01*
X0352879Y0057795D01*
X0352823Y0057943D01*
X0352770Y0058092D01*
X0352721Y0058243D01*
X0352676Y0058395D01*
X0352635Y0058548D01*
X0352597Y0058701D01*
X0352564Y0058856D01*
X0352534Y0059012D01*
X0352508Y0059168D01*
X0352487Y0059325D01*
X0352469Y0059482D01*
X0352455Y0059640D01*
X0352445Y0059798D01*
X0352439Y0059956D01*
X0352437Y0060114D01*
X0352437Y0272713D02*
X0352439Y0272871D01*
X0352445Y0273029D01*
X0352455Y0273187D01*
X0352469Y0273345D01*
X0352487Y0273502D01*
X0352508Y0273659D01*
X0352534Y0273815D01*
X0352564Y0273971D01*
X0352597Y0274126D01*
X0352635Y0274279D01*
X0352676Y0274432D01*
X0352721Y0274584D01*
X0352770Y0274735D01*
X0352823Y0274884D01*
X0352879Y0275032D01*
X0352939Y0275178D01*
X0353003Y0275323D01*
X0353071Y0275466D01*
X0353142Y0275608D01*
X0353216Y0275748D01*
X0353294Y0275885D01*
X0353376Y0276021D01*
X0353460Y0276155D01*
X0353549Y0276286D01*
X0353640Y0276415D01*
X0353735Y0276542D01*
X0353832Y0276667D01*
X0353933Y0276789D01*
X0354037Y0276908D01*
X0354144Y0277025D01*
X0354254Y0277139D01*
X0354367Y0277250D01*
X0354482Y0277359D01*
X0354600Y0277464D01*
X0354721Y0277566D01*
X0354844Y0277666D01*
X0354970Y0277762D01*
X0355098Y0277855D01*
X0355228Y0277945D01*
X0355361Y0278031D01*
X0355496Y0278115D01*
X0355632Y0278194D01*
X0355771Y0278271D01*
X0355912Y0278343D01*
X0356054Y0278413D01*
X0356198Y0278478D01*
X0356344Y0278540D01*
X0356491Y0278598D01*
X0356640Y0278653D01*
X0356790Y0278704D01*
X0356941Y0278751D01*
X0357093Y0278794D01*
X0357246Y0278833D01*
X0357401Y0278869D01*
X0357556Y0278900D01*
X0357712Y0278928D01*
X0357868Y0278952D01*
X0358025Y0278972D01*
X0358183Y0278988D01*
X0358340Y0279000D01*
X0358499Y0279008D01*
X0358657Y0279012D01*
X0358815Y0279012D01*
X0358973Y0279008D01*
X0359132Y0279000D01*
X0359289Y0278988D01*
X0359447Y0278972D01*
X0359604Y0278952D01*
X0359760Y0278928D01*
X0359916Y0278900D01*
X0360071Y0278869D01*
X0360226Y0278833D01*
X0360379Y0278794D01*
X0360531Y0278751D01*
X0360682Y0278704D01*
X0360832Y0278653D01*
X0360981Y0278598D01*
X0361128Y0278540D01*
X0361274Y0278478D01*
X0361418Y0278413D01*
X0361560Y0278343D01*
X0361701Y0278271D01*
X0361840Y0278194D01*
X0361976Y0278115D01*
X0362111Y0278031D01*
X0362244Y0277945D01*
X0362374Y0277855D01*
X0362502Y0277762D01*
X0362628Y0277666D01*
X0362751Y0277566D01*
X0362872Y0277464D01*
X0362990Y0277359D01*
X0363105Y0277250D01*
X0363218Y0277139D01*
X0363328Y0277025D01*
X0363435Y0276908D01*
X0363539Y0276789D01*
X0363640Y0276667D01*
X0363737Y0276542D01*
X0363832Y0276415D01*
X0363923Y0276286D01*
X0364012Y0276155D01*
X0364096Y0276021D01*
X0364178Y0275885D01*
X0364256Y0275748D01*
X0364330Y0275608D01*
X0364401Y0275466D01*
X0364469Y0275323D01*
X0364533Y0275178D01*
X0364593Y0275032D01*
X0364649Y0274884D01*
X0364702Y0274735D01*
X0364751Y0274584D01*
X0364796Y0274432D01*
X0364837Y0274279D01*
X0364875Y0274126D01*
X0364908Y0273971D01*
X0364938Y0273815D01*
X0364964Y0273659D01*
X0364985Y0273502D01*
X0365003Y0273345D01*
X0365017Y0273187D01*
X0365027Y0273029D01*
X0365033Y0272871D01*
X0365035Y0272713D01*
X0365033Y0272555D01*
X0365027Y0272397D01*
X0365017Y0272239D01*
X0365003Y0272081D01*
X0364985Y0271924D01*
X0364964Y0271767D01*
X0364938Y0271611D01*
X0364908Y0271455D01*
X0364875Y0271300D01*
X0364837Y0271147D01*
X0364796Y0270994D01*
X0364751Y0270842D01*
X0364702Y0270691D01*
X0364649Y0270542D01*
X0364593Y0270394D01*
X0364533Y0270248D01*
X0364469Y0270103D01*
X0364401Y0269960D01*
X0364330Y0269818D01*
X0364256Y0269678D01*
X0364178Y0269541D01*
X0364096Y0269405D01*
X0364012Y0269271D01*
X0363923Y0269140D01*
X0363832Y0269011D01*
X0363737Y0268884D01*
X0363640Y0268759D01*
X0363539Y0268637D01*
X0363435Y0268518D01*
X0363328Y0268401D01*
X0363218Y0268287D01*
X0363105Y0268176D01*
X0362990Y0268067D01*
X0362872Y0267962D01*
X0362751Y0267860D01*
X0362628Y0267760D01*
X0362502Y0267664D01*
X0362374Y0267571D01*
X0362244Y0267481D01*
X0362111Y0267395D01*
X0361976Y0267311D01*
X0361840Y0267232D01*
X0361701Y0267155D01*
X0361560Y0267083D01*
X0361418Y0267013D01*
X0361274Y0266948D01*
X0361128Y0266886D01*
X0360981Y0266828D01*
X0360832Y0266773D01*
X0360682Y0266722D01*
X0360531Y0266675D01*
X0360379Y0266632D01*
X0360226Y0266593D01*
X0360071Y0266557D01*
X0359916Y0266526D01*
X0359760Y0266498D01*
X0359604Y0266474D01*
X0359447Y0266454D01*
X0359289Y0266438D01*
X0359132Y0266426D01*
X0358973Y0266418D01*
X0358815Y0266414D01*
X0358657Y0266414D01*
X0358499Y0266418D01*
X0358340Y0266426D01*
X0358183Y0266438D01*
X0358025Y0266454D01*
X0357868Y0266474D01*
X0357712Y0266498D01*
X0357556Y0266526D01*
X0357401Y0266557D01*
X0357246Y0266593D01*
X0357093Y0266632D01*
X0356941Y0266675D01*
X0356790Y0266722D01*
X0356640Y0266773D01*
X0356491Y0266828D01*
X0356344Y0266886D01*
X0356198Y0266948D01*
X0356054Y0267013D01*
X0355912Y0267083D01*
X0355771Y0267155D01*
X0355632Y0267232D01*
X0355496Y0267311D01*
X0355361Y0267395D01*
X0355228Y0267481D01*
X0355098Y0267571D01*
X0354970Y0267664D01*
X0354844Y0267760D01*
X0354721Y0267860D01*
X0354600Y0267962D01*
X0354482Y0268067D01*
X0354367Y0268176D01*
X0354254Y0268287D01*
X0354144Y0268401D01*
X0354037Y0268518D01*
X0353933Y0268637D01*
X0353832Y0268759D01*
X0353735Y0268884D01*
X0353640Y0269011D01*
X0353549Y0269140D01*
X0353460Y0269271D01*
X0353376Y0269405D01*
X0353294Y0269541D01*
X0353216Y0269678D01*
X0353142Y0269818D01*
X0353071Y0269960D01*
X0353003Y0270103D01*
X0352939Y0270248D01*
X0352879Y0270394D01*
X0352823Y0270542D01*
X0352770Y0270691D01*
X0352721Y0270842D01*
X0352676Y0270994D01*
X0352635Y0271147D01*
X0352597Y0271300D01*
X0352564Y0271455D01*
X0352534Y0271611D01*
X0352508Y0271767D01*
X0352487Y0271924D01*
X0352469Y0272081D01*
X0352455Y0272239D01*
X0352445Y0272397D01*
X0352439Y0272555D01*
X0352437Y0272713D01*
X0021729Y0272713D02*
X0021731Y0272871D01*
X0021737Y0273029D01*
X0021747Y0273187D01*
X0021761Y0273345D01*
X0021779Y0273502D01*
X0021800Y0273659D01*
X0021826Y0273815D01*
X0021856Y0273971D01*
X0021889Y0274126D01*
X0021927Y0274279D01*
X0021968Y0274432D01*
X0022013Y0274584D01*
X0022062Y0274735D01*
X0022115Y0274884D01*
X0022171Y0275032D01*
X0022231Y0275178D01*
X0022295Y0275323D01*
X0022363Y0275466D01*
X0022434Y0275608D01*
X0022508Y0275748D01*
X0022586Y0275885D01*
X0022668Y0276021D01*
X0022752Y0276155D01*
X0022841Y0276286D01*
X0022932Y0276415D01*
X0023027Y0276542D01*
X0023124Y0276667D01*
X0023225Y0276789D01*
X0023329Y0276908D01*
X0023436Y0277025D01*
X0023546Y0277139D01*
X0023659Y0277250D01*
X0023774Y0277359D01*
X0023892Y0277464D01*
X0024013Y0277566D01*
X0024136Y0277666D01*
X0024262Y0277762D01*
X0024390Y0277855D01*
X0024520Y0277945D01*
X0024653Y0278031D01*
X0024788Y0278115D01*
X0024924Y0278194D01*
X0025063Y0278271D01*
X0025204Y0278343D01*
X0025346Y0278413D01*
X0025490Y0278478D01*
X0025636Y0278540D01*
X0025783Y0278598D01*
X0025932Y0278653D01*
X0026082Y0278704D01*
X0026233Y0278751D01*
X0026385Y0278794D01*
X0026538Y0278833D01*
X0026693Y0278869D01*
X0026848Y0278900D01*
X0027004Y0278928D01*
X0027160Y0278952D01*
X0027317Y0278972D01*
X0027475Y0278988D01*
X0027632Y0279000D01*
X0027791Y0279008D01*
X0027949Y0279012D01*
X0028107Y0279012D01*
X0028265Y0279008D01*
X0028424Y0279000D01*
X0028581Y0278988D01*
X0028739Y0278972D01*
X0028896Y0278952D01*
X0029052Y0278928D01*
X0029208Y0278900D01*
X0029363Y0278869D01*
X0029518Y0278833D01*
X0029671Y0278794D01*
X0029823Y0278751D01*
X0029974Y0278704D01*
X0030124Y0278653D01*
X0030273Y0278598D01*
X0030420Y0278540D01*
X0030566Y0278478D01*
X0030710Y0278413D01*
X0030852Y0278343D01*
X0030993Y0278271D01*
X0031132Y0278194D01*
X0031268Y0278115D01*
X0031403Y0278031D01*
X0031536Y0277945D01*
X0031666Y0277855D01*
X0031794Y0277762D01*
X0031920Y0277666D01*
X0032043Y0277566D01*
X0032164Y0277464D01*
X0032282Y0277359D01*
X0032397Y0277250D01*
X0032510Y0277139D01*
X0032620Y0277025D01*
X0032727Y0276908D01*
X0032831Y0276789D01*
X0032932Y0276667D01*
X0033029Y0276542D01*
X0033124Y0276415D01*
X0033215Y0276286D01*
X0033304Y0276155D01*
X0033388Y0276021D01*
X0033470Y0275885D01*
X0033548Y0275748D01*
X0033622Y0275608D01*
X0033693Y0275466D01*
X0033761Y0275323D01*
X0033825Y0275178D01*
X0033885Y0275032D01*
X0033941Y0274884D01*
X0033994Y0274735D01*
X0034043Y0274584D01*
X0034088Y0274432D01*
X0034129Y0274279D01*
X0034167Y0274126D01*
X0034200Y0273971D01*
X0034230Y0273815D01*
X0034256Y0273659D01*
X0034277Y0273502D01*
X0034295Y0273345D01*
X0034309Y0273187D01*
X0034319Y0273029D01*
X0034325Y0272871D01*
X0034327Y0272713D01*
X0034325Y0272555D01*
X0034319Y0272397D01*
X0034309Y0272239D01*
X0034295Y0272081D01*
X0034277Y0271924D01*
X0034256Y0271767D01*
X0034230Y0271611D01*
X0034200Y0271455D01*
X0034167Y0271300D01*
X0034129Y0271147D01*
X0034088Y0270994D01*
X0034043Y0270842D01*
X0033994Y0270691D01*
X0033941Y0270542D01*
X0033885Y0270394D01*
X0033825Y0270248D01*
X0033761Y0270103D01*
X0033693Y0269960D01*
X0033622Y0269818D01*
X0033548Y0269678D01*
X0033470Y0269541D01*
X0033388Y0269405D01*
X0033304Y0269271D01*
X0033215Y0269140D01*
X0033124Y0269011D01*
X0033029Y0268884D01*
X0032932Y0268759D01*
X0032831Y0268637D01*
X0032727Y0268518D01*
X0032620Y0268401D01*
X0032510Y0268287D01*
X0032397Y0268176D01*
X0032282Y0268067D01*
X0032164Y0267962D01*
X0032043Y0267860D01*
X0031920Y0267760D01*
X0031794Y0267664D01*
X0031666Y0267571D01*
X0031536Y0267481D01*
X0031403Y0267395D01*
X0031268Y0267311D01*
X0031132Y0267232D01*
X0030993Y0267155D01*
X0030852Y0267083D01*
X0030710Y0267013D01*
X0030566Y0266948D01*
X0030420Y0266886D01*
X0030273Y0266828D01*
X0030124Y0266773D01*
X0029974Y0266722D01*
X0029823Y0266675D01*
X0029671Y0266632D01*
X0029518Y0266593D01*
X0029363Y0266557D01*
X0029208Y0266526D01*
X0029052Y0266498D01*
X0028896Y0266474D01*
X0028739Y0266454D01*
X0028581Y0266438D01*
X0028424Y0266426D01*
X0028265Y0266418D01*
X0028107Y0266414D01*
X0027949Y0266414D01*
X0027791Y0266418D01*
X0027632Y0266426D01*
X0027475Y0266438D01*
X0027317Y0266454D01*
X0027160Y0266474D01*
X0027004Y0266498D01*
X0026848Y0266526D01*
X0026693Y0266557D01*
X0026538Y0266593D01*
X0026385Y0266632D01*
X0026233Y0266675D01*
X0026082Y0266722D01*
X0025932Y0266773D01*
X0025783Y0266828D01*
X0025636Y0266886D01*
X0025490Y0266948D01*
X0025346Y0267013D01*
X0025204Y0267083D01*
X0025063Y0267155D01*
X0024924Y0267232D01*
X0024788Y0267311D01*
X0024653Y0267395D01*
X0024520Y0267481D01*
X0024390Y0267571D01*
X0024262Y0267664D01*
X0024136Y0267760D01*
X0024013Y0267860D01*
X0023892Y0267962D01*
X0023774Y0268067D01*
X0023659Y0268176D01*
X0023546Y0268287D01*
X0023436Y0268401D01*
X0023329Y0268518D01*
X0023225Y0268637D01*
X0023124Y0268759D01*
X0023027Y0268884D01*
X0022932Y0269011D01*
X0022841Y0269140D01*
X0022752Y0269271D01*
X0022668Y0269405D01*
X0022586Y0269541D01*
X0022508Y0269678D01*
X0022434Y0269818D01*
X0022363Y0269960D01*
X0022295Y0270103D01*
X0022231Y0270248D01*
X0022171Y0270394D01*
X0022115Y0270542D01*
X0022062Y0270691D01*
X0022013Y0270842D01*
X0021968Y0270994D01*
X0021927Y0271147D01*
X0021889Y0271300D01*
X0021856Y0271455D01*
X0021826Y0271611D01*
X0021800Y0271767D01*
X0021779Y0271924D01*
X0021761Y0272081D01*
X0021747Y0272239D01*
X0021737Y0272397D01*
X0021731Y0272555D01*
X0021729Y0272713D01*
D11*
X0191981Y0059739D02*
X0191363Y0059122D01*
X0191363Y0057270D01*
X0195067Y0057270D01*
X0195067Y0059122D01*
X0194449Y0059739D01*
X0191981Y0059739D01*
X0191363Y0056056D02*
X0195067Y0056056D01*
X0191363Y0053587D01*
X0195067Y0053587D01*
X0194449Y0052372D02*
X0195067Y0051755D01*
X0195067Y0050521D01*
X0194449Y0049904D01*
X0191981Y0049904D01*
X0191363Y0050521D01*
X0191363Y0051755D01*
X0191981Y0052372D01*
X0193215Y0052372D02*
X0193215Y0051138D01*
X0193215Y0052372D02*
X0194449Y0052372D01*
X0201363Y0051755D02*
X0201363Y0050521D01*
X0201981Y0049904D01*
X0204449Y0049904D01*
X0205067Y0050521D01*
X0205067Y0051755D01*
X0204449Y0052372D01*
X0205684Y0053587D02*
X0205684Y0056056D01*
X0205067Y0057270D02*
X0201363Y0057270D01*
X0203215Y0057270D02*
X0203215Y0059739D01*
X0201363Y0059739D02*
X0205067Y0059739D01*
X0211363Y0057270D02*
X0215067Y0057270D01*
X0215067Y0059739D01*
X0215684Y0056056D02*
X0215684Y0053587D01*
X0214449Y0052372D02*
X0215067Y0051755D01*
X0215067Y0050521D01*
X0214449Y0049904D01*
X0211981Y0049904D01*
X0211363Y0050521D01*
X0211363Y0051755D01*
X0211981Y0052372D01*
X0201981Y0052372D02*
X0201363Y0051755D01*
X0228863Y0053587D02*
X0230715Y0053587D01*
X0230098Y0054821D01*
X0230098Y0055438D01*
X0230715Y0056056D01*
X0231949Y0056056D01*
X0232567Y0055438D01*
X0232567Y0054204D01*
X0231949Y0053587D01*
X0228863Y0053587D02*
X0228863Y0056056D01*
X0228863Y0057270D02*
X0231332Y0057270D01*
X0232567Y0058504D01*
X0231332Y0059739D01*
X0228863Y0059739D01*
X0238863Y0059122D02*
X0238863Y0057270D01*
X0242567Y0057270D01*
X0242567Y0059122D01*
X0241949Y0059739D01*
X0239481Y0059739D01*
X0238863Y0059122D01*
X0238863Y0056056D02*
X0242567Y0056056D01*
X0238863Y0053587D01*
X0242567Y0053587D01*
X0241949Y0052372D02*
X0240715Y0052372D01*
X0240715Y0051138D01*
X0241949Y0049904D02*
X0242567Y0050521D01*
X0242567Y0051755D01*
X0241949Y0052372D01*
X0241949Y0049904D02*
X0239481Y0049904D01*
X0238863Y0050521D01*
X0238863Y0051755D01*
X0239481Y0052372D01*
X0248863Y0051138D02*
X0252567Y0051138D01*
X0252567Y0049904D02*
X0252567Y0052372D01*
X0251949Y0053587D02*
X0251332Y0053587D01*
X0250715Y0054204D01*
X0250715Y0055438D01*
X0251332Y0056056D01*
X0251949Y0056056D01*
X0252567Y0055438D01*
X0252567Y0054204D01*
X0251949Y0053587D01*
X0250715Y0054204D02*
X0250098Y0053587D01*
X0249481Y0053587D01*
X0248863Y0054204D01*
X0248863Y0055438D01*
X0249481Y0056056D01*
X0250098Y0056056D01*
X0250715Y0055438D01*
X0251332Y0057270D02*
X0252567Y0058504D01*
X0251332Y0059739D01*
X0248863Y0059739D01*
X0248863Y0057270D02*
X0251332Y0057270D01*
X0248863Y0051138D02*
X0250098Y0049904D01*
D12*
X0248717Y0064553D02*
X0246217Y0067053D01*
X0243717Y0064553D01*
X0238717Y0064553D01*
X0236217Y0067053D01*
X0233717Y0064553D01*
X0228717Y0064553D01*
X0226217Y0067053D01*
X0226217Y0072053D01*
X0228717Y0074553D01*
X0233717Y0074553D01*
X0236217Y0072053D01*
X0238717Y0074553D01*
X0243717Y0074553D01*
X0246217Y0072053D01*
X0248717Y0074553D01*
X0253717Y0074553D01*
X0256217Y0072053D01*
X0256217Y0067053D01*
X0253717Y0064553D01*
X0248717Y0064553D01*
X0271787Y0061436D02*
X0271787Y0059301D01*
X0272854Y0058234D01*
X0271787Y0056059D02*
X0271787Y0053923D01*
X0271787Y0054991D02*
X0277125Y0054991D01*
X0278192Y0053923D01*
X0278192Y0052856D01*
X0277125Y0051788D01*
X0278192Y0058234D02*
X0273922Y0062504D01*
X0272854Y0062504D01*
X0271787Y0061436D01*
X0278192Y0062504D02*
X0278192Y0058234D01*
X0232717Y0091803D02*
X0232717Y0093303D01*
X0231217Y0093303D01*
X0232717Y0093303D02*
X0232717Y0094803D01*
X0232717Y0093303D02*
X0234217Y0093303D01*
X0215217Y0098303D02*
X0215220Y0098573D01*
X0215230Y0098843D01*
X0215247Y0099112D01*
X0215270Y0099381D01*
X0215300Y0099650D01*
X0215336Y0099917D01*
X0215379Y0100184D01*
X0215428Y0100449D01*
X0215484Y0100713D01*
X0215547Y0100976D01*
X0215615Y0101237D01*
X0215691Y0101496D01*
X0215772Y0101753D01*
X0215860Y0102009D01*
X0215954Y0102262D01*
X0216054Y0102513D01*
X0216161Y0102761D01*
X0216273Y0103006D01*
X0216392Y0103249D01*
X0216516Y0103488D01*
X0216646Y0103725D01*
X0216782Y0103958D01*
X0216924Y0104188D01*
X0217071Y0104414D01*
X0217224Y0104637D01*
X0217382Y0104856D01*
X0217545Y0105071D01*
X0217714Y0105281D01*
X0217888Y0105488D01*
X0218067Y0105690D01*
X0218250Y0105888D01*
X0218439Y0106081D01*
X0218632Y0106270D01*
X0218830Y0106453D01*
X0219032Y0106632D01*
X0219239Y0106806D01*
X0219449Y0106975D01*
X0219664Y0107138D01*
X0219883Y0107296D01*
X0220106Y0107449D01*
X0220332Y0107596D01*
X0220562Y0107738D01*
X0220795Y0107874D01*
X0221032Y0108004D01*
X0221271Y0108128D01*
X0221514Y0108247D01*
X0221759Y0108359D01*
X0222007Y0108466D01*
X0222258Y0108566D01*
X0222511Y0108660D01*
X0222767Y0108748D01*
X0223024Y0108829D01*
X0223283Y0108905D01*
X0223544Y0108973D01*
X0223807Y0109036D01*
X0224071Y0109092D01*
X0224336Y0109141D01*
X0224603Y0109184D01*
X0224870Y0109220D01*
X0225139Y0109250D01*
X0225408Y0109273D01*
X0225677Y0109290D01*
X0225947Y0109300D01*
X0226217Y0109303D01*
X0226487Y0109300D01*
X0226757Y0109290D01*
X0227026Y0109273D01*
X0227295Y0109250D01*
X0227564Y0109220D01*
X0227831Y0109184D01*
X0228098Y0109141D01*
X0228363Y0109092D01*
X0228627Y0109036D01*
X0228890Y0108973D01*
X0229151Y0108905D01*
X0229410Y0108829D01*
X0229667Y0108748D01*
X0229923Y0108660D01*
X0230176Y0108566D01*
X0230427Y0108466D01*
X0230675Y0108359D01*
X0230920Y0108247D01*
X0231163Y0108128D01*
X0231402Y0108004D01*
X0231639Y0107874D01*
X0231872Y0107738D01*
X0232102Y0107596D01*
X0232328Y0107449D01*
X0232551Y0107296D01*
X0232770Y0107138D01*
X0232985Y0106975D01*
X0233195Y0106806D01*
X0233402Y0106632D01*
X0233604Y0106453D01*
X0233802Y0106270D01*
X0233995Y0106081D01*
X0234184Y0105888D01*
X0234367Y0105690D01*
X0234546Y0105488D01*
X0234720Y0105281D01*
X0234889Y0105071D01*
X0235052Y0104856D01*
X0235210Y0104637D01*
X0235363Y0104414D01*
X0235510Y0104188D01*
X0235652Y0103958D01*
X0235788Y0103725D01*
X0235918Y0103488D01*
X0236042Y0103249D01*
X0236161Y0103006D01*
X0236273Y0102761D01*
X0236380Y0102513D01*
X0236480Y0102262D01*
X0236574Y0102009D01*
X0236662Y0101753D01*
X0236743Y0101496D01*
X0236819Y0101237D01*
X0236887Y0100976D01*
X0236950Y0100713D01*
X0237006Y0100449D01*
X0237055Y0100184D01*
X0237098Y0099917D01*
X0237134Y0099650D01*
X0237164Y0099381D01*
X0237187Y0099112D01*
X0237204Y0098843D01*
X0237214Y0098573D01*
X0237217Y0098303D01*
X0237214Y0098033D01*
X0237204Y0097763D01*
X0237187Y0097494D01*
X0237164Y0097225D01*
X0237134Y0096956D01*
X0237098Y0096689D01*
X0237055Y0096422D01*
X0237006Y0096157D01*
X0236950Y0095893D01*
X0236887Y0095630D01*
X0236819Y0095369D01*
X0236743Y0095110D01*
X0236662Y0094853D01*
X0236574Y0094597D01*
X0236480Y0094344D01*
X0236380Y0094093D01*
X0236273Y0093845D01*
X0236161Y0093600D01*
X0236042Y0093357D01*
X0235918Y0093118D01*
X0235788Y0092881D01*
X0235652Y0092648D01*
X0235510Y0092418D01*
X0235363Y0092192D01*
X0235210Y0091969D01*
X0235052Y0091750D01*
X0234889Y0091535D01*
X0234720Y0091325D01*
X0234546Y0091118D01*
X0234367Y0090916D01*
X0234184Y0090718D01*
X0233995Y0090525D01*
X0233802Y0090336D01*
X0233604Y0090153D01*
X0233402Y0089974D01*
X0233195Y0089800D01*
X0232985Y0089631D01*
X0232770Y0089468D01*
X0232551Y0089310D01*
X0232328Y0089157D01*
X0232102Y0089010D01*
X0231872Y0088868D01*
X0231639Y0088732D01*
X0231402Y0088602D01*
X0231163Y0088478D01*
X0230920Y0088359D01*
X0230675Y0088247D01*
X0230427Y0088140D01*
X0230176Y0088040D01*
X0229923Y0087946D01*
X0229667Y0087858D01*
X0229410Y0087777D01*
X0229151Y0087701D01*
X0228890Y0087633D01*
X0228627Y0087570D01*
X0228363Y0087514D01*
X0228098Y0087465D01*
X0227831Y0087422D01*
X0227564Y0087386D01*
X0227295Y0087356D01*
X0227026Y0087333D01*
X0226757Y0087316D01*
X0226487Y0087306D01*
X0226217Y0087303D01*
X0225947Y0087306D01*
X0225677Y0087316D01*
X0225408Y0087333D01*
X0225139Y0087356D01*
X0224870Y0087386D01*
X0224603Y0087422D01*
X0224336Y0087465D01*
X0224071Y0087514D01*
X0223807Y0087570D01*
X0223544Y0087633D01*
X0223283Y0087701D01*
X0223024Y0087777D01*
X0222767Y0087858D01*
X0222511Y0087946D01*
X0222258Y0088040D01*
X0222007Y0088140D01*
X0221759Y0088247D01*
X0221514Y0088359D01*
X0221271Y0088478D01*
X0221032Y0088602D01*
X0220795Y0088732D01*
X0220562Y0088868D01*
X0220332Y0089010D01*
X0220106Y0089157D01*
X0219883Y0089310D01*
X0219664Y0089468D01*
X0219449Y0089631D01*
X0219239Y0089800D01*
X0219032Y0089974D01*
X0218830Y0090153D01*
X0218632Y0090336D01*
X0218439Y0090525D01*
X0218250Y0090718D01*
X0218067Y0090916D01*
X0217888Y0091118D01*
X0217714Y0091325D01*
X0217545Y0091535D01*
X0217382Y0091750D01*
X0217224Y0091969D01*
X0217071Y0092192D01*
X0216924Y0092418D01*
X0216782Y0092648D01*
X0216646Y0092881D01*
X0216516Y0093118D01*
X0216392Y0093357D01*
X0216273Y0093600D01*
X0216161Y0093845D01*
X0216054Y0094093D01*
X0215954Y0094344D01*
X0215860Y0094597D01*
X0215772Y0094853D01*
X0215691Y0095110D01*
X0215615Y0095369D01*
X0215547Y0095630D01*
X0215484Y0095893D01*
X0215428Y0096157D01*
X0215379Y0096422D01*
X0215336Y0096689D01*
X0215300Y0096956D01*
X0215270Y0097225D01*
X0215247Y0097494D01*
X0215230Y0097763D01*
X0215220Y0098033D01*
X0215217Y0098303D01*
X0212717Y0118803D02*
X0204717Y0118803D01*
X0204657Y0118805D01*
X0204596Y0118810D01*
X0204537Y0118819D01*
X0204478Y0118832D01*
X0204419Y0118848D01*
X0204362Y0118868D01*
X0204307Y0118891D01*
X0204252Y0118918D01*
X0204200Y0118947D01*
X0204149Y0118980D01*
X0204100Y0119016D01*
X0204054Y0119054D01*
X0204010Y0119096D01*
X0203968Y0119140D01*
X0203930Y0119186D01*
X0203894Y0119235D01*
X0203861Y0119286D01*
X0203832Y0119338D01*
X0203805Y0119393D01*
X0203782Y0119448D01*
X0203762Y0119505D01*
X0203746Y0119564D01*
X0203733Y0119623D01*
X0203724Y0119682D01*
X0203719Y0119743D01*
X0203717Y0119803D01*
X0203717Y0136803D01*
X0203719Y0136863D01*
X0203724Y0136924D01*
X0203733Y0136983D01*
X0203746Y0137042D01*
X0203762Y0137101D01*
X0203782Y0137158D01*
X0203805Y0137213D01*
X0203832Y0137268D01*
X0203861Y0137320D01*
X0203894Y0137371D01*
X0203930Y0137420D01*
X0203968Y0137466D01*
X0204010Y0137510D01*
X0204054Y0137552D01*
X0204100Y0137590D01*
X0204149Y0137626D01*
X0204200Y0137659D01*
X0204252Y0137688D01*
X0204307Y0137715D01*
X0204362Y0137738D01*
X0204419Y0137758D01*
X0204478Y0137774D01*
X0204537Y0137787D01*
X0204596Y0137796D01*
X0204657Y0137801D01*
X0204717Y0137803D01*
X0212717Y0137803D01*
X0212777Y0137801D01*
X0212838Y0137796D01*
X0212897Y0137787D01*
X0212956Y0137774D01*
X0213015Y0137758D01*
X0213072Y0137738D01*
X0213127Y0137715D01*
X0213182Y0137688D01*
X0213234Y0137659D01*
X0213285Y0137626D01*
X0213334Y0137590D01*
X0213380Y0137552D01*
X0213424Y0137510D01*
X0213466Y0137466D01*
X0213504Y0137420D01*
X0213540Y0137371D01*
X0213573Y0137320D01*
X0213602Y0137268D01*
X0213629Y0137213D01*
X0213652Y0137158D01*
X0213672Y0137101D01*
X0213688Y0137042D01*
X0213701Y0136983D01*
X0213710Y0136924D01*
X0213715Y0136863D01*
X0213717Y0136803D01*
X0213717Y0119803D01*
X0213715Y0119743D01*
X0213710Y0119682D01*
X0213701Y0119623D01*
X0213688Y0119564D01*
X0213672Y0119505D01*
X0213652Y0119448D01*
X0213629Y0119393D01*
X0213602Y0119338D01*
X0213573Y0119286D01*
X0213540Y0119235D01*
X0213504Y0119186D01*
X0213466Y0119140D01*
X0213424Y0119096D01*
X0213380Y0119054D01*
X0213334Y0119016D01*
X0213285Y0118980D01*
X0213234Y0118947D01*
X0213182Y0118918D01*
X0213127Y0118891D01*
X0213072Y0118868D01*
X0213015Y0118848D01*
X0212956Y0118832D01*
X0212897Y0118819D01*
X0212838Y0118810D01*
X0212777Y0118805D01*
X0212717Y0118803D01*
X0208717Y0126803D02*
X0208717Y0127303D01*
X0208717Y0129303D02*
X0208717Y0129803D01*
X0200217Y0126303D02*
X0200217Y0150303D01*
X0200215Y0150463D01*
X0200209Y0150622D01*
X0200199Y0150781D01*
X0200186Y0150940D01*
X0200168Y0151099D01*
X0200147Y0151257D01*
X0200121Y0151414D01*
X0200092Y0151571D01*
X0200059Y0151727D01*
X0200022Y0151882D01*
X0199982Y0152037D01*
X0199937Y0152190D01*
X0199889Y0152342D01*
X0199837Y0152493D01*
X0199781Y0152642D01*
X0199722Y0152790D01*
X0199659Y0152937D01*
X0199593Y0153082D01*
X0199523Y0153225D01*
X0199449Y0153367D01*
X0199373Y0153507D01*
X0199292Y0153645D01*
X0199209Y0153780D01*
X0199122Y0153914D01*
X0199031Y0154046D01*
X0198938Y0154175D01*
X0198841Y0154302D01*
X0198742Y0154427D01*
X0198639Y0154549D01*
X0198533Y0154668D01*
X0198425Y0154785D01*
X0198313Y0154899D01*
X0198199Y0155011D01*
X0198082Y0155119D01*
X0197963Y0155225D01*
X0197841Y0155328D01*
X0197716Y0155427D01*
X0197589Y0155524D01*
X0197460Y0155617D01*
X0197328Y0155708D01*
X0197194Y0155795D01*
X0197059Y0155878D01*
X0196921Y0155959D01*
X0196781Y0156035D01*
X0196639Y0156109D01*
X0196496Y0156179D01*
X0196351Y0156245D01*
X0196204Y0156308D01*
X0196056Y0156367D01*
X0195907Y0156423D01*
X0195756Y0156475D01*
X0195604Y0156523D01*
X0195451Y0156568D01*
X0195296Y0156608D01*
X0195141Y0156645D01*
X0194985Y0156678D01*
X0194828Y0156707D01*
X0194671Y0156733D01*
X0194513Y0156754D01*
X0194354Y0156772D01*
X0194195Y0156785D01*
X0194036Y0156795D01*
X0193877Y0156801D01*
X0193717Y0156803D01*
X0193557Y0156801D01*
X0193398Y0156795D01*
X0193239Y0156785D01*
X0193080Y0156772D01*
X0192921Y0156754D01*
X0192763Y0156733D01*
X0192606Y0156707D01*
X0192449Y0156678D01*
X0192293Y0156645D01*
X0192138Y0156608D01*
X0191983Y0156568D01*
X0191830Y0156523D01*
X0191678Y0156475D01*
X0191527Y0156423D01*
X0191378Y0156367D01*
X0191230Y0156308D01*
X0191083Y0156245D01*
X0190938Y0156179D01*
X0190795Y0156109D01*
X0190653Y0156035D01*
X0190513Y0155959D01*
X0190375Y0155878D01*
X0190240Y0155795D01*
X0190106Y0155708D01*
X0189974Y0155617D01*
X0189845Y0155524D01*
X0189718Y0155427D01*
X0189593Y0155328D01*
X0189471Y0155225D01*
X0189352Y0155119D01*
X0189235Y0155011D01*
X0189121Y0154899D01*
X0189009Y0154785D01*
X0188901Y0154668D01*
X0188795Y0154549D01*
X0188692Y0154427D01*
X0188593Y0154302D01*
X0188496Y0154175D01*
X0188403Y0154046D01*
X0188312Y0153914D01*
X0188225Y0153780D01*
X0188142Y0153645D01*
X0188061Y0153507D01*
X0187985Y0153367D01*
X0187911Y0153225D01*
X0187841Y0153082D01*
X0187775Y0152937D01*
X0187712Y0152790D01*
X0187653Y0152642D01*
X0187597Y0152493D01*
X0187545Y0152342D01*
X0187497Y0152190D01*
X0187452Y0152037D01*
X0187412Y0151882D01*
X0187375Y0151727D01*
X0187342Y0151571D01*
X0187313Y0151414D01*
X0187287Y0151257D01*
X0187266Y0151099D01*
X0187248Y0150940D01*
X0187235Y0150781D01*
X0187225Y0150622D01*
X0187219Y0150463D01*
X0187217Y0150303D01*
X0187217Y0126303D01*
X0187219Y0126143D01*
X0187225Y0125984D01*
X0187235Y0125825D01*
X0187248Y0125666D01*
X0187266Y0125507D01*
X0187287Y0125349D01*
X0187313Y0125192D01*
X0187342Y0125035D01*
X0187375Y0124879D01*
X0187412Y0124724D01*
X0187452Y0124569D01*
X0187497Y0124416D01*
X0187545Y0124264D01*
X0187597Y0124113D01*
X0187653Y0123964D01*
X0187712Y0123816D01*
X0187775Y0123669D01*
X0187841Y0123524D01*
X0187911Y0123381D01*
X0187985Y0123239D01*
X0188061Y0123099D01*
X0188142Y0122961D01*
X0188225Y0122826D01*
X0188312Y0122692D01*
X0188403Y0122560D01*
X0188496Y0122431D01*
X0188593Y0122304D01*
X0188692Y0122179D01*
X0188795Y0122057D01*
X0188901Y0121938D01*
X0189009Y0121821D01*
X0189121Y0121707D01*
X0189235Y0121595D01*
X0189352Y0121487D01*
X0189471Y0121381D01*
X0189593Y0121278D01*
X0189718Y0121179D01*
X0189845Y0121082D01*
X0189974Y0120989D01*
X0190106Y0120898D01*
X0190240Y0120811D01*
X0190375Y0120728D01*
X0190513Y0120647D01*
X0190653Y0120571D01*
X0190795Y0120497D01*
X0190938Y0120427D01*
X0191083Y0120361D01*
X0191230Y0120298D01*
X0191378Y0120239D01*
X0191527Y0120183D01*
X0191678Y0120131D01*
X0191830Y0120083D01*
X0191983Y0120038D01*
X0192138Y0119998D01*
X0192293Y0119961D01*
X0192449Y0119928D01*
X0192606Y0119899D01*
X0192763Y0119873D01*
X0192921Y0119852D01*
X0193080Y0119834D01*
X0193239Y0119821D01*
X0193398Y0119811D01*
X0193557Y0119805D01*
X0193717Y0119803D01*
X0193877Y0119805D01*
X0194036Y0119811D01*
X0194195Y0119821D01*
X0194354Y0119834D01*
X0194513Y0119852D01*
X0194671Y0119873D01*
X0194828Y0119899D01*
X0194985Y0119928D01*
X0195141Y0119961D01*
X0195296Y0119998D01*
X0195451Y0120038D01*
X0195604Y0120083D01*
X0195756Y0120131D01*
X0195907Y0120183D01*
X0196056Y0120239D01*
X0196204Y0120298D01*
X0196351Y0120361D01*
X0196496Y0120427D01*
X0196639Y0120497D01*
X0196781Y0120571D01*
X0196921Y0120647D01*
X0197059Y0120728D01*
X0197194Y0120811D01*
X0197328Y0120898D01*
X0197460Y0120989D01*
X0197589Y0121082D01*
X0197716Y0121179D01*
X0197841Y0121278D01*
X0197963Y0121381D01*
X0198082Y0121487D01*
X0198199Y0121595D01*
X0198313Y0121707D01*
X0198425Y0121821D01*
X0198533Y0121938D01*
X0198639Y0122057D01*
X0198742Y0122179D01*
X0198841Y0122304D01*
X0198938Y0122431D01*
X0199031Y0122560D01*
X0199122Y0122692D01*
X0199209Y0122826D01*
X0199292Y0122961D01*
X0199373Y0123099D01*
X0199449Y0123239D01*
X0199523Y0123381D01*
X0199593Y0123524D01*
X0199659Y0123669D01*
X0199722Y0123816D01*
X0199781Y0123964D01*
X0199837Y0124113D01*
X0199889Y0124264D01*
X0199937Y0124416D01*
X0199982Y0124569D01*
X0200022Y0124724D01*
X0200059Y0124879D01*
X0200092Y0125035D01*
X0200121Y0125192D01*
X0200147Y0125349D01*
X0200168Y0125507D01*
X0200186Y0125666D01*
X0200199Y0125825D01*
X0200209Y0125984D01*
X0200215Y0126143D01*
X0200217Y0126303D01*
X0193717Y0133303D02*
X0193717Y0135803D01*
X0196717Y0135803D01*
X0196717Y0137303D02*
X0190717Y0137303D01*
X0190717Y0139303D01*
X0196717Y0139303D01*
X0196717Y0137303D01*
X0193717Y0135803D02*
X0190717Y0135803D01*
X0190717Y0140803D02*
X0193717Y0140803D01*
X0193717Y0143303D01*
X0193717Y0140803D02*
X0196717Y0140803D01*
X0203717Y0139803D02*
X0203717Y0156803D01*
X0203719Y0156863D01*
X0203724Y0156924D01*
X0203733Y0156983D01*
X0203746Y0157042D01*
X0203762Y0157101D01*
X0203782Y0157158D01*
X0203805Y0157213D01*
X0203832Y0157268D01*
X0203861Y0157320D01*
X0203894Y0157371D01*
X0203930Y0157420D01*
X0203968Y0157466D01*
X0204010Y0157510D01*
X0204054Y0157552D01*
X0204100Y0157590D01*
X0204149Y0157626D01*
X0204200Y0157659D01*
X0204252Y0157688D01*
X0204307Y0157715D01*
X0204362Y0157738D01*
X0204419Y0157758D01*
X0204478Y0157774D01*
X0204537Y0157787D01*
X0204596Y0157796D01*
X0204657Y0157801D01*
X0204717Y0157803D01*
X0212717Y0157803D01*
X0212777Y0157801D01*
X0212838Y0157796D01*
X0212897Y0157787D01*
X0212956Y0157774D01*
X0213015Y0157758D01*
X0213072Y0157738D01*
X0213127Y0157715D01*
X0213182Y0157688D01*
X0213234Y0157659D01*
X0213285Y0157626D01*
X0213334Y0157590D01*
X0213380Y0157552D01*
X0213424Y0157510D01*
X0213466Y0157466D01*
X0213504Y0157420D01*
X0213540Y0157371D01*
X0213573Y0157320D01*
X0213602Y0157268D01*
X0213629Y0157213D01*
X0213652Y0157158D01*
X0213672Y0157101D01*
X0213688Y0157042D01*
X0213701Y0156983D01*
X0213710Y0156924D01*
X0213715Y0156863D01*
X0213717Y0156803D01*
X0213717Y0139803D01*
X0213715Y0139743D01*
X0213710Y0139682D01*
X0213701Y0139623D01*
X0213688Y0139564D01*
X0213672Y0139505D01*
X0213652Y0139448D01*
X0213629Y0139393D01*
X0213602Y0139338D01*
X0213573Y0139286D01*
X0213540Y0139235D01*
X0213504Y0139186D01*
X0213466Y0139140D01*
X0213424Y0139096D01*
X0213380Y0139054D01*
X0213334Y0139016D01*
X0213285Y0138980D01*
X0213234Y0138947D01*
X0213182Y0138918D01*
X0213127Y0138891D01*
X0213072Y0138868D01*
X0213015Y0138848D01*
X0212956Y0138832D01*
X0212897Y0138819D01*
X0212838Y0138810D01*
X0212777Y0138805D01*
X0212717Y0138803D01*
X0204717Y0138803D01*
X0204657Y0138805D01*
X0204596Y0138810D01*
X0204537Y0138819D01*
X0204478Y0138832D01*
X0204419Y0138848D01*
X0204362Y0138868D01*
X0204307Y0138891D01*
X0204252Y0138918D01*
X0204200Y0138947D01*
X0204149Y0138980D01*
X0204100Y0139016D01*
X0204054Y0139054D01*
X0204010Y0139096D01*
X0203968Y0139140D01*
X0203930Y0139186D01*
X0203894Y0139235D01*
X0203861Y0139286D01*
X0203832Y0139338D01*
X0203805Y0139393D01*
X0203782Y0139448D01*
X0203762Y0139505D01*
X0203746Y0139564D01*
X0203733Y0139623D01*
X0203724Y0139682D01*
X0203719Y0139743D01*
X0203717Y0139803D01*
X0208717Y0146803D02*
X0208717Y0147303D01*
X0208717Y0149303D02*
X0208717Y0149803D01*
X0181217Y0143303D02*
X0181217Y0133303D01*
X0091217Y0133303D01*
X0091217Y0143303D01*
X0091217Y0149303D01*
X0091343Y0149305D01*
X0091468Y0149311D01*
X0091593Y0149321D01*
X0091718Y0149335D01*
X0091843Y0149352D01*
X0091967Y0149374D01*
X0092090Y0149399D01*
X0092212Y0149429D01*
X0092333Y0149462D01*
X0092453Y0149499D01*
X0092572Y0149539D01*
X0092689Y0149584D01*
X0092806Y0149632D01*
X0092920Y0149684D01*
X0093033Y0149739D01*
X0093144Y0149798D01*
X0093253Y0149860D01*
X0093360Y0149926D01*
X0093465Y0149995D01*
X0093568Y0150067D01*
X0093669Y0150142D01*
X0093767Y0150221D01*
X0093862Y0150303D01*
X0093955Y0150387D01*
X0094045Y0150475D01*
X0094133Y0150565D01*
X0094217Y0150658D01*
X0094299Y0150753D01*
X0094378Y0150851D01*
X0094453Y0150952D01*
X0094525Y0151055D01*
X0094594Y0151160D01*
X0094660Y0151267D01*
X0094722Y0151376D01*
X0094781Y0151487D01*
X0094836Y0151600D01*
X0094888Y0151714D01*
X0094936Y0151831D01*
X0094981Y0151948D01*
X0095021Y0152067D01*
X0095058Y0152187D01*
X0095091Y0152308D01*
X0095121Y0152430D01*
X0095146Y0152553D01*
X0095168Y0152677D01*
X0095185Y0152802D01*
X0095199Y0152927D01*
X0095209Y0153052D01*
X0095215Y0153177D01*
X0095217Y0153303D01*
X0095215Y0153429D01*
X0095209Y0153554D01*
X0095199Y0153679D01*
X0095185Y0153804D01*
X0095168Y0153929D01*
X0095146Y0154053D01*
X0095121Y0154176D01*
X0095091Y0154298D01*
X0095058Y0154419D01*
X0095021Y0154539D01*
X0094981Y0154658D01*
X0094936Y0154775D01*
X0094888Y0154892D01*
X0094836Y0155006D01*
X0094781Y0155119D01*
X0094722Y0155230D01*
X0094660Y0155339D01*
X0094594Y0155446D01*
X0094525Y0155551D01*
X0094453Y0155654D01*
X0094378Y0155755D01*
X0094299Y0155853D01*
X0094217Y0155948D01*
X0094133Y0156041D01*
X0094045Y0156131D01*
X0093955Y0156219D01*
X0093862Y0156303D01*
X0093767Y0156385D01*
X0093669Y0156464D01*
X0093568Y0156539D01*
X0093465Y0156611D01*
X0093360Y0156680D01*
X0093253Y0156746D01*
X0093144Y0156808D01*
X0093033Y0156867D01*
X0092920Y0156922D01*
X0092806Y0156974D01*
X0092689Y0157022D01*
X0092572Y0157067D01*
X0092453Y0157107D01*
X0092333Y0157144D01*
X0092212Y0157177D01*
X0092090Y0157207D01*
X0091967Y0157232D01*
X0091843Y0157254D01*
X0091718Y0157271D01*
X0091593Y0157285D01*
X0091468Y0157295D01*
X0091343Y0157301D01*
X0091217Y0157303D01*
X0091217Y0163303D01*
X0181217Y0163303D01*
X0181217Y0143303D01*
X0091217Y0143303D01*
X0090217Y0143803D02*
X0082217Y0143803D01*
X0082157Y0143805D01*
X0082096Y0143810D01*
X0082037Y0143819D01*
X0081978Y0143832D01*
X0081919Y0143848D01*
X0081862Y0143868D01*
X0081807Y0143891D01*
X0081752Y0143918D01*
X0081700Y0143947D01*
X0081649Y0143980D01*
X0081600Y0144016D01*
X0081554Y0144054D01*
X0081510Y0144096D01*
X0081468Y0144140D01*
X0081430Y0144186D01*
X0081394Y0144235D01*
X0081361Y0144286D01*
X0081332Y0144338D01*
X0081305Y0144393D01*
X0081282Y0144448D01*
X0081262Y0144505D01*
X0081246Y0144564D01*
X0081233Y0144623D01*
X0081224Y0144682D01*
X0081219Y0144743D01*
X0081217Y0144803D01*
X0081217Y0161803D01*
X0081219Y0161863D01*
X0081224Y0161924D01*
X0081233Y0161983D01*
X0081246Y0162042D01*
X0081262Y0162101D01*
X0081282Y0162158D01*
X0081305Y0162213D01*
X0081332Y0162268D01*
X0081361Y0162320D01*
X0081394Y0162371D01*
X0081430Y0162420D01*
X0081468Y0162466D01*
X0081510Y0162510D01*
X0081554Y0162552D01*
X0081600Y0162590D01*
X0081649Y0162626D01*
X0081700Y0162659D01*
X0081752Y0162688D01*
X0081807Y0162715D01*
X0081862Y0162738D01*
X0081919Y0162758D01*
X0081978Y0162774D01*
X0082037Y0162787D01*
X0082096Y0162796D01*
X0082157Y0162801D01*
X0082217Y0162803D01*
X0090217Y0162803D01*
X0090277Y0162801D01*
X0090338Y0162796D01*
X0090397Y0162787D01*
X0090456Y0162774D01*
X0090515Y0162758D01*
X0090572Y0162738D01*
X0090627Y0162715D01*
X0090682Y0162688D01*
X0090734Y0162659D01*
X0090785Y0162626D01*
X0090834Y0162590D01*
X0090880Y0162552D01*
X0090924Y0162510D01*
X0090966Y0162466D01*
X0091004Y0162420D01*
X0091040Y0162371D01*
X0091073Y0162320D01*
X0091102Y0162268D01*
X0091129Y0162213D01*
X0091152Y0162158D01*
X0091172Y0162101D01*
X0091188Y0162042D01*
X0091201Y0161983D01*
X0091210Y0161924D01*
X0091215Y0161863D01*
X0091217Y0161803D01*
X0091217Y0144803D01*
X0091215Y0144743D01*
X0091210Y0144682D01*
X0091201Y0144623D01*
X0091188Y0144564D01*
X0091172Y0144505D01*
X0091152Y0144448D01*
X0091129Y0144393D01*
X0091102Y0144338D01*
X0091073Y0144286D01*
X0091040Y0144235D01*
X0091004Y0144186D01*
X0090966Y0144140D01*
X0090924Y0144096D01*
X0090880Y0144054D01*
X0090834Y0144016D01*
X0090785Y0143980D01*
X0090734Y0143947D01*
X0090682Y0143918D01*
X0090627Y0143891D01*
X0090572Y0143868D01*
X0090515Y0143848D01*
X0090456Y0143832D01*
X0090397Y0143819D01*
X0090338Y0143810D01*
X0090277Y0143805D01*
X0090217Y0143803D01*
X0086217Y0151803D02*
X0086217Y0152303D01*
X0086217Y0154303D02*
X0086217Y0154803D01*
X0091217Y0163303D02*
X0091217Y0173303D01*
X0181217Y0173303D01*
X0181217Y0163303D01*
X0191217Y0193303D02*
X0191217Y0203303D01*
X0191217Y0209303D01*
X0191343Y0209305D01*
X0191468Y0209311D01*
X0191593Y0209321D01*
X0191718Y0209335D01*
X0191843Y0209352D01*
X0191967Y0209374D01*
X0192090Y0209399D01*
X0192212Y0209429D01*
X0192333Y0209462D01*
X0192453Y0209499D01*
X0192572Y0209539D01*
X0192689Y0209584D01*
X0192806Y0209632D01*
X0192920Y0209684D01*
X0193033Y0209739D01*
X0193144Y0209798D01*
X0193253Y0209860D01*
X0193360Y0209926D01*
X0193465Y0209995D01*
X0193568Y0210067D01*
X0193669Y0210142D01*
X0193767Y0210221D01*
X0193862Y0210303D01*
X0193955Y0210387D01*
X0194045Y0210475D01*
X0194133Y0210565D01*
X0194217Y0210658D01*
X0194299Y0210753D01*
X0194378Y0210851D01*
X0194453Y0210952D01*
X0194525Y0211055D01*
X0194594Y0211160D01*
X0194660Y0211267D01*
X0194722Y0211376D01*
X0194781Y0211487D01*
X0194836Y0211600D01*
X0194888Y0211714D01*
X0194936Y0211831D01*
X0194981Y0211948D01*
X0195021Y0212067D01*
X0195058Y0212187D01*
X0195091Y0212308D01*
X0195121Y0212430D01*
X0195146Y0212553D01*
X0195168Y0212677D01*
X0195185Y0212802D01*
X0195199Y0212927D01*
X0195209Y0213052D01*
X0195215Y0213177D01*
X0195217Y0213303D01*
X0195215Y0213429D01*
X0195209Y0213554D01*
X0195199Y0213679D01*
X0195185Y0213804D01*
X0195168Y0213929D01*
X0195146Y0214053D01*
X0195121Y0214176D01*
X0195091Y0214298D01*
X0195058Y0214419D01*
X0195021Y0214539D01*
X0194981Y0214658D01*
X0194936Y0214775D01*
X0194888Y0214892D01*
X0194836Y0215006D01*
X0194781Y0215119D01*
X0194722Y0215230D01*
X0194660Y0215339D01*
X0194594Y0215446D01*
X0194525Y0215551D01*
X0194453Y0215654D01*
X0194378Y0215755D01*
X0194299Y0215853D01*
X0194217Y0215948D01*
X0194133Y0216041D01*
X0194045Y0216131D01*
X0193955Y0216219D01*
X0193862Y0216303D01*
X0193767Y0216385D01*
X0193669Y0216464D01*
X0193568Y0216539D01*
X0193465Y0216611D01*
X0193360Y0216680D01*
X0193253Y0216746D01*
X0193144Y0216808D01*
X0193033Y0216867D01*
X0192920Y0216922D01*
X0192806Y0216974D01*
X0192689Y0217022D01*
X0192572Y0217067D01*
X0192453Y0217107D01*
X0192333Y0217144D01*
X0192212Y0217177D01*
X0192090Y0217207D01*
X0191967Y0217232D01*
X0191843Y0217254D01*
X0191718Y0217271D01*
X0191593Y0217285D01*
X0191468Y0217295D01*
X0191343Y0217301D01*
X0191217Y0217303D01*
X0191217Y0223303D01*
X0281217Y0223303D01*
X0281217Y0203303D01*
X0281217Y0193303D01*
X0191217Y0193303D01*
X0191217Y0203303D02*
X0281217Y0203303D01*
X0296717Y0206803D02*
X0296717Y0208303D01*
X0297217Y0208803D01*
X0297217Y0227803D01*
X0296717Y0228303D01*
X0296717Y0229803D01*
X0296719Y0229863D01*
X0296724Y0229924D01*
X0296733Y0229983D01*
X0296746Y0230042D01*
X0296762Y0230101D01*
X0296782Y0230158D01*
X0296805Y0230213D01*
X0296832Y0230268D01*
X0296861Y0230320D01*
X0296894Y0230371D01*
X0296930Y0230420D01*
X0296968Y0230466D01*
X0297010Y0230510D01*
X0297054Y0230552D01*
X0297100Y0230590D01*
X0297149Y0230626D01*
X0297200Y0230659D01*
X0297252Y0230688D01*
X0297307Y0230715D01*
X0297362Y0230738D01*
X0297419Y0230758D01*
X0297478Y0230774D01*
X0297537Y0230787D01*
X0297596Y0230796D01*
X0297657Y0230801D01*
X0297717Y0230803D01*
X0304717Y0230803D01*
X0304777Y0230801D01*
X0304838Y0230796D01*
X0304897Y0230787D01*
X0304956Y0230774D01*
X0305015Y0230758D01*
X0305072Y0230738D01*
X0305127Y0230715D01*
X0305182Y0230688D01*
X0305234Y0230659D01*
X0305285Y0230626D01*
X0305334Y0230590D01*
X0305380Y0230552D01*
X0305424Y0230510D01*
X0305466Y0230466D01*
X0305504Y0230420D01*
X0305540Y0230371D01*
X0305573Y0230320D01*
X0305602Y0230268D01*
X0305629Y0230213D01*
X0305652Y0230158D01*
X0305672Y0230101D01*
X0305688Y0230042D01*
X0305701Y0229983D01*
X0305710Y0229924D01*
X0305715Y0229863D01*
X0305717Y0229803D01*
X0305717Y0228303D01*
X0305217Y0227803D01*
X0305217Y0208803D01*
X0305717Y0208303D01*
X0305717Y0206803D01*
X0306717Y0206803D02*
X0306717Y0208303D01*
X0307217Y0208803D01*
X0307217Y0227803D01*
X0306717Y0228303D01*
X0306717Y0229803D01*
X0306719Y0229863D01*
X0306724Y0229924D01*
X0306733Y0229983D01*
X0306746Y0230042D01*
X0306762Y0230101D01*
X0306782Y0230158D01*
X0306805Y0230213D01*
X0306832Y0230268D01*
X0306861Y0230320D01*
X0306894Y0230371D01*
X0306930Y0230420D01*
X0306968Y0230466D01*
X0307010Y0230510D01*
X0307054Y0230552D01*
X0307100Y0230590D01*
X0307149Y0230626D01*
X0307200Y0230659D01*
X0307252Y0230688D01*
X0307307Y0230715D01*
X0307362Y0230738D01*
X0307419Y0230758D01*
X0307478Y0230774D01*
X0307537Y0230787D01*
X0307596Y0230796D01*
X0307657Y0230801D01*
X0307717Y0230803D01*
X0314717Y0230803D01*
X0314777Y0230801D01*
X0314838Y0230796D01*
X0314897Y0230787D01*
X0314956Y0230774D01*
X0315015Y0230758D01*
X0315072Y0230738D01*
X0315127Y0230715D01*
X0315182Y0230688D01*
X0315234Y0230659D01*
X0315285Y0230626D01*
X0315334Y0230590D01*
X0315380Y0230552D01*
X0315424Y0230510D01*
X0315466Y0230466D01*
X0315504Y0230420D01*
X0315540Y0230371D01*
X0315573Y0230320D01*
X0315602Y0230268D01*
X0315629Y0230213D01*
X0315652Y0230158D01*
X0315672Y0230101D01*
X0315688Y0230042D01*
X0315701Y0229983D01*
X0315710Y0229924D01*
X0315715Y0229863D01*
X0315717Y0229803D01*
X0315717Y0228303D01*
X0315217Y0227803D01*
X0315217Y0208803D01*
X0315717Y0208303D01*
X0315717Y0206803D01*
X0316717Y0206803D02*
X0316717Y0208303D01*
X0317217Y0208803D01*
X0317217Y0227803D01*
X0316717Y0228303D01*
X0316717Y0229803D01*
X0316719Y0229863D01*
X0316724Y0229924D01*
X0316733Y0229983D01*
X0316746Y0230042D01*
X0316762Y0230101D01*
X0316782Y0230158D01*
X0316805Y0230213D01*
X0316832Y0230268D01*
X0316861Y0230320D01*
X0316894Y0230371D01*
X0316930Y0230420D01*
X0316968Y0230466D01*
X0317010Y0230510D01*
X0317054Y0230552D01*
X0317100Y0230590D01*
X0317149Y0230626D01*
X0317200Y0230659D01*
X0317252Y0230688D01*
X0317307Y0230715D01*
X0317362Y0230738D01*
X0317419Y0230758D01*
X0317478Y0230774D01*
X0317537Y0230787D01*
X0317596Y0230796D01*
X0317657Y0230801D01*
X0317717Y0230803D01*
X0324717Y0230803D01*
X0324777Y0230801D01*
X0324838Y0230796D01*
X0324897Y0230787D01*
X0324956Y0230774D01*
X0325015Y0230758D01*
X0325072Y0230738D01*
X0325127Y0230715D01*
X0325182Y0230688D01*
X0325234Y0230659D01*
X0325285Y0230626D01*
X0325334Y0230590D01*
X0325380Y0230552D01*
X0325424Y0230510D01*
X0325466Y0230466D01*
X0325504Y0230420D01*
X0325540Y0230371D01*
X0325573Y0230320D01*
X0325602Y0230268D01*
X0325629Y0230213D01*
X0325652Y0230158D01*
X0325672Y0230101D01*
X0325688Y0230042D01*
X0325701Y0229983D01*
X0325710Y0229924D01*
X0325715Y0229863D01*
X0325717Y0229803D01*
X0325717Y0228303D01*
X0325217Y0227803D01*
X0325217Y0208803D01*
X0325717Y0208303D01*
X0325717Y0206803D01*
X0326717Y0206803D02*
X0326717Y0208303D01*
X0327217Y0208803D01*
X0327217Y0227803D01*
X0326717Y0228303D01*
X0326717Y0229803D01*
X0326719Y0229863D01*
X0326724Y0229924D01*
X0326733Y0229983D01*
X0326746Y0230042D01*
X0326762Y0230101D01*
X0326782Y0230158D01*
X0326805Y0230213D01*
X0326832Y0230268D01*
X0326861Y0230320D01*
X0326894Y0230371D01*
X0326930Y0230420D01*
X0326968Y0230466D01*
X0327010Y0230510D01*
X0327054Y0230552D01*
X0327100Y0230590D01*
X0327149Y0230626D01*
X0327200Y0230659D01*
X0327252Y0230688D01*
X0327307Y0230715D01*
X0327362Y0230738D01*
X0327419Y0230758D01*
X0327478Y0230774D01*
X0327537Y0230787D01*
X0327596Y0230796D01*
X0327657Y0230801D01*
X0327717Y0230803D01*
X0334717Y0230803D01*
X0334777Y0230801D01*
X0334838Y0230796D01*
X0334897Y0230787D01*
X0334956Y0230774D01*
X0335015Y0230758D01*
X0335072Y0230738D01*
X0335127Y0230715D01*
X0335182Y0230688D01*
X0335234Y0230659D01*
X0335285Y0230626D01*
X0335334Y0230590D01*
X0335380Y0230552D01*
X0335424Y0230510D01*
X0335466Y0230466D01*
X0335504Y0230420D01*
X0335540Y0230371D01*
X0335573Y0230320D01*
X0335602Y0230268D01*
X0335629Y0230213D01*
X0335652Y0230158D01*
X0335672Y0230101D01*
X0335688Y0230042D01*
X0335701Y0229983D01*
X0335710Y0229924D01*
X0335715Y0229863D01*
X0335717Y0229803D01*
X0335717Y0228303D01*
X0335217Y0227803D01*
X0335217Y0208803D01*
X0335717Y0208303D01*
X0335717Y0206803D01*
X0335715Y0206743D01*
X0335710Y0206682D01*
X0335701Y0206623D01*
X0335688Y0206564D01*
X0335672Y0206505D01*
X0335652Y0206448D01*
X0335629Y0206393D01*
X0335602Y0206338D01*
X0335573Y0206286D01*
X0335540Y0206235D01*
X0335504Y0206186D01*
X0335466Y0206140D01*
X0335424Y0206096D01*
X0335380Y0206054D01*
X0335334Y0206016D01*
X0335285Y0205980D01*
X0335234Y0205947D01*
X0335182Y0205918D01*
X0335127Y0205891D01*
X0335072Y0205868D01*
X0335015Y0205848D01*
X0334956Y0205832D01*
X0334897Y0205819D01*
X0334838Y0205810D01*
X0334777Y0205805D01*
X0334717Y0205803D01*
X0327717Y0205803D01*
X0327657Y0205805D01*
X0327596Y0205810D01*
X0327537Y0205819D01*
X0327478Y0205832D01*
X0327419Y0205848D01*
X0327362Y0205868D01*
X0327307Y0205891D01*
X0327252Y0205918D01*
X0327200Y0205947D01*
X0327149Y0205980D01*
X0327100Y0206016D01*
X0327054Y0206054D01*
X0327010Y0206096D01*
X0326968Y0206140D01*
X0326930Y0206186D01*
X0326894Y0206235D01*
X0326861Y0206286D01*
X0326832Y0206338D01*
X0326805Y0206393D01*
X0326782Y0206448D01*
X0326762Y0206505D01*
X0326746Y0206564D01*
X0326733Y0206623D01*
X0326724Y0206682D01*
X0326719Y0206743D01*
X0326717Y0206803D01*
X0325717Y0206803D02*
X0325715Y0206743D01*
X0325710Y0206682D01*
X0325701Y0206623D01*
X0325688Y0206564D01*
X0325672Y0206505D01*
X0325652Y0206448D01*
X0325629Y0206393D01*
X0325602Y0206338D01*
X0325573Y0206286D01*
X0325540Y0206235D01*
X0325504Y0206186D01*
X0325466Y0206140D01*
X0325424Y0206096D01*
X0325380Y0206054D01*
X0325334Y0206016D01*
X0325285Y0205980D01*
X0325234Y0205947D01*
X0325182Y0205918D01*
X0325127Y0205891D01*
X0325072Y0205868D01*
X0325015Y0205848D01*
X0324956Y0205832D01*
X0324897Y0205819D01*
X0324838Y0205810D01*
X0324777Y0205805D01*
X0324717Y0205803D01*
X0317717Y0205803D01*
X0317657Y0205805D01*
X0317596Y0205810D01*
X0317537Y0205819D01*
X0317478Y0205832D01*
X0317419Y0205848D01*
X0317362Y0205868D01*
X0317307Y0205891D01*
X0317252Y0205918D01*
X0317200Y0205947D01*
X0317149Y0205980D01*
X0317100Y0206016D01*
X0317054Y0206054D01*
X0317010Y0206096D01*
X0316968Y0206140D01*
X0316930Y0206186D01*
X0316894Y0206235D01*
X0316861Y0206286D01*
X0316832Y0206338D01*
X0316805Y0206393D01*
X0316782Y0206448D01*
X0316762Y0206505D01*
X0316746Y0206564D01*
X0316733Y0206623D01*
X0316724Y0206682D01*
X0316719Y0206743D01*
X0316717Y0206803D01*
X0315717Y0206803D02*
X0315715Y0206743D01*
X0315710Y0206682D01*
X0315701Y0206623D01*
X0315688Y0206564D01*
X0315672Y0206505D01*
X0315652Y0206448D01*
X0315629Y0206393D01*
X0315602Y0206338D01*
X0315573Y0206286D01*
X0315540Y0206235D01*
X0315504Y0206186D01*
X0315466Y0206140D01*
X0315424Y0206096D01*
X0315380Y0206054D01*
X0315334Y0206016D01*
X0315285Y0205980D01*
X0315234Y0205947D01*
X0315182Y0205918D01*
X0315127Y0205891D01*
X0315072Y0205868D01*
X0315015Y0205848D01*
X0314956Y0205832D01*
X0314897Y0205819D01*
X0314838Y0205810D01*
X0314777Y0205805D01*
X0314717Y0205803D01*
X0307717Y0205803D01*
X0307657Y0205805D01*
X0307596Y0205810D01*
X0307537Y0205819D01*
X0307478Y0205832D01*
X0307419Y0205848D01*
X0307362Y0205868D01*
X0307307Y0205891D01*
X0307252Y0205918D01*
X0307200Y0205947D01*
X0307149Y0205980D01*
X0307100Y0206016D01*
X0307054Y0206054D01*
X0307010Y0206096D01*
X0306968Y0206140D01*
X0306930Y0206186D01*
X0306894Y0206235D01*
X0306861Y0206286D01*
X0306832Y0206338D01*
X0306805Y0206393D01*
X0306782Y0206448D01*
X0306762Y0206505D01*
X0306746Y0206564D01*
X0306733Y0206623D01*
X0306724Y0206682D01*
X0306719Y0206743D01*
X0306717Y0206803D01*
X0305717Y0206803D02*
X0305715Y0206743D01*
X0305710Y0206682D01*
X0305701Y0206623D01*
X0305688Y0206564D01*
X0305672Y0206505D01*
X0305652Y0206448D01*
X0305629Y0206393D01*
X0305602Y0206338D01*
X0305573Y0206286D01*
X0305540Y0206235D01*
X0305504Y0206186D01*
X0305466Y0206140D01*
X0305424Y0206096D01*
X0305380Y0206054D01*
X0305334Y0206016D01*
X0305285Y0205980D01*
X0305234Y0205947D01*
X0305182Y0205918D01*
X0305127Y0205891D01*
X0305072Y0205868D01*
X0305015Y0205848D01*
X0304956Y0205832D01*
X0304897Y0205819D01*
X0304838Y0205810D01*
X0304777Y0205805D01*
X0304717Y0205803D01*
X0297717Y0205803D01*
X0297657Y0205805D01*
X0297596Y0205810D01*
X0297537Y0205819D01*
X0297478Y0205832D01*
X0297419Y0205848D01*
X0297362Y0205868D01*
X0297307Y0205891D01*
X0297252Y0205918D01*
X0297200Y0205947D01*
X0297149Y0205980D01*
X0297100Y0206016D01*
X0297054Y0206054D01*
X0297010Y0206096D01*
X0296968Y0206140D01*
X0296930Y0206186D01*
X0296894Y0206235D01*
X0296861Y0206286D01*
X0296832Y0206338D01*
X0296805Y0206393D01*
X0296782Y0206448D01*
X0296762Y0206505D01*
X0296746Y0206564D01*
X0296733Y0206623D01*
X0296724Y0206682D01*
X0296719Y0206743D01*
X0296717Y0206803D01*
X0281217Y0223303D02*
X0281217Y0233303D01*
X0191217Y0233303D01*
X0191217Y0223303D01*
X0181217Y0224803D02*
X0181217Y0217303D01*
X0181091Y0217301D01*
X0180966Y0217295D01*
X0180841Y0217285D01*
X0180716Y0217271D01*
X0180591Y0217254D01*
X0180467Y0217232D01*
X0180344Y0217207D01*
X0180222Y0217177D01*
X0180101Y0217144D01*
X0179981Y0217107D01*
X0179862Y0217067D01*
X0179745Y0217022D01*
X0179628Y0216974D01*
X0179514Y0216922D01*
X0179401Y0216867D01*
X0179290Y0216808D01*
X0179181Y0216746D01*
X0179074Y0216680D01*
X0178969Y0216611D01*
X0178866Y0216539D01*
X0178765Y0216464D01*
X0178667Y0216385D01*
X0178572Y0216303D01*
X0178479Y0216219D01*
X0178389Y0216131D01*
X0178301Y0216041D01*
X0178217Y0215948D01*
X0178135Y0215853D01*
X0178056Y0215755D01*
X0177981Y0215654D01*
X0177909Y0215551D01*
X0177840Y0215446D01*
X0177774Y0215339D01*
X0177712Y0215230D01*
X0177653Y0215119D01*
X0177598Y0215006D01*
X0177546Y0214892D01*
X0177498Y0214775D01*
X0177453Y0214658D01*
X0177413Y0214539D01*
X0177376Y0214419D01*
X0177343Y0214298D01*
X0177313Y0214176D01*
X0177288Y0214053D01*
X0177266Y0213929D01*
X0177249Y0213804D01*
X0177235Y0213679D01*
X0177225Y0213554D01*
X0177219Y0213429D01*
X0177217Y0213303D01*
X0177219Y0213177D01*
X0177225Y0213052D01*
X0177235Y0212927D01*
X0177249Y0212802D01*
X0177266Y0212677D01*
X0177288Y0212553D01*
X0177313Y0212430D01*
X0177343Y0212308D01*
X0177376Y0212187D01*
X0177413Y0212067D01*
X0177453Y0211948D01*
X0177498Y0211831D01*
X0177546Y0211714D01*
X0177598Y0211600D01*
X0177653Y0211487D01*
X0177712Y0211376D01*
X0177774Y0211267D01*
X0177840Y0211160D01*
X0177909Y0211055D01*
X0177981Y0210952D01*
X0178056Y0210851D01*
X0178135Y0210753D01*
X0178217Y0210658D01*
X0178301Y0210565D01*
X0178389Y0210475D01*
X0178479Y0210387D01*
X0178572Y0210303D01*
X0178667Y0210221D01*
X0178765Y0210142D01*
X0178866Y0210067D01*
X0178969Y0209995D01*
X0179074Y0209926D01*
X0179181Y0209860D01*
X0179290Y0209798D01*
X0179401Y0209739D01*
X0179514Y0209684D01*
X0179628Y0209632D01*
X0179745Y0209584D01*
X0179862Y0209539D01*
X0179981Y0209499D01*
X0180101Y0209462D01*
X0180222Y0209429D01*
X0180344Y0209399D01*
X0180467Y0209374D01*
X0180591Y0209352D01*
X0180716Y0209335D01*
X0180841Y0209321D01*
X0180966Y0209311D01*
X0181091Y0209305D01*
X0181217Y0209303D01*
X0181217Y0201803D01*
X0041217Y0201803D01*
X0041217Y0224803D01*
X0181217Y0224803D01*
X0183717Y0260803D02*
X0178717Y0260803D01*
X0176217Y0263303D01*
X0173717Y0260803D01*
X0168717Y0260803D01*
X0166217Y0263303D01*
X0163717Y0260803D01*
X0158717Y0260803D01*
X0156217Y0263303D01*
X0156217Y0268303D01*
X0158717Y0270803D01*
X0163717Y0270803D01*
X0166217Y0268303D01*
X0168717Y0270803D01*
X0173717Y0270803D01*
X0176217Y0268303D01*
X0178717Y0270803D01*
X0183717Y0270803D01*
X0186217Y0268303D01*
X0186217Y0263303D01*
X0183717Y0260803D01*
X0196217Y0263303D02*
X0196217Y0268303D01*
X0198717Y0270803D01*
X0203717Y0270803D01*
X0206217Y0268303D01*
X0208717Y0270803D01*
X0213717Y0270803D01*
X0216217Y0268303D01*
X0218717Y0270803D01*
X0223717Y0270803D01*
X0226217Y0268303D01*
X0226217Y0263303D01*
X0223717Y0260803D01*
X0218717Y0260803D01*
X0216217Y0263303D01*
X0213717Y0260803D01*
X0208717Y0260803D01*
X0206217Y0263303D01*
X0203717Y0260803D01*
X0198717Y0260803D01*
X0196217Y0263303D01*
X0236217Y0263303D02*
X0238717Y0260803D01*
X0243717Y0260803D01*
X0246217Y0263303D01*
X0248717Y0260803D01*
X0253717Y0260803D01*
X0256217Y0263303D01*
X0258717Y0260803D01*
X0263717Y0260803D01*
X0266217Y0263303D01*
X0266217Y0268303D01*
X0263717Y0270803D01*
X0258717Y0270803D01*
X0256217Y0268303D01*
X0253717Y0270803D01*
X0248717Y0270803D01*
X0246217Y0268303D01*
X0243717Y0270803D01*
X0238717Y0270803D01*
X0236217Y0268303D01*
X0236217Y0263303D01*
X0276217Y0263303D02*
X0278717Y0260803D01*
X0283717Y0260803D01*
X0286217Y0263303D01*
X0288717Y0260803D01*
X0293717Y0260803D01*
X0296217Y0263303D01*
X0298717Y0260803D01*
X0303717Y0260803D01*
X0306217Y0263303D01*
X0306217Y0268303D01*
X0303717Y0270803D01*
X0298717Y0270803D01*
X0296217Y0268303D01*
X0293717Y0270803D01*
X0288717Y0270803D01*
X0286217Y0268303D01*
X0283717Y0270803D01*
X0278717Y0270803D01*
X0276217Y0268303D01*
X0276217Y0263303D01*
X0297717Y0183303D02*
X0304717Y0183303D01*
X0304777Y0183301D01*
X0304838Y0183296D01*
X0304897Y0183287D01*
X0304956Y0183274D01*
X0305015Y0183258D01*
X0305072Y0183238D01*
X0305127Y0183215D01*
X0305182Y0183188D01*
X0305234Y0183159D01*
X0305285Y0183126D01*
X0305334Y0183090D01*
X0305380Y0183052D01*
X0305424Y0183010D01*
X0305466Y0182966D01*
X0305504Y0182920D01*
X0305540Y0182871D01*
X0305573Y0182820D01*
X0305602Y0182768D01*
X0305629Y0182713D01*
X0305652Y0182658D01*
X0305672Y0182601D01*
X0305688Y0182542D01*
X0305701Y0182483D01*
X0305710Y0182424D01*
X0305715Y0182363D01*
X0305717Y0182303D01*
X0305717Y0180803D01*
X0305217Y0180303D01*
X0305217Y0161303D01*
X0305717Y0160803D01*
X0305717Y0159303D01*
X0306717Y0159303D02*
X0306717Y0160803D01*
X0307217Y0161303D01*
X0307217Y0180303D01*
X0306717Y0180803D01*
X0306717Y0182303D01*
X0306719Y0182363D01*
X0306724Y0182424D01*
X0306733Y0182483D01*
X0306746Y0182542D01*
X0306762Y0182601D01*
X0306782Y0182658D01*
X0306805Y0182713D01*
X0306832Y0182768D01*
X0306861Y0182820D01*
X0306894Y0182871D01*
X0306930Y0182920D01*
X0306968Y0182966D01*
X0307010Y0183010D01*
X0307054Y0183052D01*
X0307100Y0183090D01*
X0307149Y0183126D01*
X0307200Y0183159D01*
X0307252Y0183188D01*
X0307307Y0183215D01*
X0307362Y0183238D01*
X0307419Y0183258D01*
X0307478Y0183274D01*
X0307537Y0183287D01*
X0307596Y0183296D01*
X0307657Y0183301D01*
X0307717Y0183303D01*
X0314717Y0183303D01*
X0314777Y0183301D01*
X0314838Y0183296D01*
X0314897Y0183287D01*
X0314956Y0183274D01*
X0315015Y0183258D01*
X0315072Y0183238D01*
X0315127Y0183215D01*
X0315182Y0183188D01*
X0315234Y0183159D01*
X0315285Y0183126D01*
X0315334Y0183090D01*
X0315380Y0183052D01*
X0315424Y0183010D01*
X0315466Y0182966D01*
X0315504Y0182920D01*
X0315540Y0182871D01*
X0315573Y0182820D01*
X0315602Y0182768D01*
X0315629Y0182713D01*
X0315652Y0182658D01*
X0315672Y0182601D01*
X0315688Y0182542D01*
X0315701Y0182483D01*
X0315710Y0182424D01*
X0315715Y0182363D01*
X0315717Y0182303D01*
X0315717Y0180803D01*
X0315217Y0180303D01*
X0315217Y0161303D01*
X0315717Y0160803D01*
X0315717Y0159303D01*
X0316717Y0159303D02*
X0316717Y0160803D01*
X0317217Y0161303D01*
X0317217Y0180303D01*
X0316717Y0180803D01*
X0316717Y0182303D01*
X0316719Y0182363D01*
X0316724Y0182424D01*
X0316733Y0182483D01*
X0316746Y0182542D01*
X0316762Y0182601D01*
X0316782Y0182658D01*
X0316805Y0182713D01*
X0316832Y0182768D01*
X0316861Y0182820D01*
X0316894Y0182871D01*
X0316930Y0182920D01*
X0316968Y0182966D01*
X0317010Y0183010D01*
X0317054Y0183052D01*
X0317100Y0183090D01*
X0317149Y0183126D01*
X0317200Y0183159D01*
X0317252Y0183188D01*
X0317307Y0183215D01*
X0317362Y0183238D01*
X0317419Y0183258D01*
X0317478Y0183274D01*
X0317537Y0183287D01*
X0317596Y0183296D01*
X0317657Y0183301D01*
X0317717Y0183303D01*
X0324717Y0183303D01*
X0324777Y0183301D01*
X0324838Y0183296D01*
X0324897Y0183287D01*
X0324956Y0183274D01*
X0325015Y0183258D01*
X0325072Y0183238D01*
X0325127Y0183215D01*
X0325182Y0183188D01*
X0325234Y0183159D01*
X0325285Y0183126D01*
X0325334Y0183090D01*
X0325380Y0183052D01*
X0325424Y0183010D01*
X0325466Y0182966D01*
X0325504Y0182920D01*
X0325540Y0182871D01*
X0325573Y0182820D01*
X0325602Y0182768D01*
X0325629Y0182713D01*
X0325652Y0182658D01*
X0325672Y0182601D01*
X0325688Y0182542D01*
X0325701Y0182483D01*
X0325710Y0182424D01*
X0325715Y0182363D01*
X0325717Y0182303D01*
X0325717Y0180803D01*
X0325217Y0180303D01*
X0325217Y0161303D01*
X0325717Y0160803D01*
X0325717Y0159303D01*
X0326717Y0159303D02*
X0326717Y0160803D01*
X0327217Y0161303D01*
X0327217Y0180303D01*
X0326717Y0180803D01*
X0326717Y0182303D01*
X0326719Y0182363D01*
X0326724Y0182424D01*
X0326733Y0182483D01*
X0326746Y0182542D01*
X0326762Y0182601D01*
X0326782Y0182658D01*
X0326805Y0182713D01*
X0326832Y0182768D01*
X0326861Y0182820D01*
X0326894Y0182871D01*
X0326930Y0182920D01*
X0326968Y0182966D01*
X0327010Y0183010D01*
X0327054Y0183052D01*
X0327100Y0183090D01*
X0327149Y0183126D01*
X0327200Y0183159D01*
X0327252Y0183188D01*
X0327307Y0183215D01*
X0327362Y0183238D01*
X0327419Y0183258D01*
X0327478Y0183274D01*
X0327537Y0183287D01*
X0327596Y0183296D01*
X0327657Y0183301D01*
X0327717Y0183303D01*
X0334717Y0183303D01*
X0334777Y0183301D01*
X0334838Y0183296D01*
X0334897Y0183287D01*
X0334956Y0183274D01*
X0335015Y0183258D01*
X0335072Y0183238D01*
X0335127Y0183215D01*
X0335182Y0183188D01*
X0335234Y0183159D01*
X0335285Y0183126D01*
X0335334Y0183090D01*
X0335380Y0183052D01*
X0335424Y0183010D01*
X0335466Y0182966D01*
X0335504Y0182920D01*
X0335540Y0182871D01*
X0335573Y0182820D01*
X0335602Y0182768D01*
X0335629Y0182713D01*
X0335652Y0182658D01*
X0335672Y0182601D01*
X0335688Y0182542D01*
X0335701Y0182483D01*
X0335710Y0182424D01*
X0335715Y0182363D01*
X0335717Y0182303D01*
X0335717Y0180803D01*
X0335217Y0180303D01*
X0335217Y0161303D01*
X0335717Y0160803D01*
X0335717Y0159303D01*
X0335715Y0159243D01*
X0335710Y0159182D01*
X0335701Y0159123D01*
X0335688Y0159064D01*
X0335672Y0159005D01*
X0335652Y0158948D01*
X0335629Y0158893D01*
X0335602Y0158838D01*
X0335573Y0158786D01*
X0335540Y0158735D01*
X0335504Y0158686D01*
X0335466Y0158640D01*
X0335424Y0158596D01*
X0335380Y0158554D01*
X0335334Y0158516D01*
X0335285Y0158480D01*
X0335234Y0158447D01*
X0335182Y0158418D01*
X0335127Y0158391D01*
X0335072Y0158368D01*
X0335015Y0158348D01*
X0334956Y0158332D01*
X0334897Y0158319D01*
X0334838Y0158310D01*
X0334777Y0158305D01*
X0334717Y0158303D01*
X0327717Y0158303D01*
X0327657Y0158305D01*
X0327596Y0158310D01*
X0327537Y0158319D01*
X0327478Y0158332D01*
X0327419Y0158348D01*
X0327362Y0158368D01*
X0327307Y0158391D01*
X0327252Y0158418D01*
X0327200Y0158447D01*
X0327149Y0158480D01*
X0327100Y0158516D01*
X0327054Y0158554D01*
X0327010Y0158596D01*
X0326968Y0158640D01*
X0326930Y0158686D01*
X0326894Y0158735D01*
X0326861Y0158786D01*
X0326832Y0158838D01*
X0326805Y0158893D01*
X0326782Y0158948D01*
X0326762Y0159005D01*
X0326746Y0159064D01*
X0326733Y0159123D01*
X0326724Y0159182D01*
X0326719Y0159243D01*
X0326717Y0159303D01*
X0325717Y0159303D02*
X0325715Y0159243D01*
X0325710Y0159182D01*
X0325701Y0159123D01*
X0325688Y0159064D01*
X0325672Y0159005D01*
X0325652Y0158948D01*
X0325629Y0158893D01*
X0325602Y0158838D01*
X0325573Y0158786D01*
X0325540Y0158735D01*
X0325504Y0158686D01*
X0325466Y0158640D01*
X0325424Y0158596D01*
X0325380Y0158554D01*
X0325334Y0158516D01*
X0325285Y0158480D01*
X0325234Y0158447D01*
X0325182Y0158418D01*
X0325127Y0158391D01*
X0325072Y0158368D01*
X0325015Y0158348D01*
X0324956Y0158332D01*
X0324897Y0158319D01*
X0324838Y0158310D01*
X0324777Y0158305D01*
X0324717Y0158303D01*
X0317717Y0158303D01*
X0317657Y0158305D01*
X0317596Y0158310D01*
X0317537Y0158319D01*
X0317478Y0158332D01*
X0317419Y0158348D01*
X0317362Y0158368D01*
X0317307Y0158391D01*
X0317252Y0158418D01*
X0317200Y0158447D01*
X0317149Y0158480D01*
X0317100Y0158516D01*
X0317054Y0158554D01*
X0317010Y0158596D01*
X0316968Y0158640D01*
X0316930Y0158686D01*
X0316894Y0158735D01*
X0316861Y0158786D01*
X0316832Y0158838D01*
X0316805Y0158893D01*
X0316782Y0158948D01*
X0316762Y0159005D01*
X0316746Y0159064D01*
X0316733Y0159123D01*
X0316724Y0159182D01*
X0316719Y0159243D01*
X0316717Y0159303D01*
X0315717Y0159303D02*
X0315715Y0159243D01*
X0315710Y0159182D01*
X0315701Y0159123D01*
X0315688Y0159064D01*
X0315672Y0159005D01*
X0315652Y0158948D01*
X0315629Y0158893D01*
X0315602Y0158838D01*
X0315573Y0158786D01*
X0315540Y0158735D01*
X0315504Y0158686D01*
X0315466Y0158640D01*
X0315424Y0158596D01*
X0315380Y0158554D01*
X0315334Y0158516D01*
X0315285Y0158480D01*
X0315234Y0158447D01*
X0315182Y0158418D01*
X0315127Y0158391D01*
X0315072Y0158368D01*
X0315015Y0158348D01*
X0314956Y0158332D01*
X0314897Y0158319D01*
X0314838Y0158310D01*
X0314777Y0158305D01*
X0314717Y0158303D01*
X0307717Y0158303D01*
X0307657Y0158305D01*
X0307596Y0158310D01*
X0307537Y0158319D01*
X0307478Y0158332D01*
X0307419Y0158348D01*
X0307362Y0158368D01*
X0307307Y0158391D01*
X0307252Y0158418D01*
X0307200Y0158447D01*
X0307149Y0158480D01*
X0307100Y0158516D01*
X0307054Y0158554D01*
X0307010Y0158596D01*
X0306968Y0158640D01*
X0306930Y0158686D01*
X0306894Y0158735D01*
X0306861Y0158786D01*
X0306832Y0158838D01*
X0306805Y0158893D01*
X0306782Y0158948D01*
X0306762Y0159005D01*
X0306746Y0159064D01*
X0306733Y0159123D01*
X0306724Y0159182D01*
X0306719Y0159243D01*
X0306717Y0159303D01*
X0305717Y0159303D02*
X0305715Y0159243D01*
X0305710Y0159182D01*
X0305701Y0159123D01*
X0305688Y0159064D01*
X0305672Y0159005D01*
X0305652Y0158948D01*
X0305629Y0158893D01*
X0305602Y0158838D01*
X0305573Y0158786D01*
X0305540Y0158735D01*
X0305504Y0158686D01*
X0305466Y0158640D01*
X0305424Y0158596D01*
X0305380Y0158554D01*
X0305334Y0158516D01*
X0305285Y0158480D01*
X0305234Y0158447D01*
X0305182Y0158418D01*
X0305127Y0158391D01*
X0305072Y0158368D01*
X0305015Y0158348D01*
X0304956Y0158332D01*
X0304897Y0158319D01*
X0304838Y0158310D01*
X0304777Y0158305D01*
X0304717Y0158303D01*
X0297717Y0158303D01*
X0297657Y0158305D01*
X0297596Y0158310D01*
X0297537Y0158319D01*
X0297478Y0158332D01*
X0297419Y0158348D01*
X0297362Y0158368D01*
X0297307Y0158391D01*
X0297252Y0158418D01*
X0297200Y0158447D01*
X0297149Y0158480D01*
X0297100Y0158516D01*
X0297054Y0158554D01*
X0297010Y0158596D01*
X0296968Y0158640D01*
X0296930Y0158686D01*
X0296894Y0158735D01*
X0296861Y0158786D01*
X0296832Y0158838D01*
X0296805Y0158893D01*
X0296782Y0158948D01*
X0296762Y0159005D01*
X0296746Y0159064D01*
X0296733Y0159123D01*
X0296724Y0159182D01*
X0296719Y0159243D01*
X0296717Y0159303D01*
X0296717Y0160803D01*
X0297217Y0161303D01*
X0297217Y0180303D01*
X0296717Y0180803D01*
X0296717Y0182303D01*
X0296719Y0182363D01*
X0296724Y0182424D01*
X0296733Y0182483D01*
X0296746Y0182542D01*
X0296762Y0182601D01*
X0296782Y0182658D01*
X0296805Y0182713D01*
X0296832Y0182768D01*
X0296861Y0182820D01*
X0296894Y0182871D01*
X0296930Y0182920D01*
X0296968Y0182966D01*
X0297010Y0183010D01*
X0297054Y0183052D01*
X0297100Y0183090D01*
X0297149Y0183126D01*
X0297200Y0183159D01*
X0297252Y0183188D01*
X0297307Y0183215D01*
X0297362Y0183238D01*
X0297419Y0183258D01*
X0297478Y0183274D01*
X0297537Y0183287D01*
X0297596Y0183296D01*
X0297657Y0183301D01*
X0297717Y0183303D01*
X0349799Y0178913D02*
X0349799Y0173913D01*
X0352299Y0171413D01*
X0349799Y0168913D01*
X0349799Y0163913D01*
X0352299Y0161413D01*
X0349799Y0158913D01*
X0349799Y0153913D01*
X0352299Y0151413D01*
X0357299Y0151413D01*
X0359799Y0153913D01*
X0359799Y0158913D01*
X0357299Y0161413D01*
X0359799Y0163913D01*
X0359799Y0168913D01*
X0357299Y0171413D01*
X0359799Y0173913D01*
X0359799Y0178913D01*
X0357299Y0181413D01*
X0352299Y0181413D01*
X0349799Y0178913D01*
X0249717Y0104803D02*
X0249717Y0103303D01*
X0251217Y0103303D01*
X0249717Y0103303D02*
X0249717Y0101803D01*
X0249717Y0103303D02*
X0248217Y0103303D01*
X0245217Y0098303D02*
X0245220Y0098573D01*
X0245230Y0098843D01*
X0245247Y0099112D01*
X0245270Y0099381D01*
X0245300Y0099650D01*
X0245336Y0099917D01*
X0245379Y0100184D01*
X0245428Y0100449D01*
X0245484Y0100713D01*
X0245547Y0100976D01*
X0245615Y0101237D01*
X0245691Y0101496D01*
X0245772Y0101753D01*
X0245860Y0102009D01*
X0245954Y0102262D01*
X0246054Y0102513D01*
X0246161Y0102761D01*
X0246273Y0103006D01*
X0246392Y0103249D01*
X0246516Y0103488D01*
X0246646Y0103725D01*
X0246782Y0103958D01*
X0246924Y0104188D01*
X0247071Y0104414D01*
X0247224Y0104637D01*
X0247382Y0104856D01*
X0247545Y0105071D01*
X0247714Y0105281D01*
X0247888Y0105488D01*
X0248067Y0105690D01*
X0248250Y0105888D01*
X0248439Y0106081D01*
X0248632Y0106270D01*
X0248830Y0106453D01*
X0249032Y0106632D01*
X0249239Y0106806D01*
X0249449Y0106975D01*
X0249664Y0107138D01*
X0249883Y0107296D01*
X0250106Y0107449D01*
X0250332Y0107596D01*
X0250562Y0107738D01*
X0250795Y0107874D01*
X0251032Y0108004D01*
X0251271Y0108128D01*
X0251514Y0108247D01*
X0251759Y0108359D01*
X0252007Y0108466D01*
X0252258Y0108566D01*
X0252511Y0108660D01*
X0252767Y0108748D01*
X0253024Y0108829D01*
X0253283Y0108905D01*
X0253544Y0108973D01*
X0253807Y0109036D01*
X0254071Y0109092D01*
X0254336Y0109141D01*
X0254603Y0109184D01*
X0254870Y0109220D01*
X0255139Y0109250D01*
X0255408Y0109273D01*
X0255677Y0109290D01*
X0255947Y0109300D01*
X0256217Y0109303D01*
X0256487Y0109300D01*
X0256757Y0109290D01*
X0257026Y0109273D01*
X0257295Y0109250D01*
X0257564Y0109220D01*
X0257831Y0109184D01*
X0258098Y0109141D01*
X0258363Y0109092D01*
X0258627Y0109036D01*
X0258890Y0108973D01*
X0259151Y0108905D01*
X0259410Y0108829D01*
X0259667Y0108748D01*
X0259923Y0108660D01*
X0260176Y0108566D01*
X0260427Y0108466D01*
X0260675Y0108359D01*
X0260920Y0108247D01*
X0261163Y0108128D01*
X0261402Y0108004D01*
X0261639Y0107874D01*
X0261872Y0107738D01*
X0262102Y0107596D01*
X0262328Y0107449D01*
X0262551Y0107296D01*
X0262770Y0107138D01*
X0262985Y0106975D01*
X0263195Y0106806D01*
X0263402Y0106632D01*
X0263604Y0106453D01*
X0263802Y0106270D01*
X0263995Y0106081D01*
X0264184Y0105888D01*
X0264367Y0105690D01*
X0264546Y0105488D01*
X0264720Y0105281D01*
X0264889Y0105071D01*
X0265052Y0104856D01*
X0265210Y0104637D01*
X0265363Y0104414D01*
X0265510Y0104188D01*
X0265652Y0103958D01*
X0265788Y0103725D01*
X0265918Y0103488D01*
X0266042Y0103249D01*
X0266161Y0103006D01*
X0266273Y0102761D01*
X0266380Y0102513D01*
X0266480Y0102262D01*
X0266574Y0102009D01*
X0266662Y0101753D01*
X0266743Y0101496D01*
X0266819Y0101237D01*
X0266887Y0100976D01*
X0266950Y0100713D01*
X0267006Y0100449D01*
X0267055Y0100184D01*
X0267098Y0099917D01*
X0267134Y0099650D01*
X0267164Y0099381D01*
X0267187Y0099112D01*
X0267204Y0098843D01*
X0267214Y0098573D01*
X0267217Y0098303D01*
X0267214Y0098033D01*
X0267204Y0097763D01*
X0267187Y0097494D01*
X0267164Y0097225D01*
X0267134Y0096956D01*
X0267098Y0096689D01*
X0267055Y0096422D01*
X0267006Y0096157D01*
X0266950Y0095893D01*
X0266887Y0095630D01*
X0266819Y0095369D01*
X0266743Y0095110D01*
X0266662Y0094853D01*
X0266574Y0094597D01*
X0266480Y0094344D01*
X0266380Y0094093D01*
X0266273Y0093845D01*
X0266161Y0093600D01*
X0266042Y0093357D01*
X0265918Y0093118D01*
X0265788Y0092881D01*
X0265652Y0092648D01*
X0265510Y0092418D01*
X0265363Y0092192D01*
X0265210Y0091969D01*
X0265052Y0091750D01*
X0264889Y0091535D01*
X0264720Y0091325D01*
X0264546Y0091118D01*
X0264367Y0090916D01*
X0264184Y0090718D01*
X0263995Y0090525D01*
X0263802Y0090336D01*
X0263604Y0090153D01*
X0263402Y0089974D01*
X0263195Y0089800D01*
X0262985Y0089631D01*
X0262770Y0089468D01*
X0262551Y0089310D01*
X0262328Y0089157D01*
X0262102Y0089010D01*
X0261872Y0088868D01*
X0261639Y0088732D01*
X0261402Y0088602D01*
X0261163Y0088478D01*
X0260920Y0088359D01*
X0260675Y0088247D01*
X0260427Y0088140D01*
X0260176Y0088040D01*
X0259923Y0087946D01*
X0259667Y0087858D01*
X0259410Y0087777D01*
X0259151Y0087701D01*
X0258890Y0087633D01*
X0258627Y0087570D01*
X0258363Y0087514D01*
X0258098Y0087465D01*
X0257831Y0087422D01*
X0257564Y0087386D01*
X0257295Y0087356D01*
X0257026Y0087333D01*
X0256757Y0087316D01*
X0256487Y0087306D01*
X0256217Y0087303D01*
X0255947Y0087306D01*
X0255677Y0087316D01*
X0255408Y0087333D01*
X0255139Y0087356D01*
X0254870Y0087386D01*
X0254603Y0087422D01*
X0254336Y0087465D01*
X0254071Y0087514D01*
X0253807Y0087570D01*
X0253544Y0087633D01*
X0253283Y0087701D01*
X0253024Y0087777D01*
X0252767Y0087858D01*
X0252511Y0087946D01*
X0252258Y0088040D01*
X0252007Y0088140D01*
X0251759Y0088247D01*
X0251514Y0088359D01*
X0251271Y0088478D01*
X0251032Y0088602D01*
X0250795Y0088732D01*
X0250562Y0088868D01*
X0250332Y0089010D01*
X0250106Y0089157D01*
X0249883Y0089310D01*
X0249664Y0089468D01*
X0249449Y0089631D01*
X0249239Y0089800D01*
X0249032Y0089974D01*
X0248830Y0090153D01*
X0248632Y0090336D01*
X0248439Y0090525D01*
X0248250Y0090718D01*
X0248067Y0090916D01*
X0247888Y0091118D01*
X0247714Y0091325D01*
X0247545Y0091535D01*
X0247382Y0091750D01*
X0247224Y0091969D01*
X0247071Y0092192D01*
X0246924Y0092418D01*
X0246782Y0092648D01*
X0246646Y0092881D01*
X0246516Y0093118D01*
X0246392Y0093357D01*
X0246273Y0093600D01*
X0246161Y0093845D01*
X0246054Y0094093D01*
X0245954Y0094344D01*
X0245860Y0094597D01*
X0245772Y0094853D01*
X0245691Y0095110D01*
X0245615Y0095369D01*
X0245547Y0095630D01*
X0245484Y0095893D01*
X0245428Y0096157D01*
X0245379Y0096422D01*
X0245336Y0096689D01*
X0245300Y0096956D01*
X0245270Y0097225D01*
X0245247Y0097494D01*
X0245230Y0097763D01*
X0245220Y0098033D01*
X0245217Y0098303D01*
X0218717Y0072053D02*
X0216217Y0074553D01*
X0211217Y0074553D01*
X0208717Y0072053D01*
X0206217Y0074553D01*
X0201217Y0074553D01*
X0198717Y0072053D01*
X0196217Y0074553D01*
X0191217Y0074553D01*
X0188717Y0072053D01*
X0188717Y0067053D01*
X0191217Y0064553D01*
X0196217Y0064553D01*
X0198717Y0067053D01*
X0201217Y0064553D01*
X0206217Y0064553D01*
X0208717Y0067053D01*
X0211217Y0064553D01*
X0216217Y0064553D01*
X0218717Y0067053D01*
X0218717Y0072053D01*
X0181217Y0072303D02*
X0181217Y0064303D01*
X0180217Y0063303D01*
X0172217Y0063303D01*
X0171217Y0064303D01*
X0171217Y0072303D01*
X0172217Y0073303D01*
X0171217Y0074303D01*
X0171217Y0082303D01*
X0172217Y0083303D01*
X0180217Y0083303D01*
X0181217Y0082303D01*
X0181217Y0074303D01*
X0180217Y0073303D01*
X0181217Y0072303D01*
X0181217Y0083303D02*
X0181217Y0093303D01*
X0181217Y0099303D01*
X0181091Y0099305D01*
X0180966Y0099311D01*
X0180841Y0099321D01*
X0180716Y0099335D01*
X0180591Y0099352D01*
X0180467Y0099374D01*
X0180344Y0099399D01*
X0180222Y0099429D01*
X0180101Y0099462D01*
X0179981Y0099499D01*
X0179862Y0099539D01*
X0179745Y0099584D01*
X0179628Y0099632D01*
X0179514Y0099684D01*
X0179401Y0099739D01*
X0179290Y0099798D01*
X0179181Y0099860D01*
X0179074Y0099926D01*
X0178969Y0099995D01*
X0178866Y0100067D01*
X0178765Y0100142D01*
X0178667Y0100221D01*
X0178572Y0100303D01*
X0178479Y0100387D01*
X0178389Y0100475D01*
X0178301Y0100565D01*
X0178217Y0100658D01*
X0178135Y0100753D01*
X0178056Y0100851D01*
X0177981Y0100952D01*
X0177909Y0101055D01*
X0177840Y0101160D01*
X0177774Y0101267D01*
X0177712Y0101376D01*
X0177653Y0101487D01*
X0177598Y0101600D01*
X0177546Y0101714D01*
X0177498Y0101831D01*
X0177453Y0101948D01*
X0177413Y0102067D01*
X0177376Y0102187D01*
X0177343Y0102308D01*
X0177313Y0102430D01*
X0177288Y0102553D01*
X0177266Y0102677D01*
X0177249Y0102802D01*
X0177235Y0102927D01*
X0177225Y0103052D01*
X0177219Y0103177D01*
X0177217Y0103303D01*
X0177219Y0103429D01*
X0177225Y0103554D01*
X0177235Y0103679D01*
X0177249Y0103804D01*
X0177266Y0103929D01*
X0177288Y0104053D01*
X0177313Y0104176D01*
X0177343Y0104298D01*
X0177376Y0104419D01*
X0177413Y0104539D01*
X0177453Y0104658D01*
X0177498Y0104775D01*
X0177546Y0104892D01*
X0177598Y0105006D01*
X0177653Y0105119D01*
X0177712Y0105230D01*
X0177774Y0105339D01*
X0177840Y0105446D01*
X0177909Y0105551D01*
X0177981Y0105654D01*
X0178056Y0105755D01*
X0178135Y0105853D01*
X0178217Y0105948D01*
X0178301Y0106041D01*
X0178389Y0106131D01*
X0178479Y0106219D01*
X0178572Y0106303D01*
X0178667Y0106385D01*
X0178765Y0106464D01*
X0178866Y0106539D01*
X0178969Y0106611D01*
X0179074Y0106680D01*
X0179181Y0106746D01*
X0179290Y0106808D01*
X0179401Y0106867D01*
X0179514Y0106922D01*
X0179628Y0106974D01*
X0179745Y0107022D01*
X0179862Y0107067D01*
X0179981Y0107107D01*
X0180101Y0107144D01*
X0180222Y0107177D01*
X0180344Y0107207D01*
X0180467Y0107232D01*
X0180591Y0107254D01*
X0180716Y0107271D01*
X0180841Y0107285D01*
X0180966Y0107295D01*
X0181091Y0107301D01*
X0181217Y0107303D01*
X0181217Y0113303D01*
X0141217Y0113303D01*
X0141217Y0123303D01*
X0181217Y0123303D01*
X0181217Y0113303D01*
X0170717Y0124303D02*
X0170717Y0132303D01*
X0170715Y0132363D01*
X0170710Y0132424D01*
X0170701Y0132483D01*
X0170688Y0132542D01*
X0170672Y0132601D01*
X0170652Y0132658D01*
X0170629Y0132713D01*
X0170602Y0132768D01*
X0170573Y0132820D01*
X0170540Y0132871D01*
X0170504Y0132920D01*
X0170466Y0132966D01*
X0170424Y0133010D01*
X0170380Y0133052D01*
X0170334Y0133090D01*
X0170285Y0133126D01*
X0170234Y0133159D01*
X0170182Y0133188D01*
X0170127Y0133215D01*
X0170072Y0133238D01*
X0170015Y0133258D01*
X0169956Y0133274D01*
X0169897Y0133287D01*
X0169838Y0133296D01*
X0169777Y0133301D01*
X0169717Y0133303D01*
X0152717Y0133303D01*
X0152657Y0133301D01*
X0152596Y0133296D01*
X0152537Y0133287D01*
X0152478Y0133274D01*
X0152419Y0133258D01*
X0152362Y0133238D01*
X0152307Y0133215D01*
X0152252Y0133188D01*
X0152200Y0133159D01*
X0152149Y0133126D01*
X0152100Y0133090D01*
X0152054Y0133052D01*
X0152010Y0133010D01*
X0151968Y0132966D01*
X0151930Y0132920D01*
X0151894Y0132871D01*
X0151861Y0132820D01*
X0151832Y0132768D01*
X0151805Y0132713D01*
X0151782Y0132658D01*
X0151762Y0132601D01*
X0151746Y0132542D01*
X0151733Y0132483D01*
X0151724Y0132424D01*
X0151719Y0132363D01*
X0151717Y0132303D01*
X0151717Y0124303D01*
X0151719Y0124243D01*
X0151724Y0124182D01*
X0151733Y0124123D01*
X0151746Y0124064D01*
X0151762Y0124005D01*
X0151782Y0123948D01*
X0151805Y0123893D01*
X0151832Y0123838D01*
X0151861Y0123786D01*
X0151894Y0123735D01*
X0151930Y0123686D01*
X0151968Y0123640D01*
X0152010Y0123596D01*
X0152054Y0123554D01*
X0152100Y0123516D01*
X0152149Y0123480D01*
X0152200Y0123447D01*
X0152252Y0123418D01*
X0152307Y0123391D01*
X0152362Y0123368D01*
X0152419Y0123348D01*
X0152478Y0123332D01*
X0152537Y0123319D01*
X0152596Y0123310D01*
X0152657Y0123305D01*
X0152717Y0123303D01*
X0169717Y0123303D01*
X0169777Y0123305D01*
X0169838Y0123310D01*
X0169897Y0123319D01*
X0169956Y0123332D01*
X0170015Y0123348D01*
X0170072Y0123368D01*
X0170127Y0123391D01*
X0170182Y0123418D01*
X0170234Y0123447D01*
X0170285Y0123480D01*
X0170334Y0123516D01*
X0170380Y0123554D01*
X0170424Y0123596D01*
X0170466Y0123640D01*
X0170504Y0123686D01*
X0170540Y0123735D01*
X0170573Y0123786D01*
X0170602Y0123838D01*
X0170629Y0123893D01*
X0170652Y0123948D01*
X0170672Y0124005D01*
X0170688Y0124064D01*
X0170701Y0124123D01*
X0170710Y0124182D01*
X0170715Y0124243D01*
X0170717Y0124303D01*
X0162717Y0128303D02*
X0162217Y0128303D01*
X0160217Y0128303D02*
X0159717Y0128303D01*
X0141217Y0113303D02*
X0141217Y0093303D01*
X0181217Y0093303D01*
X0181217Y0083303D02*
X0141217Y0083303D01*
X0141217Y0093303D01*
X0146217Y0072803D02*
X0145717Y0072303D01*
X0126717Y0072303D01*
X0126217Y0072803D01*
X0124717Y0072803D01*
X0124657Y0072801D01*
X0124596Y0072796D01*
X0124537Y0072787D01*
X0124478Y0072774D01*
X0124419Y0072758D01*
X0124362Y0072738D01*
X0124307Y0072715D01*
X0124252Y0072688D01*
X0124200Y0072659D01*
X0124149Y0072626D01*
X0124100Y0072590D01*
X0124054Y0072552D01*
X0124010Y0072510D01*
X0123968Y0072466D01*
X0123930Y0072420D01*
X0123894Y0072371D01*
X0123861Y0072320D01*
X0123832Y0072268D01*
X0123805Y0072213D01*
X0123782Y0072158D01*
X0123762Y0072101D01*
X0123746Y0072042D01*
X0123733Y0071983D01*
X0123724Y0071924D01*
X0123719Y0071863D01*
X0123717Y0071803D01*
X0123717Y0064803D01*
X0123719Y0064743D01*
X0123724Y0064682D01*
X0123733Y0064623D01*
X0123746Y0064564D01*
X0123762Y0064505D01*
X0123782Y0064448D01*
X0123805Y0064393D01*
X0123832Y0064338D01*
X0123861Y0064286D01*
X0123894Y0064235D01*
X0123930Y0064186D01*
X0123968Y0064140D01*
X0124010Y0064096D01*
X0124054Y0064054D01*
X0124100Y0064016D01*
X0124149Y0063980D01*
X0124200Y0063947D01*
X0124252Y0063918D01*
X0124307Y0063891D01*
X0124362Y0063868D01*
X0124419Y0063848D01*
X0124478Y0063832D01*
X0124537Y0063819D01*
X0124596Y0063810D01*
X0124657Y0063805D01*
X0124717Y0063803D01*
X0126217Y0063803D01*
X0126717Y0064303D01*
X0145717Y0064303D01*
X0146217Y0063803D01*
X0147717Y0063803D01*
X0147777Y0063805D01*
X0147838Y0063810D01*
X0147897Y0063819D01*
X0147956Y0063832D01*
X0148015Y0063848D01*
X0148072Y0063868D01*
X0148127Y0063891D01*
X0148182Y0063918D01*
X0148234Y0063947D01*
X0148285Y0063980D01*
X0148334Y0064016D01*
X0148380Y0064054D01*
X0148424Y0064096D01*
X0148466Y0064140D01*
X0148504Y0064186D01*
X0148540Y0064235D01*
X0148573Y0064286D01*
X0148602Y0064338D01*
X0148629Y0064393D01*
X0148652Y0064448D01*
X0148672Y0064505D01*
X0148688Y0064564D01*
X0148701Y0064623D01*
X0148710Y0064682D01*
X0148715Y0064743D01*
X0148717Y0064803D01*
X0148717Y0071803D01*
X0148715Y0071863D01*
X0148710Y0071924D01*
X0148701Y0071983D01*
X0148688Y0072042D01*
X0148672Y0072101D01*
X0148652Y0072158D01*
X0148629Y0072213D01*
X0148602Y0072268D01*
X0148573Y0072320D01*
X0148540Y0072371D01*
X0148504Y0072420D01*
X0148466Y0072466D01*
X0148424Y0072510D01*
X0148380Y0072552D01*
X0148334Y0072590D01*
X0148285Y0072626D01*
X0148234Y0072659D01*
X0148182Y0072688D01*
X0148127Y0072715D01*
X0148072Y0072738D01*
X0148015Y0072758D01*
X0147956Y0072774D01*
X0147897Y0072787D01*
X0147838Y0072796D01*
X0147777Y0072801D01*
X0147717Y0072803D01*
X0146217Y0072803D01*
X0078717Y0134803D02*
X0078717Y0141803D01*
X0078715Y0141863D01*
X0078710Y0141924D01*
X0078701Y0141983D01*
X0078688Y0142042D01*
X0078672Y0142101D01*
X0078652Y0142158D01*
X0078629Y0142213D01*
X0078602Y0142268D01*
X0078573Y0142320D01*
X0078540Y0142371D01*
X0078504Y0142420D01*
X0078466Y0142466D01*
X0078424Y0142510D01*
X0078380Y0142552D01*
X0078334Y0142590D01*
X0078285Y0142626D01*
X0078234Y0142659D01*
X0078182Y0142688D01*
X0078127Y0142715D01*
X0078072Y0142738D01*
X0078015Y0142758D01*
X0077956Y0142774D01*
X0077897Y0142787D01*
X0077838Y0142796D01*
X0077777Y0142801D01*
X0077717Y0142803D01*
X0076217Y0142803D01*
X0075717Y0142303D01*
X0056717Y0142303D01*
X0056217Y0142803D01*
X0054717Y0142803D01*
X0054657Y0142801D01*
X0054596Y0142796D01*
X0054537Y0142787D01*
X0054478Y0142774D01*
X0054419Y0142758D01*
X0054362Y0142738D01*
X0054307Y0142715D01*
X0054252Y0142688D01*
X0054200Y0142659D01*
X0054149Y0142626D01*
X0054100Y0142590D01*
X0054054Y0142552D01*
X0054010Y0142510D01*
X0053968Y0142466D01*
X0053930Y0142420D01*
X0053894Y0142371D01*
X0053861Y0142320D01*
X0053832Y0142268D01*
X0053805Y0142213D01*
X0053782Y0142158D01*
X0053762Y0142101D01*
X0053746Y0142042D01*
X0053733Y0141983D01*
X0053724Y0141924D01*
X0053719Y0141863D01*
X0053717Y0141803D01*
X0053717Y0134803D01*
X0053719Y0134743D01*
X0053724Y0134682D01*
X0053733Y0134623D01*
X0053746Y0134564D01*
X0053762Y0134505D01*
X0053782Y0134448D01*
X0053805Y0134393D01*
X0053832Y0134338D01*
X0053861Y0134286D01*
X0053894Y0134235D01*
X0053930Y0134186D01*
X0053968Y0134140D01*
X0054010Y0134096D01*
X0054054Y0134054D01*
X0054100Y0134016D01*
X0054149Y0133980D01*
X0054200Y0133947D01*
X0054252Y0133918D01*
X0054307Y0133891D01*
X0054362Y0133868D01*
X0054419Y0133848D01*
X0054478Y0133832D01*
X0054537Y0133819D01*
X0054596Y0133810D01*
X0054657Y0133805D01*
X0054717Y0133803D01*
X0056217Y0133803D01*
X0056717Y0134303D01*
X0075717Y0134303D01*
X0076217Y0133803D01*
X0077717Y0133803D01*
X0077777Y0133805D01*
X0077838Y0133810D01*
X0077897Y0133819D01*
X0077956Y0133832D01*
X0078015Y0133848D01*
X0078072Y0133868D01*
X0078127Y0133891D01*
X0078182Y0133918D01*
X0078234Y0133947D01*
X0078285Y0133980D01*
X0078334Y0134016D01*
X0078380Y0134054D01*
X0078424Y0134096D01*
X0078466Y0134140D01*
X0078504Y0134186D01*
X0078540Y0134235D01*
X0078573Y0134286D01*
X0078602Y0134338D01*
X0078629Y0134393D01*
X0078652Y0134448D01*
X0078672Y0134505D01*
X0078688Y0134564D01*
X0078701Y0134623D01*
X0078710Y0134682D01*
X0078715Y0134743D01*
X0078717Y0134803D01*
X0068717Y0143303D02*
X0063717Y0143303D01*
X0061217Y0145803D01*
X0058717Y0143303D01*
X0053717Y0143303D01*
X0051217Y0145803D01*
X0048717Y0143303D01*
X0043717Y0143303D01*
X0041217Y0145803D01*
X0041217Y0160803D01*
X0043717Y0163303D01*
X0048717Y0163303D01*
X0051217Y0160803D01*
X0053717Y0163303D01*
X0058717Y0163303D01*
X0061217Y0160803D01*
X0063717Y0163303D01*
X0068717Y0163303D01*
X0071217Y0160803D01*
X0071217Y0145803D01*
X0068717Y0143303D01*
X0041861Y0142671D02*
X0041861Y0141603D01*
X0040794Y0141603D01*
X0040794Y0142671D01*
X0041861Y0142671D01*
X0040217Y0147803D02*
X0040217Y0128803D01*
X0040717Y0128303D01*
X0040717Y0126803D01*
X0040715Y0126743D01*
X0040710Y0126682D01*
X0040701Y0126623D01*
X0040688Y0126564D01*
X0040672Y0126505D01*
X0040652Y0126448D01*
X0040629Y0126393D01*
X0040602Y0126338D01*
X0040573Y0126286D01*
X0040540Y0126235D01*
X0040504Y0126186D01*
X0040466Y0126140D01*
X0040424Y0126096D01*
X0040380Y0126054D01*
X0040334Y0126016D01*
X0040285Y0125980D01*
X0040234Y0125947D01*
X0040182Y0125918D01*
X0040127Y0125891D01*
X0040072Y0125868D01*
X0040015Y0125848D01*
X0039956Y0125832D01*
X0039897Y0125819D01*
X0039838Y0125810D01*
X0039777Y0125805D01*
X0039717Y0125803D01*
X0032717Y0125803D01*
X0032657Y0125805D01*
X0032596Y0125810D01*
X0032537Y0125819D01*
X0032478Y0125832D01*
X0032419Y0125848D01*
X0032362Y0125868D01*
X0032307Y0125891D01*
X0032252Y0125918D01*
X0032200Y0125947D01*
X0032149Y0125980D01*
X0032100Y0126016D01*
X0032054Y0126054D01*
X0032010Y0126096D01*
X0031968Y0126140D01*
X0031930Y0126186D01*
X0031894Y0126235D01*
X0031861Y0126286D01*
X0031832Y0126338D01*
X0031805Y0126393D01*
X0031782Y0126448D01*
X0031762Y0126505D01*
X0031746Y0126564D01*
X0031733Y0126623D01*
X0031724Y0126682D01*
X0031719Y0126743D01*
X0031717Y0126803D01*
X0031717Y0128303D01*
X0032217Y0128803D01*
X0032217Y0147803D01*
X0031717Y0148303D01*
X0031717Y0149803D01*
X0031719Y0149863D01*
X0031724Y0149924D01*
X0031733Y0149983D01*
X0031746Y0150042D01*
X0031762Y0150101D01*
X0031782Y0150158D01*
X0031805Y0150213D01*
X0031832Y0150268D01*
X0031861Y0150320D01*
X0031894Y0150371D01*
X0031930Y0150420D01*
X0031968Y0150466D01*
X0032010Y0150510D01*
X0032054Y0150552D01*
X0032100Y0150590D01*
X0032149Y0150626D01*
X0032200Y0150659D01*
X0032252Y0150688D01*
X0032307Y0150715D01*
X0032362Y0150738D01*
X0032419Y0150758D01*
X0032478Y0150774D01*
X0032537Y0150787D01*
X0032596Y0150796D01*
X0032657Y0150801D01*
X0032717Y0150803D01*
X0039717Y0150803D01*
X0039777Y0150801D01*
X0039838Y0150796D01*
X0039897Y0150787D01*
X0039956Y0150774D01*
X0040015Y0150758D01*
X0040072Y0150738D01*
X0040127Y0150715D01*
X0040182Y0150688D01*
X0040234Y0150659D01*
X0040285Y0150626D01*
X0040334Y0150590D01*
X0040380Y0150552D01*
X0040424Y0150510D01*
X0040466Y0150466D01*
X0040504Y0150420D01*
X0040540Y0150371D01*
X0040573Y0150320D01*
X0040602Y0150268D01*
X0040629Y0150213D01*
X0040652Y0150158D01*
X0040672Y0150101D01*
X0040688Y0150042D01*
X0040701Y0149983D01*
X0040710Y0149924D01*
X0040715Y0149863D01*
X0040717Y0149803D01*
X0040717Y0148303D01*
X0040217Y0147803D01*
X0026217Y0183303D02*
X0026220Y0183548D01*
X0026229Y0183794D01*
X0026244Y0184039D01*
X0026265Y0184283D01*
X0026292Y0184527D01*
X0026325Y0184770D01*
X0026364Y0185013D01*
X0026409Y0185254D01*
X0026460Y0185494D01*
X0026517Y0185733D01*
X0026579Y0185970D01*
X0026648Y0186206D01*
X0026722Y0186440D01*
X0026802Y0186672D01*
X0026887Y0186902D01*
X0026978Y0187130D01*
X0027075Y0187355D01*
X0027177Y0187579D01*
X0027285Y0187799D01*
X0027398Y0188017D01*
X0027516Y0188232D01*
X0027640Y0188444D01*
X0027768Y0188653D01*
X0027902Y0188859D01*
X0028041Y0189061D01*
X0028185Y0189260D01*
X0028334Y0189455D01*
X0028487Y0189647D01*
X0028645Y0189835D01*
X0028807Y0190019D01*
X0028975Y0190198D01*
X0029146Y0190374D01*
X0029322Y0190545D01*
X0029501Y0190713D01*
X0029685Y0190875D01*
X0029873Y0191033D01*
X0030065Y0191186D01*
X0030260Y0191335D01*
X0030459Y0191479D01*
X0030661Y0191618D01*
X0030867Y0191752D01*
X0031076Y0191880D01*
X0031288Y0192004D01*
X0031503Y0192122D01*
X0031721Y0192235D01*
X0031941Y0192343D01*
X0032165Y0192445D01*
X0032390Y0192542D01*
X0032618Y0192633D01*
X0032848Y0192718D01*
X0033080Y0192798D01*
X0033314Y0192872D01*
X0033550Y0192941D01*
X0033787Y0193003D01*
X0034026Y0193060D01*
X0034266Y0193111D01*
X0034507Y0193156D01*
X0034750Y0193195D01*
X0034993Y0193228D01*
X0035237Y0193255D01*
X0035481Y0193276D01*
X0035726Y0193291D01*
X0035972Y0193300D01*
X0036217Y0193303D01*
X0036462Y0193300D01*
X0036708Y0193291D01*
X0036953Y0193276D01*
X0037197Y0193255D01*
X0037441Y0193228D01*
X0037684Y0193195D01*
X0037927Y0193156D01*
X0038168Y0193111D01*
X0038408Y0193060D01*
X0038647Y0193003D01*
X0038884Y0192941D01*
X0039120Y0192872D01*
X0039354Y0192798D01*
X0039586Y0192718D01*
X0039816Y0192633D01*
X0040044Y0192542D01*
X0040269Y0192445D01*
X0040493Y0192343D01*
X0040713Y0192235D01*
X0040931Y0192122D01*
X0041146Y0192004D01*
X0041358Y0191880D01*
X0041567Y0191752D01*
X0041773Y0191618D01*
X0041975Y0191479D01*
X0042174Y0191335D01*
X0042369Y0191186D01*
X0042561Y0191033D01*
X0042749Y0190875D01*
X0042933Y0190713D01*
X0043112Y0190545D01*
X0043288Y0190374D01*
X0043459Y0190198D01*
X0043627Y0190019D01*
X0043789Y0189835D01*
X0043947Y0189647D01*
X0044100Y0189455D01*
X0044249Y0189260D01*
X0044393Y0189061D01*
X0044532Y0188859D01*
X0044666Y0188653D01*
X0044794Y0188444D01*
X0044918Y0188232D01*
X0045036Y0188017D01*
X0045149Y0187799D01*
X0045257Y0187579D01*
X0045359Y0187355D01*
X0045456Y0187130D01*
X0045547Y0186902D01*
X0045632Y0186672D01*
X0045712Y0186440D01*
X0045786Y0186206D01*
X0045855Y0185970D01*
X0045917Y0185733D01*
X0045974Y0185494D01*
X0046025Y0185254D01*
X0046070Y0185013D01*
X0046109Y0184770D01*
X0046142Y0184527D01*
X0046169Y0184283D01*
X0046190Y0184039D01*
X0046205Y0183794D01*
X0046214Y0183548D01*
X0046217Y0183303D01*
X0046214Y0183058D01*
X0046205Y0182812D01*
X0046190Y0182567D01*
X0046169Y0182323D01*
X0046142Y0182079D01*
X0046109Y0181836D01*
X0046070Y0181593D01*
X0046025Y0181352D01*
X0045974Y0181112D01*
X0045917Y0180873D01*
X0045855Y0180636D01*
X0045786Y0180400D01*
X0045712Y0180166D01*
X0045632Y0179934D01*
X0045547Y0179704D01*
X0045456Y0179476D01*
X0045359Y0179251D01*
X0045257Y0179027D01*
X0045149Y0178807D01*
X0045036Y0178589D01*
X0044918Y0178374D01*
X0044794Y0178162D01*
X0044666Y0177953D01*
X0044532Y0177747D01*
X0044393Y0177545D01*
X0044249Y0177346D01*
X0044100Y0177151D01*
X0043947Y0176959D01*
X0043789Y0176771D01*
X0043627Y0176587D01*
X0043459Y0176408D01*
X0043288Y0176232D01*
X0043112Y0176061D01*
X0042933Y0175893D01*
X0042749Y0175731D01*
X0042561Y0175573D01*
X0042369Y0175420D01*
X0042174Y0175271D01*
X0041975Y0175127D01*
X0041773Y0174988D01*
X0041567Y0174854D01*
X0041358Y0174726D01*
X0041146Y0174602D01*
X0040931Y0174484D01*
X0040713Y0174371D01*
X0040493Y0174263D01*
X0040269Y0174161D01*
X0040044Y0174064D01*
X0039816Y0173973D01*
X0039586Y0173888D01*
X0039354Y0173808D01*
X0039120Y0173734D01*
X0038884Y0173665D01*
X0038647Y0173603D01*
X0038408Y0173546D01*
X0038168Y0173495D01*
X0037927Y0173450D01*
X0037684Y0173411D01*
X0037441Y0173378D01*
X0037197Y0173351D01*
X0036953Y0173330D01*
X0036708Y0173315D01*
X0036462Y0173306D01*
X0036217Y0173303D01*
X0035972Y0173306D01*
X0035726Y0173315D01*
X0035481Y0173330D01*
X0035237Y0173351D01*
X0034993Y0173378D01*
X0034750Y0173411D01*
X0034507Y0173450D01*
X0034266Y0173495D01*
X0034026Y0173546D01*
X0033787Y0173603D01*
X0033550Y0173665D01*
X0033314Y0173734D01*
X0033080Y0173808D01*
X0032848Y0173888D01*
X0032618Y0173973D01*
X0032390Y0174064D01*
X0032165Y0174161D01*
X0031941Y0174263D01*
X0031721Y0174371D01*
X0031503Y0174484D01*
X0031288Y0174602D01*
X0031076Y0174726D01*
X0030867Y0174854D01*
X0030661Y0174988D01*
X0030459Y0175127D01*
X0030260Y0175271D01*
X0030065Y0175420D01*
X0029873Y0175573D01*
X0029685Y0175731D01*
X0029501Y0175893D01*
X0029322Y0176061D01*
X0029146Y0176232D01*
X0028975Y0176408D01*
X0028807Y0176587D01*
X0028645Y0176771D01*
X0028487Y0176959D01*
X0028334Y0177151D01*
X0028185Y0177346D01*
X0028041Y0177545D01*
X0027902Y0177747D01*
X0027768Y0177953D01*
X0027640Y0178162D01*
X0027516Y0178374D01*
X0027398Y0178589D01*
X0027285Y0178807D01*
X0027177Y0179027D01*
X0027075Y0179251D01*
X0026978Y0179476D01*
X0026887Y0179704D01*
X0026802Y0179934D01*
X0026722Y0180166D01*
X0026648Y0180400D01*
X0026579Y0180636D01*
X0026517Y0180873D01*
X0026460Y0181112D01*
X0026409Y0181352D01*
X0026364Y0181593D01*
X0026325Y0181836D01*
X0026292Y0182079D01*
X0026265Y0182323D01*
X0026244Y0182567D01*
X0026229Y0182812D01*
X0026220Y0183058D01*
X0026217Y0183303D01*
X0072717Y0235803D02*
X0089717Y0235803D01*
X0089777Y0235805D01*
X0089838Y0235810D01*
X0089897Y0235819D01*
X0089956Y0235832D01*
X0090015Y0235848D01*
X0090072Y0235868D01*
X0090127Y0235891D01*
X0090182Y0235918D01*
X0090234Y0235947D01*
X0090285Y0235980D01*
X0090334Y0236016D01*
X0090380Y0236054D01*
X0090424Y0236096D01*
X0090466Y0236140D01*
X0090504Y0236186D01*
X0090540Y0236235D01*
X0090573Y0236286D01*
X0090602Y0236338D01*
X0090629Y0236393D01*
X0090652Y0236448D01*
X0090672Y0236505D01*
X0090688Y0236564D01*
X0090701Y0236623D01*
X0090710Y0236682D01*
X0090715Y0236743D01*
X0090717Y0236803D01*
X0090717Y0244803D01*
X0091717Y0244803D02*
X0091717Y0236803D01*
X0091719Y0236743D01*
X0091724Y0236682D01*
X0091733Y0236623D01*
X0091746Y0236564D01*
X0091762Y0236505D01*
X0091782Y0236448D01*
X0091805Y0236393D01*
X0091832Y0236338D01*
X0091861Y0236286D01*
X0091894Y0236235D01*
X0091930Y0236186D01*
X0091968Y0236140D01*
X0092010Y0236096D01*
X0092054Y0236054D01*
X0092100Y0236016D01*
X0092149Y0235980D01*
X0092200Y0235947D01*
X0092252Y0235918D01*
X0092307Y0235891D01*
X0092362Y0235868D01*
X0092419Y0235848D01*
X0092478Y0235832D01*
X0092537Y0235819D01*
X0092596Y0235810D01*
X0092657Y0235805D01*
X0092717Y0235803D01*
X0109717Y0235803D01*
X0109777Y0235805D01*
X0109838Y0235810D01*
X0109897Y0235819D01*
X0109956Y0235832D01*
X0110015Y0235848D01*
X0110072Y0235868D01*
X0110127Y0235891D01*
X0110182Y0235918D01*
X0110234Y0235947D01*
X0110285Y0235980D01*
X0110334Y0236016D01*
X0110380Y0236054D01*
X0110424Y0236096D01*
X0110466Y0236140D01*
X0110504Y0236186D01*
X0110540Y0236235D01*
X0110573Y0236286D01*
X0110602Y0236338D01*
X0110629Y0236393D01*
X0110652Y0236448D01*
X0110672Y0236505D01*
X0110688Y0236564D01*
X0110701Y0236623D01*
X0110710Y0236682D01*
X0110715Y0236743D01*
X0110717Y0236803D01*
X0110717Y0244803D01*
X0110715Y0244863D01*
X0110710Y0244924D01*
X0110701Y0244983D01*
X0110688Y0245042D01*
X0110672Y0245101D01*
X0110652Y0245158D01*
X0110629Y0245213D01*
X0110602Y0245268D01*
X0110573Y0245320D01*
X0110540Y0245371D01*
X0110504Y0245420D01*
X0110466Y0245466D01*
X0110424Y0245510D01*
X0110380Y0245552D01*
X0110334Y0245590D01*
X0110285Y0245626D01*
X0110234Y0245659D01*
X0110182Y0245688D01*
X0110127Y0245715D01*
X0110072Y0245738D01*
X0110015Y0245758D01*
X0109956Y0245774D01*
X0109897Y0245787D01*
X0109838Y0245796D01*
X0109777Y0245801D01*
X0109717Y0245803D01*
X0092717Y0245803D01*
X0092657Y0245801D01*
X0092596Y0245796D01*
X0092537Y0245787D01*
X0092478Y0245774D01*
X0092419Y0245758D01*
X0092362Y0245738D01*
X0092307Y0245715D01*
X0092252Y0245688D01*
X0092200Y0245659D01*
X0092149Y0245626D01*
X0092100Y0245590D01*
X0092054Y0245552D01*
X0092010Y0245510D01*
X0091968Y0245466D01*
X0091930Y0245420D01*
X0091894Y0245371D01*
X0091861Y0245320D01*
X0091832Y0245268D01*
X0091805Y0245213D01*
X0091782Y0245158D01*
X0091762Y0245101D01*
X0091746Y0245042D01*
X0091733Y0244983D01*
X0091724Y0244924D01*
X0091719Y0244863D01*
X0091717Y0244803D01*
X0090717Y0244803D02*
X0090715Y0244863D01*
X0090710Y0244924D01*
X0090701Y0244983D01*
X0090688Y0245042D01*
X0090672Y0245101D01*
X0090652Y0245158D01*
X0090629Y0245213D01*
X0090602Y0245268D01*
X0090573Y0245320D01*
X0090540Y0245371D01*
X0090504Y0245420D01*
X0090466Y0245466D01*
X0090424Y0245510D01*
X0090380Y0245552D01*
X0090334Y0245590D01*
X0090285Y0245626D01*
X0090234Y0245659D01*
X0090182Y0245688D01*
X0090127Y0245715D01*
X0090072Y0245738D01*
X0090015Y0245758D01*
X0089956Y0245774D01*
X0089897Y0245787D01*
X0089838Y0245796D01*
X0089777Y0245801D01*
X0089717Y0245803D01*
X0072717Y0245803D01*
X0072657Y0245801D01*
X0072596Y0245796D01*
X0072537Y0245787D01*
X0072478Y0245774D01*
X0072419Y0245758D01*
X0072362Y0245738D01*
X0072307Y0245715D01*
X0072252Y0245688D01*
X0072200Y0245659D01*
X0072149Y0245626D01*
X0072100Y0245590D01*
X0072054Y0245552D01*
X0072010Y0245510D01*
X0071968Y0245466D01*
X0071930Y0245420D01*
X0071894Y0245371D01*
X0071861Y0245320D01*
X0071832Y0245268D01*
X0071805Y0245213D01*
X0071782Y0245158D01*
X0071762Y0245101D01*
X0071746Y0245042D01*
X0071733Y0244983D01*
X0071724Y0244924D01*
X0071719Y0244863D01*
X0071717Y0244803D01*
X0071717Y0236803D01*
X0071719Y0236743D01*
X0071724Y0236682D01*
X0071733Y0236623D01*
X0071746Y0236564D01*
X0071762Y0236505D01*
X0071782Y0236448D01*
X0071805Y0236393D01*
X0071832Y0236338D01*
X0071861Y0236286D01*
X0071894Y0236235D01*
X0071930Y0236186D01*
X0071968Y0236140D01*
X0072010Y0236096D01*
X0072054Y0236054D01*
X0072100Y0236016D01*
X0072149Y0235980D01*
X0072200Y0235947D01*
X0072252Y0235918D01*
X0072307Y0235891D01*
X0072362Y0235868D01*
X0072419Y0235848D01*
X0072478Y0235832D01*
X0072537Y0235819D01*
X0072596Y0235810D01*
X0072657Y0235805D01*
X0072717Y0235803D01*
X0079717Y0240803D02*
X0080217Y0240803D01*
X0082217Y0240803D02*
X0082717Y0240803D01*
X0079217Y0249303D02*
X0103217Y0249303D01*
X0093717Y0252803D02*
X0093717Y0255803D01*
X0096217Y0255803D01*
X0093717Y0255803D02*
X0093717Y0258803D01*
X0092217Y0258803D02*
X0092217Y0252803D01*
X0090217Y0252803D01*
X0090217Y0258803D01*
X0092217Y0258803D01*
X0088717Y0258803D02*
X0088717Y0255803D01*
X0086217Y0255803D01*
X0088717Y0255803D02*
X0088717Y0252803D01*
X0079217Y0249303D02*
X0079057Y0249305D01*
X0078898Y0249311D01*
X0078739Y0249321D01*
X0078580Y0249334D01*
X0078421Y0249352D01*
X0078263Y0249373D01*
X0078106Y0249399D01*
X0077949Y0249428D01*
X0077793Y0249461D01*
X0077638Y0249498D01*
X0077483Y0249538D01*
X0077330Y0249583D01*
X0077178Y0249631D01*
X0077027Y0249683D01*
X0076878Y0249739D01*
X0076730Y0249798D01*
X0076583Y0249861D01*
X0076438Y0249927D01*
X0076295Y0249997D01*
X0076153Y0250071D01*
X0076013Y0250147D01*
X0075875Y0250228D01*
X0075740Y0250311D01*
X0075606Y0250398D01*
X0075474Y0250489D01*
X0075345Y0250582D01*
X0075218Y0250679D01*
X0075093Y0250778D01*
X0074971Y0250881D01*
X0074852Y0250987D01*
X0074735Y0251095D01*
X0074621Y0251207D01*
X0074509Y0251321D01*
X0074401Y0251438D01*
X0074295Y0251557D01*
X0074192Y0251679D01*
X0074093Y0251804D01*
X0073996Y0251931D01*
X0073903Y0252060D01*
X0073812Y0252192D01*
X0073725Y0252326D01*
X0073642Y0252461D01*
X0073561Y0252599D01*
X0073485Y0252739D01*
X0073411Y0252881D01*
X0073341Y0253024D01*
X0073275Y0253169D01*
X0073212Y0253316D01*
X0073153Y0253464D01*
X0073097Y0253613D01*
X0073045Y0253764D01*
X0072997Y0253916D01*
X0072952Y0254069D01*
X0072912Y0254224D01*
X0072875Y0254379D01*
X0072842Y0254535D01*
X0072813Y0254692D01*
X0072787Y0254849D01*
X0072766Y0255007D01*
X0072748Y0255166D01*
X0072735Y0255325D01*
X0072725Y0255484D01*
X0072719Y0255643D01*
X0072717Y0255803D01*
X0072719Y0255963D01*
X0072725Y0256122D01*
X0072735Y0256281D01*
X0072748Y0256440D01*
X0072766Y0256599D01*
X0072787Y0256757D01*
X0072813Y0256914D01*
X0072842Y0257071D01*
X0072875Y0257227D01*
X0072912Y0257382D01*
X0072952Y0257537D01*
X0072997Y0257690D01*
X0073045Y0257842D01*
X0073097Y0257993D01*
X0073153Y0258142D01*
X0073212Y0258290D01*
X0073275Y0258437D01*
X0073341Y0258582D01*
X0073411Y0258725D01*
X0073485Y0258867D01*
X0073561Y0259007D01*
X0073642Y0259145D01*
X0073725Y0259280D01*
X0073812Y0259414D01*
X0073903Y0259546D01*
X0073996Y0259675D01*
X0074093Y0259802D01*
X0074192Y0259927D01*
X0074295Y0260049D01*
X0074401Y0260168D01*
X0074509Y0260285D01*
X0074621Y0260399D01*
X0074735Y0260511D01*
X0074852Y0260619D01*
X0074971Y0260725D01*
X0075093Y0260828D01*
X0075218Y0260927D01*
X0075345Y0261024D01*
X0075474Y0261117D01*
X0075606Y0261208D01*
X0075740Y0261295D01*
X0075875Y0261378D01*
X0076013Y0261459D01*
X0076153Y0261535D01*
X0076295Y0261609D01*
X0076438Y0261679D01*
X0076583Y0261745D01*
X0076730Y0261808D01*
X0076878Y0261867D01*
X0077027Y0261923D01*
X0077178Y0261975D01*
X0077330Y0262023D01*
X0077483Y0262068D01*
X0077638Y0262108D01*
X0077793Y0262145D01*
X0077949Y0262178D01*
X0078106Y0262207D01*
X0078263Y0262233D01*
X0078421Y0262254D01*
X0078580Y0262272D01*
X0078739Y0262285D01*
X0078898Y0262295D01*
X0079057Y0262301D01*
X0079217Y0262303D01*
X0103217Y0262303D01*
X0103377Y0262301D01*
X0103536Y0262295D01*
X0103695Y0262285D01*
X0103854Y0262272D01*
X0104013Y0262254D01*
X0104171Y0262233D01*
X0104328Y0262207D01*
X0104485Y0262178D01*
X0104641Y0262145D01*
X0104796Y0262108D01*
X0104951Y0262068D01*
X0105104Y0262023D01*
X0105256Y0261975D01*
X0105407Y0261923D01*
X0105556Y0261867D01*
X0105704Y0261808D01*
X0105851Y0261745D01*
X0105996Y0261679D01*
X0106139Y0261609D01*
X0106281Y0261535D01*
X0106421Y0261459D01*
X0106559Y0261378D01*
X0106694Y0261295D01*
X0106828Y0261208D01*
X0106960Y0261117D01*
X0107089Y0261024D01*
X0107216Y0260927D01*
X0107341Y0260828D01*
X0107463Y0260725D01*
X0107582Y0260619D01*
X0107699Y0260511D01*
X0107813Y0260399D01*
X0107925Y0260285D01*
X0108033Y0260168D01*
X0108139Y0260049D01*
X0108242Y0259927D01*
X0108341Y0259802D01*
X0108438Y0259675D01*
X0108531Y0259546D01*
X0108622Y0259414D01*
X0108709Y0259280D01*
X0108792Y0259145D01*
X0108873Y0259007D01*
X0108949Y0258867D01*
X0109023Y0258725D01*
X0109093Y0258582D01*
X0109159Y0258437D01*
X0109222Y0258290D01*
X0109281Y0258142D01*
X0109337Y0257993D01*
X0109389Y0257842D01*
X0109437Y0257690D01*
X0109482Y0257537D01*
X0109522Y0257382D01*
X0109559Y0257227D01*
X0109592Y0257071D01*
X0109621Y0256914D01*
X0109647Y0256757D01*
X0109668Y0256599D01*
X0109686Y0256440D01*
X0109699Y0256281D01*
X0109709Y0256122D01*
X0109715Y0255963D01*
X0109717Y0255803D01*
X0109715Y0255643D01*
X0109709Y0255484D01*
X0109699Y0255325D01*
X0109686Y0255166D01*
X0109668Y0255007D01*
X0109647Y0254849D01*
X0109621Y0254692D01*
X0109592Y0254535D01*
X0109559Y0254379D01*
X0109522Y0254224D01*
X0109482Y0254069D01*
X0109437Y0253916D01*
X0109389Y0253764D01*
X0109337Y0253613D01*
X0109281Y0253464D01*
X0109222Y0253316D01*
X0109159Y0253169D01*
X0109093Y0253024D01*
X0109023Y0252881D01*
X0108949Y0252739D01*
X0108873Y0252599D01*
X0108792Y0252461D01*
X0108709Y0252326D01*
X0108622Y0252192D01*
X0108531Y0252060D01*
X0108438Y0251931D01*
X0108341Y0251804D01*
X0108242Y0251679D01*
X0108139Y0251557D01*
X0108033Y0251438D01*
X0107925Y0251321D01*
X0107813Y0251207D01*
X0107699Y0251095D01*
X0107582Y0250987D01*
X0107463Y0250881D01*
X0107341Y0250778D01*
X0107216Y0250679D01*
X0107089Y0250582D01*
X0106960Y0250489D01*
X0106828Y0250398D01*
X0106694Y0250311D01*
X0106559Y0250228D01*
X0106421Y0250147D01*
X0106281Y0250071D01*
X0106139Y0249997D01*
X0105996Y0249927D01*
X0105851Y0249861D01*
X0105704Y0249798D01*
X0105556Y0249739D01*
X0105407Y0249683D01*
X0105256Y0249631D01*
X0105104Y0249583D01*
X0104951Y0249538D01*
X0104796Y0249498D01*
X0104641Y0249461D01*
X0104485Y0249428D01*
X0104328Y0249399D01*
X0104171Y0249373D01*
X0104013Y0249352D01*
X0103854Y0249334D01*
X0103695Y0249321D01*
X0103536Y0249311D01*
X0103377Y0249305D01*
X0103217Y0249303D01*
X0102717Y0240803D02*
X0102217Y0240803D01*
X0100217Y0240803D02*
X0099717Y0240803D01*
X0041972Y0062504D02*
X0041972Y0058234D01*
X0041972Y0060369D02*
X0035566Y0060369D01*
X0037701Y0058234D01*
X0035566Y0056059D02*
X0035566Y0053923D01*
X0035566Y0054991D02*
X0040904Y0054991D01*
X0041972Y0053923D01*
X0041972Y0052856D01*
X0040904Y0051788D01*
D13*
X0160217Y0125303D02*
X0160217Y0128303D01*
X0160217Y0131303D01*
X0162217Y0131303D02*
X0162217Y0128303D01*
X0162217Y0125303D01*
X0205717Y0127303D02*
X0208717Y0127303D01*
X0211717Y0127303D01*
X0211717Y0129303D02*
X0208717Y0129303D01*
X0205717Y0129303D01*
X0205717Y0147303D02*
X0208717Y0147303D01*
X0211717Y0147303D01*
X0211717Y0149303D02*
X0208717Y0149303D01*
X0205717Y0149303D01*
X0089217Y0152303D02*
X0086217Y0152303D01*
X0083217Y0152303D01*
X0083217Y0154303D02*
X0086217Y0154303D01*
X0089217Y0154303D01*
X0043717Y0173303D02*
X0043960Y0173490D01*
X0044198Y0173682D01*
X0044431Y0173881D01*
X0044659Y0174085D01*
X0044882Y0174294D01*
X0045100Y0174509D01*
X0045313Y0174729D01*
X0045520Y0174954D01*
X0045722Y0175185D01*
X0045918Y0175420D01*
X0046108Y0175660D01*
X0046292Y0175904D01*
X0046470Y0176153D01*
X0046642Y0176407D01*
X0046808Y0176664D01*
X0046968Y0176925D01*
X0047121Y0177190D01*
X0047267Y0177459D01*
X0047407Y0177732D01*
X0047540Y0178007D01*
X0047666Y0178286D01*
X0047786Y0178568D01*
X0047898Y0178853D01*
X0048003Y0179140D01*
X0048102Y0179430D01*
X0048193Y0179722D01*
X0048277Y0180017D01*
X0048354Y0180313D01*
X0048424Y0180611D01*
X0048486Y0180911D01*
X0048541Y0181212D01*
X0048588Y0181514D01*
X0048628Y0181818D01*
X0048661Y0182122D01*
X0048686Y0182427D01*
X0048704Y0182733D01*
X0048714Y0183039D01*
X0048717Y0183345D01*
X0048712Y0183651D01*
X0048700Y0183957D01*
X0048680Y0184263D01*
X0048653Y0184567D01*
X0048618Y0184872D01*
X0048576Y0185175D01*
X0048527Y0185477D01*
X0048470Y0185778D01*
X0048405Y0186077D01*
X0048334Y0186375D01*
X0048255Y0186670D01*
X0048169Y0186964D01*
X0048076Y0187256D01*
X0047975Y0187545D01*
X0047868Y0187832D01*
X0047753Y0188116D01*
X0047632Y0188397D01*
X0047504Y0188675D01*
X0047369Y0188950D01*
X0047227Y0189221D01*
X0047079Y0189489D01*
X0046924Y0189753D01*
X0046763Y0190013D01*
X0046596Y0190269D01*
X0046422Y0190522D01*
X0046242Y0190769D01*
X0046056Y0191013D01*
X0045865Y0191251D01*
X0045667Y0191485D01*
X0045464Y0191714D01*
X0045255Y0191938D01*
X0045041Y0192157D01*
X0044821Y0192370D01*
X0044597Y0192578D01*
X0044367Y0192781D01*
X0044133Y0192977D01*
X0043893Y0193168D01*
X0043650Y0193353D01*
X0043401Y0193532D01*
X0043149Y0193705D01*
X0042892Y0193872D01*
X0042631Y0194032D01*
X0042366Y0194186D01*
X0042098Y0194333D01*
X0041826Y0194474D01*
X0041551Y0194608D01*
X0041272Y0194735D01*
X0040991Y0194856D01*
X0040706Y0194969D01*
X0040419Y0195075D01*
X0040130Y0195175D01*
X0039838Y0195267D01*
X0039544Y0195352D01*
X0039248Y0195430D01*
X0038950Y0195501D01*
X0038650Y0195564D01*
X0038349Y0195620D01*
X0038047Y0195668D01*
X0037744Y0195709D01*
X0037440Y0195743D01*
X0037135Y0195769D01*
X0036829Y0195788D01*
X0036523Y0195799D01*
X0036217Y0195803D01*
X0035911Y0195799D01*
X0035605Y0195788D01*
X0035299Y0195769D01*
X0034994Y0195743D01*
X0034690Y0195709D01*
X0034387Y0195668D01*
X0034085Y0195620D01*
X0033784Y0195564D01*
X0033484Y0195501D01*
X0033186Y0195430D01*
X0032890Y0195352D01*
X0032596Y0195267D01*
X0032304Y0195175D01*
X0032015Y0195075D01*
X0031728Y0194969D01*
X0031443Y0194856D01*
X0031162Y0194735D01*
X0030883Y0194608D01*
X0030608Y0194474D01*
X0030336Y0194333D01*
X0030068Y0194186D01*
X0029803Y0194032D01*
X0029542Y0193872D01*
X0029285Y0193705D01*
X0029033Y0193532D01*
X0028784Y0193353D01*
X0028541Y0193168D01*
X0028301Y0192977D01*
X0028067Y0192781D01*
X0027837Y0192578D01*
X0027613Y0192370D01*
X0027393Y0192157D01*
X0027179Y0191938D01*
X0026970Y0191714D01*
X0026767Y0191485D01*
X0026569Y0191251D01*
X0026378Y0191013D01*
X0026192Y0190769D01*
X0026012Y0190522D01*
X0025838Y0190269D01*
X0025671Y0190013D01*
X0025510Y0189753D01*
X0025355Y0189489D01*
X0025207Y0189221D01*
X0025065Y0188950D01*
X0024930Y0188675D01*
X0024802Y0188397D01*
X0024681Y0188116D01*
X0024566Y0187832D01*
X0024459Y0187545D01*
X0024358Y0187256D01*
X0024265Y0186964D01*
X0024179Y0186670D01*
X0024100Y0186375D01*
X0024029Y0186077D01*
X0023964Y0185778D01*
X0023907Y0185477D01*
X0023858Y0185175D01*
X0023816Y0184872D01*
X0023781Y0184567D01*
X0023754Y0184263D01*
X0023734Y0183957D01*
X0023722Y0183651D01*
X0023717Y0183345D01*
X0023720Y0183039D01*
X0023730Y0182733D01*
X0023748Y0182427D01*
X0023773Y0182122D01*
X0023806Y0181818D01*
X0023846Y0181514D01*
X0023893Y0181212D01*
X0023948Y0180911D01*
X0024010Y0180611D01*
X0024080Y0180313D01*
X0024157Y0180017D01*
X0024241Y0179722D01*
X0024332Y0179430D01*
X0024431Y0179140D01*
X0024536Y0178853D01*
X0024648Y0178568D01*
X0024768Y0178286D01*
X0024894Y0178007D01*
X0025027Y0177732D01*
X0025167Y0177459D01*
X0025313Y0177190D01*
X0025466Y0176925D01*
X0025626Y0176664D01*
X0025792Y0176407D01*
X0025964Y0176153D01*
X0026142Y0175904D01*
X0026326Y0175660D01*
X0026516Y0175420D01*
X0026712Y0175185D01*
X0026914Y0174954D01*
X0027121Y0174729D01*
X0027334Y0174509D01*
X0027552Y0174294D01*
X0027775Y0174085D01*
X0028003Y0173881D01*
X0028236Y0173682D01*
X0028474Y0173490D01*
X0028717Y0173303D01*
X0080217Y0237803D02*
X0080217Y0240803D01*
X0080217Y0243803D01*
X0082217Y0243803D02*
X0082217Y0240803D01*
X0082217Y0237803D01*
X0100217Y0237803D02*
X0100217Y0240803D01*
X0100217Y0243803D01*
X0102217Y0243803D02*
X0102217Y0240803D01*
X0102217Y0237803D01*
D14*
X0110570Y0238678D02*
X0110570Y0241680D01*
X0111320Y0242431D01*
X0112822Y0242431D01*
X0113572Y0241680D01*
X0115174Y0242431D02*
X0115174Y0240179D01*
X0116675Y0240930D01*
X0117426Y0240930D01*
X0118176Y0240179D01*
X0118176Y0238678D01*
X0117426Y0237927D01*
X0115924Y0237927D01*
X0115174Y0238678D01*
X0113572Y0238678D02*
X0112822Y0237927D01*
X0111320Y0237927D01*
X0110570Y0238678D01*
X0115174Y0242431D02*
X0118176Y0242431D01*
X0151467Y0263553D02*
X0154469Y0263553D01*
X0152968Y0263553D02*
X0152968Y0268057D01*
X0151467Y0266556D01*
X0157217Y0272553D02*
X0156467Y0273304D01*
X0157217Y0272553D02*
X0158718Y0272553D01*
X0159469Y0273304D01*
X0159469Y0274054D01*
X0158718Y0274805D01*
X0157217Y0274805D01*
X0156467Y0275556D01*
X0156467Y0276306D01*
X0157217Y0277057D01*
X0158718Y0277057D01*
X0159469Y0276306D01*
X0161070Y0277057D02*
X0161070Y0274054D01*
X0162572Y0272553D01*
X0164073Y0274054D01*
X0164073Y0277057D01*
X0165674Y0276306D02*
X0166425Y0277057D01*
X0167926Y0277057D01*
X0168677Y0276306D01*
X0168677Y0275556D01*
X0165674Y0272553D01*
X0168677Y0272553D01*
X0191467Y0266556D02*
X0192968Y0268057D01*
X0192968Y0263553D01*
X0191467Y0263553D02*
X0194469Y0263553D01*
X0197217Y0272553D02*
X0196467Y0273304D01*
X0197217Y0272553D02*
X0198718Y0272553D01*
X0199469Y0273304D01*
X0199469Y0274054D01*
X0198718Y0274805D01*
X0197217Y0274805D01*
X0196467Y0275556D01*
X0196467Y0276306D01*
X0197217Y0277057D01*
X0198718Y0277057D01*
X0199469Y0276306D01*
X0201070Y0277057D02*
X0201070Y0274054D01*
X0202572Y0272553D01*
X0204073Y0274054D01*
X0204073Y0277057D01*
X0205674Y0276306D02*
X0206425Y0277057D01*
X0207926Y0277057D01*
X0208677Y0276306D01*
X0208677Y0275556D01*
X0207926Y0274805D01*
X0208677Y0274054D01*
X0208677Y0273304D01*
X0207926Y0272553D01*
X0206425Y0272553D01*
X0205674Y0273304D01*
X0207176Y0274805D02*
X0207926Y0274805D01*
X0231467Y0266556D02*
X0232968Y0268057D01*
X0232968Y0263553D01*
X0231467Y0263553D02*
X0234469Y0263553D01*
X0237217Y0272553D02*
X0236467Y0273304D01*
X0237217Y0272553D02*
X0238718Y0272553D01*
X0239469Y0273304D01*
X0239469Y0274054D01*
X0238718Y0274805D01*
X0237217Y0274805D01*
X0236467Y0275556D01*
X0236467Y0276306D01*
X0237217Y0277057D01*
X0238718Y0277057D01*
X0239469Y0276306D01*
X0241070Y0277057D02*
X0241070Y0274054D01*
X0242572Y0272553D01*
X0244073Y0274054D01*
X0244073Y0277057D01*
X0245674Y0274805D02*
X0248677Y0274805D01*
X0247926Y0272553D02*
X0247926Y0277057D01*
X0245674Y0274805D01*
X0271467Y0266556D02*
X0272968Y0268057D01*
X0272968Y0263553D01*
X0271467Y0263553D02*
X0274469Y0263553D01*
X0277217Y0272553D02*
X0276467Y0273304D01*
X0277217Y0272553D02*
X0278718Y0272553D01*
X0279469Y0273304D01*
X0279469Y0274054D01*
X0278718Y0274805D01*
X0277217Y0274805D01*
X0276467Y0275556D01*
X0276467Y0276306D01*
X0277217Y0277057D01*
X0278718Y0277057D01*
X0279469Y0276306D01*
X0281070Y0277057D02*
X0281070Y0274054D01*
X0282572Y0272553D01*
X0284073Y0274054D01*
X0284073Y0277057D01*
X0285674Y0277057D02*
X0285674Y0274805D01*
X0287176Y0275556D01*
X0287926Y0275556D01*
X0288677Y0274805D01*
X0288677Y0273304D01*
X0287926Y0272553D01*
X0286425Y0272553D01*
X0285674Y0273304D01*
X0285674Y0277057D02*
X0288677Y0277057D01*
X0186967Y0222701D02*
X0186967Y0221200D01*
X0186216Y0220449D01*
X0186216Y0218848D02*
X0186967Y0218097D01*
X0186967Y0216596D01*
X0186216Y0215845D01*
X0183213Y0215845D01*
X0182463Y0216596D01*
X0182463Y0218097D01*
X0183213Y0218848D01*
X0183213Y0220449D02*
X0182463Y0221200D01*
X0182463Y0222701D01*
X0183213Y0223452D01*
X0183964Y0223452D01*
X0184715Y0222701D01*
X0185465Y0223452D01*
X0186216Y0223452D01*
X0186967Y0222701D01*
X0184715Y0222701D02*
X0184715Y0221950D01*
X0186967Y0214277D02*
X0186967Y0212776D01*
X0186967Y0213527D02*
X0182463Y0213527D01*
X0182463Y0214277D02*
X0182463Y0212776D01*
X0185463Y0203978D02*
X0187715Y0201726D01*
X0187715Y0204729D01*
X0189967Y0203978D02*
X0185463Y0203978D01*
X0186213Y0200125D02*
X0185463Y0199374D01*
X0185463Y0197873D01*
X0186213Y0197122D01*
X0189216Y0197122D01*
X0189967Y0197873D01*
X0189967Y0199374D01*
X0189216Y0200125D01*
X0189967Y0195554D02*
X0189967Y0194053D01*
X0189967Y0194804D02*
X0185463Y0194804D01*
X0185463Y0195554D02*
X0185463Y0194053D01*
X0189978Y0167813D02*
X0191479Y0167813D01*
X0192230Y0167062D01*
X0192230Y0164060D01*
X0191479Y0163309D01*
X0189978Y0163309D01*
X0189227Y0164060D01*
X0189227Y0167062D01*
X0189978Y0167813D01*
X0190728Y0164810D02*
X0192230Y0163309D01*
X0193831Y0163309D02*
X0196834Y0163309D01*
X0195332Y0163309D02*
X0195332Y0167813D01*
X0193831Y0166312D01*
X0205443Y0162543D02*
X0205443Y0159540D01*
X0206194Y0158789D01*
X0207695Y0158789D01*
X0208445Y0159540D01*
X0210047Y0159540D02*
X0210797Y0158789D01*
X0212299Y0158789D01*
X0213049Y0159540D01*
X0213049Y0160291D01*
X0212299Y0161041D01*
X0211548Y0161041D01*
X0212299Y0161041D02*
X0213049Y0161792D01*
X0213049Y0162543D01*
X0212299Y0163293D01*
X0210797Y0163293D01*
X0210047Y0162543D01*
X0208445Y0162543D02*
X0207695Y0163293D01*
X0206194Y0163293D01*
X0205443Y0162543D01*
X0222717Y0132803D02*
X0259717Y0132803D01*
X0260717Y0131803D01*
X0261217Y0120303D01*
X0257917Y0130403D02*
X0257919Y0130466D01*
X0257925Y0130528D01*
X0257935Y0130590D01*
X0257948Y0130652D01*
X0257966Y0130712D01*
X0257987Y0130771D01*
X0258012Y0130829D01*
X0258041Y0130885D01*
X0258073Y0130939D01*
X0258108Y0130991D01*
X0258146Y0131040D01*
X0258188Y0131088D01*
X0258232Y0131132D01*
X0258280Y0131174D01*
X0258329Y0131212D01*
X0258381Y0131247D01*
X0258435Y0131279D01*
X0258491Y0131308D01*
X0258549Y0131333D01*
X0258608Y0131354D01*
X0258668Y0131372D01*
X0258730Y0131385D01*
X0258792Y0131395D01*
X0258854Y0131401D01*
X0258917Y0131403D01*
X0258980Y0131401D01*
X0259042Y0131395D01*
X0259104Y0131385D01*
X0259166Y0131372D01*
X0259226Y0131354D01*
X0259285Y0131333D01*
X0259343Y0131308D01*
X0259399Y0131279D01*
X0259453Y0131247D01*
X0259505Y0131212D01*
X0259554Y0131174D01*
X0259602Y0131132D01*
X0259646Y0131088D01*
X0259688Y0131040D01*
X0259726Y0130991D01*
X0259761Y0130939D01*
X0259793Y0130885D01*
X0259822Y0130829D01*
X0259847Y0130771D01*
X0259868Y0130712D01*
X0259886Y0130652D01*
X0259899Y0130590D01*
X0259909Y0130528D01*
X0259915Y0130466D01*
X0259917Y0130403D01*
X0259915Y0130340D01*
X0259909Y0130278D01*
X0259899Y0130216D01*
X0259886Y0130154D01*
X0259868Y0130094D01*
X0259847Y0130035D01*
X0259822Y0129977D01*
X0259793Y0129921D01*
X0259761Y0129867D01*
X0259726Y0129815D01*
X0259688Y0129766D01*
X0259646Y0129718D01*
X0259602Y0129674D01*
X0259554Y0129632D01*
X0259505Y0129594D01*
X0259453Y0129559D01*
X0259399Y0129527D01*
X0259343Y0129498D01*
X0259285Y0129473D01*
X0259226Y0129452D01*
X0259166Y0129434D01*
X0259104Y0129421D01*
X0259042Y0129411D01*
X0258980Y0129405D01*
X0258917Y0129403D01*
X0258854Y0129405D01*
X0258792Y0129411D01*
X0258730Y0129421D01*
X0258668Y0129434D01*
X0258608Y0129452D01*
X0258549Y0129473D01*
X0258491Y0129498D01*
X0258435Y0129527D01*
X0258381Y0129559D01*
X0258329Y0129594D01*
X0258280Y0129632D01*
X0258232Y0129674D01*
X0258188Y0129718D01*
X0258146Y0129766D01*
X0258108Y0129815D01*
X0258073Y0129867D01*
X0258041Y0129921D01*
X0258012Y0129977D01*
X0257987Y0130035D01*
X0257966Y0130094D01*
X0257948Y0130154D01*
X0257935Y0130216D01*
X0257925Y0130278D01*
X0257919Y0130340D01*
X0257917Y0130403D01*
X0267717Y0109057D02*
X0266967Y0108306D01*
X0266967Y0105304D01*
X0267717Y0104553D01*
X0269218Y0104553D01*
X0269969Y0105304D01*
X0271570Y0105304D02*
X0271570Y0104553D01*
X0271570Y0105304D02*
X0274573Y0108306D01*
X0274573Y0109057D01*
X0271570Y0109057D01*
X0269969Y0108306D02*
X0269218Y0109057D01*
X0267717Y0109057D01*
X0221217Y0120303D02*
X0221717Y0131803D01*
X0222717Y0132803D01*
X0210965Y0118923D02*
X0208713Y0116671D01*
X0211716Y0116671D01*
X0210965Y0114419D02*
X0210965Y0118923D01*
X0207112Y0118172D02*
X0206361Y0118923D01*
X0204860Y0118923D01*
X0204109Y0118172D01*
X0204109Y0115170D01*
X0204860Y0114419D01*
X0206361Y0114419D01*
X0207112Y0115170D01*
X0187467Y0112452D02*
X0187467Y0109449D01*
X0187467Y0110950D02*
X0182963Y0110950D01*
X0184464Y0109449D01*
X0183713Y0107848D02*
X0182963Y0107097D01*
X0182963Y0105596D01*
X0183713Y0104845D01*
X0186716Y0104845D01*
X0187467Y0105596D01*
X0187467Y0107097D01*
X0186716Y0107848D01*
X0187467Y0103277D02*
X0187467Y0101776D01*
X0187467Y0102527D02*
X0182963Y0102527D01*
X0182963Y0103277D02*
X0182963Y0101776D01*
X0205696Y0091306D02*
X0205696Y0088304D01*
X0206446Y0087553D01*
X0207948Y0087553D01*
X0208698Y0088304D01*
X0210300Y0088304D02*
X0210300Y0089054D01*
X0211050Y0089805D01*
X0212552Y0089805D01*
X0213302Y0089054D01*
X0213302Y0088304D01*
X0212552Y0087553D01*
X0211050Y0087553D01*
X0210300Y0088304D01*
X0211050Y0089805D02*
X0210300Y0090556D01*
X0210300Y0091306D01*
X0211050Y0092057D01*
X0212552Y0092057D01*
X0213302Y0091306D01*
X0213302Y0090556D01*
X0212552Y0089805D01*
X0208698Y0091306D02*
X0207948Y0092057D01*
X0206446Y0092057D01*
X0205696Y0091306D01*
X0222968Y0071807D02*
X0222968Y0067303D01*
X0221467Y0067303D02*
X0224469Y0067303D01*
X0221467Y0070306D02*
X0222968Y0071807D01*
X0186969Y0067303D02*
X0183967Y0067303D01*
X0185468Y0067303D02*
X0185468Y0071807D01*
X0183967Y0070306D01*
X0176966Y0061262D02*
X0176966Y0056758D01*
X0175465Y0056758D02*
X0178468Y0056758D01*
X0175465Y0059760D02*
X0176966Y0061262D01*
X0173864Y0060511D02*
X0173864Y0059010D01*
X0173113Y0058259D01*
X0170861Y0058259D01*
X0170861Y0056758D02*
X0170861Y0061262D01*
X0173113Y0061262D01*
X0173864Y0060511D01*
X0169260Y0061262D02*
X0167758Y0061262D01*
X0168509Y0061262D02*
X0168509Y0057509D01*
X0167758Y0056758D01*
X0167008Y0056758D01*
X0166257Y0057509D01*
X0146865Y0058304D02*
X0146115Y0057553D01*
X0144613Y0057553D01*
X0143863Y0058304D01*
X0142261Y0057553D02*
X0140760Y0059054D01*
X0141511Y0059054D02*
X0139259Y0059054D01*
X0139259Y0057553D02*
X0139259Y0062057D01*
X0141511Y0062057D01*
X0142261Y0061306D01*
X0142261Y0059805D01*
X0141511Y0059054D01*
X0143863Y0061306D02*
X0144613Y0062057D01*
X0146115Y0062057D01*
X0146865Y0061306D01*
X0146865Y0060556D01*
X0146115Y0059805D01*
X0146865Y0059054D01*
X0146865Y0058304D01*
X0146115Y0059805D02*
X0145364Y0059805D01*
X0145407Y0126679D02*
X0143906Y0126679D01*
X0143156Y0127430D01*
X0143156Y0130432D01*
X0143906Y0131183D01*
X0145407Y0131183D01*
X0146158Y0130432D01*
X0147759Y0130432D02*
X0148510Y0131183D01*
X0150011Y0131183D01*
X0150762Y0130432D01*
X0150762Y0129682D01*
X0147759Y0126679D01*
X0150762Y0126679D01*
X0146158Y0127430D02*
X0145407Y0126679D01*
X0089967Y0134053D02*
X0089967Y0135554D01*
X0089967Y0134804D02*
X0085463Y0134804D01*
X0085463Y0135554D02*
X0085463Y0134053D01*
X0086213Y0137122D02*
X0089216Y0137122D01*
X0089967Y0137873D01*
X0089967Y0139374D01*
X0089216Y0140125D01*
X0089967Y0141726D02*
X0086964Y0144729D01*
X0086213Y0144729D01*
X0085463Y0143978D01*
X0085463Y0142477D01*
X0086213Y0141726D01*
X0086213Y0140125D02*
X0085463Y0139374D01*
X0085463Y0137873D01*
X0086213Y0137122D01*
X0089967Y0141726D02*
X0089967Y0144729D01*
X0079967Y0147804D02*
X0079967Y0149305D01*
X0079216Y0150056D01*
X0079967Y0151657D02*
X0079967Y0154660D01*
X0079967Y0153158D02*
X0075463Y0153158D01*
X0076964Y0151657D01*
X0076213Y0150056D02*
X0075463Y0149305D01*
X0075463Y0147804D01*
X0076213Y0147053D01*
X0079216Y0147053D01*
X0079967Y0147804D01*
X0074718Y0156053D02*
X0073217Y0156053D01*
X0072467Y0156804D01*
X0072467Y0158305D01*
X0074718Y0158305D01*
X0075469Y0157554D01*
X0075469Y0156804D01*
X0074718Y0156053D01*
X0072467Y0158305D02*
X0073968Y0159806D01*
X0075469Y0160557D01*
X0045468Y0141557D02*
X0045468Y0137053D01*
X0043967Y0137053D02*
X0046969Y0137053D01*
X0043967Y0140056D02*
X0045468Y0141557D01*
X0054467Y0133309D02*
X0056718Y0133309D01*
X0057469Y0132558D01*
X0057469Y0131057D01*
X0056718Y0130306D01*
X0054467Y0130306D01*
X0055968Y0130306D02*
X0057469Y0128805D01*
X0059070Y0129556D02*
X0059821Y0128805D01*
X0061322Y0128805D01*
X0062073Y0129556D01*
X0062073Y0131057D01*
X0061322Y0131808D01*
X0060572Y0131808D01*
X0059070Y0131057D01*
X0059070Y0133309D01*
X0062073Y0133309D01*
X0054467Y0133309D02*
X0054467Y0128805D01*
X0029967Y0129556D02*
X0028465Y0128054D01*
X0028465Y0128805D02*
X0028465Y0126553D01*
X0029967Y0126553D02*
X0025463Y0126553D01*
X0025463Y0128805D01*
X0026213Y0129556D01*
X0027715Y0129556D01*
X0028465Y0128805D01*
X0027715Y0131157D02*
X0027715Y0134160D01*
X0029967Y0133409D02*
X0025463Y0133409D01*
X0027715Y0131157D01*
X0063906Y0239179D02*
X0065407Y0239179D01*
X0066158Y0239930D01*
X0067759Y0239930D02*
X0067759Y0241431D01*
X0070011Y0241431D01*
X0070762Y0240680D01*
X0070762Y0239930D01*
X0070011Y0239179D01*
X0068510Y0239179D01*
X0067759Y0239930D01*
X0067759Y0241431D02*
X0069261Y0242932D01*
X0070762Y0243683D01*
X0066158Y0242932D02*
X0065407Y0243683D01*
X0063906Y0243683D01*
X0063156Y0242932D01*
X0063156Y0239930D01*
X0063906Y0239179D01*
X0072217Y0266553D02*
X0071467Y0267304D01*
X0071467Y0270306D01*
X0072217Y0271057D01*
X0073718Y0271057D01*
X0074469Y0270306D01*
X0074469Y0267304D01*
X0073718Y0266553D01*
X0072217Y0266553D01*
X0072968Y0268054D02*
X0074469Y0266553D01*
X0076070Y0266553D02*
X0079073Y0269556D01*
X0079073Y0270306D01*
X0078322Y0271057D01*
X0076821Y0271057D01*
X0076070Y0270306D01*
X0076070Y0266553D02*
X0079073Y0266553D01*
X0343545Y0163123D02*
X0343545Y0161622D01*
X0344296Y0160871D01*
X0345047Y0160871D01*
X0345797Y0161622D01*
X0345797Y0163123D01*
X0346548Y0163874D01*
X0347299Y0163874D01*
X0348049Y0163123D01*
X0348049Y0161622D01*
X0347299Y0160871D01*
X0346548Y0160871D01*
X0345797Y0161622D01*
X0345797Y0163123D02*
X0345047Y0163874D01*
X0344296Y0163874D01*
X0343545Y0163123D01*
X0343545Y0159270D02*
X0346548Y0159270D01*
X0348049Y0157769D01*
X0346548Y0156267D01*
X0343545Y0156267D01*
X0344296Y0154666D02*
X0343545Y0153915D01*
X0343545Y0152414D01*
X0344296Y0151663D01*
X0345047Y0151663D01*
X0345797Y0152414D01*
X0345797Y0153915D01*
X0346548Y0154666D01*
X0347299Y0154666D01*
X0348049Y0153915D01*
X0348049Y0152414D01*
X0347299Y0151663D01*
X0352545Y0148165D02*
X0357049Y0148165D01*
X0357049Y0149666D02*
X0357049Y0146663D01*
X0354047Y0146663D02*
X0352545Y0148165D01*
D15*
X0241217Y0117303D03*
D16*
X0258467Y0119803D03*
X0223967Y0119803D03*
D17*
X0236217Y0119803D03*
X0246217Y0119803D03*
D18*
X0104772Y0037488D02*
X0045772Y0037488D01*
X0045437Y0037937D02*
X0045437Y0107469D01*
X0045437Y0107508D02*
X0051272Y0107508D01*
X0051272Y0105488D01*
X0056772Y0105508D01*
X0056772Y0105488D02*
X0056772Y0098988D01*
X0093772Y0098988D01*
X0093772Y0083988D01*
X0056772Y0083988D01*
X0056772Y0088988D01*
X0056772Y0096988D02*
X0056772Y0098988D01*
X0099272Y0105488D02*
X0099272Y0107468D01*
X0099272Y0107508D01*
X0099272Y0107468D02*
X0105106Y0107469D01*
X0105106Y0037937D01*
X0281657Y0037937D02*
X0281657Y0107469D01*
X0281657Y0107508D02*
X0287492Y0107508D01*
X0287492Y0105488D01*
X0292992Y0105508D01*
X0292992Y0105488D02*
X0292992Y0098988D01*
X0329992Y0098988D01*
X0329992Y0083988D01*
X0292992Y0083988D01*
X0292992Y0088988D01*
X0292992Y0096988D02*
X0292992Y0098988D01*
X0335492Y0105488D02*
X0335492Y0107468D01*
X0335492Y0107508D01*
X0335492Y0107468D02*
X0341327Y0107469D01*
X0341327Y0037937D01*
X0340992Y0037488D02*
X0281992Y0037488D01*
X0043717Y0173303D02*
X0028717Y0173303D01*
D19*
X0079217Y0247303D02*
X0103217Y0247303D01*
X0103424Y0247306D01*
X0103631Y0247313D01*
X0103837Y0247326D01*
X0104044Y0247343D01*
X0104249Y0247366D01*
X0104455Y0247394D01*
X0104659Y0247426D01*
X0104863Y0247464D01*
X0105065Y0247506D01*
X0105267Y0247554D01*
X0105467Y0247606D01*
X0105666Y0247663D01*
X0105863Y0247725D01*
X0106059Y0247792D01*
X0106253Y0247864D01*
X0106446Y0247940D01*
X0106636Y0248021D01*
X0106825Y0248107D01*
X0107011Y0248197D01*
X0107195Y0248291D01*
X0107377Y0248391D01*
X0107556Y0248494D01*
X0107733Y0248602D01*
X0107907Y0248714D01*
X0108078Y0248830D01*
X0108247Y0248951D01*
X0108412Y0249075D01*
X0108574Y0249204D01*
X0108733Y0249336D01*
X0108889Y0249472D01*
X0109042Y0249612D01*
X0109191Y0249756D01*
X0109336Y0249903D01*
X0109478Y0250054D01*
X0109616Y0250208D01*
X0109751Y0250366D01*
X0109881Y0250526D01*
X0110007Y0250690D01*
X0110130Y0250857D01*
X0110248Y0251027D01*
X0110363Y0251200D01*
X0110473Y0251375D01*
X0110578Y0251553D01*
X0110680Y0251734D01*
X0110776Y0251916D01*
X0110869Y0252102D01*
X0110957Y0252289D01*
X0111040Y0252479D01*
X0111119Y0252670D01*
X0111193Y0252863D01*
X0111262Y0253059D01*
X0111326Y0253255D01*
X0111386Y0253453D01*
X0111441Y0253653D01*
X0111491Y0253854D01*
X0111536Y0254056D01*
X0111576Y0254259D01*
X0111611Y0254463D01*
X0111641Y0254668D01*
X0111666Y0254873D01*
X0111686Y0255079D01*
X0111701Y0255286D01*
X0111711Y0255493D01*
X0111716Y0255700D01*
X0111716Y0255906D01*
X0111711Y0256113D01*
X0111701Y0256320D01*
X0111686Y0256527D01*
X0111666Y0256733D01*
X0111641Y0256938D01*
X0111611Y0257143D01*
X0111576Y0257347D01*
X0111536Y0257550D01*
X0111491Y0257752D01*
X0111441Y0257953D01*
X0111386Y0258153D01*
X0111326Y0258351D01*
X0111262Y0258547D01*
X0111193Y0258743D01*
X0111119Y0258936D01*
X0111040Y0259127D01*
X0110957Y0259317D01*
X0110869Y0259504D01*
X0110776Y0259690D01*
X0110680Y0259872D01*
X0110578Y0260053D01*
X0110473Y0260231D01*
X0110363Y0260406D01*
X0110248Y0260579D01*
X0110130Y0260749D01*
X0110007Y0260916D01*
X0109881Y0261080D01*
X0109751Y0261240D01*
X0109616Y0261398D01*
X0109478Y0261552D01*
X0109336Y0261703D01*
X0109191Y0261850D01*
X0109042Y0261994D01*
X0108889Y0262134D01*
X0108733Y0262270D01*
X0108574Y0262402D01*
X0108412Y0262531D01*
X0108247Y0262655D01*
X0108078Y0262776D01*
X0107907Y0262892D01*
X0107733Y0263004D01*
X0107556Y0263112D01*
X0107377Y0263215D01*
X0107195Y0263315D01*
X0107011Y0263409D01*
X0106825Y0263499D01*
X0106636Y0263585D01*
X0106446Y0263666D01*
X0106253Y0263742D01*
X0106059Y0263814D01*
X0105863Y0263881D01*
X0105666Y0263943D01*
X0105467Y0264000D01*
X0105267Y0264052D01*
X0105065Y0264100D01*
X0104863Y0264142D01*
X0104659Y0264180D01*
X0104455Y0264212D01*
X0104249Y0264240D01*
X0104044Y0264263D01*
X0103837Y0264280D01*
X0103631Y0264293D01*
X0103424Y0264300D01*
X0103217Y0264303D01*
X0079217Y0264303D01*
X0079010Y0264300D01*
X0078803Y0264293D01*
X0078597Y0264280D01*
X0078390Y0264263D01*
X0078185Y0264240D01*
X0077979Y0264212D01*
X0077775Y0264180D01*
X0077571Y0264142D01*
X0077369Y0264100D01*
X0077167Y0264052D01*
X0076967Y0264000D01*
X0076768Y0263943D01*
X0076571Y0263881D01*
X0076375Y0263814D01*
X0076181Y0263742D01*
X0075988Y0263666D01*
X0075798Y0263585D01*
X0075609Y0263499D01*
X0075423Y0263409D01*
X0075239Y0263315D01*
X0075057Y0263215D01*
X0074878Y0263112D01*
X0074701Y0263004D01*
X0074527Y0262892D01*
X0074356Y0262776D01*
X0074187Y0262655D01*
X0074022Y0262531D01*
X0073860Y0262402D01*
X0073701Y0262270D01*
X0073545Y0262134D01*
X0073392Y0261994D01*
X0073243Y0261850D01*
X0073098Y0261703D01*
X0072956Y0261552D01*
X0072818Y0261398D01*
X0072683Y0261240D01*
X0072553Y0261080D01*
X0072427Y0260916D01*
X0072304Y0260749D01*
X0072186Y0260579D01*
X0072071Y0260406D01*
X0071961Y0260231D01*
X0071856Y0260053D01*
X0071754Y0259872D01*
X0071658Y0259690D01*
X0071565Y0259504D01*
X0071477Y0259317D01*
X0071394Y0259127D01*
X0071315Y0258936D01*
X0071241Y0258743D01*
X0071172Y0258547D01*
X0071108Y0258351D01*
X0071048Y0258153D01*
X0070993Y0257953D01*
X0070943Y0257752D01*
X0070898Y0257550D01*
X0070858Y0257347D01*
X0070823Y0257143D01*
X0070793Y0256938D01*
X0070768Y0256733D01*
X0070748Y0256527D01*
X0070733Y0256320D01*
X0070723Y0256113D01*
X0070718Y0255906D01*
X0070718Y0255700D01*
X0070723Y0255493D01*
X0070733Y0255286D01*
X0070748Y0255079D01*
X0070768Y0254873D01*
X0070793Y0254668D01*
X0070823Y0254463D01*
X0070858Y0254259D01*
X0070898Y0254056D01*
X0070943Y0253854D01*
X0070993Y0253653D01*
X0071048Y0253453D01*
X0071108Y0253255D01*
X0071172Y0253059D01*
X0071241Y0252863D01*
X0071315Y0252670D01*
X0071394Y0252479D01*
X0071477Y0252289D01*
X0071565Y0252102D01*
X0071658Y0251916D01*
X0071754Y0251734D01*
X0071856Y0251553D01*
X0071961Y0251375D01*
X0072071Y0251200D01*
X0072186Y0251027D01*
X0072304Y0250857D01*
X0072427Y0250690D01*
X0072553Y0250526D01*
X0072683Y0250366D01*
X0072818Y0250208D01*
X0072956Y0250054D01*
X0073098Y0249903D01*
X0073243Y0249756D01*
X0073392Y0249612D01*
X0073545Y0249472D01*
X0073701Y0249336D01*
X0073860Y0249204D01*
X0074022Y0249075D01*
X0074187Y0248951D01*
X0074356Y0248830D01*
X0074527Y0248714D01*
X0074701Y0248602D01*
X0074878Y0248494D01*
X0075057Y0248391D01*
X0075239Y0248291D01*
X0075423Y0248197D01*
X0075609Y0248107D01*
X0075798Y0248021D01*
X0075988Y0247940D01*
X0076181Y0247864D01*
X0076375Y0247792D01*
X0076571Y0247725D01*
X0076768Y0247663D01*
X0076967Y0247606D01*
X0077167Y0247554D01*
X0077369Y0247506D01*
X0077571Y0247464D01*
X0077775Y0247426D01*
X0077979Y0247394D01*
X0078185Y0247366D01*
X0078390Y0247343D01*
X0078597Y0247326D01*
X0078803Y0247313D01*
X0079010Y0247306D01*
X0079217Y0247303D01*
X0185217Y0150303D02*
X0185217Y0126303D01*
X0185220Y0126096D01*
X0185227Y0125889D01*
X0185240Y0125683D01*
X0185257Y0125476D01*
X0185280Y0125271D01*
X0185308Y0125065D01*
X0185340Y0124861D01*
X0185378Y0124657D01*
X0185420Y0124455D01*
X0185468Y0124253D01*
X0185520Y0124053D01*
X0185577Y0123854D01*
X0185639Y0123657D01*
X0185706Y0123461D01*
X0185778Y0123267D01*
X0185854Y0123074D01*
X0185935Y0122884D01*
X0186021Y0122695D01*
X0186111Y0122509D01*
X0186205Y0122325D01*
X0186305Y0122143D01*
X0186408Y0121964D01*
X0186516Y0121787D01*
X0186628Y0121613D01*
X0186744Y0121442D01*
X0186865Y0121273D01*
X0186989Y0121108D01*
X0187118Y0120946D01*
X0187250Y0120787D01*
X0187386Y0120631D01*
X0187526Y0120478D01*
X0187670Y0120329D01*
X0187817Y0120184D01*
X0187968Y0120042D01*
X0188122Y0119904D01*
X0188280Y0119769D01*
X0188440Y0119639D01*
X0188604Y0119513D01*
X0188771Y0119390D01*
X0188941Y0119272D01*
X0189114Y0119157D01*
X0189289Y0119047D01*
X0189467Y0118942D01*
X0189648Y0118840D01*
X0189830Y0118744D01*
X0190016Y0118651D01*
X0190203Y0118563D01*
X0190393Y0118480D01*
X0190584Y0118401D01*
X0190777Y0118327D01*
X0190973Y0118258D01*
X0191169Y0118194D01*
X0191367Y0118134D01*
X0191567Y0118079D01*
X0191768Y0118029D01*
X0191970Y0117984D01*
X0192173Y0117944D01*
X0192377Y0117909D01*
X0192582Y0117879D01*
X0192787Y0117854D01*
X0192993Y0117834D01*
X0193200Y0117819D01*
X0193407Y0117809D01*
X0193614Y0117804D01*
X0193820Y0117804D01*
X0194027Y0117809D01*
X0194234Y0117819D01*
X0194441Y0117834D01*
X0194647Y0117854D01*
X0194852Y0117879D01*
X0195057Y0117909D01*
X0195261Y0117944D01*
X0195464Y0117984D01*
X0195666Y0118029D01*
X0195867Y0118079D01*
X0196067Y0118134D01*
X0196265Y0118194D01*
X0196461Y0118258D01*
X0196657Y0118327D01*
X0196850Y0118401D01*
X0197041Y0118480D01*
X0197231Y0118563D01*
X0197418Y0118651D01*
X0197604Y0118744D01*
X0197786Y0118840D01*
X0197967Y0118942D01*
X0198145Y0119047D01*
X0198320Y0119157D01*
X0198493Y0119272D01*
X0198663Y0119390D01*
X0198830Y0119513D01*
X0198994Y0119639D01*
X0199154Y0119769D01*
X0199312Y0119904D01*
X0199466Y0120042D01*
X0199617Y0120184D01*
X0199764Y0120329D01*
X0199908Y0120478D01*
X0200048Y0120631D01*
X0200184Y0120787D01*
X0200316Y0120946D01*
X0200445Y0121108D01*
X0200569Y0121273D01*
X0200690Y0121442D01*
X0200806Y0121613D01*
X0200918Y0121787D01*
X0201026Y0121964D01*
X0201129Y0122143D01*
X0201229Y0122325D01*
X0201323Y0122509D01*
X0201413Y0122695D01*
X0201499Y0122884D01*
X0201580Y0123074D01*
X0201656Y0123267D01*
X0201728Y0123461D01*
X0201795Y0123657D01*
X0201857Y0123854D01*
X0201914Y0124053D01*
X0201966Y0124253D01*
X0202014Y0124455D01*
X0202056Y0124657D01*
X0202094Y0124861D01*
X0202126Y0125065D01*
X0202154Y0125271D01*
X0202177Y0125476D01*
X0202194Y0125683D01*
X0202207Y0125889D01*
X0202214Y0126096D01*
X0202217Y0126303D01*
X0202217Y0150303D01*
X0202214Y0150510D01*
X0202207Y0150717D01*
X0202194Y0150923D01*
X0202177Y0151130D01*
X0202154Y0151335D01*
X0202126Y0151541D01*
X0202094Y0151745D01*
X0202056Y0151949D01*
X0202014Y0152151D01*
X0201966Y0152353D01*
X0201914Y0152553D01*
X0201857Y0152752D01*
X0201795Y0152949D01*
X0201728Y0153145D01*
X0201656Y0153339D01*
X0201580Y0153532D01*
X0201499Y0153722D01*
X0201413Y0153911D01*
X0201323Y0154097D01*
X0201229Y0154281D01*
X0201129Y0154463D01*
X0201026Y0154642D01*
X0200918Y0154819D01*
X0200806Y0154993D01*
X0200690Y0155164D01*
X0200569Y0155333D01*
X0200445Y0155498D01*
X0200316Y0155660D01*
X0200184Y0155819D01*
X0200048Y0155975D01*
X0199908Y0156128D01*
X0199764Y0156277D01*
X0199617Y0156422D01*
X0199466Y0156564D01*
X0199312Y0156702D01*
X0199154Y0156837D01*
X0198994Y0156967D01*
X0198830Y0157093D01*
X0198663Y0157216D01*
X0198493Y0157334D01*
X0198320Y0157449D01*
X0198145Y0157559D01*
X0197967Y0157664D01*
X0197786Y0157766D01*
X0197604Y0157862D01*
X0197418Y0157955D01*
X0197231Y0158043D01*
X0197041Y0158126D01*
X0196850Y0158205D01*
X0196657Y0158279D01*
X0196461Y0158348D01*
X0196265Y0158412D01*
X0196067Y0158472D01*
X0195867Y0158527D01*
X0195666Y0158577D01*
X0195464Y0158622D01*
X0195261Y0158662D01*
X0195057Y0158697D01*
X0194852Y0158727D01*
X0194647Y0158752D01*
X0194441Y0158772D01*
X0194234Y0158787D01*
X0194027Y0158797D01*
X0193820Y0158802D01*
X0193614Y0158802D01*
X0193407Y0158797D01*
X0193200Y0158787D01*
X0192993Y0158772D01*
X0192787Y0158752D01*
X0192582Y0158727D01*
X0192377Y0158697D01*
X0192173Y0158662D01*
X0191970Y0158622D01*
X0191768Y0158577D01*
X0191567Y0158527D01*
X0191367Y0158472D01*
X0191169Y0158412D01*
X0190973Y0158348D01*
X0190777Y0158279D01*
X0190584Y0158205D01*
X0190393Y0158126D01*
X0190203Y0158043D01*
X0190016Y0157955D01*
X0189830Y0157862D01*
X0189648Y0157766D01*
X0189467Y0157664D01*
X0189289Y0157559D01*
X0189114Y0157449D01*
X0188941Y0157334D01*
X0188771Y0157216D01*
X0188604Y0157093D01*
X0188440Y0156967D01*
X0188280Y0156837D01*
X0188122Y0156702D01*
X0187968Y0156564D01*
X0187817Y0156422D01*
X0187670Y0156277D01*
X0187526Y0156128D01*
X0187386Y0155975D01*
X0187250Y0155819D01*
X0187118Y0155660D01*
X0186989Y0155498D01*
X0186865Y0155333D01*
X0186744Y0155164D01*
X0186628Y0154993D01*
X0186516Y0154819D01*
X0186408Y0154642D01*
X0186305Y0154463D01*
X0186205Y0154281D01*
X0186111Y0154097D01*
X0186021Y0153911D01*
X0185935Y0153722D01*
X0185854Y0153532D01*
X0185778Y0153339D01*
X0185706Y0153145D01*
X0185639Y0152949D01*
X0185577Y0152752D01*
X0185520Y0152553D01*
X0185468Y0152353D01*
X0185420Y0152151D01*
X0185378Y0151949D01*
X0185340Y0151745D01*
X0185308Y0151541D01*
X0185280Y0151335D01*
X0185257Y0151130D01*
X0185240Y0150923D01*
X0185227Y0150717D01*
X0185220Y0150510D01*
X0185217Y0150303D01*
D20*
X0301217Y0156603D03*
X0311217Y0156603D03*
X0321217Y0156603D03*
X0331217Y0156603D03*
X0331217Y0185003D03*
X0321217Y0185003D03*
X0311217Y0185003D03*
X0301217Y0185003D03*
X0301217Y0204103D03*
X0311217Y0204103D03*
X0321217Y0204103D03*
X0331217Y0204103D03*
X0331217Y0232503D03*
X0321217Y0232503D03*
X0311217Y0232503D03*
X0301217Y0232503D03*
X0036217Y0152503D03*
X0036217Y0124103D03*
D21*
X0052017Y0138303D03*
X0080417Y0138303D03*
X0122017Y0068303D03*
X0150417Y0068303D03*
M02*
