G75*
%MOIN*%
%OFA0B0*%
%FSLAX25Y25*%
%IPPOS*%
%LPD*%
%AMOC8*
5,1,8,0,0,1.08239X$1,22.5*
%
%ADD10C,0.00000*%
%ADD11C,0.12598*%
%ADD12R,0.07874X0.04724*%
%ADD13R,0.04724X0.07874*%
%ADD14R,0.05118X0.05906*%
%ADD15R,0.04600X0.06300*%
%ADD16R,0.00600X0.07200*%
%ADD17C,0.04800*%
%ADD18C,0.04331*%
%ADD19C,0.05250*%
%ADD20C,0.12800*%
%ADD21C,0.04724*%
%ADD22C,0.13843*%
%ADD23C,0.12661*%
D10*
X0028845Y0038800D02*
X0028845Y0170050D01*
X0028848Y0170292D01*
X0028857Y0170533D01*
X0028871Y0170774D01*
X0028892Y0171015D01*
X0028918Y0171255D01*
X0028950Y0171495D01*
X0028988Y0171734D01*
X0029031Y0171971D01*
X0029081Y0172208D01*
X0029136Y0172443D01*
X0029196Y0172677D01*
X0029263Y0172909D01*
X0029334Y0173140D01*
X0029412Y0173369D01*
X0029495Y0173596D01*
X0029583Y0173821D01*
X0029677Y0174044D01*
X0029776Y0174264D01*
X0029881Y0174482D01*
X0029990Y0174697D01*
X0030105Y0174910D01*
X0030225Y0175120D01*
X0030350Y0175326D01*
X0030480Y0175530D01*
X0030615Y0175731D01*
X0030755Y0175928D01*
X0030899Y0176122D01*
X0031048Y0176312D01*
X0031202Y0176498D01*
X0031360Y0176681D01*
X0031522Y0176860D01*
X0031689Y0177035D01*
X0031860Y0177206D01*
X0032035Y0177373D01*
X0032214Y0177535D01*
X0032397Y0177693D01*
X0032583Y0177847D01*
X0032773Y0177996D01*
X0032967Y0178140D01*
X0033164Y0178280D01*
X0033365Y0178415D01*
X0033569Y0178545D01*
X0033775Y0178670D01*
X0033985Y0178790D01*
X0034198Y0178905D01*
X0034413Y0179014D01*
X0034631Y0179119D01*
X0034851Y0179218D01*
X0035074Y0179312D01*
X0035299Y0179400D01*
X0035526Y0179483D01*
X0035755Y0179561D01*
X0035986Y0179632D01*
X0036218Y0179699D01*
X0036452Y0179759D01*
X0036687Y0179814D01*
X0036924Y0179864D01*
X0037161Y0179907D01*
X0037400Y0179945D01*
X0037640Y0179977D01*
X0037880Y0180003D01*
X0038121Y0180024D01*
X0038362Y0180038D01*
X0038603Y0180047D01*
X0038845Y0180050D01*
X0051345Y0180050D01*
X0053845Y0182550D02*
X0053843Y0182648D01*
X0053837Y0182746D01*
X0053828Y0182844D01*
X0053814Y0182941D01*
X0053797Y0183038D01*
X0053776Y0183134D01*
X0053751Y0183229D01*
X0053723Y0183323D01*
X0053690Y0183415D01*
X0053655Y0183507D01*
X0053615Y0183597D01*
X0053573Y0183685D01*
X0053526Y0183772D01*
X0053477Y0183856D01*
X0053424Y0183939D01*
X0053368Y0184019D01*
X0053308Y0184098D01*
X0053246Y0184174D01*
X0053181Y0184247D01*
X0053113Y0184318D01*
X0053042Y0184386D01*
X0052969Y0184451D01*
X0052893Y0184513D01*
X0052814Y0184573D01*
X0052734Y0184629D01*
X0052651Y0184682D01*
X0052567Y0184731D01*
X0052480Y0184778D01*
X0052392Y0184820D01*
X0052302Y0184860D01*
X0052210Y0184895D01*
X0052118Y0184928D01*
X0052024Y0184956D01*
X0051929Y0184981D01*
X0051833Y0185002D01*
X0051736Y0185019D01*
X0051639Y0185033D01*
X0051541Y0185042D01*
X0051443Y0185048D01*
X0051345Y0185050D01*
X0037595Y0185050D01*
X0037384Y0185053D01*
X0037172Y0185060D01*
X0036961Y0185073D01*
X0036751Y0185091D01*
X0036540Y0185114D01*
X0036331Y0185142D01*
X0036122Y0185175D01*
X0035914Y0185213D01*
X0035707Y0185256D01*
X0035501Y0185304D01*
X0035296Y0185357D01*
X0035093Y0185415D01*
X0034891Y0185478D01*
X0034691Y0185546D01*
X0034492Y0185619D01*
X0034295Y0185696D01*
X0034101Y0185778D01*
X0033908Y0185865D01*
X0033717Y0185956D01*
X0033529Y0186052D01*
X0033343Y0186153D01*
X0033159Y0186258D01*
X0032978Y0186367D01*
X0032800Y0186481D01*
X0032624Y0186599D01*
X0032452Y0186721D01*
X0032282Y0186847D01*
X0032116Y0186978D01*
X0031953Y0187112D01*
X0031793Y0187251D01*
X0031636Y0187393D01*
X0031483Y0187539D01*
X0031334Y0187688D01*
X0031188Y0187841D01*
X0031046Y0187998D01*
X0030907Y0188158D01*
X0030773Y0188321D01*
X0030642Y0188487D01*
X0030516Y0188657D01*
X0030394Y0188829D01*
X0030276Y0189005D01*
X0030162Y0189183D01*
X0030053Y0189364D01*
X0029948Y0189548D01*
X0029847Y0189734D01*
X0029751Y0189922D01*
X0029660Y0190113D01*
X0029573Y0190306D01*
X0029491Y0190500D01*
X0029414Y0190697D01*
X0029341Y0190896D01*
X0029273Y0191096D01*
X0029210Y0191298D01*
X0029152Y0191501D01*
X0029099Y0191706D01*
X0029051Y0191912D01*
X0029008Y0192119D01*
X0028970Y0192327D01*
X0028937Y0192536D01*
X0028909Y0192745D01*
X0028886Y0192956D01*
X0028868Y0193166D01*
X0028855Y0193377D01*
X0028848Y0193589D01*
X0028845Y0193800D01*
X0028845Y0267550D01*
X0028848Y0267792D01*
X0028857Y0268033D01*
X0028871Y0268274D01*
X0028892Y0268515D01*
X0028918Y0268755D01*
X0028950Y0268995D01*
X0028988Y0269234D01*
X0029031Y0269471D01*
X0029081Y0269708D01*
X0029136Y0269943D01*
X0029196Y0270177D01*
X0029263Y0270409D01*
X0029334Y0270640D01*
X0029412Y0270869D01*
X0029495Y0271096D01*
X0029583Y0271321D01*
X0029677Y0271544D01*
X0029776Y0271764D01*
X0029881Y0271982D01*
X0029990Y0272197D01*
X0030105Y0272410D01*
X0030225Y0272620D01*
X0030350Y0272826D01*
X0030480Y0273030D01*
X0030615Y0273231D01*
X0030755Y0273428D01*
X0030899Y0273622D01*
X0031048Y0273812D01*
X0031202Y0273998D01*
X0031360Y0274181D01*
X0031522Y0274360D01*
X0031689Y0274535D01*
X0031860Y0274706D01*
X0032035Y0274873D01*
X0032214Y0275035D01*
X0032397Y0275193D01*
X0032583Y0275347D01*
X0032773Y0275496D01*
X0032967Y0275640D01*
X0033164Y0275780D01*
X0033365Y0275915D01*
X0033569Y0276045D01*
X0033775Y0276170D01*
X0033985Y0276290D01*
X0034198Y0276405D01*
X0034413Y0276514D01*
X0034631Y0276619D01*
X0034851Y0276718D01*
X0035074Y0276812D01*
X0035299Y0276900D01*
X0035526Y0276983D01*
X0035755Y0277061D01*
X0035986Y0277132D01*
X0036218Y0277199D01*
X0036452Y0277259D01*
X0036687Y0277314D01*
X0036924Y0277364D01*
X0037161Y0277407D01*
X0037400Y0277445D01*
X0037640Y0277477D01*
X0037880Y0277503D01*
X0038121Y0277524D01*
X0038362Y0277538D01*
X0038603Y0277547D01*
X0038845Y0277550D01*
X0112595Y0277550D01*
X0112837Y0277547D01*
X0113078Y0277538D01*
X0113319Y0277524D01*
X0113560Y0277503D01*
X0113800Y0277477D01*
X0114040Y0277445D01*
X0114279Y0277407D01*
X0114516Y0277364D01*
X0114753Y0277314D01*
X0114988Y0277259D01*
X0115222Y0277199D01*
X0115454Y0277132D01*
X0115685Y0277061D01*
X0115914Y0276983D01*
X0116141Y0276900D01*
X0116366Y0276812D01*
X0116589Y0276718D01*
X0116809Y0276619D01*
X0117027Y0276514D01*
X0117242Y0276405D01*
X0117455Y0276290D01*
X0117665Y0276170D01*
X0117871Y0276045D01*
X0118075Y0275915D01*
X0118276Y0275780D01*
X0118473Y0275640D01*
X0118667Y0275496D01*
X0118857Y0275347D01*
X0119043Y0275193D01*
X0119226Y0275035D01*
X0119405Y0274873D01*
X0119580Y0274706D01*
X0119751Y0274535D01*
X0119918Y0274360D01*
X0120080Y0274181D01*
X0120238Y0273998D01*
X0120392Y0273812D01*
X0120541Y0273622D01*
X0120685Y0273428D01*
X0120825Y0273231D01*
X0120960Y0273030D01*
X0121090Y0272826D01*
X0121215Y0272620D01*
X0121335Y0272410D01*
X0121450Y0272197D01*
X0121559Y0271982D01*
X0121664Y0271764D01*
X0121763Y0271544D01*
X0121857Y0271321D01*
X0121945Y0271096D01*
X0122028Y0270869D01*
X0122106Y0270640D01*
X0122177Y0270409D01*
X0122244Y0270177D01*
X0122304Y0269943D01*
X0122359Y0269708D01*
X0122409Y0269471D01*
X0122452Y0269234D01*
X0122490Y0268995D01*
X0122522Y0268755D01*
X0122548Y0268515D01*
X0122569Y0268274D01*
X0122583Y0268033D01*
X0122592Y0267792D01*
X0122595Y0267550D01*
X0122595Y0195050D01*
X0122592Y0194808D01*
X0122583Y0194567D01*
X0122569Y0194326D01*
X0122548Y0194085D01*
X0122522Y0193845D01*
X0122490Y0193605D01*
X0122452Y0193366D01*
X0122409Y0193129D01*
X0122359Y0192892D01*
X0122304Y0192657D01*
X0122244Y0192423D01*
X0122177Y0192191D01*
X0122106Y0191960D01*
X0122028Y0191731D01*
X0121945Y0191504D01*
X0121857Y0191279D01*
X0121763Y0191056D01*
X0121664Y0190836D01*
X0121559Y0190618D01*
X0121450Y0190403D01*
X0121335Y0190190D01*
X0121215Y0189980D01*
X0121090Y0189774D01*
X0120960Y0189570D01*
X0120825Y0189369D01*
X0120685Y0189172D01*
X0120541Y0188978D01*
X0120392Y0188788D01*
X0120238Y0188602D01*
X0120080Y0188419D01*
X0119918Y0188240D01*
X0119751Y0188065D01*
X0119580Y0187894D01*
X0119405Y0187727D01*
X0119226Y0187565D01*
X0119043Y0187407D01*
X0118857Y0187253D01*
X0118667Y0187104D01*
X0118473Y0186960D01*
X0118276Y0186820D01*
X0118075Y0186685D01*
X0117871Y0186555D01*
X0117665Y0186430D01*
X0117455Y0186310D01*
X0117242Y0186195D01*
X0117027Y0186086D01*
X0116809Y0185981D01*
X0116589Y0185882D01*
X0116366Y0185788D01*
X0116141Y0185700D01*
X0115914Y0185617D01*
X0115685Y0185539D01*
X0115454Y0185468D01*
X0115222Y0185401D01*
X0114988Y0185341D01*
X0114753Y0185286D01*
X0114516Y0185236D01*
X0114279Y0185193D01*
X0114040Y0185155D01*
X0113800Y0185123D01*
X0113560Y0185097D01*
X0113319Y0185076D01*
X0113078Y0185062D01*
X0112837Y0185053D01*
X0112595Y0185050D01*
X0100095Y0185050D01*
X0099997Y0185048D01*
X0099899Y0185042D01*
X0099801Y0185033D01*
X0099704Y0185019D01*
X0099607Y0185002D01*
X0099511Y0184981D01*
X0099416Y0184956D01*
X0099322Y0184928D01*
X0099230Y0184895D01*
X0099138Y0184860D01*
X0099048Y0184820D01*
X0098960Y0184778D01*
X0098873Y0184731D01*
X0098789Y0184682D01*
X0098706Y0184629D01*
X0098626Y0184573D01*
X0098547Y0184513D01*
X0098471Y0184451D01*
X0098398Y0184386D01*
X0098327Y0184318D01*
X0098259Y0184247D01*
X0098194Y0184174D01*
X0098132Y0184098D01*
X0098072Y0184019D01*
X0098016Y0183939D01*
X0097963Y0183856D01*
X0097914Y0183772D01*
X0097867Y0183685D01*
X0097825Y0183597D01*
X0097785Y0183507D01*
X0097750Y0183415D01*
X0097717Y0183323D01*
X0097689Y0183229D01*
X0097664Y0183134D01*
X0097643Y0183038D01*
X0097626Y0182941D01*
X0097612Y0182844D01*
X0097603Y0182746D01*
X0097597Y0182648D01*
X0097595Y0182550D01*
X0097597Y0182452D01*
X0097603Y0182354D01*
X0097612Y0182256D01*
X0097626Y0182159D01*
X0097643Y0182062D01*
X0097664Y0181966D01*
X0097689Y0181871D01*
X0097717Y0181777D01*
X0097750Y0181685D01*
X0097785Y0181593D01*
X0097825Y0181503D01*
X0097867Y0181415D01*
X0097914Y0181328D01*
X0097963Y0181244D01*
X0098016Y0181161D01*
X0098072Y0181081D01*
X0098132Y0181002D01*
X0098194Y0180926D01*
X0098259Y0180853D01*
X0098327Y0180782D01*
X0098398Y0180714D01*
X0098471Y0180649D01*
X0098547Y0180587D01*
X0098626Y0180527D01*
X0098706Y0180471D01*
X0098789Y0180418D01*
X0098873Y0180369D01*
X0098960Y0180322D01*
X0099048Y0180280D01*
X0099138Y0180240D01*
X0099230Y0180205D01*
X0099322Y0180172D01*
X0099416Y0180144D01*
X0099511Y0180119D01*
X0099607Y0180098D01*
X0099704Y0180081D01*
X0099801Y0180067D01*
X0099899Y0180058D01*
X0099997Y0180052D01*
X0100095Y0180050D01*
X0112595Y0180050D01*
X0112837Y0180047D01*
X0113078Y0180038D01*
X0113319Y0180024D01*
X0113560Y0180003D01*
X0113800Y0179977D01*
X0114040Y0179945D01*
X0114279Y0179907D01*
X0114516Y0179864D01*
X0114753Y0179814D01*
X0114988Y0179759D01*
X0115222Y0179699D01*
X0115454Y0179632D01*
X0115685Y0179561D01*
X0115914Y0179483D01*
X0116141Y0179400D01*
X0116366Y0179312D01*
X0116589Y0179218D01*
X0116809Y0179119D01*
X0117027Y0179014D01*
X0117242Y0178905D01*
X0117455Y0178790D01*
X0117665Y0178670D01*
X0117871Y0178545D01*
X0118075Y0178415D01*
X0118276Y0178280D01*
X0118473Y0178140D01*
X0118667Y0177996D01*
X0118857Y0177847D01*
X0119043Y0177693D01*
X0119226Y0177535D01*
X0119405Y0177373D01*
X0119580Y0177206D01*
X0119751Y0177035D01*
X0119918Y0176860D01*
X0120080Y0176681D01*
X0120238Y0176498D01*
X0120392Y0176312D01*
X0120541Y0176122D01*
X0120685Y0175928D01*
X0120825Y0175731D01*
X0120960Y0175530D01*
X0121090Y0175326D01*
X0121215Y0175120D01*
X0121335Y0174910D01*
X0121450Y0174697D01*
X0121559Y0174482D01*
X0121664Y0174264D01*
X0121763Y0174044D01*
X0121857Y0173821D01*
X0121945Y0173596D01*
X0122028Y0173369D01*
X0122106Y0173140D01*
X0122177Y0172909D01*
X0122244Y0172677D01*
X0122304Y0172443D01*
X0122359Y0172208D01*
X0122409Y0171971D01*
X0122452Y0171734D01*
X0122490Y0171495D01*
X0122522Y0171255D01*
X0122548Y0171015D01*
X0122569Y0170774D01*
X0122583Y0170533D01*
X0122592Y0170292D01*
X0122595Y0170050D01*
X0122595Y0038800D01*
X0122592Y0038558D01*
X0122583Y0038317D01*
X0122569Y0038076D01*
X0122548Y0037835D01*
X0122522Y0037595D01*
X0122490Y0037355D01*
X0122452Y0037116D01*
X0122409Y0036879D01*
X0122359Y0036642D01*
X0122304Y0036407D01*
X0122244Y0036173D01*
X0122177Y0035941D01*
X0122106Y0035710D01*
X0122028Y0035481D01*
X0121945Y0035254D01*
X0121857Y0035029D01*
X0121763Y0034806D01*
X0121664Y0034586D01*
X0121559Y0034368D01*
X0121450Y0034153D01*
X0121335Y0033940D01*
X0121215Y0033730D01*
X0121090Y0033524D01*
X0120960Y0033320D01*
X0120825Y0033119D01*
X0120685Y0032922D01*
X0120541Y0032728D01*
X0120392Y0032538D01*
X0120238Y0032352D01*
X0120080Y0032169D01*
X0119918Y0031990D01*
X0119751Y0031815D01*
X0119580Y0031644D01*
X0119405Y0031477D01*
X0119226Y0031315D01*
X0119043Y0031157D01*
X0118857Y0031003D01*
X0118667Y0030854D01*
X0118473Y0030710D01*
X0118276Y0030570D01*
X0118075Y0030435D01*
X0117871Y0030305D01*
X0117665Y0030180D01*
X0117455Y0030060D01*
X0117242Y0029945D01*
X0117027Y0029836D01*
X0116809Y0029731D01*
X0116589Y0029632D01*
X0116366Y0029538D01*
X0116141Y0029450D01*
X0115914Y0029367D01*
X0115685Y0029289D01*
X0115454Y0029218D01*
X0115222Y0029151D01*
X0114988Y0029091D01*
X0114753Y0029036D01*
X0114516Y0028986D01*
X0114279Y0028943D01*
X0114040Y0028905D01*
X0113800Y0028873D01*
X0113560Y0028847D01*
X0113319Y0028826D01*
X0113078Y0028812D01*
X0112837Y0028803D01*
X0112595Y0028800D01*
X0038845Y0028800D01*
X0038603Y0028803D01*
X0038362Y0028812D01*
X0038121Y0028826D01*
X0037880Y0028847D01*
X0037640Y0028873D01*
X0037400Y0028905D01*
X0037161Y0028943D01*
X0036924Y0028986D01*
X0036687Y0029036D01*
X0036452Y0029091D01*
X0036218Y0029151D01*
X0035986Y0029218D01*
X0035755Y0029289D01*
X0035526Y0029367D01*
X0035299Y0029450D01*
X0035074Y0029538D01*
X0034851Y0029632D01*
X0034631Y0029731D01*
X0034413Y0029836D01*
X0034198Y0029945D01*
X0033985Y0030060D01*
X0033775Y0030180D01*
X0033569Y0030305D01*
X0033365Y0030435D01*
X0033164Y0030570D01*
X0032967Y0030710D01*
X0032773Y0030854D01*
X0032583Y0031003D01*
X0032397Y0031157D01*
X0032214Y0031315D01*
X0032035Y0031477D01*
X0031860Y0031644D01*
X0031689Y0031815D01*
X0031522Y0031990D01*
X0031360Y0032169D01*
X0031202Y0032352D01*
X0031048Y0032538D01*
X0030899Y0032728D01*
X0030755Y0032922D01*
X0030615Y0033119D01*
X0030480Y0033320D01*
X0030350Y0033524D01*
X0030225Y0033730D01*
X0030105Y0033940D01*
X0029990Y0034153D01*
X0029881Y0034368D01*
X0029776Y0034586D01*
X0029677Y0034806D01*
X0029583Y0035029D01*
X0029495Y0035254D01*
X0029412Y0035481D01*
X0029334Y0035710D01*
X0029263Y0035941D01*
X0029196Y0036173D01*
X0029136Y0036407D01*
X0029081Y0036642D01*
X0029031Y0036879D01*
X0028988Y0037116D01*
X0028950Y0037355D01*
X0028918Y0037595D01*
X0028892Y0037835D01*
X0028871Y0038076D01*
X0028857Y0038317D01*
X0028848Y0038558D01*
X0028845Y0038800D01*
X0032546Y0038800D02*
X0032548Y0038958D01*
X0032554Y0039116D01*
X0032564Y0039274D01*
X0032578Y0039432D01*
X0032596Y0039589D01*
X0032617Y0039746D01*
X0032643Y0039902D01*
X0032673Y0040058D01*
X0032706Y0040213D01*
X0032744Y0040366D01*
X0032785Y0040519D01*
X0032830Y0040671D01*
X0032879Y0040822D01*
X0032932Y0040971D01*
X0032988Y0041119D01*
X0033048Y0041265D01*
X0033112Y0041410D01*
X0033180Y0041553D01*
X0033251Y0041695D01*
X0033325Y0041835D01*
X0033403Y0041972D01*
X0033485Y0042108D01*
X0033569Y0042242D01*
X0033658Y0042373D01*
X0033749Y0042502D01*
X0033844Y0042629D01*
X0033941Y0042754D01*
X0034042Y0042876D01*
X0034146Y0042995D01*
X0034253Y0043112D01*
X0034363Y0043226D01*
X0034476Y0043337D01*
X0034591Y0043446D01*
X0034709Y0043551D01*
X0034830Y0043653D01*
X0034953Y0043753D01*
X0035079Y0043849D01*
X0035207Y0043942D01*
X0035337Y0044032D01*
X0035470Y0044118D01*
X0035605Y0044202D01*
X0035741Y0044281D01*
X0035880Y0044358D01*
X0036021Y0044430D01*
X0036163Y0044500D01*
X0036307Y0044565D01*
X0036453Y0044627D01*
X0036600Y0044685D01*
X0036749Y0044740D01*
X0036899Y0044791D01*
X0037050Y0044838D01*
X0037202Y0044881D01*
X0037355Y0044920D01*
X0037510Y0044956D01*
X0037665Y0044987D01*
X0037821Y0045015D01*
X0037977Y0045039D01*
X0038134Y0045059D01*
X0038292Y0045075D01*
X0038449Y0045087D01*
X0038608Y0045095D01*
X0038766Y0045099D01*
X0038924Y0045099D01*
X0039082Y0045095D01*
X0039241Y0045087D01*
X0039398Y0045075D01*
X0039556Y0045059D01*
X0039713Y0045039D01*
X0039869Y0045015D01*
X0040025Y0044987D01*
X0040180Y0044956D01*
X0040335Y0044920D01*
X0040488Y0044881D01*
X0040640Y0044838D01*
X0040791Y0044791D01*
X0040941Y0044740D01*
X0041090Y0044685D01*
X0041237Y0044627D01*
X0041383Y0044565D01*
X0041527Y0044500D01*
X0041669Y0044430D01*
X0041810Y0044358D01*
X0041949Y0044281D01*
X0042085Y0044202D01*
X0042220Y0044118D01*
X0042353Y0044032D01*
X0042483Y0043942D01*
X0042611Y0043849D01*
X0042737Y0043753D01*
X0042860Y0043653D01*
X0042981Y0043551D01*
X0043099Y0043446D01*
X0043214Y0043337D01*
X0043327Y0043226D01*
X0043437Y0043112D01*
X0043544Y0042995D01*
X0043648Y0042876D01*
X0043749Y0042754D01*
X0043846Y0042629D01*
X0043941Y0042502D01*
X0044032Y0042373D01*
X0044121Y0042242D01*
X0044205Y0042108D01*
X0044287Y0041972D01*
X0044365Y0041835D01*
X0044439Y0041695D01*
X0044510Y0041553D01*
X0044578Y0041410D01*
X0044642Y0041265D01*
X0044702Y0041119D01*
X0044758Y0040971D01*
X0044811Y0040822D01*
X0044860Y0040671D01*
X0044905Y0040519D01*
X0044946Y0040366D01*
X0044984Y0040213D01*
X0045017Y0040058D01*
X0045047Y0039902D01*
X0045073Y0039746D01*
X0045094Y0039589D01*
X0045112Y0039432D01*
X0045126Y0039274D01*
X0045136Y0039116D01*
X0045142Y0038958D01*
X0045144Y0038800D01*
X0045142Y0038642D01*
X0045136Y0038484D01*
X0045126Y0038326D01*
X0045112Y0038168D01*
X0045094Y0038011D01*
X0045073Y0037854D01*
X0045047Y0037698D01*
X0045017Y0037542D01*
X0044984Y0037387D01*
X0044946Y0037234D01*
X0044905Y0037081D01*
X0044860Y0036929D01*
X0044811Y0036778D01*
X0044758Y0036629D01*
X0044702Y0036481D01*
X0044642Y0036335D01*
X0044578Y0036190D01*
X0044510Y0036047D01*
X0044439Y0035905D01*
X0044365Y0035765D01*
X0044287Y0035628D01*
X0044205Y0035492D01*
X0044121Y0035358D01*
X0044032Y0035227D01*
X0043941Y0035098D01*
X0043846Y0034971D01*
X0043749Y0034846D01*
X0043648Y0034724D01*
X0043544Y0034605D01*
X0043437Y0034488D01*
X0043327Y0034374D01*
X0043214Y0034263D01*
X0043099Y0034154D01*
X0042981Y0034049D01*
X0042860Y0033947D01*
X0042737Y0033847D01*
X0042611Y0033751D01*
X0042483Y0033658D01*
X0042353Y0033568D01*
X0042220Y0033482D01*
X0042085Y0033398D01*
X0041949Y0033319D01*
X0041810Y0033242D01*
X0041669Y0033170D01*
X0041527Y0033100D01*
X0041383Y0033035D01*
X0041237Y0032973D01*
X0041090Y0032915D01*
X0040941Y0032860D01*
X0040791Y0032809D01*
X0040640Y0032762D01*
X0040488Y0032719D01*
X0040335Y0032680D01*
X0040180Y0032644D01*
X0040025Y0032613D01*
X0039869Y0032585D01*
X0039713Y0032561D01*
X0039556Y0032541D01*
X0039398Y0032525D01*
X0039241Y0032513D01*
X0039082Y0032505D01*
X0038924Y0032501D01*
X0038766Y0032501D01*
X0038608Y0032505D01*
X0038449Y0032513D01*
X0038292Y0032525D01*
X0038134Y0032541D01*
X0037977Y0032561D01*
X0037821Y0032585D01*
X0037665Y0032613D01*
X0037510Y0032644D01*
X0037355Y0032680D01*
X0037202Y0032719D01*
X0037050Y0032762D01*
X0036899Y0032809D01*
X0036749Y0032860D01*
X0036600Y0032915D01*
X0036453Y0032973D01*
X0036307Y0033035D01*
X0036163Y0033100D01*
X0036021Y0033170D01*
X0035880Y0033242D01*
X0035741Y0033319D01*
X0035605Y0033398D01*
X0035470Y0033482D01*
X0035337Y0033568D01*
X0035207Y0033658D01*
X0035079Y0033751D01*
X0034953Y0033847D01*
X0034830Y0033947D01*
X0034709Y0034049D01*
X0034591Y0034154D01*
X0034476Y0034263D01*
X0034363Y0034374D01*
X0034253Y0034488D01*
X0034146Y0034605D01*
X0034042Y0034724D01*
X0033941Y0034846D01*
X0033844Y0034971D01*
X0033749Y0035098D01*
X0033658Y0035227D01*
X0033569Y0035358D01*
X0033485Y0035492D01*
X0033403Y0035628D01*
X0033325Y0035765D01*
X0033251Y0035905D01*
X0033180Y0036047D01*
X0033112Y0036190D01*
X0033048Y0036335D01*
X0032988Y0036481D01*
X0032932Y0036629D01*
X0032879Y0036778D01*
X0032830Y0036929D01*
X0032785Y0037081D01*
X0032744Y0037234D01*
X0032706Y0037387D01*
X0032673Y0037542D01*
X0032643Y0037698D01*
X0032617Y0037854D01*
X0032596Y0038011D01*
X0032578Y0038168D01*
X0032564Y0038326D01*
X0032554Y0038484D01*
X0032548Y0038642D01*
X0032546Y0038800D01*
X0093796Y0163800D02*
X0093798Y0163958D01*
X0093804Y0164116D01*
X0093814Y0164274D01*
X0093828Y0164432D01*
X0093846Y0164589D01*
X0093867Y0164746D01*
X0093893Y0164902D01*
X0093923Y0165058D01*
X0093956Y0165213D01*
X0093994Y0165366D01*
X0094035Y0165519D01*
X0094080Y0165671D01*
X0094129Y0165822D01*
X0094182Y0165971D01*
X0094238Y0166119D01*
X0094298Y0166265D01*
X0094362Y0166410D01*
X0094430Y0166553D01*
X0094501Y0166695D01*
X0094575Y0166835D01*
X0094653Y0166972D01*
X0094735Y0167108D01*
X0094819Y0167242D01*
X0094908Y0167373D01*
X0094999Y0167502D01*
X0095094Y0167629D01*
X0095191Y0167754D01*
X0095292Y0167876D01*
X0095396Y0167995D01*
X0095503Y0168112D01*
X0095613Y0168226D01*
X0095726Y0168337D01*
X0095841Y0168446D01*
X0095959Y0168551D01*
X0096080Y0168653D01*
X0096203Y0168753D01*
X0096329Y0168849D01*
X0096457Y0168942D01*
X0096587Y0169032D01*
X0096720Y0169118D01*
X0096855Y0169202D01*
X0096991Y0169281D01*
X0097130Y0169358D01*
X0097271Y0169430D01*
X0097413Y0169500D01*
X0097557Y0169565D01*
X0097703Y0169627D01*
X0097850Y0169685D01*
X0097999Y0169740D01*
X0098149Y0169791D01*
X0098300Y0169838D01*
X0098452Y0169881D01*
X0098605Y0169920D01*
X0098760Y0169956D01*
X0098915Y0169987D01*
X0099071Y0170015D01*
X0099227Y0170039D01*
X0099384Y0170059D01*
X0099542Y0170075D01*
X0099699Y0170087D01*
X0099858Y0170095D01*
X0100016Y0170099D01*
X0100174Y0170099D01*
X0100332Y0170095D01*
X0100491Y0170087D01*
X0100648Y0170075D01*
X0100806Y0170059D01*
X0100963Y0170039D01*
X0101119Y0170015D01*
X0101275Y0169987D01*
X0101430Y0169956D01*
X0101585Y0169920D01*
X0101738Y0169881D01*
X0101890Y0169838D01*
X0102041Y0169791D01*
X0102191Y0169740D01*
X0102340Y0169685D01*
X0102487Y0169627D01*
X0102633Y0169565D01*
X0102777Y0169500D01*
X0102919Y0169430D01*
X0103060Y0169358D01*
X0103199Y0169281D01*
X0103335Y0169202D01*
X0103470Y0169118D01*
X0103603Y0169032D01*
X0103733Y0168942D01*
X0103861Y0168849D01*
X0103987Y0168753D01*
X0104110Y0168653D01*
X0104231Y0168551D01*
X0104349Y0168446D01*
X0104464Y0168337D01*
X0104577Y0168226D01*
X0104687Y0168112D01*
X0104794Y0167995D01*
X0104898Y0167876D01*
X0104999Y0167754D01*
X0105096Y0167629D01*
X0105191Y0167502D01*
X0105282Y0167373D01*
X0105371Y0167242D01*
X0105455Y0167108D01*
X0105537Y0166972D01*
X0105615Y0166835D01*
X0105689Y0166695D01*
X0105760Y0166553D01*
X0105828Y0166410D01*
X0105892Y0166265D01*
X0105952Y0166119D01*
X0106008Y0165971D01*
X0106061Y0165822D01*
X0106110Y0165671D01*
X0106155Y0165519D01*
X0106196Y0165366D01*
X0106234Y0165213D01*
X0106267Y0165058D01*
X0106297Y0164902D01*
X0106323Y0164746D01*
X0106344Y0164589D01*
X0106362Y0164432D01*
X0106376Y0164274D01*
X0106386Y0164116D01*
X0106392Y0163958D01*
X0106394Y0163800D01*
X0106392Y0163642D01*
X0106386Y0163484D01*
X0106376Y0163326D01*
X0106362Y0163168D01*
X0106344Y0163011D01*
X0106323Y0162854D01*
X0106297Y0162698D01*
X0106267Y0162542D01*
X0106234Y0162387D01*
X0106196Y0162234D01*
X0106155Y0162081D01*
X0106110Y0161929D01*
X0106061Y0161778D01*
X0106008Y0161629D01*
X0105952Y0161481D01*
X0105892Y0161335D01*
X0105828Y0161190D01*
X0105760Y0161047D01*
X0105689Y0160905D01*
X0105615Y0160765D01*
X0105537Y0160628D01*
X0105455Y0160492D01*
X0105371Y0160358D01*
X0105282Y0160227D01*
X0105191Y0160098D01*
X0105096Y0159971D01*
X0104999Y0159846D01*
X0104898Y0159724D01*
X0104794Y0159605D01*
X0104687Y0159488D01*
X0104577Y0159374D01*
X0104464Y0159263D01*
X0104349Y0159154D01*
X0104231Y0159049D01*
X0104110Y0158947D01*
X0103987Y0158847D01*
X0103861Y0158751D01*
X0103733Y0158658D01*
X0103603Y0158568D01*
X0103470Y0158482D01*
X0103335Y0158398D01*
X0103199Y0158319D01*
X0103060Y0158242D01*
X0102919Y0158170D01*
X0102777Y0158100D01*
X0102633Y0158035D01*
X0102487Y0157973D01*
X0102340Y0157915D01*
X0102191Y0157860D01*
X0102041Y0157809D01*
X0101890Y0157762D01*
X0101738Y0157719D01*
X0101585Y0157680D01*
X0101430Y0157644D01*
X0101275Y0157613D01*
X0101119Y0157585D01*
X0100963Y0157561D01*
X0100806Y0157541D01*
X0100648Y0157525D01*
X0100491Y0157513D01*
X0100332Y0157505D01*
X0100174Y0157501D01*
X0100016Y0157501D01*
X0099858Y0157505D01*
X0099699Y0157513D01*
X0099542Y0157525D01*
X0099384Y0157541D01*
X0099227Y0157561D01*
X0099071Y0157585D01*
X0098915Y0157613D01*
X0098760Y0157644D01*
X0098605Y0157680D01*
X0098452Y0157719D01*
X0098300Y0157762D01*
X0098149Y0157809D01*
X0097999Y0157860D01*
X0097850Y0157915D01*
X0097703Y0157973D01*
X0097557Y0158035D01*
X0097413Y0158100D01*
X0097271Y0158170D01*
X0097130Y0158242D01*
X0096991Y0158319D01*
X0096855Y0158398D01*
X0096720Y0158482D01*
X0096587Y0158568D01*
X0096457Y0158658D01*
X0096329Y0158751D01*
X0096203Y0158847D01*
X0096080Y0158947D01*
X0095959Y0159049D01*
X0095841Y0159154D01*
X0095726Y0159263D01*
X0095613Y0159374D01*
X0095503Y0159488D01*
X0095396Y0159605D01*
X0095292Y0159724D01*
X0095191Y0159846D01*
X0095094Y0159971D01*
X0094999Y0160098D01*
X0094908Y0160227D01*
X0094819Y0160358D01*
X0094735Y0160492D01*
X0094653Y0160628D01*
X0094575Y0160765D01*
X0094501Y0160905D01*
X0094430Y0161047D01*
X0094362Y0161190D01*
X0094298Y0161335D01*
X0094238Y0161481D01*
X0094182Y0161629D01*
X0094129Y0161778D01*
X0094080Y0161929D01*
X0094035Y0162081D01*
X0093994Y0162234D01*
X0093956Y0162387D01*
X0093923Y0162542D01*
X0093893Y0162698D01*
X0093867Y0162854D01*
X0093846Y0163011D01*
X0093828Y0163168D01*
X0093814Y0163326D01*
X0093804Y0163484D01*
X0093798Y0163642D01*
X0093796Y0163800D01*
X0085095Y0180050D02*
X0066345Y0180050D01*
X0066247Y0180052D01*
X0066149Y0180058D01*
X0066051Y0180067D01*
X0065954Y0180081D01*
X0065857Y0180098D01*
X0065761Y0180119D01*
X0065666Y0180144D01*
X0065572Y0180172D01*
X0065480Y0180205D01*
X0065388Y0180240D01*
X0065298Y0180280D01*
X0065210Y0180322D01*
X0065123Y0180369D01*
X0065039Y0180418D01*
X0064956Y0180471D01*
X0064876Y0180527D01*
X0064797Y0180587D01*
X0064721Y0180649D01*
X0064648Y0180714D01*
X0064577Y0180782D01*
X0064509Y0180853D01*
X0064444Y0180926D01*
X0064382Y0181002D01*
X0064322Y0181081D01*
X0064266Y0181161D01*
X0064213Y0181244D01*
X0064164Y0181328D01*
X0064117Y0181415D01*
X0064075Y0181503D01*
X0064035Y0181593D01*
X0064000Y0181685D01*
X0063967Y0181777D01*
X0063939Y0181871D01*
X0063914Y0181966D01*
X0063893Y0182062D01*
X0063876Y0182159D01*
X0063862Y0182256D01*
X0063853Y0182354D01*
X0063847Y0182452D01*
X0063845Y0182550D01*
X0063847Y0182648D01*
X0063853Y0182746D01*
X0063862Y0182844D01*
X0063876Y0182941D01*
X0063893Y0183038D01*
X0063914Y0183134D01*
X0063939Y0183229D01*
X0063967Y0183323D01*
X0064000Y0183415D01*
X0064035Y0183507D01*
X0064075Y0183597D01*
X0064117Y0183685D01*
X0064164Y0183772D01*
X0064213Y0183856D01*
X0064266Y0183939D01*
X0064322Y0184019D01*
X0064382Y0184098D01*
X0064444Y0184174D01*
X0064509Y0184247D01*
X0064577Y0184318D01*
X0064648Y0184386D01*
X0064721Y0184451D01*
X0064797Y0184513D01*
X0064876Y0184573D01*
X0064956Y0184629D01*
X0065039Y0184682D01*
X0065123Y0184731D01*
X0065210Y0184778D01*
X0065298Y0184820D01*
X0065388Y0184860D01*
X0065480Y0184895D01*
X0065572Y0184928D01*
X0065666Y0184956D01*
X0065761Y0184981D01*
X0065857Y0185002D01*
X0065954Y0185019D01*
X0066051Y0185033D01*
X0066149Y0185042D01*
X0066247Y0185048D01*
X0066345Y0185050D01*
X0085095Y0185050D01*
X0085193Y0185048D01*
X0085291Y0185042D01*
X0085389Y0185033D01*
X0085486Y0185019D01*
X0085583Y0185002D01*
X0085679Y0184981D01*
X0085774Y0184956D01*
X0085868Y0184928D01*
X0085960Y0184895D01*
X0086052Y0184860D01*
X0086142Y0184820D01*
X0086230Y0184778D01*
X0086317Y0184731D01*
X0086401Y0184682D01*
X0086484Y0184629D01*
X0086564Y0184573D01*
X0086643Y0184513D01*
X0086719Y0184451D01*
X0086792Y0184386D01*
X0086863Y0184318D01*
X0086931Y0184247D01*
X0086996Y0184174D01*
X0087058Y0184098D01*
X0087118Y0184019D01*
X0087174Y0183939D01*
X0087227Y0183856D01*
X0087276Y0183772D01*
X0087323Y0183685D01*
X0087365Y0183597D01*
X0087405Y0183507D01*
X0087440Y0183415D01*
X0087473Y0183323D01*
X0087501Y0183229D01*
X0087526Y0183134D01*
X0087547Y0183038D01*
X0087564Y0182941D01*
X0087578Y0182844D01*
X0087587Y0182746D01*
X0087593Y0182648D01*
X0087595Y0182550D01*
X0087593Y0182452D01*
X0087587Y0182354D01*
X0087578Y0182256D01*
X0087564Y0182159D01*
X0087547Y0182062D01*
X0087526Y0181966D01*
X0087501Y0181871D01*
X0087473Y0181777D01*
X0087440Y0181685D01*
X0087405Y0181593D01*
X0087365Y0181503D01*
X0087323Y0181415D01*
X0087276Y0181328D01*
X0087227Y0181244D01*
X0087174Y0181161D01*
X0087118Y0181081D01*
X0087058Y0181002D01*
X0086996Y0180926D01*
X0086931Y0180853D01*
X0086863Y0180782D01*
X0086792Y0180714D01*
X0086719Y0180649D01*
X0086643Y0180587D01*
X0086564Y0180527D01*
X0086484Y0180471D01*
X0086401Y0180418D01*
X0086317Y0180369D01*
X0086230Y0180322D01*
X0086142Y0180280D01*
X0086052Y0180240D01*
X0085960Y0180205D01*
X0085868Y0180172D01*
X0085774Y0180144D01*
X0085679Y0180119D01*
X0085583Y0180098D01*
X0085486Y0180081D01*
X0085389Y0180067D01*
X0085291Y0180058D01*
X0085193Y0180052D01*
X0085095Y0180050D01*
X0106296Y0195050D02*
X0106298Y0195208D01*
X0106304Y0195366D01*
X0106314Y0195524D01*
X0106328Y0195682D01*
X0106346Y0195839D01*
X0106367Y0195996D01*
X0106393Y0196152D01*
X0106423Y0196308D01*
X0106456Y0196463D01*
X0106494Y0196616D01*
X0106535Y0196769D01*
X0106580Y0196921D01*
X0106629Y0197072D01*
X0106682Y0197221D01*
X0106738Y0197369D01*
X0106798Y0197515D01*
X0106862Y0197660D01*
X0106930Y0197803D01*
X0107001Y0197945D01*
X0107075Y0198085D01*
X0107153Y0198222D01*
X0107235Y0198358D01*
X0107319Y0198492D01*
X0107408Y0198623D01*
X0107499Y0198752D01*
X0107594Y0198879D01*
X0107691Y0199004D01*
X0107792Y0199126D01*
X0107896Y0199245D01*
X0108003Y0199362D01*
X0108113Y0199476D01*
X0108226Y0199587D01*
X0108341Y0199696D01*
X0108459Y0199801D01*
X0108580Y0199903D01*
X0108703Y0200003D01*
X0108829Y0200099D01*
X0108957Y0200192D01*
X0109087Y0200282D01*
X0109220Y0200368D01*
X0109355Y0200452D01*
X0109491Y0200531D01*
X0109630Y0200608D01*
X0109771Y0200680D01*
X0109913Y0200750D01*
X0110057Y0200815D01*
X0110203Y0200877D01*
X0110350Y0200935D01*
X0110499Y0200990D01*
X0110649Y0201041D01*
X0110800Y0201088D01*
X0110952Y0201131D01*
X0111105Y0201170D01*
X0111260Y0201206D01*
X0111415Y0201237D01*
X0111571Y0201265D01*
X0111727Y0201289D01*
X0111884Y0201309D01*
X0112042Y0201325D01*
X0112199Y0201337D01*
X0112358Y0201345D01*
X0112516Y0201349D01*
X0112674Y0201349D01*
X0112832Y0201345D01*
X0112991Y0201337D01*
X0113148Y0201325D01*
X0113306Y0201309D01*
X0113463Y0201289D01*
X0113619Y0201265D01*
X0113775Y0201237D01*
X0113930Y0201206D01*
X0114085Y0201170D01*
X0114238Y0201131D01*
X0114390Y0201088D01*
X0114541Y0201041D01*
X0114691Y0200990D01*
X0114840Y0200935D01*
X0114987Y0200877D01*
X0115133Y0200815D01*
X0115277Y0200750D01*
X0115419Y0200680D01*
X0115560Y0200608D01*
X0115699Y0200531D01*
X0115835Y0200452D01*
X0115970Y0200368D01*
X0116103Y0200282D01*
X0116233Y0200192D01*
X0116361Y0200099D01*
X0116487Y0200003D01*
X0116610Y0199903D01*
X0116731Y0199801D01*
X0116849Y0199696D01*
X0116964Y0199587D01*
X0117077Y0199476D01*
X0117187Y0199362D01*
X0117294Y0199245D01*
X0117398Y0199126D01*
X0117499Y0199004D01*
X0117596Y0198879D01*
X0117691Y0198752D01*
X0117782Y0198623D01*
X0117871Y0198492D01*
X0117955Y0198358D01*
X0118037Y0198222D01*
X0118115Y0198085D01*
X0118189Y0197945D01*
X0118260Y0197803D01*
X0118328Y0197660D01*
X0118392Y0197515D01*
X0118452Y0197369D01*
X0118508Y0197221D01*
X0118561Y0197072D01*
X0118610Y0196921D01*
X0118655Y0196769D01*
X0118696Y0196616D01*
X0118734Y0196463D01*
X0118767Y0196308D01*
X0118797Y0196152D01*
X0118823Y0195996D01*
X0118844Y0195839D01*
X0118862Y0195682D01*
X0118876Y0195524D01*
X0118886Y0195366D01*
X0118892Y0195208D01*
X0118894Y0195050D01*
X0118892Y0194892D01*
X0118886Y0194734D01*
X0118876Y0194576D01*
X0118862Y0194418D01*
X0118844Y0194261D01*
X0118823Y0194104D01*
X0118797Y0193948D01*
X0118767Y0193792D01*
X0118734Y0193637D01*
X0118696Y0193484D01*
X0118655Y0193331D01*
X0118610Y0193179D01*
X0118561Y0193028D01*
X0118508Y0192879D01*
X0118452Y0192731D01*
X0118392Y0192585D01*
X0118328Y0192440D01*
X0118260Y0192297D01*
X0118189Y0192155D01*
X0118115Y0192015D01*
X0118037Y0191878D01*
X0117955Y0191742D01*
X0117871Y0191608D01*
X0117782Y0191477D01*
X0117691Y0191348D01*
X0117596Y0191221D01*
X0117499Y0191096D01*
X0117398Y0190974D01*
X0117294Y0190855D01*
X0117187Y0190738D01*
X0117077Y0190624D01*
X0116964Y0190513D01*
X0116849Y0190404D01*
X0116731Y0190299D01*
X0116610Y0190197D01*
X0116487Y0190097D01*
X0116361Y0190001D01*
X0116233Y0189908D01*
X0116103Y0189818D01*
X0115970Y0189732D01*
X0115835Y0189648D01*
X0115699Y0189569D01*
X0115560Y0189492D01*
X0115419Y0189420D01*
X0115277Y0189350D01*
X0115133Y0189285D01*
X0114987Y0189223D01*
X0114840Y0189165D01*
X0114691Y0189110D01*
X0114541Y0189059D01*
X0114390Y0189012D01*
X0114238Y0188969D01*
X0114085Y0188930D01*
X0113930Y0188894D01*
X0113775Y0188863D01*
X0113619Y0188835D01*
X0113463Y0188811D01*
X0113306Y0188791D01*
X0113148Y0188775D01*
X0112991Y0188763D01*
X0112832Y0188755D01*
X0112674Y0188751D01*
X0112516Y0188751D01*
X0112358Y0188755D01*
X0112199Y0188763D01*
X0112042Y0188775D01*
X0111884Y0188791D01*
X0111727Y0188811D01*
X0111571Y0188835D01*
X0111415Y0188863D01*
X0111260Y0188894D01*
X0111105Y0188930D01*
X0110952Y0188969D01*
X0110800Y0189012D01*
X0110649Y0189059D01*
X0110499Y0189110D01*
X0110350Y0189165D01*
X0110203Y0189223D01*
X0110057Y0189285D01*
X0109913Y0189350D01*
X0109771Y0189420D01*
X0109630Y0189492D01*
X0109491Y0189569D01*
X0109355Y0189648D01*
X0109220Y0189732D01*
X0109087Y0189818D01*
X0108957Y0189908D01*
X0108829Y0190001D01*
X0108703Y0190097D01*
X0108580Y0190197D01*
X0108459Y0190299D01*
X0108341Y0190404D01*
X0108226Y0190513D01*
X0108113Y0190624D01*
X0108003Y0190738D01*
X0107896Y0190855D01*
X0107792Y0190974D01*
X0107691Y0191096D01*
X0107594Y0191221D01*
X0107499Y0191348D01*
X0107408Y0191477D01*
X0107319Y0191608D01*
X0107235Y0191742D01*
X0107153Y0191878D01*
X0107075Y0192015D01*
X0107001Y0192155D01*
X0106930Y0192297D01*
X0106862Y0192440D01*
X0106798Y0192585D01*
X0106738Y0192731D01*
X0106682Y0192879D01*
X0106629Y0193028D01*
X0106580Y0193179D01*
X0106535Y0193331D01*
X0106494Y0193484D01*
X0106456Y0193637D01*
X0106423Y0193792D01*
X0106393Y0193948D01*
X0106367Y0194104D01*
X0106346Y0194261D01*
X0106328Y0194418D01*
X0106314Y0194576D01*
X0106304Y0194734D01*
X0106298Y0194892D01*
X0106296Y0195050D01*
X0106195Y0220050D02*
X0106197Y0220210D01*
X0106203Y0220369D01*
X0106213Y0220528D01*
X0106227Y0220687D01*
X0106245Y0220846D01*
X0106266Y0221004D01*
X0106292Y0221161D01*
X0106322Y0221318D01*
X0106355Y0221474D01*
X0106393Y0221629D01*
X0106434Y0221783D01*
X0106479Y0221936D01*
X0106528Y0222088D01*
X0106581Y0222239D01*
X0106637Y0222388D01*
X0106698Y0222536D01*
X0106761Y0222682D01*
X0106829Y0222827D01*
X0106900Y0222970D01*
X0106974Y0223111D01*
X0107052Y0223250D01*
X0107134Y0223387D01*
X0107219Y0223522D01*
X0107307Y0223655D01*
X0107399Y0223786D01*
X0107493Y0223914D01*
X0107591Y0224040D01*
X0107692Y0224164D01*
X0107796Y0224285D01*
X0107903Y0224403D01*
X0108013Y0224519D01*
X0108126Y0224632D01*
X0108242Y0224742D01*
X0108360Y0224849D01*
X0108481Y0224953D01*
X0108605Y0225054D01*
X0108731Y0225152D01*
X0108859Y0225246D01*
X0108990Y0225338D01*
X0109123Y0225426D01*
X0109258Y0225511D01*
X0109395Y0225593D01*
X0109534Y0225671D01*
X0109675Y0225745D01*
X0109818Y0225816D01*
X0109963Y0225884D01*
X0110109Y0225947D01*
X0110257Y0226008D01*
X0110406Y0226064D01*
X0110557Y0226117D01*
X0110709Y0226166D01*
X0110862Y0226211D01*
X0111016Y0226252D01*
X0111171Y0226290D01*
X0111327Y0226323D01*
X0111484Y0226353D01*
X0111641Y0226379D01*
X0111799Y0226400D01*
X0111958Y0226418D01*
X0112117Y0226432D01*
X0112276Y0226442D01*
X0112435Y0226448D01*
X0112595Y0226450D01*
X0112755Y0226448D01*
X0112914Y0226442D01*
X0113073Y0226432D01*
X0113232Y0226418D01*
X0113391Y0226400D01*
X0113549Y0226379D01*
X0113706Y0226353D01*
X0113863Y0226323D01*
X0114019Y0226290D01*
X0114174Y0226252D01*
X0114328Y0226211D01*
X0114481Y0226166D01*
X0114633Y0226117D01*
X0114784Y0226064D01*
X0114933Y0226008D01*
X0115081Y0225947D01*
X0115227Y0225884D01*
X0115372Y0225816D01*
X0115515Y0225745D01*
X0115656Y0225671D01*
X0115795Y0225593D01*
X0115932Y0225511D01*
X0116067Y0225426D01*
X0116200Y0225338D01*
X0116331Y0225246D01*
X0116459Y0225152D01*
X0116585Y0225054D01*
X0116709Y0224953D01*
X0116830Y0224849D01*
X0116948Y0224742D01*
X0117064Y0224632D01*
X0117177Y0224519D01*
X0117287Y0224403D01*
X0117394Y0224285D01*
X0117498Y0224164D01*
X0117599Y0224040D01*
X0117697Y0223914D01*
X0117791Y0223786D01*
X0117883Y0223655D01*
X0117971Y0223522D01*
X0118056Y0223387D01*
X0118138Y0223250D01*
X0118216Y0223111D01*
X0118290Y0222970D01*
X0118361Y0222827D01*
X0118429Y0222682D01*
X0118492Y0222536D01*
X0118553Y0222388D01*
X0118609Y0222239D01*
X0118662Y0222088D01*
X0118711Y0221936D01*
X0118756Y0221783D01*
X0118797Y0221629D01*
X0118835Y0221474D01*
X0118868Y0221318D01*
X0118898Y0221161D01*
X0118924Y0221004D01*
X0118945Y0220846D01*
X0118963Y0220687D01*
X0118977Y0220528D01*
X0118987Y0220369D01*
X0118993Y0220210D01*
X0118995Y0220050D01*
X0118993Y0219890D01*
X0118987Y0219731D01*
X0118977Y0219572D01*
X0118963Y0219413D01*
X0118945Y0219254D01*
X0118924Y0219096D01*
X0118898Y0218939D01*
X0118868Y0218782D01*
X0118835Y0218626D01*
X0118797Y0218471D01*
X0118756Y0218317D01*
X0118711Y0218164D01*
X0118662Y0218012D01*
X0118609Y0217861D01*
X0118553Y0217712D01*
X0118492Y0217564D01*
X0118429Y0217418D01*
X0118361Y0217273D01*
X0118290Y0217130D01*
X0118216Y0216989D01*
X0118138Y0216850D01*
X0118056Y0216713D01*
X0117971Y0216578D01*
X0117883Y0216445D01*
X0117791Y0216314D01*
X0117697Y0216186D01*
X0117599Y0216060D01*
X0117498Y0215936D01*
X0117394Y0215815D01*
X0117287Y0215697D01*
X0117177Y0215581D01*
X0117064Y0215468D01*
X0116948Y0215358D01*
X0116830Y0215251D01*
X0116709Y0215147D01*
X0116585Y0215046D01*
X0116459Y0214948D01*
X0116331Y0214854D01*
X0116200Y0214762D01*
X0116067Y0214674D01*
X0115932Y0214589D01*
X0115795Y0214507D01*
X0115656Y0214429D01*
X0115515Y0214355D01*
X0115372Y0214284D01*
X0115227Y0214216D01*
X0115081Y0214153D01*
X0114933Y0214092D01*
X0114784Y0214036D01*
X0114633Y0213983D01*
X0114481Y0213934D01*
X0114328Y0213889D01*
X0114174Y0213848D01*
X0114019Y0213810D01*
X0113863Y0213777D01*
X0113706Y0213747D01*
X0113549Y0213721D01*
X0113391Y0213700D01*
X0113232Y0213682D01*
X0113073Y0213668D01*
X0112914Y0213658D01*
X0112755Y0213652D01*
X0112595Y0213650D01*
X0112435Y0213652D01*
X0112276Y0213658D01*
X0112117Y0213668D01*
X0111958Y0213682D01*
X0111799Y0213700D01*
X0111641Y0213721D01*
X0111484Y0213747D01*
X0111327Y0213777D01*
X0111171Y0213810D01*
X0111016Y0213848D01*
X0110862Y0213889D01*
X0110709Y0213934D01*
X0110557Y0213983D01*
X0110406Y0214036D01*
X0110257Y0214092D01*
X0110109Y0214153D01*
X0109963Y0214216D01*
X0109818Y0214284D01*
X0109675Y0214355D01*
X0109534Y0214429D01*
X0109395Y0214507D01*
X0109258Y0214589D01*
X0109123Y0214674D01*
X0108990Y0214762D01*
X0108859Y0214854D01*
X0108731Y0214948D01*
X0108605Y0215046D01*
X0108481Y0215147D01*
X0108360Y0215251D01*
X0108242Y0215358D01*
X0108126Y0215468D01*
X0108013Y0215581D01*
X0107903Y0215697D01*
X0107796Y0215815D01*
X0107692Y0215936D01*
X0107591Y0216060D01*
X0107493Y0216186D01*
X0107399Y0216314D01*
X0107307Y0216445D01*
X0107219Y0216578D01*
X0107134Y0216713D01*
X0107052Y0216850D01*
X0106974Y0216989D01*
X0106900Y0217130D01*
X0106829Y0217273D01*
X0106761Y0217418D01*
X0106698Y0217564D01*
X0106637Y0217712D01*
X0106581Y0217861D01*
X0106528Y0218012D01*
X0106479Y0218164D01*
X0106434Y0218317D01*
X0106393Y0218471D01*
X0106355Y0218626D01*
X0106322Y0218782D01*
X0106292Y0218939D01*
X0106266Y0219096D01*
X0106245Y0219254D01*
X0106227Y0219413D01*
X0106213Y0219572D01*
X0106203Y0219731D01*
X0106197Y0219890D01*
X0106195Y0220050D01*
X0106195Y0265050D02*
X0106197Y0265210D01*
X0106203Y0265369D01*
X0106213Y0265528D01*
X0106227Y0265687D01*
X0106245Y0265846D01*
X0106266Y0266004D01*
X0106292Y0266161D01*
X0106322Y0266318D01*
X0106355Y0266474D01*
X0106393Y0266629D01*
X0106434Y0266783D01*
X0106479Y0266936D01*
X0106528Y0267088D01*
X0106581Y0267239D01*
X0106637Y0267388D01*
X0106698Y0267536D01*
X0106761Y0267682D01*
X0106829Y0267827D01*
X0106900Y0267970D01*
X0106974Y0268111D01*
X0107052Y0268250D01*
X0107134Y0268387D01*
X0107219Y0268522D01*
X0107307Y0268655D01*
X0107399Y0268786D01*
X0107493Y0268914D01*
X0107591Y0269040D01*
X0107692Y0269164D01*
X0107796Y0269285D01*
X0107903Y0269403D01*
X0108013Y0269519D01*
X0108126Y0269632D01*
X0108242Y0269742D01*
X0108360Y0269849D01*
X0108481Y0269953D01*
X0108605Y0270054D01*
X0108731Y0270152D01*
X0108859Y0270246D01*
X0108990Y0270338D01*
X0109123Y0270426D01*
X0109258Y0270511D01*
X0109395Y0270593D01*
X0109534Y0270671D01*
X0109675Y0270745D01*
X0109818Y0270816D01*
X0109963Y0270884D01*
X0110109Y0270947D01*
X0110257Y0271008D01*
X0110406Y0271064D01*
X0110557Y0271117D01*
X0110709Y0271166D01*
X0110862Y0271211D01*
X0111016Y0271252D01*
X0111171Y0271290D01*
X0111327Y0271323D01*
X0111484Y0271353D01*
X0111641Y0271379D01*
X0111799Y0271400D01*
X0111958Y0271418D01*
X0112117Y0271432D01*
X0112276Y0271442D01*
X0112435Y0271448D01*
X0112595Y0271450D01*
X0112755Y0271448D01*
X0112914Y0271442D01*
X0113073Y0271432D01*
X0113232Y0271418D01*
X0113391Y0271400D01*
X0113549Y0271379D01*
X0113706Y0271353D01*
X0113863Y0271323D01*
X0114019Y0271290D01*
X0114174Y0271252D01*
X0114328Y0271211D01*
X0114481Y0271166D01*
X0114633Y0271117D01*
X0114784Y0271064D01*
X0114933Y0271008D01*
X0115081Y0270947D01*
X0115227Y0270884D01*
X0115372Y0270816D01*
X0115515Y0270745D01*
X0115656Y0270671D01*
X0115795Y0270593D01*
X0115932Y0270511D01*
X0116067Y0270426D01*
X0116200Y0270338D01*
X0116331Y0270246D01*
X0116459Y0270152D01*
X0116585Y0270054D01*
X0116709Y0269953D01*
X0116830Y0269849D01*
X0116948Y0269742D01*
X0117064Y0269632D01*
X0117177Y0269519D01*
X0117287Y0269403D01*
X0117394Y0269285D01*
X0117498Y0269164D01*
X0117599Y0269040D01*
X0117697Y0268914D01*
X0117791Y0268786D01*
X0117883Y0268655D01*
X0117971Y0268522D01*
X0118056Y0268387D01*
X0118138Y0268250D01*
X0118216Y0268111D01*
X0118290Y0267970D01*
X0118361Y0267827D01*
X0118429Y0267682D01*
X0118492Y0267536D01*
X0118553Y0267388D01*
X0118609Y0267239D01*
X0118662Y0267088D01*
X0118711Y0266936D01*
X0118756Y0266783D01*
X0118797Y0266629D01*
X0118835Y0266474D01*
X0118868Y0266318D01*
X0118898Y0266161D01*
X0118924Y0266004D01*
X0118945Y0265846D01*
X0118963Y0265687D01*
X0118977Y0265528D01*
X0118987Y0265369D01*
X0118993Y0265210D01*
X0118995Y0265050D01*
X0118993Y0264890D01*
X0118987Y0264731D01*
X0118977Y0264572D01*
X0118963Y0264413D01*
X0118945Y0264254D01*
X0118924Y0264096D01*
X0118898Y0263939D01*
X0118868Y0263782D01*
X0118835Y0263626D01*
X0118797Y0263471D01*
X0118756Y0263317D01*
X0118711Y0263164D01*
X0118662Y0263012D01*
X0118609Y0262861D01*
X0118553Y0262712D01*
X0118492Y0262564D01*
X0118429Y0262418D01*
X0118361Y0262273D01*
X0118290Y0262130D01*
X0118216Y0261989D01*
X0118138Y0261850D01*
X0118056Y0261713D01*
X0117971Y0261578D01*
X0117883Y0261445D01*
X0117791Y0261314D01*
X0117697Y0261186D01*
X0117599Y0261060D01*
X0117498Y0260936D01*
X0117394Y0260815D01*
X0117287Y0260697D01*
X0117177Y0260581D01*
X0117064Y0260468D01*
X0116948Y0260358D01*
X0116830Y0260251D01*
X0116709Y0260147D01*
X0116585Y0260046D01*
X0116459Y0259948D01*
X0116331Y0259854D01*
X0116200Y0259762D01*
X0116067Y0259674D01*
X0115932Y0259589D01*
X0115795Y0259507D01*
X0115656Y0259429D01*
X0115515Y0259355D01*
X0115372Y0259284D01*
X0115227Y0259216D01*
X0115081Y0259153D01*
X0114933Y0259092D01*
X0114784Y0259036D01*
X0114633Y0258983D01*
X0114481Y0258934D01*
X0114328Y0258889D01*
X0114174Y0258848D01*
X0114019Y0258810D01*
X0113863Y0258777D01*
X0113706Y0258747D01*
X0113549Y0258721D01*
X0113391Y0258700D01*
X0113232Y0258682D01*
X0113073Y0258668D01*
X0112914Y0258658D01*
X0112755Y0258652D01*
X0112595Y0258650D01*
X0112435Y0258652D01*
X0112276Y0258658D01*
X0112117Y0258668D01*
X0111958Y0258682D01*
X0111799Y0258700D01*
X0111641Y0258721D01*
X0111484Y0258747D01*
X0111327Y0258777D01*
X0111171Y0258810D01*
X0111016Y0258848D01*
X0110862Y0258889D01*
X0110709Y0258934D01*
X0110557Y0258983D01*
X0110406Y0259036D01*
X0110257Y0259092D01*
X0110109Y0259153D01*
X0109963Y0259216D01*
X0109818Y0259284D01*
X0109675Y0259355D01*
X0109534Y0259429D01*
X0109395Y0259507D01*
X0109258Y0259589D01*
X0109123Y0259674D01*
X0108990Y0259762D01*
X0108859Y0259854D01*
X0108731Y0259948D01*
X0108605Y0260046D01*
X0108481Y0260147D01*
X0108360Y0260251D01*
X0108242Y0260358D01*
X0108126Y0260468D01*
X0108013Y0260581D01*
X0107903Y0260697D01*
X0107796Y0260815D01*
X0107692Y0260936D01*
X0107591Y0261060D01*
X0107493Y0261186D01*
X0107399Y0261314D01*
X0107307Y0261445D01*
X0107219Y0261578D01*
X0107134Y0261713D01*
X0107052Y0261850D01*
X0106974Y0261989D01*
X0106900Y0262130D01*
X0106829Y0262273D01*
X0106761Y0262418D01*
X0106698Y0262564D01*
X0106637Y0262712D01*
X0106581Y0262861D01*
X0106528Y0263012D01*
X0106479Y0263164D01*
X0106434Y0263317D01*
X0106393Y0263471D01*
X0106355Y0263626D01*
X0106322Y0263782D01*
X0106292Y0263939D01*
X0106266Y0264096D01*
X0106245Y0264254D01*
X0106227Y0264413D01*
X0106213Y0264572D01*
X0106203Y0264731D01*
X0106197Y0264890D01*
X0106195Y0265050D01*
X0053845Y0182550D02*
X0053843Y0182452D01*
X0053837Y0182354D01*
X0053828Y0182256D01*
X0053814Y0182159D01*
X0053797Y0182062D01*
X0053776Y0181966D01*
X0053751Y0181871D01*
X0053723Y0181777D01*
X0053690Y0181685D01*
X0053655Y0181593D01*
X0053615Y0181503D01*
X0053573Y0181415D01*
X0053526Y0181328D01*
X0053477Y0181244D01*
X0053424Y0181161D01*
X0053368Y0181081D01*
X0053308Y0181002D01*
X0053246Y0180926D01*
X0053181Y0180853D01*
X0053113Y0180782D01*
X0053042Y0180714D01*
X0052969Y0180649D01*
X0052893Y0180587D01*
X0052814Y0180527D01*
X0052734Y0180471D01*
X0052651Y0180418D01*
X0052567Y0180369D01*
X0052480Y0180322D01*
X0052392Y0180280D01*
X0052302Y0180240D01*
X0052210Y0180205D01*
X0052118Y0180172D01*
X0052024Y0180144D01*
X0051929Y0180119D01*
X0051833Y0180098D01*
X0051736Y0180081D01*
X0051639Y0180067D01*
X0051541Y0180058D01*
X0051443Y0180052D01*
X0051345Y0180050D01*
X0032546Y0267550D02*
X0032548Y0267708D01*
X0032554Y0267866D01*
X0032564Y0268024D01*
X0032578Y0268182D01*
X0032596Y0268339D01*
X0032617Y0268496D01*
X0032643Y0268652D01*
X0032673Y0268808D01*
X0032706Y0268963D01*
X0032744Y0269116D01*
X0032785Y0269269D01*
X0032830Y0269421D01*
X0032879Y0269572D01*
X0032932Y0269721D01*
X0032988Y0269869D01*
X0033048Y0270015D01*
X0033112Y0270160D01*
X0033180Y0270303D01*
X0033251Y0270445D01*
X0033325Y0270585D01*
X0033403Y0270722D01*
X0033485Y0270858D01*
X0033569Y0270992D01*
X0033658Y0271123D01*
X0033749Y0271252D01*
X0033844Y0271379D01*
X0033941Y0271504D01*
X0034042Y0271626D01*
X0034146Y0271745D01*
X0034253Y0271862D01*
X0034363Y0271976D01*
X0034476Y0272087D01*
X0034591Y0272196D01*
X0034709Y0272301D01*
X0034830Y0272403D01*
X0034953Y0272503D01*
X0035079Y0272599D01*
X0035207Y0272692D01*
X0035337Y0272782D01*
X0035470Y0272868D01*
X0035605Y0272952D01*
X0035741Y0273031D01*
X0035880Y0273108D01*
X0036021Y0273180D01*
X0036163Y0273250D01*
X0036307Y0273315D01*
X0036453Y0273377D01*
X0036600Y0273435D01*
X0036749Y0273490D01*
X0036899Y0273541D01*
X0037050Y0273588D01*
X0037202Y0273631D01*
X0037355Y0273670D01*
X0037510Y0273706D01*
X0037665Y0273737D01*
X0037821Y0273765D01*
X0037977Y0273789D01*
X0038134Y0273809D01*
X0038292Y0273825D01*
X0038449Y0273837D01*
X0038608Y0273845D01*
X0038766Y0273849D01*
X0038924Y0273849D01*
X0039082Y0273845D01*
X0039241Y0273837D01*
X0039398Y0273825D01*
X0039556Y0273809D01*
X0039713Y0273789D01*
X0039869Y0273765D01*
X0040025Y0273737D01*
X0040180Y0273706D01*
X0040335Y0273670D01*
X0040488Y0273631D01*
X0040640Y0273588D01*
X0040791Y0273541D01*
X0040941Y0273490D01*
X0041090Y0273435D01*
X0041237Y0273377D01*
X0041383Y0273315D01*
X0041527Y0273250D01*
X0041669Y0273180D01*
X0041810Y0273108D01*
X0041949Y0273031D01*
X0042085Y0272952D01*
X0042220Y0272868D01*
X0042353Y0272782D01*
X0042483Y0272692D01*
X0042611Y0272599D01*
X0042737Y0272503D01*
X0042860Y0272403D01*
X0042981Y0272301D01*
X0043099Y0272196D01*
X0043214Y0272087D01*
X0043327Y0271976D01*
X0043437Y0271862D01*
X0043544Y0271745D01*
X0043648Y0271626D01*
X0043749Y0271504D01*
X0043846Y0271379D01*
X0043941Y0271252D01*
X0044032Y0271123D01*
X0044121Y0270992D01*
X0044205Y0270858D01*
X0044287Y0270722D01*
X0044365Y0270585D01*
X0044439Y0270445D01*
X0044510Y0270303D01*
X0044578Y0270160D01*
X0044642Y0270015D01*
X0044702Y0269869D01*
X0044758Y0269721D01*
X0044811Y0269572D01*
X0044860Y0269421D01*
X0044905Y0269269D01*
X0044946Y0269116D01*
X0044984Y0268963D01*
X0045017Y0268808D01*
X0045047Y0268652D01*
X0045073Y0268496D01*
X0045094Y0268339D01*
X0045112Y0268182D01*
X0045126Y0268024D01*
X0045136Y0267866D01*
X0045142Y0267708D01*
X0045144Y0267550D01*
X0045142Y0267392D01*
X0045136Y0267234D01*
X0045126Y0267076D01*
X0045112Y0266918D01*
X0045094Y0266761D01*
X0045073Y0266604D01*
X0045047Y0266448D01*
X0045017Y0266292D01*
X0044984Y0266137D01*
X0044946Y0265984D01*
X0044905Y0265831D01*
X0044860Y0265679D01*
X0044811Y0265528D01*
X0044758Y0265379D01*
X0044702Y0265231D01*
X0044642Y0265085D01*
X0044578Y0264940D01*
X0044510Y0264797D01*
X0044439Y0264655D01*
X0044365Y0264515D01*
X0044287Y0264378D01*
X0044205Y0264242D01*
X0044121Y0264108D01*
X0044032Y0263977D01*
X0043941Y0263848D01*
X0043846Y0263721D01*
X0043749Y0263596D01*
X0043648Y0263474D01*
X0043544Y0263355D01*
X0043437Y0263238D01*
X0043327Y0263124D01*
X0043214Y0263013D01*
X0043099Y0262904D01*
X0042981Y0262799D01*
X0042860Y0262697D01*
X0042737Y0262597D01*
X0042611Y0262501D01*
X0042483Y0262408D01*
X0042353Y0262318D01*
X0042220Y0262232D01*
X0042085Y0262148D01*
X0041949Y0262069D01*
X0041810Y0261992D01*
X0041669Y0261920D01*
X0041527Y0261850D01*
X0041383Y0261785D01*
X0041237Y0261723D01*
X0041090Y0261665D01*
X0040941Y0261610D01*
X0040791Y0261559D01*
X0040640Y0261512D01*
X0040488Y0261469D01*
X0040335Y0261430D01*
X0040180Y0261394D01*
X0040025Y0261363D01*
X0039869Y0261335D01*
X0039713Y0261311D01*
X0039556Y0261291D01*
X0039398Y0261275D01*
X0039241Y0261263D01*
X0039082Y0261255D01*
X0038924Y0261251D01*
X0038766Y0261251D01*
X0038608Y0261255D01*
X0038449Y0261263D01*
X0038292Y0261275D01*
X0038134Y0261291D01*
X0037977Y0261311D01*
X0037821Y0261335D01*
X0037665Y0261363D01*
X0037510Y0261394D01*
X0037355Y0261430D01*
X0037202Y0261469D01*
X0037050Y0261512D01*
X0036899Y0261559D01*
X0036749Y0261610D01*
X0036600Y0261665D01*
X0036453Y0261723D01*
X0036307Y0261785D01*
X0036163Y0261850D01*
X0036021Y0261920D01*
X0035880Y0261992D01*
X0035741Y0262069D01*
X0035605Y0262148D01*
X0035470Y0262232D01*
X0035337Y0262318D01*
X0035207Y0262408D01*
X0035079Y0262501D01*
X0034953Y0262597D01*
X0034830Y0262697D01*
X0034709Y0262799D01*
X0034591Y0262904D01*
X0034476Y0263013D01*
X0034363Y0263124D01*
X0034253Y0263238D01*
X0034146Y0263355D01*
X0034042Y0263474D01*
X0033941Y0263596D01*
X0033844Y0263721D01*
X0033749Y0263848D01*
X0033658Y0263977D01*
X0033569Y0264108D01*
X0033485Y0264242D01*
X0033403Y0264378D01*
X0033325Y0264515D01*
X0033251Y0264655D01*
X0033180Y0264797D01*
X0033112Y0264940D01*
X0033048Y0265085D01*
X0032988Y0265231D01*
X0032932Y0265379D01*
X0032879Y0265528D01*
X0032830Y0265679D01*
X0032785Y0265831D01*
X0032744Y0265984D01*
X0032706Y0266137D01*
X0032673Y0266292D01*
X0032643Y0266448D01*
X0032617Y0266604D01*
X0032596Y0266761D01*
X0032578Y0266918D01*
X0032564Y0267076D01*
X0032554Y0267234D01*
X0032548Y0267392D01*
X0032546Y0267550D01*
X0106296Y0038800D02*
X0106298Y0038958D01*
X0106304Y0039116D01*
X0106314Y0039274D01*
X0106328Y0039432D01*
X0106346Y0039589D01*
X0106367Y0039746D01*
X0106393Y0039902D01*
X0106423Y0040058D01*
X0106456Y0040213D01*
X0106494Y0040366D01*
X0106535Y0040519D01*
X0106580Y0040671D01*
X0106629Y0040822D01*
X0106682Y0040971D01*
X0106738Y0041119D01*
X0106798Y0041265D01*
X0106862Y0041410D01*
X0106930Y0041553D01*
X0107001Y0041695D01*
X0107075Y0041835D01*
X0107153Y0041972D01*
X0107235Y0042108D01*
X0107319Y0042242D01*
X0107408Y0042373D01*
X0107499Y0042502D01*
X0107594Y0042629D01*
X0107691Y0042754D01*
X0107792Y0042876D01*
X0107896Y0042995D01*
X0108003Y0043112D01*
X0108113Y0043226D01*
X0108226Y0043337D01*
X0108341Y0043446D01*
X0108459Y0043551D01*
X0108580Y0043653D01*
X0108703Y0043753D01*
X0108829Y0043849D01*
X0108957Y0043942D01*
X0109087Y0044032D01*
X0109220Y0044118D01*
X0109355Y0044202D01*
X0109491Y0044281D01*
X0109630Y0044358D01*
X0109771Y0044430D01*
X0109913Y0044500D01*
X0110057Y0044565D01*
X0110203Y0044627D01*
X0110350Y0044685D01*
X0110499Y0044740D01*
X0110649Y0044791D01*
X0110800Y0044838D01*
X0110952Y0044881D01*
X0111105Y0044920D01*
X0111260Y0044956D01*
X0111415Y0044987D01*
X0111571Y0045015D01*
X0111727Y0045039D01*
X0111884Y0045059D01*
X0112042Y0045075D01*
X0112199Y0045087D01*
X0112358Y0045095D01*
X0112516Y0045099D01*
X0112674Y0045099D01*
X0112832Y0045095D01*
X0112991Y0045087D01*
X0113148Y0045075D01*
X0113306Y0045059D01*
X0113463Y0045039D01*
X0113619Y0045015D01*
X0113775Y0044987D01*
X0113930Y0044956D01*
X0114085Y0044920D01*
X0114238Y0044881D01*
X0114390Y0044838D01*
X0114541Y0044791D01*
X0114691Y0044740D01*
X0114840Y0044685D01*
X0114987Y0044627D01*
X0115133Y0044565D01*
X0115277Y0044500D01*
X0115419Y0044430D01*
X0115560Y0044358D01*
X0115699Y0044281D01*
X0115835Y0044202D01*
X0115970Y0044118D01*
X0116103Y0044032D01*
X0116233Y0043942D01*
X0116361Y0043849D01*
X0116487Y0043753D01*
X0116610Y0043653D01*
X0116731Y0043551D01*
X0116849Y0043446D01*
X0116964Y0043337D01*
X0117077Y0043226D01*
X0117187Y0043112D01*
X0117294Y0042995D01*
X0117398Y0042876D01*
X0117499Y0042754D01*
X0117596Y0042629D01*
X0117691Y0042502D01*
X0117782Y0042373D01*
X0117871Y0042242D01*
X0117955Y0042108D01*
X0118037Y0041972D01*
X0118115Y0041835D01*
X0118189Y0041695D01*
X0118260Y0041553D01*
X0118328Y0041410D01*
X0118392Y0041265D01*
X0118452Y0041119D01*
X0118508Y0040971D01*
X0118561Y0040822D01*
X0118610Y0040671D01*
X0118655Y0040519D01*
X0118696Y0040366D01*
X0118734Y0040213D01*
X0118767Y0040058D01*
X0118797Y0039902D01*
X0118823Y0039746D01*
X0118844Y0039589D01*
X0118862Y0039432D01*
X0118876Y0039274D01*
X0118886Y0039116D01*
X0118892Y0038958D01*
X0118894Y0038800D01*
X0118892Y0038642D01*
X0118886Y0038484D01*
X0118876Y0038326D01*
X0118862Y0038168D01*
X0118844Y0038011D01*
X0118823Y0037854D01*
X0118797Y0037698D01*
X0118767Y0037542D01*
X0118734Y0037387D01*
X0118696Y0037234D01*
X0118655Y0037081D01*
X0118610Y0036929D01*
X0118561Y0036778D01*
X0118508Y0036629D01*
X0118452Y0036481D01*
X0118392Y0036335D01*
X0118328Y0036190D01*
X0118260Y0036047D01*
X0118189Y0035905D01*
X0118115Y0035765D01*
X0118037Y0035628D01*
X0117955Y0035492D01*
X0117871Y0035358D01*
X0117782Y0035227D01*
X0117691Y0035098D01*
X0117596Y0034971D01*
X0117499Y0034846D01*
X0117398Y0034724D01*
X0117294Y0034605D01*
X0117187Y0034488D01*
X0117077Y0034374D01*
X0116964Y0034263D01*
X0116849Y0034154D01*
X0116731Y0034049D01*
X0116610Y0033947D01*
X0116487Y0033847D01*
X0116361Y0033751D01*
X0116233Y0033658D01*
X0116103Y0033568D01*
X0115970Y0033482D01*
X0115835Y0033398D01*
X0115699Y0033319D01*
X0115560Y0033242D01*
X0115419Y0033170D01*
X0115277Y0033100D01*
X0115133Y0033035D01*
X0114987Y0032973D01*
X0114840Y0032915D01*
X0114691Y0032860D01*
X0114541Y0032809D01*
X0114390Y0032762D01*
X0114238Y0032719D01*
X0114085Y0032680D01*
X0113930Y0032644D01*
X0113775Y0032613D01*
X0113619Y0032585D01*
X0113463Y0032561D01*
X0113306Y0032541D01*
X0113148Y0032525D01*
X0112991Y0032513D01*
X0112832Y0032505D01*
X0112674Y0032501D01*
X0112516Y0032501D01*
X0112358Y0032505D01*
X0112199Y0032513D01*
X0112042Y0032525D01*
X0111884Y0032541D01*
X0111727Y0032561D01*
X0111571Y0032585D01*
X0111415Y0032613D01*
X0111260Y0032644D01*
X0111105Y0032680D01*
X0110952Y0032719D01*
X0110800Y0032762D01*
X0110649Y0032809D01*
X0110499Y0032860D01*
X0110350Y0032915D01*
X0110203Y0032973D01*
X0110057Y0033035D01*
X0109913Y0033100D01*
X0109771Y0033170D01*
X0109630Y0033242D01*
X0109491Y0033319D01*
X0109355Y0033398D01*
X0109220Y0033482D01*
X0109087Y0033568D01*
X0108957Y0033658D01*
X0108829Y0033751D01*
X0108703Y0033847D01*
X0108580Y0033947D01*
X0108459Y0034049D01*
X0108341Y0034154D01*
X0108226Y0034263D01*
X0108113Y0034374D01*
X0108003Y0034488D01*
X0107896Y0034605D01*
X0107792Y0034724D01*
X0107691Y0034846D01*
X0107594Y0034971D01*
X0107499Y0035098D01*
X0107408Y0035227D01*
X0107319Y0035358D01*
X0107235Y0035492D01*
X0107153Y0035628D01*
X0107075Y0035765D01*
X0107001Y0035905D01*
X0106930Y0036047D01*
X0106862Y0036190D01*
X0106798Y0036335D01*
X0106738Y0036481D01*
X0106682Y0036629D01*
X0106629Y0036778D01*
X0106580Y0036929D01*
X0106535Y0037081D01*
X0106494Y0037234D01*
X0106456Y0037387D01*
X0106423Y0037542D01*
X0106393Y0037698D01*
X0106367Y0037854D01*
X0106346Y0038011D01*
X0106328Y0038168D01*
X0106314Y0038326D01*
X0106304Y0038484D01*
X0106298Y0038642D01*
X0106296Y0038800D01*
D11*
X0112595Y0038800D03*
X0100095Y0163800D03*
X0112595Y0195050D03*
X0038845Y0267550D03*
X0038845Y0038800D03*
D12*
X0035066Y0061674D03*
X0035066Y0069548D03*
X0035066Y0077422D03*
X0035066Y0085296D03*
X0035066Y0093170D03*
X0035066Y0101044D03*
X0035066Y0108918D03*
X0035066Y0116792D03*
X0098845Y0116792D03*
X0098845Y0108918D03*
X0098845Y0101044D03*
X0098845Y0093170D03*
X0098845Y0085296D03*
X0098845Y0077422D03*
X0098845Y0069548D03*
X0098845Y0061674D03*
D13*
X0087034Y0053800D03*
X0079160Y0053800D03*
X0071286Y0053800D03*
X0063412Y0053800D03*
X0055538Y0053800D03*
X0047664Y0053800D03*
D14*
X0110105Y0053800D03*
X0117585Y0053800D03*
D15*
X0116845Y0062550D03*
X0110845Y0062550D03*
D16*
X0113845Y0062550D03*
D17*
X0100720Y0038700D02*
X0100720Y0033900D01*
X0090720Y0033900D02*
X0090720Y0038700D01*
X0080720Y0038700D02*
X0080720Y0033900D01*
X0070720Y0033900D02*
X0070720Y0038700D01*
X0060720Y0038700D02*
X0060720Y0033900D01*
X0050720Y0033900D02*
X0050720Y0038700D01*
D18*
X0113845Y0144942D03*
X0113845Y0150847D03*
X0113845Y0156753D03*
X0113845Y0162658D03*
X0096453Y0192550D03*
X0090548Y0192550D03*
X0084642Y0192550D03*
X0078737Y0192550D03*
D19*
X0087595Y0225050D03*
X0087595Y0235050D03*
X0087595Y0245050D03*
X0087595Y0255050D03*
X0077595Y0250050D03*
X0077595Y0240050D03*
X0077595Y0230050D03*
X0077595Y0260050D03*
D20*
X0112595Y0265050D03*
X0112595Y0220050D03*
D21*
X0063766Y0222550D03*
X0063766Y0214676D03*
X0063766Y0206999D03*
X0053924Y0206999D03*
X0053924Y0213495D03*
X0053924Y0221369D03*
X0053924Y0229243D03*
X0053924Y0238101D03*
X0063766Y0238101D03*
X0063766Y0230424D03*
D22*
X0038963Y0222550D03*
D23*
X0042113Y0194007D03*
X0042113Y0251093D03*
M02*
