%
M48
M72
T01C0.01969
T02C0.02362
T03C0.02756
T04C0.03150
T05C0.03200
T06C0.03500
T07C0.03600
T08C0.08661
T09C0.09843
T10C0.12598
T11C0.12800
%
T01
X54470Y51300
X68845Y45675
X93220Y45675
X113845Y43175
X123220Y65675
X128220Y65675
X128845Y78175
X126970Y81925
X133220Y79425
X136345Y82550
X111345Y70050
X110095Y76300
X105720Y80675
X103220Y93175
X95095Y90675
X90720Y80675
X84470Y81300
X88845Y73175
X86345Y70050
X91345Y70050
X96345Y70050
X73845Y75050
X73845Y121925
X100095Y132550
X86345Y153800
X80095Y153800
X73845Y153800
X136970Y153800
X172595Y153800
X178845Y153800
X185095Y153800
X198845Y132550
X172595Y121925
X193845Y90675
X201970Y93175
X204470Y80675
X208845Y76300
X210095Y70050
X221970Y65675
X226970Y65675
X227595Y78175
X225720Y81925
X231970Y79425
X235095Y82550
X235095Y106925
X271345Y121925
X297595Y132550
X283845Y153800
X277595Y153800
X271345Y153800
X235720Y153800
X292595Y90675
X300720Y93175
X303220Y80675
X307595Y76300
X308845Y70050
X320720Y65675
X325720Y65675
X326345Y78175
X324470Y81925
X330720Y79425
X333845Y82550
X333845Y106925
X370095Y121925
X396345Y132550
X382595Y153800
X376345Y153800
X370095Y153800
X334470Y153800
X391345Y90675
X399470Y93175
X401970Y80675
X406345Y76300
X407595Y70050
X419470Y65675
X424470Y65675
X425095Y78175
X423220Y81925
X429470Y79425
X432595Y82550
X432595Y106925
X386970Y80675
X380720Y81300
X385095Y73175
X382595Y70050
X387595Y70050
X392595Y70050
X370095Y75050
X350720Y51300
X365095Y45675
X389470Y45675
X410095Y43175
X311345Y43175
X290720Y45675
X266345Y45675
X251970Y51300
X271345Y75050
X281970Y81300
X288220Y80675
X286345Y73175
X283845Y70050
X288845Y70050
X293845Y70050
X212595Y43175
X191970Y45675
X167595Y45675
X153220Y51300
X172595Y75050
X183220Y81300
X189470Y80675
X187595Y73175
X185095Y70050
X190095Y70050
X195095Y70050
X136345Y106925
X433220Y153800
T02
X341345Y160050
X242595Y160050
X143845Y160050
X143845Y257550
X242595Y257550
X341345Y257550
X341345Y48800
X242595Y48800
X143845Y48800
T03
X132595Y144942
X132595Y150847
X132595Y156753
X132595Y162658
X115203Y192550
X109298Y192550
X103392Y192550
X97487Y192550
X196237Y192550
X202142Y192550
X208048Y192550
X213953Y192550
X231345Y162658
X231345Y156753
X231345Y150847
X231345Y144942
X294987Y192550
X300892Y192550
X306798Y192550
X312703Y192550
X330095Y162658
X330095Y156753
X330095Y150847
X330095Y144942
X393737Y192550
X399642Y192550
X405548Y192550
X411453Y192550
X428845Y162658
X428845Y156753
X428845Y150847
X428845Y144942
T04
X378766Y206999
X378766Y214676
X378766Y222550
X378766Y230424
X368924Y229243
X368924Y221369
X368924Y213495
X368924Y206999
X368924Y238101
X378766Y238101
X280016Y238101
X270174Y238101
X270174Y229243
X270174Y221369
X270174Y213495
X270174Y206999
X280016Y206999
X280016Y214676
X280016Y222550
X280016Y230424
X181266Y230424
X181266Y222550
X181266Y214676
X181266Y206999
X171424Y206999
X171424Y213495
X171424Y221369
X171424Y229243
X171424Y238101
X181266Y238101
X82516Y238101
X72674Y238101
X72674Y229243
X72674Y221369
X72674Y213495
X72674Y206999
X82516Y206999
X82516Y214676
X82516Y222550
X82516Y230424
T05
X81970Y36300
X71970Y36300
X91970Y36300
X101970Y36300
X111970Y36300
X121970Y36300
X170720Y36300
X180720Y36300
X190720Y36300
X200720Y36300
X210720Y36300
X220720Y36300
X269470Y36300
X279470Y36300
X289470Y36300
X299470Y36300
X309470Y36300
X319470Y36300
X368220Y36300
X378220Y36300
X388220Y36300
X398220Y36300
X408220Y36300
X418220Y36300
T06
X402595Y225050
X392595Y230050
X402595Y235050
X392595Y240050
X402595Y245050
X402595Y255050
X392595Y260050
X392595Y250050
X303845Y245050
X303845Y255050
X293845Y250050
X293845Y240050
X293845Y230050
X303845Y225050
X303845Y235050
X293845Y260050
X205095Y255050
X205095Y245050
X195095Y240050
X205095Y235050
X195095Y230050
X205095Y225050
X195095Y250050
X195095Y260050
X106345Y255050
X106345Y245050
X106345Y235050
X106345Y225050
X96345Y230050
X96345Y240050
X96345Y250050
X96345Y260050
T07
X107595Y205050
X117595Y205050
X206345Y205050
X216345Y205050
X305095Y205050
X315095Y205050
X403845Y205050
X413845Y205050
T08
X357113Y194007
X357113Y251093
X258363Y251093
X258363Y194007
X159613Y194007
X159613Y251093
X60863Y251093
X60863Y194007
T09
X57713Y222550
X156463Y222550
X255213Y222550
X353963Y222550
T10
X57595Y38800
X156345Y38800
X255095Y38800
X353845Y38800
X313845Y161300
X328845Y195050
X412595Y161300
X427595Y195050
X353845Y267550
X255095Y267550
X230095Y195050
X215095Y161300
X131345Y195050
X116345Y161300
X156345Y267550
X57595Y267550
T11
X131345Y265050
X131345Y220050
X230095Y220050
X230095Y265050
X328845Y265050
X328845Y220050
X427595Y220050
X427595Y265050
M30
