G75*
%MOIN*%
%OFA0B0*%
%FSLAX25Y25*%
%IPPOS*%
%LPD*%
%AMOC8*
5,1,8,0,0,1.08239X$1,22.5*
%
%ADD10C,0.00000*%
%ADD11C,0.00600*%
%ADD12R,0.07874X0.04724*%
%ADD13R,0.04724X0.07874*%
%ADD14R,0.05118X0.05906*%
%ADD15R,0.04600X0.06300*%
%ADD16C,0.04800*%
%ADD17C,0.04331*%
%ADD18C,0.05250*%
%ADD19C,0.04724*%
%ADD20C,0.13843*%
%ADD21C,0.12661*%
%ADD22C,0.01000*%
%ADD23C,0.03169*%
%ADD24C,0.01600*%
%ADD25C,0.05000*%
%ADD26C,0.01200*%
D10*
X0028845Y0038800D02*
X0028845Y0170050D01*
X0028848Y0170292D01*
X0028857Y0170533D01*
X0028871Y0170774D01*
X0028892Y0171015D01*
X0028918Y0171255D01*
X0028950Y0171495D01*
X0028988Y0171734D01*
X0029031Y0171971D01*
X0029081Y0172208D01*
X0029136Y0172443D01*
X0029196Y0172677D01*
X0029263Y0172909D01*
X0029334Y0173140D01*
X0029412Y0173369D01*
X0029495Y0173596D01*
X0029583Y0173821D01*
X0029677Y0174044D01*
X0029776Y0174264D01*
X0029881Y0174482D01*
X0029990Y0174697D01*
X0030105Y0174910D01*
X0030225Y0175120D01*
X0030350Y0175326D01*
X0030480Y0175530D01*
X0030615Y0175731D01*
X0030755Y0175928D01*
X0030899Y0176122D01*
X0031048Y0176312D01*
X0031202Y0176498D01*
X0031360Y0176681D01*
X0031522Y0176860D01*
X0031689Y0177035D01*
X0031860Y0177206D01*
X0032035Y0177373D01*
X0032214Y0177535D01*
X0032397Y0177693D01*
X0032583Y0177847D01*
X0032773Y0177996D01*
X0032967Y0178140D01*
X0033164Y0178280D01*
X0033365Y0178415D01*
X0033569Y0178545D01*
X0033775Y0178670D01*
X0033985Y0178790D01*
X0034198Y0178905D01*
X0034413Y0179014D01*
X0034631Y0179119D01*
X0034851Y0179218D01*
X0035074Y0179312D01*
X0035299Y0179400D01*
X0035526Y0179483D01*
X0035755Y0179561D01*
X0035986Y0179632D01*
X0036218Y0179699D01*
X0036452Y0179759D01*
X0036687Y0179814D01*
X0036924Y0179864D01*
X0037161Y0179907D01*
X0037400Y0179945D01*
X0037640Y0179977D01*
X0037880Y0180003D01*
X0038121Y0180024D01*
X0038362Y0180038D01*
X0038603Y0180047D01*
X0038845Y0180050D01*
X0051345Y0180050D01*
X0053845Y0182550D02*
X0053843Y0182648D01*
X0053837Y0182746D01*
X0053828Y0182844D01*
X0053814Y0182941D01*
X0053797Y0183038D01*
X0053776Y0183134D01*
X0053751Y0183229D01*
X0053723Y0183323D01*
X0053690Y0183415D01*
X0053655Y0183507D01*
X0053615Y0183597D01*
X0053573Y0183685D01*
X0053526Y0183772D01*
X0053477Y0183856D01*
X0053424Y0183939D01*
X0053368Y0184019D01*
X0053308Y0184098D01*
X0053246Y0184174D01*
X0053181Y0184247D01*
X0053113Y0184318D01*
X0053042Y0184386D01*
X0052969Y0184451D01*
X0052893Y0184513D01*
X0052814Y0184573D01*
X0052734Y0184629D01*
X0052651Y0184682D01*
X0052567Y0184731D01*
X0052480Y0184778D01*
X0052392Y0184820D01*
X0052302Y0184860D01*
X0052210Y0184895D01*
X0052118Y0184928D01*
X0052024Y0184956D01*
X0051929Y0184981D01*
X0051833Y0185002D01*
X0051736Y0185019D01*
X0051639Y0185033D01*
X0051541Y0185042D01*
X0051443Y0185048D01*
X0051345Y0185050D01*
X0037595Y0185050D01*
X0037384Y0185053D01*
X0037172Y0185060D01*
X0036961Y0185073D01*
X0036751Y0185091D01*
X0036540Y0185114D01*
X0036331Y0185142D01*
X0036122Y0185175D01*
X0035914Y0185213D01*
X0035707Y0185256D01*
X0035501Y0185304D01*
X0035296Y0185357D01*
X0035093Y0185415D01*
X0034891Y0185478D01*
X0034691Y0185546D01*
X0034492Y0185619D01*
X0034295Y0185696D01*
X0034101Y0185778D01*
X0033908Y0185865D01*
X0033717Y0185956D01*
X0033529Y0186052D01*
X0033343Y0186153D01*
X0033159Y0186258D01*
X0032978Y0186367D01*
X0032800Y0186481D01*
X0032624Y0186599D01*
X0032452Y0186721D01*
X0032282Y0186847D01*
X0032116Y0186978D01*
X0031953Y0187112D01*
X0031793Y0187251D01*
X0031636Y0187393D01*
X0031483Y0187539D01*
X0031334Y0187688D01*
X0031188Y0187841D01*
X0031046Y0187998D01*
X0030907Y0188158D01*
X0030773Y0188321D01*
X0030642Y0188487D01*
X0030516Y0188657D01*
X0030394Y0188829D01*
X0030276Y0189005D01*
X0030162Y0189183D01*
X0030053Y0189364D01*
X0029948Y0189548D01*
X0029847Y0189734D01*
X0029751Y0189922D01*
X0029660Y0190113D01*
X0029573Y0190306D01*
X0029491Y0190500D01*
X0029414Y0190697D01*
X0029341Y0190896D01*
X0029273Y0191096D01*
X0029210Y0191298D01*
X0029152Y0191501D01*
X0029099Y0191706D01*
X0029051Y0191912D01*
X0029008Y0192119D01*
X0028970Y0192327D01*
X0028937Y0192536D01*
X0028909Y0192745D01*
X0028886Y0192956D01*
X0028868Y0193166D01*
X0028855Y0193377D01*
X0028848Y0193589D01*
X0028845Y0193800D01*
X0028845Y0267550D01*
X0028848Y0267792D01*
X0028857Y0268033D01*
X0028871Y0268274D01*
X0028892Y0268515D01*
X0028918Y0268755D01*
X0028950Y0268995D01*
X0028988Y0269234D01*
X0029031Y0269471D01*
X0029081Y0269708D01*
X0029136Y0269943D01*
X0029196Y0270177D01*
X0029263Y0270409D01*
X0029334Y0270640D01*
X0029412Y0270869D01*
X0029495Y0271096D01*
X0029583Y0271321D01*
X0029677Y0271544D01*
X0029776Y0271764D01*
X0029881Y0271982D01*
X0029990Y0272197D01*
X0030105Y0272410D01*
X0030225Y0272620D01*
X0030350Y0272826D01*
X0030480Y0273030D01*
X0030615Y0273231D01*
X0030755Y0273428D01*
X0030899Y0273622D01*
X0031048Y0273812D01*
X0031202Y0273998D01*
X0031360Y0274181D01*
X0031522Y0274360D01*
X0031689Y0274535D01*
X0031860Y0274706D01*
X0032035Y0274873D01*
X0032214Y0275035D01*
X0032397Y0275193D01*
X0032583Y0275347D01*
X0032773Y0275496D01*
X0032967Y0275640D01*
X0033164Y0275780D01*
X0033365Y0275915D01*
X0033569Y0276045D01*
X0033775Y0276170D01*
X0033985Y0276290D01*
X0034198Y0276405D01*
X0034413Y0276514D01*
X0034631Y0276619D01*
X0034851Y0276718D01*
X0035074Y0276812D01*
X0035299Y0276900D01*
X0035526Y0276983D01*
X0035755Y0277061D01*
X0035986Y0277132D01*
X0036218Y0277199D01*
X0036452Y0277259D01*
X0036687Y0277314D01*
X0036924Y0277364D01*
X0037161Y0277407D01*
X0037400Y0277445D01*
X0037640Y0277477D01*
X0037880Y0277503D01*
X0038121Y0277524D01*
X0038362Y0277538D01*
X0038603Y0277547D01*
X0038845Y0277550D01*
X0112595Y0277550D01*
X0112837Y0277547D01*
X0113078Y0277538D01*
X0113319Y0277524D01*
X0113560Y0277503D01*
X0113800Y0277477D01*
X0114040Y0277445D01*
X0114279Y0277407D01*
X0114516Y0277364D01*
X0114753Y0277314D01*
X0114988Y0277259D01*
X0115222Y0277199D01*
X0115454Y0277132D01*
X0115685Y0277061D01*
X0115914Y0276983D01*
X0116141Y0276900D01*
X0116366Y0276812D01*
X0116589Y0276718D01*
X0116809Y0276619D01*
X0117027Y0276514D01*
X0117242Y0276405D01*
X0117455Y0276290D01*
X0117665Y0276170D01*
X0117871Y0276045D01*
X0118075Y0275915D01*
X0118276Y0275780D01*
X0118473Y0275640D01*
X0118667Y0275496D01*
X0118857Y0275347D01*
X0119043Y0275193D01*
X0119226Y0275035D01*
X0119405Y0274873D01*
X0119580Y0274706D01*
X0119751Y0274535D01*
X0119918Y0274360D01*
X0120080Y0274181D01*
X0120238Y0273998D01*
X0120392Y0273812D01*
X0120541Y0273622D01*
X0120685Y0273428D01*
X0120825Y0273231D01*
X0120960Y0273030D01*
X0121090Y0272826D01*
X0121215Y0272620D01*
X0121335Y0272410D01*
X0121450Y0272197D01*
X0121559Y0271982D01*
X0121664Y0271764D01*
X0121763Y0271544D01*
X0121857Y0271321D01*
X0121945Y0271096D01*
X0122028Y0270869D01*
X0122106Y0270640D01*
X0122177Y0270409D01*
X0122244Y0270177D01*
X0122304Y0269943D01*
X0122359Y0269708D01*
X0122409Y0269471D01*
X0122452Y0269234D01*
X0122490Y0268995D01*
X0122522Y0268755D01*
X0122548Y0268515D01*
X0122569Y0268274D01*
X0122583Y0268033D01*
X0122592Y0267792D01*
X0122595Y0267550D01*
X0122595Y0195050D01*
X0122592Y0194808D01*
X0122583Y0194567D01*
X0122569Y0194326D01*
X0122548Y0194085D01*
X0122522Y0193845D01*
X0122490Y0193605D01*
X0122452Y0193366D01*
X0122409Y0193129D01*
X0122359Y0192892D01*
X0122304Y0192657D01*
X0122244Y0192423D01*
X0122177Y0192191D01*
X0122106Y0191960D01*
X0122028Y0191731D01*
X0121945Y0191504D01*
X0121857Y0191279D01*
X0121763Y0191056D01*
X0121664Y0190836D01*
X0121559Y0190618D01*
X0121450Y0190403D01*
X0121335Y0190190D01*
X0121215Y0189980D01*
X0121090Y0189774D01*
X0120960Y0189570D01*
X0120825Y0189369D01*
X0120685Y0189172D01*
X0120541Y0188978D01*
X0120392Y0188788D01*
X0120238Y0188602D01*
X0120080Y0188419D01*
X0119918Y0188240D01*
X0119751Y0188065D01*
X0119580Y0187894D01*
X0119405Y0187727D01*
X0119226Y0187565D01*
X0119043Y0187407D01*
X0118857Y0187253D01*
X0118667Y0187104D01*
X0118473Y0186960D01*
X0118276Y0186820D01*
X0118075Y0186685D01*
X0117871Y0186555D01*
X0117665Y0186430D01*
X0117455Y0186310D01*
X0117242Y0186195D01*
X0117027Y0186086D01*
X0116809Y0185981D01*
X0116589Y0185882D01*
X0116366Y0185788D01*
X0116141Y0185700D01*
X0115914Y0185617D01*
X0115685Y0185539D01*
X0115454Y0185468D01*
X0115222Y0185401D01*
X0114988Y0185341D01*
X0114753Y0185286D01*
X0114516Y0185236D01*
X0114279Y0185193D01*
X0114040Y0185155D01*
X0113800Y0185123D01*
X0113560Y0185097D01*
X0113319Y0185076D01*
X0113078Y0185062D01*
X0112837Y0185053D01*
X0112595Y0185050D01*
X0100095Y0185050D01*
X0099997Y0185048D01*
X0099899Y0185042D01*
X0099801Y0185033D01*
X0099704Y0185019D01*
X0099607Y0185002D01*
X0099511Y0184981D01*
X0099416Y0184956D01*
X0099322Y0184928D01*
X0099230Y0184895D01*
X0099138Y0184860D01*
X0099048Y0184820D01*
X0098960Y0184778D01*
X0098873Y0184731D01*
X0098789Y0184682D01*
X0098706Y0184629D01*
X0098626Y0184573D01*
X0098547Y0184513D01*
X0098471Y0184451D01*
X0098398Y0184386D01*
X0098327Y0184318D01*
X0098259Y0184247D01*
X0098194Y0184174D01*
X0098132Y0184098D01*
X0098072Y0184019D01*
X0098016Y0183939D01*
X0097963Y0183856D01*
X0097914Y0183772D01*
X0097867Y0183685D01*
X0097825Y0183597D01*
X0097785Y0183507D01*
X0097750Y0183415D01*
X0097717Y0183323D01*
X0097689Y0183229D01*
X0097664Y0183134D01*
X0097643Y0183038D01*
X0097626Y0182941D01*
X0097612Y0182844D01*
X0097603Y0182746D01*
X0097597Y0182648D01*
X0097595Y0182550D01*
X0097597Y0182452D01*
X0097603Y0182354D01*
X0097612Y0182256D01*
X0097626Y0182159D01*
X0097643Y0182062D01*
X0097664Y0181966D01*
X0097689Y0181871D01*
X0097717Y0181777D01*
X0097750Y0181685D01*
X0097785Y0181593D01*
X0097825Y0181503D01*
X0097867Y0181415D01*
X0097914Y0181328D01*
X0097963Y0181244D01*
X0098016Y0181161D01*
X0098072Y0181081D01*
X0098132Y0181002D01*
X0098194Y0180926D01*
X0098259Y0180853D01*
X0098327Y0180782D01*
X0098398Y0180714D01*
X0098471Y0180649D01*
X0098547Y0180587D01*
X0098626Y0180527D01*
X0098706Y0180471D01*
X0098789Y0180418D01*
X0098873Y0180369D01*
X0098960Y0180322D01*
X0099048Y0180280D01*
X0099138Y0180240D01*
X0099230Y0180205D01*
X0099322Y0180172D01*
X0099416Y0180144D01*
X0099511Y0180119D01*
X0099607Y0180098D01*
X0099704Y0180081D01*
X0099801Y0180067D01*
X0099899Y0180058D01*
X0099997Y0180052D01*
X0100095Y0180050D01*
X0112595Y0180050D01*
X0112837Y0180047D01*
X0113078Y0180038D01*
X0113319Y0180024D01*
X0113560Y0180003D01*
X0113800Y0179977D01*
X0114040Y0179945D01*
X0114279Y0179907D01*
X0114516Y0179864D01*
X0114753Y0179814D01*
X0114988Y0179759D01*
X0115222Y0179699D01*
X0115454Y0179632D01*
X0115685Y0179561D01*
X0115914Y0179483D01*
X0116141Y0179400D01*
X0116366Y0179312D01*
X0116589Y0179218D01*
X0116809Y0179119D01*
X0117027Y0179014D01*
X0117242Y0178905D01*
X0117455Y0178790D01*
X0117665Y0178670D01*
X0117871Y0178545D01*
X0118075Y0178415D01*
X0118276Y0178280D01*
X0118473Y0178140D01*
X0118667Y0177996D01*
X0118857Y0177847D01*
X0119043Y0177693D01*
X0119226Y0177535D01*
X0119405Y0177373D01*
X0119580Y0177206D01*
X0119751Y0177035D01*
X0119918Y0176860D01*
X0120080Y0176681D01*
X0120238Y0176498D01*
X0120392Y0176312D01*
X0120541Y0176122D01*
X0120685Y0175928D01*
X0120825Y0175731D01*
X0120960Y0175530D01*
X0121090Y0175326D01*
X0121215Y0175120D01*
X0121335Y0174910D01*
X0121450Y0174697D01*
X0121559Y0174482D01*
X0121664Y0174264D01*
X0121763Y0174044D01*
X0121857Y0173821D01*
X0121945Y0173596D01*
X0122028Y0173369D01*
X0122106Y0173140D01*
X0122177Y0172909D01*
X0122244Y0172677D01*
X0122304Y0172443D01*
X0122359Y0172208D01*
X0122409Y0171971D01*
X0122452Y0171734D01*
X0122490Y0171495D01*
X0122522Y0171255D01*
X0122548Y0171015D01*
X0122569Y0170774D01*
X0122583Y0170533D01*
X0122592Y0170292D01*
X0122595Y0170050D01*
X0122595Y0038800D01*
X0122592Y0038558D01*
X0122583Y0038317D01*
X0122569Y0038076D01*
X0122548Y0037835D01*
X0122522Y0037595D01*
X0122490Y0037355D01*
X0122452Y0037116D01*
X0122409Y0036879D01*
X0122359Y0036642D01*
X0122304Y0036407D01*
X0122244Y0036173D01*
X0122177Y0035941D01*
X0122106Y0035710D01*
X0122028Y0035481D01*
X0121945Y0035254D01*
X0121857Y0035029D01*
X0121763Y0034806D01*
X0121664Y0034586D01*
X0121559Y0034368D01*
X0121450Y0034153D01*
X0121335Y0033940D01*
X0121215Y0033730D01*
X0121090Y0033524D01*
X0120960Y0033320D01*
X0120825Y0033119D01*
X0120685Y0032922D01*
X0120541Y0032728D01*
X0120392Y0032538D01*
X0120238Y0032352D01*
X0120080Y0032169D01*
X0119918Y0031990D01*
X0119751Y0031815D01*
X0119580Y0031644D01*
X0119405Y0031477D01*
X0119226Y0031315D01*
X0119043Y0031157D01*
X0118857Y0031003D01*
X0118667Y0030854D01*
X0118473Y0030710D01*
X0118276Y0030570D01*
X0118075Y0030435D01*
X0117871Y0030305D01*
X0117665Y0030180D01*
X0117455Y0030060D01*
X0117242Y0029945D01*
X0117027Y0029836D01*
X0116809Y0029731D01*
X0116589Y0029632D01*
X0116366Y0029538D01*
X0116141Y0029450D01*
X0115914Y0029367D01*
X0115685Y0029289D01*
X0115454Y0029218D01*
X0115222Y0029151D01*
X0114988Y0029091D01*
X0114753Y0029036D01*
X0114516Y0028986D01*
X0114279Y0028943D01*
X0114040Y0028905D01*
X0113800Y0028873D01*
X0113560Y0028847D01*
X0113319Y0028826D01*
X0113078Y0028812D01*
X0112837Y0028803D01*
X0112595Y0028800D01*
X0038845Y0028800D01*
X0038603Y0028803D01*
X0038362Y0028812D01*
X0038121Y0028826D01*
X0037880Y0028847D01*
X0037640Y0028873D01*
X0037400Y0028905D01*
X0037161Y0028943D01*
X0036924Y0028986D01*
X0036687Y0029036D01*
X0036452Y0029091D01*
X0036218Y0029151D01*
X0035986Y0029218D01*
X0035755Y0029289D01*
X0035526Y0029367D01*
X0035299Y0029450D01*
X0035074Y0029538D01*
X0034851Y0029632D01*
X0034631Y0029731D01*
X0034413Y0029836D01*
X0034198Y0029945D01*
X0033985Y0030060D01*
X0033775Y0030180D01*
X0033569Y0030305D01*
X0033365Y0030435D01*
X0033164Y0030570D01*
X0032967Y0030710D01*
X0032773Y0030854D01*
X0032583Y0031003D01*
X0032397Y0031157D01*
X0032214Y0031315D01*
X0032035Y0031477D01*
X0031860Y0031644D01*
X0031689Y0031815D01*
X0031522Y0031990D01*
X0031360Y0032169D01*
X0031202Y0032352D01*
X0031048Y0032538D01*
X0030899Y0032728D01*
X0030755Y0032922D01*
X0030615Y0033119D01*
X0030480Y0033320D01*
X0030350Y0033524D01*
X0030225Y0033730D01*
X0030105Y0033940D01*
X0029990Y0034153D01*
X0029881Y0034368D01*
X0029776Y0034586D01*
X0029677Y0034806D01*
X0029583Y0035029D01*
X0029495Y0035254D01*
X0029412Y0035481D01*
X0029334Y0035710D01*
X0029263Y0035941D01*
X0029196Y0036173D01*
X0029136Y0036407D01*
X0029081Y0036642D01*
X0029031Y0036879D01*
X0028988Y0037116D01*
X0028950Y0037355D01*
X0028918Y0037595D01*
X0028892Y0037835D01*
X0028871Y0038076D01*
X0028857Y0038317D01*
X0028848Y0038558D01*
X0028845Y0038800D01*
X0032546Y0038800D02*
X0032548Y0038958D01*
X0032554Y0039116D01*
X0032564Y0039274D01*
X0032578Y0039432D01*
X0032596Y0039589D01*
X0032617Y0039746D01*
X0032643Y0039902D01*
X0032673Y0040058D01*
X0032706Y0040213D01*
X0032744Y0040366D01*
X0032785Y0040519D01*
X0032830Y0040671D01*
X0032879Y0040822D01*
X0032932Y0040971D01*
X0032988Y0041119D01*
X0033048Y0041265D01*
X0033112Y0041410D01*
X0033180Y0041553D01*
X0033251Y0041695D01*
X0033325Y0041835D01*
X0033403Y0041972D01*
X0033485Y0042108D01*
X0033569Y0042242D01*
X0033658Y0042373D01*
X0033749Y0042502D01*
X0033844Y0042629D01*
X0033941Y0042754D01*
X0034042Y0042876D01*
X0034146Y0042995D01*
X0034253Y0043112D01*
X0034363Y0043226D01*
X0034476Y0043337D01*
X0034591Y0043446D01*
X0034709Y0043551D01*
X0034830Y0043653D01*
X0034953Y0043753D01*
X0035079Y0043849D01*
X0035207Y0043942D01*
X0035337Y0044032D01*
X0035470Y0044118D01*
X0035605Y0044202D01*
X0035741Y0044281D01*
X0035880Y0044358D01*
X0036021Y0044430D01*
X0036163Y0044500D01*
X0036307Y0044565D01*
X0036453Y0044627D01*
X0036600Y0044685D01*
X0036749Y0044740D01*
X0036899Y0044791D01*
X0037050Y0044838D01*
X0037202Y0044881D01*
X0037355Y0044920D01*
X0037510Y0044956D01*
X0037665Y0044987D01*
X0037821Y0045015D01*
X0037977Y0045039D01*
X0038134Y0045059D01*
X0038292Y0045075D01*
X0038449Y0045087D01*
X0038608Y0045095D01*
X0038766Y0045099D01*
X0038924Y0045099D01*
X0039082Y0045095D01*
X0039241Y0045087D01*
X0039398Y0045075D01*
X0039556Y0045059D01*
X0039713Y0045039D01*
X0039869Y0045015D01*
X0040025Y0044987D01*
X0040180Y0044956D01*
X0040335Y0044920D01*
X0040488Y0044881D01*
X0040640Y0044838D01*
X0040791Y0044791D01*
X0040941Y0044740D01*
X0041090Y0044685D01*
X0041237Y0044627D01*
X0041383Y0044565D01*
X0041527Y0044500D01*
X0041669Y0044430D01*
X0041810Y0044358D01*
X0041949Y0044281D01*
X0042085Y0044202D01*
X0042220Y0044118D01*
X0042353Y0044032D01*
X0042483Y0043942D01*
X0042611Y0043849D01*
X0042737Y0043753D01*
X0042860Y0043653D01*
X0042981Y0043551D01*
X0043099Y0043446D01*
X0043214Y0043337D01*
X0043327Y0043226D01*
X0043437Y0043112D01*
X0043544Y0042995D01*
X0043648Y0042876D01*
X0043749Y0042754D01*
X0043846Y0042629D01*
X0043941Y0042502D01*
X0044032Y0042373D01*
X0044121Y0042242D01*
X0044205Y0042108D01*
X0044287Y0041972D01*
X0044365Y0041835D01*
X0044439Y0041695D01*
X0044510Y0041553D01*
X0044578Y0041410D01*
X0044642Y0041265D01*
X0044702Y0041119D01*
X0044758Y0040971D01*
X0044811Y0040822D01*
X0044860Y0040671D01*
X0044905Y0040519D01*
X0044946Y0040366D01*
X0044984Y0040213D01*
X0045017Y0040058D01*
X0045047Y0039902D01*
X0045073Y0039746D01*
X0045094Y0039589D01*
X0045112Y0039432D01*
X0045126Y0039274D01*
X0045136Y0039116D01*
X0045142Y0038958D01*
X0045144Y0038800D01*
X0045142Y0038642D01*
X0045136Y0038484D01*
X0045126Y0038326D01*
X0045112Y0038168D01*
X0045094Y0038011D01*
X0045073Y0037854D01*
X0045047Y0037698D01*
X0045017Y0037542D01*
X0044984Y0037387D01*
X0044946Y0037234D01*
X0044905Y0037081D01*
X0044860Y0036929D01*
X0044811Y0036778D01*
X0044758Y0036629D01*
X0044702Y0036481D01*
X0044642Y0036335D01*
X0044578Y0036190D01*
X0044510Y0036047D01*
X0044439Y0035905D01*
X0044365Y0035765D01*
X0044287Y0035628D01*
X0044205Y0035492D01*
X0044121Y0035358D01*
X0044032Y0035227D01*
X0043941Y0035098D01*
X0043846Y0034971D01*
X0043749Y0034846D01*
X0043648Y0034724D01*
X0043544Y0034605D01*
X0043437Y0034488D01*
X0043327Y0034374D01*
X0043214Y0034263D01*
X0043099Y0034154D01*
X0042981Y0034049D01*
X0042860Y0033947D01*
X0042737Y0033847D01*
X0042611Y0033751D01*
X0042483Y0033658D01*
X0042353Y0033568D01*
X0042220Y0033482D01*
X0042085Y0033398D01*
X0041949Y0033319D01*
X0041810Y0033242D01*
X0041669Y0033170D01*
X0041527Y0033100D01*
X0041383Y0033035D01*
X0041237Y0032973D01*
X0041090Y0032915D01*
X0040941Y0032860D01*
X0040791Y0032809D01*
X0040640Y0032762D01*
X0040488Y0032719D01*
X0040335Y0032680D01*
X0040180Y0032644D01*
X0040025Y0032613D01*
X0039869Y0032585D01*
X0039713Y0032561D01*
X0039556Y0032541D01*
X0039398Y0032525D01*
X0039241Y0032513D01*
X0039082Y0032505D01*
X0038924Y0032501D01*
X0038766Y0032501D01*
X0038608Y0032505D01*
X0038449Y0032513D01*
X0038292Y0032525D01*
X0038134Y0032541D01*
X0037977Y0032561D01*
X0037821Y0032585D01*
X0037665Y0032613D01*
X0037510Y0032644D01*
X0037355Y0032680D01*
X0037202Y0032719D01*
X0037050Y0032762D01*
X0036899Y0032809D01*
X0036749Y0032860D01*
X0036600Y0032915D01*
X0036453Y0032973D01*
X0036307Y0033035D01*
X0036163Y0033100D01*
X0036021Y0033170D01*
X0035880Y0033242D01*
X0035741Y0033319D01*
X0035605Y0033398D01*
X0035470Y0033482D01*
X0035337Y0033568D01*
X0035207Y0033658D01*
X0035079Y0033751D01*
X0034953Y0033847D01*
X0034830Y0033947D01*
X0034709Y0034049D01*
X0034591Y0034154D01*
X0034476Y0034263D01*
X0034363Y0034374D01*
X0034253Y0034488D01*
X0034146Y0034605D01*
X0034042Y0034724D01*
X0033941Y0034846D01*
X0033844Y0034971D01*
X0033749Y0035098D01*
X0033658Y0035227D01*
X0033569Y0035358D01*
X0033485Y0035492D01*
X0033403Y0035628D01*
X0033325Y0035765D01*
X0033251Y0035905D01*
X0033180Y0036047D01*
X0033112Y0036190D01*
X0033048Y0036335D01*
X0032988Y0036481D01*
X0032932Y0036629D01*
X0032879Y0036778D01*
X0032830Y0036929D01*
X0032785Y0037081D01*
X0032744Y0037234D01*
X0032706Y0037387D01*
X0032673Y0037542D01*
X0032643Y0037698D01*
X0032617Y0037854D01*
X0032596Y0038011D01*
X0032578Y0038168D01*
X0032564Y0038326D01*
X0032554Y0038484D01*
X0032548Y0038642D01*
X0032546Y0038800D01*
X0093796Y0163800D02*
X0093798Y0163958D01*
X0093804Y0164116D01*
X0093814Y0164274D01*
X0093828Y0164432D01*
X0093846Y0164589D01*
X0093867Y0164746D01*
X0093893Y0164902D01*
X0093923Y0165058D01*
X0093956Y0165213D01*
X0093994Y0165366D01*
X0094035Y0165519D01*
X0094080Y0165671D01*
X0094129Y0165822D01*
X0094182Y0165971D01*
X0094238Y0166119D01*
X0094298Y0166265D01*
X0094362Y0166410D01*
X0094430Y0166553D01*
X0094501Y0166695D01*
X0094575Y0166835D01*
X0094653Y0166972D01*
X0094735Y0167108D01*
X0094819Y0167242D01*
X0094908Y0167373D01*
X0094999Y0167502D01*
X0095094Y0167629D01*
X0095191Y0167754D01*
X0095292Y0167876D01*
X0095396Y0167995D01*
X0095503Y0168112D01*
X0095613Y0168226D01*
X0095726Y0168337D01*
X0095841Y0168446D01*
X0095959Y0168551D01*
X0096080Y0168653D01*
X0096203Y0168753D01*
X0096329Y0168849D01*
X0096457Y0168942D01*
X0096587Y0169032D01*
X0096720Y0169118D01*
X0096855Y0169202D01*
X0096991Y0169281D01*
X0097130Y0169358D01*
X0097271Y0169430D01*
X0097413Y0169500D01*
X0097557Y0169565D01*
X0097703Y0169627D01*
X0097850Y0169685D01*
X0097999Y0169740D01*
X0098149Y0169791D01*
X0098300Y0169838D01*
X0098452Y0169881D01*
X0098605Y0169920D01*
X0098760Y0169956D01*
X0098915Y0169987D01*
X0099071Y0170015D01*
X0099227Y0170039D01*
X0099384Y0170059D01*
X0099542Y0170075D01*
X0099699Y0170087D01*
X0099858Y0170095D01*
X0100016Y0170099D01*
X0100174Y0170099D01*
X0100332Y0170095D01*
X0100491Y0170087D01*
X0100648Y0170075D01*
X0100806Y0170059D01*
X0100963Y0170039D01*
X0101119Y0170015D01*
X0101275Y0169987D01*
X0101430Y0169956D01*
X0101585Y0169920D01*
X0101738Y0169881D01*
X0101890Y0169838D01*
X0102041Y0169791D01*
X0102191Y0169740D01*
X0102340Y0169685D01*
X0102487Y0169627D01*
X0102633Y0169565D01*
X0102777Y0169500D01*
X0102919Y0169430D01*
X0103060Y0169358D01*
X0103199Y0169281D01*
X0103335Y0169202D01*
X0103470Y0169118D01*
X0103603Y0169032D01*
X0103733Y0168942D01*
X0103861Y0168849D01*
X0103987Y0168753D01*
X0104110Y0168653D01*
X0104231Y0168551D01*
X0104349Y0168446D01*
X0104464Y0168337D01*
X0104577Y0168226D01*
X0104687Y0168112D01*
X0104794Y0167995D01*
X0104898Y0167876D01*
X0104999Y0167754D01*
X0105096Y0167629D01*
X0105191Y0167502D01*
X0105282Y0167373D01*
X0105371Y0167242D01*
X0105455Y0167108D01*
X0105537Y0166972D01*
X0105615Y0166835D01*
X0105689Y0166695D01*
X0105760Y0166553D01*
X0105828Y0166410D01*
X0105892Y0166265D01*
X0105952Y0166119D01*
X0106008Y0165971D01*
X0106061Y0165822D01*
X0106110Y0165671D01*
X0106155Y0165519D01*
X0106196Y0165366D01*
X0106234Y0165213D01*
X0106267Y0165058D01*
X0106297Y0164902D01*
X0106323Y0164746D01*
X0106344Y0164589D01*
X0106362Y0164432D01*
X0106376Y0164274D01*
X0106386Y0164116D01*
X0106392Y0163958D01*
X0106394Y0163800D01*
X0106392Y0163642D01*
X0106386Y0163484D01*
X0106376Y0163326D01*
X0106362Y0163168D01*
X0106344Y0163011D01*
X0106323Y0162854D01*
X0106297Y0162698D01*
X0106267Y0162542D01*
X0106234Y0162387D01*
X0106196Y0162234D01*
X0106155Y0162081D01*
X0106110Y0161929D01*
X0106061Y0161778D01*
X0106008Y0161629D01*
X0105952Y0161481D01*
X0105892Y0161335D01*
X0105828Y0161190D01*
X0105760Y0161047D01*
X0105689Y0160905D01*
X0105615Y0160765D01*
X0105537Y0160628D01*
X0105455Y0160492D01*
X0105371Y0160358D01*
X0105282Y0160227D01*
X0105191Y0160098D01*
X0105096Y0159971D01*
X0104999Y0159846D01*
X0104898Y0159724D01*
X0104794Y0159605D01*
X0104687Y0159488D01*
X0104577Y0159374D01*
X0104464Y0159263D01*
X0104349Y0159154D01*
X0104231Y0159049D01*
X0104110Y0158947D01*
X0103987Y0158847D01*
X0103861Y0158751D01*
X0103733Y0158658D01*
X0103603Y0158568D01*
X0103470Y0158482D01*
X0103335Y0158398D01*
X0103199Y0158319D01*
X0103060Y0158242D01*
X0102919Y0158170D01*
X0102777Y0158100D01*
X0102633Y0158035D01*
X0102487Y0157973D01*
X0102340Y0157915D01*
X0102191Y0157860D01*
X0102041Y0157809D01*
X0101890Y0157762D01*
X0101738Y0157719D01*
X0101585Y0157680D01*
X0101430Y0157644D01*
X0101275Y0157613D01*
X0101119Y0157585D01*
X0100963Y0157561D01*
X0100806Y0157541D01*
X0100648Y0157525D01*
X0100491Y0157513D01*
X0100332Y0157505D01*
X0100174Y0157501D01*
X0100016Y0157501D01*
X0099858Y0157505D01*
X0099699Y0157513D01*
X0099542Y0157525D01*
X0099384Y0157541D01*
X0099227Y0157561D01*
X0099071Y0157585D01*
X0098915Y0157613D01*
X0098760Y0157644D01*
X0098605Y0157680D01*
X0098452Y0157719D01*
X0098300Y0157762D01*
X0098149Y0157809D01*
X0097999Y0157860D01*
X0097850Y0157915D01*
X0097703Y0157973D01*
X0097557Y0158035D01*
X0097413Y0158100D01*
X0097271Y0158170D01*
X0097130Y0158242D01*
X0096991Y0158319D01*
X0096855Y0158398D01*
X0096720Y0158482D01*
X0096587Y0158568D01*
X0096457Y0158658D01*
X0096329Y0158751D01*
X0096203Y0158847D01*
X0096080Y0158947D01*
X0095959Y0159049D01*
X0095841Y0159154D01*
X0095726Y0159263D01*
X0095613Y0159374D01*
X0095503Y0159488D01*
X0095396Y0159605D01*
X0095292Y0159724D01*
X0095191Y0159846D01*
X0095094Y0159971D01*
X0094999Y0160098D01*
X0094908Y0160227D01*
X0094819Y0160358D01*
X0094735Y0160492D01*
X0094653Y0160628D01*
X0094575Y0160765D01*
X0094501Y0160905D01*
X0094430Y0161047D01*
X0094362Y0161190D01*
X0094298Y0161335D01*
X0094238Y0161481D01*
X0094182Y0161629D01*
X0094129Y0161778D01*
X0094080Y0161929D01*
X0094035Y0162081D01*
X0093994Y0162234D01*
X0093956Y0162387D01*
X0093923Y0162542D01*
X0093893Y0162698D01*
X0093867Y0162854D01*
X0093846Y0163011D01*
X0093828Y0163168D01*
X0093814Y0163326D01*
X0093804Y0163484D01*
X0093798Y0163642D01*
X0093796Y0163800D01*
X0085095Y0180050D02*
X0066345Y0180050D01*
X0066247Y0180052D01*
X0066149Y0180058D01*
X0066051Y0180067D01*
X0065954Y0180081D01*
X0065857Y0180098D01*
X0065761Y0180119D01*
X0065666Y0180144D01*
X0065572Y0180172D01*
X0065480Y0180205D01*
X0065388Y0180240D01*
X0065298Y0180280D01*
X0065210Y0180322D01*
X0065123Y0180369D01*
X0065039Y0180418D01*
X0064956Y0180471D01*
X0064876Y0180527D01*
X0064797Y0180587D01*
X0064721Y0180649D01*
X0064648Y0180714D01*
X0064577Y0180782D01*
X0064509Y0180853D01*
X0064444Y0180926D01*
X0064382Y0181002D01*
X0064322Y0181081D01*
X0064266Y0181161D01*
X0064213Y0181244D01*
X0064164Y0181328D01*
X0064117Y0181415D01*
X0064075Y0181503D01*
X0064035Y0181593D01*
X0064000Y0181685D01*
X0063967Y0181777D01*
X0063939Y0181871D01*
X0063914Y0181966D01*
X0063893Y0182062D01*
X0063876Y0182159D01*
X0063862Y0182256D01*
X0063853Y0182354D01*
X0063847Y0182452D01*
X0063845Y0182550D01*
X0063847Y0182648D01*
X0063853Y0182746D01*
X0063862Y0182844D01*
X0063876Y0182941D01*
X0063893Y0183038D01*
X0063914Y0183134D01*
X0063939Y0183229D01*
X0063967Y0183323D01*
X0064000Y0183415D01*
X0064035Y0183507D01*
X0064075Y0183597D01*
X0064117Y0183685D01*
X0064164Y0183772D01*
X0064213Y0183856D01*
X0064266Y0183939D01*
X0064322Y0184019D01*
X0064382Y0184098D01*
X0064444Y0184174D01*
X0064509Y0184247D01*
X0064577Y0184318D01*
X0064648Y0184386D01*
X0064721Y0184451D01*
X0064797Y0184513D01*
X0064876Y0184573D01*
X0064956Y0184629D01*
X0065039Y0184682D01*
X0065123Y0184731D01*
X0065210Y0184778D01*
X0065298Y0184820D01*
X0065388Y0184860D01*
X0065480Y0184895D01*
X0065572Y0184928D01*
X0065666Y0184956D01*
X0065761Y0184981D01*
X0065857Y0185002D01*
X0065954Y0185019D01*
X0066051Y0185033D01*
X0066149Y0185042D01*
X0066247Y0185048D01*
X0066345Y0185050D01*
X0085095Y0185050D01*
X0085193Y0185048D01*
X0085291Y0185042D01*
X0085389Y0185033D01*
X0085486Y0185019D01*
X0085583Y0185002D01*
X0085679Y0184981D01*
X0085774Y0184956D01*
X0085868Y0184928D01*
X0085960Y0184895D01*
X0086052Y0184860D01*
X0086142Y0184820D01*
X0086230Y0184778D01*
X0086317Y0184731D01*
X0086401Y0184682D01*
X0086484Y0184629D01*
X0086564Y0184573D01*
X0086643Y0184513D01*
X0086719Y0184451D01*
X0086792Y0184386D01*
X0086863Y0184318D01*
X0086931Y0184247D01*
X0086996Y0184174D01*
X0087058Y0184098D01*
X0087118Y0184019D01*
X0087174Y0183939D01*
X0087227Y0183856D01*
X0087276Y0183772D01*
X0087323Y0183685D01*
X0087365Y0183597D01*
X0087405Y0183507D01*
X0087440Y0183415D01*
X0087473Y0183323D01*
X0087501Y0183229D01*
X0087526Y0183134D01*
X0087547Y0183038D01*
X0087564Y0182941D01*
X0087578Y0182844D01*
X0087587Y0182746D01*
X0087593Y0182648D01*
X0087595Y0182550D01*
X0087593Y0182452D01*
X0087587Y0182354D01*
X0087578Y0182256D01*
X0087564Y0182159D01*
X0087547Y0182062D01*
X0087526Y0181966D01*
X0087501Y0181871D01*
X0087473Y0181777D01*
X0087440Y0181685D01*
X0087405Y0181593D01*
X0087365Y0181503D01*
X0087323Y0181415D01*
X0087276Y0181328D01*
X0087227Y0181244D01*
X0087174Y0181161D01*
X0087118Y0181081D01*
X0087058Y0181002D01*
X0086996Y0180926D01*
X0086931Y0180853D01*
X0086863Y0180782D01*
X0086792Y0180714D01*
X0086719Y0180649D01*
X0086643Y0180587D01*
X0086564Y0180527D01*
X0086484Y0180471D01*
X0086401Y0180418D01*
X0086317Y0180369D01*
X0086230Y0180322D01*
X0086142Y0180280D01*
X0086052Y0180240D01*
X0085960Y0180205D01*
X0085868Y0180172D01*
X0085774Y0180144D01*
X0085679Y0180119D01*
X0085583Y0180098D01*
X0085486Y0180081D01*
X0085389Y0180067D01*
X0085291Y0180058D01*
X0085193Y0180052D01*
X0085095Y0180050D01*
X0106296Y0195050D02*
X0106298Y0195208D01*
X0106304Y0195366D01*
X0106314Y0195524D01*
X0106328Y0195682D01*
X0106346Y0195839D01*
X0106367Y0195996D01*
X0106393Y0196152D01*
X0106423Y0196308D01*
X0106456Y0196463D01*
X0106494Y0196616D01*
X0106535Y0196769D01*
X0106580Y0196921D01*
X0106629Y0197072D01*
X0106682Y0197221D01*
X0106738Y0197369D01*
X0106798Y0197515D01*
X0106862Y0197660D01*
X0106930Y0197803D01*
X0107001Y0197945D01*
X0107075Y0198085D01*
X0107153Y0198222D01*
X0107235Y0198358D01*
X0107319Y0198492D01*
X0107408Y0198623D01*
X0107499Y0198752D01*
X0107594Y0198879D01*
X0107691Y0199004D01*
X0107792Y0199126D01*
X0107896Y0199245D01*
X0108003Y0199362D01*
X0108113Y0199476D01*
X0108226Y0199587D01*
X0108341Y0199696D01*
X0108459Y0199801D01*
X0108580Y0199903D01*
X0108703Y0200003D01*
X0108829Y0200099D01*
X0108957Y0200192D01*
X0109087Y0200282D01*
X0109220Y0200368D01*
X0109355Y0200452D01*
X0109491Y0200531D01*
X0109630Y0200608D01*
X0109771Y0200680D01*
X0109913Y0200750D01*
X0110057Y0200815D01*
X0110203Y0200877D01*
X0110350Y0200935D01*
X0110499Y0200990D01*
X0110649Y0201041D01*
X0110800Y0201088D01*
X0110952Y0201131D01*
X0111105Y0201170D01*
X0111260Y0201206D01*
X0111415Y0201237D01*
X0111571Y0201265D01*
X0111727Y0201289D01*
X0111884Y0201309D01*
X0112042Y0201325D01*
X0112199Y0201337D01*
X0112358Y0201345D01*
X0112516Y0201349D01*
X0112674Y0201349D01*
X0112832Y0201345D01*
X0112991Y0201337D01*
X0113148Y0201325D01*
X0113306Y0201309D01*
X0113463Y0201289D01*
X0113619Y0201265D01*
X0113775Y0201237D01*
X0113930Y0201206D01*
X0114085Y0201170D01*
X0114238Y0201131D01*
X0114390Y0201088D01*
X0114541Y0201041D01*
X0114691Y0200990D01*
X0114840Y0200935D01*
X0114987Y0200877D01*
X0115133Y0200815D01*
X0115277Y0200750D01*
X0115419Y0200680D01*
X0115560Y0200608D01*
X0115699Y0200531D01*
X0115835Y0200452D01*
X0115970Y0200368D01*
X0116103Y0200282D01*
X0116233Y0200192D01*
X0116361Y0200099D01*
X0116487Y0200003D01*
X0116610Y0199903D01*
X0116731Y0199801D01*
X0116849Y0199696D01*
X0116964Y0199587D01*
X0117077Y0199476D01*
X0117187Y0199362D01*
X0117294Y0199245D01*
X0117398Y0199126D01*
X0117499Y0199004D01*
X0117596Y0198879D01*
X0117691Y0198752D01*
X0117782Y0198623D01*
X0117871Y0198492D01*
X0117955Y0198358D01*
X0118037Y0198222D01*
X0118115Y0198085D01*
X0118189Y0197945D01*
X0118260Y0197803D01*
X0118328Y0197660D01*
X0118392Y0197515D01*
X0118452Y0197369D01*
X0118508Y0197221D01*
X0118561Y0197072D01*
X0118610Y0196921D01*
X0118655Y0196769D01*
X0118696Y0196616D01*
X0118734Y0196463D01*
X0118767Y0196308D01*
X0118797Y0196152D01*
X0118823Y0195996D01*
X0118844Y0195839D01*
X0118862Y0195682D01*
X0118876Y0195524D01*
X0118886Y0195366D01*
X0118892Y0195208D01*
X0118894Y0195050D01*
X0118892Y0194892D01*
X0118886Y0194734D01*
X0118876Y0194576D01*
X0118862Y0194418D01*
X0118844Y0194261D01*
X0118823Y0194104D01*
X0118797Y0193948D01*
X0118767Y0193792D01*
X0118734Y0193637D01*
X0118696Y0193484D01*
X0118655Y0193331D01*
X0118610Y0193179D01*
X0118561Y0193028D01*
X0118508Y0192879D01*
X0118452Y0192731D01*
X0118392Y0192585D01*
X0118328Y0192440D01*
X0118260Y0192297D01*
X0118189Y0192155D01*
X0118115Y0192015D01*
X0118037Y0191878D01*
X0117955Y0191742D01*
X0117871Y0191608D01*
X0117782Y0191477D01*
X0117691Y0191348D01*
X0117596Y0191221D01*
X0117499Y0191096D01*
X0117398Y0190974D01*
X0117294Y0190855D01*
X0117187Y0190738D01*
X0117077Y0190624D01*
X0116964Y0190513D01*
X0116849Y0190404D01*
X0116731Y0190299D01*
X0116610Y0190197D01*
X0116487Y0190097D01*
X0116361Y0190001D01*
X0116233Y0189908D01*
X0116103Y0189818D01*
X0115970Y0189732D01*
X0115835Y0189648D01*
X0115699Y0189569D01*
X0115560Y0189492D01*
X0115419Y0189420D01*
X0115277Y0189350D01*
X0115133Y0189285D01*
X0114987Y0189223D01*
X0114840Y0189165D01*
X0114691Y0189110D01*
X0114541Y0189059D01*
X0114390Y0189012D01*
X0114238Y0188969D01*
X0114085Y0188930D01*
X0113930Y0188894D01*
X0113775Y0188863D01*
X0113619Y0188835D01*
X0113463Y0188811D01*
X0113306Y0188791D01*
X0113148Y0188775D01*
X0112991Y0188763D01*
X0112832Y0188755D01*
X0112674Y0188751D01*
X0112516Y0188751D01*
X0112358Y0188755D01*
X0112199Y0188763D01*
X0112042Y0188775D01*
X0111884Y0188791D01*
X0111727Y0188811D01*
X0111571Y0188835D01*
X0111415Y0188863D01*
X0111260Y0188894D01*
X0111105Y0188930D01*
X0110952Y0188969D01*
X0110800Y0189012D01*
X0110649Y0189059D01*
X0110499Y0189110D01*
X0110350Y0189165D01*
X0110203Y0189223D01*
X0110057Y0189285D01*
X0109913Y0189350D01*
X0109771Y0189420D01*
X0109630Y0189492D01*
X0109491Y0189569D01*
X0109355Y0189648D01*
X0109220Y0189732D01*
X0109087Y0189818D01*
X0108957Y0189908D01*
X0108829Y0190001D01*
X0108703Y0190097D01*
X0108580Y0190197D01*
X0108459Y0190299D01*
X0108341Y0190404D01*
X0108226Y0190513D01*
X0108113Y0190624D01*
X0108003Y0190738D01*
X0107896Y0190855D01*
X0107792Y0190974D01*
X0107691Y0191096D01*
X0107594Y0191221D01*
X0107499Y0191348D01*
X0107408Y0191477D01*
X0107319Y0191608D01*
X0107235Y0191742D01*
X0107153Y0191878D01*
X0107075Y0192015D01*
X0107001Y0192155D01*
X0106930Y0192297D01*
X0106862Y0192440D01*
X0106798Y0192585D01*
X0106738Y0192731D01*
X0106682Y0192879D01*
X0106629Y0193028D01*
X0106580Y0193179D01*
X0106535Y0193331D01*
X0106494Y0193484D01*
X0106456Y0193637D01*
X0106423Y0193792D01*
X0106393Y0193948D01*
X0106367Y0194104D01*
X0106346Y0194261D01*
X0106328Y0194418D01*
X0106314Y0194576D01*
X0106304Y0194734D01*
X0106298Y0194892D01*
X0106296Y0195050D01*
X0106195Y0220050D02*
X0106197Y0220210D01*
X0106203Y0220369D01*
X0106213Y0220528D01*
X0106227Y0220687D01*
X0106245Y0220846D01*
X0106266Y0221004D01*
X0106292Y0221161D01*
X0106322Y0221318D01*
X0106355Y0221474D01*
X0106393Y0221629D01*
X0106434Y0221783D01*
X0106479Y0221936D01*
X0106528Y0222088D01*
X0106581Y0222239D01*
X0106637Y0222388D01*
X0106698Y0222536D01*
X0106761Y0222682D01*
X0106829Y0222827D01*
X0106900Y0222970D01*
X0106974Y0223111D01*
X0107052Y0223250D01*
X0107134Y0223387D01*
X0107219Y0223522D01*
X0107307Y0223655D01*
X0107399Y0223786D01*
X0107493Y0223914D01*
X0107591Y0224040D01*
X0107692Y0224164D01*
X0107796Y0224285D01*
X0107903Y0224403D01*
X0108013Y0224519D01*
X0108126Y0224632D01*
X0108242Y0224742D01*
X0108360Y0224849D01*
X0108481Y0224953D01*
X0108605Y0225054D01*
X0108731Y0225152D01*
X0108859Y0225246D01*
X0108990Y0225338D01*
X0109123Y0225426D01*
X0109258Y0225511D01*
X0109395Y0225593D01*
X0109534Y0225671D01*
X0109675Y0225745D01*
X0109818Y0225816D01*
X0109963Y0225884D01*
X0110109Y0225947D01*
X0110257Y0226008D01*
X0110406Y0226064D01*
X0110557Y0226117D01*
X0110709Y0226166D01*
X0110862Y0226211D01*
X0111016Y0226252D01*
X0111171Y0226290D01*
X0111327Y0226323D01*
X0111484Y0226353D01*
X0111641Y0226379D01*
X0111799Y0226400D01*
X0111958Y0226418D01*
X0112117Y0226432D01*
X0112276Y0226442D01*
X0112435Y0226448D01*
X0112595Y0226450D01*
X0112755Y0226448D01*
X0112914Y0226442D01*
X0113073Y0226432D01*
X0113232Y0226418D01*
X0113391Y0226400D01*
X0113549Y0226379D01*
X0113706Y0226353D01*
X0113863Y0226323D01*
X0114019Y0226290D01*
X0114174Y0226252D01*
X0114328Y0226211D01*
X0114481Y0226166D01*
X0114633Y0226117D01*
X0114784Y0226064D01*
X0114933Y0226008D01*
X0115081Y0225947D01*
X0115227Y0225884D01*
X0115372Y0225816D01*
X0115515Y0225745D01*
X0115656Y0225671D01*
X0115795Y0225593D01*
X0115932Y0225511D01*
X0116067Y0225426D01*
X0116200Y0225338D01*
X0116331Y0225246D01*
X0116459Y0225152D01*
X0116585Y0225054D01*
X0116709Y0224953D01*
X0116830Y0224849D01*
X0116948Y0224742D01*
X0117064Y0224632D01*
X0117177Y0224519D01*
X0117287Y0224403D01*
X0117394Y0224285D01*
X0117498Y0224164D01*
X0117599Y0224040D01*
X0117697Y0223914D01*
X0117791Y0223786D01*
X0117883Y0223655D01*
X0117971Y0223522D01*
X0118056Y0223387D01*
X0118138Y0223250D01*
X0118216Y0223111D01*
X0118290Y0222970D01*
X0118361Y0222827D01*
X0118429Y0222682D01*
X0118492Y0222536D01*
X0118553Y0222388D01*
X0118609Y0222239D01*
X0118662Y0222088D01*
X0118711Y0221936D01*
X0118756Y0221783D01*
X0118797Y0221629D01*
X0118835Y0221474D01*
X0118868Y0221318D01*
X0118898Y0221161D01*
X0118924Y0221004D01*
X0118945Y0220846D01*
X0118963Y0220687D01*
X0118977Y0220528D01*
X0118987Y0220369D01*
X0118993Y0220210D01*
X0118995Y0220050D01*
X0118993Y0219890D01*
X0118987Y0219731D01*
X0118977Y0219572D01*
X0118963Y0219413D01*
X0118945Y0219254D01*
X0118924Y0219096D01*
X0118898Y0218939D01*
X0118868Y0218782D01*
X0118835Y0218626D01*
X0118797Y0218471D01*
X0118756Y0218317D01*
X0118711Y0218164D01*
X0118662Y0218012D01*
X0118609Y0217861D01*
X0118553Y0217712D01*
X0118492Y0217564D01*
X0118429Y0217418D01*
X0118361Y0217273D01*
X0118290Y0217130D01*
X0118216Y0216989D01*
X0118138Y0216850D01*
X0118056Y0216713D01*
X0117971Y0216578D01*
X0117883Y0216445D01*
X0117791Y0216314D01*
X0117697Y0216186D01*
X0117599Y0216060D01*
X0117498Y0215936D01*
X0117394Y0215815D01*
X0117287Y0215697D01*
X0117177Y0215581D01*
X0117064Y0215468D01*
X0116948Y0215358D01*
X0116830Y0215251D01*
X0116709Y0215147D01*
X0116585Y0215046D01*
X0116459Y0214948D01*
X0116331Y0214854D01*
X0116200Y0214762D01*
X0116067Y0214674D01*
X0115932Y0214589D01*
X0115795Y0214507D01*
X0115656Y0214429D01*
X0115515Y0214355D01*
X0115372Y0214284D01*
X0115227Y0214216D01*
X0115081Y0214153D01*
X0114933Y0214092D01*
X0114784Y0214036D01*
X0114633Y0213983D01*
X0114481Y0213934D01*
X0114328Y0213889D01*
X0114174Y0213848D01*
X0114019Y0213810D01*
X0113863Y0213777D01*
X0113706Y0213747D01*
X0113549Y0213721D01*
X0113391Y0213700D01*
X0113232Y0213682D01*
X0113073Y0213668D01*
X0112914Y0213658D01*
X0112755Y0213652D01*
X0112595Y0213650D01*
X0112435Y0213652D01*
X0112276Y0213658D01*
X0112117Y0213668D01*
X0111958Y0213682D01*
X0111799Y0213700D01*
X0111641Y0213721D01*
X0111484Y0213747D01*
X0111327Y0213777D01*
X0111171Y0213810D01*
X0111016Y0213848D01*
X0110862Y0213889D01*
X0110709Y0213934D01*
X0110557Y0213983D01*
X0110406Y0214036D01*
X0110257Y0214092D01*
X0110109Y0214153D01*
X0109963Y0214216D01*
X0109818Y0214284D01*
X0109675Y0214355D01*
X0109534Y0214429D01*
X0109395Y0214507D01*
X0109258Y0214589D01*
X0109123Y0214674D01*
X0108990Y0214762D01*
X0108859Y0214854D01*
X0108731Y0214948D01*
X0108605Y0215046D01*
X0108481Y0215147D01*
X0108360Y0215251D01*
X0108242Y0215358D01*
X0108126Y0215468D01*
X0108013Y0215581D01*
X0107903Y0215697D01*
X0107796Y0215815D01*
X0107692Y0215936D01*
X0107591Y0216060D01*
X0107493Y0216186D01*
X0107399Y0216314D01*
X0107307Y0216445D01*
X0107219Y0216578D01*
X0107134Y0216713D01*
X0107052Y0216850D01*
X0106974Y0216989D01*
X0106900Y0217130D01*
X0106829Y0217273D01*
X0106761Y0217418D01*
X0106698Y0217564D01*
X0106637Y0217712D01*
X0106581Y0217861D01*
X0106528Y0218012D01*
X0106479Y0218164D01*
X0106434Y0218317D01*
X0106393Y0218471D01*
X0106355Y0218626D01*
X0106322Y0218782D01*
X0106292Y0218939D01*
X0106266Y0219096D01*
X0106245Y0219254D01*
X0106227Y0219413D01*
X0106213Y0219572D01*
X0106203Y0219731D01*
X0106197Y0219890D01*
X0106195Y0220050D01*
X0106195Y0265050D02*
X0106197Y0265210D01*
X0106203Y0265369D01*
X0106213Y0265528D01*
X0106227Y0265687D01*
X0106245Y0265846D01*
X0106266Y0266004D01*
X0106292Y0266161D01*
X0106322Y0266318D01*
X0106355Y0266474D01*
X0106393Y0266629D01*
X0106434Y0266783D01*
X0106479Y0266936D01*
X0106528Y0267088D01*
X0106581Y0267239D01*
X0106637Y0267388D01*
X0106698Y0267536D01*
X0106761Y0267682D01*
X0106829Y0267827D01*
X0106900Y0267970D01*
X0106974Y0268111D01*
X0107052Y0268250D01*
X0107134Y0268387D01*
X0107219Y0268522D01*
X0107307Y0268655D01*
X0107399Y0268786D01*
X0107493Y0268914D01*
X0107591Y0269040D01*
X0107692Y0269164D01*
X0107796Y0269285D01*
X0107903Y0269403D01*
X0108013Y0269519D01*
X0108126Y0269632D01*
X0108242Y0269742D01*
X0108360Y0269849D01*
X0108481Y0269953D01*
X0108605Y0270054D01*
X0108731Y0270152D01*
X0108859Y0270246D01*
X0108990Y0270338D01*
X0109123Y0270426D01*
X0109258Y0270511D01*
X0109395Y0270593D01*
X0109534Y0270671D01*
X0109675Y0270745D01*
X0109818Y0270816D01*
X0109963Y0270884D01*
X0110109Y0270947D01*
X0110257Y0271008D01*
X0110406Y0271064D01*
X0110557Y0271117D01*
X0110709Y0271166D01*
X0110862Y0271211D01*
X0111016Y0271252D01*
X0111171Y0271290D01*
X0111327Y0271323D01*
X0111484Y0271353D01*
X0111641Y0271379D01*
X0111799Y0271400D01*
X0111958Y0271418D01*
X0112117Y0271432D01*
X0112276Y0271442D01*
X0112435Y0271448D01*
X0112595Y0271450D01*
X0112755Y0271448D01*
X0112914Y0271442D01*
X0113073Y0271432D01*
X0113232Y0271418D01*
X0113391Y0271400D01*
X0113549Y0271379D01*
X0113706Y0271353D01*
X0113863Y0271323D01*
X0114019Y0271290D01*
X0114174Y0271252D01*
X0114328Y0271211D01*
X0114481Y0271166D01*
X0114633Y0271117D01*
X0114784Y0271064D01*
X0114933Y0271008D01*
X0115081Y0270947D01*
X0115227Y0270884D01*
X0115372Y0270816D01*
X0115515Y0270745D01*
X0115656Y0270671D01*
X0115795Y0270593D01*
X0115932Y0270511D01*
X0116067Y0270426D01*
X0116200Y0270338D01*
X0116331Y0270246D01*
X0116459Y0270152D01*
X0116585Y0270054D01*
X0116709Y0269953D01*
X0116830Y0269849D01*
X0116948Y0269742D01*
X0117064Y0269632D01*
X0117177Y0269519D01*
X0117287Y0269403D01*
X0117394Y0269285D01*
X0117498Y0269164D01*
X0117599Y0269040D01*
X0117697Y0268914D01*
X0117791Y0268786D01*
X0117883Y0268655D01*
X0117971Y0268522D01*
X0118056Y0268387D01*
X0118138Y0268250D01*
X0118216Y0268111D01*
X0118290Y0267970D01*
X0118361Y0267827D01*
X0118429Y0267682D01*
X0118492Y0267536D01*
X0118553Y0267388D01*
X0118609Y0267239D01*
X0118662Y0267088D01*
X0118711Y0266936D01*
X0118756Y0266783D01*
X0118797Y0266629D01*
X0118835Y0266474D01*
X0118868Y0266318D01*
X0118898Y0266161D01*
X0118924Y0266004D01*
X0118945Y0265846D01*
X0118963Y0265687D01*
X0118977Y0265528D01*
X0118987Y0265369D01*
X0118993Y0265210D01*
X0118995Y0265050D01*
X0118993Y0264890D01*
X0118987Y0264731D01*
X0118977Y0264572D01*
X0118963Y0264413D01*
X0118945Y0264254D01*
X0118924Y0264096D01*
X0118898Y0263939D01*
X0118868Y0263782D01*
X0118835Y0263626D01*
X0118797Y0263471D01*
X0118756Y0263317D01*
X0118711Y0263164D01*
X0118662Y0263012D01*
X0118609Y0262861D01*
X0118553Y0262712D01*
X0118492Y0262564D01*
X0118429Y0262418D01*
X0118361Y0262273D01*
X0118290Y0262130D01*
X0118216Y0261989D01*
X0118138Y0261850D01*
X0118056Y0261713D01*
X0117971Y0261578D01*
X0117883Y0261445D01*
X0117791Y0261314D01*
X0117697Y0261186D01*
X0117599Y0261060D01*
X0117498Y0260936D01*
X0117394Y0260815D01*
X0117287Y0260697D01*
X0117177Y0260581D01*
X0117064Y0260468D01*
X0116948Y0260358D01*
X0116830Y0260251D01*
X0116709Y0260147D01*
X0116585Y0260046D01*
X0116459Y0259948D01*
X0116331Y0259854D01*
X0116200Y0259762D01*
X0116067Y0259674D01*
X0115932Y0259589D01*
X0115795Y0259507D01*
X0115656Y0259429D01*
X0115515Y0259355D01*
X0115372Y0259284D01*
X0115227Y0259216D01*
X0115081Y0259153D01*
X0114933Y0259092D01*
X0114784Y0259036D01*
X0114633Y0258983D01*
X0114481Y0258934D01*
X0114328Y0258889D01*
X0114174Y0258848D01*
X0114019Y0258810D01*
X0113863Y0258777D01*
X0113706Y0258747D01*
X0113549Y0258721D01*
X0113391Y0258700D01*
X0113232Y0258682D01*
X0113073Y0258668D01*
X0112914Y0258658D01*
X0112755Y0258652D01*
X0112595Y0258650D01*
X0112435Y0258652D01*
X0112276Y0258658D01*
X0112117Y0258668D01*
X0111958Y0258682D01*
X0111799Y0258700D01*
X0111641Y0258721D01*
X0111484Y0258747D01*
X0111327Y0258777D01*
X0111171Y0258810D01*
X0111016Y0258848D01*
X0110862Y0258889D01*
X0110709Y0258934D01*
X0110557Y0258983D01*
X0110406Y0259036D01*
X0110257Y0259092D01*
X0110109Y0259153D01*
X0109963Y0259216D01*
X0109818Y0259284D01*
X0109675Y0259355D01*
X0109534Y0259429D01*
X0109395Y0259507D01*
X0109258Y0259589D01*
X0109123Y0259674D01*
X0108990Y0259762D01*
X0108859Y0259854D01*
X0108731Y0259948D01*
X0108605Y0260046D01*
X0108481Y0260147D01*
X0108360Y0260251D01*
X0108242Y0260358D01*
X0108126Y0260468D01*
X0108013Y0260581D01*
X0107903Y0260697D01*
X0107796Y0260815D01*
X0107692Y0260936D01*
X0107591Y0261060D01*
X0107493Y0261186D01*
X0107399Y0261314D01*
X0107307Y0261445D01*
X0107219Y0261578D01*
X0107134Y0261713D01*
X0107052Y0261850D01*
X0106974Y0261989D01*
X0106900Y0262130D01*
X0106829Y0262273D01*
X0106761Y0262418D01*
X0106698Y0262564D01*
X0106637Y0262712D01*
X0106581Y0262861D01*
X0106528Y0263012D01*
X0106479Y0263164D01*
X0106434Y0263317D01*
X0106393Y0263471D01*
X0106355Y0263626D01*
X0106322Y0263782D01*
X0106292Y0263939D01*
X0106266Y0264096D01*
X0106245Y0264254D01*
X0106227Y0264413D01*
X0106213Y0264572D01*
X0106203Y0264731D01*
X0106197Y0264890D01*
X0106195Y0265050D01*
X0053845Y0182550D02*
X0053843Y0182452D01*
X0053837Y0182354D01*
X0053828Y0182256D01*
X0053814Y0182159D01*
X0053797Y0182062D01*
X0053776Y0181966D01*
X0053751Y0181871D01*
X0053723Y0181777D01*
X0053690Y0181685D01*
X0053655Y0181593D01*
X0053615Y0181503D01*
X0053573Y0181415D01*
X0053526Y0181328D01*
X0053477Y0181244D01*
X0053424Y0181161D01*
X0053368Y0181081D01*
X0053308Y0181002D01*
X0053246Y0180926D01*
X0053181Y0180853D01*
X0053113Y0180782D01*
X0053042Y0180714D01*
X0052969Y0180649D01*
X0052893Y0180587D01*
X0052814Y0180527D01*
X0052734Y0180471D01*
X0052651Y0180418D01*
X0052567Y0180369D01*
X0052480Y0180322D01*
X0052392Y0180280D01*
X0052302Y0180240D01*
X0052210Y0180205D01*
X0052118Y0180172D01*
X0052024Y0180144D01*
X0051929Y0180119D01*
X0051833Y0180098D01*
X0051736Y0180081D01*
X0051639Y0180067D01*
X0051541Y0180058D01*
X0051443Y0180052D01*
X0051345Y0180050D01*
X0032546Y0267550D02*
X0032548Y0267708D01*
X0032554Y0267866D01*
X0032564Y0268024D01*
X0032578Y0268182D01*
X0032596Y0268339D01*
X0032617Y0268496D01*
X0032643Y0268652D01*
X0032673Y0268808D01*
X0032706Y0268963D01*
X0032744Y0269116D01*
X0032785Y0269269D01*
X0032830Y0269421D01*
X0032879Y0269572D01*
X0032932Y0269721D01*
X0032988Y0269869D01*
X0033048Y0270015D01*
X0033112Y0270160D01*
X0033180Y0270303D01*
X0033251Y0270445D01*
X0033325Y0270585D01*
X0033403Y0270722D01*
X0033485Y0270858D01*
X0033569Y0270992D01*
X0033658Y0271123D01*
X0033749Y0271252D01*
X0033844Y0271379D01*
X0033941Y0271504D01*
X0034042Y0271626D01*
X0034146Y0271745D01*
X0034253Y0271862D01*
X0034363Y0271976D01*
X0034476Y0272087D01*
X0034591Y0272196D01*
X0034709Y0272301D01*
X0034830Y0272403D01*
X0034953Y0272503D01*
X0035079Y0272599D01*
X0035207Y0272692D01*
X0035337Y0272782D01*
X0035470Y0272868D01*
X0035605Y0272952D01*
X0035741Y0273031D01*
X0035880Y0273108D01*
X0036021Y0273180D01*
X0036163Y0273250D01*
X0036307Y0273315D01*
X0036453Y0273377D01*
X0036600Y0273435D01*
X0036749Y0273490D01*
X0036899Y0273541D01*
X0037050Y0273588D01*
X0037202Y0273631D01*
X0037355Y0273670D01*
X0037510Y0273706D01*
X0037665Y0273737D01*
X0037821Y0273765D01*
X0037977Y0273789D01*
X0038134Y0273809D01*
X0038292Y0273825D01*
X0038449Y0273837D01*
X0038608Y0273845D01*
X0038766Y0273849D01*
X0038924Y0273849D01*
X0039082Y0273845D01*
X0039241Y0273837D01*
X0039398Y0273825D01*
X0039556Y0273809D01*
X0039713Y0273789D01*
X0039869Y0273765D01*
X0040025Y0273737D01*
X0040180Y0273706D01*
X0040335Y0273670D01*
X0040488Y0273631D01*
X0040640Y0273588D01*
X0040791Y0273541D01*
X0040941Y0273490D01*
X0041090Y0273435D01*
X0041237Y0273377D01*
X0041383Y0273315D01*
X0041527Y0273250D01*
X0041669Y0273180D01*
X0041810Y0273108D01*
X0041949Y0273031D01*
X0042085Y0272952D01*
X0042220Y0272868D01*
X0042353Y0272782D01*
X0042483Y0272692D01*
X0042611Y0272599D01*
X0042737Y0272503D01*
X0042860Y0272403D01*
X0042981Y0272301D01*
X0043099Y0272196D01*
X0043214Y0272087D01*
X0043327Y0271976D01*
X0043437Y0271862D01*
X0043544Y0271745D01*
X0043648Y0271626D01*
X0043749Y0271504D01*
X0043846Y0271379D01*
X0043941Y0271252D01*
X0044032Y0271123D01*
X0044121Y0270992D01*
X0044205Y0270858D01*
X0044287Y0270722D01*
X0044365Y0270585D01*
X0044439Y0270445D01*
X0044510Y0270303D01*
X0044578Y0270160D01*
X0044642Y0270015D01*
X0044702Y0269869D01*
X0044758Y0269721D01*
X0044811Y0269572D01*
X0044860Y0269421D01*
X0044905Y0269269D01*
X0044946Y0269116D01*
X0044984Y0268963D01*
X0045017Y0268808D01*
X0045047Y0268652D01*
X0045073Y0268496D01*
X0045094Y0268339D01*
X0045112Y0268182D01*
X0045126Y0268024D01*
X0045136Y0267866D01*
X0045142Y0267708D01*
X0045144Y0267550D01*
X0045142Y0267392D01*
X0045136Y0267234D01*
X0045126Y0267076D01*
X0045112Y0266918D01*
X0045094Y0266761D01*
X0045073Y0266604D01*
X0045047Y0266448D01*
X0045017Y0266292D01*
X0044984Y0266137D01*
X0044946Y0265984D01*
X0044905Y0265831D01*
X0044860Y0265679D01*
X0044811Y0265528D01*
X0044758Y0265379D01*
X0044702Y0265231D01*
X0044642Y0265085D01*
X0044578Y0264940D01*
X0044510Y0264797D01*
X0044439Y0264655D01*
X0044365Y0264515D01*
X0044287Y0264378D01*
X0044205Y0264242D01*
X0044121Y0264108D01*
X0044032Y0263977D01*
X0043941Y0263848D01*
X0043846Y0263721D01*
X0043749Y0263596D01*
X0043648Y0263474D01*
X0043544Y0263355D01*
X0043437Y0263238D01*
X0043327Y0263124D01*
X0043214Y0263013D01*
X0043099Y0262904D01*
X0042981Y0262799D01*
X0042860Y0262697D01*
X0042737Y0262597D01*
X0042611Y0262501D01*
X0042483Y0262408D01*
X0042353Y0262318D01*
X0042220Y0262232D01*
X0042085Y0262148D01*
X0041949Y0262069D01*
X0041810Y0261992D01*
X0041669Y0261920D01*
X0041527Y0261850D01*
X0041383Y0261785D01*
X0041237Y0261723D01*
X0041090Y0261665D01*
X0040941Y0261610D01*
X0040791Y0261559D01*
X0040640Y0261512D01*
X0040488Y0261469D01*
X0040335Y0261430D01*
X0040180Y0261394D01*
X0040025Y0261363D01*
X0039869Y0261335D01*
X0039713Y0261311D01*
X0039556Y0261291D01*
X0039398Y0261275D01*
X0039241Y0261263D01*
X0039082Y0261255D01*
X0038924Y0261251D01*
X0038766Y0261251D01*
X0038608Y0261255D01*
X0038449Y0261263D01*
X0038292Y0261275D01*
X0038134Y0261291D01*
X0037977Y0261311D01*
X0037821Y0261335D01*
X0037665Y0261363D01*
X0037510Y0261394D01*
X0037355Y0261430D01*
X0037202Y0261469D01*
X0037050Y0261512D01*
X0036899Y0261559D01*
X0036749Y0261610D01*
X0036600Y0261665D01*
X0036453Y0261723D01*
X0036307Y0261785D01*
X0036163Y0261850D01*
X0036021Y0261920D01*
X0035880Y0261992D01*
X0035741Y0262069D01*
X0035605Y0262148D01*
X0035470Y0262232D01*
X0035337Y0262318D01*
X0035207Y0262408D01*
X0035079Y0262501D01*
X0034953Y0262597D01*
X0034830Y0262697D01*
X0034709Y0262799D01*
X0034591Y0262904D01*
X0034476Y0263013D01*
X0034363Y0263124D01*
X0034253Y0263238D01*
X0034146Y0263355D01*
X0034042Y0263474D01*
X0033941Y0263596D01*
X0033844Y0263721D01*
X0033749Y0263848D01*
X0033658Y0263977D01*
X0033569Y0264108D01*
X0033485Y0264242D01*
X0033403Y0264378D01*
X0033325Y0264515D01*
X0033251Y0264655D01*
X0033180Y0264797D01*
X0033112Y0264940D01*
X0033048Y0265085D01*
X0032988Y0265231D01*
X0032932Y0265379D01*
X0032879Y0265528D01*
X0032830Y0265679D01*
X0032785Y0265831D01*
X0032744Y0265984D01*
X0032706Y0266137D01*
X0032673Y0266292D01*
X0032643Y0266448D01*
X0032617Y0266604D01*
X0032596Y0266761D01*
X0032578Y0266918D01*
X0032564Y0267076D01*
X0032554Y0267234D01*
X0032548Y0267392D01*
X0032546Y0267550D01*
X0106296Y0038800D02*
X0106298Y0038958D01*
X0106304Y0039116D01*
X0106314Y0039274D01*
X0106328Y0039432D01*
X0106346Y0039589D01*
X0106367Y0039746D01*
X0106393Y0039902D01*
X0106423Y0040058D01*
X0106456Y0040213D01*
X0106494Y0040366D01*
X0106535Y0040519D01*
X0106580Y0040671D01*
X0106629Y0040822D01*
X0106682Y0040971D01*
X0106738Y0041119D01*
X0106798Y0041265D01*
X0106862Y0041410D01*
X0106930Y0041553D01*
X0107001Y0041695D01*
X0107075Y0041835D01*
X0107153Y0041972D01*
X0107235Y0042108D01*
X0107319Y0042242D01*
X0107408Y0042373D01*
X0107499Y0042502D01*
X0107594Y0042629D01*
X0107691Y0042754D01*
X0107792Y0042876D01*
X0107896Y0042995D01*
X0108003Y0043112D01*
X0108113Y0043226D01*
X0108226Y0043337D01*
X0108341Y0043446D01*
X0108459Y0043551D01*
X0108580Y0043653D01*
X0108703Y0043753D01*
X0108829Y0043849D01*
X0108957Y0043942D01*
X0109087Y0044032D01*
X0109220Y0044118D01*
X0109355Y0044202D01*
X0109491Y0044281D01*
X0109630Y0044358D01*
X0109771Y0044430D01*
X0109913Y0044500D01*
X0110057Y0044565D01*
X0110203Y0044627D01*
X0110350Y0044685D01*
X0110499Y0044740D01*
X0110649Y0044791D01*
X0110800Y0044838D01*
X0110952Y0044881D01*
X0111105Y0044920D01*
X0111260Y0044956D01*
X0111415Y0044987D01*
X0111571Y0045015D01*
X0111727Y0045039D01*
X0111884Y0045059D01*
X0112042Y0045075D01*
X0112199Y0045087D01*
X0112358Y0045095D01*
X0112516Y0045099D01*
X0112674Y0045099D01*
X0112832Y0045095D01*
X0112991Y0045087D01*
X0113148Y0045075D01*
X0113306Y0045059D01*
X0113463Y0045039D01*
X0113619Y0045015D01*
X0113775Y0044987D01*
X0113930Y0044956D01*
X0114085Y0044920D01*
X0114238Y0044881D01*
X0114390Y0044838D01*
X0114541Y0044791D01*
X0114691Y0044740D01*
X0114840Y0044685D01*
X0114987Y0044627D01*
X0115133Y0044565D01*
X0115277Y0044500D01*
X0115419Y0044430D01*
X0115560Y0044358D01*
X0115699Y0044281D01*
X0115835Y0044202D01*
X0115970Y0044118D01*
X0116103Y0044032D01*
X0116233Y0043942D01*
X0116361Y0043849D01*
X0116487Y0043753D01*
X0116610Y0043653D01*
X0116731Y0043551D01*
X0116849Y0043446D01*
X0116964Y0043337D01*
X0117077Y0043226D01*
X0117187Y0043112D01*
X0117294Y0042995D01*
X0117398Y0042876D01*
X0117499Y0042754D01*
X0117596Y0042629D01*
X0117691Y0042502D01*
X0117782Y0042373D01*
X0117871Y0042242D01*
X0117955Y0042108D01*
X0118037Y0041972D01*
X0118115Y0041835D01*
X0118189Y0041695D01*
X0118260Y0041553D01*
X0118328Y0041410D01*
X0118392Y0041265D01*
X0118452Y0041119D01*
X0118508Y0040971D01*
X0118561Y0040822D01*
X0118610Y0040671D01*
X0118655Y0040519D01*
X0118696Y0040366D01*
X0118734Y0040213D01*
X0118767Y0040058D01*
X0118797Y0039902D01*
X0118823Y0039746D01*
X0118844Y0039589D01*
X0118862Y0039432D01*
X0118876Y0039274D01*
X0118886Y0039116D01*
X0118892Y0038958D01*
X0118894Y0038800D01*
X0118892Y0038642D01*
X0118886Y0038484D01*
X0118876Y0038326D01*
X0118862Y0038168D01*
X0118844Y0038011D01*
X0118823Y0037854D01*
X0118797Y0037698D01*
X0118767Y0037542D01*
X0118734Y0037387D01*
X0118696Y0037234D01*
X0118655Y0037081D01*
X0118610Y0036929D01*
X0118561Y0036778D01*
X0118508Y0036629D01*
X0118452Y0036481D01*
X0118392Y0036335D01*
X0118328Y0036190D01*
X0118260Y0036047D01*
X0118189Y0035905D01*
X0118115Y0035765D01*
X0118037Y0035628D01*
X0117955Y0035492D01*
X0117871Y0035358D01*
X0117782Y0035227D01*
X0117691Y0035098D01*
X0117596Y0034971D01*
X0117499Y0034846D01*
X0117398Y0034724D01*
X0117294Y0034605D01*
X0117187Y0034488D01*
X0117077Y0034374D01*
X0116964Y0034263D01*
X0116849Y0034154D01*
X0116731Y0034049D01*
X0116610Y0033947D01*
X0116487Y0033847D01*
X0116361Y0033751D01*
X0116233Y0033658D01*
X0116103Y0033568D01*
X0115970Y0033482D01*
X0115835Y0033398D01*
X0115699Y0033319D01*
X0115560Y0033242D01*
X0115419Y0033170D01*
X0115277Y0033100D01*
X0115133Y0033035D01*
X0114987Y0032973D01*
X0114840Y0032915D01*
X0114691Y0032860D01*
X0114541Y0032809D01*
X0114390Y0032762D01*
X0114238Y0032719D01*
X0114085Y0032680D01*
X0113930Y0032644D01*
X0113775Y0032613D01*
X0113619Y0032585D01*
X0113463Y0032561D01*
X0113306Y0032541D01*
X0113148Y0032525D01*
X0112991Y0032513D01*
X0112832Y0032505D01*
X0112674Y0032501D01*
X0112516Y0032501D01*
X0112358Y0032505D01*
X0112199Y0032513D01*
X0112042Y0032525D01*
X0111884Y0032541D01*
X0111727Y0032561D01*
X0111571Y0032585D01*
X0111415Y0032613D01*
X0111260Y0032644D01*
X0111105Y0032680D01*
X0110952Y0032719D01*
X0110800Y0032762D01*
X0110649Y0032809D01*
X0110499Y0032860D01*
X0110350Y0032915D01*
X0110203Y0032973D01*
X0110057Y0033035D01*
X0109913Y0033100D01*
X0109771Y0033170D01*
X0109630Y0033242D01*
X0109491Y0033319D01*
X0109355Y0033398D01*
X0109220Y0033482D01*
X0109087Y0033568D01*
X0108957Y0033658D01*
X0108829Y0033751D01*
X0108703Y0033847D01*
X0108580Y0033947D01*
X0108459Y0034049D01*
X0108341Y0034154D01*
X0108226Y0034263D01*
X0108113Y0034374D01*
X0108003Y0034488D01*
X0107896Y0034605D01*
X0107792Y0034724D01*
X0107691Y0034846D01*
X0107594Y0034971D01*
X0107499Y0035098D01*
X0107408Y0035227D01*
X0107319Y0035358D01*
X0107235Y0035492D01*
X0107153Y0035628D01*
X0107075Y0035765D01*
X0107001Y0035905D01*
X0106930Y0036047D01*
X0106862Y0036190D01*
X0106798Y0036335D01*
X0106738Y0036481D01*
X0106682Y0036629D01*
X0106629Y0036778D01*
X0106580Y0036929D01*
X0106535Y0037081D01*
X0106494Y0037234D01*
X0106456Y0037387D01*
X0106423Y0037542D01*
X0106393Y0037698D01*
X0106367Y0037854D01*
X0106346Y0038011D01*
X0106328Y0038168D01*
X0106314Y0038326D01*
X0106304Y0038484D01*
X0106298Y0038642D01*
X0106296Y0038800D01*
D11*
X0089170Y0165350D02*
X0089170Y0168753D01*
X0087469Y0168753D01*
X0086902Y0168186D01*
X0086902Y0167051D01*
X0087469Y0166484D01*
X0089170Y0166484D01*
X0088036Y0166484D02*
X0086902Y0165350D01*
X0085487Y0165917D02*
X0085487Y0167051D01*
X0084920Y0167619D01*
X0083786Y0167619D01*
X0083218Y0167051D01*
X0083218Y0166484D01*
X0085487Y0166484D01*
X0085487Y0165917D02*
X0084920Y0165350D01*
X0083786Y0165350D01*
X0081804Y0167619D02*
X0080670Y0165350D01*
X0079535Y0167619D01*
X0080102Y0171350D02*
X0079535Y0171917D01*
X0080102Y0171350D02*
X0081237Y0171350D01*
X0081804Y0171917D01*
X0081804Y0174186D01*
X0081237Y0174753D01*
X0080102Y0174753D01*
X0079535Y0174186D01*
X0078121Y0173619D02*
X0078121Y0171350D01*
X0078121Y0173051D02*
X0075852Y0173051D01*
X0075852Y0173619D02*
X0075852Y0171350D01*
X0074438Y0171350D02*
X0074438Y0174753D01*
X0072169Y0171350D01*
X0072169Y0174753D01*
X0075852Y0173619D02*
X0076986Y0174753D01*
X0078121Y0173619D01*
X0073303Y0168753D02*
X0074438Y0167619D01*
X0074438Y0165350D01*
X0074438Y0167051D02*
X0072169Y0167051D01*
X0072169Y0167619D02*
X0072169Y0165350D01*
X0072169Y0167619D02*
X0073303Y0168753D01*
X0067071Y0167619D02*
X0065937Y0165350D01*
X0064803Y0167619D01*
X0063388Y0168186D02*
X0062821Y0168753D01*
X0061687Y0168753D01*
X0061120Y0168186D01*
X0063388Y0165917D01*
X0062821Y0165350D01*
X0061687Y0165350D01*
X0061120Y0165917D01*
X0061120Y0168186D01*
X0063388Y0168186D02*
X0063388Y0165917D01*
X0063388Y0171350D02*
X0061687Y0171350D01*
X0061120Y0171917D01*
X0061120Y0174186D01*
X0061687Y0174753D01*
X0063388Y0174753D01*
X0063388Y0171350D01*
X0064803Y0171917D02*
X0064803Y0174753D01*
X0067071Y0174753D02*
X0067071Y0171917D01*
X0066504Y0171350D01*
X0065370Y0171350D01*
X0064803Y0171917D01*
X0059705Y0171350D02*
X0059705Y0174753D01*
X0058004Y0174753D01*
X0057436Y0174186D01*
X0057436Y0173051D01*
X0058004Y0172484D01*
X0059705Y0172484D01*
X0056022Y0173051D02*
X0053753Y0173051D01*
X0052339Y0173051D02*
X0050637Y0173051D01*
X0050070Y0172484D01*
X0050070Y0171917D01*
X0050637Y0171350D01*
X0052339Y0171350D01*
X0052339Y0174753D01*
X0050637Y0174753D01*
X0050070Y0174186D01*
X0050070Y0173619D01*
X0050637Y0173051D01*
X0048656Y0172484D02*
X0047521Y0173619D01*
X0046954Y0173619D01*
X0045586Y0173619D02*
X0045019Y0173619D01*
X0045019Y0171350D01*
X0045586Y0171350D02*
X0044452Y0171350D01*
X0043131Y0171917D02*
X0043131Y0173051D01*
X0042564Y0173619D01*
X0040862Y0173619D01*
X0040862Y0174753D02*
X0040862Y0171350D01*
X0042564Y0171350D01*
X0043131Y0171917D01*
X0045019Y0174753D02*
X0045019Y0175320D01*
X0048656Y0173619D02*
X0048656Y0171350D01*
X0055595Y0165350D02*
X0057863Y0165350D01*
X0056729Y0165350D02*
X0056729Y0168753D01*
X0057863Y0167619D01*
X0059138Y0165917D02*
X0059138Y0165350D01*
X0059705Y0165350D01*
X0059705Y0165917D01*
X0059138Y0165917D01*
X0039448Y0171917D02*
X0038881Y0171350D01*
X0037179Y0171350D01*
X0037179Y0170783D02*
X0037179Y0173619D01*
X0038881Y0173619D01*
X0039448Y0173051D01*
X0039448Y0171917D01*
X0038313Y0170216D02*
X0037746Y0170216D01*
X0037179Y0170783D01*
X0035765Y0171917D02*
X0035765Y0173051D01*
X0035197Y0173619D01*
X0034063Y0173619D01*
X0033496Y0173051D01*
X0033496Y0172484D01*
X0035765Y0172484D01*
X0035765Y0171917D02*
X0035197Y0171350D01*
X0034063Y0171350D01*
X0083218Y0171350D02*
X0084920Y0171350D01*
X0085487Y0171917D01*
X0084920Y0172484D01*
X0083218Y0172484D01*
X0083218Y0173051D02*
X0083218Y0171350D01*
X0083218Y0173051D02*
X0083786Y0173619D01*
X0084920Y0173619D01*
X0084920Y0174753D02*
X0084920Y0175320D01*
X0083786Y0175320D02*
X0083786Y0174753D01*
X0086902Y0174753D02*
X0086902Y0171350D01*
X0089170Y0171350D02*
X0089170Y0174753D01*
X0088036Y0173619D01*
X0086902Y0174753D01*
X0092895Y0205036D02*
X0096298Y0205036D01*
X0096298Y0206737D01*
X0095731Y0207305D01*
X0094597Y0207305D01*
X0094029Y0206737D01*
X0094029Y0205036D01*
X0094029Y0206170D02*
X0092895Y0207305D01*
X0093462Y0208719D02*
X0092895Y0209286D01*
X0092895Y0210421D01*
X0094029Y0210988D02*
X0094029Y0208719D01*
X0093462Y0208719D02*
X0094597Y0208719D01*
X0095164Y0209286D01*
X0095164Y0210421D01*
X0094597Y0210988D01*
X0094029Y0210988D01*
X0095164Y0212402D02*
X0092895Y0213537D01*
X0095164Y0214671D01*
X0095164Y0219769D02*
X0096298Y0220903D01*
X0095164Y0222037D01*
X0092895Y0222037D01*
X0094597Y0222037D02*
X0094597Y0219769D01*
X0095164Y0219769D02*
X0092895Y0219769D01*
X0095164Y0227135D02*
X0092895Y0228269D01*
X0095164Y0229403D01*
X0095731Y0230818D02*
X0093462Y0230818D01*
X0095731Y0233087D01*
X0093462Y0233087D01*
X0092895Y0232519D01*
X0092895Y0231385D01*
X0093462Y0230818D01*
X0095731Y0230818D02*
X0096298Y0231385D01*
X0096298Y0232519D01*
X0095731Y0233087D01*
X0093462Y0234501D02*
X0093462Y0235068D01*
X0092895Y0235068D01*
X0092895Y0234501D01*
X0093462Y0234501D01*
X0092895Y0236343D02*
X0092895Y0238611D01*
X0092895Y0237477D02*
X0096298Y0237477D01*
X0095164Y0236343D01*
X0097761Y0238184D02*
X0101164Y0238184D01*
X0101164Y0239886D01*
X0100597Y0240453D01*
X0099462Y0240453D01*
X0098895Y0239886D01*
X0098895Y0238184D01*
X0098895Y0236770D02*
X0098895Y0235068D01*
X0099462Y0234501D01*
X0100029Y0235068D01*
X0100029Y0236770D01*
X0100597Y0236770D02*
X0098895Y0236770D01*
X0100597Y0236770D02*
X0101164Y0236203D01*
X0101164Y0235068D01*
X0101164Y0233087D02*
X0101164Y0231385D01*
X0100597Y0230818D01*
X0099462Y0230818D01*
X0098895Y0231385D01*
X0098895Y0233087D01*
X0102298Y0233087D01*
X0101164Y0229403D02*
X0098895Y0229403D01*
X0100597Y0229403D02*
X0100597Y0227135D01*
X0101164Y0227135D02*
X0102298Y0228269D01*
X0101164Y0229403D01*
X0101164Y0227135D02*
X0098895Y0227135D01*
X0098895Y0222037D02*
X0102298Y0222037D01*
X0102298Y0219769D02*
X0098895Y0222037D01*
X0098895Y0219769D02*
X0102298Y0219769D01*
X0101164Y0218354D02*
X0102298Y0217220D01*
X0101164Y0216085D01*
X0098895Y0216085D01*
X0099462Y0214671D02*
X0098895Y0214104D01*
X0098895Y0212969D01*
X0099462Y0212402D01*
X0101731Y0212402D01*
X0102298Y0212969D01*
X0102298Y0214104D01*
X0101731Y0214671D01*
X0100597Y0216085D02*
X0100597Y0218354D01*
X0101164Y0218354D02*
X0098895Y0218354D01*
X0098895Y0210988D02*
X0098895Y0209286D01*
X0099462Y0208719D01*
X0100029Y0209286D01*
X0100029Y0210988D01*
X0100597Y0210988D02*
X0098895Y0210988D01*
X0100597Y0210988D02*
X0101164Y0210421D01*
X0101164Y0209286D01*
X0102298Y0209286D02*
X0102865Y0209286D01*
X0102865Y0210421D02*
X0102298Y0210421D01*
X0102298Y0207305D02*
X0101164Y0206170D01*
X0102298Y0205036D01*
X0098895Y0205036D01*
X0098895Y0207305D02*
X0102298Y0207305D01*
X0100597Y0241867D02*
X0100597Y0244136D01*
X0102298Y0245551D02*
X0098895Y0245551D01*
X0098895Y0247819D02*
X0102298Y0247819D01*
X0101164Y0246685D01*
X0102298Y0245551D01*
X0101731Y0249234D02*
X0101164Y0249234D01*
X0100597Y0249801D01*
X0100597Y0250935D01*
X0100029Y0251502D01*
X0099462Y0251502D01*
X0098895Y0250935D01*
X0098895Y0249801D01*
X0099462Y0249234D01*
X0098895Y0252917D02*
X0101164Y0255185D01*
X0101731Y0255185D01*
X0102298Y0254618D01*
X0102298Y0253484D01*
X0101731Y0252917D01*
X0101731Y0251502D02*
X0102298Y0250935D01*
X0102298Y0249801D01*
X0101731Y0249234D01*
X0098895Y0252917D02*
X0098895Y0255185D01*
D12*
X0098845Y0116792D03*
X0098845Y0108918D03*
X0098845Y0101044D03*
X0098845Y0093170D03*
X0098845Y0085296D03*
X0098845Y0077422D03*
X0098845Y0069548D03*
X0098845Y0061674D03*
X0035066Y0061674D03*
X0035066Y0069548D03*
X0035066Y0077422D03*
X0035066Y0085296D03*
X0035066Y0093170D03*
X0035066Y0101044D03*
X0035066Y0108918D03*
X0035066Y0116792D03*
D13*
X0047664Y0053800D03*
X0055538Y0053800D03*
X0063412Y0053800D03*
X0071286Y0053800D03*
X0079160Y0053800D03*
X0087034Y0053800D03*
D14*
X0110105Y0053800D03*
X0117585Y0053800D03*
D15*
X0116845Y0062550D03*
X0110845Y0062550D03*
D16*
X0100720Y0038700D02*
X0100720Y0033900D01*
X0090720Y0033900D02*
X0090720Y0038700D01*
X0080720Y0038700D02*
X0080720Y0033900D01*
X0070720Y0033900D02*
X0070720Y0038700D01*
X0060720Y0038700D02*
X0060720Y0033900D01*
X0050720Y0033900D02*
X0050720Y0038700D01*
D17*
X0113845Y0144942D03*
X0113845Y0150847D03*
X0113845Y0156753D03*
X0113845Y0162658D03*
X0096453Y0192550D03*
X0090548Y0192550D03*
X0084642Y0192550D03*
X0078737Y0192550D03*
D18*
X0087595Y0225050D03*
X0087595Y0235050D03*
X0087595Y0245050D03*
X0087595Y0255050D03*
X0077595Y0250050D03*
X0077595Y0240050D03*
X0077595Y0230050D03*
X0077595Y0260050D03*
D19*
X0063766Y0238101D03*
X0063766Y0230424D03*
X0063766Y0222550D03*
X0063766Y0214676D03*
X0063766Y0206999D03*
X0053924Y0206999D03*
X0053924Y0213495D03*
X0053924Y0221369D03*
X0053924Y0229243D03*
X0053924Y0238101D03*
D20*
X0038963Y0222550D03*
D21*
X0042113Y0194007D03*
X0042113Y0251093D03*
D22*
X0055722Y0180050D02*
X0061969Y0180050D01*
X0062106Y0179718D01*
X0062106Y0179718D01*
X0063513Y0178311D01*
X0065351Y0177550D01*
X0086090Y0177550D01*
X0087927Y0178311D01*
X0087927Y0178311D01*
X0089334Y0179718D01*
X0089472Y0180050D01*
X0095719Y0180050D01*
X0095856Y0179718D01*
X0095856Y0179718D01*
X0097263Y0178311D01*
X0099101Y0177550D01*
X0112595Y0177550D01*
X0113768Y0177458D01*
X0116000Y0176733D01*
X0117898Y0175353D01*
X0119278Y0173455D01*
X0120003Y0171223D01*
X0120095Y0170050D01*
X0120095Y0066306D01*
X0119601Y0066800D01*
X0114089Y0066800D01*
X0113845Y0066556D01*
X0113601Y0066800D01*
X0112545Y0066800D01*
X0112545Y0076971D01*
X0113565Y0077991D01*
X0114379Y0077991D01*
X0115366Y0078399D01*
X0116121Y0079154D01*
X0116529Y0080141D01*
X0116529Y0081209D01*
X0116121Y0082195D01*
X0115545Y0082771D01*
X0115545Y0083254D01*
X0113045Y0085754D01*
X0113045Y0135596D01*
X0118924Y0141475D01*
X0119920Y0142471D01*
X0119920Y0147176D01*
X0117048Y0150048D01*
X0117110Y0150198D01*
X0117110Y0151497D01*
X0116613Y0152697D01*
X0115695Y0153615D01*
X0115249Y0153800D01*
X0115695Y0153985D01*
X0116613Y0154903D01*
X0117110Y0156103D01*
X0117110Y0157402D01*
X0116613Y0158602D01*
X0115716Y0159500D01*
X0116182Y0159811D01*
X0116692Y0160322D01*
X0117093Y0160922D01*
X0117370Y0161589D01*
X0117510Y0162297D01*
X0117510Y0162469D01*
X0114034Y0162469D01*
X0114034Y0162847D01*
X0117510Y0162847D01*
X0117510Y0163019D01*
X0117370Y0163727D01*
X0117093Y0164394D01*
X0116692Y0164995D01*
X0116182Y0165505D01*
X0115581Y0165906D01*
X0114914Y0166183D01*
X0114206Y0166324D01*
X0114034Y0166324D01*
X0114034Y0162847D01*
X0113656Y0162847D01*
X0113656Y0162469D01*
X0110180Y0162469D01*
X0110180Y0162297D01*
X0110321Y0161589D01*
X0110597Y0160922D01*
X0110998Y0160322D01*
X0111509Y0159811D01*
X0111974Y0159500D01*
X0111077Y0158602D01*
X0110580Y0157402D01*
X0110580Y0156103D01*
X0110642Y0155954D01*
X0107145Y0152457D01*
X0107145Y0083326D01*
X0106795Y0082481D01*
X0106795Y0113254D01*
X0103882Y0116167D01*
X0103882Y0119610D01*
X0103238Y0120254D01*
X0094452Y0120254D01*
X0093808Y0119610D01*
X0093808Y0113974D01*
X0094452Y0113330D01*
X0101911Y0113330D01*
X0102861Y0112380D01*
X0094452Y0112380D01*
X0093808Y0111736D01*
X0093808Y0107368D01*
X0093621Y0107820D01*
X0092866Y0108576D01*
X0091879Y0108984D01*
X0090811Y0108984D01*
X0089825Y0108576D01*
X0089070Y0107820D01*
X0088661Y0106834D01*
X0088661Y0105766D01*
X0089070Y0104779D01*
X0089445Y0104404D01*
X0089445Y0095837D01*
X0087154Y0093546D01*
X0087154Y0093709D01*
X0086746Y0094695D01*
X0085991Y0095451D01*
X0085004Y0095859D01*
X0084473Y0095859D01*
X0083245Y0097087D01*
X0083245Y0130654D01*
X0083621Y0131029D01*
X0084029Y0132016D01*
X0084029Y0133084D01*
X0083621Y0134070D01*
X0082866Y0134826D01*
X0081879Y0135234D01*
X0080811Y0135234D01*
X0079825Y0134826D01*
X0079070Y0134070D01*
X0078661Y0133084D01*
X0078661Y0132016D01*
X0079070Y0131029D01*
X0079445Y0130654D01*
X0079445Y0095513D01*
X0080558Y0094400D01*
X0081786Y0093172D01*
X0081786Y0092641D01*
X0082195Y0091654D01*
X0082950Y0090899D01*
X0083936Y0090491D01*
X0084099Y0090491D01*
X0082592Y0088984D01*
X0082061Y0088984D01*
X0081075Y0088576D01*
X0080320Y0087820D01*
X0079911Y0086834D01*
X0079911Y0085766D01*
X0080320Y0084779D01*
X0081075Y0084024D01*
X0082061Y0083616D01*
X0083129Y0083616D01*
X0084116Y0084024D01*
X0084871Y0084779D01*
X0085279Y0085766D01*
X0085279Y0086297D01*
X0092132Y0093150D01*
X0093245Y0094263D01*
X0093245Y0104404D01*
X0093621Y0104779D01*
X0094029Y0105766D01*
X0094029Y0105879D01*
X0094452Y0105456D01*
X0103238Y0105456D01*
X0103395Y0105613D01*
X0103395Y0104349D01*
X0103238Y0104506D01*
X0094452Y0104506D01*
X0093808Y0103862D01*
X0093808Y0098226D01*
X0094452Y0097582D01*
X0103238Y0097582D01*
X0103395Y0097739D01*
X0103395Y0096475D01*
X0103238Y0096632D01*
X0094452Y0096632D01*
X0093808Y0095988D01*
X0093808Y0090352D01*
X0094452Y0089708D01*
X0103238Y0089708D01*
X0103395Y0089865D01*
X0103395Y0088601D01*
X0103238Y0088758D01*
X0094452Y0088758D01*
X0093808Y0088114D01*
X0093808Y0082478D01*
X0093851Y0082435D01*
X0093129Y0082734D01*
X0092061Y0082734D01*
X0091075Y0082326D01*
X0090320Y0081570D01*
X0089911Y0080584D01*
X0089911Y0079516D01*
X0090320Y0078529D01*
X0090895Y0077954D01*
X0090895Y0072146D01*
X0090320Y0071570D01*
X0089911Y0070584D01*
X0089911Y0069516D01*
X0090320Y0068529D01*
X0090895Y0067954D01*
X0090895Y0064346D01*
X0093808Y0061433D01*
X0093808Y0058856D01*
X0094452Y0058212D01*
X0102103Y0058212D01*
X0097145Y0053254D01*
X0097145Y0047004D01*
X0095375Y0045234D01*
X0094561Y0045234D01*
X0093575Y0044826D01*
X0093045Y0044296D01*
X0093045Y0060754D01*
X0086795Y0067004D01*
X0086795Y0072004D01*
X0082420Y0076379D01*
X0082420Y0082629D01*
X0047553Y0117496D01*
X0046557Y0118492D01*
X0040103Y0118492D01*
X0040103Y0119610D01*
X0039458Y0120254D01*
X0031345Y0120254D01*
X0031345Y0170050D01*
X0031437Y0171223D01*
X0032096Y0173250D01*
X0032096Y0171904D01*
X0032663Y0171337D01*
X0032663Y0170770D01*
X0033483Y0169950D01*
X0035777Y0169950D01*
X0035905Y0170077D01*
X0036599Y0169383D01*
X0037166Y0168816D01*
X0038893Y0168816D01*
X0039713Y0169636D01*
X0039713Y0170203D01*
X0039871Y0170361D01*
X0040282Y0169950D01*
X0043144Y0169950D01*
X0043508Y0170314D01*
X0043872Y0169950D01*
X0046166Y0169950D01*
X0046986Y0170770D01*
X0046986Y0171930D01*
X0046698Y0172219D01*
X0046941Y0172219D01*
X0047256Y0171904D01*
X0047256Y0170770D01*
X0048076Y0169950D01*
X0049235Y0169950D01*
X0049646Y0170361D01*
X0050057Y0169950D01*
X0052919Y0169950D01*
X0053739Y0170770D01*
X0053739Y0171651D01*
X0056602Y0171651D01*
X0056729Y0171779D01*
X0057424Y0171084D01*
X0058305Y0171084D01*
X0058305Y0170770D01*
X0059125Y0169950D01*
X0060285Y0169950D01*
X0060696Y0170361D01*
X0061005Y0170051D01*
X0060540Y0169586D01*
X0060540Y0169586D01*
X0059720Y0168766D01*
X0059720Y0167317D01*
X0059263Y0167317D01*
X0059263Y0168198D01*
X0058129Y0169333D01*
X0057309Y0170153D01*
X0056149Y0170153D01*
X0055329Y0169333D01*
X0055329Y0166750D01*
X0055015Y0166750D01*
X0054195Y0165930D01*
X0054195Y0164770D01*
X0055015Y0163950D01*
X0058443Y0163950D01*
X0058501Y0164007D01*
X0058558Y0163950D01*
X0060285Y0163950D01*
X0060696Y0164361D01*
X0061107Y0163950D01*
X0063401Y0163950D01*
X0063968Y0164517D01*
X0064515Y0165064D01*
X0064640Y0164813D01*
X0064792Y0164357D01*
X0064893Y0164306D01*
X0064944Y0164205D01*
X0065400Y0164053D01*
X0065830Y0163838D01*
X0065937Y0163874D01*
X0066044Y0163838D01*
X0066474Y0164053D01*
X0066930Y0164205D01*
X0066980Y0164307D01*
X0067082Y0164357D01*
X0067234Y0164813D01*
X0068583Y0167511D01*
X0068216Y0168611D01*
X0067179Y0169130D01*
X0066078Y0168763D01*
X0065937Y0168480D01*
X0065796Y0168763D01*
X0064695Y0169130D01*
X0064514Y0169040D01*
X0064221Y0169333D01*
X0063604Y0169950D01*
X0063968Y0169950D01*
X0064379Y0170361D01*
X0064790Y0169950D01*
X0067084Y0169950D01*
X0067904Y0170770D01*
X0068471Y0171337D01*
X0068471Y0175333D01*
X0067651Y0176153D01*
X0066491Y0176153D01*
X0065937Y0175598D01*
X0065383Y0176153D01*
X0064223Y0176153D01*
X0064095Y0176026D01*
X0063968Y0176153D01*
X0061107Y0176153D01*
X0060696Y0175742D01*
X0060285Y0176153D01*
X0057424Y0176153D01*
X0056856Y0175586D01*
X0056036Y0174766D01*
X0056036Y0174451D01*
X0053739Y0174451D01*
X0053739Y0175333D01*
X0052919Y0176153D01*
X0050057Y0176153D01*
X0049490Y0175586D01*
X0048923Y0175019D01*
X0046419Y0175019D01*
X0046419Y0175900D01*
X0045599Y0176720D01*
X0044439Y0176720D01*
X0043619Y0175900D01*
X0043619Y0174543D01*
X0043144Y0175019D01*
X0042262Y0175019D01*
X0042262Y0175333D01*
X0041442Y0176153D01*
X0040282Y0176153D01*
X0039462Y0175333D01*
X0039462Y0175017D01*
X0039460Y0175019D01*
X0036599Y0175019D01*
X0036188Y0174608D01*
X0035777Y0175019D01*
X0033483Y0175019D01*
X0032916Y0174451D01*
X0032808Y0174344D01*
X0033542Y0175353D01*
X0035440Y0176733D01*
X0037672Y0177458D01*
X0038845Y0177550D01*
X0052340Y0177550D01*
X0054177Y0178311D01*
X0055584Y0179718D01*
X0055722Y0180050D01*
X0055584Y0179718D02*
X0055584Y0179718D01*
X0055584Y0179718D01*
X0055130Y0179264D02*
X0062560Y0179264D01*
X0063513Y0178311D02*
X0063513Y0178311D01*
X0063623Y0178266D02*
X0054067Y0178266D01*
X0053739Y0175270D02*
X0056541Y0175270D01*
X0057232Y0171276D02*
X0053739Y0171276D01*
X0053246Y0170278D02*
X0058798Y0170278D01*
X0058183Y0169279D02*
X0060233Y0169279D01*
X0060612Y0170278D02*
X0060779Y0170278D01*
X0059720Y0168281D02*
X0059181Y0168281D01*
X0060621Y0164287D02*
X0060770Y0164287D01*
X0063737Y0164287D02*
X0064903Y0164287D01*
X0066970Y0164287D02*
X0071253Y0164287D01*
X0071589Y0163950D02*
X0072749Y0163950D01*
X0073303Y0164504D01*
X0073858Y0163950D01*
X0075017Y0163950D01*
X0075838Y0164770D01*
X0075838Y0168198D01*
X0074703Y0169333D01*
X0074086Y0169950D01*
X0075017Y0169950D01*
X0075145Y0170077D01*
X0075272Y0169950D01*
X0076432Y0169950D01*
X0076986Y0170504D01*
X0077541Y0169950D01*
X0078701Y0169950D01*
X0079112Y0170361D01*
X0079522Y0169950D01*
X0081817Y0169950D01*
X0082228Y0170361D01*
X0082638Y0169950D01*
X0085500Y0169950D01*
X0085911Y0170361D01*
X0086322Y0169950D01*
X0086686Y0169950D01*
X0086322Y0169586D01*
X0085627Y0168891D01*
X0085500Y0169019D01*
X0083206Y0169019D01*
X0082849Y0168661D01*
X0081911Y0169130D01*
X0080811Y0168763D01*
X0080670Y0168480D01*
X0080528Y0168763D01*
X0079428Y0169130D01*
X0078390Y0168611D01*
X0078024Y0167511D01*
X0079373Y0164813D01*
X0079525Y0164357D01*
X0079626Y0164306D01*
X0079677Y0164205D01*
X0080132Y0164053D01*
X0080562Y0163838D01*
X0080670Y0163874D01*
X0080777Y0163838D01*
X0081207Y0164053D01*
X0081662Y0164205D01*
X0081713Y0164306D01*
X0081814Y0164357D01*
X0081966Y0164813D01*
X0082281Y0165442D01*
X0082386Y0165337D01*
X0082386Y0164770D01*
X0083206Y0163950D01*
X0085500Y0163950D01*
X0085911Y0164361D01*
X0086322Y0163950D01*
X0087481Y0163950D01*
X0088036Y0164504D01*
X0088590Y0163950D01*
X0089750Y0163950D01*
X0090570Y0164770D01*
X0090570Y0169333D01*
X0089851Y0170051D01*
X0090570Y0170770D01*
X0090570Y0175333D01*
X0089750Y0176153D01*
X0088590Y0176153D01*
X0088036Y0175598D01*
X0087481Y0176153D01*
X0086322Y0176153D01*
X0086194Y0176026D01*
X0085500Y0176720D01*
X0083206Y0176720D01*
X0082386Y0175900D01*
X0082386Y0175584D01*
X0082384Y0175586D01*
X0081817Y0176153D01*
X0079522Y0176153D01*
X0078702Y0175333D01*
X0078544Y0175175D01*
X0078386Y0175333D01*
X0077566Y0176153D01*
X0076406Y0176153D01*
X0075722Y0175469D01*
X0075697Y0175596D01*
X0075329Y0175841D01*
X0075017Y0176153D01*
X0074861Y0176153D01*
X0074732Y0176239D01*
X0074299Y0176153D01*
X0073858Y0176153D01*
X0073747Y0176043D01*
X0073594Y0176012D01*
X0073350Y0175645D01*
X0073303Y0175598D01*
X0072749Y0176153D01*
X0071589Y0176153D01*
X0070769Y0175333D01*
X0070769Y0171774D01*
X0070682Y0171644D01*
X0070769Y0171211D01*
X0070769Y0170770D01*
X0070879Y0170660D01*
X0070910Y0170507D01*
X0071277Y0170262D01*
X0071589Y0169950D01*
X0071745Y0169950D01*
X0071875Y0169863D01*
X0072308Y0169950D01*
X0072520Y0169950D01*
X0071589Y0169019D01*
X0070769Y0168198D01*
X0070769Y0164770D01*
X0071589Y0163950D01*
X0073085Y0164287D02*
X0073521Y0164287D01*
X0075354Y0164287D02*
X0079636Y0164287D01*
X0079137Y0165285D02*
X0075838Y0165285D01*
X0075838Y0166284D02*
X0078638Y0166284D01*
X0078138Y0167282D02*
X0075838Y0167282D01*
X0075755Y0168281D02*
X0078280Y0168281D01*
X0079028Y0170278D02*
X0079195Y0170278D01*
X0077213Y0170278D02*
X0076760Y0170278D01*
X0074757Y0169279D02*
X0086015Y0169279D01*
X0085994Y0170278D02*
X0085827Y0170278D01*
X0082311Y0170278D02*
X0082144Y0170278D01*
X0082202Y0165285D02*
X0082386Y0165285D01*
X0082869Y0164287D02*
X0081703Y0164287D01*
X0085836Y0164287D02*
X0085985Y0164287D01*
X0087818Y0164287D02*
X0088254Y0164287D01*
X0090087Y0164287D02*
X0091296Y0164287D01*
X0091296Y0165285D02*
X0090570Y0165285D01*
X0091296Y0165550D02*
X0091296Y0162050D01*
X0092636Y0158816D01*
X0095111Y0156340D01*
X0098345Y0155001D01*
X0101845Y0155001D01*
X0105079Y0156340D01*
X0107555Y0158816D01*
X0108894Y0162050D01*
X0108894Y0165550D01*
X0107555Y0168784D01*
X0105079Y0171260D01*
X0101845Y0172599D01*
X0098345Y0172599D01*
X0095111Y0171260D01*
X0092636Y0168784D01*
X0091296Y0165550D01*
X0091600Y0166284D02*
X0090570Y0166284D01*
X0090570Y0167282D02*
X0092013Y0167282D01*
X0092427Y0168281D02*
X0090570Y0168281D01*
X0090570Y0169279D02*
X0093130Y0169279D01*
X0094129Y0170278D02*
X0090078Y0170278D01*
X0090570Y0171276D02*
X0095151Y0171276D01*
X0097561Y0172275D02*
X0090570Y0172275D01*
X0090570Y0173273D02*
X0119337Y0173273D01*
X0119661Y0172275D02*
X0102629Y0172275D01*
X0105040Y0171276D02*
X0119986Y0171276D01*
X0120077Y0170278D02*
X0106062Y0170278D01*
X0107060Y0169279D02*
X0120095Y0169279D01*
X0120095Y0168281D02*
X0107763Y0168281D01*
X0108177Y0167282D02*
X0120095Y0167282D01*
X0120095Y0166284D02*
X0114408Y0166284D01*
X0114034Y0166284D02*
X0113656Y0166284D01*
X0113656Y0166324D02*
X0113484Y0166324D01*
X0112776Y0166183D01*
X0112109Y0165906D01*
X0111509Y0165505D01*
X0110998Y0164995D01*
X0110597Y0164394D01*
X0110321Y0163727D01*
X0110180Y0163019D01*
X0110180Y0162847D01*
X0113656Y0162847D01*
X0113656Y0166324D01*
X0113283Y0166284D02*
X0108591Y0166284D01*
X0108894Y0165285D02*
X0111288Y0165285D01*
X0110552Y0164287D02*
X0108894Y0164287D01*
X0108894Y0163288D02*
X0110233Y0163288D01*
X0110181Y0162289D02*
X0108894Y0162289D01*
X0108580Y0161291D02*
X0110444Y0161291D01*
X0111027Y0160292D02*
X0108166Y0160292D01*
X0107753Y0159294D02*
X0111768Y0159294D01*
X0110950Y0158295D02*
X0107035Y0158295D01*
X0106036Y0157297D02*
X0110580Y0157297D01*
X0110580Y0156298D02*
X0104978Y0156298D01*
X0107991Y0153303D02*
X0031345Y0153303D01*
X0031345Y0154301D02*
X0108990Y0154301D01*
X0109988Y0155300D02*
X0102568Y0155300D01*
X0097623Y0155300D02*
X0031345Y0155300D01*
X0031345Y0156298D02*
X0095212Y0156298D01*
X0094154Y0157297D02*
X0031345Y0157297D01*
X0031345Y0158295D02*
X0093156Y0158295D01*
X0092437Y0159294D02*
X0031345Y0159294D01*
X0031345Y0160292D02*
X0092024Y0160292D01*
X0091610Y0161291D02*
X0031345Y0161291D01*
X0031345Y0162289D02*
X0091296Y0162289D01*
X0091296Y0163288D02*
X0031345Y0163288D01*
X0031345Y0164287D02*
X0054678Y0164287D01*
X0054195Y0165285D02*
X0031345Y0165285D01*
X0031345Y0166284D02*
X0054548Y0166284D01*
X0055329Y0167282D02*
X0031345Y0167282D01*
X0031345Y0168281D02*
X0055329Y0168281D01*
X0055329Y0169279D02*
X0039357Y0169279D01*
X0039788Y0170278D02*
X0039955Y0170278D01*
X0036703Y0169279D02*
X0031345Y0169279D01*
X0031363Y0170278D02*
X0033156Y0170278D01*
X0032663Y0171276D02*
X0031455Y0171276D01*
X0031779Y0172275D02*
X0032096Y0172275D01*
X0033481Y0175270D02*
X0039462Y0175270D01*
X0042262Y0175270D02*
X0043619Y0175270D01*
X0043988Y0176269D02*
X0034802Y0176269D01*
X0037086Y0177267D02*
X0114355Y0177267D01*
X0116639Y0176269D02*
X0085951Y0176269D01*
X0087817Y0178266D02*
X0097373Y0178266D01*
X0097263Y0178311D02*
X0097263Y0178311D01*
X0096310Y0179264D02*
X0088880Y0179264D01*
X0089334Y0179718D02*
X0089334Y0179718D01*
X0090570Y0175270D02*
X0117959Y0175270D01*
X0118684Y0174272D02*
X0090570Y0174272D01*
X0082754Y0176269D02*
X0046050Y0176269D01*
X0046419Y0175270D02*
X0049175Y0175270D01*
X0047256Y0171276D02*
X0046986Y0171276D01*
X0046494Y0170278D02*
X0047748Y0170278D01*
X0049563Y0170278D02*
X0049730Y0170278D01*
X0043544Y0170278D02*
X0043471Y0170278D01*
X0031345Y0152304D02*
X0107145Y0152304D01*
X0107145Y0151306D02*
X0031345Y0151306D01*
X0031345Y0150307D02*
X0107145Y0150307D01*
X0107145Y0149309D02*
X0031345Y0149309D01*
X0031345Y0148310D02*
X0107145Y0148310D01*
X0107145Y0147312D02*
X0031345Y0147312D01*
X0031345Y0146313D02*
X0107145Y0146313D01*
X0107145Y0145315D02*
X0031345Y0145315D01*
X0031345Y0144316D02*
X0107145Y0144316D01*
X0107145Y0143318D02*
X0031345Y0143318D01*
X0031345Y0142319D02*
X0107145Y0142319D01*
X0107145Y0141321D02*
X0031345Y0141321D01*
X0031345Y0140322D02*
X0107145Y0140322D01*
X0107145Y0139324D02*
X0031345Y0139324D01*
X0031345Y0138325D02*
X0107145Y0138325D01*
X0107145Y0137327D02*
X0031345Y0137327D01*
X0031345Y0136328D02*
X0107145Y0136328D01*
X0107145Y0135330D02*
X0031345Y0135330D01*
X0031345Y0134331D02*
X0079330Y0134331D01*
X0078764Y0133333D02*
X0031345Y0133333D01*
X0031345Y0132334D02*
X0078661Y0132334D01*
X0078943Y0131336D02*
X0031345Y0131336D01*
X0031345Y0130337D02*
X0079445Y0130337D01*
X0079445Y0129339D02*
X0031345Y0129339D01*
X0031345Y0128340D02*
X0079445Y0128340D01*
X0079445Y0127342D02*
X0031345Y0127342D01*
X0031345Y0126343D02*
X0079445Y0126343D01*
X0079445Y0125345D02*
X0031345Y0125345D01*
X0031345Y0124346D02*
X0079445Y0124346D01*
X0079445Y0123348D02*
X0031345Y0123348D01*
X0031345Y0122349D02*
X0079445Y0122349D01*
X0079445Y0121351D02*
X0031345Y0121351D01*
X0031345Y0120352D02*
X0079445Y0120352D01*
X0079445Y0119353D02*
X0040103Y0119353D01*
X0046694Y0118355D02*
X0079445Y0118355D01*
X0079445Y0117356D02*
X0047693Y0117356D01*
X0048691Y0116358D02*
X0079445Y0116358D01*
X0079445Y0115359D02*
X0049690Y0115359D01*
X0050688Y0114361D02*
X0079445Y0114361D01*
X0079445Y0113362D02*
X0051687Y0113362D01*
X0052685Y0112364D02*
X0079445Y0112364D01*
X0079445Y0111365D02*
X0053684Y0111365D01*
X0054682Y0110367D02*
X0079445Y0110367D01*
X0079445Y0109368D02*
X0055681Y0109368D01*
X0056679Y0108370D02*
X0079445Y0108370D01*
X0079445Y0107371D02*
X0057678Y0107371D01*
X0058676Y0106373D02*
X0079445Y0106373D01*
X0079445Y0105374D02*
X0059675Y0105374D01*
X0060673Y0104376D02*
X0079445Y0104376D01*
X0079445Y0103377D02*
X0061672Y0103377D01*
X0062670Y0102379D02*
X0079445Y0102379D01*
X0079445Y0101380D02*
X0063669Y0101380D01*
X0064668Y0100382D02*
X0079445Y0100382D01*
X0079445Y0099383D02*
X0065666Y0099383D01*
X0066665Y0098385D02*
X0079445Y0098385D01*
X0079445Y0097386D02*
X0067663Y0097386D01*
X0068662Y0096388D02*
X0079445Y0096388D01*
X0079569Y0095389D02*
X0069660Y0095389D01*
X0070659Y0094391D02*
X0080567Y0094391D01*
X0081566Y0093392D02*
X0071657Y0093392D01*
X0072656Y0092394D02*
X0081888Y0092394D01*
X0082454Y0091395D02*
X0073654Y0091395D01*
X0074653Y0090397D02*
X0084005Y0090397D01*
X0083006Y0089398D02*
X0075651Y0089398D01*
X0076650Y0088400D02*
X0080899Y0088400D01*
X0080146Y0087401D02*
X0077648Y0087401D01*
X0078647Y0086403D02*
X0079911Y0086403D01*
X0080061Y0085404D02*
X0079645Y0085404D01*
X0080644Y0084406D02*
X0080693Y0084406D01*
X0081642Y0083407D02*
X0093808Y0083407D01*
X0093808Y0084406D02*
X0084497Y0084406D01*
X0085129Y0085404D02*
X0093808Y0085404D01*
X0093808Y0086403D02*
X0085385Y0086403D01*
X0086383Y0087401D02*
X0093808Y0087401D01*
X0094094Y0088400D02*
X0087382Y0088400D01*
X0088380Y0089398D02*
X0103395Y0089398D01*
X0106795Y0089398D02*
X0107145Y0089398D01*
X0107145Y0088400D02*
X0106795Y0088400D01*
X0106795Y0087401D02*
X0107145Y0087401D01*
X0107145Y0086403D02*
X0106795Y0086403D01*
X0106795Y0085404D02*
X0107145Y0085404D01*
X0107145Y0084406D02*
X0106795Y0084406D01*
X0106795Y0083407D02*
X0107145Y0083407D01*
X0107145Y0090397D02*
X0106795Y0090397D01*
X0106795Y0091395D02*
X0107145Y0091395D01*
X0107145Y0092394D02*
X0106795Y0092394D01*
X0106795Y0093392D02*
X0107145Y0093392D01*
X0107145Y0094391D02*
X0106795Y0094391D01*
X0106795Y0095389D02*
X0107145Y0095389D01*
X0107145Y0096388D02*
X0106795Y0096388D01*
X0106795Y0097386D02*
X0107145Y0097386D01*
X0107145Y0098385D02*
X0106795Y0098385D01*
X0106795Y0099383D02*
X0107145Y0099383D01*
X0107145Y0100382D02*
X0106795Y0100382D01*
X0106795Y0101380D02*
X0107145Y0101380D01*
X0107145Y0102379D02*
X0106795Y0102379D01*
X0106795Y0103377D02*
X0107145Y0103377D01*
X0107145Y0104376D02*
X0106795Y0104376D01*
X0106795Y0105374D02*
X0107145Y0105374D01*
X0107145Y0106373D02*
X0106795Y0106373D01*
X0106795Y0107371D02*
X0107145Y0107371D01*
X0107145Y0108370D02*
X0106795Y0108370D01*
X0106795Y0109368D02*
X0107145Y0109368D01*
X0107145Y0110367D02*
X0106795Y0110367D01*
X0106795Y0111365D02*
X0107145Y0111365D01*
X0107145Y0112364D02*
X0106795Y0112364D01*
X0106687Y0113362D02*
X0107145Y0113362D01*
X0107145Y0114361D02*
X0105688Y0114361D01*
X0104690Y0115359D02*
X0107145Y0115359D01*
X0107145Y0116358D02*
X0103882Y0116358D01*
X0103882Y0117356D02*
X0107145Y0117356D01*
X0107145Y0118355D02*
X0103882Y0118355D01*
X0103882Y0119353D02*
X0107145Y0119353D01*
X0107145Y0120352D02*
X0083245Y0120352D01*
X0083245Y0121351D02*
X0107145Y0121351D01*
X0107145Y0122349D02*
X0083245Y0122349D01*
X0083245Y0123348D02*
X0107145Y0123348D01*
X0107145Y0124346D02*
X0083245Y0124346D01*
X0083245Y0125345D02*
X0107145Y0125345D01*
X0107145Y0126343D02*
X0083245Y0126343D01*
X0083245Y0127342D02*
X0107145Y0127342D01*
X0107145Y0128340D02*
X0083245Y0128340D01*
X0083245Y0129339D02*
X0107145Y0129339D01*
X0107145Y0130337D02*
X0083245Y0130337D01*
X0083748Y0131336D02*
X0107145Y0131336D01*
X0107145Y0132334D02*
X0084029Y0132334D01*
X0083926Y0133333D02*
X0107145Y0133333D01*
X0107145Y0134331D02*
X0083360Y0134331D01*
X0083245Y0119353D02*
X0093808Y0119353D01*
X0093808Y0118355D02*
X0083245Y0118355D01*
X0083245Y0117356D02*
X0093808Y0117356D01*
X0093808Y0116358D02*
X0083245Y0116358D01*
X0083245Y0115359D02*
X0093808Y0115359D01*
X0093808Y0114361D02*
X0083245Y0114361D01*
X0083245Y0113362D02*
X0094420Y0113362D01*
X0094436Y0112364D02*
X0083245Y0112364D01*
X0083245Y0111365D02*
X0093808Y0111365D01*
X0093808Y0110367D02*
X0083245Y0110367D01*
X0083245Y0109368D02*
X0093808Y0109368D01*
X0093808Y0108370D02*
X0093071Y0108370D01*
X0093807Y0107371D02*
X0093808Y0107371D01*
X0093867Y0105374D02*
X0103395Y0105374D01*
X0103368Y0104376D02*
X0103395Y0104376D01*
X0103395Y0097386D02*
X0093245Y0097386D01*
X0093245Y0096388D02*
X0094208Y0096388D01*
X0093808Y0095389D02*
X0093245Y0095389D01*
X0093245Y0094391D02*
X0093808Y0094391D01*
X0093808Y0093392D02*
X0092374Y0093392D01*
X0091376Y0092394D02*
X0093808Y0092394D01*
X0093808Y0091395D02*
X0090377Y0091395D01*
X0089379Y0090397D02*
X0093808Y0090397D01*
X0088997Y0095389D02*
X0086052Y0095389D01*
X0086872Y0094391D02*
X0087999Y0094391D01*
X0089445Y0096388D02*
X0083944Y0096388D01*
X0083245Y0097386D02*
X0089445Y0097386D01*
X0089445Y0098385D02*
X0083245Y0098385D01*
X0083245Y0099383D02*
X0089445Y0099383D01*
X0089445Y0100382D02*
X0083245Y0100382D01*
X0083245Y0101380D02*
X0089445Y0101380D01*
X0089445Y0102379D02*
X0083245Y0102379D01*
X0083245Y0103377D02*
X0089445Y0103377D01*
X0089445Y0104376D02*
X0083245Y0104376D01*
X0083245Y0105374D02*
X0088823Y0105374D01*
X0088661Y0106373D02*
X0083245Y0106373D01*
X0083245Y0107371D02*
X0088884Y0107371D01*
X0089619Y0108370D02*
X0083245Y0108370D01*
X0093245Y0104376D02*
X0094322Y0104376D01*
X0093808Y0103377D02*
X0093245Y0103377D01*
X0093245Y0102379D02*
X0093808Y0102379D01*
X0093808Y0101380D02*
X0093245Y0101380D01*
X0093245Y0100382D02*
X0093808Y0100382D01*
X0093808Y0099383D02*
X0093245Y0099383D01*
X0093245Y0098385D02*
X0093808Y0098385D01*
X0091275Y0082409D02*
X0082420Y0082409D01*
X0082420Y0081410D02*
X0090253Y0081410D01*
X0089911Y0080412D02*
X0082420Y0080412D01*
X0082420Y0079413D02*
X0089954Y0079413D01*
X0090434Y0078415D02*
X0082420Y0078415D01*
X0082420Y0077416D02*
X0090895Y0077416D01*
X0090895Y0076418D02*
X0082420Y0076418D01*
X0083380Y0075419D02*
X0090895Y0075419D01*
X0090895Y0074420D02*
X0084379Y0074420D01*
X0085377Y0073422D02*
X0090895Y0073422D01*
X0090895Y0072423D02*
X0086376Y0072423D01*
X0086795Y0071425D02*
X0090259Y0071425D01*
X0089911Y0070426D02*
X0086795Y0070426D01*
X0086795Y0069428D02*
X0089947Y0069428D01*
X0090420Y0068429D02*
X0086795Y0068429D01*
X0086795Y0067431D02*
X0090895Y0067431D01*
X0090895Y0066432D02*
X0087367Y0066432D01*
X0088365Y0065434D02*
X0090895Y0065434D01*
X0090895Y0064435D02*
X0089364Y0064435D01*
X0090362Y0063437D02*
X0091804Y0063437D01*
X0091361Y0062438D02*
X0092803Y0062438D01*
X0092359Y0061440D02*
X0093801Y0061440D01*
X0093808Y0060441D02*
X0093045Y0060441D01*
X0093045Y0059443D02*
X0093808Y0059443D01*
X0094220Y0058444D02*
X0093045Y0058444D01*
X0093045Y0057446D02*
X0101337Y0057446D01*
X0100338Y0056447D02*
X0093045Y0056447D01*
X0093045Y0055449D02*
X0099340Y0055449D01*
X0098341Y0054450D02*
X0093045Y0054450D01*
X0093045Y0053452D02*
X0097343Y0053452D01*
X0097145Y0052453D02*
X0093045Y0052453D01*
X0093045Y0051455D02*
X0097145Y0051455D01*
X0097145Y0050456D02*
X0093045Y0050456D01*
X0093045Y0049458D02*
X0097145Y0049458D01*
X0097145Y0048459D02*
X0093045Y0048459D01*
X0093045Y0047461D02*
X0097145Y0047461D01*
X0096603Y0046462D02*
X0093045Y0046462D01*
X0093045Y0045464D02*
X0095605Y0045464D01*
X0093214Y0044465D02*
X0093045Y0044465D01*
X0078820Y0044674D02*
X0073812Y0040381D01*
X0073687Y0040683D01*
X0072703Y0041667D01*
X0071416Y0042200D01*
X0070024Y0042200D01*
X0068738Y0041667D01*
X0067753Y0040683D01*
X0067220Y0039396D01*
X0067220Y0033204D01*
X0067753Y0031917D01*
X0068370Y0031300D01*
X0063636Y0031300D01*
X0063749Y0031414D01*
X0064176Y0032053D01*
X0064470Y0032762D01*
X0064620Y0033516D01*
X0064620Y0036000D01*
X0061020Y0036000D01*
X0061020Y0036600D01*
X0060420Y0036600D01*
X0060420Y0036000D01*
X0056820Y0036000D01*
X0056820Y0033516D01*
X0056970Y0032762D01*
X0057264Y0032053D01*
X0057691Y0031414D01*
X0057805Y0031300D01*
X0053070Y0031300D01*
X0053687Y0031917D01*
X0054220Y0033204D01*
X0054220Y0039396D01*
X0054074Y0039749D01*
X0058299Y0043975D01*
X0072374Y0043975D01*
X0072950Y0043399D01*
X0073936Y0042991D01*
X0075004Y0042991D01*
X0075991Y0043399D01*
X0076746Y0044154D01*
X0077154Y0045141D01*
X0077154Y0046209D01*
X0077127Y0046275D01*
X0078683Y0046275D01*
X0078820Y0046138D01*
X0078820Y0044674D01*
X0078577Y0044465D02*
X0076874Y0044465D01*
X0077154Y0045464D02*
X0078820Y0045464D01*
X0077412Y0043467D02*
X0076058Y0043467D01*
X0076247Y0042468D02*
X0061767Y0042468D01*
X0061858Y0042450D02*
X0061104Y0042600D01*
X0061020Y0042600D01*
X0061020Y0036600D01*
X0064620Y0036600D01*
X0064620Y0039084D01*
X0064470Y0039838D01*
X0064176Y0040547D01*
X0063749Y0041186D01*
X0063206Y0041729D01*
X0062567Y0042156D01*
X0061858Y0042450D01*
X0061020Y0042468D02*
X0060420Y0042468D01*
X0060420Y0042600D02*
X0060336Y0042600D01*
X0059583Y0042450D01*
X0058873Y0042156D01*
X0058234Y0041729D01*
X0057691Y0041186D01*
X0057264Y0040547D01*
X0056970Y0039838D01*
X0056820Y0039084D01*
X0056820Y0036600D01*
X0060420Y0036600D01*
X0060420Y0042600D01*
X0059673Y0042468D02*
X0056792Y0042468D01*
X0055794Y0041470D02*
X0057974Y0041470D01*
X0057232Y0040471D02*
X0054795Y0040471D01*
X0054188Y0039473D02*
X0056897Y0039473D01*
X0056820Y0038474D02*
X0054220Y0038474D01*
X0054220Y0037476D02*
X0056820Y0037476D01*
X0056820Y0035479D02*
X0054220Y0035479D01*
X0054220Y0036477D02*
X0060420Y0036477D01*
X0061020Y0036477D02*
X0067220Y0036477D01*
X0067220Y0035479D02*
X0064620Y0035479D01*
X0064620Y0034480D02*
X0067220Y0034480D01*
X0067220Y0033482D02*
X0064613Y0033482D01*
X0064355Y0032483D02*
X0067519Y0032483D01*
X0068186Y0031484D02*
X0063797Y0031484D01*
X0064620Y0037476D02*
X0067220Y0037476D01*
X0067220Y0038474D02*
X0064620Y0038474D01*
X0064543Y0039473D02*
X0067252Y0039473D01*
X0067665Y0040471D02*
X0064208Y0040471D01*
X0063466Y0041470D02*
X0068540Y0041470D01*
X0072374Y0047375D02*
X0056891Y0047375D01*
X0055895Y0046379D01*
X0051628Y0042112D01*
X0051416Y0042200D01*
X0050024Y0042200D01*
X0048738Y0041667D01*
X0047753Y0040683D01*
X0047644Y0040420D01*
X0047644Y0040550D01*
X0046305Y0043784D01*
X0043829Y0046260D01*
X0040595Y0047599D01*
X0037095Y0047599D01*
X0033861Y0046260D01*
X0031386Y0043784D01*
X0031345Y0043687D01*
X0031345Y0057812D01*
X0034566Y0057812D01*
X0034566Y0061174D01*
X0035566Y0061174D01*
X0035566Y0062174D01*
X0040503Y0062174D01*
X0040503Y0064234D01*
X0040400Y0064615D01*
X0040203Y0064957D01*
X0039924Y0065237D01*
X0039582Y0065434D01*
X0065895Y0065434D01*
X0065895Y0066432D02*
X0039805Y0066432D01*
X0040103Y0066730D02*
X0040103Y0071475D01*
X0065280Y0071475D01*
X0064911Y0070584D01*
X0064911Y0069516D01*
X0065320Y0068529D01*
X0065895Y0067954D01*
X0065895Y0058837D01*
X0060594Y0058837D01*
X0059950Y0058193D01*
X0059950Y0049407D01*
X0060594Y0048763D01*
X0066230Y0048763D01*
X0066874Y0049407D01*
X0066874Y0054858D01*
X0067824Y0055808D01*
X0067824Y0049407D01*
X0068468Y0048763D01*
X0073195Y0048763D01*
X0073195Y0048638D01*
X0073609Y0048224D01*
X0072950Y0047951D01*
X0072374Y0047375D01*
X0072460Y0047461D02*
X0040930Y0047461D01*
X0043340Y0046462D02*
X0055978Y0046462D01*
X0054980Y0045464D02*
X0044625Y0045464D01*
X0045624Y0044465D02*
X0053981Y0044465D01*
X0052983Y0043467D02*
X0046436Y0043467D01*
X0046850Y0042468D02*
X0051984Y0042468D01*
X0048540Y0041470D02*
X0047264Y0041470D01*
X0047644Y0040471D02*
X0047665Y0040471D01*
X0050482Y0048763D02*
X0044846Y0048763D01*
X0044202Y0049407D01*
X0044202Y0058193D01*
X0044846Y0058837D01*
X0050482Y0058837D01*
X0051126Y0058193D01*
X0051126Y0049407D01*
X0050482Y0048763D01*
X0051126Y0049458D02*
X0052076Y0049458D01*
X0052076Y0049407D02*
X0052720Y0048763D01*
X0058356Y0048763D01*
X0059000Y0049407D01*
X0059000Y0058193D01*
X0058356Y0058837D01*
X0052720Y0058837D01*
X0052076Y0058193D01*
X0052076Y0049407D01*
X0052076Y0050456D02*
X0051126Y0050456D01*
X0051126Y0051455D02*
X0052076Y0051455D01*
X0052076Y0052453D02*
X0051126Y0052453D01*
X0051126Y0053452D02*
X0052076Y0053452D01*
X0052076Y0054450D02*
X0051126Y0054450D01*
X0051126Y0055449D02*
X0052076Y0055449D01*
X0052076Y0056447D02*
X0051126Y0056447D01*
X0051126Y0057446D02*
X0052076Y0057446D01*
X0052328Y0058444D02*
X0050875Y0058444D01*
X0044453Y0058444D02*
X0040234Y0058444D01*
X0040203Y0058391D02*
X0040400Y0058733D01*
X0040503Y0059114D01*
X0040503Y0061174D01*
X0035566Y0061174D01*
X0035566Y0057812D01*
X0039200Y0057812D01*
X0039582Y0057914D01*
X0039924Y0058112D01*
X0040203Y0058391D01*
X0040503Y0059443D02*
X0065895Y0059443D01*
X0065895Y0060441D02*
X0040503Y0060441D01*
X0040503Y0062438D02*
X0065895Y0062438D01*
X0065895Y0061440D02*
X0035566Y0061440D01*
X0035566Y0062174D02*
X0034566Y0062174D01*
X0034566Y0065536D01*
X0031345Y0065536D01*
X0031345Y0066086D01*
X0039458Y0066086D01*
X0040103Y0066730D01*
X0040103Y0067431D02*
X0065895Y0067431D01*
X0065420Y0068429D02*
X0040103Y0068429D01*
X0040103Y0069428D02*
X0064947Y0069428D01*
X0064911Y0070426D02*
X0040103Y0070426D01*
X0040103Y0071425D02*
X0065259Y0071425D01*
X0064910Y0074875D02*
X0065279Y0075766D01*
X0065279Y0076834D01*
X0064871Y0077820D01*
X0064116Y0078576D01*
X0063129Y0078984D01*
X0062061Y0078984D01*
X0061075Y0078576D01*
X0060499Y0078000D01*
X0040103Y0078000D01*
X0040103Y0080240D01*
X0039458Y0080884D01*
X0031345Y0080884D01*
X0031345Y0081834D01*
X0039458Y0081834D01*
X0040103Y0082478D01*
X0040103Y0083596D01*
X0066645Y0083596D01*
X0068809Y0081432D01*
X0067950Y0081076D01*
X0067195Y0080320D01*
X0066786Y0079334D01*
X0066786Y0078266D01*
X0067195Y0077279D01*
X0067950Y0076524D01*
X0068936Y0076116D01*
X0069467Y0076116D01*
X0069724Y0075859D01*
X0069561Y0075859D01*
X0068575Y0075451D01*
X0067999Y0074875D01*
X0064910Y0074875D01*
X0065136Y0075419D02*
X0068543Y0075419D01*
X0068208Y0076418D02*
X0065279Y0076418D01*
X0065038Y0077416D02*
X0067138Y0077416D01*
X0066786Y0078415D02*
X0064277Y0078415D01*
X0066819Y0079413D02*
X0040103Y0079413D01*
X0040103Y0078415D02*
X0060914Y0078415D01*
X0067286Y0080412D02*
X0039931Y0080412D01*
X0040033Y0082409D02*
X0067832Y0082409D01*
X0068757Y0081410D02*
X0031345Y0081410D01*
X0040103Y0083407D02*
X0066834Y0083407D01*
X0065895Y0064435D02*
X0040449Y0064435D01*
X0040503Y0063437D02*
X0065895Y0063437D01*
X0067465Y0055449D02*
X0067824Y0055449D01*
X0067824Y0054450D02*
X0066874Y0054450D01*
X0066874Y0053452D02*
X0067824Y0053452D01*
X0067824Y0052453D02*
X0066874Y0052453D01*
X0066874Y0051455D02*
X0067824Y0051455D01*
X0067824Y0050456D02*
X0066874Y0050456D01*
X0066874Y0049458D02*
X0067824Y0049458D01*
X0073374Y0048459D02*
X0031345Y0048459D01*
X0031345Y0047461D02*
X0036760Y0047461D01*
X0034350Y0046462D02*
X0031345Y0046462D01*
X0031345Y0045464D02*
X0033065Y0045464D01*
X0032066Y0044465D02*
X0031345Y0044465D01*
X0031345Y0049458D02*
X0044202Y0049458D01*
X0044202Y0050456D02*
X0031345Y0050456D01*
X0031345Y0051455D02*
X0044202Y0051455D01*
X0044202Y0052453D02*
X0031345Y0052453D01*
X0031345Y0053452D02*
X0044202Y0053452D01*
X0044202Y0054450D02*
X0031345Y0054450D01*
X0031345Y0055449D02*
X0044202Y0055449D01*
X0044202Y0056447D02*
X0031345Y0056447D01*
X0031345Y0057446D02*
X0044202Y0057446D01*
X0039582Y0065434D02*
X0039200Y0065536D01*
X0035566Y0065536D01*
X0035566Y0062174D01*
X0035566Y0062438D02*
X0034566Y0062438D01*
X0034566Y0063437D02*
X0035566Y0063437D01*
X0035566Y0064435D02*
X0034566Y0064435D01*
X0034566Y0065434D02*
X0035566Y0065434D01*
X0035566Y0060441D02*
X0034566Y0060441D01*
X0034566Y0059443D02*
X0035566Y0059443D01*
X0035566Y0058444D02*
X0034566Y0058444D01*
X0053922Y0032483D02*
X0057086Y0032483D01*
X0056827Y0033482D02*
X0054220Y0033482D01*
X0054220Y0034480D02*
X0056820Y0034480D01*
X0057644Y0031484D02*
X0053254Y0031484D01*
X0060420Y0037476D02*
X0061020Y0037476D01*
X0061020Y0038474D02*
X0060420Y0038474D01*
X0060420Y0039473D02*
X0061020Y0039473D01*
X0061020Y0040471D02*
X0060420Y0040471D01*
X0060420Y0041470D02*
X0061020Y0041470D01*
X0057791Y0043467D02*
X0072882Y0043467D01*
X0072900Y0041470D02*
X0075082Y0041470D01*
X0073917Y0040471D02*
X0073775Y0040471D01*
X0059950Y0049458D02*
X0059000Y0049458D01*
X0059000Y0050456D02*
X0059950Y0050456D01*
X0059950Y0051455D02*
X0059000Y0051455D01*
X0059000Y0052453D02*
X0059950Y0052453D01*
X0059950Y0053452D02*
X0059000Y0053452D01*
X0059000Y0054450D02*
X0059950Y0054450D01*
X0059950Y0055449D02*
X0059000Y0055449D01*
X0059000Y0056447D02*
X0059950Y0056447D01*
X0059950Y0057446D02*
X0059000Y0057446D01*
X0058749Y0058444D02*
X0060202Y0058444D01*
X0112545Y0067431D02*
X0120095Y0067431D01*
X0120095Y0068429D02*
X0112545Y0068429D01*
X0112545Y0069428D02*
X0120095Y0069428D01*
X0120095Y0070426D02*
X0112545Y0070426D01*
X0112545Y0071425D02*
X0120095Y0071425D01*
X0120095Y0072423D02*
X0112545Y0072423D01*
X0112545Y0073422D02*
X0120095Y0073422D01*
X0120095Y0074420D02*
X0112545Y0074420D01*
X0112545Y0075419D02*
X0120095Y0075419D01*
X0120095Y0076418D02*
X0112545Y0076418D01*
X0112990Y0077416D02*
X0120095Y0077416D01*
X0120095Y0078415D02*
X0115381Y0078415D01*
X0116228Y0079413D02*
X0120095Y0079413D01*
X0120095Y0080412D02*
X0116529Y0080412D01*
X0116446Y0081410D02*
X0120095Y0081410D01*
X0120095Y0082409D02*
X0115908Y0082409D01*
X0115392Y0083407D02*
X0120095Y0083407D01*
X0120095Y0084406D02*
X0114394Y0084406D01*
X0113395Y0085404D02*
X0120095Y0085404D01*
X0120095Y0086403D02*
X0113045Y0086403D01*
X0113045Y0087401D02*
X0120095Y0087401D01*
X0120095Y0088400D02*
X0113045Y0088400D01*
X0113045Y0089398D02*
X0120095Y0089398D01*
X0120095Y0090397D02*
X0113045Y0090397D01*
X0113045Y0091395D02*
X0120095Y0091395D01*
X0120095Y0092394D02*
X0113045Y0092394D01*
X0113045Y0093392D02*
X0120095Y0093392D01*
X0120095Y0094391D02*
X0113045Y0094391D01*
X0113045Y0095389D02*
X0120095Y0095389D01*
X0120095Y0096388D02*
X0113045Y0096388D01*
X0113045Y0097386D02*
X0120095Y0097386D01*
X0120095Y0098385D02*
X0113045Y0098385D01*
X0113045Y0099383D02*
X0120095Y0099383D01*
X0120095Y0100382D02*
X0113045Y0100382D01*
X0113045Y0101380D02*
X0120095Y0101380D01*
X0120095Y0102379D02*
X0113045Y0102379D01*
X0113045Y0103377D02*
X0120095Y0103377D01*
X0120095Y0104376D02*
X0113045Y0104376D01*
X0113045Y0105374D02*
X0120095Y0105374D01*
X0120095Y0106373D02*
X0113045Y0106373D01*
X0113045Y0107371D02*
X0120095Y0107371D01*
X0120095Y0108370D02*
X0113045Y0108370D01*
X0113045Y0109368D02*
X0120095Y0109368D01*
X0120095Y0110367D02*
X0113045Y0110367D01*
X0113045Y0111365D02*
X0120095Y0111365D01*
X0120095Y0112364D02*
X0113045Y0112364D01*
X0113045Y0113362D02*
X0120095Y0113362D01*
X0120095Y0114361D02*
X0113045Y0114361D01*
X0113045Y0115359D02*
X0120095Y0115359D01*
X0120095Y0116358D02*
X0113045Y0116358D01*
X0113045Y0117356D02*
X0120095Y0117356D01*
X0120095Y0118355D02*
X0113045Y0118355D01*
X0113045Y0119353D02*
X0120095Y0119353D01*
X0120095Y0120352D02*
X0113045Y0120352D01*
X0113045Y0121351D02*
X0120095Y0121351D01*
X0120095Y0122349D02*
X0113045Y0122349D01*
X0113045Y0123348D02*
X0120095Y0123348D01*
X0120095Y0124346D02*
X0113045Y0124346D01*
X0113045Y0125345D02*
X0120095Y0125345D01*
X0120095Y0126343D02*
X0113045Y0126343D01*
X0113045Y0127342D02*
X0120095Y0127342D01*
X0120095Y0128340D02*
X0113045Y0128340D01*
X0113045Y0129339D02*
X0120095Y0129339D01*
X0120095Y0130337D02*
X0113045Y0130337D01*
X0113045Y0131336D02*
X0120095Y0131336D01*
X0120095Y0132334D02*
X0113045Y0132334D01*
X0113045Y0133333D02*
X0120095Y0133333D01*
X0120095Y0134331D02*
X0113045Y0134331D01*
X0113045Y0135330D02*
X0120095Y0135330D01*
X0120095Y0136328D02*
X0113777Y0136328D01*
X0114776Y0137327D02*
X0120095Y0137327D01*
X0120095Y0138325D02*
X0115775Y0138325D01*
X0116773Y0139324D02*
X0120095Y0139324D01*
X0120095Y0140322D02*
X0117772Y0140322D01*
X0118770Y0141321D02*
X0120095Y0141321D01*
X0120095Y0142319D02*
X0119769Y0142319D01*
X0119920Y0143318D02*
X0120095Y0143318D01*
X0120095Y0144316D02*
X0119920Y0144316D01*
X0119920Y0145315D02*
X0120095Y0145315D01*
X0120095Y0146313D02*
X0119920Y0146313D01*
X0119785Y0147312D02*
X0120095Y0147312D01*
X0120095Y0148310D02*
X0118786Y0148310D01*
X0117788Y0149309D02*
X0120095Y0149309D01*
X0120095Y0150307D02*
X0117110Y0150307D01*
X0117110Y0151306D02*
X0120095Y0151306D01*
X0120095Y0152304D02*
X0116776Y0152304D01*
X0116007Y0153303D02*
X0120095Y0153303D01*
X0120095Y0154301D02*
X0116012Y0154301D01*
X0116778Y0155300D02*
X0120095Y0155300D01*
X0120095Y0156298D02*
X0117110Y0156298D01*
X0117110Y0157297D02*
X0120095Y0157297D01*
X0120095Y0158295D02*
X0116741Y0158295D01*
X0115922Y0159294D02*
X0120095Y0159294D01*
X0120095Y0160292D02*
X0116663Y0160292D01*
X0117246Y0161291D02*
X0120095Y0161291D01*
X0120095Y0162289D02*
X0117509Y0162289D01*
X0117457Y0163288D02*
X0120095Y0163288D01*
X0120095Y0164287D02*
X0117138Y0164287D01*
X0116402Y0165285D02*
X0120095Y0165285D01*
X0114034Y0165285D02*
X0113656Y0165285D01*
X0113656Y0164287D02*
X0114034Y0164287D01*
X0114034Y0163288D02*
X0113656Y0163288D01*
X0078640Y0175270D02*
X0078449Y0175270D01*
X0071254Y0170278D02*
X0067412Y0170278D01*
X0068410Y0171276D02*
X0070756Y0171276D01*
X0070769Y0172275D02*
X0068471Y0172275D01*
X0068471Y0173273D02*
X0070769Y0173273D01*
X0070769Y0174272D02*
X0068471Y0174272D01*
X0068471Y0175270D02*
X0070769Y0175270D01*
X0071850Y0169279D02*
X0064275Y0169279D01*
X0064296Y0170278D02*
X0064462Y0170278D01*
X0068326Y0168281D02*
X0070851Y0168281D01*
X0070769Y0167282D02*
X0068468Y0167282D01*
X0067969Y0166284D02*
X0070769Y0166284D01*
X0070769Y0165285D02*
X0067470Y0165285D01*
X0119968Y0066432D02*
X0120095Y0066432D01*
D23*
X0113845Y0080675D03*
X0109470Y0081925D03*
X0117595Y0106925D03*
X0091345Y0106300D03*
X0084470Y0093175D03*
X0082595Y0086300D03*
X0076345Y0090675D03*
X0073845Y0078800D03*
X0069470Y0078800D03*
X0070095Y0073175D03*
X0072595Y0070050D03*
X0067595Y0070050D03*
X0062595Y0076300D03*
X0065720Y0081300D03*
X0081345Y0069425D03*
X0092595Y0070050D03*
X0092595Y0080050D03*
X0105095Y0053800D03*
X0095095Y0042550D03*
X0074470Y0045675D03*
X0050095Y0045675D03*
X0055095Y0121925D03*
X0055095Y0153800D03*
X0061345Y0153800D03*
X0067595Y0153800D03*
X0081345Y0132550D03*
X0118220Y0153800D03*
D24*
X0106927Y0187850D02*
X0099041Y0187850D01*
X0097093Y0187043D01*
X0095602Y0185552D01*
X0095394Y0185050D01*
X0089796Y0185050D01*
X0089588Y0185552D01*
X0088097Y0187043D01*
X0086149Y0187850D01*
X0065291Y0187850D01*
X0063343Y0187043D01*
X0061852Y0185552D01*
X0061644Y0185050D01*
X0056046Y0185050D01*
X0055838Y0185552D01*
X0054347Y0187043D01*
X0052399Y0187850D01*
X0047445Y0187850D01*
X0047485Y0187881D01*
X0048239Y0188634D01*
X0048888Y0189480D01*
X0049421Y0190403D01*
X0049829Y0191388D01*
X0050104Y0192417D01*
X0050208Y0193207D01*
X0042913Y0193207D01*
X0042913Y0194807D01*
X0041313Y0194807D01*
X0041313Y0202102D01*
X0040523Y0201998D01*
X0039494Y0201722D01*
X0038509Y0201315D01*
X0037586Y0200782D01*
X0036740Y0200133D01*
X0035987Y0199379D01*
X0035338Y0198534D01*
X0034805Y0197611D01*
X0034397Y0196626D01*
X0034121Y0195596D01*
X0034017Y0194807D01*
X0041313Y0194807D01*
X0041313Y0193207D01*
X0034017Y0193207D01*
X0034121Y0192417D01*
X0034397Y0191388D01*
X0034805Y0190403D01*
X0035338Y0189480D01*
X0035987Y0188634D01*
X0036701Y0187920D01*
X0036664Y0187923D01*
X0034894Y0188498D01*
X0033388Y0189593D01*
X0032294Y0191099D01*
X0031718Y0192869D01*
X0031645Y0193800D01*
X0031645Y0217783D01*
X0031696Y0217694D01*
X0032392Y0216787D01*
X0033201Y0215979D01*
X0034108Y0215283D01*
X0035098Y0214711D01*
X0036154Y0214274D01*
X0037258Y0213978D01*
X0038163Y0213859D01*
X0038163Y0221750D01*
X0039763Y0221750D01*
X0039763Y0213859D01*
X0040668Y0213978D01*
X0041773Y0214274D01*
X0042829Y0214711D01*
X0043819Y0215283D01*
X0044726Y0215979D01*
X0045534Y0216787D01*
X0046230Y0217694D01*
X0046802Y0218684D01*
X0047239Y0219741D01*
X0047535Y0220845D01*
X0047654Y0221750D01*
X0039763Y0221750D01*
X0039763Y0223350D01*
X0038163Y0223350D01*
X0038163Y0231241D01*
X0037258Y0231122D01*
X0036154Y0230826D01*
X0035098Y0230389D01*
X0034108Y0229817D01*
X0033201Y0229121D01*
X0032392Y0228313D01*
X0031696Y0227406D01*
X0031645Y0227317D01*
X0031645Y0261882D01*
X0033691Y0259836D01*
X0037035Y0258451D01*
X0038629Y0258451D01*
X0038509Y0258401D01*
X0037586Y0257868D01*
X0036740Y0257219D01*
X0035987Y0256466D01*
X0035338Y0255620D01*
X0034805Y0254697D01*
X0034397Y0253712D01*
X0034121Y0252683D01*
X0034017Y0251893D01*
X0041313Y0251893D01*
X0041313Y0250293D01*
X0042913Y0250293D01*
X0042913Y0242998D01*
X0043702Y0243102D01*
X0044732Y0243378D01*
X0045717Y0243785D01*
X0046640Y0244318D01*
X0047485Y0244967D01*
X0048239Y0245721D01*
X0048888Y0246566D01*
X0049421Y0247489D01*
X0049829Y0248474D01*
X0050104Y0249504D01*
X0050208Y0250293D01*
X0042913Y0250293D01*
X0042913Y0251893D01*
X0050208Y0251893D01*
X0050104Y0252683D01*
X0049829Y0253712D01*
X0049421Y0254697D01*
X0048888Y0255620D01*
X0048239Y0256466D01*
X0047485Y0257219D01*
X0046640Y0257868D01*
X0045717Y0258401D01*
X0044732Y0258809D01*
X0043702Y0259085D01*
X0042913Y0259189D01*
X0042913Y0251893D01*
X0041313Y0251893D01*
X0041313Y0258723D01*
X0043999Y0259836D01*
X0046559Y0262396D01*
X0047944Y0265740D01*
X0047944Y0269360D01*
X0046559Y0272704D01*
X0044513Y0274750D01*
X0112595Y0274750D01*
X0113721Y0274661D01*
X0115864Y0273965D01*
X0116860Y0273241D01*
X0114425Y0274250D01*
X0110765Y0274250D01*
X0107384Y0272849D01*
X0104796Y0270261D01*
X0103395Y0266880D01*
X0103395Y0263220D01*
X0104796Y0259839D01*
X0107384Y0257251D01*
X0110765Y0255850D01*
X0114425Y0255850D01*
X0117807Y0257251D01*
X0119795Y0259239D01*
X0119795Y0225861D01*
X0117807Y0227849D01*
X0114425Y0229250D01*
X0110765Y0229250D01*
X0107384Y0227849D01*
X0104796Y0225261D01*
X0103824Y0222915D01*
X0103002Y0223737D01*
X0099410Y0223737D01*
X0099252Y0223842D01*
X0098727Y0223737D01*
X0098191Y0223737D01*
X0098057Y0223603D01*
X0097871Y0223566D01*
X0097574Y0223120D01*
X0097195Y0222741D01*
X0097195Y0222552D01*
X0097138Y0222467D01*
X0096864Y0222741D01*
X0095868Y0223737D01*
X0092191Y0223737D01*
X0091195Y0222741D01*
X0091195Y0221333D01*
X0091625Y0220903D01*
X0091195Y0220473D01*
X0091195Y0219064D01*
X0092191Y0218069D01*
X0095868Y0218069D01*
X0097002Y0219203D01*
X0097195Y0219396D01*
X0097195Y0219064D01*
X0097198Y0219061D01*
X0097195Y0219058D01*
X0097195Y0217650D01*
X0097625Y0217220D01*
X0097195Y0216790D01*
X0097195Y0215381D01*
X0097482Y0215095D01*
X0097195Y0214808D01*
X0097195Y0212265D01*
X0097482Y0211979D01*
X0097195Y0211692D01*
X0097195Y0208582D01*
X0097482Y0208295D01*
X0097313Y0208127D01*
X0096861Y0208579D01*
X0096864Y0208582D01*
X0096864Y0211125D01*
X0096572Y0211417D01*
X0096999Y0212272D01*
X0096578Y0213537D01*
X0096999Y0214801D01*
X0096369Y0216061D01*
X0095033Y0216506D01*
X0092243Y0215111D01*
X0091690Y0214927D01*
X0091628Y0214804D01*
X0091505Y0214742D01*
X0091321Y0214189D01*
X0091060Y0213667D01*
X0091103Y0213537D01*
X0091060Y0213406D01*
X0091321Y0212884D01*
X0091505Y0212331D01*
X0091628Y0212269D01*
X0091690Y0212146D01*
X0092085Y0212015D01*
X0091195Y0211125D01*
X0091195Y0208582D01*
X0091482Y0208295D01*
X0091195Y0208009D01*
X0091195Y0206600D01*
X0091625Y0206170D01*
X0091195Y0205740D01*
X0091195Y0204332D01*
X0092191Y0203336D01*
X0097002Y0203336D01*
X0097597Y0203930D01*
X0098191Y0203336D01*
X0103002Y0203336D01*
X0103998Y0204332D01*
X0103998Y0205740D01*
X0103568Y0206170D01*
X0103998Y0206600D01*
X0103998Y0208009D01*
X0103995Y0208012D01*
X0104565Y0208582D01*
X0104565Y0211125D01*
X0103711Y0211979D01*
X0103998Y0212265D01*
X0103998Y0214808D01*
X0103144Y0215662D01*
X0103998Y0216516D01*
X0103998Y0216765D01*
X0104796Y0214839D01*
X0107384Y0212251D01*
X0110765Y0210850D01*
X0114425Y0210850D01*
X0117807Y0212251D01*
X0119795Y0214239D01*
X0119795Y0200718D01*
X0117749Y0202764D01*
X0114405Y0204149D01*
X0110785Y0204149D01*
X0107441Y0202764D01*
X0104881Y0200204D01*
X0103496Y0196860D01*
X0103496Y0193240D01*
X0104881Y0189896D01*
X0106927Y0187850D01*
X0105814Y0188962D02*
X0098154Y0188962D01*
X0098332Y0189036D02*
X0098981Y0189470D01*
X0099533Y0190022D01*
X0099967Y0190672D01*
X0100266Y0191393D01*
X0100419Y0192159D01*
X0100419Y0192550D01*
X0100419Y0192941D01*
X0100266Y0193707D01*
X0099967Y0194428D01*
X0099533Y0195078D01*
X0098981Y0195630D01*
X0098332Y0196064D01*
X0097610Y0196363D01*
X0096844Y0196515D01*
X0096453Y0196515D01*
X0096063Y0196515D01*
X0095297Y0196363D01*
X0094575Y0196064D01*
X0093926Y0195630D01*
X0093373Y0195078D01*
X0093249Y0194891D01*
X0092567Y0195573D01*
X0091257Y0196115D01*
X0089839Y0196115D01*
X0088528Y0195573D01*
X0087595Y0194639D01*
X0086662Y0195573D01*
X0085352Y0196115D01*
X0083933Y0196115D01*
X0082623Y0195573D01*
X0081926Y0194876D01*
X0075245Y0201557D01*
X0075245Y0226708D01*
X0075315Y0226638D01*
X0076795Y0226025D01*
X0078396Y0226025D01*
X0079875Y0226638D01*
X0081007Y0227770D01*
X0081620Y0229249D01*
X0081620Y0230851D01*
X0081007Y0232330D01*
X0079875Y0233462D01*
X0078396Y0234075D01*
X0076795Y0234075D01*
X0075315Y0233462D01*
X0075245Y0233392D01*
X0075245Y0236288D01*
X0075276Y0236265D01*
X0075897Y0235949D01*
X0076559Y0235734D01*
X0077247Y0235625D01*
X0077520Y0235625D01*
X0077520Y0239975D01*
X0077670Y0239975D01*
X0077670Y0235625D01*
X0077943Y0235625D01*
X0078631Y0235734D01*
X0079294Y0235949D01*
X0079914Y0236265D01*
X0080478Y0236675D01*
X0080970Y0237167D01*
X0081380Y0237731D01*
X0081696Y0238351D01*
X0081911Y0239014D01*
X0082020Y0239702D01*
X0082020Y0239975D01*
X0077670Y0239975D01*
X0077670Y0240125D01*
X0082020Y0240125D01*
X0082020Y0240398D01*
X0081911Y0241086D01*
X0081890Y0241150D01*
X0086493Y0241150D01*
X0086795Y0241025D01*
X0088396Y0241025D01*
X0089875Y0241638D01*
X0091007Y0242770D01*
X0091620Y0244249D01*
X0091620Y0245851D01*
X0091007Y0247330D01*
X0089875Y0248462D01*
X0088396Y0249075D01*
X0086795Y0249075D01*
X0086493Y0248950D01*
X0084211Y0248950D01*
X0081132Y0252028D01*
X0081007Y0252330D01*
X0079875Y0253462D01*
X0078396Y0254075D01*
X0076795Y0254075D01*
X0075315Y0253462D01*
X0074183Y0252330D01*
X0074058Y0252028D01*
X0069136Y0247106D01*
X0068039Y0246009D01*
X0067445Y0244576D01*
X0067445Y0239051D01*
X0066956Y0240232D01*
X0065898Y0241291D01*
X0064515Y0241863D01*
X0063018Y0241863D01*
X0061635Y0241291D01*
X0060577Y0240232D01*
X0060004Y0238850D01*
X0060004Y0237353D01*
X0060577Y0235970D01*
X0061635Y0234912D01*
X0063018Y0234339D01*
X0064515Y0234339D01*
X0065898Y0234912D01*
X0066956Y0235970D01*
X0067445Y0237151D01*
X0067445Y0231374D01*
X0066956Y0232555D01*
X0065898Y0233613D01*
X0064515Y0234186D01*
X0063018Y0234186D01*
X0061635Y0233613D01*
X0060577Y0232555D01*
X0060004Y0231172D01*
X0060004Y0229676D01*
X0060577Y0228293D01*
X0061635Y0227235D01*
X0063018Y0226662D01*
X0064515Y0226662D01*
X0065898Y0227235D01*
X0066956Y0228293D01*
X0067445Y0229474D01*
X0067445Y0223500D01*
X0066956Y0224681D01*
X0065898Y0225739D01*
X0064515Y0226312D01*
X0063018Y0226312D01*
X0061635Y0225739D01*
X0060577Y0224681D01*
X0060004Y0223298D01*
X0060004Y0221802D01*
X0060577Y0220419D01*
X0061635Y0219361D01*
X0063018Y0218788D01*
X0064515Y0218788D01*
X0065898Y0219361D01*
X0066956Y0220419D01*
X0067445Y0221600D01*
X0067445Y0215626D01*
X0066956Y0216807D01*
X0065898Y0217865D01*
X0064515Y0218438D01*
X0063018Y0218438D01*
X0061635Y0217865D01*
X0060577Y0216807D01*
X0060004Y0215424D01*
X0060004Y0213928D01*
X0060577Y0212545D01*
X0061635Y0211487D01*
X0063018Y0210914D01*
X0064515Y0210914D01*
X0065898Y0211487D01*
X0066956Y0212545D01*
X0067445Y0213726D01*
X0067445Y0207949D01*
X0066956Y0209130D01*
X0065898Y0210188D01*
X0064515Y0210761D01*
X0063018Y0210761D01*
X0061635Y0210188D01*
X0060577Y0209130D01*
X0060004Y0207747D01*
X0060004Y0206250D01*
X0060577Y0204868D01*
X0061603Y0203842D01*
X0056087Y0203842D01*
X0057113Y0204868D01*
X0057686Y0206250D01*
X0057686Y0207747D01*
X0057113Y0209130D01*
X0056078Y0210166D01*
X0056133Y0210189D01*
X0057230Y0211286D01*
X0057824Y0212719D01*
X0057824Y0214271D01*
X0057230Y0215704D01*
X0056133Y0216801D01*
X0054903Y0217311D01*
X0055522Y0217512D01*
X0056105Y0217809D01*
X0056635Y0218194D01*
X0057099Y0218657D01*
X0057484Y0219187D01*
X0057781Y0219771D01*
X0057984Y0220394D01*
X0058086Y0221041D01*
X0058086Y0221369D01*
X0058086Y0221696D01*
X0057984Y0222344D01*
X0057781Y0222967D01*
X0057484Y0223550D01*
X0057099Y0224080D01*
X0056635Y0224544D01*
X0056105Y0224929D01*
X0055522Y0225226D01*
X0054899Y0225429D01*
X0054570Y0225481D01*
X0054672Y0225481D01*
X0056055Y0226053D01*
X0057113Y0227112D01*
X0057686Y0228495D01*
X0057686Y0229991D01*
X0057113Y0231374D01*
X0056055Y0232432D01*
X0054672Y0233005D01*
X0053176Y0233005D01*
X0051793Y0232432D01*
X0050734Y0231374D01*
X0050162Y0229991D01*
X0050162Y0228495D01*
X0050734Y0227112D01*
X0051793Y0226053D01*
X0053176Y0225481D01*
X0053278Y0225481D01*
X0052949Y0225429D01*
X0052326Y0225226D01*
X0051742Y0224929D01*
X0051212Y0224544D01*
X0050749Y0224080D01*
X0050364Y0223550D01*
X0050067Y0222967D01*
X0049864Y0222344D01*
X0049762Y0221696D01*
X0049762Y0221369D01*
X0053924Y0221369D01*
X0058086Y0221369D01*
X0053924Y0221369D01*
X0053924Y0221369D01*
X0053924Y0221369D01*
X0049762Y0221369D01*
X0049762Y0221041D01*
X0049864Y0220394D01*
X0050067Y0219771D01*
X0050364Y0219187D01*
X0050749Y0218657D01*
X0051212Y0218194D01*
X0051742Y0217809D01*
X0052326Y0217512D01*
X0052686Y0217395D01*
X0050264Y0217395D01*
X0048831Y0216801D01*
X0044289Y0212259D01*
X0043695Y0210826D01*
X0043695Y0203024D01*
X0044172Y0201872D01*
X0043702Y0201998D01*
X0042913Y0202102D01*
X0042913Y0194807D01*
X0050208Y0194807D01*
X0050104Y0195596D01*
X0049899Y0196364D01*
X0050678Y0196042D01*
X0069730Y0196042D01*
X0076528Y0189244D01*
X0077961Y0188650D01*
X0079513Y0188650D01*
X0080946Y0189244D01*
X0081926Y0190224D01*
X0082623Y0189527D01*
X0083933Y0188985D01*
X0085352Y0188985D01*
X0086662Y0189527D01*
X0087595Y0190461D01*
X0088528Y0189527D01*
X0089839Y0188985D01*
X0091257Y0188985D01*
X0092567Y0189527D01*
X0093249Y0190209D01*
X0093373Y0190022D01*
X0093926Y0189470D01*
X0094575Y0189036D01*
X0095297Y0188737D01*
X0096063Y0188585D01*
X0096453Y0188585D01*
X0096453Y0192550D01*
X0096453Y0196515D01*
X0096453Y0192550D01*
X0096453Y0192550D01*
X0096453Y0192550D01*
X0096453Y0188585D01*
X0096844Y0188585D01*
X0097610Y0188737D01*
X0098332Y0189036D01*
X0097867Y0187364D02*
X0087323Y0187364D01*
X0088097Y0187043D02*
X0088097Y0187043D01*
X0088097Y0187043D01*
X0089375Y0185765D02*
X0095815Y0185765D01*
X0095602Y0185552D02*
X0095602Y0185552D01*
X0097093Y0187043D02*
X0097093Y0187043D01*
X0096453Y0188962D02*
X0096453Y0188962D01*
X0096453Y0190561D02*
X0096453Y0190561D01*
X0096453Y0192159D02*
X0096453Y0192159D01*
X0096454Y0192550D02*
X0096454Y0192550D01*
X0100419Y0192550D01*
X0096454Y0192550D01*
X0096453Y0193758D02*
X0096453Y0193758D01*
X0096453Y0195356D02*
X0096453Y0195356D01*
X0099255Y0195356D02*
X0103496Y0195356D01*
X0103496Y0193758D02*
X0100245Y0193758D01*
X0100419Y0192159D02*
X0103944Y0192159D01*
X0104606Y0190561D02*
X0099893Y0190561D01*
X0103535Y0196955D02*
X0079847Y0196955D01*
X0078249Y0198553D02*
X0104197Y0198553D01*
X0104860Y0200152D02*
X0076650Y0200152D01*
X0075245Y0201751D02*
X0106427Y0201751D01*
X0103998Y0204948D02*
X0119795Y0204948D01*
X0119795Y0206546D02*
X0103944Y0206546D01*
X0104128Y0208145D02*
X0119795Y0208145D01*
X0119795Y0209743D02*
X0104565Y0209743D01*
X0104348Y0211342D02*
X0109578Y0211342D01*
X0106694Y0212940D02*
X0103998Y0212940D01*
X0103998Y0214539D02*
X0105096Y0214539D01*
X0104258Y0216137D02*
X0103620Y0216137D01*
X0104327Y0224130D02*
X0091571Y0224130D01*
X0091620Y0224249D02*
X0091007Y0222770D01*
X0089875Y0221638D01*
X0088396Y0221025D01*
X0086795Y0221025D01*
X0085315Y0221638D01*
X0084183Y0222770D01*
X0083570Y0224249D01*
X0083570Y0225851D01*
X0084183Y0227330D01*
X0085315Y0228462D01*
X0086795Y0229075D01*
X0088396Y0229075D01*
X0089875Y0228462D01*
X0091007Y0227330D01*
X0091620Y0225851D01*
X0091620Y0224249D01*
X0091620Y0225728D02*
X0094176Y0225728D01*
X0095033Y0225299D02*
X0092243Y0226695D01*
X0091690Y0226879D01*
X0091628Y0227002D01*
X0091505Y0227063D01*
X0091321Y0227617D01*
X0091060Y0228139D01*
X0091103Y0228269D01*
X0091060Y0228400D01*
X0091321Y0228921D01*
X0091505Y0229475D01*
X0091628Y0229536D01*
X0091690Y0229659D01*
X0092085Y0229791D01*
X0091762Y0230114D01*
X0091195Y0230681D01*
X0091195Y0232477D01*
X0090970Y0232167D01*
X0090478Y0231675D01*
X0089914Y0231265D01*
X0089294Y0230949D01*
X0088631Y0230734D01*
X0087943Y0230625D01*
X0087670Y0230625D01*
X0087670Y0234975D01*
X0087520Y0234975D01*
X0083170Y0234975D01*
X0083170Y0234702D01*
X0083279Y0234014D01*
X0083494Y0233351D01*
X0083811Y0232731D01*
X0084220Y0232167D01*
X0084712Y0231675D01*
X0085276Y0231265D01*
X0085897Y0230949D01*
X0086559Y0230734D01*
X0087247Y0230625D01*
X0087520Y0230625D01*
X0087520Y0234975D01*
X0087520Y0235125D01*
X0083170Y0235125D01*
X0083170Y0235398D01*
X0083279Y0236086D01*
X0083494Y0236749D01*
X0083811Y0237369D01*
X0084220Y0237933D01*
X0084712Y0238425D01*
X0085276Y0238835D01*
X0085897Y0239151D01*
X0086559Y0239366D01*
X0087247Y0239475D01*
X0087520Y0239475D01*
X0087520Y0235125D01*
X0087670Y0235125D01*
X0087670Y0239475D01*
X0087943Y0239475D01*
X0088631Y0239366D01*
X0089294Y0239151D01*
X0089914Y0238835D01*
X0090478Y0238425D01*
X0090970Y0237933D01*
X0091195Y0237623D01*
X0091195Y0239315D01*
X0092191Y0240311D01*
X0093599Y0240311D01*
X0094595Y0239315D01*
X0094595Y0239177D01*
X0096349Y0239177D01*
X0097057Y0239884D01*
X0097195Y0239884D01*
X0097195Y0240590D01*
X0098191Y0241586D01*
X0098758Y0242153D01*
X0098897Y0242153D01*
X0098897Y0243851D01*
X0098191Y0243851D01*
X0097195Y0244846D01*
X0097195Y0246255D01*
X0097625Y0246685D01*
X0097195Y0247115D01*
X0097195Y0248523D01*
X0097482Y0248810D01*
X0097195Y0249097D01*
X0097195Y0251639D01*
X0097482Y0251926D01*
X0097195Y0252213D01*
X0097195Y0255890D01*
X0098191Y0256885D01*
X0099599Y0256885D01*
X0100029Y0256455D01*
X0100460Y0256885D01*
X0102435Y0256885D01*
X0103002Y0256318D01*
X0103998Y0255322D01*
X0103998Y0252780D01*
X0103428Y0252210D01*
X0103998Y0251639D01*
X0103998Y0249097D01*
X0103711Y0248810D01*
X0103998Y0248523D01*
X0103998Y0247115D01*
X0103568Y0246685D01*
X0103998Y0246255D01*
X0103998Y0244846D01*
X0103002Y0243851D01*
X0102297Y0243851D01*
X0102297Y0241163D01*
X0102293Y0241160D01*
X0102297Y0241157D01*
X0102864Y0240590D01*
X0102864Y0237480D01*
X0102577Y0237193D01*
X0102864Y0236907D01*
X0102864Y0234787D01*
X0103002Y0234787D01*
X0103998Y0233791D01*
X0103998Y0232382D01*
X0103002Y0231387D01*
X0102864Y0231387D01*
X0102864Y0230681D01*
X0102577Y0230394D01*
X0102864Y0230108D01*
X0103998Y0228973D01*
X0103998Y0227565D01*
X0103002Y0226569D01*
X0101868Y0225435D01*
X0098191Y0225435D01*
X0097195Y0226431D01*
X0097195Y0227839D01*
X0097625Y0228269D01*
X0097195Y0228699D01*
X0097195Y0229878D01*
X0097002Y0229685D01*
X0096950Y0229633D01*
X0096999Y0229534D01*
X0096578Y0228269D01*
X0096999Y0227004D01*
X0096369Y0225745D01*
X0095033Y0225299D01*
X0096320Y0225728D02*
X0097898Y0225728D01*
X0097195Y0227327D02*
X0096892Y0227327D01*
X0096796Y0228925D02*
X0097195Y0228925D01*
X0097181Y0222531D02*
X0097074Y0222531D01*
X0097134Y0219334D02*
X0097195Y0219334D01*
X0097195Y0217736D02*
X0075245Y0217736D01*
X0075245Y0219334D02*
X0091195Y0219334D01*
X0091595Y0220933D02*
X0075245Y0220933D01*
X0075245Y0222531D02*
X0084422Y0222531D01*
X0083620Y0224130D02*
X0075245Y0224130D01*
X0075245Y0225728D02*
X0083570Y0225728D01*
X0084182Y0227327D02*
X0080564Y0227327D01*
X0081486Y0228925D02*
X0086433Y0228925D01*
X0088757Y0228925D02*
X0091322Y0228925D01*
X0091352Y0230524D02*
X0081620Y0230524D01*
X0081093Y0232122D02*
X0084265Y0232122D01*
X0083374Y0233721D02*
X0079251Y0233721D01*
X0080721Y0236918D02*
X0083581Y0236918D01*
X0083170Y0235319D02*
X0075245Y0235319D01*
X0075245Y0233721D02*
X0075939Y0233721D01*
X0077520Y0236918D02*
X0077670Y0236918D01*
X0077670Y0238516D02*
X0077520Y0238516D01*
X0077670Y0240115D02*
X0091995Y0240115D01*
X0091195Y0238516D02*
X0090352Y0238516D01*
X0089951Y0241713D02*
X0098319Y0241713D01*
X0098897Y0243312D02*
X0091232Y0243312D01*
X0091620Y0244910D02*
X0097195Y0244910D01*
X0097449Y0246509D02*
X0091347Y0246509D01*
X0090230Y0248107D02*
X0097195Y0248107D01*
X0097195Y0249706D02*
X0083455Y0249706D01*
X0081856Y0251304D02*
X0086120Y0251304D01*
X0086795Y0251025D02*
X0085315Y0251638D01*
X0084183Y0252770D01*
X0083570Y0254249D01*
X0083570Y0255851D01*
X0084183Y0257330D01*
X0085315Y0258462D01*
X0086795Y0259075D01*
X0088396Y0259075D01*
X0089875Y0258462D01*
X0091007Y0257330D01*
X0091620Y0255851D01*
X0091620Y0254249D01*
X0091007Y0252770D01*
X0089875Y0251638D01*
X0088396Y0251025D01*
X0086795Y0251025D01*
X0089070Y0251304D02*
X0097195Y0251304D01*
X0097195Y0252903D02*
X0091062Y0252903D01*
X0091620Y0254501D02*
X0097195Y0254501D01*
X0097405Y0256100D02*
X0091517Y0256100D01*
X0090639Y0257698D02*
X0106936Y0257698D01*
X0105337Y0259297D02*
X0081620Y0259297D01*
X0081620Y0259249D02*
X0081007Y0257770D01*
X0079875Y0256638D01*
X0078396Y0256025D01*
X0076795Y0256025D01*
X0075315Y0256638D01*
X0074183Y0257770D01*
X0073570Y0259249D01*
X0073570Y0260851D01*
X0074183Y0262330D01*
X0075315Y0263462D01*
X0076795Y0264075D01*
X0078396Y0264075D01*
X0079875Y0263462D01*
X0081007Y0262330D01*
X0081620Y0260851D01*
X0081620Y0259249D01*
X0081602Y0260895D02*
X0104358Y0260895D01*
X0103696Y0262494D02*
X0080843Y0262494D01*
X0080936Y0257698D02*
X0084551Y0257698D01*
X0083673Y0256100D02*
X0078577Y0256100D01*
X0076614Y0256100D02*
X0048520Y0256100D01*
X0049502Y0254501D02*
X0083570Y0254501D01*
X0084128Y0252903D02*
X0080434Y0252903D01*
X0074756Y0252903D02*
X0050045Y0252903D01*
X0050131Y0249706D02*
X0071736Y0249706D01*
X0073334Y0251304D02*
X0042913Y0251304D01*
X0042913Y0249706D02*
X0041313Y0249706D01*
X0041313Y0250293D02*
X0041313Y0242998D01*
X0040523Y0243102D01*
X0039494Y0243378D01*
X0038509Y0243785D01*
X0037586Y0244318D01*
X0036740Y0244967D01*
X0035987Y0245721D01*
X0035338Y0246566D01*
X0034805Y0247489D01*
X0034397Y0248474D01*
X0034121Y0249504D01*
X0034017Y0250293D01*
X0041313Y0250293D01*
X0041313Y0251304D02*
X0031645Y0251304D01*
X0031645Y0249706D02*
X0034095Y0249706D01*
X0034549Y0248107D02*
X0031645Y0248107D01*
X0031645Y0246509D02*
X0035382Y0246509D01*
X0036815Y0244910D02*
X0031645Y0244910D01*
X0031645Y0243312D02*
X0039739Y0243312D01*
X0041313Y0243312D02*
X0042913Y0243312D01*
X0044487Y0243312D02*
X0067445Y0243312D01*
X0067445Y0241713D02*
X0064877Y0241713D01*
X0062656Y0241713D02*
X0055035Y0241713D01*
X0054672Y0241863D02*
X0053176Y0241863D01*
X0051793Y0241291D01*
X0050734Y0240232D01*
X0050162Y0238850D01*
X0050162Y0237353D01*
X0050734Y0235970D01*
X0051793Y0234912D01*
X0053176Y0234339D01*
X0054672Y0234339D01*
X0056055Y0234912D01*
X0057113Y0235970D01*
X0057686Y0237353D01*
X0057686Y0238850D01*
X0057113Y0240232D01*
X0056055Y0241291D01*
X0054672Y0241863D01*
X0052813Y0241713D02*
X0031645Y0241713D01*
X0031645Y0240115D02*
X0050686Y0240115D01*
X0050162Y0238516D02*
X0031645Y0238516D01*
X0031645Y0236918D02*
X0050342Y0236918D01*
X0051385Y0235319D02*
X0031645Y0235319D01*
X0031645Y0233721D02*
X0061894Y0233721D01*
X0061228Y0235319D02*
X0056463Y0235319D01*
X0057506Y0236918D02*
X0060184Y0236918D01*
X0060004Y0238516D02*
X0057686Y0238516D01*
X0057162Y0240115D02*
X0060528Y0240115D01*
X0060398Y0232122D02*
X0056365Y0232122D01*
X0057466Y0230524D02*
X0060004Y0230524D01*
X0060315Y0228925D02*
X0057686Y0228925D01*
X0057202Y0227327D02*
X0061543Y0227327D01*
X0061624Y0225728D02*
X0055270Y0225728D01*
X0057049Y0224130D02*
X0060349Y0224130D01*
X0060004Y0222531D02*
X0057923Y0222531D01*
X0058069Y0220933D02*
X0060364Y0220933D01*
X0061699Y0219334D02*
X0057558Y0219334D01*
X0055961Y0217736D02*
X0061505Y0217736D01*
X0060299Y0216137D02*
X0056797Y0216137D01*
X0057713Y0214539D02*
X0060004Y0214539D01*
X0060413Y0212940D02*
X0057824Y0212940D01*
X0057253Y0211342D02*
X0061985Y0211342D01*
X0061190Y0209743D02*
X0056500Y0209743D01*
X0057521Y0208145D02*
X0060169Y0208145D01*
X0060004Y0206546D02*
X0057686Y0206546D01*
X0057146Y0204948D02*
X0060544Y0204948D01*
X0065548Y0211342D02*
X0067445Y0211342D01*
X0067445Y0212940D02*
X0067120Y0212940D01*
X0067233Y0216137D02*
X0067445Y0216137D01*
X0067445Y0217736D02*
X0066027Y0217736D01*
X0065834Y0219334D02*
X0067445Y0219334D01*
X0067445Y0220933D02*
X0067169Y0220933D01*
X0067184Y0224130D02*
X0067445Y0224130D01*
X0067445Y0225728D02*
X0065909Y0225728D01*
X0065990Y0227327D02*
X0067445Y0227327D01*
X0067445Y0228925D02*
X0067218Y0228925D01*
X0067135Y0232122D02*
X0067445Y0232122D01*
X0067445Y0233721D02*
X0065638Y0233721D01*
X0066305Y0235319D02*
X0067445Y0235319D01*
X0067445Y0236918D02*
X0067348Y0236918D01*
X0067445Y0240115D02*
X0067005Y0240115D01*
X0067584Y0244910D02*
X0047411Y0244910D01*
X0048844Y0246509D02*
X0068539Y0246509D01*
X0069136Y0247106D02*
X0069136Y0247106D01*
X0070137Y0248107D02*
X0049677Y0248107D01*
X0042913Y0248107D02*
X0041313Y0248107D01*
X0041313Y0246509D02*
X0042913Y0246509D01*
X0042913Y0244910D02*
X0041313Y0244910D01*
X0041313Y0252903D02*
X0042913Y0252903D01*
X0042913Y0254501D02*
X0041313Y0254501D01*
X0041313Y0256100D02*
X0042913Y0256100D01*
X0042913Y0257698D02*
X0041313Y0257698D01*
X0042698Y0259297D02*
X0073570Y0259297D01*
X0073589Y0260895D02*
X0045059Y0260895D01*
X0046600Y0262494D02*
X0074347Y0262494D01*
X0074255Y0257698D02*
X0046861Y0257698D01*
X0047262Y0264092D02*
X0103395Y0264092D01*
X0103395Y0265691D02*
X0047924Y0265691D01*
X0047944Y0267289D02*
X0103565Y0267289D01*
X0104227Y0268888D02*
X0047944Y0268888D01*
X0047478Y0270487D02*
X0105021Y0270487D01*
X0106619Y0272085D02*
X0046816Y0272085D01*
X0045580Y0273684D02*
X0109398Y0273684D01*
X0115793Y0273684D02*
X0116252Y0273684D01*
X0118254Y0257698D02*
X0119795Y0257698D01*
X0119795Y0256100D02*
X0115028Y0256100D01*
X0119795Y0254501D02*
X0103998Y0254501D01*
X0103998Y0252903D02*
X0119795Y0252903D01*
X0119795Y0251304D02*
X0103998Y0251304D01*
X0103998Y0249706D02*
X0119795Y0249706D01*
X0119795Y0248107D02*
X0103998Y0248107D01*
X0103744Y0246509D02*
X0119795Y0246509D01*
X0119795Y0244910D02*
X0103998Y0244910D01*
X0102297Y0243312D02*
X0119795Y0243312D01*
X0119795Y0241713D02*
X0102297Y0241713D01*
X0102864Y0240115D02*
X0119795Y0240115D01*
X0119795Y0238516D02*
X0102864Y0238516D01*
X0102853Y0236918D02*
X0119795Y0236918D01*
X0119795Y0235319D02*
X0102864Y0235319D01*
X0103998Y0233721D02*
X0119795Y0233721D01*
X0119795Y0232122D02*
X0103738Y0232122D01*
X0102707Y0230524D02*
X0119795Y0230524D01*
X0119795Y0228925D02*
X0115209Y0228925D01*
X0118329Y0227327D02*
X0119795Y0227327D01*
X0109981Y0228925D02*
X0103998Y0228925D01*
X0103760Y0227327D02*
X0106861Y0227327D01*
X0105263Y0225728D02*
X0102161Y0225728D01*
X0097195Y0216137D02*
X0096141Y0216137D01*
X0096912Y0214539D02*
X0097195Y0214539D01*
X0097195Y0212940D02*
X0096776Y0212940D01*
X0096647Y0211342D02*
X0097195Y0211342D01*
X0097195Y0209743D02*
X0096864Y0209743D01*
X0097295Y0208145D02*
X0097331Y0208145D01*
X0097015Y0203349D02*
X0098178Y0203349D01*
X0103015Y0203349D02*
X0108853Y0203349D01*
X0116337Y0203349D02*
X0119795Y0203349D01*
X0119795Y0201751D02*
X0118763Y0201751D01*
X0119795Y0211342D02*
X0115612Y0211342D01*
X0118496Y0212940D02*
X0119795Y0212940D01*
X0097195Y0240115D02*
X0093796Y0240115D01*
X0091195Y0232122D02*
X0090925Y0232122D01*
X0091009Y0227327D02*
X0091417Y0227327D01*
X0091195Y0222531D02*
X0090769Y0222531D01*
X0094295Y0216137D02*
X0075245Y0216137D01*
X0075245Y0214539D02*
X0091437Y0214539D01*
X0091293Y0212940D02*
X0075245Y0212940D01*
X0075245Y0211342D02*
X0091412Y0211342D01*
X0091195Y0209743D02*
X0075245Y0209743D01*
X0075245Y0208145D02*
X0091331Y0208145D01*
X0091249Y0206546D02*
X0075245Y0206546D01*
X0075245Y0204948D02*
X0091195Y0204948D01*
X0092178Y0203349D02*
X0075245Y0203349D01*
X0070415Y0195356D02*
X0050136Y0195356D01*
X0050035Y0192159D02*
X0073612Y0192159D01*
X0075210Y0190561D02*
X0049486Y0190561D01*
X0048491Y0188962D02*
X0077207Y0188962D01*
X0080267Y0188962D02*
X0094753Y0188962D01*
X0093652Y0195356D02*
X0092784Y0195356D01*
X0088312Y0195356D02*
X0086878Y0195356D01*
X0082407Y0195356D02*
X0081446Y0195356D01*
X0072013Y0193758D02*
X0042913Y0193758D01*
X0042913Y0195356D02*
X0041313Y0195356D01*
X0041313Y0193758D02*
X0031648Y0193758D01*
X0031645Y0195356D02*
X0034090Y0195356D01*
X0034533Y0196955D02*
X0031645Y0196955D01*
X0031645Y0198553D02*
X0035353Y0198553D01*
X0036765Y0200152D02*
X0031645Y0200152D01*
X0031645Y0201751D02*
X0039599Y0201751D01*
X0041313Y0201751D02*
X0042913Y0201751D01*
X0042913Y0200152D02*
X0041313Y0200152D01*
X0041313Y0198553D02*
X0042913Y0198553D01*
X0042913Y0196955D02*
X0041313Y0196955D01*
X0043695Y0203349D02*
X0031645Y0203349D01*
X0031645Y0204948D02*
X0043695Y0204948D01*
X0043695Y0206546D02*
X0031645Y0206546D01*
X0031645Y0208145D02*
X0043695Y0208145D01*
X0043695Y0209743D02*
X0031645Y0209743D01*
X0031645Y0211342D02*
X0043909Y0211342D01*
X0044970Y0212940D02*
X0031645Y0212940D01*
X0031645Y0214539D02*
X0035515Y0214539D01*
X0038163Y0214539D02*
X0039763Y0214539D01*
X0039763Y0216137D02*
X0038163Y0216137D01*
X0038163Y0217736D02*
X0039763Y0217736D01*
X0039763Y0219334D02*
X0038163Y0219334D01*
X0038163Y0220933D02*
X0039763Y0220933D01*
X0039763Y0222531D02*
X0049925Y0222531D01*
X0049779Y0220933D02*
X0047547Y0220933D01*
X0047071Y0219334D02*
X0050289Y0219334D01*
X0051887Y0217736D02*
X0046254Y0217736D01*
X0044884Y0216137D02*
X0048167Y0216137D01*
X0046568Y0214539D02*
X0042412Y0214539D01*
X0039763Y0223350D02*
X0047654Y0223350D01*
X0047535Y0224255D01*
X0047239Y0225359D01*
X0046802Y0226416D01*
X0046230Y0227406D01*
X0045534Y0228313D01*
X0044726Y0229121D01*
X0043819Y0229817D01*
X0042829Y0230389D01*
X0041773Y0230826D01*
X0040668Y0231122D01*
X0039763Y0231241D01*
X0039763Y0223350D01*
X0039763Y0224130D02*
X0038163Y0224130D01*
X0038163Y0225728D02*
X0039763Y0225728D01*
X0039763Y0227327D02*
X0038163Y0227327D01*
X0038163Y0228925D02*
X0039763Y0228925D01*
X0039763Y0230524D02*
X0038163Y0230524D01*
X0035424Y0230524D02*
X0031645Y0230524D01*
X0031645Y0232122D02*
X0051483Y0232122D01*
X0050382Y0230524D02*
X0042503Y0230524D01*
X0044922Y0228925D02*
X0050162Y0228925D01*
X0050645Y0227327D02*
X0046276Y0227327D01*
X0047087Y0225728D02*
X0052578Y0225728D01*
X0050798Y0224130D02*
X0047552Y0224130D01*
X0033005Y0228925D02*
X0031645Y0228925D01*
X0031645Y0227327D02*
X0031651Y0227327D01*
X0031645Y0217736D02*
X0031672Y0217736D01*
X0031645Y0216137D02*
X0033042Y0216137D01*
X0031949Y0192159D02*
X0034190Y0192159D01*
X0034740Y0190561D02*
X0032684Y0190561D01*
X0034255Y0188962D02*
X0035735Y0188962D01*
X0053573Y0187364D02*
X0064117Y0187364D01*
X0063343Y0187043D02*
X0063343Y0187043D01*
X0062065Y0185765D02*
X0055625Y0185765D01*
X0055838Y0185552D02*
X0055838Y0185552D01*
X0054347Y0187043D02*
X0054347Y0187043D01*
X0061852Y0185552D02*
X0061852Y0185552D01*
X0067364Y0208145D02*
X0067445Y0208145D01*
X0067445Y0209743D02*
X0066343Y0209743D01*
X0081750Y0238516D02*
X0084838Y0238516D01*
X0087520Y0238516D02*
X0087670Y0238516D01*
X0087670Y0236918D02*
X0087520Y0236918D01*
X0087520Y0235319D02*
X0087670Y0235319D01*
X0087670Y0233721D02*
X0087520Y0233721D01*
X0087520Y0232122D02*
X0087670Y0232122D01*
X0103221Y0256100D02*
X0110162Y0256100D01*
X0081345Y0132550D02*
X0081345Y0096300D01*
X0084470Y0093175D01*
X0082595Y0086300D02*
X0091345Y0095050D01*
X0091345Y0106300D01*
X0069470Y0078800D02*
X0075720Y0072550D01*
X0075720Y0068175D01*
X0075095Y0067550D01*
X0075095Y0049425D01*
X0076345Y0048175D01*
X0079470Y0048175D01*
X0080720Y0046925D01*
X0080720Y0043800D01*
X0071970Y0036300D01*
X0070720Y0036300D01*
X0034180Y0252903D02*
X0031645Y0252903D01*
X0031645Y0254501D02*
X0034724Y0254501D01*
X0035706Y0256100D02*
X0031645Y0256100D01*
X0031645Y0257698D02*
X0037365Y0257698D01*
X0034992Y0259297D02*
X0031645Y0259297D01*
X0031645Y0260895D02*
X0032631Y0260895D01*
D25*
X0051040Y0213495D02*
X0047595Y0210050D01*
X0047595Y0203800D01*
X0051453Y0199942D01*
X0071345Y0199942D01*
X0078737Y0192550D01*
X0071345Y0199942D02*
X0071345Y0243800D01*
X0077595Y0250050D01*
X0082595Y0245050D01*
X0087595Y0245050D01*
X0092595Y0186300D02*
X0092595Y0180050D01*
X0053924Y0213495D02*
X0051040Y0213495D01*
D26*
X0045853Y0116792D02*
X0035066Y0116792D01*
X0035066Y0108918D02*
X0035184Y0108800D01*
X0050095Y0108800D01*
X0078220Y0080675D01*
X0078220Y0063800D01*
X0083220Y0058800D01*
X0083220Y0040675D01*
X0080720Y0038175D01*
X0080720Y0036300D01*
X0074470Y0045675D02*
X0057595Y0045675D01*
X0050720Y0038800D01*
X0050720Y0036300D01*
X0063412Y0053800D02*
X0067595Y0057983D01*
X0067595Y0070050D01*
X0070095Y0073175D02*
X0038693Y0073175D01*
X0035066Y0069548D01*
X0036188Y0076300D02*
X0035066Y0077422D01*
X0036188Y0076300D02*
X0062595Y0076300D01*
X0067349Y0085296D02*
X0035066Y0085296D01*
X0045853Y0116792D02*
X0080720Y0081925D01*
X0080720Y0075675D01*
X0085095Y0071300D01*
X0085095Y0066300D01*
X0091345Y0060050D01*
X0091345Y0040050D01*
X0090720Y0039425D01*
X0090720Y0036300D01*
X0095095Y0042550D02*
X0098845Y0046300D01*
X0098845Y0052550D01*
X0105095Y0058800D01*
X0105095Y0112550D01*
X0101345Y0116300D01*
X0099337Y0116300D01*
X0098845Y0116792D01*
X0111345Y0136300D02*
X0118220Y0143175D01*
X0118220Y0146472D01*
X0113845Y0150847D01*
X0108845Y0151753D02*
X0113845Y0156753D01*
X0108845Y0151753D02*
X0108845Y0082550D01*
X0109470Y0081925D01*
X0111345Y0085050D02*
X0111345Y0136300D01*
X0111345Y0085050D02*
X0113845Y0082550D01*
X0113845Y0080675D01*
X0110845Y0077675D01*
X0110845Y0062550D01*
X0110105Y0053800D02*
X0110095Y0053790D01*
X0105095Y0053800D01*
X0098471Y0061300D02*
X0098845Y0061674D01*
X0098471Y0061300D02*
X0096345Y0061300D01*
X0092595Y0065050D01*
X0092595Y0070050D01*
X0092595Y0080050D01*
X0081345Y0069425D02*
X0081345Y0065050D01*
X0087595Y0057550D01*
X0087595Y0054361D01*
X0087034Y0053800D01*
X0073845Y0078800D02*
X0067349Y0085296D01*
X0072595Y0070050D02*
X0072595Y0055109D01*
X0071286Y0053800D01*
X0116845Y0054540D02*
X0117585Y0053800D01*
X0116845Y0054540D02*
X0116845Y0062550D01*
M02*
