G75*
%MOIN*%
%OFA0B0*%
%FSLAX25Y25*%
%IPPOS*%
%LPD*%
%AMOC8*
5,1,8,0,0,1.08239X$1,22.5*
%
%ADD10C,0.00000*%
%ADD11R,0.05118X0.05906*%
%ADD12R,0.05906X0.05118*%
%ADD13R,0.08800X0.04800*%
%ADD14R,0.08661X0.14173*%
%ADD15R,0.05512X0.07480*%
%ADD16C,0.04800*%
%ADD17R,0.02200X0.07800*%
%ADD18C,0.04331*%
%ADD19R,0.09843X0.09843*%
%ADD20C,0.05250*%
%ADD21C,0.04724*%
%ADD22C,0.13843*%
%ADD23C,0.12661*%
%ADD24R,0.05512X0.03937*%
%ADD25C,0.01000*%
%ADD26C,0.03169*%
%ADD27C,0.01600*%
%ADD28C,0.01200*%
%ADD29C,0.02400*%
%ADD30C,0.03200*%
%ADD31C,0.05000*%
D10*
X0028845Y0038800D02*
X0028845Y0170050D01*
X0028848Y0170292D01*
X0028857Y0170533D01*
X0028871Y0170774D01*
X0028892Y0171015D01*
X0028918Y0171255D01*
X0028950Y0171495D01*
X0028988Y0171734D01*
X0029031Y0171971D01*
X0029081Y0172208D01*
X0029136Y0172443D01*
X0029196Y0172677D01*
X0029263Y0172909D01*
X0029334Y0173140D01*
X0029412Y0173369D01*
X0029495Y0173596D01*
X0029583Y0173821D01*
X0029677Y0174044D01*
X0029776Y0174264D01*
X0029881Y0174482D01*
X0029990Y0174697D01*
X0030105Y0174910D01*
X0030225Y0175120D01*
X0030350Y0175326D01*
X0030480Y0175530D01*
X0030615Y0175731D01*
X0030755Y0175928D01*
X0030899Y0176122D01*
X0031048Y0176312D01*
X0031202Y0176498D01*
X0031360Y0176681D01*
X0031522Y0176860D01*
X0031689Y0177035D01*
X0031860Y0177206D01*
X0032035Y0177373D01*
X0032214Y0177535D01*
X0032397Y0177693D01*
X0032583Y0177847D01*
X0032773Y0177996D01*
X0032967Y0178140D01*
X0033164Y0178280D01*
X0033365Y0178415D01*
X0033569Y0178545D01*
X0033775Y0178670D01*
X0033985Y0178790D01*
X0034198Y0178905D01*
X0034413Y0179014D01*
X0034631Y0179119D01*
X0034851Y0179218D01*
X0035074Y0179312D01*
X0035299Y0179400D01*
X0035526Y0179483D01*
X0035755Y0179561D01*
X0035986Y0179632D01*
X0036218Y0179699D01*
X0036452Y0179759D01*
X0036687Y0179814D01*
X0036924Y0179864D01*
X0037161Y0179907D01*
X0037400Y0179945D01*
X0037640Y0179977D01*
X0037880Y0180003D01*
X0038121Y0180024D01*
X0038362Y0180038D01*
X0038603Y0180047D01*
X0038845Y0180050D01*
X0051345Y0180050D01*
X0053845Y0182550D02*
X0053843Y0182648D01*
X0053837Y0182746D01*
X0053828Y0182844D01*
X0053814Y0182941D01*
X0053797Y0183038D01*
X0053776Y0183134D01*
X0053751Y0183229D01*
X0053723Y0183323D01*
X0053690Y0183415D01*
X0053655Y0183507D01*
X0053615Y0183597D01*
X0053573Y0183685D01*
X0053526Y0183772D01*
X0053477Y0183856D01*
X0053424Y0183939D01*
X0053368Y0184019D01*
X0053308Y0184098D01*
X0053246Y0184174D01*
X0053181Y0184247D01*
X0053113Y0184318D01*
X0053042Y0184386D01*
X0052969Y0184451D01*
X0052893Y0184513D01*
X0052814Y0184573D01*
X0052734Y0184629D01*
X0052651Y0184682D01*
X0052567Y0184731D01*
X0052480Y0184778D01*
X0052392Y0184820D01*
X0052302Y0184860D01*
X0052210Y0184895D01*
X0052118Y0184928D01*
X0052024Y0184956D01*
X0051929Y0184981D01*
X0051833Y0185002D01*
X0051736Y0185019D01*
X0051639Y0185033D01*
X0051541Y0185042D01*
X0051443Y0185048D01*
X0051345Y0185050D01*
X0037595Y0185050D01*
X0037384Y0185053D01*
X0037172Y0185060D01*
X0036961Y0185073D01*
X0036751Y0185091D01*
X0036540Y0185114D01*
X0036331Y0185142D01*
X0036122Y0185175D01*
X0035914Y0185213D01*
X0035707Y0185256D01*
X0035501Y0185304D01*
X0035296Y0185357D01*
X0035093Y0185415D01*
X0034891Y0185478D01*
X0034691Y0185546D01*
X0034492Y0185619D01*
X0034295Y0185696D01*
X0034101Y0185778D01*
X0033908Y0185865D01*
X0033717Y0185956D01*
X0033529Y0186052D01*
X0033343Y0186153D01*
X0033159Y0186258D01*
X0032978Y0186367D01*
X0032800Y0186481D01*
X0032624Y0186599D01*
X0032452Y0186721D01*
X0032282Y0186847D01*
X0032116Y0186978D01*
X0031953Y0187112D01*
X0031793Y0187251D01*
X0031636Y0187393D01*
X0031483Y0187539D01*
X0031334Y0187688D01*
X0031188Y0187841D01*
X0031046Y0187998D01*
X0030907Y0188158D01*
X0030773Y0188321D01*
X0030642Y0188487D01*
X0030516Y0188657D01*
X0030394Y0188829D01*
X0030276Y0189005D01*
X0030162Y0189183D01*
X0030053Y0189364D01*
X0029948Y0189548D01*
X0029847Y0189734D01*
X0029751Y0189922D01*
X0029660Y0190113D01*
X0029573Y0190306D01*
X0029491Y0190500D01*
X0029414Y0190697D01*
X0029341Y0190896D01*
X0029273Y0191096D01*
X0029210Y0191298D01*
X0029152Y0191501D01*
X0029099Y0191706D01*
X0029051Y0191912D01*
X0029008Y0192119D01*
X0028970Y0192327D01*
X0028937Y0192536D01*
X0028909Y0192745D01*
X0028886Y0192956D01*
X0028868Y0193166D01*
X0028855Y0193377D01*
X0028848Y0193589D01*
X0028845Y0193800D01*
X0028845Y0267550D01*
X0028848Y0267792D01*
X0028857Y0268033D01*
X0028871Y0268274D01*
X0028892Y0268515D01*
X0028918Y0268755D01*
X0028950Y0268995D01*
X0028988Y0269234D01*
X0029031Y0269471D01*
X0029081Y0269708D01*
X0029136Y0269943D01*
X0029196Y0270177D01*
X0029263Y0270409D01*
X0029334Y0270640D01*
X0029412Y0270869D01*
X0029495Y0271096D01*
X0029583Y0271321D01*
X0029677Y0271544D01*
X0029776Y0271764D01*
X0029881Y0271982D01*
X0029990Y0272197D01*
X0030105Y0272410D01*
X0030225Y0272620D01*
X0030350Y0272826D01*
X0030480Y0273030D01*
X0030615Y0273231D01*
X0030755Y0273428D01*
X0030899Y0273622D01*
X0031048Y0273812D01*
X0031202Y0273998D01*
X0031360Y0274181D01*
X0031522Y0274360D01*
X0031689Y0274535D01*
X0031860Y0274706D01*
X0032035Y0274873D01*
X0032214Y0275035D01*
X0032397Y0275193D01*
X0032583Y0275347D01*
X0032773Y0275496D01*
X0032967Y0275640D01*
X0033164Y0275780D01*
X0033365Y0275915D01*
X0033569Y0276045D01*
X0033775Y0276170D01*
X0033985Y0276290D01*
X0034198Y0276405D01*
X0034413Y0276514D01*
X0034631Y0276619D01*
X0034851Y0276718D01*
X0035074Y0276812D01*
X0035299Y0276900D01*
X0035526Y0276983D01*
X0035755Y0277061D01*
X0035986Y0277132D01*
X0036218Y0277199D01*
X0036452Y0277259D01*
X0036687Y0277314D01*
X0036924Y0277364D01*
X0037161Y0277407D01*
X0037400Y0277445D01*
X0037640Y0277477D01*
X0037880Y0277503D01*
X0038121Y0277524D01*
X0038362Y0277538D01*
X0038603Y0277547D01*
X0038845Y0277550D01*
X0112595Y0277550D01*
X0112837Y0277547D01*
X0113078Y0277538D01*
X0113319Y0277524D01*
X0113560Y0277503D01*
X0113800Y0277477D01*
X0114040Y0277445D01*
X0114279Y0277407D01*
X0114516Y0277364D01*
X0114753Y0277314D01*
X0114988Y0277259D01*
X0115222Y0277199D01*
X0115454Y0277132D01*
X0115685Y0277061D01*
X0115914Y0276983D01*
X0116141Y0276900D01*
X0116366Y0276812D01*
X0116589Y0276718D01*
X0116809Y0276619D01*
X0117027Y0276514D01*
X0117242Y0276405D01*
X0117455Y0276290D01*
X0117665Y0276170D01*
X0117871Y0276045D01*
X0118075Y0275915D01*
X0118276Y0275780D01*
X0118473Y0275640D01*
X0118667Y0275496D01*
X0118857Y0275347D01*
X0119043Y0275193D01*
X0119226Y0275035D01*
X0119405Y0274873D01*
X0119580Y0274706D01*
X0119751Y0274535D01*
X0119918Y0274360D01*
X0120080Y0274181D01*
X0120238Y0273998D01*
X0120392Y0273812D01*
X0120541Y0273622D01*
X0120685Y0273428D01*
X0120825Y0273231D01*
X0120960Y0273030D01*
X0121090Y0272826D01*
X0121215Y0272620D01*
X0121335Y0272410D01*
X0121450Y0272197D01*
X0121559Y0271982D01*
X0121664Y0271764D01*
X0121763Y0271544D01*
X0121857Y0271321D01*
X0121945Y0271096D01*
X0122028Y0270869D01*
X0122106Y0270640D01*
X0122177Y0270409D01*
X0122244Y0270177D01*
X0122304Y0269943D01*
X0122359Y0269708D01*
X0122409Y0269471D01*
X0122452Y0269234D01*
X0122490Y0268995D01*
X0122522Y0268755D01*
X0122548Y0268515D01*
X0122569Y0268274D01*
X0122583Y0268033D01*
X0122592Y0267792D01*
X0122595Y0267550D01*
X0122595Y0195050D01*
X0122592Y0194808D01*
X0122583Y0194567D01*
X0122569Y0194326D01*
X0122548Y0194085D01*
X0122522Y0193845D01*
X0122490Y0193605D01*
X0122452Y0193366D01*
X0122409Y0193129D01*
X0122359Y0192892D01*
X0122304Y0192657D01*
X0122244Y0192423D01*
X0122177Y0192191D01*
X0122106Y0191960D01*
X0122028Y0191731D01*
X0121945Y0191504D01*
X0121857Y0191279D01*
X0121763Y0191056D01*
X0121664Y0190836D01*
X0121559Y0190618D01*
X0121450Y0190403D01*
X0121335Y0190190D01*
X0121215Y0189980D01*
X0121090Y0189774D01*
X0120960Y0189570D01*
X0120825Y0189369D01*
X0120685Y0189172D01*
X0120541Y0188978D01*
X0120392Y0188788D01*
X0120238Y0188602D01*
X0120080Y0188419D01*
X0119918Y0188240D01*
X0119751Y0188065D01*
X0119580Y0187894D01*
X0119405Y0187727D01*
X0119226Y0187565D01*
X0119043Y0187407D01*
X0118857Y0187253D01*
X0118667Y0187104D01*
X0118473Y0186960D01*
X0118276Y0186820D01*
X0118075Y0186685D01*
X0117871Y0186555D01*
X0117665Y0186430D01*
X0117455Y0186310D01*
X0117242Y0186195D01*
X0117027Y0186086D01*
X0116809Y0185981D01*
X0116589Y0185882D01*
X0116366Y0185788D01*
X0116141Y0185700D01*
X0115914Y0185617D01*
X0115685Y0185539D01*
X0115454Y0185468D01*
X0115222Y0185401D01*
X0114988Y0185341D01*
X0114753Y0185286D01*
X0114516Y0185236D01*
X0114279Y0185193D01*
X0114040Y0185155D01*
X0113800Y0185123D01*
X0113560Y0185097D01*
X0113319Y0185076D01*
X0113078Y0185062D01*
X0112837Y0185053D01*
X0112595Y0185050D01*
X0100095Y0185050D01*
X0099997Y0185048D01*
X0099899Y0185042D01*
X0099801Y0185033D01*
X0099704Y0185019D01*
X0099607Y0185002D01*
X0099511Y0184981D01*
X0099416Y0184956D01*
X0099322Y0184928D01*
X0099230Y0184895D01*
X0099138Y0184860D01*
X0099048Y0184820D01*
X0098960Y0184778D01*
X0098873Y0184731D01*
X0098789Y0184682D01*
X0098706Y0184629D01*
X0098626Y0184573D01*
X0098547Y0184513D01*
X0098471Y0184451D01*
X0098398Y0184386D01*
X0098327Y0184318D01*
X0098259Y0184247D01*
X0098194Y0184174D01*
X0098132Y0184098D01*
X0098072Y0184019D01*
X0098016Y0183939D01*
X0097963Y0183856D01*
X0097914Y0183772D01*
X0097867Y0183685D01*
X0097825Y0183597D01*
X0097785Y0183507D01*
X0097750Y0183415D01*
X0097717Y0183323D01*
X0097689Y0183229D01*
X0097664Y0183134D01*
X0097643Y0183038D01*
X0097626Y0182941D01*
X0097612Y0182844D01*
X0097603Y0182746D01*
X0097597Y0182648D01*
X0097595Y0182550D01*
X0097597Y0182452D01*
X0097603Y0182354D01*
X0097612Y0182256D01*
X0097626Y0182159D01*
X0097643Y0182062D01*
X0097664Y0181966D01*
X0097689Y0181871D01*
X0097717Y0181777D01*
X0097750Y0181685D01*
X0097785Y0181593D01*
X0097825Y0181503D01*
X0097867Y0181415D01*
X0097914Y0181328D01*
X0097963Y0181244D01*
X0098016Y0181161D01*
X0098072Y0181081D01*
X0098132Y0181002D01*
X0098194Y0180926D01*
X0098259Y0180853D01*
X0098327Y0180782D01*
X0098398Y0180714D01*
X0098471Y0180649D01*
X0098547Y0180587D01*
X0098626Y0180527D01*
X0098706Y0180471D01*
X0098789Y0180418D01*
X0098873Y0180369D01*
X0098960Y0180322D01*
X0099048Y0180280D01*
X0099138Y0180240D01*
X0099230Y0180205D01*
X0099322Y0180172D01*
X0099416Y0180144D01*
X0099511Y0180119D01*
X0099607Y0180098D01*
X0099704Y0180081D01*
X0099801Y0180067D01*
X0099899Y0180058D01*
X0099997Y0180052D01*
X0100095Y0180050D01*
X0112595Y0180050D01*
X0112837Y0180047D01*
X0113078Y0180038D01*
X0113319Y0180024D01*
X0113560Y0180003D01*
X0113800Y0179977D01*
X0114040Y0179945D01*
X0114279Y0179907D01*
X0114516Y0179864D01*
X0114753Y0179814D01*
X0114988Y0179759D01*
X0115222Y0179699D01*
X0115454Y0179632D01*
X0115685Y0179561D01*
X0115914Y0179483D01*
X0116141Y0179400D01*
X0116366Y0179312D01*
X0116589Y0179218D01*
X0116809Y0179119D01*
X0117027Y0179014D01*
X0117242Y0178905D01*
X0117455Y0178790D01*
X0117665Y0178670D01*
X0117871Y0178545D01*
X0118075Y0178415D01*
X0118276Y0178280D01*
X0118473Y0178140D01*
X0118667Y0177996D01*
X0118857Y0177847D01*
X0119043Y0177693D01*
X0119226Y0177535D01*
X0119405Y0177373D01*
X0119580Y0177206D01*
X0119751Y0177035D01*
X0119918Y0176860D01*
X0120080Y0176681D01*
X0120238Y0176498D01*
X0120392Y0176312D01*
X0120541Y0176122D01*
X0120685Y0175928D01*
X0120825Y0175731D01*
X0120960Y0175530D01*
X0121090Y0175326D01*
X0121215Y0175120D01*
X0121335Y0174910D01*
X0121450Y0174697D01*
X0121559Y0174482D01*
X0121664Y0174264D01*
X0121763Y0174044D01*
X0121857Y0173821D01*
X0121945Y0173596D01*
X0122028Y0173369D01*
X0122106Y0173140D01*
X0122177Y0172909D01*
X0122244Y0172677D01*
X0122304Y0172443D01*
X0122359Y0172208D01*
X0122409Y0171971D01*
X0122452Y0171734D01*
X0122490Y0171495D01*
X0122522Y0171255D01*
X0122548Y0171015D01*
X0122569Y0170774D01*
X0122583Y0170533D01*
X0122592Y0170292D01*
X0122595Y0170050D01*
X0122595Y0038800D01*
X0122592Y0038558D01*
X0122583Y0038317D01*
X0122569Y0038076D01*
X0122548Y0037835D01*
X0122522Y0037595D01*
X0122490Y0037355D01*
X0122452Y0037116D01*
X0122409Y0036879D01*
X0122359Y0036642D01*
X0122304Y0036407D01*
X0122244Y0036173D01*
X0122177Y0035941D01*
X0122106Y0035710D01*
X0122028Y0035481D01*
X0121945Y0035254D01*
X0121857Y0035029D01*
X0121763Y0034806D01*
X0121664Y0034586D01*
X0121559Y0034368D01*
X0121450Y0034153D01*
X0121335Y0033940D01*
X0121215Y0033730D01*
X0121090Y0033524D01*
X0120960Y0033320D01*
X0120825Y0033119D01*
X0120685Y0032922D01*
X0120541Y0032728D01*
X0120392Y0032538D01*
X0120238Y0032352D01*
X0120080Y0032169D01*
X0119918Y0031990D01*
X0119751Y0031815D01*
X0119580Y0031644D01*
X0119405Y0031477D01*
X0119226Y0031315D01*
X0119043Y0031157D01*
X0118857Y0031003D01*
X0118667Y0030854D01*
X0118473Y0030710D01*
X0118276Y0030570D01*
X0118075Y0030435D01*
X0117871Y0030305D01*
X0117665Y0030180D01*
X0117455Y0030060D01*
X0117242Y0029945D01*
X0117027Y0029836D01*
X0116809Y0029731D01*
X0116589Y0029632D01*
X0116366Y0029538D01*
X0116141Y0029450D01*
X0115914Y0029367D01*
X0115685Y0029289D01*
X0115454Y0029218D01*
X0115222Y0029151D01*
X0114988Y0029091D01*
X0114753Y0029036D01*
X0114516Y0028986D01*
X0114279Y0028943D01*
X0114040Y0028905D01*
X0113800Y0028873D01*
X0113560Y0028847D01*
X0113319Y0028826D01*
X0113078Y0028812D01*
X0112837Y0028803D01*
X0112595Y0028800D01*
X0038845Y0028800D01*
X0038603Y0028803D01*
X0038362Y0028812D01*
X0038121Y0028826D01*
X0037880Y0028847D01*
X0037640Y0028873D01*
X0037400Y0028905D01*
X0037161Y0028943D01*
X0036924Y0028986D01*
X0036687Y0029036D01*
X0036452Y0029091D01*
X0036218Y0029151D01*
X0035986Y0029218D01*
X0035755Y0029289D01*
X0035526Y0029367D01*
X0035299Y0029450D01*
X0035074Y0029538D01*
X0034851Y0029632D01*
X0034631Y0029731D01*
X0034413Y0029836D01*
X0034198Y0029945D01*
X0033985Y0030060D01*
X0033775Y0030180D01*
X0033569Y0030305D01*
X0033365Y0030435D01*
X0033164Y0030570D01*
X0032967Y0030710D01*
X0032773Y0030854D01*
X0032583Y0031003D01*
X0032397Y0031157D01*
X0032214Y0031315D01*
X0032035Y0031477D01*
X0031860Y0031644D01*
X0031689Y0031815D01*
X0031522Y0031990D01*
X0031360Y0032169D01*
X0031202Y0032352D01*
X0031048Y0032538D01*
X0030899Y0032728D01*
X0030755Y0032922D01*
X0030615Y0033119D01*
X0030480Y0033320D01*
X0030350Y0033524D01*
X0030225Y0033730D01*
X0030105Y0033940D01*
X0029990Y0034153D01*
X0029881Y0034368D01*
X0029776Y0034586D01*
X0029677Y0034806D01*
X0029583Y0035029D01*
X0029495Y0035254D01*
X0029412Y0035481D01*
X0029334Y0035710D01*
X0029263Y0035941D01*
X0029196Y0036173D01*
X0029136Y0036407D01*
X0029081Y0036642D01*
X0029031Y0036879D01*
X0028988Y0037116D01*
X0028950Y0037355D01*
X0028918Y0037595D01*
X0028892Y0037835D01*
X0028871Y0038076D01*
X0028857Y0038317D01*
X0028848Y0038558D01*
X0028845Y0038800D01*
X0032546Y0038800D02*
X0032548Y0038958D01*
X0032554Y0039116D01*
X0032564Y0039274D01*
X0032578Y0039432D01*
X0032596Y0039589D01*
X0032617Y0039746D01*
X0032643Y0039902D01*
X0032673Y0040058D01*
X0032706Y0040213D01*
X0032744Y0040366D01*
X0032785Y0040519D01*
X0032830Y0040671D01*
X0032879Y0040822D01*
X0032932Y0040971D01*
X0032988Y0041119D01*
X0033048Y0041265D01*
X0033112Y0041410D01*
X0033180Y0041553D01*
X0033251Y0041695D01*
X0033325Y0041835D01*
X0033403Y0041972D01*
X0033485Y0042108D01*
X0033569Y0042242D01*
X0033658Y0042373D01*
X0033749Y0042502D01*
X0033844Y0042629D01*
X0033941Y0042754D01*
X0034042Y0042876D01*
X0034146Y0042995D01*
X0034253Y0043112D01*
X0034363Y0043226D01*
X0034476Y0043337D01*
X0034591Y0043446D01*
X0034709Y0043551D01*
X0034830Y0043653D01*
X0034953Y0043753D01*
X0035079Y0043849D01*
X0035207Y0043942D01*
X0035337Y0044032D01*
X0035470Y0044118D01*
X0035605Y0044202D01*
X0035741Y0044281D01*
X0035880Y0044358D01*
X0036021Y0044430D01*
X0036163Y0044500D01*
X0036307Y0044565D01*
X0036453Y0044627D01*
X0036600Y0044685D01*
X0036749Y0044740D01*
X0036899Y0044791D01*
X0037050Y0044838D01*
X0037202Y0044881D01*
X0037355Y0044920D01*
X0037510Y0044956D01*
X0037665Y0044987D01*
X0037821Y0045015D01*
X0037977Y0045039D01*
X0038134Y0045059D01*
X0038292Y0045075D01*
X0038449Y0045087D01*
X0038608Y0045095D01*
X0038766Y0045099D01*
X0038924Y0045099D01*
X0039082Y0045095D01*
X0039241Y0045087D01*
X0039398Y0045075D01*
X0039556Y0045059D01*
X0039713Y0045039D01*
X0039869Y0045015D01*
X0040025Y0044987D01*
X0040180Y0044956D01*
X0040335Y0044920D01*
X0040488Y0044881D01*
X0040640Y0044838D01*
X0040791Y0044791D01*
X0040941Y0044740D01*
X0041090Y0044685D01*
X0041237Y0044627D01*
X0041383Y0044565D01*
X0041527Y0044500D01*
X0041669Y0044430D01*
X0041810Y0044358D01*
X0041949Y0044281D01*
X0042085Y0044202D01*
X0042220Y0044118D01*
X0042353Y0044032D01*
X0042483Y0043942D01*
X0042611Y0043849D01*
X0042737Y0043753D01*
X0042860Y0043653D01*
X0042981Y0043551D01*
X0043099Y0043446D01*
X0043214Y0043337D01*
X0043327Y0043226D01*
X0043437Y0043112D01*
X0043544Y0042995D01*
X0043648Y0042876D01*
X0043749Y0042754D01*
X0043846Y0042629D01*
X0043941Y0042502D01*
X0044032Y0042373D01*
X0044121Y0042242D01*
X0044205Y0042108D01*
X0044287Y0041972D01*
X0044365Y0041835D01*
X0044439Y0041695D01*
X0044510Y0041553D01*
X0044578Y0041410D01*
X0044642Y0041265D01*
X0044702Y0041119D01*
X0044758Y0040971D01*
X0044811Y0040822D01*
X0044860Y0040671D01*
X0044905Y0040519D01*
X0044946Y0040366D01*
X0044984Y0040213D01*
X0045017Y0040058D01*
X0045047Y0039902D01*
X0045073Y0039746D01*
X0045094Y0039589D01*
X0045112Y0039432D01*
X0045126Y0039274D01*
X0045136Y0039116D01*
X0045142Y0038958D01*
X0045144Y0038800D01*
X0045142Y0038642D01*
X0045136Y0038484D01*
X0045126Y0038326D01*
X0045112Y0038168D01*
X0045094Y0038011D01*
X0045073Y0037854D01*
X0045047Y0037698D01*
X0045017Y0037542D01*
X0044984Y0037387D01*
X0044946Y0037234D01*
X0044905Y0037081D01*
X0044860Y0036929D01*
X0044811Y0036778D01*
X0044758Y0036629D01*
X0044702Y0036481D01*
X0044642Y0036335D01*
X0044578Y0036190D01*
X0044510Y0036047D01*
X0044439Y0035905D01*
X0044365Y0035765D01*
X0044287Y0035628D01*
X0044205Y0035492D01*
X0044121Y0035358D01*
X0044032Y0035227D01*
X0043941Y0035098D01*
X0043846Y0034971D01*
X0043749Y0034846D01*
X0043648Y0034724D01*
X0043544Y0034605D01*
X0043437Y0034488D01*
X0043327Y0034374D01*
X0043214Y0034263D01*
X0043099Y0034154D01*
X0042981Y0034049D01*
X0042860Y0033947D01*
X0042737Y0033847D01*
X0042611Y0033751D01*
X0042483Y0033658D01*
X0042353Y0033568D01*
X0042220Y0033482D01*
X0042085Y0033398D01*
X0041949Y0033319D01*
X0041810Y0033242D01*
X0041669Y0033170D01*
X0041527Y0033100D01*
X0041383Y0033035D01*
X0041237Y0032973D01*
X0041090Y0032915D01*
X0040941Y0032860D01*
X0040791Y0032809D01*
X0040640Y0032762D01*
X0040488Y0032719D01*
X0040335Y0032680D01*
X0040180Y0032644D01*
X0040025Y0032613D01*
X0039869Y0032585D01*
X0039713Y0032561D01*
X0039556Y0032541D01*
X0039398Y0032525D01*
X0039241Y0032513D01*
X0039082Y0032505D01*
X0038924Y0032501D01*
X0038766Y0032501D01*
X0038608Y0032505D01*
X0038449Y0032513D01*
X0038292Y0032525D01*
X0038134Y0032541D01*
X0037977Y0032561D01*
X0037821Y0032585D01*
X0037665Y0032613D01*
X0037510Y0032644D01*
X0037355Y0032680D01*
X0037202Y0032719D01*
X0037050Y0032762D01*
X0036899Y0032809D01*
X0036749Y0032860D01*
X0036600Y0032915D01*
X0036453Y0032973D01*
X0036307Y0033035D01*
X0036163Y0033100D01*
X0036021Y0033170D01*
X0035880Y0033242D01*
X0035741Y0033319D01*
X0035605Y0033398D01*
X0035470Y0033482D01*
X0035337Y0033568D01*
X0035207Y0033658D01*
X0035079Y0033751D01*
X0034953Y0033847D01*
X0034830Y0033947D01*
X0034709Y0034049D01*
X0034591Y0034154D01*
X0034476Y0034263D01*
X0034363Y0034374D01*
X0034253Y0034488D01*
X0034146Y0034605D01*
X0034042Y0034724D01*
X0033941Y0034846D01*
X0033844Y0034971D01*
X0033749Y0035098D01*
X0033658Y0035227D01*
X0033569Y0035358D01*
X0033485Y0035492D01*
X0033403Y0035628D01*
X0033325Y0035765D01*
X0033251Y0035905D01*
X0033180Y0036047D01*
X0033112Y0036190D01*
X0033048Y0036335D01*
X0032988Y0036481D01*
X0032932Y0036629D01*
X0032879Y0036778D01*
X0032830Y0036929D01*
X0032785Y0037081D01*
X0032744Y0037234D01*
X0032706Y0037387D01*
X0032673Y0037542D01*
X0032643Y0037698D01*
X0032617Y0037854D01*
X0032596Y0038011D01*
X0032578Y0038168D01*
X0032564Y0038326D01*
X0032554Y0038484D01*
X0032548Y0038642D01*
X0032546Y0038800D01*
X0093796Y0163800D02*
X0093798Y0163958D01*
X0093804Y0164116D01*
X0093814Y0164274D01*
X0093828Y0164432D01*
X0093846Y0164589D01*
X0093867Y0164746D01*
X0093893Y0164902D01*
X0093923Y0165058D01*
X0093956Y0165213D01*
X0093994Y0165366D01*
X0094035Y0165519D01*
X0094080Y0165671D01*
X0094129Y0165822D01*
X0094182Y0165971D01*
X0094238Y0166119D01*
X0094298Y0166265D01*
X0094362Y0166410D01*
X0094430Y0166553D01*
X0094501Y0166695D01*
X0094575Y0166835D01*
X0094653Y0166972D01*
X0094735Y0167108D01*
X0094819Y0167242D01*
X0094908Y0167373D01*
X0094999Y0167502D01*
X0095094Y0167629D01*
X0095191Y0167754D01*
X0095292Y0167876D01*
X0095396Y0167995D01*
X0095503Y0168112D01*
X0095613Y0168226D01*
X0095726Y0168337D01*
X0095841Y0168446D01*
X0095959Y0168551D01*
X0096080Y0168653D01*
X0096203Y0168753D01*
X0096329Y0168849D01*
X0096457Y0168942D01*
X0096587Y0169032D01*
X0096720Y0169118D01*
X0096855Y0169202D01*
X0096991Y0169281D01*
X0097130Y0169358D01*
X0097271Y0169430D01*
X0097413Y0169500D01*
X0097557Y0169565D01*
X0097703Y0169627D01*
X0097850Y0169685D01*
X0097999Y0169740D01*
X0098149Y0169791D01*
X0098300Y0169838D01*
X0098452Y0169881D01*
X0098605Y0169920D01*
X0098760Y0169956D01*
X0098915Y0169987D01*
X0099071Y0170015D01*
X0099227Y0170039D01*
X0099384Y0170059D01*
X0099542Y0170075D01*
X0099699Y0170087D01*
X0099858Y0170095D01*
X0100016Y0170099D01*
X0100174Y0170099D01*
X0100332Y0170095D01*
X0100491Y0170087D01*
X0100648Y0170075D01*
X0100806Y0170059D01*
X0100963Y0170039D01*
X0101119Y0170015D01*
X0101275Y0169987D01*
X0101430Y0169956D01*
X0101585Y0169920D01*
X0101738Y0169881D01*
X0101890Y0169838D01*
X0102041Y0169791D01*
X0102191Y0169740D01*
X0102340Y0169685D01*
X0102487Y0169627D01*
X0102633Y0169565D01*
X0102777Y0169500D01*
X0102919Y0169430D01*
X0103060Y0169358D01*
X0103199Y0169281D01*
X0103335Y0169202D01*
X0103470Y0169118D01*
X0103603Y0169032D01*
X0103733Y0168942D01*
X0103861Y0168849D01*
X0103987Y0168753D01*
X0104110Y0168653D01*
X0104231Y0168551D01*
X0104349Y0168446D01*
X0104464Y0168337D01*
X0104577Y0168226D01*
X0104687Y0168112D01*
X0104794Y0167995D01*
X0104898Y0167876D01*
X0104999Y0167754D01*
X0105096Y0167629D01*
X0105191Y0167502D01*
X0105282Y0167373D01*
X0105371Y0167242D01*
X0105455Y0167108D01*
X0105537Y0166972D01*
X0105615Y0166835D01*
X0105689Y0166695D01*
X0105760Y0166553D01*
X0105828Y0166410D01*
X0105892Y0166265D01*
X0105952Y0166119D01*
X0106008Y0165971D01*
X0106061Y0165822D01*
X0106110Y0165671D01*
X0106155Y0165519D01*
X0106196Y0165366D01*
X0106234Y0165213D01*
X0106267Y0165058D01*
X0106297Y0164902D01*
X0106323Y0164746D01*
X0106344Y0164589D01*
X0106362Y0164432D01*
X0106376Y0164274D01*
X0106386Y0164116D01*
X0106392Y0163958D01*
X0106394Y0163800D01*
X0106392Y0163642D01*
X0106386Y0163484D01*
X0106376Y0163326D01*
X0106362Y0163168D01*
X0106344Y0163011D01*
X0106323Y0162854D01*
X0106297Y0162698D01*
X0106267Y0162542D01*
X0106234Y0162387D01*
X0106196Y0162234D01*
X0106155Y0162081D01*
X0106110Y0161929D01*
X0106061Y0161778D01*
X0106008Y0161629D01*
X0105952Y0161481D01*
X0105892Y0161335D01*
X0105828Y0161190D01*
X0105760Y0161047D01*
X0105689Y0160905D01*
X0105615Y0160765D01*
X0105537Y0160628D01*
X0105455Y0160492D01*
X0105371Y0160358D01*
X0105282Y0160227D01*
X0105191Y0160098D01*
X0105096Y0159971D01*
X0104999Y0159846D01*
X0104898Y0159724D01*
X0104794Y0159605D01*
X0104687Y0159488D01*
X0104577Y0159374D01*
X0104464Y0159263D01*
X0104349Y0159154D01*
X0104231Y0159049D01*
X0104110Y0158947D01*
X0103987Y0158847D01*
X0103861Y0158751D01*
X0103733Y0158658D01*
X0103603Y0158568D01*
X0103470Y0158482D01*
X0103335Y0158398D01*
X0103199Y0158319D01*
X0103060Y0158242D01*
X0102919Y0158170D01*
X0102777Y0158100D01*
X0102633Y0158035D01*
X0102487Y0157973D01*
X0102340Y0157915D01*
X0102191Y0157860D01*
X0102041Y0157809D01*
X0101890Y0157762D01*
X0101738Y0157719D01*
X0101585Y0157680D01*
X0101430Y0157644D01*
X0101275Y0157613D01*
X0101119Y0157585D01*
X0100963Y0157561D01*
X0100806Y0157541D01*
X0100648Y0157525D01*
X0100491Y0157513D01*
X0100332Y0157505D01*
X0100174Y0157501D01*
X0100016Y0157501D01*
X0099858Y0157505D01*
X0099699Y0157513D01*
X0099542Y0157525D01*
X0099384Y0157541D01*
X0099227Y0157561D01*
X0099071Y0157585D01*
X0098915Y0157613D01*
X0098760Y0157644D01*
X0098605Y0157680D01*
X0098452Y0157719D01*
X0098300Y0157762D01*
X0098149Y0157809D01*
X0097999Y0157860D01*
X0097850Y0157915D01*
X0097703Y0157973D01*
X0097557Y0158035D01*
X0097413Y0158100D01*
X0097271Y0158170D01*
X0097130Y0158242D01*
X0096991Y0158319D01*
X0096855Y0158398D01*
X0096720Y0158482D01*
X0096587Y0158568D01*
X0096457Y0158658D01*
X0096329Y0158751D01*
X0096203Y0158847D01*
X0096080Y0158947D01*
X0095959Y0159049D01*
X0095841Y0159154D01*
X0095726Y0159263D01*
X0095613Y0159374D01*
X0095503Y0159488D01*
X0095396Y0159605D01*
X0095292Y0159724D01*
X0095191Y0159846D01*
X0095094Y0159971D01*
X0094999Y0160098D01*
X0094908Y0160227D01*
X0094819Y0160358D01*
X0094735Y0160492D01*
X0094653Y0160628D01*
X0094575Y0160765D01*
X0094501Y0160905D01*
X0094430Y0161047D01*
X0094362Y0161190D01*
X0094298Y0161335D01*
X0094238Y0161481D01*
X0094182Y0161629D01*
X0094129Y0161778D01*
X0094080Y0161929D01*
X0094035Y0162081D01*
X0093994Y0162234D01*
X0093956Y0162387D01*
X0093923Y0162542D01*
X0093893Y0162698D01*
X0093867Y0162854D01*
X0093846Y0163011D01*
X0093828Y0163168D01*
X0093814Y0163326D01*
X0093804Y0163484D01*
X0093798Y0163642D01*
X0093796Y0163800D01*
X0085095Y0180050D02*
X0066345Y0180050D01*
X0066247Y0180052D01*
X0066149Y0180058D01*
X0066051Y0180067D01*
X0065954Y0180081D01*
X0065857Y0180098D01*
X0065761Y0180119D01*
X0065666Y0180144D01*
X0065572Y0180172D01*
X0065480Y0180205D01*
X0065388Y0180240D01*
X0065298Y0180280D01*
X0065210Y0180322D01*
X0065123Y0180369D01*
X0065039Y0180418D01*
X0064956Y0180471D01*
X0064876Y0180527D01*
X0064797Y0180587D01*
X0064721Y0180649D01*
X0064648Y0180714D01*
X0064577Y0180782D01*
X0064509Y0180853D01*
X0064444Y0180926D01*
X0064382Y0181002D01*
X0064322Y0181081D01*
X0064266Y0181161D01*
X0064213Y0181244D01*
X0064164Y0181328D01*
X0064117Y0181415D01*
X0064075Y0181503D01*
X0064035Y0181593D01*
X0064000Y0181685D01*
X0063967Y0181777D01*
X0063939Y0181871D01*
X0063914Y0181966D01*
X0063893Y0182062D01*
X0063876Y0182159D01*
X0063862Y0182256D01*
X0063853Y0182354D01*
X0063847Y0182452D01*
X0063845Y0182550D01*
X0063847Y0182648D01*
X0063853Y0182746D01*
X0063862Y0182844D01*
X0063876Y0182941D01*
X0063893Y0183038D01*
X0063914Y0183134D01*
X0063939Y0183229D01*
X0063967Y0183323D01*
X0064000Y0183415D01*
X0064035Y0183507D01*
X0064075Y0183597D01*
X0064117Y0183685D01*
X0064164Y0183772D01*
X0064213Y0183856D01*
X0064266Y0183939D01*
X0064322Y0184019D01*
X0064382Y0184098D01*
X0064444Y0184174D01*
X0064509Y0184247D01*
X0064577Y0184318D01*
X0064648Y0184386D01*
X0064721Y0184451D01*
X0064797Y0184513D01*
X0064876Y0184573D01*
X0064956Y0184629D01*
X0065039Y0184682D01*
X0065123Y0184731D01*
X0065210Y0184778D01*
X0065298Y0184820D01*
X0065388Y0184860D01*
X0065480Y0184895D01*
X0065572Y0184928D01*
X0065666Y0184956D01*
X0065761Y0184981D01*
X0065857Y0185002D01*
X0065954Y0185019D01*
X0066051Y0185033D01*
X0066149Y0185042D01*
X0066247Y0185048D01*
X0066345Y0185050D01*
X0085095Y0185050D01*
X0085193Y0185048D01*
X0085291Y0185042D01*
X0085389Y0185033D01*
X0085486Y0185019D01*
X0085583Y0185002D01*
X0085679Y0184981D01*
X0085774Y0184956D01*
X0085868Y0184928D01*
X0085960Y0184895D01*
X0086052Y0184860D01*
X0086142Y0184820D01*
X0086230Y0184778D01*
X0086317Y0184731D01*
X0086401Y0184682D01*
X0086484Y0184629D01*
X0086564Y0184573D01*
X0086643Y0184513D01*
X0086719Y0184451D01*
X0086792Y0184386D01*
X0086863Y0184318D01*
X0086931Y0184247D01*
X0086996Y0184174D01*
X0087058Y0184098D01*
X0087118Y0184019D01*
X0087174Y0183939D01*
X0087227Y0183856D01*
X0087276Y0183772D01*
X0087323Y0183685D01*
X0087365Y0183597D01*
X0087405Y0183507D01*
X0087440Y0183415D01*
X0087473Y0183323D01*
X0087501Y0183229D01*
X0087526Y0183134D01*
X0087547Y0183038D01*
X0087564Y0182941D01*
X0087578Y0182844D01*
X0087587Y0182746D01*
X0087593Y0182648D01*
X0087595Y0182550D01*
X0087593Y0182452D01*
X0087587Y0182354D01*
X0087578Y0182256D01*
X0087564Y0182159D01*
X0087547Y0182062D01*
X0087526Y0181966D01*
X0087501Y0181871D01*
X0087473Y0181777D01*
X0087440Y0181685D01*
X0087405Y0181593D01*
X0087365Y0181503D01*
X0087323Y0181415D01*
X0087276Y0181328D01*
X0087227Y0181244D01*
X0087174Y0181161D01*
X0087118Y0181081D01*
X0087058Y0181002D01*
X0086996Y0180926D01*
X0086931Y0180853D01*
X0086863Y0180782D01*
X0086792Y0180714D01*
X0086719Y0180649D01*
X0086643Y0180587D01*
X0086564Y0180527D01*
X0086484Y0180471D01*
X0086401Y0180418D01*
X0086317Y0180369D01*
X0086230Y0180322D01*
X0086142Y0180280D01*
X0086052Y0180240D01*
X0085960Y0180205D01*
X0085868Y0180172D01*
X0085774Y0180144D01*
X0085679Y0180119D01*
X0085583Y0180098D01*
X0085486Y0180081D01*
X0085389Y0180067D01*
X0085291Y0180058D01*
X0085193Y0180052D01*
X0085095Y0180050D01*
X0106296Y0195050D02*
X0106298Y0195208D01*
X0106304Y0195366D01*
X0106314Y0195524D01*
X0106328Y0195682D01*
X0106346Y0195839D01*
X0106367Y0195996D01*
X0106393Y0196152D01*
X0106423Y0196308D01*
X0106456Y0196463D01*
X0106494Y0196616D01*
X0106535Y0196769D01*
X0106580Y0196921D01*
X0106629Y0197072D01*
X0106682Y0197221D01*
X0106738Y0197369D01*
X0106798Y0197515D01*
X0106862Y0197660D01*
X0106930Y0197803D01*
X0107001Y0197945D01*
X0107075Y0198085D01*
X0107153Y0198222D01*
X0107235Y0198358D01*
X0107319Y0198492D01*
X0107408Y0198623D01*
X0107499Y0198752D01*
X0107594Y0198879D01*
X0107691Y0199004D01*
X0107792Y0199126D01*
X0107896Y0199245D01*
X0108003Y0199362D01*
X0108113Y0199476D01*
X0108226Y0199587D01*
X0108341Y0199696D01*
X0108459Y0199801D01*
X0108580Y0199903D01*
X0108703Y0200003D01*
X0108829Y0200099D01*
X0108957Y0200192D01*
X0109087Y0200282D01*
X0109220Y0200368D01*
X0109355Y0200452D01*
X0109491Y0200531D01*
X0109630Y0200608D01*
X0109771Y0200680D01*
X0109913Y0200750D01*
X0110057Y0200815D01*
X0110203Y0200877D01*
X0110350Y0200935D01*
X0110499Y0200990D01*
X0110649Y0201041D01*
X0110800Y0201088D01*
X0110952Y0201131D01*
X0111105Y0201170D01*
X0111260Y0201206D01*
X0111415Y0201237D01*
X0111571Y0201265D01*
X0111727Y0201289D01*
X0111884Y0201309D01*
X0112042Y0201325D01*
X0112199Y0201337D01*
X0112358Y0201345D01*
X0112516Y0201349D01*
X0112674Y0201349D01*
X0112832Y0201345D01*
X0112991Y0201337D01*
X0113148Y0201325D01*
X0113306Y0201309D01*
X0113463Y0201289D01*
X0113619Y0201265D01*
X0113775Y0201237D01*
X0113930Y0201206D01*
X0114085Y0201170D01*
X0114238Y0201131D01*
X0114390Y0201088D01*
X0114541Y0201041D01*
X0114691Y0200990D01*
X0114840Y0200935D01*
X0114987Y0200877D01*
X0115133Y0200815D01*
X0115277Y0200750D01*
X0115419Y0200680D01*
X0115560Y0200608D01*
X0115699Y0200531D01*
X0115835Y0200452D01*
X0115970Y0200368D01*
X0116103Y0200282D01*
X0116233Y0200192D01*
X0116361Y0200099D01*
X0116487Y0200003D01*
X0116610Y0199903D01*
X0116731Y0199801D01*
X0116849Y0199696D01*
X0116964Y0199587D01*
X0117077Y0199476D01*
X0117187Y0199362D01*
X0117294Y0199245D01*
X0117398Y0199126D01*
X0117499Y0199004D01*
X0117596Y0198879D01*
X0117691Y0198752D01*
X0117782Y0198623D01*
X0117871Y0198492D01*
X0117955Y0198358D01*
X0118037Y0198222D01*
X0118115Y0198085D01*
X0118189Y0197945D01*
X0118260Y0197803D01*
X0118328Y0197660D01*
X0118392Y0197515D01*
X0118452Y0197369D01*
X0118508Y0197221D01*
X0118561Y0197072D01*
X0118610Y0196921D01*
X0118655Y0196769D01*
X0118696Y0196616D01*
X0118734Y0196463D01*
X0118767Y0196308D01*
X0118797Y0196152D01*
X0118823Y0195996D01*
X0118844Y0195839D01*
X0118862Y0195682D01*
X0118876Y0195524D01*
X0118886Y0195366D01*
X0118892Y0195208D01*
X0118894Y0195050D01*
X0118892Y0194892D01*
X0118886Y0194734D01*
X0118876Y0194576D01*
X0118862Y0194418D01*
X0118844Y0194261D01*
X0118823Y0194104D01*
X0118797Y0193948D01*
X0118767Y0193792D01*
X0118734Y0193637D01*
X0118696Y0193484D01*
X0118655Y0193331D01*
X0118610Y0193179D01*
X0118561Y0193028D01*
X0118508Y0192879D01*
X0118452Y0192731D01*
X0118392Y0192585D01*
X0118328Y0192440D01*
X0118260Y0192297D01*
X0118189Y0192155D01*
X0118115Y0192015D01*
X0118037Y0191878D01*
X0117955Y0191742D01*
X0117871Y0191608D01*
X0117782Y0191477D01*
X0117691Y0191348D01*
X0117596Y0191221D01*
X0117499Y0191096D01*
X0117398Y0190974D01*
X0117294Y0190855D01*
X0117187Y0190738D01*
X0117077Y0190624D01*
X0116964Y0190513D01*
X0116849Y0190404D01*
X0116731Y0190299D01*
X0116610Y0190197D01*
X0116487Y0190097D01*
X0116361Y0190001D01*
X0116233Y0189908D01*
X0116103Y0189818D01*
X0115970Y0189732D01*
X0115835Y0189648D01*
X0115699Y0189569D01*
X0115560Y0189492D01*
X0115419Y0189420D01*
X0115277Y0189350D01*
X0115133Y0189285D01*
X0114987Y0189223D01*
X0114840Y0189165D01*
X0114691Y0189110D01*
X0114541Y0189059D01*
X0114390Y0189012D01*
X0114238Y0188969D01*
X0114085Y0188930D01*
X0113930Y0188894D01*
X0113775Y0188863D01*
X0113619Y0188835D01*
X0113463Y0188811D01*
X0113306Y0188791D01*
X0113148Y0188775D01*
X0112991Y0188763D01*
X0112832Y0188755D01*
X0112674Y0188751D01*
X0112516Y0188751D01*
X0112358Y0188755D01*
X0112199Y0188763D01*
X0112042Y0188775D01*
X0111884Y0188791D01*
X0111727Y0188811D01*
X0111571Y0188835D01*
X0111415Y0188863D01*
X0111260Y0188894D01*
X0111105Y0188930D01*
X0110952Y0188969D01*
X0110800Y0189012D01*
X0110649Y0189059D01*
X0110499Y0189110D01*
X0110350Y0189165D01*
X0110203Y0189223D01*
X0110057Y0189285D01*
X0109913Y0189350D01*
X0109771Y0189420D01*
X0109630Y0189492D01*
X0109491Y0189569D01*
X0109355Y0189648D01*
X0109220Y0189732D01*
X0109087Y0189818D01*
X0108957Y0189908D01*
X0108829Y0190001D01*
X0108703Y0190097D01*
X0108580Y0190197D01*
X0108459Y0190299D01*
X0108341Y0190404D01*
X0108226Y0190513D01*
X0108113Y0190624D01*
X0108003Y0190738D01*
X0107896Y0190855D01*
X0107792Y0190974D01*
X0107691Y0191096D01*
X0107594Y0191221D01*
X0107499Y0191348D01*
X0107408Y0191477D01*
X0107319Y0191608D01*
X0107235Y0191742D01*
X0107153Y0191878D01*
X0107075Y0192015D01*
X0107001Y0192155D01*
X0106930Y0192297D01*
X0106862Y0192440D01*
X0106798Y0192585D01*
X0106738Y0192731D01*
X0106682Y0192879D01*
X0106629Y0193028D01*
X0106580Y0193179D01*
X0106535Y0193331D01*
X0106494Y0193484D01*
X0106456Y0193637D01*
X0106423Y0193792D01*
X0106393Y0193948D01*
X0106367Y0194104D01*
X0106346Y0194261D01*
X0106328Y0194418D01*
X0106314Y0194576D01*
X0106304Y0194734D01*
X0106298Y0194892D01*
X0106296Y0195050D01*
X0106195Y0220050D02*
X0106197Y0220210D01*
X0106203Y0220369D01*
X0106213Y0220528D01*
X0106227Y0220687D01*
X0106245Y0220846D01*
X0106266Y0221004D01*
X0106292Y0221161D01*
X0106322Y0221318D01*
X0106355Y0221474D01*
X0106393Y0221629D01*
X0106434Y0221783D01*
X0106479Y0221936D01*
X0106528Y0222088D01*
X0106581Y0222239D01*
X0106637Y0222388D01*
X0106698Y0222536D01*
X0106761Y0222682D01*
X0106829Y0222827D01*
X0106900Y0222970D01*
X0106974Y0223111D01*
X0107052Y0223250D01*
X0107134Y0223387D01*
X0107219Y0223522D01*
X0107307Y0223655D01*
X0107399Y0223786D01*
X0107493Y0223914D01*
X0107591Y0224040D01*
X0107692Y0224164D01*
X0107796Y0224285D01*
X0107903Y0224403D01*
X0108013Y0224519D01*
X0108126Y0224632D01*
X0108242Y0224742D01*
X0108360Y0224849D01*
X0108481Y0224953D01*
X0108605Y0225054D01*
X0108731Y0225152D01*
X0108859Y0225246D01*
X0108990Y0225338D01*
X0109123Y0225426D01*
X0109258Y0225511D01*
X0109395Y0225593D01*
X0109534Y0225671D01*
X0109675Y0225745D01*
X0109818Y0225816D01*
X0109963Y0225884D01*
X0110109Y0225947D01*
X0110257Y0226008D01*
X0110406Y0226064D01*
X0110557Y0226117D01*
X0110709Y0226166D01*
X0110862Y0226211D01*
X0111016Y0226252D01*
X0111171Y0226290D01*
X0111327Y0226323D01*
X0111484Y0226353D01*
X0111641Y0226379D01*
X0111799Y0226400D01*
X0111958Y0226418D01*
X0112117Y0226432D01*
X0112276Y0226442D01*
X0112435Y0226448D01*
X0112595Y0226450D01*
X0112755Y0226448D01*
X0112914Y0226442D01*
X0113073Y0226432D01*
X0113232Y0226418D01*
X0113391Y0226400D01*
X0113549Y0226379D01*
X0113706Y0226353D01*
X0113863Y0226323D01*
X0114019Y0226290D01*
X0114174Y0226252D01*
X0114328Y0226211D01*
X0114481Y0226166D01*
X0114633Y0226117D01*
X0114784Y0226064D01*
X0114933Y0226008D01*
X0115081Y0225947D01*
X0115227Y0225884D01*
X0115372Y0225816D01*
X0115515Y0225745D01*
X0115656Y0225671D01*
X0115795Y0225593D01*
X0115932Y0225511D01*
X0116067Y0225426D01*
X0116200Y0225338D01*
X0116331Y0225246D01*
X0116459Y0225152D01*
X0116585Y0225054D01*
X0116709Y0224953D01*
X0116830Y0224849D01*
X0116948Y0224742D01*
X0117064Y0224632D01*
X0117177Y0224519D01*
X0117287Y0224403D01*
X0117394Y0224285D01*
X0117498Y0224164D01*
X0117599Y0224040D01*
X0117697Y0223914D01*
X0117791Y0223786D01*
X0117883Y0223655D01*
X0117971Y0223522D01*
X0118056Y0223387D01*
X0118138Y0223250D01*
X0118216Y0223111D01*
X0118290Y0222970D01*
X0118361Y0222827D01*
X0118429Y0222682D01*
X0118492Y0222536D01*
X0118553Y0222388D01*
X0118609Y0222239D01*
X0118662Y0222088D01*
X0118711Y0221936D01*
X0118756Y0221783D01*
X0118797Y0221629D01*
X0118835Y0221474D01*
X0118868Y0221318D01*
X0118898Y0221161D01*
X0118924Y0221004D01*
X0118945Y0220846D01*
X0118963Y0220687D01*
X0118977Y0220528D01*
X0118987Y0220369D01*
X0118993Y0220210D01*
X0118995Y0220050D01*
X0118993Y0219890D01*
X0118987Y0219731D01*
X0118977Y0219572D01*
X0118963Y0219413D01*
X0118945Y0219254D01*
X0118924Y0219096D01*
X0118898Y0218939D01*
X0118868Y0218782D01*
X0118835Y0218626D01*
X0118797Y0218471D01*
X0118756Y0218317D01*
X0118711Y0218164D01*
X0118662Y0218012D01*
X0118609Y0217861D01*
X0118553Y0217712D01*
X0118492Y0217564D01*
X0118429Y0217418D01*
X0118361Y0217273D01*
X0118290Y0217130D01*
X0118216Y0216989D01*
X0118138Y0216850D01*
X0118056Y0216713D01*
X0117971Y0216578D01*
X0117883Y0216445D01*
X0117791Y0216314D01*
X0117697Y0216186D01*
X0117599Y0216060D01*
X0117498Y0215936D01*
X0117394Y0215815D01*
X0117287Y0215697D01*
X0117177Y0215581D01*
X0117064Y0215468D01*
X0116948Y0215358D01*
X0116830Y0215251D01*
X0116709Y0215147D01*
X0116585Y0215046D01*
X0116459Y0214948D01*
X0116331Y0214854D01*
X0116200Y0214762D01*
X0116067Y0214674D01*
X0115932Y0214589D01*
X0115795Y0214507D01*
X0115656Y0214429D01*
X0115515Y0214355D01*
X0115372Y0214284D01*
X0115227Y0214216D01*
X0115081Y0214153D01*
X0114933Y0214092D01*
X0114784Y0214036D01*
X0114633Y0213983D01*
X0114481Y0213934D01*
X0114328Y0213889D01*
X0114174Y0213848D01*
X0114019Y0213810D01*
X0113863Y0213777D01*
X0113706Y0213747D01*
X0113549Y0213721D01*
X0113391Y0213700D01*
X0113232Y0213682D01*
X0113073Y0213668D01*
X0112914Y0213658D01*
X0112755Y0213652D01*
X0112595Y0213650D01*
X0112435Y0213652D01*
X0112276Y0213658D01*
X0112117Y0213668D01*
X0111958Y0213682D01*
X0111799Y0213700D01*
X0111641Y0213721D01*
X0111484Y0213747D01*
X0111327Y0213777D01*
X0111171Y0213810D01*
X0111016Y0213848D01*
X0110862Y0213889D01*
X0110709Y0213934D01*
X0110557Y0213983D01*
X0110406Y0214036D01*
X0110257Y0214092D01*
X0110109Y0214153D01*
X0109963Y0214216D01*
X0109818Y0214284D01*
X0109675Y0214355D01*
X0109534Y0214429D01*
X0109395Y0214507D01*
X0109258Y0214589D01*
X0109123Y0214674D01*
X0108990Y0214762D01*
X0108859Y0214854D01*
X0108731Y0214948D01*
X0108605Y0215046D01*
X0108481Y0215147D01*
X0108360Y0215251D01*
X0108242Y0215358D01*
X0108126Y0215468D01*
X0108013Y0215581D01*
X0107903Y0215697D01*
X0107796Y0215815D01*
X0107692Y0215936D01*
X0107591Y0216060D01*
X0107493Y0216186D01*
X0107399Y0216314D01*
X0107307Y0216445D01*
X0107219Y0216578D01*
X0107134Y0216713D01*
X0107052Y0216850D01*
X0106974Y0216989D01*
X0106900Y0217130D01*
X0106829Y0217273D01*
X0106761Y0217418D01*
X0106698Y0217564D01*
X0106637Y0217712D01*
X0106581Y0217861D01*
X0106528Y0218012D01*
X0106479Y0218164D01*
X0106434Y0218317D01*
X0106393Y0218471D01*
X0106355Y0218626D01*
X0106322Y0218782D01*
X0106292Y0218939D01*
X0106266Y0219096D01*
X0106245Y0219254D01*
X0106227Y0219413D01*
X0106213Y0219572D01*
X0106203Y0219731D01*
X0106197Y0219890D01*
X0106195Y0220050D01*
X0106195Y0265050D02*
X0106197Y0265210D01*
X0106203Y0265369D01*
X0106213Y0265528D01*
X0106227Y0265687D01*
X0106245Y0265846D01*
X0106266Y0266004D01*
X0106292Y0266161D01*
X0106322Y0266318D01*
X0106355Y0266474D01*
X0106393Y0266629D01*
X0106434Y0266783D01*
X0106479Y0266936D01*
X0106528Y0267088D01*
X0106581Y0267239D01*
X0106637Y0267388D01*
X0106698Y0267536D01*
X0106761Y0267682D01*
X0106829Y0267827D01*
X0106900Y0267970D01*
X0106974Y0268111D01*
X0107052Y0268250D01*
X0107134Y0268387D01*
X0107219Y0268522D01*
X0107307Y0268655D01*
X0107399Y0268786D01*
X0107493Y0268914D01*
X0107591Y0269040D01*
X0107692Y0269164D01*
X0107796Y0269285D01*
X0107903Y0269403D01*
X0108013Y0269519D01*
X0108126Y0269632D01*
X0108242Y0269742D01*
X0108360Y0269849D01*
X0108481Y0269953D01*
X0108605Y0270054D01*
X0108731Y0270152D01*
X0108859Y0270246D01*
X0108990Y0270338D01*
X0109123Y0270426D01*
X0109258Y0270511D01*
X0109395Y0270593D01*
X0109534Y0270671D01*
X0109675Y0270745D01*
X0109818Y0270816D01*
X0109963Y0270884D01*
X0110109Y0270947D01*
X0110257Y0271008D01*
X0110406Y0271064D01*
X0110557Y0271117D01*
X0110709Y0271166D01*
X0110862Y0271211D01*
X0111016Y0271252D01*
X0111171Y0271290D01*
X0111327Y0271323D01*
X0111484Y0271353D01*
X0111641Y0271379D01*
X0111799Y0271400D01*
X0111958Y0271418D01*
X0112117Y0271432D01*
X0112276Y0271442D01*
X0112435Y0271448D01*
X0112595Y0271450D01*
X0112755Y0271448D01*
X0112914Y0271442D01*
X0113073Y0271432D01*
X0113232Y0271418D01*
X0113391Y0271400D01*
X0113549Y0271379D01*
X0113706Y0271353D01*
X0113863Y0271323D01*
X0114019Y0271290D01*
X0114174Y0271252D01*
X0114328Y0271211D01*
X0114481Y0271166D01*
X0114633Y0271117D01*
X0114784Y0271064D01*
X0114933Y0271008D01*
X0115081Y0270947D01*
X0115227Y0270884D01*
X0115372Y0270816D01*
X0115515Y0270745D01*
X0115656Y0270671D01*
X0115795Y0270593D01*
X0115932Y0270511D01*
X0116067Y0270426D01*
X0116200Y0270338D01*
X0116331Y0270246D01*
X0116459Y0270152D01*
X0116585Y0270054D01*
X0116709Y0269953D01*
X0116830Y0269849D01*
X0116948Y0269742D01*
X0117064Y0269632D01*
X0117177Y0269519D01*
X0117287Y0269403D01*
X0117394Y0269285D01*
X0117498Y0269164D01*
X0117599Y0269040D01*
X0117697Y0268914D01*
X0117791Y0268786D01*
X0117883Y0268655D01*
X0117971Y0268522D01*
X0118056Y0268387D01*
X0118138Y0268250D01*
X0118216Y0268111D01*
X0118290Y0267970D01*
X0118361Y0267827D01*
X0118429Y0267682D01*
X0118492Y0267536D01*
X0118553Y0267388D01*
X0118609Y0267239D01*
X0118662Y0267088D01*
X0118711Y0266936D01*
X0118756Y0266783D01*
X0118797Y0266629D01*
X0118835Y0266474D01*
X0118868Y0266318D01*
X0118898Y0266161D01*
X0118924Y0266004D01*
X0118945Y0265846D01*
X0118963Y0265687D01*
X0118977Y0265528D01*
X0118987Y0265369D01*
X0118993Y0265210D01*
X0118995Y0265050D01*
X0118993Y0264890D01*
X0118987Y0264731D01*
X0118977Y0264572D01*
X0118963Y0264413D01*
X0118945Y0264254D01*
X0118924Y0264096D01*
X0118898Y0263939D01*
X0118868Y0263782D01*
X0118835Y0263626D01*
X0118797Y0263471D01*
X0118756Y0263317D01*
X0118711Y0263164D01*
X0118662Y0263012D01*
X0118609Y0262861D01*
X0118553Y0262712D01*
X0118492Y0262564D01*
X0118429Y0262418D01*
X0118361Y0262273D01*
X0118290Y0262130D01*
X0118216Y0261989D01*
X0118138Y0261850D01*
X0118056Y0261713D01*
X0117971Y0261578D01*
X0117883Y0261445D01*
X0117791Y0261314D01*
X0117697Y0261186D01*
X0117599Y0261060D01*
X0117498Y0260936D01*
X0117394Y0260815D01*
X0117287Y0260697D01*
X0117177Y0260581D01*
X0117064Y0260468D01*
X0116948Y0260358D01*
X0116830Y0260251D01*
X0116709Y0260147D01*
X0116585Y0260046D01*
X0116459Y0259948D01*
X0116331Y0259854D01*
X0116200Y0259762D01*
X0116067Y0259674D01*
X0115932Y0259589D01*
X0115795Y0259507D01*
X0115656Y0259429D01*
X0115515Y0259355D01*
X0115372Y0259284D01*
X0115227Y0259216D01*
X0115081Y0259153D01*
X0114933Y0259092D01*
X0114784Y0259036D01*
X0114633Y0258983D01*
X0114481Y0258934D01*
X0114328Y0258889D01*
X0114174Y0258848D01*
X0114019Y0258810D01*
X0113863Y0258777D01*
X0113706Y0258747D01*
X0113549Y0258721D01*
X0113391Y0258700D01*
X0113232Y0258682D01*
X0113073Y0258668D01*
X0112914Y0258658D01*
X0112755Y0258652D01*
X0112595Y0258650D01*
X0112435Y0258652D01*
X0112276Y0258658D01*
X0112117Y0258668D01*
X0111958Y0258682D01*
X0111799Y0258700D01*
X0111641Y0258721D01*
X0111484Y0258747D01*
X0111327Y0258777D01*
X0111171Y0258810D01*
X0111016Y0258848D01*
X0110862Y0258889D01*
X0110709Y0258934D01*
X0110557Y0258983D01*
X0110406Y0259036D01*
X0110257Y0259092D01*
X0110109Y0259153D01*
X0109963Y0259216D01*
X0109818Y0259284D01*
X0109675Y0259355D01*
X0109534Y0259429D01*
X0109395Y0259507D01*
X0109258Y0259589D01*
X0109123Y0259674D01*
X0108990Y0259762D01*
X0108859Y0259854D01*
X0108731Y0259948D01*
X0108605Y0260046D01*
X0108481Y0260147D01*
X0108360Y0260251D01*
X0108242Y0260358D01*
X0108126Y0260468D01*
X0108013Y0260581D01*
X0107903Y0260697D01*
X0107796Y0260815D01*
X0107692Y0260936D01*
X0107591Y0261060D01*
X0107493Y0261186D01*
X0107399Y0261314D01*
X0107307Y0261445D01*
X0107219Y0261578D01*
X0107134Y0261713D01*
X0107052Y0261850D01*
X0106974Y0261989D01*
X0106900Y0262130D01*
X0106829Y0262273D01*
X0106761Y0262418D01*
X0106698Y0262564D01*
X0106637Y0262712D01*
X0106581Y0262861D01*
X0106528Y0263012D01*
X0106479Y0263164D01*
X0106434Y0263317D01*
X0106393Y0263471D01*
X0106355Y0263626D01*
X0106322Y0263782D01*
X0106292Y0263939D01*
X0106266Y0264096D01*
X0106245Y0264254D01*
X0106227Y0264413D01*
X0106213Y0264572D01*
X0106203Y0264731D01*
X0106197Y0264890D01*
X0106195Y0265050D01*
X0053845Y0182550D02*
X0053843Y0182452D01*
X0053837Y0182354D01*
X0053828Y0182256D01*
X0053814Y0182159D01*
X0053797Y0182062D01*
X0053776Y0181966D01*
X0053751Y0181871D01*
X0053723Y0181777D01*
X0053690Y0181685D01*
X0053655Y0181593D01*
X0053615Y0181503D01*
X0053573Y0181415D01*
X0053526Y0181328D01*
X0053477Y0181244D01*
X0053424Y0181161D01*
X0053368Y0181081D01*
X0053308Y0181002D01*
X0053246Y0180926D01*
X0053181Y0180853D01*
X0053113Y0180782D01*
X0053042Y0180714D01*
X0052969Y0180649D01*
X0052893Y0180587D01*
X0052814Y0180527D01*
X0052734Y0180471D01*
X0052651Y0180418D01*
X0052567Y0180369D01*
X0052480Y0180322D01*
X0052392Y0180280D01*
X0052302Y0180240D01*
X0052210Y0180205D01*
X0052118Y0180172D01*
X0052024Y0180144D01*
X0051929Y0180119D01*
X0051833Y0180098D01*
X0051736Y0180081D01*
X0051639Y0180067D01*
X0051541Y0180058D01*
X0051443Y0180052D01*
X0051345Y0180050D01*
X0032546Y0267550D02*
X0032548Y0267708D01*
X0032554Y0267866D01*
X0032564Y0268024D01*
X0032578Y0268182D01*
X0032596Y0268339D01*
X0032617Y0268496D01*
X0032643Y0268652D01*
X0032673Y0268808D01*
X0032706Y0268963D01*
X0032744Y0269116D01*
X0032785Y0269269D01*
X0032830Y0269421D01*
X0032879Y0269572D01*
X0032932Y0269721D01*
X0032988Y0269869D01*
X0033048Y0270015D01*
X0033112Y0270160D01*
X0033180Y0270303D01*
X0033251Y0270445D01*
X0033325Y0270585D01*
X0033403Y0270722D01*
X0033485Y0270858D01*
X0033569Y0270992D01*
X0033658Y0271123D01*
X0033749Y0271252D01*
X0033844Y0271379D01*
X0033941Y0271504D01*
X0034042Y0271626D01*
X0034146Y0271745D01*
X0034253Y0271862D01*
X0034363Y0271976D01*
X0034476Y0272087D01*
X0034591Y0272196D01*
X0034709Y0272301D01*
X0034830Y0272403D01*
X0034953Y0272503D01*
X0035079Y0272599D01*
X0035207Y0272692D01*
X0035337Y0272782D01*
X0035470Y0272868D01*
X0035605Y0272952D01*
X0035741Y0273031D01*
X0035880Y0273108D01*
X0036021Y0273180D01*
X0036163Y0273250D01*
X0036307Y0273315D01*
X0036453Y0273377D01*
X0036600Y0273435D01*
X0036749Y0273490D01*
X0036899Y0273541D01*
X0037050Y0273588D01*
X0037202Y0273631D01*
X0037355Y0273670D01*
X0037510Y0273706D01*
X0037665Y0273737D01*
X0037821Y0273765D01*
X0037977Y0273789D01*
X0038134Y0273809D01*
X0038292Y0273825D01*
X0038449Y0273837D01*
X0038608Y0273845D01*
X0038766Y0273849D01*
X0038924Y0273849D01*
X0039082Y0273845D01*
X0039241Y0273837D01*
X0039398Y0273825D01*
X0039556Y0273809D01*
X0039713Y0273789D01*
X0039869Y0273765D01*
X0040025Y0273737D01*
X0040180Y0273706D01*
X0040335Y0273670D01*
X0040488Y0273631D01*
X0040640Y0273588D01*
X0040791Y0273541D01*
X0040941Y0273490D01*
X0041090Y0273435D01*
X0041237Y0273377D01*
X0041383Y0273315D01*
X0041527Y0273250D01*
X0041669Y0273180D01*
X0041810Y0273108D01*
X0041949Y0273031D01*
X0042085Y0272952D01*
X0042220Y0272868D01*
X0042353Y0272782D01*
X0042483Y0272692D01*
X0042611Y0272599D01*
X0042737Y0272503D01*
X0042860Y0272403D01*
X0042981Y0272301D01*
X0043099Y0272196D01*
X0043214Y0272087D01*
X0043327Y0271976D01*
X0043437Y0271862D01*
X0043544Y0271745D01*
X0043648Y0271626D01*
X0043749Y0271504D01*
X0043846Y0271379D01*
X0043941Y0271252D01*
X0044032Y0271123D01*
X0044121Y0270992D01*
X0044205Y0270858D01*
X0044287Y0270722D01*
X0044365Y0270585D01*
X0044439Y0270445D01*
X0044510Y0270303D01*
X0044578Y0270160D01*
X0044642Y0270015D01*
X0044702Y0269869D01*
X0044758Y0269721D01*
X0044811Y0269572D01*
X0044860Y0269421D01*
X0044905Y0269269D01*
X0044946Y0269116D01*
X0044984Y0268963D01*
X0045017Y0268808D01*
X0045047Y0268652D01*
X0045073Y0268496D01*
X0045094Y0268339D01*
X0045112Y0268182D01*
X0045126Y0268024D01*
X0045136Y0267866D01*
X0045142Y0267708D01*
X0045144Y0267550D01*
X0045142Y0267392D01*
X0045136Y0267234D01*
X0045126Y0267076D01*
X0045112Y0266918D01*
X0045094Y0266761D01*
X0045073Y0266604D01*
X0045047Y0266448D01*
X0045017Y0266292D01*
X0044984Y0266137D01*
X0044946Y0265984D01*
X0044905Y0265831D01*
X0044860Y0265679D01*
X0044811Y0265528D01*
X0044758Y0265379D01*
X0044702Y0265231D01*
X0044642Y0265085D01*
X0044578Y0264940D01*
X0044510Y0264797D01*
X0044439Y0264655D01*
X0044365Y0264515D01*
X0044287Y0264378D01*
X0044205Y0264242D01*
X0044121Y0264108D01*
X0044032Y0263977D01*
X0043941Y0263848D01*
X0043846Y0263721D01*
X0043749Y0263596D01*
X0043648Y0263474D01*
X0043544Y0263355D01*
X0043437Y0263238D01*
X0043327Y0263124D01*
X0043214Y0263013D01*
X0043099Y0262904D01*
X0042981Y0262799D01*
X0042860Y0262697D01*
X0042737Y0262597D01*
X0042611Y0262501D01*
X0042483Y0262408D01*
X0042353Y0262318D01*
X0042220Y0262232D01*
X0042085Y0262148D01*
X0041949Y0262069D01*
X0041810Y0261992D01*
X0041669Y0261920D01*
X0041527Y0261850D01*
X0041383Y0261785D01*
X0041237Y0261723D01*
X0041090Y0261665D01*
X0040941Y0261610D01*
X0040791Y0261559D01*
X0040640Y0261512D01*
X0040488Y0261469D01*
X0040335Y0261430D01*
X0040180Y0261394D01*
X0040025Y0261363D01*
X0039869Y0261335D01*
X0039713Y0261311D01*
X0039556Y0261291D01*
X0039398Y0261275D01*
X0039241Y0261263D01*
X0039082Y0261255D01*
X0038924Y0261251D01*
X0038766Y0261251D01*
X0038608Y0261255D01*
X0038449Y0261263D01*
X0038292Y0261275D01*
X0038134Y0261291D01*
X0037977Y0261311D01*
X0037821Y0261335D01*
X0037665Y0261363D01*
X0037510Y0261394D01*
X0037355Y0261430D01*
X0037202Y0261469D01*
X0037050Y0261512D01*
X0036899Y0261559D01*
X0036749Y0261610D01*
X0036600Y0261665D01*
X0036453Y0261723D01*
X0036307Y0261785D01*
X0036163Y0261850D01*
X0036021Y0261920D01*
X0035880Y0261992D01*
X0035741Y0262069D01*
X0035605Y0262148D01*
X0035470Y0262232D01*
X0035337Y0262318D01*
X0035207Y0262408D01*
X0035079Y0262501D01*
X0034953Y0262597D01*
X0034830Y0262697D01*
X0034709Y0262799D01*
X0034591Y0262904D01*
X0034476Y0263013D01*
X0034363Y0263124D01*
X0034253Y0263238D01*
X0034146Y0263355D01*
X0034042Y0263474D01*
X0033941Y0263596D01*
X0033844Y0263721D01*
X0033749Y0263848D01*
X0033658Y0263977D01*
X0033569Y0264108D01*
X0033485Y0264242D01*
X0033403Y0264378D01*
X0033325Y0264515D01*
X0033251Y0264655D01*
X0033180Y0264797D01*
X0033112Y0264940D01*
X0033048Y0265085D01*
X0032988Y0265231D01*
X0032932Y0265379D01*
X0032879Y0265528D01*
X0032830Y0265679D01*
X0032785Y0265831D01*
X0032744Y0265984D01*
X0032706Y0266137D01*
X0032673Y0266292D01*
X0032643Y0266448D01*
X0032617Y0266604D01*
X0032596Y0266761D01*
X0032578Y0266918D01*
X0032564Y0267076D01*
X0032554Y0267234D01*
X0032548Y0267392D01*
X0032546Y0267550D01*
X0106296Y0038800D02*
X0106298Y0038958D01*
X0106304Y0039116D01*
X0106314Y0039274D01*
X0106328Y0039432D01*
X0106346Y0039589D01*
X0106367Y0039746D01*
X0106393Y0039902D01*
X0106423Y0040058D01*
X0106456Y0040213D01*
X0106494Y0040366D01*
X0106535Y0040519D01*
X0106580Y0040671D01*
X0106629Y0040822D01*
X0106682Y0040971D01*
X0106738Y0041119D01*
X0106798Y0041265D01*
X0106862Y0041410D01*
X0106930Y0041553D01*
X0107001Y0041695D01*
X0107075Y0041835D01*
X0107153Y0041972D01*
X0107235Y0042108D01*
X0107319Y0042242D01*
X0107408Y0042373D01*
X0107499Y0042502D01*
X0107594Y0042629D01*
X0107691Y0042754D01*
X0107792Y0042876D01*
X0107896Y0042995D01*
X0108003Y0043112D01*
X0108113Y0043226D01*
X0108226Y0043337D01*
X0108341Y0043446D01*
X0108459Y0043551D01*
X0108580Y0043653D01*
X0108703Y0043753D01*
X0108829Y0043849D01*
X0108957Y0043942D01*
X0109087Y0044032D01*
X0109220Y0044118D01*
X0109355Y0044202D01*
X0109491Y0044281D01*
X0109630Y0044358D01*
X0109771Y0044430D01*
X0109913Y0044500D01*
X0110057Y0044565D01*
X0110203Y0044627D01*
X0110350Y0044685D01*
X0110499Y0044740D01*
X0110649Y0044791D01*
X0110800Y0044838D01*
X0110952Y0044881D01*
X0111105Y0044920D01*
X0111260Y0044956D01*
X0111415Y0044987D01*
X0111571Y0045015D01*
X0111727Y0045039D01*
X0111884Y0045059D01*
X0112042Y0045075D01*
X0112199Y0045087D01*
X0112358Y0045095D01*
X0112516Y0045099D01*
X0112674Y0045099D01*
X0112832Y0045095D01*
X0112991Y0045087D01*
X0113148Y0045075D01*
X0113306Y0045059D01*
X0113463Y0045039D01*
X0113619Y0045015D01*
X0113775Y0044987D01*
X0113930Y0044956D01*
X0114085Y0044920D01*
X0114238Y0044881D01*
X0114390Y0044838D01*
X0114541Y0044791D01*
X0114691Y0044740D01*
X0114840Y0044685D01*
X0114987Y0044627D01*
X0115133Y0044565D01*
X0115277Y0044500D01*
X0115419Y0044430D01*
X0115560Y0044358D01*
X0115699Y0044281D01*
X0115835Y0044202D01*
X0115970Y0044118D01*
X0116103Y0044032D01*
X0116233Y0043942D01*
X0116361Y0043849D01*
X0116487Y0043753D01*
X0116610Y0043653D01*
X0116731Y0043551D01*
X0116849Y0043446D01*
X0116964Y0043337D01*
X0117077Y0043226D01*
X0117187Y0043112D01*
X0117294Y0042995D01*
X0117398Y0042876D01*
X0117499Y0042754D01*
X0117596Y0042629D01*
X0117691Y0042502D01*
X0117782Y0042373D01*
X0117871Y0042242D01*
X0117955Y0042108D01*
X0118037Y0041972D01*
X0118115Y0041835D01*
X0118189Y0041695D01*
X0118260Y0041553D01*
X0118328Y0041410D01*
X0118392Y0041265D01*
X0118452Y0041119D01*
X0118508Y0040971D01*
X0118561Y0040822D01*
X0118610Y0040671D01*
X0118655Y0040519D01*
X0118696Y0040366D01*
X0118734Y0040213D01*
X0118767Y0040058D01*
X0118797Y0039902D01*
X0118823Y0039746D01*
X0118844Y0039589D01*
X0118862Y0039432D01*
X0118876Y0039274D01*
X0118886Y0039116D01*
X0118892Y0038958D01*
X0118894Y0038800D01*
X0118892Y0038642D01*
X0118886Y0038484D01*
X0118876Y0038326D01*
X0118862Y0038168D01*
X0118844Y0038011D01*
X0118823Y0037854D01*
X0118797Y0037698D01*
X0118767Y0037542D01*
X0118734Y0037387D01*
X0118696Y0037234D01*
X0118655Y0037081D01*
X0118610Y0036929D01*
X0118561Y0036778D01*
X0118508Y0036629D01*
X0118452Y0036481D01*
X0118392Y0036335D01*
X0118328Y0036190D01*
X0118260Y0036047D01*
X0118189Y0035905D01*
X0118115Y0035765D01*
X0118037Y0035628D01*
X0117955Y0035492D01*
X0117871Y0035358D01*
X0117782Y0035227D01*
X0117691Y0035098D01*
X0117596Y0034971D01*
X0117499Y0034846D01*
X0117398Y0034724D01*
X0117294Y0034605D01*
X0117187Y0034488D01*
X0117077Y0034374D01*
X0116964Y0034263D01*
X0116849Y0034154D01*
X0116731Y0034049D01*
X0116610Y0033947D01*
X0116487Y0033847D01*
X0116361Y0033751D01*
X0116233Y0033658D01*
X0116103Y0033568D01*
X0115970Y0033482D01*
X0115835Y0033398D01*
X0115699Y0033319D01*
X0115560Y0033242D01*
X0115419Y0033170D01*
X0115277Y0033100D01*
X0115133Y0033035D01*
X0114987Y0032973D01*
X0114840Y0032915D01*
X0114691Y0032860D01*
X0114541Y0032809D01*
X0114390Y0032762D01*
X0114238Y0032719D01*
X0114085Y0032680D01*
X0113930Y0032644D01*
X0113775Y0032613D01*
X0113619Y0032585D01*
X0113463Y0032561D01*
X0113306Y0032541D01*
X0113148Y0032525D01*
X0112991Y0032513D01*
X0112832Y0032505D01*
X0112674Y0032501D01*
X0112516Y0032501D01*
X0112358Y0032505D01*
X0112199Y0032513D01*
X0112042Y0032525D01*
X0111884Y0032541D01*
X0111727Y0032561D01*
X0111571Y0032585D01*
X0111415Y0032613D01*
X0111260Y0032644D01*
X0111105Y0032680D01*
X0110952Y0032719D01*
X0110800Y0032762D01*
X0110649Y0032809D01*
X0110499Y0032860D01*
X0110350Y0032915D01*
X0110203Y0032973D01*
X0110057Y0033035D01*
X0109913Y0033100D01*
X0109771Y0033170D01*
X0109630Y0033242D01*
X0109491Y0033319D01*
X0109355Y0033398D01*
X0109220Y0033482D01*
X0109087Y0033568D01*
X0108957Y0033658D01*
X0108829Y0033751D01*
X0108703Y0033847D01*
X0108580Y0033947D01*
X0108459Y0034049D01*
X0108341Y0034154D01*
X0108226Y0034263D01*
X0108113Y0034374D01*
X0108003Y0034488D01*
X0107896Y0034605D01*
X0107792Y0034724D01*
X0107691Y0034846D01*
X0107594Y0034971D01*
X0107499Y0035098D01*
X0107408Y0035227D01*
X0107319Y0035358D01*
X0107235Y0035492D01*
X0107153Y0035628D01*
X0107075Y0035765D01*
X0107001Y0035905D01*
X0106930Y0036047D01*
X0106862Y0036190D01*
X0106798Y0036335D01*
X0106738Y0036481D01*
X0106682Y0036629D01*
X0106629Y0036778D01*
X0106580Y0036929D01*
X0106535Y0037081D01*
X0106494Y0037234D01*
X0106456Y0037387D01*
X0106423Y0037542D01*
X0106393Y0037698D01*
X0106367Y0037854D01*
X0106346Y0038011D01*
X0106328Y0038168D01*
X0106314Y0038326D01*
X0106304Y0038484D01*
X0106298Y0038642D01*
X0106296Y0038800D01*
D11*
X0108835Y0061300D03*
X0101355Y0061300D03*
X0103855Y0101300D03*
X0111335Y0101300D03*
X0043835Y0097550D03*
X0036355Y0097550D03*
X0036355Y0065050D03*
X0043835Y0065050D03*
D12*
X0068845Y0053790D03*
X0068845Y0046310D03*
X0081345Y0046310D03*
X0081345Y0053790D03*
X0088845Y0132560D03*
X0088845Y0140040D03*
D13*
X0114170Y0130400D03*
X0114170Y0121300D03*
X0114170Y0112200D03*
D14*
X0089769Y0121300D03*
D15*
X0044820Y0089961D03*
X0035371Y0089961D03*
X0035371Y0072639D03*
X0044820Y0072639D03*
D16*
X0050720Y0038700D02*
X0050720Y0033900D01*
X0060720Y0033900D02*
X0060720Y0038700D01*
X0070720Y0038700D02*
X0070720Y0033900D01*
X0080720Y0033900D02*
X0080720Y0038700D01*
X0090720Y0038700D02*
X0090720Y0033900D01*
X0100720Y0033900D02*
X0100720Y0038700D01*
D17*
X0092595Y0062800D03*
X0087595Y0062800D03*
X0082595Y0062800D03*
X0077595Y0062800D03*
X0072595Y0062800D03*
X0067595Y0062800D03*
X0062595Y0062800D03*
X0057595Y0062800D03*
X0052595Y0062800D03*
X0052595Y0099800D03*
X0057595Y0099800D03*
X0062595Y0099800D03*
X0067595Y0099800D03*
X0072595Y0099800D03*
X0077595Y0099800D03*
X0082595Y0099800D03*
X0087595Y0099800D03*
X0092595Y0099800D03*
X0100095Y0090600D03*
X0105095Y0090600D03*
X0110095Y0090600D03*
X0115095Y0090600D03*
X0115095Y0072000D03*
X0110095Y0072000D03*
X0105095Y0072000D03*
X0100095Y0072000D03*
D18*
X0113845Y0144942D03*
X0113845Y0150847D03*
X0113845Y0156753D03*
X0113845Y0162658D03*
X0096453Y0192550D03*
X0090548Y0192550D03*
X0084642Y0192550D03*
X0078737Y0192550D03*
D19*
X0078264Y0156438D03*
X0078264Y0111162D03*
X0036926Y0111162D03*
X0036926Y0156438D03*
D20*
X0077595Y0230050D03*
X0077595Y0240050D03*
X0077595Y0250050D03*
X0077595Y0260050D03*
X0087595Y0255050D03*
X0087595Y0245050D03*
X0087595Y0235050D03*
X0087595Y0225050D03*
D21*
X0063766Y0222550D03*
X0063766Y0214676D03*
X0063766Y0206999D03*
X0053924Y0206999D03*
X0053924Y0213495D03*
X0053924Y0221369D03*
X0053924Y0229243D03*
X0053924Y0238101D03*
X0063766Y0238101D03*
X0063766Y0230424D03*
D22*
X0038963Y0222550D03*
D23*
X0042113Y0194007D03*
X0042113Y0251093D03*
D24*
X0060676Y0053790D03*
X0060676Y0046310D03*
X0052014Y0050050D03*
X0089514Y0046310D03*
X0089514Y0053790D03*
X0098176Y0050050D03*
D25*
X0099318Y0046981D02*
X0101387Y0046981D01*
X0102032Y0047626D01*
X0102032Y0052474D01*
X0101387Y0053118D01*
X0099876Y0053118D01*
X0099876Y0055173D01*
X0098045Y0057004D01*
X0098045Y0057542D01*
X0098340Y0057247D01*
X0104370Y0057247D01*
X0104883Y0057761D01*
X0105076Y0057426D01*
X0105355Y0057147D01*
X0105697Y0056949D01*
X0106079Y0056847D01*
X0108335Y0056847D01*
X0108335Y0060800D01*
X0109335Y0060800D01*
X0109335Y0056847D01*
X0111592Y0056847D01*
X0111973Y0056949D01*
X0112145Y0057049D01*
X0112145Y0057004D01*
X0110641Y0055500D01*
X0107191Y0055500D01*
X0106616Y0056076D01*
X0105629Y0056484D01*
X0104561Y0056484D01*
X0103575Y0056076D01*
X0102820Y0055320D01*
X0102411Y0054334D01*
X0102411Y0053266D01*
X0102820Y0052279D01*
X0103575Y0051524D01*
X0104561Y0051116D01*
X0105629Y0051116D01*
X0106616Y0051524D01*
X0107191Y0052100D01*
X0112049Y0052100D01*
X0113045Y0053096D01*
X0115545Y0055596D01*
X0115545Y0065754D01*
X0114699Y0066600D01*
X0115045Y0066600D01*
X0115045Y0071950D01*
X0112495Y0071950D01*
X0112495Y0068000D01*
X0112295Y0068000D01*
X0112295Y0076356D01*
X0112113Y0076538D01*
X0113565Y0077991D01*
X0114379Y0077991D01*
X0115366Y0078399D01*
X0116121Y0079154D01*
X0116529Y0080141D01*
X0116529Y0081209D01*
X0116121Y0082195D01*
X0115366Y0082951D01*
X0114401Y0083350D01*
X0114549Y0083350D01*
X0115545Y0084346D01*
X0116795Y0085596D01*
X0116795Y0085744D01*
X0117295Y0086244D01*
X0117295Y0094956D01*
X0116651Y0095600D01*
X0113539Y0095600D01*
X0112895Y0094956D01*
X0112895Y0086750D01*
X0112695Y0086750D01*
X0112695Y0090550D01*
X0110145Y0090550D01*
X0110145Y0090650D01*
X0110045Y0090650D01*
X0110045Y0090550D01*
X0107495Y0090550D01*
X0107495Y0086750D01*
X0107295Y0086750D01*
X0107295Y0094956D01*
X0106795Y0095456D01*
X0106795Y0097247D01*
X0106870Y0097247D01*
X0107383Y0097761D01*
X0107576Y0097426D01*
X0107855Y0097147D01*
X0108197Y0096949D01*
X0108579Y0096847D01*
X0110835Y0096847D01*
X0110835Y0100800D01*
X0111835Y0100800D01*
X0111835Y0096847D01*
X0114092Y0096847D01*
X0114473Y0096949D01*
X0114815Y0097147D01*
X0115095Y0097426D01*
X0115292Y0097768D01*
X0115394Y0098150D01*
X0115394Y0100800D01*
X0111835Y0100800D01*
X0111835Y0101800D01*
X0110835Y0101800D01*
X0110835Y0105753D01*
X0108579Y0105753D01*
X0108197Y0105651D01*
X0107855Y0105453D01*
X0107576Y0105174D01*
X0107383Y0104839D01*
X0106870Y0105353D01*
X0106555Y0105353D01*
X0106555Y0109500D01*
X0108670Y0109500D01*
X0108670Y0109344D01*
X0109314Y0108700D01*
X0119026Y0108700D01*
X0119670Y0109344D01*
X0119670Y0115056D01*
X0119026Y0115700D01*
X0109314Y0115700D01*
X0108670Y0115056D01*
X0108670Y0114900D01*
X0102958Y0114900D01*
X0101966Y0114489D01*
X0101339Y0113862D01*
X0095200Y0113862D01*
X0095200Y0128100D01*
X0108670Y0128100D01*
X0108670Y0127544D01*
X0109314Y0126900D01*
X0119026Y0126900D01*
X0119670Y0127544D01*
X0119670Y0133256D01*
X0119026Y0133900D01*
X0109314Y0133900D01*
X0108670Y0133256D01*
X0108670Y0132700D01*
X0092898Y0132700D01*
X0092898Y0135575D01*
X0092385Y0136088D01*
X0092719Y0136281D01*
X0092998Y0136560D01*
X0093196Y0136902D01*
X0093298Y0137284D01*
X0093298Y0139540D01*
X0089345Y0139540D01*
X0089345Y0140540D01*
X0093298Y0140540D01*
X0093298Y0142700D01*
X0106104Y0142700D01*
X0106914Y0141890D01*
X0108237Y0141342D01*
X0114561Y0141342D01*
X0115884Y0141890D01*
X0116897Y0142902D01*
X0117445Y0144226D01*
X0117445Y0145658D01*
X0116897Y0146981D01*
X0115884Y0147994D01*
X0115687Y0148076D01*
X0115695Y0148079D01*
X0116613Y0148998D01*
X0117110Y0150198D01*
X0117110Y0151497D01*
X0116613Y0152697D01*
X0115695Y0153615D01*
X0115249Y0153800D01*
X0115695Y0153985D01*
X0116613Y0154903D01*
X0117110Y0156103D01*
X0117110Y0157402D01*
X0117048Y0157552D01*
X0120095Y0160599D01*
X0120095Y0043687D01*
X0120055Y0043784D01*
X0117579Y0046260D01*
X0114345Y0047599D01*
X0110845Y0047599D01*
X0107611Y0046260D01*
X0105136Y0043784D01*
X0103796Y0040550D01*
X0103796Y0040420D01*
X0103687Y0040683D01*
X0102703Y0041667D01*
X0102420Y0041784D01*
X0102420Y0043879D01*
X0099318Y0046981D01*
X0099837Y0046462D02*
X0108100Y0046462D01*
X0106815Y0045464D02*
X0100836Y0045464D01*
X0101834Y0044465D02*
X0105816Y0044465D01*
X0105004Y0043467D02*
X0102420Y0043467D01*
X0102420Y0042468D02*
X0104590Y0042468D01*
X0104177Y0041470D02*
X0102900Y0041470D01*
X0103775Y0040471D02*
X0103796Y0040471D01*
X0101867Y0047461D02*
X0110510Y0047461D01*
X0114680Y0047461D02*
X0120095Y0047461D01*
X0120095Y0048459D02*
X0102032Y0048459D01*
X0102032Y0049458D02*
X0120095Y0049458D01*
X0120095Y0050456D02*
X0102032Y0050456D01*
X0102032Y0051455D02*
X0103743Y0051455D01*
X0102748Y0052453D02*
X0102032Y0052453D01*
X0102411Y0053452D02*
X0099876Y0053452D01*
X0099876Y0054450D02*
X0102459Y0054450D01*
X0102948Y0055449D02*
X0099601Y0055449D01*
X0098602Y0056447D02*
X0104472Y0056447D01*
X0104568Y0057446D02*
X0105065Y0057446D01*
X0105718Y0056447D02*
X0111588Y0056447D01*
X0114400Y0054450D02*
X0120095Y0054450D01*
X0120095Y0053452D02*
X0113401Y0053452D01*
X0112403Y0052453D02*
X0120095Y0052453D01*
X0120095Y0051455D02*
X0106447Y0051455D01*
X0108335Y0057446D02*
X0109335Y0057446D01*
X0109335Y0058444D02*
X0108335Y0058444D01*
X0108335Y0059443D02*
X0109335Y0059443D01*
X0109335Y0060441D02*
X0108335Y0060441D01*
X0114867Y0066432D02*
X0120095Y0066432D01*
X0120095Y0065434D02*
X0115545Y0065434D01*
X0115545Y0064435D02*
X0120095Y0064435D01*
X0120095Y0063437D02*
X0115545Y0063437D01*
X0115545Y0062438D02*
X0120095Y0062438D01*
X0120095Y0061440D02*
X0115545Y0061440D01*
X0115545Y0060441D02*
X0120095Y0060441D01*
X0120095Y0059443D02*
X0115545Y0059443D01*
X0115545Y0058444D02*
X0120095Y0058444D01*
X0120095Y0057446D02*
X0115545Y0057446D01*
X0115545Y0056447D02*
X0120095Y0056447D01*
X0120095Y0055449D02*
X0115398Y0055449D01*
X0117090Y0046462D02*
X0120095Y0046462D01*
X0120095Y0045464D02*
X0118375Y0045464D01*
X0119374Y0044465D02*
X0120095Y0044465D01*
X0116393Y0066600D02*
X0116774Y0066702D01*
X0117116Y0066900D01*
X0117395Y0067179D01*
X0117593Y0067521D01*
X0117695Y0067903D01*
X0117695Y0071950D01*
X0115145Y0071950D01*
X0115145Y0066600D01*
X0116393Y0066600D01*
X0117541Y0067431D02*
X0120095Y0067431D01*
X0120095Y0068429D02*
X0117695Y0068429D01*
X0117695Y0069428D02*
X0120095Y0069428D01*
X0120095Y0070426D02*
X0117695Y0070426D01*
X0117695Y0071425D02*
X0120095Y0071425D01*
X0120095Y0072423D02*
X0117695Y0072423D01*
X0117695Y0072050D02*
X0117695Y0076097D01*
X0117593Y0076479D01*
X0117395Y0076821D01*
X0117116Y0077100D01*
X0116774Y0077298D01*
X0116393Y0077400D01*
X0115145Y0077400D01*
X0115145Y0072050D01*
X0115045Y0072050D01*
X0115045Y0071950D01*
X0115145Y0071950D01*
X0115145Y0072050D01*
X0117695Y0072050D01*
X0117695Y0073422D02*
X0120095Y0073422D01*
X0120095Y0074420D02*
X0117695Y0074420D01*
X0117695Y0075419D02*
X0120095Y0075419D01*
X0120095Y0076418D02*
X0117609Y0076418D01*
X0115145Y0076418D02*
X0115045Y0076418D01*
X0115045Y0077400D02*
X0113798Y0077400D01*
X0113416Y0077298D01*
X0113074Y0077100D01*
X0112795Y0076821D01*
X0112597Y0076479D01*
X0112495Y0076097D01*
X0112495Y0072050D01*
X0115045Y0072050D01*
X0115045Y0077400D01*
X0115381Y0078415D02*
X0120095Y0078415D01*
X0120095Y0079413D02*
X0116228Y0079413D01*
X0116529Y0080412D02*
X0120095Y0080412D01*
X0120095Y0081410D02*
X0116446Y0081410D01*
X0115908Y0082409D02*
X0120095Y0082409D01*
X0120095Y0083407D02*
X0114606Y0083407D01*
X0115605Y0084406D02*
X0120095Y0084406D01*
X0120095Y0085404D02*
X0116603Y0085404D01*
X0117295Y0086403D02*
X0120095Y0086403D01*
X0120095Y0087401D02*
X0117295Y0087401D01*
X0117295Y0088400D02*
X0120095Y0088400D01*
X0120095Y0089398D02*
X0117295Y0089398D01*
X0117295Y0090397D02*
X0120095Y0090397D01*
X0120095Y0091395D02*
X0117295Y0091395D01*
X0117295Y0092394D02*
X0120095Y0092394D01*
X0120095Y0093392D02*
X0117295Y0093392D01*
X0117295Y0094391D02*
X0120095Y0094391D01*
X0120095Y0095389D02*
X0116862Y0095389D01*
X0115055Y0097386D02*
X0120095Y0097386D01*
X0120095Y0096388D02*
X0106795Y0096388D01*
X0106862Y0095389D02*
X0107777Y0095389D01*
X0107795Y0095421D02*
X0107597Y0095079D01*
X0107495Y0094697D01*
X0107495Y0090650D01*
X0110045Y0090650D01*
X0110045Y0096000D01*
X0108798Y0096000D01*
X0108416Y0095898D01*
X0108074Y0095700D01*
X0107795Y0095421D01*
X0107495Y0094391D02*
X0107295Y0094391D01*
X0107295Y0093392D02*
X0107495Y0093392D01*
X0107495Y0092394D02*
X0107295Y0092394D01*
X0107295Y0091395D02*
X0107495Y0091395D01*
X0107495Y0090397D02*
X0107295Y0090397D01*
X0107295Y0089398D02*
X0107495Y0089398D01*
X0107495Y0088400D02*
X0107295Y0088400D01*
X0107295Y0087401D02*
X0107495Y0087401D01*
X0110145Y0090650D02*
X0112695Y0090650D01*
X0112695Y0094697D01*
X0112593Y0095079D01*
X0112395Y0095421D01*
X0112116Y0095700D01*
X0111774Y0095898D01*
X0111393Y0096000D01*
X0110145Y0096000D01*
X0110145Y0090650D01*
X0110145Y0091395D02*
X0110045Y0091395D01*
X0110045Y0092394D02*
X0110145Y0092394D01*
X0110145Y0093392D02*
X0110045Y0093392D01*
X0110045Y0094391D02*
X0110145Y0094391D01*
X0110145Y0095389D02*
X0110045Y0095389D01*
X0110835Y0097386D02*
X0111835Y0097386D01*
X0111835Y0098385D02*
X0110835Y0098385D01*
X0110835Y0099383D02*
X0111835Y0099383D01*
X0111835Y0100382D02*
X0110835Y0100382D01*
X0111835Y0101380D02*
X0120095Y0101380D01*
X0120095Y0100382D02*
X0115394Y0100382D01*
X0115394Y0099383D02*
X0120095Y0099383D01*
X0120095Y0098385D02*
X0115394Y0098385D01*
X0115394Y0101800D02*
X0115394Y0104450D01*
X0115292Y0104832D01*
X0115095Y0105174D01*
X0114815Y0105453D01*
X0114473Y0105651D01*
X0114092Y0105753D01*
X0111835Y0105753D01*
X0111835Y0101800D01*
X0115394Y0101800D01*
X0115394Y0102379D02*
X0120095Y0102379D01*
X0120095Y0103377D02*
X0115394Y0103377D01*
X0115394Y0104376D02*
X0120095Y0104376D01*
X0120095Y0105374D02*
X0114894Y0105374D01*
X0111835Y0105374D02*
X0110835Y0105374D01*
X0110835Y0104376D02*
X0111835Y0104376D01*
X0111835Y0103377D02*
X0110835Y0103377D01*
X0110835Y0102379D02*
X0111835Y0102379D01*
X0112414Y0095389D02*
X0113329Y0095389D01*
X0112895Y0094391D02*
X0112695Y0094391D01*
X0112695Y0093392D02*
X0112895Y0093392D01*
X0112895Y0092394D02*
X0112695Y0092394D01*
X0112695Y0091395D02*
X0112895Y0091395D01*
X0112895Y0090397D02*
X0112695Y0090397D01*
X0112695Y0089398D02*
X0112895Y0089398D01*
X0112895Y0088400D02*
X0112695Y0088400D01*
X0112695Y0087401D02*
X0112895Y0087401D01*
X0112990Y0077416D02*
X0120095Y0077416D01*
X0115145Y0075419D02*
X0115045Y0075419D01*
X0115045Y0074420D02*
X0115145Y0074420D01*
X0115145Y0073422D02*
X0115045Y0073422D01*
X0115045Y0072423D02*
X0115145Y0072423D01*
X0115145Y0071425D02*
X0115045Y0071425D01*
X0115045Y0070426D02*
X0115145Y0070426D01*
X0115145Y0069428D02*
X0115045Y0069428D01*
X0115045Y0068429D02*
X0115145Y0068429D01*
X0115145Y0067431D02*
X0115045Y0067431D01*
X0112495Y0068429D02*
X0112295Y0068429D01*
X0112295Y0069428D02*
X0112495Y0069428D01*
X0112495Y0070426D02*
X0112295Y0070426D01*
X0112295Y0071425D02*
X0112495Y0071425D01*
X0112495Y0072423D02*
X0112295Y0072423D01*
X0112295Y0073422D02*
X0112495Y0073422D01*
X0112495Y0074420D02*
X0112295Y0074420D01*
X0112295Y0075419D02*
X0112495Y0075419D01*
X0112581Y0076418D02*
X0112233Y0076418D01*
X0107616Y0097386D02*
X0107009Y0097386D01*
X0106555Y0105374D02*
X0107777Y0105374D01*
X0106555Y0106373D02*
X0120095Y0106373D01*
X0120095Y0107371D02*
X0106555Y0107371D01*
X0106555Y0108370D02*
X0120095Y0108370D01*
X0120095Y0109368D02*
X0119670Y0109368D01*
X0119670Y0110367D02*
X0120095Y0110367D01*
X0120095Y0111365D02*
X0119670Y0111365D01*
X0119670Y0112364D02*
X0120095Y0112364D01*
X0120095Y0113362D02*
X0119670Y0113362D01*
X0119670Y0114361D02*
X0120095Y0114361D01*
X0120095Y0115359D02*
X0119366Y0115359D01*
X0120095Y0116358D02*
X0095200Y0116358D01*
X0095200Y0117356D02*
X0120095Y0117356D01*
X0119491Y0117700D02*
X0119770Y0117979D01*
X0119968Y0118321D01*
X0120070Y0118703D01*
X0120070Y0120800D01*
X0114670Y0120800D01*
X0114670Y0117400D01*
X0118768Y0117400D01*
X0119149Y0117502D01*
X0119491Y0117700D01*
X0119977Y0118355D02*
X0120095Y0118355D01*
X0120070Y0119353D02*
X0120095Y0119353D01*
X0120070Y0120352D02*
X0120095Y0120352D01*
X0120095Y0121351D02*
X0114670Y0121351D01*
X0114670Y0121800D02*
X0120070Y0121800D01*
X0120070Y0123897D01*
X0119968Y0124279D01*
X0119770Y0124621D01*
X0119491Y0124900D01*
X0119149Y0125098D01*
X0118768Y0125200D01*
X0114670Y0125200D01*
X0114670Y0121800D01*
X0113670Y0121800D01*
X0113670Y0120800D01*
X0108270Y0120800D01*
X0108270Y0118703D01*
X0108372Y0118321D01*
X0108570Y0117979D01*
X0108849Y0117700D01*
X0109191Y0117502D01*
X0109573Y0117400D01*
X0113670Y0117400D01*
X0113670Y0120800D01*
X0114670Y0120800D01*
X0114670Y0121800D01*
X0114670Y0122349D02*
X0113670Y0122349D01*
X0113670Y0121800D02*
X0113670Y0125200D01*
X0109573Y0125200D01*
X0109191Y0125098D01*
X0108849Y0124900D01*
X0108570Y0124621D01*
X0108372Y0124279D01*
X0108270Y0123897D01*
X0108270Y0121800D01*
X0113670Y0121800D01*
X0113670Y0121351D02*
X0095200Y0121351D01*
X0095200Y0122349D02*
X0108270Y0122349D01*
X0108270Y0123348D02*
X0095200Y0123348D01*
X0095200Y0124346D02*
X0108411Y0124346D01*
X0108873Y0127342D02*
X0095200Y0127342D01*
X0095200Y0126343D02*
X0120095Y0126343D01*
X0120095Y0125345D02*
X0095200Y0125345D01*
X0095200Y0120352D02*
X0108270Y0120352D01*
X0108270Y0119353D02*
X0095200Y0119353D01*
X0095200Y0118355D02*
X0108363Y0118355D01*
X0108974Y0115359D02*
X0095200Y0115359D01*
X0095200Y0114361D02*
X0101838Y0114361D01*
X0106555Y0109368D02*
X0108670Y0109368D01*
X0113670Y0118355D02*
X0114670Y0118355D01*
X0114670Y0119353D02*
X0113670Y0119353D01*
X0113670Y0120352D02*
X0114670Y0120352D01*
X0114670Y0123348D02*
X0113670Y0123348D01*
X0113670Y0124346D02*
X0114670Y0124346D01*
X0119929Y0124346D02*
X0120095Y0124346D01*
X0120070Y0123348D02*
X0120095Y0123348D01*
X0120070Y0122349D02*
X0120095Y0122349D01*
X0120095Y0127342D02*
X0119467Y0127342D01*
X0119670Y0128340D02*
X0120095Y0128340D01*
X0120095Y0129339D02*
X0119670Y0129339D01*
X0119670Y0130337D02*
X0120095Y0130337D01*
X0120095Y0131336D02*
X0119670Y0131336D01*
X0119670Y0132334D02*
X0120095Y0132334D01*
X0120095Y0133333D02*
X0119593Y0133333D01*
X0120095Y0134331D02*
X0092898Y0134331D01*
X0092898Y0133333D02*
X0108747Y0133333D01*
X0106485Y0142319D02*
X0093298Y0142319D01*
X0093298Y0141321D02*
X0120095Y0141321D01*
X0120095Y0142319D02*
X0116314Y0142319D01*
X0117069Y0143318D02*
X0120095Y0143318D01*
X0120095Y0144316D02*
X0117445Y0144316D01*
X0117445Y0145315D02*
X0120095Y0145315D01*
X0120095Y0146313D02*
X0117174Y0146313D01*
X0116566Y0147312D02*
X0120095Y0147312D01*
X0120095Y0148310D02*
X0115926Y0148310D01*
X0116742Y0149309D02*
X0120095Y0149309D01*
X0120095Y0150307D02*
X0117110Y0150307D01*
X0117110Y0151306D02*
X0120095Y0151306D01*
X0120095Y0152304D02*
X0116776Y0152304D01*
X0116007Y0153303D02*
X0120095Y0153303D01*
X0120095Y0154301D02*
X0116012Y0154301D01*
X0116778Y0155300D02*
X0120095Y0155300D01*
X0120095Y0156298D02*
X0117110Y0156298D01*
X0117110Y0157297D02*
X0120095Y0157297D01*
X0120095Y0158295D02*
X0117792Y0158295D01*
X0118790Y0159294D02*
X0120095Y0159294D01*
X0120095Y0160292D02*
X0119789Y0160292D01*
X0115591Y0165900D02*
X0115581Y0165906D01*
X0114914Y0166183D01*
X0114206Y0166324D01*
X0114034Y0166324D01*
X0114034Y0162847D01*
X0113656Y0162847D01*
X0113656Y0166324D01*
X0113484Y0166324D01*
X0112776Y0166183D01*
X0112109Y0165906D01*
X0111795Y0165697D01*
X0111795Y0169696D01*
X0115591Y0165900D01*
X0115207Y0166284D02*
X0114408Y0166284D01*
X0114034Y0166284D02*
X0113656Y0166284D01*
X0113283Y0166284D02*
X0111795Y0166284D01*
X0111795Y0167282D02*
X0114209Y0167282D01*
X0113210Y0168281D02*
X0111795Y0168281D01*
X0111795Y0169279D02*
X0112212Y0169279D01*
X0113656Y0165285D02*
X0114034Y0165285D01*
X0114034Y0164287D02*
X0113656Y0164287D01*
X0113656Y0163288D02*
X0114034Y0163288D01*
X0108395Y0160845D02*
X0108395Y0153893D01*
X0110642Y0151646D01*
X0110580Y0151497D01*
X0110580Y0150198D01*
X0111077Y0148998D01*
X0111533Y0148542D01*
X0110445Y0148542D01*
X0109634Y0149352D01*
X0108311Y0149900D01*
X0048555Y0149900D01*
X0042947Y0155508D01*
X0042947Y0161815D01*
X0042303Y0162459D01*
X0040526Y0162459D01*
X0040526Y0167890D01*
X0042974Y0170338D01*
X0055949Y0170338D01*
X0057272Y0170886D01*
X0058285Y0171899D01*
X0060884Y0174498D01*
X0061897Y0175511D01*
X0062445Y0176834D01*
X0062445Y0179379D01*
X0063513Y0178311D01*
X0065351Y0177550D01*
X0086090Y0177550D01*
X0087927Y0178311D01*
X0087927Y0178311D01*
X0089334Y0179718D01*
X0089472Y0180050D01*
X0089645Y0180050D01*
X0089645Y0176846D01*
X0093395Y0173096D01*
X0094391Y0172100D01*
X0097140Y0172100D01*
X0095111Y0171260D01*
X0092636Y0168784D01*
X0091296Y0165550D01*
X0091296Y0162050D01*
X0092636Y0158816D01*
X0095111Y0156340D01*
X0098345Y0155001D01*
X0101845Y0155001D01*
X0105079Y0156340D01*
X0107555Y0158816D01*
X0108395Y0160845D01*
X0108395Y0160292D02*
X0108166Y0160292D01*
X0108395Y0159294D02*
X0107753Y0159294D01*
X0108395Y0158295D02*
X0107035Y0158295D01*
X0106036Y0157297D02*
X0108395Y0157297D01*
X0108395Y0156298D02*
X0104978Y0156298D01*
X0102568Y0155300D02*
X0108395Y0155300D01*
X0108395Y0154301D02*
X0084686Y0154301D01*
X0084686Y0153303D02*
X0108985Y0153303D01*
X0109984Y0152304D02*
X0084686Y0152304D01*
X0084686Y0151319D02*
X0084686Y0155938D01*
X0078764Y0155938D01*
X0078764Y0150017D01*
X0083383Y0150017D01*
X0083765Y0150119D01*
X0084107Y0150316D01*
X0084386Y0150596D01*
X0084583Y0150938D01*
X0084686Y0151319D01*
X0084682Y0151306D02*
X0110580Y0151306D01*
X0110580Y0150307D02*
X0084091Y0150307D01*
X0084686Y0155300D02*
X0097623Y0155300D01*
X0095212Y0156298D02*
X0078764Y0156298D01*
X0078764Y0155938D02*
X0078764Y0156938D01*
X0077764Y0156938D01*
X0077764Y0155938D01*
X0071843Y0155938D01*
X0071843Y0151319D01*
X0071945Y0150938D01*
X0072143Y0150596D01*
X0072422Y0150316D01*
X0072764Y0150119D01*
X0073146Y0150017D01*
X0077764Y0150017D01*
X0077764Y0155938D01*
X0078764Y0155938D01*
X0078764Y0155300D02*
X0077764Y0155300D01*
X0077764Y0156298D02*
X0042947Y0156298D01*
X0042947Y0157297D02*
X0071843Y0157297D01*
X0071843Y0156938D02*
X0077764Y0156938D01*
X0077764Y0162859D01*
X0073146Y0162859D01*
X0072764Y0162757D01*
X0072422Y0162559D01*
X0072143Y0162280D01*
X0071945Y0161938D01*
X0071843Y0161557D01*
X0071843Y0156938D01*
X0071843Y0158295D02*
X0042947Y0158295D01*
X0042947Y0159294D02*
X0071843Y0159294D01*
X0071843Y0160292D02*
X0042947Y0160292D01*
X0042947Y0161291D02*
X0071843Y0161291D01*
X0072152Y0162289D02*
X0042472Y0162289D01*
X0040526Y0163288D02*
X0091296Y0163288D01*
X0091296Y0164287D02*
X0040526Y0164287D01*
X0040526Y0165285D02*
X0091296Y0165285D01*
X0091600Y0166284D02*
X0040526Y0166284D01*
X0040526Y0167282D02*
X0092013Y0167282D01*
X0092427Y0168281D02*
X0040917Y0168281D01*
X0041915Y0169279D02*
X0093130Y0169279D01*
X0094129Y0170278D02*
X0042914Y0170278D01*
X0043155Y0155300D02*
X0071843Y0155300D01*
X0071843Y0154301D02*
X0044153Y0154301D01*
X0045152Y0153303D02*
X0071843Y0153303D01*
X0071843Y0152304D02*
X0046150Y0152304D01*
X0047149Y0151306D02*
X0071847Y0151306D01*
X0072438Y0150307D02*
X0048147Y0150307D01*
X0043956Y0144316D02*
X0031345Y0144316D01*
X0031345Y0143318D02*
X0044955Y0143318D01*
X0045024Y0143248D02*
X0046348Y0142700D01*
X0084392Y0142700D01*
X0084392Y0140540D01*
X0088345Y0140540D01*
X0088345Y0139540D01*
X0084392Y0139540D01*
X0084392Y0137284D01*
X0084495Y0136902D01*
X0084692Y0136560D01*
X0084971Y0136281D01*
X0085306Y0136088D01*
X0084792Y0135575D01*
X0084792Y0134455D01*
X0083234Y0134457D01*
X0082866Y0134826D01*
X0081879Y0135234D01*
X0080811Y0135234D01*
X0079825Y0134826D01*
X0079070Y0134070D01*
X0078661Y0133084D01*
X0078661Y0132016D01*
X0079070Y0131029D01*
X0079825Y0130274D01*
X0080811Y0129866D01*
X0081879Y0129866D01*
X0082866Y0130274D01*
X0083249Y0130657D01*
X0084792Y0130655D01*
X0084792Y0129545D01*
X0084917Y0129421D01*
X0084339Y0128842D01*
X0084339Y0113862D01*
X0084286Y0113862D01*
X0084286Y0116539D01*
X0083641Y0117183D01*
X0072888Y0117183D01*
X0072243Y0116539D01*
X0072243Y0105785D01*
X0072888Y0105141D01*
X0083641Y0105141D01*
X0084286Y0105785D01*
X0084286Y0108462D01*
X0089445Y0108462D01*
X0089445Y0108196D01*
X0089070Y0107820D01*
X0088661Y0106834D01*
X0088661Y0105766D01*
X0089061Y0104800D01*
X0086039Y0104800D01*
X0085395Y0104156D01*
X0085395Y0095697D01*
X0085004Y0095859D01*
X0084795Y0095859D01*
X0084795Y0104156D01*
X0084151Y0104800D01*
X0081039Y0104800D01*
X0080395Y0104156D01*
X0080395Y0095444D01*
X0081039Y0094800D01*
X0082299Y0094800D01*
X0082195Y0094695D01*
X0081786Y0093709D01*
X0081786Y0092641D01*
X0082195Y0091654D01*
X0082950Y0090899D01*
X0083936Y0090491D01*
X0084467Y0090491D01*
X0092224Y0082734D01*
X0092061Y0082734D01*
X0091075Y0082326D01*
X0090320Y0081570D01*
X0089911Y0080584D01*
X0089911Y0080138D01*
X0089549Y0080500D01*
X0075941Y0080500D01*
X0075366Y0081076D01*
X0074379Y0081484D01*
X0073311Y0081484D01*
X0072325Y0081076D01*
X0071658Y0080409D01*
X0071370Y0080696D01*
X0071370Y0081138D01*
X0074632Y0084400D01*
X0080699Y0084400D01*
X0081075Y0084024D01*
X0082061Y0083616D01*
X0083129Y0083616D01*
X0084116Y0084024D01*
X0084871Y0084779D01*
X0085279Y0085766D01*
X0085279Y0086834D01*
X0084871Y0087820D01*
X0084116Y0088576D01*
X0083129Y0088984D01*
X0082061Y0088984D01*
X0081075Y0088576D01*
X0080699Y0088200D01*
X0073058Y0088200D01*
X0071945Y0087087D01*
X0067570Y0082712D01*
X0067570Y0080696D01*
X0067195Y0080320D01*
X0066786Y0079334D01*
X0066786Y0078266D01*
X0067195Y0077279D01*
X0067950Y0076524D01*
X0068936Y0076116D01*
X0070004Y0076116D01*
X0070991Y0076524D01*
X0071658Y0077191D01*
X0072325Y0076524D01*
X0073311Y0076116D01*
X0074379Y0076116D01*
X0075366Y0076524D01*
X0075941Y0077100D01*
X0088141Y0077100D01*
X0092507Y0072734D01*
X0092061Y0072734D01*
X0091075Y0072326D01*
X0090320Y0071570D01*
X0089911Y0070584D01*
X0089911Y0069516D01*
X0090320Y0068529D01*
X0090895Y0067954D01*
X0090895Y0067656D01*
X0090395Y0067156D01*
X0090395Y0059250D01*
X0089795Y0059250D01*
X0089795Y0067156D01*
X0089151Y0067800D01*
X0086170Y0067800D01*
X0086170Y0071379D01*
X0085174Y0072375D01*
X0082674Y0074875D01*
X0072191Y0074875D01*
X0071616Y0075451D01*
X0070629Y0075859D01*
X0069561Y0075859D01*
X0068575Y0075451D01*
X0067820Y0074695D01*
X0067411Y0073709D01*
X0067411Y0072734D01*
X0067061Y0072734D01*
X0066075Y0072326D01*
X0065320Y0071570D01*
X0064911Y0070584D01*
X0064911Y0069516D01*
X0065320Y0068529D01*
X0065895Y0067954D01*
X0065895Y0067656D01*
X0065395Y0067156D01*
X0065395Y0058444D01*
X0064795Y0058444D01*
X0064795Y0067156D01*
X0064295Y0067656D01*
X0064295Y0074204D01*
X0064871Y0074779D01*
X0065279Y0075766D01*
X0065279Y0076834D01*
X0064871Y0077820D01*
X0064116Y0078576D01*
X0063129Y0078984D01*
X0062061Y0078984D01*
X0061075Y0078576D01*
X0060320Y0077820D01*
X0059911Y0076834D01*
X0059911Y0075766D01*
X0060320Y0074779D01*
X0060895Y0074204D01*
X0060895Y0067656D01*
X0060395Y0067156D01*
X0060395Y0058444D01*
X0059795Y0058444D01*
X0059795Y0067156D01*
X0059151Y0067800D01*
X0056039Y0067800D01*
X0055395Y0067156D01*
X0055395Y0058444D01*
X0054795Y0058444D01*
X0054795Y0067156D01*
X0054151Y0067800D01*
X0051039Y0067800D01*
X0050395Y0067156D01*
X0050395Y0058444D01*
X0031345Y0058444D01*
X0031345Y0057446D02*
X0065433Y0057446D01*
X0065437Y0057449D02*
X0064792Y0056805D01*
X0064792Y0050775D01*
X0065437Y0050131D01*
X0072254Y0050131D01*
X0072898Y0050775D01*
X0072898Y0055439D01*
X0073309Y0055850D01*
X0077292Y0055850D01*
X0077292Y0050775D01*
X0077937Y0050131D01*
X0084754Y0050131D01*
X0085398Y0050775D01*
X0085398Y0052090D01*
X0085659Y0052090D01*
X0085659Y0051366D01*
X0086303Y0050722D01*
X0092113Y0050722D01*
X0090769Y0049378D01*
X0086303Y0049378D01*
X0085659Y0048734D01*
X0085659Y0044250D01*
X0085398Y0044250D01*
X0085398Y0049325D01*
X0084754Y0049969D01*
X0077937Y0049969D01*
X0077292Y0049325D01*
X0077292Y0048010D01*
X0075848Y0048010D01*
X0075004Y0048359D01*
X0073936Y0048359D01*
X0072950Y0047951D01*
X0072898Y0047899D01*
X0072898Y0049325D01*
X0072254Y0049969D01*
X0065437Y0049969D01*
X0064792Y0049325D01*
X0064792Y0048010D01*
X0064532Y0048010D01*
X0064532Y0048734D01*
X0063887Y0049378D01*
X0057464Y0049378D01*
X0056820Y0048734D01*
X0056820Y0045729D01*
X0055397Y0047152D01*
X0055870Y0047626D01*
X0055870Y0052100D01*
X0056820Y0052100D01*
X0056820Y0051366D01*
X0057464Y0050722D01*
X0063887Y0050722D01*
X0064532Y0051366D01*
X0064532Y0056214D01*
X0063887Y0056859D01*
X0057464Y0056859D01*
X0056820Y0056214D01*
X0056820Y0055500D01*
X0048141Y0055500D01*
X0047145Y0054504D01*
X0044020Y0051379D01*
X0044020Y0046069D01*
X0043829Y0046260D01*
X0040595Y0047599D01*
X0037095Y0047599D01*
X0033861Y0046260D01*
X0031386Y0043784D01*
X0031345Y0043687D01*
X0031345Y0105345D01*
X0031549Y0105141D01*
X0042303Y0105141D01*
X0042947Y0105785D01*
X0042947Y0116539D01*
X0042303Y0117183D01*
X0031549Y0117183D01*
X0031345Y0116980D01*
X0031345Y0150620D01*
X0031549Y0150417D01*
X0037856Y0150417D01*
X0045024Y0143248D01*
X0042958Y0145315D02*
X0031345Y0145315D01*
X0031345Y0146313D02*
X0041959Y0146313D01*
X0040961Y0147312D02*
X0031345Y0147312D01*
X0031345Y0148310D02*
X0039962Y0148310D01*
X0038964Y0149309D02*
X0031345Y0149309D01*
X0031345Y0150307D02*
X0037965Y0150307D01*
X0031345Y0142319D02*
X0084392Y0142319D01*
X0084392Y0141321D02*
X0031345Y0141321D01*
X0031345Y0140322D02*
X0088345Y0140322D01*
X0089345Y0140322D02*
X0120095Y0140322D01*
X0120095Y0139324D02*
X0093298Y0139324D01*
X0093298Y0138325D02*
X0120095Y0138325D01*
X0120095Y0137327D02*
X0093298Y0137327D01*
X0092766Y0136328D02*
X0120095Y0136328D01*
X0120095Y0135330D02*
X0092898Y0135330D01*
X0084924Y0136328D02*
X0031345Y0136328D01*
X0031345Y0135330D02*
X0084792Y0135330D01*
X0084392Y0137327D02*
X0031345Y0137327D01*
X0031345Y0138325D02*
X0084392Y0138325D01*
X0084392Y0139324D02*
X0031345Y0139324D01*
X0031345Y0134331D02*
X0079330Y0134331D01*
X0078764Y0133333D02*
X0031345Y0133333D01*
X0031345Y0132334D02*
X0078661Y0132334D01*
X0078943Y0131336D02*
X0031345Y0131336D01*
X0031345Y0130337D02*
X0079762Y0130337D01*
X0082928Y0130337D02*
X0084792Y0130337D01*
X0084835Y0129339D02*
X0031345Y0129339D01*
X0031345Y0128340D02*
X0084339Y0128340D01*
X0084339Y0127342D02*
X0031345Y0127342D01*
X0031345Y0126343D02*
X0084339Y0126343D01*
X0084339Y0125345D02*
X0031345Y0125345D01*
X0031345Y0124346D02*
X0084339Y0124346D01*
X0084339Y0123348D02*
X0031345Y0123348D01*
X0031345Y0122349D02*
X0084339Y0122349D01*
X0084339Y0121351D02*
X0031345Y0121351D01*
X0031345Y0120352D02*
X0084339Y0120352D01*
X0084339Y0119353D02*
X0031345Y0119353D01*
X0031345Y0118355D02*
X0084339Y0118355D01*
X0084339Y0117356D02*
X0031345Y0117356D01*
X0031345Y0104376D02*
X0050153Y0104376D01*
X0050097Y0104279D02*
X0049995Y0103897D01*
X0049995Y0099850D01*
X0052545Y0099850D01*
X0052545Y0099750D01*
X0049995Y0099750D01*
X0049995Y0095703D01*
X0050097Y0095321D01*
X0050295Y0094979D01*
X0050574Y0094700D01*
X0050916Y0094502D01*
X0051298Y0094400D01*
X0052545Y0094400D01*
X0052545Y0099750D01*
X0052645Y0099750D01*
X0052645Y0094400D01*
X0053893Y0094400D01*
X0054274Y0094502D01*
X0054616Y0094700D01*
X0054895Y0094979D01*
X0055093Y0095321D01*
X0055195Y0095703D01*
X0055195Y0099750D01*
X0052645Y0099750D01*
X0052645Y0099850D01*
X0052545Y0099850D01*
X0052545Y0105200D01*
X0051298Y0105200D01*
X0050916Y0105098D01*
X0050574Y0104900D01*
X0050295Y0104621D01*
X0050097Y0104279D01*
X0049995Y0103377D02*
X0031345Y0103377D01*
X0031345Y0102379D02*
X0049995Y0102379D01*
X0049995Y0101380D02*
X0047620Y0101380D01*
X0047595Y0101424D02*
X0047315Y0101703D01*
X0046973Y0101901D01*
X0046592Y0102003D01*
X0044335Y0102003D01*
X0044335Y0098050D01*
X0043335Y0098050D01*
X0043335Y0102003D01*
X0041079Y0102003D01*
X0040697Y0101901D01*
X0040355Y0101703D01*
X0040076Y0101424D01*
X0039883Y0101089D01*
X0039370Y0101603D01*
X0033340Y0101603D01*
X0032696Y0100958D01*
X0032696Y0094802D01*
X0032159Y0094802D01*
X0031515Y0094157D01*
X0031515Y0085766D01*
X0032159Y0085121D01*
X0033870Y0085121D01*
X0034391Y0084600D01*
X0036891Y0082100D01*
X0049741Y0082100D01*
X0045120Y0077479D01*
X0041608Y0077479D01*
X0040964Y0076834D01*
X0040964Y0069103D01*
X0040821Y0069103D01*
X0040307Y0068589D01*
X0040114Y0068924D01*
X0039835Y0069203D01*
X0039493Y0069401D01*
X0039227Y0069472D01*
X0039227Y0076834D01*
X0038582Y0077479D01*
X0032159Y0077479D01*
X0031515Y0076834D01*
X0031515Y0068443D01*
X0032159Y0067798D01*
X0032296Y0067798D01*
X0032296Y0065550D01*
X0035855Y0065550D01*
X0035855Y0064550D01*
X0036855Y0064550D01*
X0036855Y0060597D01*
X0039112Y0060597D01*
X0039493Y0060699D01*
X0039835Y0060897D01*
X0040114Y0061176D01*
X0040307Y0061511D01*
X0040821Y0060997D01*
X0046850Y0060997D01*
X0047494Y0061642D01*
X0047494Y0067798D01*
X0048031Y0067798D01*
X0048675Y0068443D01*
X0048675Y0076226D01*
X0064295Y0091846D01*
X0064295Y0094944D01*
X0064795Y0095444D01*
X0064795Y0104156D01*
X0064151Y0104800D01*
X0061039Y0104800D01*
X0060395Y0104156D01*
X0060395Y0095444D01*
X0060895Y0094944D01*
X0060895Y0093254D01*
X0059295Y0091654D01*
X0059295Y0094944D01*
X0059795Y0095444D01*
X0059795Y0104156D01*
X0059151Y0104800D01*
X0056039Y0104800D01*
X0055395Y0104156D01*
X0055395Y0095444D01*
X0055895Y0094944D01*
X0055895Y0092004D01*
X0049391Y0085500D01*
X0048410Y0085500D01*
X0048675Y0085766D01*
X0048675Y0094157D01*
X0048031Y0094802D01*
X0047894Y0094802D01*
X0047894Y0097050D01*
X0044335Y0097050D01*
X0044335Y0098050D01*
X0047894Y0098050D01*
X0047894Y0100700D01*
X0047792Y0101082D01*
X0047595Y0101424D01*
X0047894Y0100382D02*
X0049995Y0100382D01*
X0049995Y0099383D02*
X0047894Y0099383D01*
X0047894Y0098385D02*
X0049995Y0098385D01*
X0049995Y0097386D02*
X0044335Y0097386D01*
X0044335Y0098385D02*
X0043335Y0098385D01*
X0043335Y0099383D02*
X0044335Y0099383D01*
X0044335Y0100382D02*
X0043335Y0100382D01*
X0043335Y0101380D02*
X0044335Y0101380D01*
X0042536Y0105374D02*
X0072654Y0105374D01*
X0072243Y0106373D02*
X0042947Y0106373D01*
X0042947Y0107371D02*
X0072243Y0107371D01*
X0072243Y0108370D02*
X0042947Y0108370D01*
X0042947Y0109368D02*
X0072243Y0109368D01*
X0072243Y0110367D02*
X0042947Y0110367D01*
X0042947Y0111365D02*
X0072243Y0111365D01*
X0072243Y0112364D02*
X0042947Y0112364D01*
X0042947Y0113362D02*
X0072243Y0113362D01*
X0072243Y0114361D02*
X0042947Y0114361D01*
X0042947Y0115359D02*
X0072243Y0115359D01*
X0072243Y0116358D02*
X0042947Y0116358D01*
X0040051Y0101380D02*
X0039592Y0101380D01*
X0033118Y0101380D02*
X0031345Y0101380D01*
X0031345Y0100382D02*
X0032696Y0100382D01*
X0032696Y0099383D02*
X0031345Y0099383D01*
X0031345Y0098385D02*
X0032696Y0098385D01*
X0032696Y0097386D02*
X0031345Y0097386D01*
X0031345Y0096388D02*
X0032696Y0096388D01*
X0032696Y0095389D02*
X0031345Y0095389D01*
X0031345Y0094391D02*
X0031748Y0094391D01*
X0031515Y0093392D02*
X0031345Y0093392D01*
X0031345Y0092394D02*
X0031515Y0092394D01*
X0031515Y0091395D02*
X0031345Y0091395D01*
X0031345Y0090397D02*
X0031515Y0090397D01*
X0031515Y0089398D02*
X0031345Y0089398D01*
X0031345Y0088400D02*
X0031515Y0088400D01*
X0031515Y0087401D02*
X0031345Y0087401D01*
X0031345Y0086403D02*
X0031515Y0086403D01*
X0031345Y0085404D02*
X0031876Y0085404D01*
X0031345Y0084406D02*
X0034585Y0084406D01*
X0035584Y0083407D02*
X0031345Y0083407D01*
X0031345Y0082409D02*
X0036582Y0082409D01*
X0038645Y0077416D02*
X0041545Y0077416D01*
X0040964Y0076418D02*
X0039227Y0076418D01*
X0039227Y0075419D02*
X0040964Y0075419D01*
X0040964Y0074420D02*
X0039227Y0074420D01*
X0039227Y0073422D02*
X0040964Y0073422D01*
X0040964Y0072423D02*
X0039227Y0072423D01*
X0039227Y0071425D02*
X0040964Y0071425D01*
X0040964Y0070426D02*
X0039227Y0070426D01*
X0039391Y0069428D02*
X0040964Y0069428D01*
X0040378Y0061440D02*
X0040267Y0061440D01*
X0036855Y0061440D02*
X0035855Y0061440D01*
X0035855Y0060597D02*
X0035855Y0064550D01*
X0032296Y0064550D01*
X0032296Y0061900D01*
X0032398Y0061518D01*
X0032596Y0061176D01*
X0032875Y0060897D01*
X0033217Y0060699D01*
X0033598Y0060597D01*
X0035855Y0060597D01*
X0035855Y0062438D02*
X0036855Y0062438D01*
X0036855Y0063437D02*
X0035855Y0063437D01*
X0035855Y0064435D02*
X0036855Y0064435D01*
X0035855Y0065434D02*
X0031345Y0065434D01*
X0031345Y0066432D02*
X0032296Y0066432D01*
X0032296Y0067431D02*
X0031345Y0067431D01*
X0031345Y0068429D02*
X0031528Y0068429D01*
X0031515Y0069428D02*
X0031345Y0069428D01*
X0031345Y0070426D02*
X0031515Y0070426D01*
X0031515Y0071425D02*
X0031345Y0071425D01*
X0031345Y0072423D02*
X0031515Y0072423D01*
X0031515Y0073422D02*
X0031345Y0073422D01*
X0031345Y0074420D02*
X0031515Y0074420D01*
X0031515Y0075419D02*
X0031345Y0075419D01*
X0031345Y0076418D02*
X0031515Y0076418D01*
X0031345Y0077416D02*
X0032096Y0077416D01*
X0031345Y0078415D02*
X0046056Y0078415D01*
X0047054Y0079413D02*
X0031345Y0079413D01*
X0031345Y0080412D02*
X0048053Y0080412D01*
X0049051Y0081410D02*
X0031345Y0081410D01*
X0031345Y0064435D02*
X0032296Y0064435D01*
X0032296Y0063437D02*
X0031345Y0063437D01*
X0031345Y0062438D02*
X0032296Y0062438D01*
X0032443Y0061440D02*
X0031345Y0061440D01*
X0031345Y0060441D02*
X0050395Y0060441D01*
X0050395Y0059443D02*
X0031345Y0059443D01*
X0031345Y0056447D02*
X0057053Y0056447D01*
X0056039Y0057800D02*
X0055395Y0058444D01*
X0054795Y0058444D02*
X0054151Y0057800D01*
X0051039Y0057800D01*
X0050395Y0058444D01*
X0050395Y0061440D02*
X0047293Y0061440D01*
X0047494Y0062438D02*
X0050395Y0062438D01*
X0050395Y0063437D02*
X0047494Y0063437D01*
X0047494Y0064435D02*
X0050395Y0064435D01*
X0050395Y0065434D02*
X0047494Y0065434D01*
X0047494Y0066432D02*
X0050395Y0066432D01*
X0050670Y0067431D02*
X0047494Y0067431D01*
X0048662Y0068429D02*
X0060895Y0068429D01*
X0060895Y0069428D02*
X0048675Y0069428D01*
X0048675Y0070426D02*
X0060895Y0070426D01*
X0060895Y0071425D02*
X0048675Y0071425D01*
X0048675Y0072423D02*
X0060895Y0072423D01*
X0060895Y0073422D02*
X0048675Y0073422D01*
X0048675Y0074420D02*
X0060679Y0074420D01*
X0060055Y0075419D02*
X0048675Y0075419D01*
X0048867Y0076418D02*
X0059911Y0076418D01*
X0060152Y0077416D02*
X0049865Y0077416D01*
X0050864Y0078415D02*
X0060914Y0078415D01*
X0064277Y0078415D02*
X0066786Y0078415D01*
X0066819Y0079413D02*
X0051862Y0079413D01*
X0052861Y0080412D02*
X0067286Y0080412D01*
X0067570Y0081410D02*
X0053859Y0081410D01*
X0054858Y0082409D02*
X0067570Y0082409D01*
X0068265Y0083407D02*
X0055856Y0083407D01*
X0056855Y0084406D02*
X0069264Y0084406D01*
X0070262Y0085404D02*
X0057853Y0085404D01*
X0058852Y0086403D02*
X0071261Y0086403D01*
X0072259Y0087401D02*
X0059850Y0087401D01*
X0060849Y0088400D02*
X0080899Y0088400D01*
X0082454Y0091395D02*
X0063844Y0091395D01*
X0064295Y0092394D02*
X0081888Y0092394D01*
X0081786Y0093392D02*
X0064295Y0093392D01*
X0064295Y0094391D02*
X0082068Y0094391D01*
X0080450Y0095389D02*
X0079740Y0095389D01*
X0079795Y0095444D02*
X0079795Y0104156D01*
X0079151Y0104800D01*
X0076039Y0104800D01*
X0075395Y0104156D01*
X0075395Y0095444D01*
X0076039Y0094800D01*
X0079151Y0094800D01*
X0079795Y0095444D01*
X0079795Y0096388D02*
X0080395Y0096388D01*
X0080395Y0097386D02*
X0079795Y0097386D01*
X0079795Y0098385D02*
X0080395Y0098385D01*
X0080395Y0099383D02*
X0079795Y0099383D01*
X0079795Y0100382D02*
X0080395Y0100382D01*
X0080395Y0101380D02*
X0079795Y0101380D01*
X0079795Y0102379D02*
X0080395Y0102379D01*
X0080395Y0103377D02*
X0079795Y0103377D01*
X0079575Y0104376D02*
X0080615Y0104376D01*
X0083875Y0105374D02*
X0088823Y0105374D01*
X0088661Y0106373D02*
X0084286Y0106373D01*
X0084286Y0107371D02*
X0088884Y0107371D01*
X0089445Y0108370D02*
X0084286Y0108370D01*
X0084575Y0104376D02*
X0085615Y0104376D01*
X0085395Y0103377D02*
X0084795Y0103377D01*
X0084795Y0102379D02*
X0085395Y0102379D01*
X0085395Y0101380D02*
X0084795Y0101380D01*
X0084795Y0100382D02*
X0085395Y0100382D01*
X0085395Y0099383D02*
X0084795Y0099383D01*
X0084795Y0098385D02*
X0085395Y0098385D01*
X0085395Y0097386D02*
X0084795Y0097386D01*
X0084795Y0096388D02*
X0085395Y0096388D01*
X0084561Y0090397D02*
X0062846Y0090397D01*
X0061847Y0089398D02*
X0085560Y0089398D01*
X0086558Y0088400D02*
X0084292Y0088400D01*
X0085044Y0087401D02*
X0087557Y0087401D01*
X0088556Y0086403D02*
X0085279Y0086403D01*
X0085129Y0085404D02*
X0089554Y0085404D01*
X0090553Y0084406D02*
X0084497Y0084406D01*
X0088823Y0076418D02*
X0075108Y0076418D01*
X0072583Y0076418D02*
X0070733Y0076418D01*
X0071647Y0075419D02*
X0089822Y0075419D01*
X0090820Y0074420D02*
X0083129Y0074420D01*
X0084127Y0073422D02*
X0091819Y0073422D01*
X0091311Y0072423D02*
X0085126Y0072423D01*
X0086124Y0071425D02*
X0090259Y0071425D01*
X0089911Y0070426D02*
X0086170Y0070426D01*
X0086170Y0069428D02*
X0089947Y0069428D01*
X0090420Y0068429D02*
X0086170Y0068429D01*
X0089520Y0067431D02*
X0090670Y0067431D01*
X0090395Y0066432D02*
X0089795Y0066432D01*
X0089795Y0065434D02*
X0090395Y0065434D01*
X0090395Y0064435D02*
X0089795Y0064435D01*
X0089795Y0063437D02*
X0090395Y0063437D01*
X0090395Y0062438D02*
X0089795Y0062438D01*
X0089795Y0061440D02*
X0090395Y0061440D01*
X0090395Y0060441D02*
X0089795Y0060441D01*
X0089795Y0059443D02*
X0090395Y0059443D01*
X0091847Y0050456D02*
X0085079Y0050456D01*
X0085265Y0049458D02*
X0090849Y0049458D01*
X0085659Y0048459D02*
X0085398Y0048459D01*
X0085398Y0047461D02*
X0085659Y0047461D01*
X0085659Y0046462D02*
X0085398Y0046462D01*
X0085398Y0045464D02*
X0085659Y0045464D01*
X0085659Y0044465D02*
X0085398Y0044465D01*
X0085398Y0051455D02*
X0085659Y0051455D01*
X0077612Y0050456D02*
X0072579Y0050456D01*
X0072765Y0049458D02*
X0077426Y0049458D01*
X0077292Y0048459D02*
X0072898Y0048459D01*
X0072898Y0051455D02*
X0077292Y0051455D01*
X0077292Y0052453D02*
X0072898Y0052453D01*
X0072898Y0053452D02*
X0077292Y0053452D01*
X0077292Y0054450D02*
X0072898Y0054450D01*
X0072908Y0055449D02*
X0077292Y0055449D01*
X0070745Y0058094D02*
X0070100Y0057449D01*
X0065437Y0057449D01*
X0066039Y0057800D02*
X0065395Y0058444D01*
X0064795Y0058444D02*
X0064151Y0057800D01*
X0061039Y0057800D01*
X0060395Y0058444D01*
X0059795Y0058444D02*
X0059151Y0057800D01*
X0056039Y0057800D01*
X0055395Y0059443D02*
X0054795Y0059443D01*
X0054795Y0060441D02*
X0055395Y0060441D01*
X0055395Y0061440D02*
X0054795Y0061440D01*
X0054795Y0062438D02*
X0055395Y0062438D01*
X0055395Y0063437D02*
X0054795Y0063437D01*
X0054795Y0064435D02*
X0055395Y0064435D01*
X0055395Y0065434D02*
X0054795Y0065434D01*
X0054795Y0066432D02*
X0055395Y0066432D01*
X0055670Y0067431D02*
X0054520Y0067431D01*
X0059520Y0067431D02*
X0060670Y0067431D01*
X0060395Y0066432D02*
X0059795Y0066432D01*
X0059795Y0065434D02*
X0060395Y0065434D01*
X0060395Y0064435D02*
X0059795Y0064435D01*
X0059795Y0063437D02*
X0060395Y0063437D01*
X0060395Y0062438D02*
X0059795Y0062438D01*
X0059795Y0061440D02*
X0060395Y0061440D01*
X0060395Y0060441D02*
X0059795Y0060441D01*
X0059795Y0059443D02*
X0060395Y0059443D01*
X0064795Y0059443D02*
X0065395Y0059443D01*
X0065395Y0060441D02*
X0064795Y0060441D01*
X0064795Y0061440D02*
X0065395Y0061440D01*
X0065395Y0062438D02*
X0064795Y0062438D01*
X0064795Y0063437D02*
X0065395Y0063437D01*
X0065395Y0064435D02*
X0064795Y0064435D01*
X0064795Y0065434D02*
X0065395Y0065434D01*
X0065395Y0066432D02*
X0064795Y0066432D01*
X0064520Y0067431D02*
X0065670Y0067431D01*
X0065420Y0068429D02*
X0064295Y0068429D01*
X0064295Y0069428D02*
X0064947Y0069428D01*
X0064911Y0070426D02*
X0064295Y0070426D01*
X0064295Y0071425D02*
X0065259Y0071425D01*
X0064295Y0072423D02*
X0066311Y0072423D01*
X0067411Y0073422D02*
X0064295Y0073422D01*
X0064512Y0074420D02*
X0067706Y0074420D01*
X0068543Y0075419D02*
X0065136Y0075419D01*
X0065279Y0076418D02*
X0068208Y0076418D01*
X0067138Y0077416D02*
X0065038Y0077416D01*
X0070095Y0069071D02*
X0070320Y0068529D01*
X0070895Y0067954D01*
X0070895Y0067656D01*
X0070395Y0067156D01*
X0070395Y0058444D01*
X0069795Y0058444D01*
X0069795Y0067156D01*
X0069295Y0067656D01*
X0069295Y0067954D01*
X0069871Y0068529D01*
X0070095Y0069071D01*
X0069771Y0068429D02*
X0070420Y0068429D01*
X0070670Y0067431D02*
X0069520Y0067431D01*
X0069795Y0066432D02*
X0070395Y0066432D01*
X0070395Y0065434D02*
X0069795Y0065434D01*
X0069795Y0064435D02*
X0070395Y0064435D01*
X0070395Y0063437D02*
X0069795Y0063437D01*
X0069795Y0062438D02*
X0070395Y0062438D01*
X0070395Y0061440D02*
X0069795Y0061440D01*
X0069795Y0060441D02*
X0070395Y0060441D01*
X0070395Y0059443D02*
X0069795Y0059443D01*
X0069795Y0058444D02*
X0069151Y0057800D01*
X0066039Y0057800D01*
X0064792Y0056447D02*
X0064299Y0056447D01*
X0064532Y0055449D02*
X0064792Y0055449D01*
X0064792Y0054450D02*
X0064532Y0054450D01*
X0064532Y0053452D02*
X0064792Y0053452D01*
X0064792Y0052453D02*
X0064532Y0052453D01*
X0064532Y0051455D02*
X0064792Y0051455D01*
X0065112Y0050456D02*
X0055870Y0050456D01*
X0055870Y0049458D02*
X0064926Y0049458D01*
X0064792Y0048459D02*
X0064532Y0048459D01*
X0063974Y0040850D02*
X0067920Y0040850D01*
X0067753Y0040683D01*
X0067220Y0039396D01*
X0067220Y0033204D01*
X0067753Y0031917D01*
X0068370Y0031300D01*
X0063636Y0031300D01*
X0063749Y0031414D01*
X0064176Y0032053D01*
X0064470Y0032762D01*
X0064620Y0033516D01*
X0064620Y0036000D01*
X0061020Y0036000D01*
X0061020Y0036600D01*
X0064620Y0036600D01*
X0064620Y0039084D01*
X0064470Y0039838D01*
X0064176Y0040547D01*
X0063974Y0040850D01*
X0064208Y0040471D02*
X0067665Y0040471D01*
X0067252Y0039473D02*
X0064543Y0039473D01*
X0064620Y0038474D02*
X0067220Y0038474D01*
X0067220Y0037476D02*
X0064620Y0037476D01*
X0064620Y0035479D02*
X0067220Y0035479D01*
X0067220Y0036477D02*
X0061020Y0036477D01*
X0060420Y0036477D02*
X0054220Y0036477D01*
X0054220Y0035479D02*
X0056820Y0035479D01*
X0056820Y0036000D02*
X0056820Y0033516D01*
X0056970Y0032762D01*
X0057264Y0032053D01*
X0057691Y0031414D01*
X0057805Y0031300D01*
X0053070Y0031300D01*
X0053687Y0031917D01*
X0054220Y0033204D01*
X0054220Y0039396D01*
X0053687Y0040683D01*
X0052703Y0041667D01*
X0051416Y0042200D01*
X0050974Y0042200D01*
X0047420Y0045754D01*
X0047420Y0049971D01*
X0048159Y0050709D01*
X0048159Y0047626D01*
X0048803Y0046981D01*
X0050759Y0046981D01*
X0055895Y0041846D01*
X0056891Y0040850D01*
X0057466Y0040850D01*
X0057264Y0040547D01*
X0056970Y0039838D01*
X0056820Y0039084D01*
X0056820Y0036600D01*
X0060420Y0036600D01*
X0060420Y0036000D01*
X0056820Y0036000D01*
X0056820Y0037476D02*
X0054220Y0037476D01*
X0054220Y0038474D02*
X0056820Y0038474D01*
X0056897Y0039473D02*
X0054188Y0039473D01*
X0053775Y0040471D02*
X0057232Y0040471D01*
X0056271Y0041470D02*
X0052900Y0041470D01*
X0050706Y0042468D02*
X0055273Y0042468D01*
X0054274Y0043467D02*
X0049708Y0043467D01*
X0048709Y0044465D02*
X0053276Y0044465D01*
X0052277Y0045464D02*
X0047711Y0045464D01*
X0047420Y0046462D02*
X0051279Y0046462D01*
X0048324Y0047461D02*
X0047420Y0047461D01*
X0047420Y0048459D02*
X0048159Y0048459D01*
X0048159Y0049458D02*
X0047420Y0049458D01*
X0047905Y0050456D02*
X0048159Y0050456D01*
X0046093Y0053452D02*
X0031345Y0053452D01*
X0031345Y0054450D02*
X0047091Y0054450D01*
X0048090Y0055449D02*
X0031345Y0055449D01*
X0031345Y0052453D02*
X0045094Y0052453D01*
X0044096Y0051455D02*
X0031345Y0051455D01*
X0031345Y0050456D02*
X0044020Y0050456D01*
X0044020Y0049458D02*
X0031345Y0049458D01*
X0031345Y0048459D02*
X0044020Y0048459D01*
X0044020Y0047461D02*
X0040930Y0047461D01*
X0043340Y0046462D02*
X0044020Y0046462D01*
X0036760Y0047461D02*
X0031345Y0047461D01*
X0031345Y0046462D02*
X0034350Y0046462D01*
X0033065Y0045464D02*
X0031345Y0045464D01*
X0031345Y0044465D02*
X0032066Y0044465D01*
X0053254Y0031484D02*
X0057644Y0031484D01*
X0057086Y0032483D02*
X0053922Y0032483D01*
X0054220Y0033482D02*
X0056827Y0033482D01*
X0056820Y0034480D02*
X0054220Y0034480D01*
X0056087Y0046462D02*
X0056820Y0046462D01*
X0056820Y0047461D02*
X0055705Y0047461D01*
X0055870Y0048459D02*
X0056820Y0048459D01*
X0056820Y0051455D02*
X0055870Y0051455D01*
X0064620Y0034480D02*
X0067220Y0034480D01*
X0067220Y0033482D02*
X0064613Y0033482D01*
X0064355Y0032483D02*
X0067519Y0032483D01*
X0068186Y0031484D02*
X0063797Y0031484D01*
X0070745Y0058094D02*
X0070395Y0058444D01*
X0071655Y0080412D02*
X0071661Y0080412D01*
X0071642Y0081410D02*
X0073132Y0081410D01*
X0072641Y0082409D02*
X0091275Y0082409D01*
X0091551Y0083407D02*
X0073639Y0083407D01*
X0074558Y0081410D02*
X0090253Y0081410D01*
X0089911Y0080412D02*
X0089638Y0080412D01*
X0098045Y0057446D02*
X0098142Y0057446D01*
X0075450Y0095389D02*
X0074740Y0095389D01*
X0074795Y0095444D02*
X0074795Y0104156D01*
X0074151Y0104800D01*
X0071039Y0104800D01*
X0070395Y0104156D01*
X0070395Y0095444D01*
X0071039Y0094800D01*
X0074151Y0094800D01*
X0074795Y0095444D01*
X0074795Y0096388D02*
X0075395Y0096388D01*
X0075395Y0097386D02*
X0074795Y0097386D01*
X0074795Y0098385D02*
X0075395Y0098385D01*
X0075395Y0099383D02*
X0074795Y0099383D01*
X0074795Y0100382D02*
X0075395Y0100382D01*
X0075395Y0101380D02*
X0074795Y0101380D01*
X0074795Y0102379D02*
X0075395Y0102379D01*
X0075395Y0103377D02*
X0074795Y0103377D01*
X0074575Y0104376D02*
X0075615Y0104376D01*
X0070615Y0104376D02*
X0069575Y0104376D01*
X0069795Y0104156D02*
X0069151Y0104800D01*
X0066039Y0104800D01*
X0065395Y0104156D01*
X0065395Y0095444D01*
X0066039Y0094800D01*
X0069151Y0094800D01*
X0069795Y0095444D01*
X0069795Y0104156D01*
X0069795Y0103377D02*
X0070395Y0103377D01*
X0070395Y0102379D02*
X0069795Y0102379D01*
X0069795Y0101380D02*
X0070395Y0101380D01*
X0070395Y0100382D02*
X0069795Y0100382D01*
X0069795Y0099383D02*
X0070395Y0099383D01*
X0070395Y0098385D02*
X0069795Y0098385D01*
X0069795Y0097386D02*
X0070395Y0097386D01*
X0070395Y0096388D02*
X0069795Y0096388D01*
X0069740Y0095389D02*
X0070450Y0095389D01*
X0065450Y0095389D02*
X0064740Y0095389D01*
X0064795Y0096388D02*
X0065395Y0096388D01*
X0065395Y0097386D02*
X0064795Y0097386D01*
X0064795Y0098385D02*
X0065395Y0098385D01*
X0065395Y0099383D02*
X0064795Y0099383D01*
X0064795Y0100382D02*
X0065395Y0100382D01*
X0065395Y0101380D02*
X0064795Y0101380D01*
X0064795Y0102379D02*
X0065395Y0102379D01*
X0065395Y0103377D02*
X0064795Y0103377D01*
X0064575Y0104376D02*
X0065615Y0104376D01*
X0060615Y0104376D02*
X0059575Y0104376D01*
X0059795Y0103377D02*
X0060395Y0103377D01*
X0060395Y0102379D02*
X0059795Y0102379D01*
X0059795Y0101380D02*
X0060395Y0101380D01*
X0060395Y0100382D02*
X0059795Y0100382D01*
X0059795Y0099383D02*
X0060395Y0099383D01*
X0060395Y0098385D02*
X0059795Y0098385D01*
X0059795Y0097386D02*
X0060395Y0097386D01*
X0060395Y0096388D02*
X0059795Y0096388D01*
X0059740Y0095389D02*
X0060450Y0095389D01*
X0060895Y0094391D02*
X0059295Y0094391D01*
X0059295Y0093392D02*
X0060895Y0093392D01*
X0060035Y0092394D02*
X0059295Y0092394D01*
X0055895Y0092394D02*
X0048675Y0092394D01*
X0048675Y0093392D02*
X0055895Y0093392D01*
X0055895Y0094391D02*
X0048442Y0094391D01*
X0047894Y0095389D02*
X0050079Y0095389D01*
X0049995Y0096388D02*
X0047894Y0096388D01*
X0048675Y0091395D02*
X0055286Y0091395D01*
X0054288Y0090397D02*
X0048675Y0090397D01*
X0048675Y0089398D02*
X0053289Y0089398D01*
X0052291Y0088400D02*
X0048675Y0088400D01*
X0048675Y0087401D02*
X0051292Y0087401D01*
X0050294Y0086403D02*
X0048675Y0086403D01*
X0052545Y0095389D02*
X0052645Y0095389D01*
X0052645Y0096388D02*
X0052545Y0096388D01*
X0052545Y0097386D02*
X0052645Y0097386D01*
X0052645Y0098385D02*
X0052545Y0098385D01*
X0052545Y0099383D02*
X0052645Y0099383D01*
X0052645Y0099850D02*
X0055195Y0099850D01*
X0055195Y0103897D01*
X0055093Y0104279D01*
X0054895Y0104621D01*
X0054616Y0104900D01*
X0054274Y0105098D01*
X0053893Y0105200D01*
X0052645Y0105200D01*
X0052645Y0099850D01*
X0052645Y0100382D02*
X0052545Y0100382D01*
X0052545Y0101380D02*
X0052645Y0101380D01*
X0052645Y0102379D02*
X0052545Y0102379D01*
X0052545Y0103377D02*
X0052645Y0103377D01*
X0052645Y0104376D02*
X0052545Y0104376D01*
X0055037Y0104376D02*
X0055615Y0104376D01*
X0055395Y0103377D02*
X0055195Y0103377D01*
X0055195Y0102379D02*
X0055395Y0102379D01*
X0055395Y0101380D02*
X0055195Y0101380D01*
X0055195Y0100382D02*
X0055395Y0100382D01*
X0055395Y0099383D02*
X0055195Y0099383D01*
X0055195Y0098385D02*
X0055395Y0098385D01*
X0055395Y0097386D02*
X0055195Y0097386D01*
X0055195Y0096388D02*
X0055395Y0096388D01*
X0055450Y0095389D02*
X0055111Y0095389D01*
X0084286Y0114361D02*
X0084339Y0114361D01*
X0084339Y0115359D02*
X0084286Y0115359D01*
X0084286Y0116358D02*
X0084339Y0116358D01*
X0078764Y0150307D02*
X0077764Y0150307D01*
X0077764Y0151306D02*
X0078764Y0151306D01*
X0078764Y0152304D02*
X0077764Y0152304D01*
X0077764Y0153303D02*
X0078764Y0153303D01*
X0078764Y0154301D02*
X0077764Y0154301D01*
X0078764Y0156938D02*
X0084686Y0156938D01*
X0084686Y0161557D01*
X0084583Y0161938D01*
X0084386Y0162280D01*
X0084107Y0162559D01*
X0083765Y0162757D01*
X0083383Y0162859D01*
X0078764Y0162859D01*
X0078764Y0156938D01*
X0078764Y0157297D02*
X0077764Y0157297D01*
X0077764Y0158295D02*
X0078764Y0158295D01*
X0078764Y0159294D02*
X0077764Y0159294D01*
X0077764Y0160292D02*
X0078764Y0160292D01*
X0078764Y0161291D02*
X0077764Y0161291D01*
X0077764Y0162289D02*
X0078764Y0162289D01*
X0084377Y0162289D02*
X0091296Y0162289D01*
X0091610Y0161291D02*
X0084686Y0161291D01*
X0084686Y0160292D02*
X0092024Y0160292D01*
X0092437Y0159294D02*
X0084686Y0159294D01*
X0084686Y0158295D02*
X0093156Y0158295D01*
X0094154Y0157297D02*
X0084686Y0157297D01*
X0094216Y0172275D02*
X0058661Y0172275D01*
X0059659Y0173273D02*
X0093218Y0173273D01*
X0092219Y0174272D02*
X0060658Y0174272D01*
X0061656Y0175270D02*
X0091221Y0175270D01*
X0090222Y0176269D02*
X0062211Y0176269D01*
X0062445Y0177267D02*
X0089645Y0177267D01*
X0089645Y0178266D02*
X0087817Y0178266D01*
X0088880Y0179264D02*
X0089645Y0179264D01*
X0089334Y0179718D02*
X0089334Y0179718D01*
X0095151Y0171276D02*
X0057662Y0171276D01*
X0062445Y0178266D02*
X0063623Y0178266D01*
X0063513Y0178311D02*
X0063513Y0178311D01*
X0062560Y0179264D02*
X0062445Y0179264D01*
X0109677Y0149309D02*
X0110948Y0149309D01*
D26*
X0118220Y0153800D03*
X0117595Y0106925D03*
X0109470Y0081925D03*
X0113845Y0080675D03*
X0105095Y0053800D03*
X0095095Y0042550D03*
X0092595Y0070050D03*
X0092595Y0080050D03*
X0084470Y0093175D03*
X0082595Y0086300D03*
X0076345Y0090675D03*
X0073845Y0078800D03*
X0069470Y0078800D03*
X0070095Y0073175D03*
X0072595Y0070050D03*
X0067595Y0070050D03*
X0062595Y0076300D03*
X0065720Y0081300D03*
X0081345Y0069425D03*
X0074470Y0045675D03*
X0050095Y0045675D03*
X0091345Y0106300D03*
X0081345Y0132550D03*
X0067595Y0153800D03*
X0061345Y0153800D03*
X0055095Y0153800D03*
X0055095Y0121925D03*
D27*
X0073845Y0086300D02*
X0082595Y0086300D01*
X0084470Y0093175D02*
X0095095Y0082550D01*
X0100095Y0077550D01*
X0100095Y0072000D01*
X0105095Y0100060D02*
X0103855Y0101300D01*
X0091345Y0106300D02*
X0091345Y0111162D01*
X0088835Y0132550D02*
X0081345Y0132560D01*
X0081345Y0132550D01*
X0073845Y0086300D02*
X0069470Y0081925D01*
X0069470Y0078800D01*
X0054945Y0186445D02*
X0054347Y0187043D01*
X0052399Y0187850D01*
X0047445Y0187850D01*
X0047485Y0187881D01*
X0048239Y0188634D01*
X0048888Y0189480D01*
X0049421Y0190403D01*
X0049829Y0191388D01*
X0050104Y0192417D01*
X0050208Y0193207D01*
X0042913Y0193207D01*
X0042913Y0194807D01*
X0041313Y0194807D01*
X0041313Y0202102D01*
X0040523Y0201998D01*
X0039494Y0201722D01*
X0038509Y0201315D01*
X0037586Y0200782D01*
X0036740Y0200133D01*
X0035987Y0199379D01*
X0035338Y0198534D01*
X0034805Y0197611D01*
X0034397Y0196626D01*
X0034121Y0195596D01*
X0034017Y0194807D01*
X0041313Y0194807D01*
X0041313Y0193207D01*
X0034017Y0193207D01*
X0034121Y0192417D01*
X0034397Y0191388D01*
X0034805Y0190403D01*
X0035338Y0189480D01*
X0035987Y0188634D01*
X0036701Y0187920D01*
X0036664Y0187923D01*
X0034894Y0188498D01*
X0033388Y0189593D01*
X0032294Y0191099D01*
X0031718Y0192869D01*
X0031645Y0193800D01*
X0031645Y0217783D01*
X0031696Y0217694D01*
X0032392Y0216787D01*
X0033201Y0215979D01*
X0034108Y0215283D01*
X0035098Y0214711D01*
X0036154Y0214274D01*
X0037258Y0213978D01*
X0038163Y0213859D01*
X0038163Y0221750D01*
X0039763Y0221750D01*
X0039763Y0213859D01*
X0040668Y0213978D01*
X0041773Y0214274D01*
X0042829Y0214711D01*
X0043819Y0215283D01*
X0044726Y0215979D01*
X0045534Y0216787D01*
X0046230Y0217694D01*
X0046802Y0218684D01*
X0047239Y0219741D01*
X0047535Y0220845D01*
X0047654Y0221750D01*
X0039763Y0221750D01*
X0039763Y0223350D01*
X0038163Y0223350D01*
X0038163Y0231241D01*
X0037258Y0231122D01*
X0036154Y0230826D01*
X0035098Y0230389D01*
X0034108Y0229817D01*
X0033201Y0229121D01*
X0032392Y0228313D01*
X0031696Y0227406D01*
X0031645Y0227317D01*
X0031645Y0261882D01*
X0033691Y0259836D01*
X0037035Y0258451D01*
X0038629Y0258451D01*
X0038509Y0258401D01*
X0037586Y0257868D01*
X0036740Y0257219D01*
X0035987Y0256466D01*
X0035338Y0255620D01*
X0034805Y0254697D01*
X0034397Y0253712D01*
X0034121Y0252683D01*
X0034017Y0251893D01*
X0041313Y0251893D01*
X0041313Y0250293D01*
X0042913Y0250293D01*
X0042913Y0242998D01*
X0043702Y0243102D01*
X0044732Y0243378D01*
X0045717Y0243785D01*
X0046640Y0244318D01*
X0047485Y0244967D01*
X0048239Y0245721D01*
X0048888Y0246566D01*
X0049421Y0247489D01*
X0049829Y0248474D01*
X0050104Y0249504D01*
X0050208Y0250293D01*
X0042913Y0250293D01*
X0042913Y0251893D01*
X0050208Y0251893D01*
X0050104Y0252683D01*
X0049829Y0253712D01*
X0049421Y0254697D01*
X0048888Y0255620D01*
X0048239Y0256466D01*
X0047485Y0257219D01*
X0046640Y0257868D01*
X0045717Y0258401D01*
X0044732Y0258809D01*
X0043702Y0259085D01*
X0042913Y0259189D01*
X0042913Y0251893D01*
X0041313Y0251893D01*
X0041313Y0258723D01*
X0043999Y0259836D01*
X0046559Y0262396D01*
X0047944Y0265740D01*
X0047944Y0269360D01*
X0046559Y0272704D01*
X0044513Y0274750D01*
X0112595Y0274750D01*
X0113721Y0274661D01*
X0115864Y0273965D01*
X0116860Y0273241D01*
X0114425Y0274250D01*
X0110765Y0274250D01*
X0107384Y0272849D01*
X0104796Y0270261D01*
X0103395Y0266880D01*
X0103395Y0263220D01*
X0104796Y0259839D01*
X0107384Y0257251D01*
X0110765Y0255850D01*
X0114425Y0255850D01*
X0117807Y0257251D01*
X0119795Y0259239D01*
X0119795Y0225861D01*
X0117807Y0227849D01*
X0114425Y0229250D01*
X0110765Y0229250D01*
X0107384Y0227849D01*
X0104796Y0225261D01*
X0103395Y0221880D01*
X0103395Y0218220D01*
X0104796Y0214839D01*
X0107384Y0212251D01*
X0110765Y0210850D01*
X0114425Y0210850D01*
X0117807Y0212251D01*
X0119795Y0214239D01*
X0119795Y0200718D01*
X0117749Y0202764D01*
X0114405Y0204149D01*
X0110785Y0204149D01*
X0107441Y0202764D01*
X0104881Y0200204D01*
X0103496Y0196860D01*
X0103496Y0193240D01*
X0104881Y0189896D01*
X0106927Y0187850D01*
X0099041Y0187850D01*
X0097093Y0187043D01*
X0095845Y0185795D01*
X0095845Y0188628D01*
X0096063Y0188585D01*
X0096453Y0188585D01*
X0096453Y0192550D01*
X0096453Y0196515D01*
X0096063Y0196515D01*
X0095297Y0196363D01*
X0094575Y0196064D01*
X0093926Y0195630D01*
X0093373Y0195078D01*
X0093249Y0194891D01*
X0092567Y0195573D01*
X0091257Y0196115D01*
X0089839Y0196115D01*
X0089819Y0196107D01*
X0080025Y0205901D01*
X0084595Y0210472D01*
X0084595Y0222358D01*
X0085315Y0221638D01*
X0086795Y0221025D01*
X0088396Y0221025D01*
X0089875Y0221638D01*
X0091007Y0222770D01*
X0091620Y0224249D01*
X0091620Y0225851D01*
X0091007Y0227330D01*
X0089875Y0228462D01*
X0088396Y0229075D01*
X0086795Y0229075D01*
X0085315Y0228462D01*
X0084595Y0227742D01*
X0084595Y0231792D01*
X0084712Y0231675D01*
X0085276Y0231265D01*
X0085897Y0230949D01*
X0086559Y0230734D01*
X0087247Y0230625D01*
X0087520Y0230625D01*
X0087520Y0234975D01*
X0087670Y0234975D01*
X0087670Y0230625D01*
X0087943Y0230625D01*
X0088631Y0230734D01*
X0089294Y0230949D01*
X0089914Y0231265D01*
X0090478Y0231675D01*
X0090970Y0232167D01*
X0091380Y0232731D01*
X0091696Y0233351D01*
X0091911Y0234014D01*
X0092020Y0234702D01*
X0092020Y0234975D01*
X0087670Y0234975D01*
X0087670Y0235125D01*
X0087520Y0235125D01*
X0087520Y0239475D01*
X0087247Y0239475D01*
X0086559Y0239366D01*
X0085897Y0239151D01*
X0085276Y0238835D01*
X0084712Y0238425D01*
X0084595Y0238308D01*
X0084595Y0242358D01*
X0085315Y0241638D01*
X0086795Y0241025D01*
X0088396Y0241025D01*
X0089875Y0241638D01*
X0091007Y0242770D01*
X0091620Y0244249D01*
X0091620Y0245851D01*
X0091007Y0247330D01*
X0089875Y0248462D01*
X0088396Y0249075D01*
X0086795Y0249075D01*
X0085315Y0248462D01*
X0084595Y0247742D01*
X0084595Y0249222D01*
X0086515Y0251141D01*
X0086795Y0251025D01*
X0088396Y0251025D01*
X0089875Y0251638D01*
X0091007Y0252770D01*
X0091620Y0254249D01*
X0091620Y0255851D01*
X0091007Y0257330D01*
X0089875Y0258462D01*
X0088396Y0259075D01*
X0086795Y0259075D01*
X0085315Y0258462D01*
X0084183Y0257330D01*
X0083570Y0255851D01*
X0083570Y0254249D01*
X0083686Y0253969D01*
X0081312Y0251595D01*
X0081007Y0252330D01*
X0079875Y0253462D01*
X0078396Y0254075D01*
X0076795Y0254075D01*
X0075315Y0253462D01*
X0074183Y0252330D01*
X0073570Y0250851D01*
X0073570Y0249249D01*
X0074183Y0247770D01*
X0075315Y0246638D01*
X0076795Y0246025D01*
X0078396Y0246025D01*
X0079875Y0246638D01*
X0080595Y0247358D01*
X0080595Y0243308D01*
X0080478Y0243425D01*
X0079914Y0243835D01*
X0079294Y0244151D01*
X0078631Y0244366D01*
X0077943Y0244475D01*
X0077670Y0244475D01*
X0077670Y0240125D01*
X0077520Y0240125D01*
X0077520Y0239975D01*
X0073170Y0239975D01*
X0073170Y0239702D01*
X0073279Y0239014D01*
X0073494Y0238351D01*
X0073811Y0237731D01*
X0074220Y0237167D01*
X0074712Y0236675D01*
X0075276Y0236265D01*
X0075897Y0235949D01*
X0076559Y0235734D01*
X0077247Y0235625D01*
X0077520Y0235625D01*
X0077520Y0239975D01*
X0077670Y0239975D01*
X0077670Y0235625D01*
X0077943Y0235625D01*
X0078631Y0235734D01*
X0079294Y0235949D01*
X0079914Y0236265D01*
X0080478Y0236675D01*
X0080595Y0236792D01*
X0080595Y0232742D01*
X0079875Y0233462D01*
X0078396Y0234075D01*
X0076795Y0234075D01*
X0075315Y0233462D01*
X0074183Y0232330D01*
X0073570Y0230851D01*
X0073570Y0229249D01*
X0074183Y0227770D01*
X0075315Y0226638D01*
X0076795Y0226025D01*
X0078396Y0226025D01*
X0079875Y0226638D01*
X0080595Y0227358D01*
X0080595Y0212128D01*
X0077197Y0208730D01*
X0076927Y0208999D01*
X0067010Y0208999D01*
X0066956Y0209130D01*
X0065898Y0210188D01*
X0064515Y0210761D01*
X0063018Y0210761D01*
X0061635Y0210188D01*
X0060577Y0209130D01*
X0060004Y0207747D01*
X0060004Y0206250D01*
X0060577Y0204868D01*
X0061635Y0203809D01*
X0063018Y0203237D01*
X0064515Y0203237D01*
X0065898Y0203809D01*
X0066956Y0204868D01*
X0067010Y0204999D01*
X0075271Y0204999D01*
X0076368Y0203901D01*
X0084154Y0196115D01*
X0083933Y0196115D01*
X0083914Y0196107D01*
X0079221Y0200800D01*
X0062174Y0200800D01*
X0057404Y0205570D01*
X0057686Y0206250D01*
X0057686Y0207310D01*
X0059509Y0208670D01*
X0059674Y0208670D01*
X0060157Y0209154D01*
X0060705Y0209562D01*
X0060729Y0209725D01*
X0060845Y0209842D01*
X0060845Y0210525D01*
X0060944Y0211202D01*
X0060845Y0211334D01*
X0060845Y0212277D01*
X0061635Y0211487D01*
X0063018Y0210914D01*
X0064515Y0210914D01*
X0065898Y0211487D01*
X0066956Y0212545D01*
X0067529Y0213928D01*
X0067529Y0215424D01*
X0066956Y0216807D01*
X0065898Y0217865D01*
X0064515Y0218438D01*
X0063018Y0218438D01*
X0061635Y0217865D01*
X0060845Y0217075D01*
X0060845Y0220151D01*
X0061635Y0219361D01*
X0063018Y0218788D01*
X0064515Y0218788D01*
X0065898Y0219361D01*
X0066956Y0220419D01*
X0067529Y0221802D01*
X0067529Y0223298D01*
X0066956Y0224681D01*
X0065898Y0225739D01*
X0064515Y0226312D01*
X0063018Y0226312D01*
X0061635Y0225739D01*
X0060845Y0224949D01*
X0060845Y0228025D01*
X0061635Y0227235D01*
X0063018Y0226662D01*
X0064515Y0226662D01*
X0065898Y0227235D01*
X0066956Y0228293D01*
X0067529Y0229676D01*
X0067529Y0231172D01*
X0066956Y0232555D01*
X0065898Y0233613D01*
X0064515Y0234186D01*
X0063018Y0234186D01*
X0061635Y0233613D01*
X0060845Y0232823D01*
X0060845Y0235702D01*
X0061635Y0234912D01*
X0063018Y0234339D01*
X0064515Y0234339D01*
X0065898Y0234912D01*
X0066956Y0235970D01*
X0067529Y0237353D01*
X0067529Y0238850D01*
X0066956Y0240232D01*
X0065898Y0241291D01*
X0064515Y0241863D01*
X0063018Y0241863D01*
X0061635Y0241291D01*
X0060845Y0240500D01*
X0060845Y0244222D01*
X0074288Y0257665D01*
X0075315Y0256638D01*
X0076795Y0256025D01*
X0078396Y0256025D01*
X0079875Y0256638D01*
X0081007Y0257770D01*
X0081620Y0259249D01*
X0081620Y0260851D01*
X0081007Y0262330D01*
X0079875Y0263462D01*
X0078396Y0264075D01*
X0076795Y0264075D01*
X0075315Y0263462D01*
X0074183Y0262330D01*
X0074067Y0262050D01*
X0073017Y0262050D01*
X0071845Y0260878D01*
X0058017Y0247050D01*
X0058017Y0247050D01*
X0056845Y0245878D01*
X0056845Y0240500D01*
X0056055Y0241291D01*
X0054672Y0241863D01*
X0053176Y0241863D01*
X0051793Y0241291D01*
X0050734Y0240232D01*
X0050162Y0238850D01*
X0050162Y0237353D01*
X0050734Y0235970D01*
X0051793Y0234912D01*
X0053176Y0234339D01*
X0054672Y0234339D01*
X0056055Y0234912D01*
X0056845Y0235702D01*
X0056845Y0231642D01*
X0056055Y0232432D01*
X0054672Y0233005D01*
X0053176Y0233005D01*
X0051793Y0232432D01*
X0050734Y0231374D01*
X0050162Y0229991D01*
X0050162Y0228495D01*
X0050734Y0227112D01*
X0051793Y0226053D01*
X0053176Y0225481D01*
X0053278Y0225481D01*
X0052949Y0225429D01*
X0052326Y0225226D01*
X0051742Y0224929D01*
X0051212Y0224544D01*
X0050749Y0224080D01*
X0050364Y0223550D01*
X0050067Y0222967D01*
X0049864Y0222344D01*
X0049762Y0221696D01*
X0049762Y0221369D01*
X0053924Y0221369D01*
X0053924Y0221369D01*
X0049762Y0221369D01*
X0049762Y0221041D01*
X0049864Y0220394D01*
X0050067Y0219771D01*
X0050364Y0219187D01*
X0050749Y0218657D01*
X0051212Y0218194D01*
X0051742Y0217809D01*
X0052326Y0217512D01*
X0052949Y0217309D01*
X0053278Y0217257D01*
X0053176Y0217257D01*
X0051793Y0216684D01*
X0050734Y0215626D01*
X0050162Y0214243D01*
X0050162Y0212747D01*
X0050734Y0211364D01*
X0051793Y0210305D01*
X0051934Y0210247D01*
X0051793Y0210188D01*
X0050734Y0209130D01*
X0050162Y0207747D01*
X0050162Y0206250D01*
X0050734Y0204868D01*
X0051793Y0203809D01*
X0053176Y0203237D01*
X0054080Y0203237D01*
X0059345Y0197972D01*
X0060517Y0196800D01*
X0077564Y0196800D01*
X0077914Y0196450D01*
X0064319Y0196450D01*
X0062886Y0195856D01*
X0061789Y0194759D01*
X0055539Y0188509D01*
X0054945Y0187076D01*
X0054945Y0186445D01*
X0054347Y0187043D02*
X0054347Y0187043D01*
X0055065Y0187364D02*
X0053573Y0187364D01*
X0055992Y0188962D02*
X0048491Y0188962D01*
X0049486Y0190561D02*
X0057591Y0190561D01*
X0059189Y0192159D02*
X0050035Y0192159D01*
X0050208Y0194807D02*
X0050104Y0195596D01*
X0049829Y0196626D01*
X0049421Y0197611D01*
X0048888Y0198534D01*
X0048239Y0199379D01*
X0047485Y0200133D01*
X0046640Y0200782D01*
X0045717Y0201315D01*
X0044732Y0201722D01*
X0043702Y0201998D01*
X0042913Y0202102D01*
X0042913Y0194807D01*
X0050208Y0194807D01*
X0050136Y0195356D02*
X0062386Y0195356D01*
X0060788Y0193758D02*
X0042913Y0193758D01*
X0042913Y0195356D02*
X0041313Y0195356D01*
X0041313Y0193758D02*
X0031648Y0193758D01*
X0031645Y0195356D02*
X0034090Y0195356D01*
X0034533Y0196955D02*
X0031645Y0196955D01*
X0031645Y0198553D02*
X0035353Y0198553D01*
X0036765Y0200152D02*
X0031645Y0200152D01*
X0031645Y0201751D02*
X0039599Y0201751D01*
X0041313Y0201751D02*
X0042913Y0201751D01*
X0042913Y0200152D02*
X0041313Y0200152D01*
X0041313Y0198553D02*
X0042913Y0198553D01*
X0042913Y0196955D02*
X0041313Y0196955D01*
X0044627Y0201751D02*
X0055566Y0201751D01*
X0057165Y0200152D02*
X0047460Y0200152D01*
X0048873Y0198553D02*
X0058763Y0198553D01*
X0060362Y0196955D02*
X0049692Y0196955D01*
X0052904Y0203349D02*
X0031645Y0203349D01*
X0031645Y0204948D02*
X0050701Y0204948D01*
X0050162Y0206546D02*
X0031645Y0206546D01*
X0031645Y0208145D02*
X0050326Y0208145D01*
X0051348Y0209743D02*
X0031645Y0209743D01*
X0031645Y0211342D02*
X0050757Y0211342D01*
X0050162Y0212940D02*
X0031645Y0212940D01*
X0031645Y0214539D02*
X0035515Y0214539D01*
X0038163Y0214539D02*
X0039763Y0214539D01*
X0039763Y0216137D02*
X0038163Y0216137D01*
X0038163Y0217736D02*
X0039763Y0217736D01*
X0039763Y0219334D02*
X0038163Y0219334D01*
X0038163Y0220933D02*
X0039763Y0220933D01*
X0039763Y0222531D02*
X0049925Y0222531D01*
X0049779Y0220933D02*
X0047547Y0220933D01*
X0047071Y0219334D02*
X0050289Y0219334D01*
X0051887Y0217736D02*
X0046254Y0217736D01*
X0044884Y0216137D02*
X0051246Y0216137D01*
X0050284Y0214539D02*
X0042412Y0214539D01*
X0039763Y0223350D02*
X0047654Y0223350D01*
X0047535Y0224255D01*
X0047239Y0225359D01*
X0046802Y0226416D01*
X0046230Y0227406D01*
X0045534Y0228313D01*
X0044726Y0229121D01*
X0043819Y0229817D01*
X0042829Y0230389D01*
X0041773Y0230826D01*
X0040668Y0231122D01*
X0039763Y0231241D01*
X0039763Y0223350D01*
X0039763Y0224130D02*
X0038163Y0224130D01*
X0038163Y0225728D02*
X0039763Y0225728D01*
X0039763Y0227327D02*
X0038163Y0227327D01*
X0038163Y0228925D02*
X0039763Y0228925D01*
X0039763Y0230524D02*
X0038163Y0230524D01*
X0035424Y0230524D02*
X0031645Y0230524D01*
X0031645Y0232122D02*
X0051483Y0232122D01*
X0050382Y0230524D02*
X0042503Y0230524D01*
X0044922Y0228925D02*
X0050162Y0228925D01*
X0050645Y0227327D02*
X0046276Y0227327D01*
X0047087Y0225728D02*
X0052578Y0225728D01*
X0050798Y0224130D02*
X0047552Y0224130D01*
X0051385Y0235319D02*
X0031645Y0235319D01*
X0031645Y0233721D02*
X0056845Y0233721D01*
X0056845Y0235319D02*
X0056462Y0235319D01*
X0056365Y0232122D02*
X0056845Y0232122D01*
X0060845Y0233721D02*
X0061894Y0233721D01*
X0061228Y0235319D02*
X0060845Y0235319D01*
X0060845Y0241713D02*
X0062656Y0241713D01*
X0064877Y0241713D02*
X0073483Y0241713D01*
X0073494Y0241749D02*
X0073279Y0241086D01*
X0073170Y0240398D01*
X0073170Y0240125D01*
X0077520Y0240125D01*
X0077520Y0244475D01*
X0077247Y0244475D01*
X0076559Y0244366D01*
X0075897Y0244151D01*
X0075276Y0243835D01*
X0074712Y0243425D01*
X0074220Y0242933D01*
X0073811Y0242369D01*
X0073494Y0241749D01*
X0074599Y0243312D02*
X0060845Y0243312D01*
X0061534Y0244910D02*
X0080595Y0244910D01*
X0080591Y0243312D02*
X0080595Y0243312D01*
X0080595Y0246509D02*
X0079564Y0246509D01*
X0077670Y0243312D02*
X0077520Y0243312D01*
X0077520Y0241713D02*
X0077670Y0241713D01*
X0077520Y0240115D02*
X0067005Y0240115D01*
X0067529Y0238516D02*
X0073441Y0238516D01*
X0074469Y0236918D02*
X0067348Y0236918D01*
X0066305Y0235319D02*
X0080595Y0235319D01*
X0080595Y0233721D02*
X0079251Y0233721D01*
X0077670Y0236918D02*
X0077520Y0236918D01*
X0077520Y0238516D02*
X0077670Y0238516D01*
X0075939Y0233721D02*
X0065638Y0233721D01*
X0067135Y0232122D02*
X0074097Y0232122D01*
X0073570Y0230524D02*
X0067529Y0230524D01*
X0067218Y0228925D02*
X0073704Y0228925D01*
X0074626Y0227327D02*
X0065990Y0227327D01*
X0065909Y0225728D02*
X0080595Y0225728D01*
X0080595Y0224130D02*
X0067184Y0224130D01*
X0067529Y0222531D02*
X0080595Y0222531D01*
X0080595Y0220933D02*
X0067169Y0220933D01*
X0065834Y0219334D02*
X0080595Y0219334D01*
X0080595Y0217736D02*
X0066027Y0217736D01*
X0067233Y0216137D02*
X0080595Y0216137D01*
X0080595Y0214539D02*
X0067529Y0214539D01*
X0067120Y0212940D02*
X0080595Y0212940D01*
X0079808Y0211342D02*
X0065548Y0211342D01*
X0066343Y0209743D02*
X0078210Y0209743D01*
X0080670Y0206546D02*
X0119795Y0206546D01*
X0119795Y0204948D02*
X0080979Y0204948D01*
X0082577Y0203349D02*
X0108853Y0203349D01*
X0106427Y0201751D02*
X0084176Y0201751D01*
X0085774Y0200152D02*
X0104860Y0200152D01*
X0104197Y0198553D02*
X0087373Y0198553D01*
X0088971Y0196955D02*
X0103535Y0196955D01*
X0103496Y0195356D02*
X0099255Y0195356D01*
X0098981Y0195630D02*
X0098332Y0196064D01*
X0097610Y0196363D01*
X0096844Y0196515D01*
X0096453Y0196515D01*
X0096453Y0192550D01*
X0096453Y0192550D01*
X0096453Y0192550D01*
X0096453Y0188585D01*
X0096844Y0188585D01*
X0097610Y0188737D01*
X0098332Y0189036D01*
X0098981Y0189470D01*
X0099533Y0190022D01*
X0099967Y0190672D01*
X0100266Y0191393D01*
X0100419Y0192159D01*
X0100419Y0192550D01*
X0100419Y0192941D01*
X0100266Y0193707D01*
X0099967Y0194428D01*
X0099533Y0195078D01*
X0098981Y0195630D01*
X0100245Y0193758D02*
X0103496Y0193758D01*
X0103944Y0192159D02*
X0100419Y0192159D01*
X0100419Y0192550D02*
X0096454Y0192550D01*
X0100419Y0192550D01*
X0099893Y0190561D02*
X0104606Y0190561D01*
X0105814Y0188962D02*
X0098154Y0188962D01*
X0097867Y0187364D02*
X0095845Y0187364D01*
X0097093Y0187043D02*
X0097093Y0187043D01*
X0096453Y0188962D02*
X0096453Y0188962D01*
X0096453Y0190561D02*
X0096453Y0190561D01*
X0096453Y0192159D02*
X0096453Y0192159D01*
X0096454Y0192550D02*
X0096454Y0192550D01*
X0096453Y0193758D02*
X0096453Y0193758D01*
X0096453Y0195356D02*
X0096453Y0195356D01*
X0093652Y0195356D02*
X0092784Y0195356D01*
X0083314Y0196955D02*
X0083066Y0196955D01*
X0081716Y0198553D02*
X0081467Y0198553D01*
X0080117Y0200152D02*
X0079869Y0200152D01*
X0078519Y0201751D02*
X0061223Y0201751D01*
X0062747Y0203349D02*
X0059625Y0203349D01*
X0060544Y0204948D02*
X0058026Y0204948D01*
X0057686Y0206546D02*
X0060004Y0206546D01*
X0060169Y0208145D02*
X0058804Y0208145D01*
X0060747Y0209743D02*
X0061190Y0209743D01*
X0060845Y0211342D02*
X0061985Y0211342D01*
X0064786Y0203349D02*
X0076920Y0203349D01*
X0075322Y0204948D02*
X0066989Y0204948D01*
X0061505Y0217736D02*
X0060845Y0217736D01*
X0060845Y0219334D02*
X0061699Y0219334D01*
X0061624Y0225728D02*
X0060845Y0225728D01*
X0060845Y0227327D02*
X0061543Y0227327D01*
X0056845Y0241713D02*
X0055035Y0241713D01*
X0052813Y0241713D02*
X0031645Y0241713D01*
X0031645Y0240115D02*
X0050686Y0240115D01*
X0050162Y0238516D02*
X0031645Y0238516D01*
X0031645Y0236918D02*
X0050342Y0236918D01*
X0047411Y0244910D02*
X0056845Y0244910D01*
X0056845Y0243312D02*
X0044487Y0243312D01*
X0042913Y0243312D02*
X0041313Y0243312D01*
X0041313Y0242998D02*
X0041313Y0250293D01*
X0034017Y0250293D01*
X0034121Y0249504D01*
X0034397Y0248474D01*
X0034805Y0247489D01*
X0035338Y0246566D01*
X0035987Y0245721D01*
X0036740Y0244967D01*
X0037586Y0244318D01*
X0038509Y0243785D01*
X0039494Y0243378D01*
X0040523Y0243102D01*
X0041313Y0242998D01*
X0039739Y0243312D02*
X0031645Y0243312D01*
X0031645Y0244910D02*
X0036815Y0244910D01*
X0035382Y0246509D02*
X0031645Y0246509D01*
X0031645Y0248107D02*
X0034549Y0248107D01*
X0034095Y0249706D02*
X0031645Y0249706D01*
X0031645Y0251304D02*
X0041313Y0251304D01*
X0041313Y0249706D02*
X0042913Y0249706D01*
X0042913Y0251304D02*
X0062271Y0251304D01*
X0060673Y0249706D02*
X0050131Y0249706D01*
X0049677Y0248107D02*
X0059074Y0248107D01*
X0057476Y0246509D02*
X0048844Y0246509D01*
X0050045Y0252903D02*
X0063870Y0252903D01*
X0065468Y0254501D02*
X0049502Y0254501D01*
X0048520Y0256100D02*
X0067067Y0256100D01*
X0068665Y0257698D02*
X0046861Y0257698D01*
X0045059Y0260895D02*
X0071862Y0260895D01*
X0070264Y0259297D02*
X0042698Y0259297D01*
X0042913Y0257698D02*
X0041313Y0257698D01*
X0041313Y0256100D02*
X0042913Y0256100D01*
X0042913Y0254501D02*
X0041313Y0254501D01*
X0041313Y0252903D02*
X0042913Y0252903D01*
X0042913Y0248107D02*
X0041313Y0248107D01*
X0041313Y0246509D02*
X0042913Y0246509D01*
X0042913Y0244910D02*
X0041313Y0244910D01*
X0034180Y0252903D02*
X0031645Y0252903D01*
X0031645Y0254501D02*
X0034724Y0254501D01*
X0035706Y0256100D02*
X0031645Y0256100D01*
X0031645Y0257698D02*
X0037365Y0257698D01*
X0034992Y0259297D02*
X0031645Y0259297D01*
X0031645Y0260895D02*
X0032631Y0260895D01*
X0045580Y0273684D02*
X0109398Y0273684D01*
X0106619Y0272085D02*
X0046816Y0272085D01*
X0047478Y0270487D02*
X0105021Y0270487D01*
X0104227Y0268888D02*
X0047944Y0268888D01*
X0047944Y0267289D02*
X0103565Y0267289D01*
X0103395Y0265691D02*
X0047924Y0265691D01*
X0047262Y0264092D02*
X0103395Y0264092D01*
X0103696Y0262494D02*
X0080843Y0262494D01*
X0081602Y0260895D02*
X0104358Y0260895D01*
X0105337Y0259297D02*
X0081620Y0259297D01*
X0080936Y0257698D02*
X0084551Y0257698D01*
X0083673Y0256100D02*
X0078577Y0256100D01*
X0076614Y0256100D02*
X0072723Y0256100D01*
X0071125Y0254501D02*
X0083570Y0254501D01*
X0082620Y0252903D02*
X0080434Y0252903D01*
X0085079Y0249706D02*
X0119795Y0249706D01*
X0119795Y0251304D02*
X0089070Y0251304D01*
X0091062Y0252903D02*
X0119795Y0252903D01*
X0119795Y0254501D02*
X0091620Y0254501D01*
X0091517Y0256100D02*
X0110162Y0256100D01*
X0106936Y0257698D02*
X0090639Y0257698D01*
X0090230Y0248107D02*
X0119795Y0248107D01*
X0119795Y0246509D02*
X0091347Y0246509D01*
X0091620Y0244910D02*
X0119795Y0244910D01*
X0119795Y0243312D02*
X0091232Y0243312D01*
X0089951Y0241713D02*
X0119795Y0241713D01*
X0119795Y0240115D02*
X0084595Y0240115D01*
X0084595Y0241713D02*
X0085240Y0241713D01*
X0084838Y0238516D02*
X0084595Y0238516D01*
X0087520Y0238516D02*
X0087670Y0238516D01*
X0087670Y0239475D02*
X0087670Y0235125D01*
X0092020Y0235125D01*
X0092020Y0235398D01*
X0091911Y0236086D01*
X0091696Y0236749D01*
X0091380Y0237369D01*
X0090970Y0237933D01*
X0090478Y0238425D01*
X0089914Y0238835D01*
X0089294Y0239151D01*
X0088631Y0239366D01*
X0087943Y0239475D01*
X0087670Y0239475D01*
X0087670Y0236918D02*
X0087520Y0236918D01*
X0087520Y0235319D02*
X0087670Y0235319D01*
X0087670Y0233721D02*
X0087520Y0233721D01*
X0087520Y0232122D02*
X0087670Y0232122D01*
X0088757Y0228925D02*
X0109981Y0228925D01*
X0106861Y0227327D02*
X0091009Y0227327D01*
X0091620Y0225728D02*
X0105263Y0225728D01*
X0104327Y0224130D02*
X0091571Y0224130D01*
X0090769Y0222531D02*
X0103665Y0222531D01*
X0103395Y0220933D02*
X0084595Y0220933D01*
X0084595Y0219334D02*
X0103395Y0219334D01*
X0103596Y0217736D02*
X0084595Y0217736D01*
X0084595Y0216137D02*
X0104258Y0216137D01*
X0105096Y0214539D02*
X0084595Y0214539D01*
X0084595Y0212940D02*
X0106694Y0212940D01*
X0109578Y0211342D02*
X0084595Y0211342D01*
X0083867Y0209743D02*
X0119795Y0209743D01*
X0119795Y0208145D02*
X0082268Y0208145D01*
X0080595Y0227327D02*
X0080564Y0227327D01*
X0084595Y0228925D02*
X0086433Y0228925D01*
X0084595Y0230524D02*
X0119795Y0230524D01*
X0119795Y0232122D02*
X0090925Y0232122D01*
X0091816Y0233721D02*
X0119795Y0233721D01*
X0119795Y0235319D02*
X0092020Y0235319D01*
X0091610Y0236918D02*
X0119795Y0236918D01*
X0119795Y0238516D02*
X0090352Y0238516D01*
X0084960Y0248107D02*
X0084595Y0248107D01*
X0075626Y0246509D02*
X0063132Y0246509D01*
X0064731Y0248107D02*
X0074043Y0248107D01*
X0073570Y0249706D02*
X0066329Y0249706D01*
X0067928Y0251304D02*
X0073758Y0251304D01*
X0074756Y0252903D02*
X0069526Y0252903D01*
X0074347Y0262494D02*
X0046600Y0262494D01*
X0033005Y0228925D02*
X0031645Y0228925D01*
X0031645Y0227327D02*
X0031651Y0227327D01*
X0031645Y0217736D02*
X0031672Y0217736D01*
X0031645Y0216137D02*
X0033042Y0216137D01*
X0031949Y0192159D02*
X0034190Y0192159D01*
X0034740Y0190561D02*
X0032684Y0190561D01*
X0034255Y0188962D02*
X0035735Y0188962D01*
X0034894Y0188498D02*
X0034894Y0188498D01*
X0116337Y0203349D02*
X0119795Y0203349D01*
X0119795Y0201751D02*
X0118763Y0201751D01*
X0119795Y0211342D02*
X0115612Y0211342D01*
X0118496Y0212940D02*
X0119795Y0212940D01*
X0119795Y0227327D02*
X0118329Y0227327D01*
X0119795Y0228925D02*
X0115209Y0228925D01*
X0115028Y0256100D02*
X0119795Y0256100D01*
X0119795Y0257698D02*
X0118254Y0257698D01*
X0116252Y0273684D02*
X0115793Y0273684D01*
D28*
X0087595Y0255050D02*
X0082595Y0250050D01*
X0082595Y0211300D01*
X0077197Y0205901D01*
X0090548Y0192550D01*
X0093845Y0189253D01*
X0093845Y0178800D01*
X0096345Y0176300D01*
X0107595Y0176300D01*
X0118845Y0165050D01*
X0118845Y0161753D01*
X0113845Y0156753D01*
X0110095Y0154597D02*
X0113845Y0150847D01*
X0110095Y0154597D02*
X0110095Y0170050D01*
X0106345Y0173800D01*
X0095095Y0173800D01*
X0091345Y0177550D01*
X0091345Y0185847D01*
X0084642Y0192550D01*
X0078392Y0198800D01*
X0061345Y0198800D01*
X0053924Y0206221D01*
X0053924Y0206999D01*
X0058845Y0210670D01*
X0058845Y0245050D01*
X0073845Y0260050D01*
X0077595Y0260050D01*
X0076099Y0206999D02*
X0063766Y0206999D01*
X0076099Y0206999D02*
X0077197Y0205901D01*
X0088845Y0132560D02*
X0088835Y0132550D01*
X0087595Y0099800D02*
X0087595Y0093800D01*
X0090795Y0090600D01*
X0100095Y0090600D01*
X0102595Y0086300D02*
X0102595Y0095050D01*
X0097845Y0099800D01*
X0092595Y0099800D01*
X0102595Y0086300D02*
X0103845Y0085050D01*
X0113845Y0085050D01*
X0115095Y0086300D01*
X0115095Y0090600D01*
X0113845Y0080675D02*
X0110095Y0076925D01*
X0110095Y0072000D01*
X0112595Y0066300D02*
X0113845Y0065050D01*
X0113845Y0056300D01*
X0111345Y0053800D01*
X0105095Y0053800D01*
X0101355Y0061300D02*
X0100095Y0062560D01*
X0100095Y0072000D01*
X0096345Y0071300D02*
X0088845Y0078800D01*
X0073845Y0078800D01*
X0070095Y0073175D02*
X0081970Y0073175D01*
X0084470Y0070675D01*
X0084470Y0068175D01*
X0082595Y0066300D01*
X0082595Y0062800D01*
X0077595Y0065675D02*
X0081345Y0069425D01*
X0077595Y0065675D02*
X0077595Y0062800D01*
X0072595Y0062800D02*
X0072595Y0070050D01*
X0067595Y0070050D02*
X0067595Y0062800D01*
X0062595Y0062800D02*
X0062595Y0076300D01*
X0050095Y0083800D02*
X0057595Y0091300D01*
X0057595Y0099800D01*
X0062595Y0099800D02*
X0062595Y0092550D01*
X0045095Y0075050D01*
X0045095Y0072914D01*
X0044820Y0072639D01*
X0044820Y0066034D01*
X0043835Y0065050D01*
X0048845Y0053800D02*
X0060666Y0053800D01*
X0060676Y0053790D01*
X0060676Y0046310D02*
X0068845Y0046310D01*
X0068845Y0053790D02*
X0072605Y0057550D01*
X0092595Y0057550D01*
X0093845Y0056300D01*
X0093845Y0050050D01*
X0090095Y0046300D01*
X0089524Y0046300D01*
X0089514Y0046310D01*
X0090095Y0046300D02*
X0097595Y0046300D01*
X0100720Y0043175D01*
X0100720Y0036300D01*
X0095095Y0042550D02*
X0057595Y0042550D01*
X0052014Y0048131D01*
X0052014Y0050050D01*
X0048845Y0053800D02*
X0045720Y0050675D01*
X0045720Y0045050D01*
X0050720Y0040050D01*
X0050720Y0036300D01*
X0074470Y0045675D02*
X0075105Y0046310D01*
X0081345Y0046310D01*
X0081345Y0053790D02*
X0089514Y0053790D01*
X0092595Y0062800D02*
X0092595Y0070050D01*
X0096345Y0071300D02*
X0096345Y0056300D01*
X0098176Y0054469D01*
X0098176Y0050050D01*
X0101355Y0061300D02*
X0099855Y0062800D01*
X0105095Y0067550D02*
X0105095Y0072000D01*
X0105095Y0077550D01*
X0109470Y0081925D01*
X0105095Y0090600D02*
X0105095Y0100060D01*
X0095095Y0082550D02*
X0092595Y0080050D01*
X0105095Y0067550D02*
X0106345Y0066300D01*
X0112595Y0066300D01*
X0050095Y0083800D02*
X0037595Y0083800D01*
X0035095Y0086300D01*
X0035095Y0089686D01*
X0035371Y0089961D01*
X0036355Y0090946D01*
X0036355Y0097550D01*
D29*
X0088845Y0132560D02*
X0091005Y0130400D01*
X0114170Y0130400D01*
D30*
X0114170Y0112200D02*
X0103845Y0112200D01*
X0103495Y0112200D01*
X0102457Y0111162D01*
X0091345Y0111162D01*
X0078264Y0111162D01*
X0103845Y0112200D02*
X0103855Y0112190D01*
X0103855Y0101300D01*
D31*
X0108953Y0144942D02*
X0107595Y0146300D01*
X0047064Y0146300D01*
X0036926Y0156438D01*
X0036926Y0169381D01*
X0041483Y0173938D01*
X0055233Y0173938D01*
X0058845Y0177550D01*
X0058845Y0186300D01*
X0065095Y0192550D01*
X0078737Y0192550D01*
X0108953Y0144942D02*
X0113845Y0144942D01*
M02*
