%
M48
M72
T01C0.01969
T02C0.02756
T03C0.03150
T04C0.03200
T05C0.03500
T06C0.08661
T07C0.09843
T08C0.12598
T09C0.12800
%
T01
X50095Y45675
X67595Y70050
X70095Y73175
X72595Y70050
X73845Y78800
X69470Y78800
X65720Y81300
X62595Y76300
X76345Y90675
X82595Y86300
X84470Y93175
X91345Y106300
X92595Y80050
X92595Y70050
X81345Y69425
X74470Y45675
X95095Y42550
X105095Y53800
X113845Y80675
X109470Y81925
X117595Y106925
X118220Y153800
X81345Y132550
X67595Y153800
X61345Y153800
X55095Y153800
X55095Y121925
T02
X78737Y192550
X84642Y192550
X90548Y192550
X96453Y192550
X113845Y162658
X113845Y156753
X113845Y150847
X113845Y144942
T03
X63766Y206999
X63766Y214676
X63766Y222550
X63766Y230424
X63766Y238101
X53924Y238101
X53924Y229243
X53924Y221369
X53924Y213495
X53924Y206999
T04
X50720Y36300
X60720Y36300
X70720Y36300
X80720Y36300
X90720Y36300
X100720Y36300
T05
X87595Y225050
X87595Y235050
X87595Y245050
X87595Y255050
X77595Y250050
X77595Y240050
X77595Y230050
X77595Y260050
T06
X42113Y251093
X42113Y194007
T07
X38963Y222550
T08
X38845Y38800
X100095Y163800
X112595Y195050
X38845Y267550
X112595Y38800
T09
X112595Y220050
X112595Y265050
M30
