%
M48
M72
T01C0.02362
T02C0.03200
T03C0.03500
T04C0.03543
T05C0.03600
T06C0.04000
T07C0.12598
T08C0.12800
%
T01
X150000Y25000
X177500Y167500
X171250Y162500
X240000Y142500
X60000Y37500
X275000Y150000
X270000Y153750
X261250Y146250
T02
X70000Y100000
X70000Y110000
X140000Y80000
X150000Y80000
X192500Y95000
X192500Y105000
X192500Y85000
X192500Y75000
X90000Y192500
X80000Y192500
X60000Y192500
X70000Y192500
X160000Y70000
X150000Y70000
X130000Y40000
X140000Y40000
X140000Y70000
X130000Y70000
X150000Y40000
X160000Y40000
X80000Y90000
X90000Y90000
X120000Y90000
X130000Y90000
X100000Y90000
X110000Y90000
X140000Y90000
X150000Y90000
X160000Y90000
X160000Y120000
X150000Y120000
X140000Y120000
X130000Y120000
X120000Y120000
X110000Y120000
X100000Y120000
X90000Y120000
X80000Y120000
X160000Y180000
X150000Y180000
X100000Y180000
X90000Y180000
X140000Y180000
X130000Y180000
X110000Y180000
X120000Y180000
X80000Y180000
X70000Y180000
X60000Y180000
X50000Y180000
X40000Y180000
X30000Y180000
X30000Y150000
X40000Y150000
X50000Y150000
X60000Y150000
X70000Y150000
X80000Y150000
X90000Y150000
X100000Y150000
X110000Y150000
X120000Y150000
X130000Y150000
X140000Y150000
X150000Y150000
X160000Y150000
X20000Y140000
X20000Y130000
X177500Y80500
X177500Y99500
X65500Y207500
X84500Y207500
X140000Y20000
X100000Y20000
X20000Y70000
X20000Y110000
X30000Y90000
X70000Y90000
X205000Y50000
X215000Y50000
X245000Y50000
X235000Y50000
T03
X56555Y54685
X51555Y44685
X46555Y54685
X41555Y44685
X61555Y44685
X66555Y54685
X71555Y44685
X76555Y54685
X292776Y54685
X287776Y44685
X282776Y54685
X277776Y44685
X297776Y44685
X302776Y54685
X307776Y44685
X312776Y54685
T04
X285000Y205000
X295000Y205000
X305000Y205000
X285000Y165000
X295000Y165000
X305000Y165000
X285000Y125000
X295000Y125000
X305000Y125000
T05
X160000Y20000
X160000Y30000
T06
X30000Y100000
X40000Y100000
X50000Y100000
X30000Y110000
X40000Y110000
X50000Y110000
X215000Y21250
X225000Y21250
X235000Y21250
X177500Y21250
X187500Y21250
X197500Y21250
X250000Y225000
X250000Y215000
X250000Y205000
X230000Y225000
X230000Y215000
X230000Y205000
X210000Y225000
X210000Y215000
X210000Y205000
X190000Y225000
X190000Y215000
X190000Y205000
X250000Y185000
X250000Y175000
X250000Y165000
X230000Y185000
X230000Y175000
X230000Y165000
X210000Y185000
X210000Y175000
X210000Y165000
X190000Y185000
X190000Y175000
X190000Y165000
X250000Y145000
X250000Y135000
X250000Y125000
X230000Y145000
X230000Y135000
X230000Y125000
X210000Y145000
X210000Y135000
X210000Y125000
X190000Y145000
X190000Y135000
X190000Y125000
X235000Y77500
X225000Y77500
X215000Y77500
X340000Y110000
X340000Y120000
X340000Y130000
X340000Y140000
T07
X11811Y11811
X342520Y11811
X342520Y224409
X11811Y224409
T08
X36555Y19685
X81555Y19685
X272776Y19685
X317776Y19685
M30
