G75*
%MOIN*%
%OFA0B0*%
%FSLAX25Y25*%
%IPPOS*%
%LPD*%
%AMOC8*
5,1,8,0,0,1.08239X$1,22.5*
%
%ADD10C,0.00000*%
%ADD11C,0.12998*%
%ADD12OC8,0.06700*%
%ADD13C,0.05600*%
%ADD14C,0.06000*%
%ADD15OC8,0.05600*%
%ADD16C,0.05600*%
%ADD17C,0.06400*%
%ADD18OC8,0.06400*%
%ADD19C,0.06400*%
%ADD20C,0.05900*%
%ADD21C,0.13200*%
%ADD22R,0.05943X0.05943*%
%ADD23C,0.06700*%
D10*
X0026059Y0048303D02*
X0360705Y0048303D01*
X0360943Y0048306D01*
X0361181Y0048314D01*
X0361418Y0048329D01*
X0361655Y0048349D01*
X0361891Y0048375D01*
X0362127Y0048406D01*
X0362362Y0048443D01*
X0362596Y0048486D01*
X0362829Y0048535D01*
X0363061Y0048589D01*
X0363291Y0048649D01*
X0363520Y0048714D01*
X0363747Y0048785D01*
X0363972Y0048861D01*
X0364195Y0048943D01*
X0364417Y0049030D01*
X0364636Y0049122D01*
X0364853Y0049220D01*
X0365067Y0049322D01*
X0365279Y0049430D01*
X0365489Y0049544D01*
X0365695Y0049662D01*
X0365899Y0049785D01*
X0366099Y0049913D01*
X0366296Y0050045D01*
X0366491Y0050183D01*
X0366681Y0050325D01*
X0366869Y0050472D01*
X0367052Y0050623D01*
X0367232Y0050778D01*
X0367408Y0050938D01*
X0367580Y0051102D01*
X0367749Y0051271D01*
X0367913Y0051443D01*
X0368073Y0051619D01*
X0368228Y0051799D01*
X0368379Y0051982D01*
X0368526Y0052170D01*
X0368668Y0052360D01*
X0368806Y0052555D01*
X0368938Y0052752D01*
X0369066Y0052952D01*
X0369189Y0053156D01*
X0369307Y0053362D01*
X0369421Y0053572D01*
X0369529Y0053784D01*
X0369631Y0053998D01*
X0369729Y0054215D01*
X0369821Y0054434D01*
X0369908Y0054656D01*
X0369990Y0054879D01*
X0370066Y0055104D01*
X0370137Y0055331D01*
X0370202Y0055560D01*
X0370262Y0055790D01*
X0370316Y0056022D01*
X0370365Y0056255D01*
X0370408Y0056489D01*
X0370445Y0056724D01*
X0370476Y0056960D01*
X0370502Y0057196D01*
X0370522Y0057433D01*
X0370537Y0057670D01*
X0370545Y0057908D01*
X0370548Y0058146D01*
X0370547Y0058146D02*
X0370547Y0274681D01*
X0370548Y0274681D02*
X0370545Y0274919D01*
X0370537Y0275157D01*
X0370522Y0275394D01*
X0370502Y0275631D01*
X0370476Y0275867D01*
X0370445Y0276103D01*
X0370408Y0276338D01*
X0370365Y0276572D01*
X0370316Y0276805D01*
X0370262Y0277037D01*
X0370202Y0277267D01*
X0370137Y0277496D01*
X0370066Y0277723D01*
X0369990Y0277948D01*
X0369908Y0278171D01*
X0369821Y0278393D01*
X0369729Y0278612D01*
X0369631Y0278829D01*
X0369529Y0279043D01*
X0369421Y0279255D01*
X0369307Y0279465D01*
X0369189Y0279671D01*
X0369066Y0279875D01*
X0368938Y0280075D01*
X0368806Y0280272D01*
X0368668Y0280467D01*
X0368526Y0280657D01*
X0368379Y0280845D01*
X0368228Y0281028D01*
X0368073Y0281208D01*
X0367913Y0281384D01*
X0367749Y0281556D01*
X0367580Y0281725D01*
X0367408Y0281889D01*
X0367232Y0282049D01*
X0367052Y0282204D01*
X0366869Y0282355D01*
X0366681Y0282502D01*
X0366491Y0282644D01*
X0366296Y0282782D01*
X0366099Y0282914D01*
X0365899Y0283042D01*
X0365695Y0283165D01*
X0365489Y0283283D01*
X0365279Y0283397D01*
X0365067Y0283505D01*
X0364853Y0283607D01*
X0364636Y0283705D01*
X0364417Y0283797D01*
X0364195Y0283884D01*
X0363972Y0283966D01*
X0363747Y0284042D01*
X0363520Y0284113D01*
X0363291Y0284178D01*
X0363061Y0284238D01*
X0362829Y0284292D01*
X0362596Y0284341D01*
X0362362Y0284384D01*
X0362127Y0284421D01*
X0361891Y0284452D01*
X0361655Y0284478D01*
X0361418Y0284498D01*
X0361181Y0284513D01*
X0360943Y0284521D01*
X0360705Y0284524D01*
X0026059Y0284524D01*
X0025821Y0284521D01*
X0025583Y0284513D01*
X0025346Y0284498D01*
X0025109Y0284478D01*
X0024873Y0284452D01*
X0024637Y0284421D01*
X0024402Y0284384D01*
X0024168Y0284341D01*
X0023935Y0284292D01*
X0023703Y0284238D01*
X0023473Y0284178D01*
X0023244Y0284113D01*
X0023017Y0284042D01*
X0022792Y0283966D01*
X0022569Y0283884D01*
X0022347Y0283797D01*
X0022128Y0283705D01*
X0021911Y0283607D01*
X0021697Y0283505D01*
X0021485Y0283397D01*
X0021275Y0283283D01*
X0021069Y0283165D01*
X0020865Y0283042D01*
X0020665Y0282914D01*
X0020468Y0282782D01*
X0020273Y0282644D01*
X0020083Y0282502D01*
X0019895Y0282355D01*
X0019712Y0282204D01*
X0019532Y0282049D01*
X0019356Y0281889D01*
X0019184Y0281725D01*
X0019015Y0281556D01*
X0018851Y0281384D01*
X0018691Y0281208D01*
X0018536Y0281028D01*
X0018385Y0280845D01*
X0018238Y0280657D01*
X0018096Y0280467D01*
X0017958Y0280272D01*
X0017826Y0280075D01*
X0017698Y0279875D01*
X0017575Y0279671D01*
X0017457Y0279465D01*
X0017343Y0279255D01*
X0017235Y0279043D01*
X0017133Y0278829D01*
X0017035Y0278612D01*
X0016943Y0278393D01*
X0016856Y0278171D01*
X0016774Y0277948D01*
X0016698Y0277723D01*
X0016627Y0277496D01*
X0016562Y0277267D01*
X0016502Y0277037D01*
X0016448Y0276805D01*
X0016399Y0276572D01*
X0016356Y0276338D01*
X0016319Y0276103D01*
X0016288Y0275867D01*
X0016262Y0275631D01*
X0016242Y0275394D01*
X0016227Y0275157D01*
X0016219Y0274919D01*
X0016216Y0274681D01*
X0016217Y0274681D02*
X0016217Y0058146D01*
X0016216Y0058146D02*
X0016219Y0057908D01*
X0016227Y0057670D01*
X0016242Y0057433D01*
X0016262Y0057196D01*
X0016288Y0056960D01*
X0016319Y0056724D01*
X0016356Y0056489D01*
X0016399Y0056255D01*
X0016448Y0056022D01*
X0016502Y0055790D01*
X0016562Y0055560D01*
X0016627Y0055331D01*
X0016698Y0055104D01*
X0016774Y0054879D01*
X0016856Y0054656D01*
X0016943Y0054434D01*
X0017035Y0054215D01*
X0017133Y0053998D01*
X0017235Y0053784D01*
X0017343Y0053572D01*
X0017457Y0053362D01*
X0017575Y0053156D01*
X0017698Y0052952D01*
X0017826Y0052752D01*
X0017958Y0052555D01*
X0018096Y0052360D01*
X0018238Y0052170D01*
X0018385Y0051982D01*
X0018536Y0051799D01*
X0018691Y0051619D01*
X0018851Y0051443D01*
X0019015Y0051271D01*
X0019184Y0051102D01*
X0019356Y0050938D01*
X0019532Y0050778D01*
X0019712Y0050623D01*
X0019895Y0050472D01*
X0020083Y0050325D01*
X0020273Y0050183D01*
X0020468Y0050045D01*
X0020665Y0049913D01*
X0020865Y0049785D01*
X0021069Y0049662D01*
X0021275Y0049544D01*
X0021485Y0049430D01*
X0021697Y0049322D01*
X0021911Y0049220D01*
X0022128Y0049122D01*
X0022347Y0049030D01*
X0022569Y0048943D01*
X0022792Y0048861D01*
X0023017Y0048785D01*
X0023244Y0048714D01*
X0023473Y0048649D01*
X0023703Y0048589D01*
X0023935Y0048535D01*
X0024168Y0048486D01*
X0024402Y0048443D01*
X0024637Y0048406D01*
X0024873Y0048375D01*
X0025109Y0048349D01*
X0025346Y0048329D01*
X0025583Y0048314D01*
X0025821Y0048306D01*
X0026059Y0048303D01*
X0021729Y0060114D02*
X0021731Y0060272D01*
X0021737Y0060430D01*
X0021747Y0060588D01*
X0021761Y0060746D01*
X0021779Y0060903D01*
X0021800Y0061060D01*
X0021826Y0061216D01*
X0021856Y0061372D01*
X0021889Y0061527D01*
X0021927Y0061680D01*
X0021968Y0061833D01*
X0022013Y0061985D01*
X0022062Y0062136D01*
X0022115Y0062285D01*
X0022171Y0062433D01*
X0022231Y0062579D01*
X0022295Y0062724D01*
X0022363Y0062867D01*
X0022434Y0063009D01*
X0022508Y0063149D01*
X0022586Y0063286D01*
X0022668Y0063422D01*
X0022752Y0063556D01*
X0022841Y0063687D01*
X0022932Y0063816D01*
X0023027Y0063943D01*
X0023124Y0064068D01*
X0023225Y0064190D01*
X0023329Y0064309D01*
X0023436Y0064426D01*
X0023546Y0064540D01*
X0023659Y0064651D01*
X0023774Y0064760D01*
X0023892Y0064865D01*
X0024013Y0064967D01*
X0024136Y0065067D01*
X0024262Y0065163D01*
X0024390Y0065256D01*
X0024520Y0065346D01*
X0024653Y0065432D01*
X0024788Y0065516D01*
X0024924Y0065595D01*
X0025063Y0065672D01*
X0025204Y0065744D01*
X0025346Y0065814D01*
X0025490Y0065879D01*
X0025636Y0065941D01*
X0025783Y0065999D01*
X0025932Y0066054D01*
X0026082Y0066105D01*
X0026233Y0066152D01*
X0026385Y0066195D01*
X0026538Y0066234D01*
X0026693Y0066270D01*
X0026848Y0066301D01*
X0027004Y0066329D01*
X0027160Y0066353D01*
X0027317Y0066373D01*
X0027475Y0066389D01*
X0027632Y0066401D01*
X0027791Y0066409D01*
X0027949Y0066413D01*
X0028107Y0066413D01*
X0028265Y0066409D01*
X0028424Y0066401D01*
X0028581Y0066389D01*
X0028739Y0066373D01*
X0028896Y0066353D01*
X0029052Y0066329D01*
X0029208Y0066301D01*
X0029363Y0066270D01*
X0029518Y0066234D01*
X0029671Y0066195D01*
X0029823Y0066152D01*
X0029974Y0066105D01*
X0030124Y0066054D01*
X0030273Y0065999D01*
X0030420Y0065941D01*
X0030566Y0065879D01*
X0030710Y0065814D01*
X0030852Y0065744D01*
X0030993Y0065672D01*
X0031132Y0065595D01*
X0031268Y0065516D01*
X0031403Y0065432D01*
X0031536Y0065346D01*
X0031666Y0065256D01*
X0031794Y0065163D01*
X0031920Y0065067D01*
X0032043Y0064967D01*
X0032164Y0064865D01*
X0032282Y0064760D01*
X0032397Y0064651D01*
X0032510Y0064540D01*
X0032620Y0064426D01*
X0032727Y0064309D01*
X0032831Y0064190D01*
X0032932Y0064068D01*
X0033029Y0063943D01*
X0033124Y0063816D01*
X0033215Y0063687D01*
X0033304Y0063556D01*
X0033388Y0063422D01*
X0033470Y0063286D01*
X0033548Y0063149D01*
X0033622Y0063009D01*
X0033693Y0062867D01*
X0033761Y0062724D01*
X0033825Y0062579D01*
X0033885Y0062433D01*
X0033941Y0062285D01*
X0033994Y0062136D01*
X0034043Y0061985D01*
X0034088Y0061833D01*
X0034129Y0061680D01*
X0034167Y0061527D01*
X0034200Y0061372D01*
X0034230Y0061216D01*
X0034256Y0061060D01*
X0034277Y0060903D01*
X0034295Y0060746D01*
X0034309Y0060588D01*
X0034319Y0060430D01*
X0034325Y0060272D01*
X0034327Y0060114D01*
X0034325Y0059956D01*
X0034319Y0059798D01*
X0034309Y0059640D01*
X0034295Y0059482D01*
X0034277Y0059325D01*
X0034256Y0059168D01*
X0034230Y0059012D01*
X0034200Y0058856D01*
X0034167Y0058701D01*
X0034129Y0058548D01*
X0034088Y0058395D01*
X0034043Y0058243D01*
X0033994Y0058092D01*
X0033941Y0057943D01*
X0033885Y0057795D01*
X0033825Y0057649D01*
X0033761Y0057504D01*
X0033693Y0057361D01*
X0033622Y0057219D01*
X0033548Y0057079D01*
X0033470Y0056942D01*
X0033388Y0056806D01*
X0033304Y0056672D01*
X0033215Y0056541D01*
X0033124Y0056412D01*
X0033029Y0056285D01*
X0032932Y0056160D01*
X0032831Y0056038D01*
X0032727Y0055919D01*
X0032620Y0055802D01*
X0032510Y0055688D01*
X0032397Y0055577D01*
X0032282Y0055468D01*
X0032164Y0055363D01*
X0032043Y0055261D01*
X0031920Y0055161D01*
X0031794Y0055065D01*
X0031666Y0054972D01*
X0031536Y0054882D01*
X0031403Y0054796D01*
X0031268Y0054712D01*
X0031132Y0054633D01*
X0030993Y0054556D01*
X0030852Y0054484D01*
X0030710Y0054414D01*
X0030566Y0054349D01*
X0030420Y0054287D01*
X0030273Y0054229D01*
X0030124Y0054174D01*
X0029974Y0054123D01*
X0029823Y0054076D01*
X0029671Y0054033D01*
X0029518Y0053994D01*
X0029363Y0053958D01*
X0029208Y0053927D01*
X0029052Y0053899D01*
X0028896Y0053875D01*
X0028739Y0053855D01*
X0028581Y0053839D01*
X0028424Y0053827D01*
X0028265Y0053819D01*
X0028107Y0053815D01*
X0027949Y0053815D01*
X0027791Y0053819D01*
X0027632Y0053827D01*
X0027475Y0053839D01*
X0027317Y0053855D01*
X0027160Y0053875D01*
X0027004Y0053899D01*
X0026848Y0053927D01*
X0026693Y0053958D01*
X0026538Y0053994D01*
X0026385Y0054033D01*
X0026233Y0054076D01*
X0026082Y0054123D01*
X0025932Y0054174D01*
X0025783Y0054229D01*
X0025636Y0054287D01*
X0025490Y0054349D01*
X0025346Y0054414D01*
X0025204Y0054484D01*
X0025063Y0054556D01*
X0024924Y0054633D01*
X0024788Y0054712D01*
X0024653Y0054796D01*
X0024520Y0054882D01*
X0024390Y0054972D01*
X0024262Y0055065D01*
X0024136Y0055161D01*
X0024013Y0055261D01*
X0023892Y0055363D01*
X0023774Y0055468D01*
X0023659Y0055577D01*
X0023546Y0055688D01*
X0023436Y0055802D01*
X0023329Y0055919D01*
X0023225Y0056038D01*
X0023124Y0056160D01*
X0023027Y0056285D01*
X0022932Y0056412D01*
X0022841Y0056541D01*
X0022752Y0056672D01*
X0022668Y0056806D01*
X0022586Y0056942D01*
X0022508Y0057079D01*
X0022434Y0057219D01*
X0022363Y0057361D01*
X0022295Y0057504D01*
X0022231Y0057649D01*
X0022171Y0057795D01*
X0022115Y0057943D01*
X0022062Y0058092D01*
X0022013Y0058243D01*
X0021968Y0058395D01*
X0021927Y0058548D01*
X0021889Y0058701D01*
X0021856Y0058856D01*
X0021826Y0059012D01*
X0021800Y0059168D01*
X0021779Y0059325D01*
X0021761Y0059482D01*
X0021747Y0059640D01*
X0021737Y0059798D01*
X0021731Y0059956D01*
X0021729Y0060114D01*
X0046372Y0067988D02*
X0046374Y0068148D01*
X0046380Y0068307D01*
X0046390Y0068466D01*
X0046404Y0068625D01*
X0046422Y0068784D01*
X0046443Y0068942D01*
X0046469Y0069099D01*
X0046499Y0069256D01*
X0046532Y0069412D01*
X0046570Y0069567D01*
X0046611Y0069721D01*
X0046656Y0069874D01*
X0046705Y0070026D01*
X0046758Y0070177D01*
X0046814Y0070326D01*
X0046875Y0070474D01*
X0046938Y0070620D01*
X0047006Y0070765D01*
X0047077Y0070908D01*
X0047151Y0071049D01*
X0047229Y0071188D01*
X0047311Y0071325D01*
X0047396Y0071460D01*
X0047484Y0071593D01*
X0047576Y0071724D01*
X0047670Y0071852D01*
X0047768Y0071978D01*
X0047869Y0072102D01*
X0047973Y0072223D01*
X0048080Y0072341D01*
X0048190Y0072457D01*
X0048303Y0072570D01*
X0048419Y0072680D01*
X0048537Y0072787D01*
X0048658Y0072891D01*
X0048782Y0072992D01*
X0048908Y0073090D01*
X0049036Y0073184D01*
X0049167Y0073276D01*
X0049300Y0073364D01*
X0049435Y0073449D01*
X0049572Y0073531D01*
X0049711Y0073609D01*
X0049852Y0073683D01*
X0049995Y0073754D01*
X0050140Y0073822D01*
X0050286Y0073885D01*
X0050434Y0073946D01*
X0050583Y0074002D01*
X0050734Y0074055D01*
X0050886Y0074104D01*
X0051039Y0074149D01*
X0051193Y0074190D01*
X0051348Y0074228D01*
X0051504Y0074261D01*
X0051661Y0074291D01*
X0051818Y0074317D01*
X0051976Y0074338D01*
X0052135Y0074356D01*
X0052294Y0074370D01*
X0052453Y0074380D01*
X0052612Y0074386D01*
X0052772Y0074388D01*
X0052932Y0074386D01*
X0053091Y0074380D01*
X0053250Y0074370D01*
X0053409Y0074356D01*
X0053568Y0074338D01*
X0053726Y0074317D01*
X0053883Y0074291D01*
X0054040Y0074261D01*
X0054196Y0074228D01*
X0054351Y0074190D01*
X0054505Y0074149D01*
X0054658Y0074104D01*
X0054810Y0074055D01*
X0054961Y0074002D01*
X0055110Y0073946D01*
X0055258Y0073885D01*
X0055404Y0073822D01*
X0055549Y0073754D01*
X0055692Y0073683D01*
X0055833Y0073609D01*
X0055972Y0073531D01*
X0056109Y0073449D01*
X0056244Y0073364D01*
X0056377Y0073276D01*
X0056508Y0073184D01*
X0056636Y0073090D01*
X0056762Y0072992D01*
X0056886Y0072891D01*
X0057007Y0072787D01*
X0057125Y0072680D01*
X0057241Y0072570D01*
X0057354Y0072457D01*
X0057464Y0072341D01*
X0057571Y0072223D01*
X0057675Y0072102D01*
X0057776Y0071978D01*
X0057874Y0071852D01*
X0057968Y0071724D01*
X0058060Y0071593D01*
X0058148Y0071460D01*
X0058233Y0071325D01*
X0058315Y0071188D01*
X0058393Y0071049D01*
X0058467Y0070908D01*
X0058538Y0070765D01*
X0058606Y0070620D01*
X0058669Y0070474D01*
X0058730Y0070326D01*
X0058786Y0070177D01*
X0058839Y0070026D01*
X0058888Y0069874D01*
X0058933Y0069721D01*
X0058974Y0069567D01*
X0059012Y0069412D01*
X0059045Y0069256D01*
X0059075Y0069099D01*
X0059101Y0068942D01*
X0059122Y0068784D01*
X0059140Y0068625D01*
X0059154Y0068466D01*
X0059164Y0068307D01*
X0059170Y0068148D01*
X0059172Y0067988D01*
X0059170Y0067828D01*
X0059164Y0067669D01*
X0059154Y0067510D01*
X0059140Y0067351D01*
X0059122Y0067192D01*
X0059101Y0067034D01*
X0059075Y0066877D01*
X0059045Y0066720D01*
X0059012Y0066564D01*
X0058974Y0066409D01*
X0058933Y0066255D01*
X0058888Y0066102D01*
X0058839Y0065950D01*
X0058786Y0065799D01*
X0058730Y0065650D01*
X0058669Y0065502D01*
X0058606Y0065356D01*
X0058538Y0065211D01*
X0058467Y0065068D01*
X0058393Y0064927D01*
X0058315Y0064788D01*
X0058233Y0064651D01*
X0058148Y0064516D01*
X0058060Y0064383D01*
X0057968Y0064252D01*
X0057874Y0064124D01*
X0057776Y0063998D01*
X0057675Y0063874D01*
X0057571Y0063753D01*
X0057464Y0063635D01*
X0057354Y0063519D01*
X0057241Y0063406D01*
X0057125Y0063296D01*
X0057007Y0063189D01*
X0056886Y0063085D01*
X0056762Y0062984D01*
X0056636Y0062886D01*
X0056508Y0062792D01*
X0056377Y0062700D01*
X0056244Y0062612D01*
X0056109Y0062527D01*
X0055972Y0062445D01*
X0055833Y0062367D01*
X0055692Y0062293D01*
X0055549Y0062222D01*
X0055404Y0062154D01*
X0055258Y0062091D01*
X0055110Y0062030D01*
X0054961Y0061974D01*
X0054810Y0061921D01*
X0054658Y0061872D01*
X0054505Y0061827D01*
X0054351Y0061786D01*
X0054196Y0061748D01*
X0054040Y0061715D01*
X0053883Y0061685D01*
X0053726Y0061659D01*
X0053568Y0061638D01*
X0053409Y0061620D01*
X0053250Y0061606D01*
X0053091Y0061596D01*
X0052932Y0061590D01*
X0052772Y0061588D01*
X0052612Y0061590D01*
X0052453Y0061596D01*
X0052294Y0061606D01*
X0052135Y0061620D01*
X0051976Y0061638D01*
X0051818Y0061659D01*
X0051661Y0061685D01*
X0051504Y0061715D01*
X0051348Y0061748D01*
X0051193Y0061786D01*
X0051039Y0061827D01*
X0050886Y0061872D01*
X0050734Y0061921D01*
X0050583Y0061974D01*
X0050434Y0062030D01*
X0050286Y0062091D01*
X0050140Y0062154D01*
X0049995Y0062222D01*
X0049852Y0062293D01*
X0049711Y0062367D01*
X0049572Y0062445D01*
X0049435Y0062527D01*
X0049300Y0062612D01*
X0049167Y0062700D01*
X0049036Y0062792D01*
X0048908Y0062886D01*
X0048782Y0062984D01*
X0048658Y0063085D01*
X0048537Y0063189D01*
X0048419Y0063296D01*
X0048303Y0063406D01*
X0048190Y0063519D01*
X0048080Y0063635D01*
X0047973Y0063753D01*
X0047869Y0063874D01*
X0047768Y0063998D01*
X0047670Y0064124D01*
X0047576Y0064252D01*
X0047484Y0064383D01*
X0047396Y0064516D01*
X0047311Y0064651D01*
X0047229Y0064788D01*
X0047151Y0064927D01*
X0047077Y0065068D01*
X0047006Y0065211D01*
X0046938Y0065356D01*
X0046875Y0065502D01*
X0046814Y0065650D01*
X0046758Y0065799D01*
X0046705Y0065950D01*
X0046656Y0066102D01*
X0046611Y0066255D01*
X0046570Y0066409D01*
X0046532Y0066564D01*
X0046499Y0066720D01*
X0046469Y0066877D01*
X0046443Y0067034D01*
X0046422Y0067192D01*
X0046404Y0067351D01*
X0046390Y0067510D01*
X0046380Y0067669D01*
X0046374Y0067828D01*
X0046372Y0067988D01*
X0091372Y0067988D02*
X0091374Y0068148D01*
X0091380Y0068307D01*
X0091390Y0068466D01*
X0091404Y0068625D01*
X0091422Y0068784D01*
X0091443Y0068942D01*
X0091469Y0069099D01*
X0091499Y0069256D01*
X0091532Y0069412D01*
X0091570Y0069567D01*
X0091611Y0069721D01*
X0091656Y0069874D01*
X0091705Y0070026D01*
X0091758Y0070177D01*
X0091814Y0070326D01*
X0091875Y0070474D01*
X0091938Y0070620D01*
X0092006Y0070765D01*
X0092077Y0070908D01*
X0092151Y0071049D01*
X0092229Y0071188D01*
X0092311Y0071325D01*
X0092396Y0071460D01*
X0092484Y0071593D01*
X0092576Y0071724D01*
X0092670Y0071852D01*
X0092768Y0071978D01*
X0092869Y0072102D01*
X0092973Y0072223D01*
X0093080Y0072341D01*
X0093190Y0072457D01*
X0093303Y0072570D01*
X0093419Y0072680D01*
X0093537Y0072787D01*
X0093658Y0072891D01*
X0093782Y0072992D01*
X0093908Y0073090D01*
X0094036Y0073184D01*
X0094167Y0073276D01*
X0094300Y0073364D01*
X0094435Y0073449D01*
X0094572Y0073531D01*
X0094711Y0073609D01*
X0094852Y0073683D01*
X0094995Y0073754D01*
X0095140Y0073822D01*
X0095286Y0073885D01*
X0095434Y0073946D01*
X0095583Y0074002D01*
X0095734Y0074055D01*
X0095886Y0074104D01*
X0096039Y0074149D01*
X0096193Y0074190D01*
X0096348Y0074228D01*
X0096504Y0074261D01*
X0096661Y0074291D01*
X0096818Y0074317D01*
X0096976Y0074338D01*
X0097135Y0074356D01*
X0097294Y0074370D01*
X0097453Y0074380D01*
X0097612Y0074386D01*
X0097772Y0074388D01*
X0097932Y0074386D01*
X0098091Y0074380D01*
X0098250Y0074370D01*
X0098409Y0074356D01*
X0098568Y0074338D01*
X0098726Y0074317D01*
X0098883Y0074291D01*
X0099040Y0074261D01*
X0099196Y0074228D01*
X0099351Y0074190D01*
X0099505Y0074149D01*
X0099658Y0074104D01*
X0099810Y0074055D01*
X0099961Y0074002D01*
X0100110Y0073946D01*
X0100258Y0073885D01*
X0100404Y0073822D01*
X0100549Y0073754D01*
X0100692Y0073683D01*
X0100833Y0073609D01*
X0100972Y0073531D01*
X0101109Y0073449D01*
X0101244Y0073364D01*
X0101377Y0073276D01*
X0101508Y0073184D01*
X0101636Y0073090D01*
X0101762Y0072992D01*
X0101886Y0072891D01*
X0102007Y0072787D01*
X0102125Y0072680D01*
X0102241Y0072570D01*
X0102354Y0072457D01*
X0102464Y0072341D01*
X0102571Y0072223D01*
X0102675Y0072102D01*
X0102776Y0071978D01*
X0102874Y0071852D01*
X0102968Y0071724D01*
X0103060Y0071593D01*
X0103148Y0071460D01*
X0103233Y0071325D01*
X0103315Y0071188D01*
X0103393Y0071049D01*
X0103467Y0070908D01*
X0103538Y0070765D01*
X0103606Y0070620D01*
X0103669Y0070474D01*
X0103730Y0070326D01*
X0103786Y0070177D01*
X0103839Y0070026D01*
X0103888Y0069874D01*
X0103933Y0069721D01*
X0103974Y0069567D01*
X0104012Y0069412D01*
X0104045Y0069256D01*
X0104075Y0069099D01*
X0104101Y0068942D01*
X0104122Y0068784D01*
X0104140Y0068625D01*
X0104154Y0068466D01*
X0104164Y0068307D01*
X0104170Y0068148D01*
X0104172Y0067988D01*
X0104170Y0067828D01*
X0104164Y0067669D01*
X0104154Y0067510D01*
X0104140Y0067351D01*
X0104122Y0067192D01*
X0104101Y0067034D01*
X0104075Y0066877D01*
X0104045Y0066720D01*
X0104012Y0066564D01*
X0103974Y0066409D01*
X0103933Y0066255D01*
X0103888Y0066102D01*
X0103839Y0065950D01*
X0103786Y0065799D01*
X0103730Y0065650D01*
X0103669Y0065502D01*
X0103606Y0065356D01*
X0103538Y0065211D01*
X0103467Y0065068D01*
X0103393Y0064927D01*
X0103315Y0064788D01*
X0103233Y0064651D01*
X0103148Y0064516D01*
X0103060Y0064383D01*
X0102968Y0064252D01*
X0102874Y0064124D01*
X0102776Y0063998D01*
X0102675Y0063874D01*
X0102571Y0063753D01*
X0102464Y0063635D01*
X0102354Y0063519D01*
X0102241Y0063406D01*
X0102125Y0063296D01*
X0102007Y0063189D01*
X0101886Y0063085D01*
X0101762Y0062984D01*
X0101636Y0062886D01*
X0101508Y0062792D01*
X0101377Y0062700D01*
X0101244Y0062612D01*
X0101109Y0062527D01*
X0100972Y0062445D01*
X0100833Y0062367D01*
X0100692Y0062293D01*
X0100549Y0062222D01*
X0100404Y0062154D01*
X0100258Y0062091D01*
X0100110Y0062030D01*
X0099961Y0061974D01*
X0099810Y0061921D01*
X0099658Y0061872D01*
X0099505Y0061827D01*
X0099351Y0061786D01*
X0099196Y0061748D01*
X0099040Y0061715D01*
X0098883Y0061685D01*
X0098726Y0061659D01*
X0098568Y0061638D01*
X0098409Y0061620D01*
X0098250Y0061606D01*
X0098091Y0061596D01*
X0097932Y0061590D01*
X0097772Y0061588D01*
X0097612Y0061590D01*
X0097453Y0061596D01*
X0097294Y0061606D01*
X0097135Y0061620D01*
X0096976Y0061638D01*
X0096818Y0061659D01*
X0096661Y0061685D01*
X0096504Y0061715D01*
X0096348Y0061748D01*
X0096193Y0061786D01*
X0096039Y0061827D01*
X0095886Y0061872D01*
X0095734Y0061921D01*
X0095583Y0061974D01*
X0095434Y0062030D01*
X0095286Y0062091D01*
X0095140Y0062154D01*
X0094995Y0062222D01*
X0094852Y0062293D01*
X0094711Y0062367D01*
X0094572Y0062445D01*
X0094435Y0062527D01*
X0094300Y0062612D01*
X0094167Y0062700D01*
X0094036Y0062792D01*
X0093908Y0062886D01*
X0093782Y0062984D01*
X0093658Y0063085D01*
X0093537Y0063189D01*
X0093419Y0063296D01*
X0093303Y0063406D01*
X0093190Y0063519D01*
X0093080Y0063635D01*
X0092973Y0063753D01*
X0092869Y0063874D01*
X0092768Y0063998D01*
X0092670Y0064124D01*
X0092576Y0064252D01*
X0092484Y0064383D01*
X0092396Y0064516D01*
X0092311Y0064651D01*
X0092229Y0064788D01*
X0092151Y0064927D01*
X0092077Y0065068D01*
X0092006Y0065211D01*
X0091938Y0065356D01*
X0091875Y0065502D01*
X0091814Y0065650D01*
X0091758Y0065799D01*
X0091705Y0065950D01*
X0091656Y0066102D01*
X0091611Y0066255D01*
X0091570Y0066409D01*
X0091532Y0066564D01*
X0091499Y0066720D01*
X0091469Y0066877D01*
X0091443Y0067034D01*
X0091422Y0067192D01*
X0091404Y0067351D01*
X0091390Y0067510D01*
X0091380Y0067669D01*
X0091374Y0067828D01*
X0091372Y0067988D01*
X0282592Y0067988D02*
X0282594Y0068148D01*
X0282600Y0068307D01*
X0282610Y0068466D01*
X0282624Y0068625D01*
X0282642Y0068784D01*
X0282663Y0068942D01*
X0282689Y0069099D01*
X0282719Y0069256D01*
X0282752Y0069412D01*
X0282790Y0069567D01*
X0282831Y0069721D01*
X0282876Y0069874D01*
X0282925Y0070026D01*
X0282978Y0070177D01*
X0283034Y0070326D01*
X0283095Y0070474D01*
X0283158Y0070620D01*
X0283226Y0070765D01*
X0283297Y0070908D01*
X0283371Y0071049D01*
X0283449Y0071188D01*
X0283531Y0071325D01*
X0283616Y0071460D01*
X0283704Y0071593D01*
X0283796Y0071724D01*
X0283890Y0071852D01*
X0283988Y0071978D01*
X0284089Y0072102D01*
X0284193Y0072223D01*
X0284300Y0072341D01*
X0284410Y0072457D01*
X0284523Y0072570D01*
X0284639Y0072680D01*
X0284757Y0072787D01*
X0284878Y0072891D01*
X0285002Y0072992D01*
X0285128Y0073090D01*
X0285256Y0073184D01*
X0285387Y0073276D01*
X0285520Y0073364D01*
X0285655Y0073449D01*
X0285792Y0073531D01*
X0285931Y0073609D01*
X0286072Y0073683D01*
X0286215Y0073754D01*
X0286360Y0073822D01*
X0286506Y0073885D01*
X0286654Y0073946D01*
X0286803Y0074002D01*
X0286954Y0074055D01*
X0287106Y0074104D01*
X0287259Y0074149D01*
X0287413Y0074190D01*
X0287568Y0074228D01*
X0287724Y0074261D01*
X0287881Y0074291D01*
X0288038Y0074317D01*
X0288196Y0074338D01*
X0288355Y0074356D01*
X0288514Y0074370D01*
X0288673Y0074380D01*
X0288832Y0074386D01*
X0288992Y0074388D01*
X0289152Y0074386D01*
X0289311Y0074380D01*
X0289470Y0074370D01*
X0289629Y0074356D01*
X0289788Y0074338D01*
X0289946Y0074317D01*
X0290103Y0074291D01*
X0290260Y0074261D01*
X0290416Y0074228D01*
X0290571Y0074190D01*
X0290725Y0074149D01*
X0290878Y0074104D01*
X0291030Y0074055D01*
X0291181Y0074002D01*
X0291330Y0073946D01*
X0291478Y0073885D01*
X0291624Y0073822D01*
X0291769Y0073754D01*
X0291912Y0073683D01*
X0292053Y0073609D01*
X0292192Y0073531D01*
X0292329Y0073449D01*
X0292464Y0073364D01*
X0292597Y0073276D01*
X0292728Y0073184D01*
X0292856Y0073090D01*
X0292982Y0072992D01*
X0293106Y0072891D01*
X0293227Y0072787D01*
X0293345Y0072680D01*
X0293461Y0072570D01*
X0293574Y0072457D01*
X0293684Y0072341D01*
X0293791Y0072223D01*
X0293895Y0072102D01*
X0293996Y0071978D01*
X0294094Y0071852D01*
X0294188Y0071724D01*
X0294280Y0071593D01*
X0294368Y0071460D01*
X0294453Y0071325D01*
X0294535Y0071188D01*
X0294613Y0071049D01*
X0294687Y0070908D01*
X0294758Y0070765D01*
X0294826Y0070620D01*
X0294889Y0070474D01*
X0294950Y0070326D01*
X0295006Y0070177D01*
X0295059Y0070026D01*
X0295108Y0069874D01*
X0295153Y0069721D01*
X0295194Y0069567D01*
X0295232Y0069412D01*
X0295265Y0069256D01*
X0295295Y0069099D01*
X0295321Y0068942D01*
X0295342Y0068784D01*
X0295360Y0068625D01*
X0295374Y0068466D01*
X0295384Y0068307D01*
X0295390Y0068148D01*
X0295392Y0067988D01*
X0295390Y0067828D01*
X0295384Y0067669D01*
X0295374Y0067510D01*
X0295360Y0067351D01*
X0295342Y0067192D01*
X0295321Y0067034D01*
X0295295Y0066877D01*
X0295265Y0066720D01*
X0295232Y0066564D01*
X0295194Y0066409D01*
X0295153Y0066255D01*
X0295108Y0066102D01*
X0295059Y0065950D01*
X0295006Y0065799D01*
X0294950Y0065650D01*
X0294889Y0065502D01*
X0294826Y0065356D01*
X0294758Y0065211D01*
X0294687Y0065068D01*
X0294613Y0064927D01*
X0294535Y0064788D01*
X0294453Y0064651D01*
X0294368Y0064516D01*
X0294280Y0064383D01*
X0294188Y0064252D01*
X0294094Y0064124D01*
X0293996Y0063998D01*
X0293895Y0063874D01*
X0293791Y0063753D01*
X0293684Y0063635D01*
X0293574Y0063519D01*
X0293461Y0063406D01*
X0293345Y0063296D01*
X0293227Y0063189D01*
X0293106Y0063085D01*
X0292982Y0062984D01*
X0292856Y0062886D01*
X0292728Y0062792D01*
X0292597Y0062700D01*
X0292464Y0062612D01*
X0292329Y0062527D01*
X0292192Y0062445D01*
X0292053Y0062367D01*
X0291912Y0062293D01*
X0291769Y0062222D01*
X0291624Y0062154D01*
X0291478Y0062091D01*
X0291330Y0062030D01*
X0291181Y0061974D01*
X0291030Y0061921D01*
X0290878Y0061872D01*
X0290725Y0061827D01*
X0290571Y0061786D01*
X0290416Y0061748D01*
X0290260Y0061715D01*
X0290103Y0061685D01*
X0289946Y0061659D01*
X0289788Y0061638D01*
X0289629Y0061620D01*
X0289470Y0061606D01*
X0289311Y0061596D01*
X0289152Y0061590D01*
X0288992Y0061588D01*
X0288832Y0061590D01*
X0288673Y0061596D01*
X0288514Y0061606D01*
X0288355Y0061620D01*
X0288196Y0061638D01*
X0288038Y0061659D01*
X0287881Y0061685D01*
X0287724Y0061715D01*
X0287568Y0061748D01*
X0287413Y0061786D01*
X0287259Y0061827D01*
X0287106Y0061872D01*
X0286954Y0061921D01*
X0286803Y0061974D01*
X0286654Y0062030D01*
X0286506Y0062091D01*
X0286360Y0062154D01*
X0286215Y0062222D01*
X0286072Y0062293D01*
X0285931Y0062367D01*
X0285792Y0062445D01*
X0285655Y0062527D01*
X0285520Y0062612D01*
X0285387Y0062700D01*
X0285256Y0062792D01*
X0285128Y0062886D01*
X0285002Y0062984D01*
X0284878Y0063085D01*
X0284757Y0063189D01*
X0284639Y0063296D01*
X0284523Y0063406D01*
X0284410Y0063519D01*
X0284300Y0063635D01*
X0284193Y0063753D01*
X0284089Y0063874D01*
X0283988Y0063998D01*
X0283890Y0064124D01*
X0283796Y0064252D01*
X0283704Y0064383D01*
X0283616Y0064516D01*
X0283531Y0064651D01*
X0283449Y0064788D01*
X0283371Y0064927D01*
X0283297Y0065068D01*
X0283226Y0065211D01*
X0283158Y0065356D01*
X0283095Y0065502D01*
X0283034Y0065650D01*
X0282978Y0065799D01*
X0282925Y0065950D01*
X0282876Y0066102D01*
X0282831Y0066255D01*
X0282790Y0066409D01*
X0282752Y0066564D01*
X0282719Y0066720D01*
X0282689Y0066877D01*
X0282663Y0067034D01*
X0282642Y0067192D01*
X0282624Y0067351D01*
X0282610Y0067510D01*
X0282600Y0067669D01*
X0282594Y0067828D01*
X0282592Y0067988D01*
X0327592Y0067988D02*
X0327594Y0068148D01*
X0327600Y0068307D01*
X0327610Y0068466D01*
X0327624Y0068625D01*
X0327642Y0068784D01*
X0327663Y0068942D01*
X0327689Y0069099D01*
X0327719Y0069256D01*
X0327752Y0069412D01*
X0327790Y0069567D01*
X0327831Y0069721D01*
X0327876Y0069874D01*
X0327925Y0070026D01*
X0327978Y0070177D01*
X0328034Y0070326D01*
X0328095Y0070474D01*
X0328158Y0070620D01*
X0328226Y0070765D01*
X0328297Y0070908D01*
X0328371Y0071049D01*
X0328449Y0071188D01*
X0328531Y0071325D01*
X0328616Y0071460D01*
X0328704Y0071593D01*
X0328796Y0071724D01*
X0328890Y0071852D01*
X0328988Y0071978D01*
X0329089Y0072102D01*
X0329193Y0072223D01*
X0329300Y0072341D01*
X0329410Y0072457D01*
X0329523Y0072570D01*
X0329639Y0072680D01*
X0329757Y0072787D01*
X0329878Y0072891D01*
X0330002Y0072992D01*
X0330128Y0073090D01*
X0330256Y0073184D01*
X0330387Y0073276D01*
X0330520Y0073364D01*
X0330655Y0073449D01*
X0330792Y0073531D01*
X0330931Y0073609D01*
X0331072Y0073683D01*
X0331215Y0073754D01*
X0331360Y0073822D01*
X0331506Y0073885D01*
X0331654Y0073946D01*
X0331803Y0074002D01*
X0331954Y0074055D01*
X0332106Y0074104D01*
X0332259Y0074149D01*
X0332413Y0074190D01*
X0332568Y0074228D01*
X0332724Y0074261D01*
X0332881Y0074291D01*
X0333038Y0074317D01*
X0333196Y0074338D01*
X0333355Y0074356D01*
X0333514Y0074370D01*
X0333673Y0074380D01*
X0333832Y0074386D01*
X0333992Y0074388D01*
X0334152Y0074386D01*
X0334311Y0074380D01*
X0334470Y0074370D01*
X0334629Y0074356D01*
X0334788Y0074338D01*
X0334946Y0074317D01*
X0335103Y0074291D01*
X0335260Y0074261D01*
X0335416Y0074228D01*
X0335571Y0074190D01*
X0335725Y0074149D01*
X0335878Y0074104D01*
X0336030Y0074055D01*
X0336181Y0074002D01*
X0336330Y0073946D01*
X0336478Y0073885D01*
X0336624Y0073822D01*
X0336769Y0073754D01*
X0336912Y0073683D01*
X0337053Y0073609D01*
X0337192Y0073531D01*
X0337329Y0073449D01*
X0337464Y0073364D01*
X0337597Y0073276D01*
X0337728Y0073184D01*
X0337856Y0073090D01*
X0337982Y0072992D01*
X0338106Y0072891D01*
X0338227Y0072787D01*
X0338345Y0072680D01*
X0338461Y0072570D01*
X0338574Y0072457D01*
X0338684Y0072341D01*
X0338791Y0072223D01*
X0338895Y0072102D01*
X0338996Y0071978D01*
X0339094Y0071852D01*
X0339188Y0071724D01*
X0339280Y0071593D01*
X0339368Y0071460D01*
X0339453Y0071325D01*
X0339535Y0071188D01*
X0339613Y0071049D01*
X0339687Y0070908D01*
X0339758Y0070765D01*
X0339826Y0070620D01*
X0339889Y0070474D01*
X0339950Y0070326D01*
X0340006Y0070177D01*
X0340059Y0070026D01*
X0340108Y0069874D01*
X0340153Y0069721D01*
X0340194Y0069567D01*
X0340232Y0069412D01*
X0340265Y0069256D01*
X0340295Y0069099D01*
X0340321Y0068942D01*
X0340342Y0068784D01*
X0340360Y0068625D01*
X0340374Y0068466D01*
X0340384Y0068307D01*
X0340390Y0068148D01*
X0340392Y0067988D01*
X0340390Y0067828D01*
X0340384Y0067669D01*
X0340374Y0067510D01*
X0340360Y0067351D01*
X0340342Y0067192D01*
X0340321Y0067034D01*
X0340295Y0066877D01*
X0340265Y0066720D01*
X0340232Y0066564D01*
X0340194Y0066409D01*
X0340153Y0066255D01*
X0340108Y0066102D01*
X0340059Y0065950D01*
X0340006Y0065799D01*
X0339950Y0065650D01*
X0339889Y0065502D01*
X0339826Y0065356D01*
X0339758Y0065211D01*
X0339687Y0065068D01*
X0339613Y0064927D01*
X0339535Y0064788D01*
X0339453Y0064651D01*
X0339368Y0064516D01*
X0339280Y0064383D01*
X0339188Y0064252D01*
X0339094Y0064124D01*
X0338996Y0063998D01*
X0338895Y0063874D01*
X0338791Y0063753D01*
X0338684Y0063635D01*
X0338574Y0063519D01*
X0338461Y0063406D01*
X0338345Y0063296D01*
X0338227Y0063189D01*
X0338106Y0063085D01*
X0337982Y0062984D01*
X0337856Y0062886D01*
X0337728Y0062792D01*
X0337597Y0062700D01*
X0337464Y0062612D01*
X0337329Y0062527D01*
X0337192Y0062445D01*
X0337053Y0062367D01*
X0336912Y0062293D01*
X0336769Y0062222D01*
X0336624Y0062154D01*
X0336478Y0062091D01*
X0336330Y0062030D01*
X0336181Y0061974D01*
X0336030Y0061921D01*
X0335878Y0061872D01*
X0335725Y0061827D01*
X0335571Y0061786D01*
X0335416Y0061748D01*
X0335260Y0061715D01*
X0335103Y0061685D01*
X0334946Y0061659D01*
X0334788Y0061638D01*
X0334629Y0061620D01*
X0334470Y0061606D01*
X0334311Y0061596D01*
X0334152Y0061590D01*
X0333992Y0061588D01*
X0333832Y0061590D01*
X0333673Y0061596D01*
X0333514Y0061606D01*
X0333355Y0061620D01*
X0333196Y0061638D01*
X0333038Y0061659D01*
X0332881Y0061685D01*
X0332724Y0061715D01*
X0332568Y0061748D01*
X0332413Y0061786D01*
X0332259Y0061827D01*
X0332106Y0061872D01*
X0331954Y0061921D01*
X0331803Y0061974D01*
X0331654Y0062030D01*
X0331506Y0062091D01*
X0331360Y0062154D01*
X0331215Y0062222D01*
X0331072Y0062293D01*
X0330931Y0062367D01*
X0330792Y0062445D01*
X0330655Y0062527D01*
X0330520Y0062612D01*
X0330387Y0062700D01*
X0330256Y0062792D01*
X0330128Y0062886D01*
X0330002Y0062984D01*
X0329878Y0063085D01*
X0329757Y0063189D01*
X0329639Y0063296D01*
X0329523Y0063406D01*
X0329410Y0063519D01*
X0329300Y0063635D01*
X0329193Y0063753D01*
X0329089Y0063874D01*
X0328988Y0063998D01*
X0328890Y0064124D01*
X0328796Y0064252D01*
X0328704Y0064383D01*
X0328616Y0064516D01*
X0328531Y0064651D01*
X0328449Y0064788D01*
X0328371Y0064927D01*
X0328297Y0065068D01*
X0328226Y0065211D01*
X0328158Y0065356D01*
X0328095Y0065502D01*
X0328034Y0065650D01*
X0327978Y0065799D01*
X0327925Y0065950D01*
X0327876Y0066102D01*
X0327831Y0066255D01*
X0327790Y0066409D01*
X0327752Y0066564D01*
X0327719Y0066720D01*
X0327689Y0066877D01*
X0327663Y0067034D01*
X0327642Y0067192D01*
X0327624Y0067351D01*
X0327610Y0067510D01*
X0327600Y0067669D01*
X0327594Y0067828D01*
X0327592Y0067988D01*
X0352437Y0060114D02*
X0352439Y0060272D01*
X0352445Y0060430D01*
X0352455Y0060588D01*
X0352469Y0060746D01*
X0352487Y0060903D01*
X0352508Y0061060D01*
X0352534Y0061216D01*
X0352564Y0061372D01*
X0352597Y0061527D01*
X0352635Y0061680D01*
X0352676Y0061833D01*
X0352721Y0061985D01*
X0352770Y0062136D01*
X0352823Y0062285D01*
X0352879Y0062433D01*
X0352939Y0062579D01*
X0353003Y0062724D01*
X0353071Y0062867D01*
X0353142Y0063009D01*
X0353216Y0063149D01*
X0353294Y0063286D01*
X0353376Y0063422D01*
X0353460Y0063556D01*
X0353549Y0063687D01*
X0353640Y0063816D01*
X0353735Y0063943D01*
X0353832Y0064068D01*
X0353933Y0064190D01*
X0354037Y0064309D01*
X0354144Y0064426D01*
X0354254Y0064540D01*
X0354367Y0064651D01*
X0354482Y0064760D01*
X0354600Y0064865D01*
X0354721Y0064967D01*
X0354844Y0065067D01*
X0354970Y0065163D01*
X0355098Y0065256D01*
X0355228Y0065346D01*
X0355361Y0065432D01*
X0355496Y0065516D01*
X0355632Y0065595D01*
X0355771Y0065672D01*
X0355912Y0065744D01*
X0356054Y0065814D01*
X0356198Y0065879D01*
X0356344Y0065941D01*
X0356491Y0065999D01*
X0356640Y0066054D01*
X0356790Y0066105D01*
X0356941Y0066152D01*
X0357093Y0066195D01*
X0357246Y0066234D01*
X0357401Y0066270D01*
X0357556Y0066301D01*
X0357712Y0066329D01*
X0357868Y0066353D01*
X0358025Y0066373D01*
X0358183Y0066389D01*
X0358340Y0066401D01*
X0358499Y0066409D01*
X0358657Y0066413D01*
X0358815Y0066413D01*
X0358973Y0066409D01*
X0359132Y0066401D01*
X0359289Y0066389D01*
X0359447Y0066373D01*
X0359604Y0066353D01*
X0359760Y0066329D01*
X0359916Y0066301D01*
X0360071Y0066270D01*
X0360226Y0066234D01*
X0360379Y0066195D01*
X0360531Y0066152D01*
X0360682Y0066105D01*
X0360832Y0066054D01*
X0360981Y0065999D01*
X0361128Y0065941D01*
X0361274Y0065879D01*
X0361418Y0065814D01*
X0361560Y0065744D01*
X0361701Y0065672D01*
X0361840Y0065595D01*
X0361976Y0065516D01*
X0362111Y0065432D01*
X0362244Y0065346D01*
X0362374Y0065256D01*
X0362502Y0065163D01*
X0362628Y0065067D01*
X0362751Y0064967D01*
X0362872Y0064865D01*
X0362990Y0064760D01*
X0363105Y0064651D01*
X0363218Y0064540D01*
X0363328Y0064426D01*
X0363435Y0064309D01*
X0363539Y0064190D01*
X0363640Y0064068D01*
X0363737Y0063943D01*
X0363832Y0063816D01*
X0363923Y0063687D01*
X0364012Y0063556D01*
X0364096Y0063422D01*
X0364178Y0063286D01*
X0364256Y0063149D01*
X0364330Y0063009D01*
X0364401Y0062867D01*
X0364469Y0062724D01*
X0364533Y0062579D01*
X0364593Y0062433D01*
X0364649Y0062285D01*
X0364702Y0062136D01*
X0364751Y0061985D01*
X0364796Y0061833D01*
X0364837Y0061680D01*
X0364875Y0061527D01*
X0364908Y0061372D01*
X0364938Y0061216D01*
X0364964Y0061060D01*
X0364985Y0060903D01*
X0365003Y0060746D01*
X0365017Y0060588D01*
X0365027Y0060430D01*
X0365033Y0060272D01*
X0365035Y0060114D01*
X0365033Y0059956D01*
X0365027Y0059798D01*
X0365017Y0059640D01*
X0365003Y0059482D01*
X0364985Y0059325D01*
X0364964Y0059168D01*
X0364938Y0059012D01*
X0364908Y0058856D01*
X0364875Y0058701D01*
X0364837Y0058548D01*
X0364796Y0058395D01*
X0364751Y0058243D01*
X0364702Y0058092D01*
X0364649Y0057943D01*
X0364593Y0057795D01*
X0364533Y0057649D01*
X0364469Y0057504D01*
X0364401Y0057361D01*
X0364330Y0057219D01*
X0364256Y0057079D01*
X0364178Y0056942D01*
X0364096Y0056806D01*
X0364012Y0056672D01*
X0363923Y0056541D01*
X0363832Y0056412D01*
X0363737Y0056285D01*
X0363640Y0056160D01*
X0363539Y0056038D01*
X0363435Y0055919D01*
X0363328Y0055802D01*
X0363218Y0055688D01*
X0363105Y0055577D01*
X0362990Y0055468D01*
X0362872Y0055363D01*
X0362751Y0055261D01*
X0362628Y0055161D01*
X0362502Y0055065D01*
X0362374Y0054972D01*
X0362244Y0054882D01*
X0362111Y0054796D01*
X0361976Y0054712D01*
X0361840Y0054633D01*
X0361701Y0054556D01*
X0361560Y0054484D01*
X0361418Y0054414D01*
X0361274Y0054349D01*
X0361128Y0054287D01*
X0360981Y0054229D01*
X0360832Y0054174D01*
X0360682Y0054123D01*
X0360531Y0054076D01*
X0360379Y0054033D01*
X0360226Y0053994D01*
X0360071Y0053958D01*
X0359916Y0053927D01*
X0359760Y0053899D01*
X0359604Y0053875D01*
X0359447Y0053855D01*
X0359289Y0053839D01*
X0359132Y0053827D01*
X0358973Y0053819D01*
X0358815Y0053815D01*
X0358657Y0053815D01*
X0358499Y0053819D01*
X0358340Y0053827D01*
X0358183Y0053839D01*
X0358025Y0053855D01*
X0357868Y0053875D01*
X0357712Y0053899D01*
X0357556Y0053927D01*
X0357401Y0053958D01*
X0357246Y0053994D01*
X0357093Y0054033D01*
X0356941Y0054076D01*
X0356790Y0054123D01*
X0356640Y0054174D01*
X0356491Y0054229D01*
X0356344Y0054287D01*
X0356198Y0054349D01*
X0356054Y0054414D01*
X0355912Y0054484D01*
X0355771Y0054556D01*
X0355632Y0054633D01*
X0355496Y0054712D01*
X0355361Y0054796D01*
X0355228Y0054882D01*
X0355098Y0054972D01*
X0354970Y0055065D01*
X0354844Y0055161D01*
X0354721Y0055261D01*
X0354600Y0055363D01*
X0354482Y0055468D01*
X0354367Y0055577D01*
X0354254Y0055688D01*
X0354144Y0055802D01*
X0354037Y0055919D01*
X0353933Y0056038D01*
X0353832Y0056160D01*
X0353735Y0056285D01*
X0353640Y0056412D01*
X0353549Y0056541D01*
X0353460Y0056672D01*
X0353376Y0056806D01*
X0353294Y0056942D01*
X0353216Y0057079D01*
X0353142Y0057219D01*
X0353071Y0057361D01*
X0353003Y0057504D01*
X0352939Y0057649D01*
X0352879Y0057795D01*
X0352823Y0057943D01*
X0352770Y0058092D01*
X0352721Y0058243D01*
X0352676Y0058395D01*
X0352635Y0058548D01*
X0352597Y0058701D01*
X0352564Y0058856D01*
X0352534Y0059012D01*
X0352508Y0059168D01*
X0352487Y0059325D01*
X0352469Y0059482D01*
X0352455Y0059640D01*
X0352445Y0059798D01*
X0352439Y0059956D01*
X0352437Y0060114D01*
X0352437Y0272713D02*
X0352439Y0272871D01*
X0352445Y0273029D01*
X0352455Y0273187D01*
X0352469Y0273345D01*
X0352487Y0273502D01*
X0352508Y0273659D01*
X0352534Y0273815D01*
X0352564Y0273971D01*
X0352597Y0274126D01*
X0352635Y0274279D01*
X0352676Y0274432D01*
X0352721Y0274584D01*
X0352770Y0274735D01*
X0352823Y0274884D01*
X0352879Y0275032D01*
X0352939Y0275178D01*
X0353003Y0275323D01*
X0353071Y0275466D01*
X0353142Y0275608D01*
X0353216Y0275748D01*
X0353294Y0275885D01*
X0353376Y0276021D01*
X0353460Y0276155D01*
X0353549Y0276286D01*
X0353640Y0276415D01*
X0353735Y0276542D01*
X0353832Y0276667D01*
X0353933Y0276789D01*
X0354037Y0276908D01*
X0354144Y0277025D01*
X0354254Y0277139D01*
X0354367Y0277250D01*
X0354482Y0277359D01*
X0354600Y0277464D01*
X0354721Y0277566D01*
X0354844Y0277666D01*
X0354970Y0277762D01*
X0355098Y0277855D01*
X0355228Y0277945D01*
X0355361Y0278031D01*
X0355496Y0278115D01*
X0355632Y0278194D01*
X0355771Y0278271D01*
X0355912Y0278343D01*
X0356054Y0278413D01*
X0356198Y0278478D01*
X0356344Y0278540D01*
X0356491Y0278598D01*
X0356640Y0278653D01*
X0356790Y0278704D01*
X0356941Y0278751D01*
X0357093Y0278794D01*
X0357246Y0278833D01*
X0357401Y0278869D01*
X0357556Y0278900D01*
X0357712Y0278928D01*
X0357868Y0278952D01*
X0358025Y0278972D01*
X0358183Y0278988D01*
X0358340Y0279000D01*
X0358499Y0279008D01*
X0358657Y0279012D01*
X0358815Y0279012D01*
X0358973Y0279008D01*
X0359132Y0279000D01*
X0359289Y0278988D01*
X0359447Y0278972D01*
X0359604Y0278952D01*
X0359760Y0278928D01*
X0359916Y0278900D01*
X0360071Y0278869D01*
X0360226Y0278833D01*
X0360379Y0278794D01*
X0360531Y0278751D01*
X0360682Y0278704D01*
X0360832Y0278653D01*
X0360981Y0278598D01*
X0361128Y0278540D01*
X0361274Y0278478D01*
X0361418Y0278413D01*
X0361560Y0278343D01*
X0361701Y0278271D01*
X0361840Y0278194D01*
X0361976Y0278115D01*
X0362111Y0278031D01*
X0362244Y0277945D01*
X0362374Y0277855D01*
X0362502Y0277762D01*
X0362628Y0277666D01*
X0362751Y0277566D01*
X0362872Y0277464D01*
X0362990Y0277359D01*
X0363105Y0277250D01*
X0363218Y0277139D01*
X0363328Y0277025D01*
X0363435Y0276908D01*
X0363539Y0276789D01*
X0363640Y0276667D01*
X0363737Y0276542D01*
X0363832Y0276415D01*
X0363923Y0276286D01*
X0364012Y0276155D01*
X0364096Y0276021D01*
X0364178Y0275885D01*
X0364256Y0275748D01*
X0364330Y0275608D01*
X0364401Y0275466D01*
X0364469Y0275323D01*
X0364533Y0275178D01*
X0364593Y0275032D01*
X0364649Y0274884D01*
X0364702Y0274735D01*
X0364751Y0274584D01*
X0364796Y0274432D01*
X0364837Y0274279D01*
X0364875Y0274126D01*
X0364908Y0273971D01*
X0364938Y0273815D01*
X0364964Y0273659D01*
X0364985Y0273502D01*
X0365003Y0273345D01*
X0365017Y0273187D01*
X0365027Y0273029D01*
X0365033Y0272871D01*
X0365035Y0272713D01*
X0365033Y0272555D01*
X0365027Y0272397D01*
X0365017Y0272239D01*
X0365003Y0272081D01*
X0364985Y0271924D01*
X0364964Y0271767D01*
X0364938Y0271611D01*
X0364908Y0271455D01*
X0364875Y0271300D01*
X0364837Y0271147D01*
X0364796Y0270994D01*
X0364751Y0270842D01*
X0364702Y0270691D01*
X0364649Y0270542D01*
X0364593Y0270394D01*
X0364533Y0270248D01*
X0364469Y0270103D01*
X0364401Y0269960D01*
X0364330Y0269818D01*
X0364256Y0269678D01*
X0364178Y0269541D01*
X0364096Y0269405D01*
X0364012Y0269271D01*
X0363923Y0269140D01*
X0363832Y0269011D01*
X0363737Y0268884D01*
X0363640Y0268759D01*
X0363539Y0268637D01*
X0363435Y0268518D01*
X0363328Y0268401D01*
X0363218Y0268287D01*
X0363105Y0268176D01*
X0362990Y0268067D01*
X0362872Y0267962D01*
X0362751Y0267860D01*
X0362628Y0267760D01*
X0362502Y0267664D01*
X0362374Y0267571D01*
X0362244Y0267481D01*
X0362111Y0267395D01*
X0361976Y0267311D01*
X0361840Y0267232D01*
X0361701Y0267155D01*
X0361560Y0267083D01*
X0361418Y0267013D01*
X0361274Y0266948D01*
X0361128Y0266886D01*
X0360981Y0266828D01*
X0360832Y0266773D01*
X0360682Y0266722D01*
X0360531Y0266675D01*
X0360379Y0266632D01*
X0360226Y0266593D01*
X0360071Y0266557D01*
X0359916Y0266526D01*
X0359760Y0266498D01*
X0359604Y0266474D01*
X0359447Y0266454D01*
X0359289Y0266438D01*
X0359132Y0266426D01*
X0358973Y0266418D01*
X0358815Y0266414D01*
X0358657Y0266414D01*
X0358499Y0266418D01*
X0358340Y0266426D01*
X0358183Y0266438D01*
X0358025Y0266454D01*
X0357868Y0266474D01*
X0357712Y0266498D01*
X0357556Y0266526D01*
X0357401Y0266557D01*
X0357246Y0266593D01*
X0357093Y0266632D01*
X0356941Y0266675D01*
X0356790Y0266722D01*
X0356640Y0266773D01*
X0356491Y0266828D01*
X0356344Y0266886D01*
X0356198Y0266948D01*
X0356054Y0267013D01*
X0355912Y0267083D01*
X0355771Y0267155D01*
X0355632Y0267232D01*
X0355496Y0267311D01*
X0355361Y0267395D01*
X0355228Y0267481D01*
X0355098Y0267571D01*
X0354970Y0267664D01*
X0354844Y0267760D01*
X0354721Y0267860D01*
X0354600Y0267962D01*
X0354482Y0268067D01*
X0354367Y0268176D01*
X0354254Y0268287D01*
X0354144Y0268401D01*
X0354037Y0268518D01*
X0353933Y0268637D01*
X0353832Y0268759D01*
X0353735Y0268884D01*
X0353640Y0269011D01*
X0353549Y0269140D01*
X0353460Y0269271D01*
X0353376Y0269405D01*
X0353294Y0269541D01*
X0353216Y0269678D01*
X0353142Y0269818D01*
X0353071Y0269960D01*
X0353003Y0270103D01*
X0352939Y0270248D01*
X0352879Y0270394D01*
X0352823Y0270542D01*
X0352770Y0270691D01*
X0352721Y0270842D01*
X0352676Y0270994D01*
X0352635Y0271147D01*
X0352597Y0271300D01*
X0352564Y0271455D01*
X0352534Y0271611D01*
X0352508Y0271767D01*
X0352487Y0271924D01*
X0352469Y0272081D01*
X0352455Y0272239D01*
X0352445Y0272397D01*
X0352439Y0272555D01*
X0352437Y0272713D01*
X0021729Y0272713D02*
X0021731Y0272871D01*
X0021737Y0273029D01*
X0021747Y0273187D01*
X0021761Y0273345D01*
X0021779Y0273502D01*
X0021800Y0273659D01*
X0021826Y0273815D01*
X0021856Y0273971D01*
X0021889Y0274126D01*
X0021927Y0274279D01*
X0021968Y0274432D01*
X0022013Y0274584D01*
X0022062Y0274735D01*
X0022115Y0274884D01*
X0022171Y0275032D01*
X0022231Y0275178D01*
X0022295Y0275323D01*
X0022363Y0275466D01*
X0022434Y0275608D01*
X0022508Y0275748D01*
X0022586Y0275885D01*
X0022668Y0276021D01*
X0022752Y0276155D01*
X0022841Y0276286D01*
X0022932Y0276415D01*
X0023027Y0276542D01*
X0023124Y0276667D01*
X0023225Y0276789D01*
X0023329Y0276908D01*
X0023436Y0277025D01*
X0023546Y0277139D01*
X0023659Y0277250D01*
X0023774Y0277359D01*
X0023892Y0277464D01*
X0024013Y0277566D01*
X0024136Y0277666D01*
X0024262Y0277762D01*
X0024390Y0277855D01*
X0024520Y0277945D01*
X0024653Y0278031D01*
X0024788Y0278115D01*
X0024924Y0278194D01*
X0025063Y0278271D01*
X0025204Y0278343D01*
X0025346Y0278413D01*
X0025490Y0278478D01*
X0025636Y0278540D01*
X0025783Y0278598D01*
X0025932Y0278653D01*
X0026082Y0278704D01*
X0026233Y0278751D01*
X0026385Y0278794D01*
X0026538Y0278833D01*
X0026693Y0278869D01*
X0026848Y0278900D01*
X0027004Y0278928D01*
X0027160Y0278952D01*
X0027317Y0278972D01*
X0027475Y0278988D01*
X0027632Y0279000D01*
X0027791Y0279008D01*
X0027949Y0279012D01*
X0028107Y0279012D01*
X0028265Y0279008D01*
X0028424Y0279000D01*
X0028581Y0278988D01*
X0028739Y0278972D01*
X0028896Y0278952D01*
X0029052Y0278928D01*
X0029208Y0278900D01*
X0029363Y0278869D01*
X0029518Y0278833D01*
X0029671Y0278794D01*
X0029823Y0278751D01*
X0029974Y0278704D01*
X0030124Y0278653D01*
X0030273Y0278598D01*
X0030420Y0278540D01*
X0030566Y0278478D01*
X0030710Y0278413D01*
X0030852Y0278343D01*
X0030993Y0278271D01*
X0031132Y0278194D01*
X0031268Y0278115D01*
X0031403Y0278031D01*
X0031536Y0277945D01*
X0031666Y0277855D01*
X0031794Y0277762D01*
X0031920Y0277666D01*
X0032043Y0277566D01*
X0032164Y0277464D01*
X0032282Y0277359D01*
X0032397Y0277250D01*
X0032510Y0277139D01*
X0032620Y0277025D01*
X0032727Y0276908D01*
X0032831Y0276789D01*
X0032932Y0276667D01*
X0033029Y0276542D01*
X0033124Y0276415D01*
X0033215Y0276286D01*
X0033304Y0276155D01*
X0033388Y0276021D01*
X0033470Y0275885D01*
X0033548Y0275748D01*
X0033622Y0275608D01*
X0033693Y0275466D01*
X0033761Y0275323D01*
X0033825Y0275178D01*
X0033885Y0275032D01*
X0033941Y0274884D01*
X0033994Y0274735D01*
X0034043Y0274584D01*
X0034088Y0274432D01*
X0034129Y0274279D01*
X0034167Y0274126D01*
X0034200Y0273971D01*
X0034230Y0273815D01*
X0034256Y0273659D01*
X0034277Y0273502D01*
X0034295Y0273345D01*
X0034309Y0273187D01*
X0034319Y0273029D01*
X0034325Y0272871D01*
X0034327Y0272713D01*
X0034325Y0272555D01*
X0034319Y0272397D01*
X0034309Y0272239D01*
X0034295Y0272081D01*
X0034277Y0271924D01*
X0034256Y0271767D01*
X0034230Y0271611D01*
X0034200Y0271455D01*
X0034167Y0271300D01*
X0034129Y0271147D01*
X0034088Y0270994D01*
X0034043Y0270842D01*
X0033994Y0270691D01*
X0033941Y0270542D01*
X0033885Y0270394D01*
X0033825Y0270248D01*
X0033761Y0270103D01*
X0033693Y0269960D01*
X0033622Y0269818D01*
X0033548Y0269678D01*
X0033470Y0269541D01*
X0033388Y0269405D01*
X0033304Y0269271D01*
X0033215Y0269140D01*
X0033124Y0269011D01*
X0033029Y0268884D01*
X0032932Y0268759D01*
X0032831Y0268637D01*
X0032727Y0268518D01*
X0032620Y0268401D01*
X0032510Y0268287D01*
X0032397Y0268176D01*
X0032282Y0268067D01*
X0032164Y0267962D01*
X0032043Y0267860D01*
X0031920Y0267760D01*
X0031794Y0267664D01*
X0031666Y0267571D01*
X0031536Y0267481D01*
X0031403Y0267395D01*
X0031268Y0267311D01*
X0031132Y0267232D01*
X0030993Y0267155D01*
X0030852Y0267083D01*
X0030710Y0267013D01*
X0030566Y0266948D01*
X0030420Y0266886D01*
X0030273Y0266828D01*
X0030124Y0266773D01*
X0029974Y0266722D01*
X0029823Y0266675D01*
X0029671Y0266632D01*
X0029518Y0266593D01*
X0029363Y0266557D01*
X0029208Y0266526D01*
X0029052Y0266498D01*
X0028896Y0266474D01*
X0028739Y0266454D01*
X0028581Y0266438D01*
X0028424Y0266426D01*
X0028265Y0266418D01*
X0028107Y0266414D01*
X0027949Y0266414D01*
X0027791Y0266418D01*
X0027632Y0266426D01*
X0027475Y0266438D01*
X0027317Y0266454D01*
X0027160Y0266474D01*
X0027004Y0266498D01*
X0026848Y0266526D01*
X0026693Y0266557D01*
X0026538Y0266593D01*
X0026385Y0266632D01*
X0026233Y0266675D01*
X0026082Y0266722D01*
X0025932Y0266773D01*
X0025783Y0266828D01*
X0025636Y0266886D01*
X0025490Y0266948D01*
X0025346Y0267013D01*
X0025204Y0267083D01*
X0025063Y0267155D01*
X0024924Y0267232D01*
X0024788Y0267311D01*
X0024653Y0267395D01*
X0024520Y0267481D01*
X0024390Y0267571D01*
X0024262Y0267664D01*
X0024136Y0267760D01*
X0024013Y0267860D01*
X0023892Y0267962D01*
X0023774Y0268067D01*
X0023659Y0268176D01*
X0023546Y0268287D01*
X0023436Y0268401D01*
X0023329Y0268518D01*
X0023225Y0268637D01*
X0023124Y0268759D01*
X0023027Y0268884D01*
X0022932Y0269011D01*
X0022841Y0269140D01*
X0022752Y0269271D01*
X0022668Y0269405D01*
X0022586Y0269541D01*
X0022508Y0269678D01*
X0022434Y0269818D01*
X0022363Y0269960D01*
X0022295Y0270103D01*
X0022231Y0270248D01*
X0022171Y0270394D01*
X0022115Y0270542D01*
X0022062Y0270691D01*
X0022013Y0270842D01*
X0021968Y0270994D01*
X0021927Y0271147D01*
X0021889Y0271300D01*
X0021856Y0271455D01*
X0021826Y0271611D01*
X0021800Y0271767D01*
X0021779Y0271924D01*
X0021761Y0272081D01*
X0021747Y0272239D01*
X0021737Y0272397D01*
X0021731Y0272555D01*
X0021729Y0272713D01*
D11*
X0028028Y0272713D03*
X0028028Y0060114D03*
X0358736Y0060114D03*
X0358736Y0272713D03*
D12*
X0208717Y0153303D03*
X0208717Y0143303D03*
X0208717Y0133303D03*
X0208717Y0123303D03*
X0221217Y0098303D03*
X0261217Y0098303D03*
X0166217Y0128303D03*
X0156217Y0128303D03*
X0086217Y0148303D03*
X0086217Y0158303D03*
X0086217Y0240803D03*
X0076217Y0240803D03*
X0096217Y0240803D03*
X0106217Y0240803D03*
D13*
X0106217Y0230903D02*
X0106217Y0225703D01*
X0096217Y0225703D02*
X0096217Y0230903D01*
X0086217Y0230903D02*
X0086217Y0225703D01*
X0076217Y0225703D02*
X0076217Y0230903D01*
X0066217Y0230903D02*
X0066217Y0225703D01*
X0056217Y0225703D02*
X0056217Y0230903D01*
X0046217Y0230903D02*
X0046217Y0225703D01*
X0046217Y0200903D02*
X0046217Y0195703D01*
X0056217Y0195703D02*
X0056217Y0200903D01*
X0066217Y0200903D02*
X0066217Y0195703D01*
X0076217Y0195703D02*
X0076217Y0200903D01*
X0086217Y0200903D02*
X0086217Y0195703D01*
X0096217Y0195703D02*
X0096217Y0200903D01*
X0106217Y0200903D02*
X0106217Y0195703D01*
X0116217Y0195703D02*
X0116217Y0200903D01*
X0126217Y0200903D02*
X0126217Y0195703D01*
X0136217Y0195703D02*
X0136217Y0200903D01*
X0146217Y0200903D02*
X0146217Y0195703D01*
X0156217Y0195703D02*
X0156217Y0200903D01*
X0166217Y0200903D02*
X0166217Y0195703D01*
X0176217Y0195703D02*
X0176217Y0200903D01*
X0176217Y0225703D02*
X0176217Y0230903D01*
X0166217Y0230903D02*
X0166217Y0225703D01*
X0156217Y0225703D02*
X0156217Y0230903D01*
X0146217Y0230903D02*
X0146217Y0225703D01*
X0136217Y0225703D02*
X0136217Y0230903D01*
X0126217Y0230903D02*
X0126217Y0225703D01*
X0116217Y0225703D02*
X0116217Y0230903D01*
X0116217Y0170903D02*
X0116217Y0165703D01*
X0126217Y0165703D02*
X0126217Y0170903D01*
X0136217Y0170903D02*
X0136217Y0165703D01*
X0146217Y0165703D02*
X0146217Y0170903D01*
X0156217Y0170903D02*
X0156217Y0165703D01*
X0166217Y0165703D02*
X0166217Y0170903D01*
X0176217Y0170903D02*
X0176217Y0165703D01*
X0176217Y0140903D02*
X0176217Y0135703D01*
X0166217Y0135703D02*
X0166217Y0140903D01*
X0156217Y0140903D02*
X0156217Y0135703D01*
X0146217Y0135703D02*
X0146217Y0140903D01*
X0136217Y0140903D02*
X0136217Y0135703D01*
X0126217Y0135703D02*
X0126217Y0140903D01*
X0116217Y0140903D02*
X0116217Y0135703D01*
X0106217Y0135703D02*
X0106217Y0140903D01*
X0096217Y0140903D02*
X0096217Y0135703D01*
X0096217Y0165703D02*
X0096217Y0170903D01*
X0106217Y0170903D02*
X0106217Y0165703D01*
X0146217Y0120903D02*
X0146217Y0115703D01*
X0156217Y0115703D02*
X0156217Y0120903D01*
X0166217Y0120903D02*
X0166217Y0115703D01*
X0176217Y0115703D02*
X0176217Y0120903D01*
X0176217Y0090903D02*
X0176217Y0085703D01*
X0166217Y0085703D02*
X0166217Y0090903D01*
X0156217Y0090903D02*
X0156217Y0085703D01*
X0146217Y0085703D02*
X0146217Y0090903D01*
D14*
X0173417Y0078303D02*
X0179017Y0078303D01*
X0179017Y0068303D02*
X0173417Y0068303D01*
D15*
X0156217Y0068303D03*
X0116217Y0068303D03*
X0036217Y0118303D03*
X0046217Y0138303D03*
X0036217Y0158303D03*
X0036217Y0178303D03*
X0036217Y0188303D03*
X0086217Y0138303D03*
D16*
X0193717Y0128803D03*
X0193717Y0147803D03*
X0100717Y0255803D03*
X0081717Y0255803D03*
D17*
X0046217Y0148303D03*
D18*
X0056217Y0148303D03*
X0066217Y0148303D03*
X0066217Y0158303D03*
X0056217Y0158303D03*
X0046217Y0158303D03*
D19*
X0193717Y0072553D02*
X0193717Y0066553D01*
X0203717Y0066553D02*
X0203717Y0072553D01*
X0213717Y0072553D02*
X0213717Y0066553D01*
X0231217Y0066553D02*
X0231217Y0072553D01*
X0241217Y0072553D02*
X0241217Y0066553D01*
X0251217Y0066553D02*
X0251217Y0072553D01*
X0251217Y0122803D02*
X0251217Y0128803D01*
X0241217Y0128803D02*
X0241217Y0122803D01*
X0231217Y0122803D02*
X0231217Y0128803D01*
X0229217Y0173303D02*
X0223217Y0173303D01*
X0209217Y0173303D02*
X0203217Y0173303D01*
X0203217Y0183303D02*
X0209217Y0183303D01*
X0209217Y0193303D02*
X0203217Y0193303D01*
X0223217Y0193303D02*
X0229217Y0193303D01*
X0229217Y0183303D02*
X0223217Y0183303D01*
X0243217Y0183303D02*
X0249217Y0183303D01*
X0249217Y0193303D02*
X0243217Y0193303D01*
X0263217Y0193303D02*
X0269217Y0193303D01*
X0269217Y0183303D02*
X0263217Y0183303D01*
X0263217Y0173303D02*
X0269217Y0173303D01*
X0249217Y0173303D02*
X0243217Y0173303D01*
X0243217Y0213303D02*
X0249217Y0213303D01*
X0249217Y0223303D02*
X0243217Y0223303D01*
X0229217Y0223303D02*
X0223217Y0223303D01*
X0223217Y0213303D02*
X0229217Y0213303D01*
X0209217Y0213303D02*
X0203217Y0213303D01*
X0203217Y0223303D02*
X0209217Y0223303D01*
X0209217Y0233303D02*
X0203217Y0233303D01*
X0223217Y0233303D02*
X0229217Y0233303D01*
X0243217Y0233303D02*
X0249217Y0233303D01*
X0263217Y0233303D02*
X0269217Y0233303D01*
X0269217Y0223303D02*
X0263217Y0223303D01*
X0263217Y0213303D02*
X0269217Y0213303D01*
X0269217Y0253303D02*
X0263217Y0253303D01*
X0263217Y0263303D02*
X0269217Y0263303D01*
X0269217Y0273303D02*
X0263217Y0273303D01*
X0249217Y0273303D02*
X0243217Y0273303D01*
X0229217Y0273303D02*
X0223217Y0273303D01*
X0209217Y0273303D02*
X0203217Y0273303D01*
X0203217Y0263303D02*
X0209217Y0263303D01*
X0209217Y0253303D02*
X0203217Y0253303D01*
X0223217Y0253303D02*
X0229217Y0253303D01*
X0229217Y0263303D02*
X0223217Y0263303D01*
X0243217Y0263303D02*
X0249217Y0263303D01*
X0249217Y0253303D02*
X0243217Y0253303D01*
X0353217Y0188303D02*
X0359217Y0188303D01*
X0359217Y0178303D02*
X0353217Y0178303D01*
X0353217Y0168303D02*
X0359217Y0168303D01*
X0359217Y0158303D02*
X0353217Y0158303D01*
D20*
X0328992Y0102988D03*
X0318992Y0102988D03*
X0308992Y0102988D03*
X0298992Y0102988D03*
X0293992Y0092988D03*
X0303992Y0092988D03*
X0313992Y0092988D03*
X0323992Y0092988D03*
X0092772Y0102988D03*
X0082772Y0102988D03*
X0072772Y0102988D03*
X0062772Y0102988D03*
X0067772Y0092988D03*
X0077772Y0092988D03*
X0087772Y0092988D03*
X0057772Y0092988D03*
D21*
X0052772Y0067988D03*
X0097772Y0067988D03*
X0288992Y0067988D03*
X0333992Y0067988D03*
D22*
X0321217Y0173303D03*
X0311217Y0173303D03*
X0301217Y0173303D03*
X0301217Y0213303D03*
X0311217Y0213303D03*
X0321217Y0213303D03*
X0321217Y0253303D03*
X0311217Y0253303D03*
X0301217Y0253303D03*
D23*
X0251217Y0098303D03*
X0231217Y0098303D03*
M02*
