G75*
%MOIN*%
%OFA0B0*%
%FSLAX25Y25*%
%IPPOS*%
%LPD*%
%AMOC8*
5,1,8,0,0,1.08239X$1,22.5*
%
%ADD10C,0.00000*%
%ADD11OC8,0.06300*%
%ADD12C,0.05200*%
%ADD13C,0.05600*%
%ADD14OC8,0.05200*%
%ADD15C,0.05200*%
%ADD16C,0.06000*%
%ADD17OC8,0.06000*%
%ADD18C,0.06000*%
%ADD19C,0.05500*%
%ADD20R,0.05543X0.05543*%
%ADD21C,0.06300*%
%ADD22C,0.02400*%
%ADD23C,0.05000*%
%ADD24C,0.01600*%
%ADD25C,0.03562*%
%ADD26C,0.01200*%
D10*
X0017043Y0012215D02*
X0351688Y0012215D01*
X0351688Y0012214D02*
X0351926Y0012217D01*
X0352164Y0012225D01*
X0352401Y0012240D01*
X0352638Y0012260D01*
X0352874Y0012286D01*
X0353110Y0012317D01*
X0353345Y0012354D01*
X0353579Y0012397D01*
X0353812Y0012446D01*
X0354044Y0012500D01*
X0354274Y0012560D01*
X0354503Y0012625D01*
X0354730Y0012696D01*
X0354955Y0012772D01*
X0355178Y0012854D01*
X0355400Y0012941D01*
X0355619Y0013033D01*
X0355836Y0013131D01*
X0356050Y0013233D01*
X0356262Y0013341D01*
X0356472Y0013455D01*
X0356678Y0013573D01*
X0356882Y0013696D01*
X0357082Y0013824D01*
X0357279Y0013956D01*
X0357474Y0014094D01*
X0357664Y0014236D01*
X0357852Y0014383D01*
X0358035Y0014534D01*
X0358215Y0014689D01*
X0358391Y0014849D01*
X0358563Y0015013D01*
X0358732Y0015182D01*
X0358896Y0015354D01*
X0359056Y0015530D01*
X0359211Y0015710D01*
X0359362Y0015893D01*
X0359509Y0016081D01*
X0359651Y0016271D01*
X0359789Y0016466D01*
X0359921Y0016663D01*
X0360049Y0016863D01*
X0360172Y0017067D01*
X0360290Y0017273D01*
X0360404Y0017483D01*
X0360512Y0017695D01*
X0360614Y0017909D01*
X0360712Y0018126D01*
X0360804Y0018345D01*
X0360891Y0018567D01*
X0360973Y0018790D01*
X0361049Y0019015D01*
X0361120Y0019242D01*
X0361185Y0019471D01*
X0361245Y0019701D01*
X0361299Y0019933D01*
X0361348Y0020166D01*
X0361391Y0020400D01*
X0361428Y0020635D01*
X0361459Y0020871D01*
X0361485Y0021107D01*
X0361505Y0021344D01*
X0361520Y0021581D01*
X0361528Y0021819D01*
X0361531Y0022057D01*
X0361531Y0238593D01*
X0361528Y0238831D01*
X0361520Y0239069D01*
X0361505Y0239306D01*
X0361485Y0239543D01*
X0361459Y0239779D01*
X0361428Y0240015D01*
X0361391Y0240250D01*
X0361348Y0240484D01*
X0361299Y0240717D01*
X0361245Y0240949D01*
X0361185Y0241179D01*
X0361120Y0241408D01*
X0361049Y0241635D01*
X0360973Y0241860D01*
X0360891Y0242083D01*
X0360804Y0242305D01*
X0360712Y0242524D01*
X0360614Y0242741D01*
X0360512Y0242955D01*
X0360404Y0243167D01*
X0360290Y0243377D01*
X0360172Y0243583D01*
X0360049Y0243787D01*
X0359921Y0243987D01*
X0359789Y0244184D01*
X0359651Y0244379D01*
X0359509Y0244569D01*
X0359362Y0244757D01*
X0359211Y0244940D01*
X0359056Y0245120D01*
X0358896Y0245296D01*
X0358732Y0245468D01*
X0358563Y0245637D01*
X0358391Y0245801D01*
X0358215Y0245961D01*
X0358035Y0246116D01*
X0357852Y0246267D01*
X0357664Y0246414D01*
X0357474Y0246556D01*
X0357279Y0246694D01*
X0357082Y0246826D01*
X0356882Y0246954D01*
X0356678Y0247077D01*
X0356472Y0247195D01*
X0356262Y0247309D01*
X0356050Y0247417D01*
X0355836Y0247519D01*
X0355619Y0247617D01*
X0355400Y0247709D01*
X0355178Y0247796D01*
X0354955Y0247878D01*
X0354730Y0247954D01*
X0354503Y0248025D01*
X0354274Y0248090D01*
X0354044Y0248150D01*
X0353812Y0248204D01*
X0353579Y0248253D01*
X0353345Y0248296D01*
X0353110Y0248333D01*
X0352874Y0248364D01*
X0352638Y0248390D01*
X0352401Y0248410D01*
X0352164Y0248425D01*
X0351926Y0248433D01*
X0351688Y0248436D01*
X0351688Y0248435D02*
X0017043Y0248435D01*
X0017043Y0248436D02*
X0016805Y0248433D01*
X0016567Y0248425D01*
X0016330Y0248410D01*
X0016093Y0248390D01*
X0015857Y0248364D01*
X0015621Y0248333D01*
X0015386Y0248296D01*
X0015152Y0248253D01*
X0014919Y0248204D01*
X0014687Y0248150D01*
X0014457Y0248090D01*
X0014228Y0248025D01*
X0014001Y0247954D01*
X0013776Y0247878D01*
X0013553Y0247796D01*
X0013331Y0247709D01*
X0013112Y0247617D01*
X0012895Y0247519D01*
X0012681Y0247417D01*
X0012469Y0247309D01*
X0012259Y0247195D01*
X0012053Y0247077D01*
X0011849Y0246954D01*
X0011649Y0246826D01*
X0011452Y0246694D01*
X0011257Y0246556D01*
X0011067Y0246414D01*
X0010879Y0246267D01*
X0010696Y0246116D01*
X0010516Y0245961D01*
X0010340Y0245801D01*
X0010168Y0245637D01*
X0009999Y0245468D01*
X0009835Y0245296D01*
X0009675Y0245120D01*
X0009520Y0244940D01*
X0009369Y0244757D01*
X0009222Y0244569D01*
X0009080Y0244379D01*
X0008942Y0244184D01*
X0008810Y0243987D01*
X0008682Y0243787D01*
X0008559Y0243583D01*
X0008441Y0243377D01*
X0008327Y0243167D01*
X0008219Y0242955D01*
X0008117Y0242741D01*
X0008019Y0242524D01*
X0007927Y0242305D01*
X0007840Y0242083D01*
X0007758Y0241860D01*
X0007682Y0241635D01*
X0007611Y0241408D01*
X0007546Y0241179D01*
X0007486Y0240949D01*
X0007432Y0240717D01*
X0007383Y0240484D01*
X0007340Y0240250D01*
X0007303Y0240015D01*
X0007272Y0239779D01*
X0007246Y0239543D01*
X0007226Y0239306D01*
X0007211Y0239069D01*
X0007203Y0238831D01*
X0007200Y0238593D01*
X0007200Y0022057D01*
X0007203Y0021819D01*
X0007211Y0021581D01*
X0007226Y0021344D01*
X0007246Y0021107D01*
X0007272Y0020871D01*
X0007303Y0020635D01*
X0007340Y0020400D01*
X0007383Y0020166D01*
X0007432Y0019933D01*
X0007486Y0019701D01*
X0007546Y0019471D01*
X0007611Y0019242D01*
X0007682Y0019015D01*
X0007758Y0018790D01*
X0007840Y0018567D01*
X0007927Y0018345D01*
X0008019Y0018126D01*
X0008117Y0017909D01*
X0008219Y0017695D01*
X0008327Y0017483D01*
X0008441Y0017273D01*
X0008559Y0017067D01*
X0008682Y0016863D01*
X0008810Y0016663D01*
X0008942Y0016466D01*
X0009080Y0016271D01*
X0009222Y0016081D01*
X0009369Y0015893D01*
X0009520Y0015710D01*
X0009675Y0015530D01*
X0009835Y0015354D01*
X0009999Y0015182D01*
X0010168Y0015013D01*
X0010340Y0014849D01*
X0010516Y0014689D01*
X0010696Y0014534D01*
X0010879Y0014383D01*
X0011067Y0014236D01*
X0011257Y0014094D01*
X0011452Y0013956D01*
X0011649Y0013824D01*
X0011849Y0013696D01*
X0012053Y0013573D01*
X0012259Y0013455D01*
X0012469Y0013341D01*
X0012681Y0013233D01*
X0012895Y0013131D01*
X0013112Y0013033D01*
X0013331Y0012941D01*
X0013553Y0012854D01*
X0013776Y0012772D01*
X0014001Y0012696D01*
X0014228Y0012625D01*
X0014457Y0012560D01*
X0014687Y0012500D01*
X0014919Y0012446D01*
X0015152Y0012397D01*
X0015386Y0012354D01*
X0015621Y0012317D01*
X0015857Y0012286D01*
X0016093Y0012260D01*
X0016330Y0012240D01*
X0016567Y0012225D01*
X0016805Y0012217D01*
X0017043Y0012214D01*
X0012712Y0024026D02*
X0012714Y0024184D01*
X0012720Y0024342D01*
X0012730Y0024500D01*
X0012744Y0024658D01*
X0012762Y0024815D01*
X0012783Y0024972D01*
X0012809Y0025128D01*
X0012839Y0025284D01*
X0012872Y0025439D01*
X0012910Y0025592D01*
X0012951Y0025745D01*
X0012996Y0025897D01*
X0013045Y0026048D01*
X0013098Y0026197D01*
X0013154Y0026345D01*
X0013214Y0026491D01*
X0013278Y0026636D01*
X0013346Y0026779D01*
X0013417Y0026921D01*
X0013491Y0027061D01*
X0013569Y0027198D01*
X0013651Y0027334D01*
X0013735Y0027468D01*
X0013824Y0027599D01*
X0013915Y0027728D01*
X0014010Y0027855D01*
X0014107Y0027980D01*
X0014208Y0028102D01*
X0014312Y0028221D01*
X0014419Y0028338D01*
X0014529Y0028452D01*
X0014642Y0028563D01*
X0014757Y0028672D01*
X0014875Y0028777D01*
X0014996Y0028879D01*
X0015119Y0028979D01*
X0015245Y0029075D01*
X0015373Y0029168D01*
X0015503Y0029258D01*
X0015636Y0029344D01*
X0015771Y0029428D01*
X0015907Y0029507D01*
X0016046Y0029584D01*
X0016187Y0029656D01*
X0016329Y0029726D01*
X0016473Y0029791D01*
X0016619Y0029853D01*
X0016766Y0029911D01*
X0016915Y0029966D01*
X0017065Y0030017D01*
X0017216Y0030064D01*
X0017368Y0030107D01*
X0017521Y0030146D01*
X0017676Y0030182D01*
X0017831Y0030213D01*
X0017987Y0030241D01*
X0018143Y0030265D01*
X0018300Y0030285D01*
X0018458Y0030301D01*
X0018615Y0030313D01*
X0018774Y0030321D01*
X0018932Y0030325D01*
X0019090Y0030325D01*
X0019248Y0030321D01*
X0019407Y0030313D01*
X0019564Y0030301D01*
X0019722Y0030285D01*
X0019879Y0030265D01*
X0020035Y0030241D01*
X0020191Y0030213D01*
X0020346Y0030182D01*
X0020501Y0030146D01*
X0020654Y0030107D01*
X0020806Y0030064D01*
X0020957Y0030017D01*
X0021107Y0029966D01*
X0021256Y0029911D01*
X0021403Y0029853D01*
X0021549Y0029791D01*
X0021693Y0029726D01*
X0021835Y0029656D01*
X0021976Y0029584D01*
X0022115Y0029507D01*
X0022251Y0029428D01*
X0022386Y0029344D01*
X0022519Y0029258D01*
X0022649Y0029168D01*
X0022777Y0029075D01*
X0022903Y0028979D01*
X0023026Y0028879D01*
X0023147Y0028777D01*
X0023265Y0028672D01*
X0023380Y0028563D01*
X0023493Y0028452D01*
X0023603Y0028338D01*
X0023710Y0028221D01*
X0023814Y0028102D01*
X0023915Y0027980D01*
X0024012Y0027855D01*
X0024107Y0027728D01*
X0024198Y0027599D01*
X0024287Y0027468D01*
X0024371Y0027334D01*
X0024453Y0027198D01*
X0024531Y0027061D01*
X0024605Y0026921D01*
X0024676Y0026779D01*
X0024744Y0026636D01*
X0024808Y0026491D01*
X0024868Y0026345D01*
X0024924Y0026197D01*
X0024977Y0026048D01*
X0025026Y0025897D01*
X0025071Y0025745D01*
X0025112Y0025592D01*
X0025150Y0025439D01*
X0025183Y0025284D01*
X0025213Y0025128D01*
X0025239Y0024972D01*
X0025260Y0024815D01*
X0025278Y0024658D01*
X0025292Y0024500D01*
X0025302Y0024342D01*
X0025308Y0024184D01*
X0025310Y0024026D01*
X0025308Y0023868D01*
X0025302Y0023710D01*
X0025292Y0023552D01*
X0025278Y0023394D01*
X0025260Y0023237D01*
X0025239Y0023080D01*
X0025213Y0022924D01*
X0025183Y0022768D01*
X0025150Y0022613D01*
X0025112Y0022460D01*
X0025071Y0022307D01*
X0025026Y0022155D01*
X0024977Y0022004D01*
X0024924Y0021855D01*
X0024868Y0021707D01*
X0024808Y0021561D01*
X0024744Y0021416D01*
X0024676Y0021273D01*
X0024605Y0021131D01*
X0024531Y0020991D01*
X0024453Y0020854D01*
X0024371Y0020718D01*
X0024287Y0020584D01*
X0024198Y0020453D01*
X0024107Y0020324D01*
X0024012Y0020197D01*
X0023915Y0020072D01*
X0023814Y0019950D01*
X0023710Y0019831D01*
X0023603Y0019714D01*
X0023493Y0019600D01*
X0023380Y0019489D01*
X0023265Y0019380D01*
X0023147Y0019275D01*
X0023026Y0019173D01*
X0022903Y0019073D01*
X0022777Y0018977D01*
X0022649Y0018884D01*
X0022519Y0018794D01*
X0022386Y0018708D01*
X0022251Y0018624D01*
X0022115Y0018545D01*
X0021976Y0018468D01*
X0021835Y0018396D01*
X0021693Y0018326D01*
X0021549Y0018261D01*
X0021403Y0018199D01*
X0021256Y0018141D01*
X0021107Y0018086D01*
X0020957Y0018035D01*
X0020806Y0017988D01*
X0020654Y0017945D01*
X0020501Y0017906D01*
X0020346Y0017870D01*
X0020191Y0017839D01*
X0020035Y0017811D01*
X0019879Y0017787D01*
X0019722Y0017767D01*
X0019564Y0017751D01*
X0019407Y0017739D01*
X0019248Y0017731D01*
X0019090Y0017727D01*
X0018932Y0017727D01*
X0018774Y0017731D01*
X0018615Y0017739D01*
X0018458Y0017751D01*
X0018300Y0017767D01*
X0018143Y0017787D01*
X0017987Y0017811D01*
X0017831Y0017839D01*
X0017676Y0017870D01*
X0017521Y0017906D01*
X0017368Y0017945D01*
X0017216Y0017988D01*
X0017065Y0018035D01*
X0016915Y0018086D01*
X0016766Y0018141D01*
X0016619Y0018199D01*
X0016473Y0018261D01*
X0016329Y0018326D01*
X0016187Y0018396D01*
X0016046Y0018468D01*
X0015907Y0018545D01*
X0015771Y0018624D01*
X0015636Y0018708D01*
X0015503Y0018794D01*
X0015373Y0018884D01*
X0015245Y0018977D01*
X0015119Y0019073D01*
X0014996Y0019173D01*
X0014875Y0019275D01*
X0014757Y0019380D01*
X0014642Y0019489D01*
X0014529Y0019600D01*
X0014419Y0019714D01*
X0014312Y0019831D01*
X0014208Y0019950D01*
X0014107Y0020072D01*
X0014010Y0020197D01*
X0013915Y0020324D01*
X0013824Y0020453D01*
X0013735Y0020584D01*
X0013651Y0020718D01*
X0013569Y0020854D01*
X0013491Y0020991D01*
X0013417Y0021131D01*
X0013346Y0021273D01*
X0013278Y0021416D01*
X0013214Y0021561D01*
X0013154Y0021707D01*
X0013098Y0021855D01*
X0013045Y0022004D01*
X0012996Y0022155D01*
X0012951Y0022307D01*
X0012910Y0022460D01*
X0012872Y0022613D01*
X0012839Y0022768D01*
X0012809Y0022924D01*
X0012783Y0023080D01*
X0012762Y0023237D01*
X0012744Y0023394D01*
X0012730Y0023552D01*
X0012720Y0023710D01*
X0012714Y0023868D01*
X0012712Y0024026D01*
X0037355Y0031900D02*
X0037357Y0032060D01*
X0037363Y0032219D01*
X0037373Y0032378D01*
X0037387Y0032537D01*
X0037405Y0032696D01*
X0037426Y0032854D01*
X0037452Y0033011D01*
X0037482Y0033168D01*
X0037515Y0033324D01*
X0037553Y0033479D01*
X0037594Y0033633D01*
X0037639Y0033786D01*
X0037688Y0033938D01*
X0037741Y0034089D01*
X0037797Y0034238D01*
X0037858Y0034386D01*
X0037921Y0034532D01*
X0037989Y0034677D01*
X0038060Y0034820D01*
X0038134Y0034961D01*
X0038212Y0035100D01*
X0038294Y0035237D01*
X0038379Y0035372D01*
X0038467Y0035505D01*
X0038559Y0035636D01*
X0038653Y0035764D01*
X0038751Y0035890D01*
X0038852Y0036014D01*
X0038956Y0036135D01*
X0039063Y0036253D01*
X0039173Y0036369D01*
X0039286Y0036482D01*
X0039402Y0036592D01*
X0039520Y0036699D01*
X0039641Y0036803D01*
X0039765Y0036904D01*
X0039891Y0037002D01*
X0040019Y0037096D01*
X0040150Y0037188D01*
X0040283Y0037276D01*
X0040418Y0037361D01*
X0040555Y0037443D01*
X0040694Y0037521D01*
X0040835Y0037595D01*
X0040978Y0037666D01*
X0041123Y0037734D01*
X0041269Y0037797D01*
X0041417Y0037858D01*
X0041566Y0037914D01*
X0041717Y0037967D01*
X0041869Y0038016D01*
X0042022Y0038061D01*
X0042176Y0038102D01*
X0042331Y0038140D01*
X0042487Y0038173D01*
X0042644Y0038203D01*
X0042801Y0038229D01*
X0042959Y0038250D01*
X0043118Y0038268D01*
X0043277Y0038282D01*
X0043436Y0038292D01*
X0043595Y0038298D01*
X0043755Y0038300D01*
X0043915Y0038298D01*
X0044074Y0038292D01*
X0044233Y0038282D01*
X0044392Y0038268D01*
X0044551Y0038250D01*
X0044709Y0038229D01*
X0044866Y0038203D01*
X0045023Y0038173D01*
X0045179Y0038140D01*
X0045334Y0038102D01*
X0045488Y0038061D01*
X0045641Y0038016D01*
X0045793Y0037967D01*
X0045944Y0037914D01*
X0046093Y0037858D01*
X0046241Y0037797D01*
X0046387Y0037734D01*
X0046532Y0037666D01*
X0046675Y0037595D01*
X0046816Y0037521D01*
X0046955Y0037443D01*
X0047092Y0037361D01*
X0047227Y0037276D01*
X0047360Y0037188D01*
X0047491Y0037096D01*
X0047619Y0037002D01*
X0047745Y0036904D01*
X0047869Y0036803D01*
X0047990Y0036699D01*
X0048108Y0036592D01*
X0048224Y0036482D01*
X0048337Y0036369D01*
X0048447Y0036253D01*
X0048554Y0036135D01*
X0048658Y0036014D01*
X0048759Y0035890D01*
X0048857Y0035764D01*
X0048951Y0035636D01*
X0049043Y0035505D01*
X0049131Y0035372D01*
X0049216Y0035237D01*
X0049298Y0035100D01*
X0049376Y0034961D01*
X0049450Y0034820D01*
X0049521Y0034677D01*
X0049589Y0034532D01*
X0049652Y0034386D01*
X0049713Y0034238D01*
X0049769Y0034089D01*
X0049822Y0033938D01*
X0049871Y0033786D01*
X0049916Y0033633D01*
X0049957Y0033479D01*
X0049995Y0033324D01*
X0050028Y0033168D01*
X0050058Y0033011D01*
X0050084Y0032854D01*
X0050105Y0032696D01*
X0050123Y0032537D01*
X0050137Y0032378D01*
X0050147Y0032219D01*
X0050153Y0032060D01*
X0050155Y0031900D01*
X0050153Y0031740D01*
X0050147Y0031581D01*
X0050137Y0031422D01*
X0050123Y0031263D01*
X0050105Y0031104D01*
X0050084Y0030946D01*
X0050058Y0030789D01*
X0050028Y0030632D01*
X0049995Y0030476D01*
X0049957Y0030321D01*
X0049916Y0030167D01*
X0049871Y0030014D01*
X0049822Y0029862D01*
X0049769Y0029711D01*
X0049713Y0029562D01*
X0049652Y0029414D01*
X0049589Y0029268D01*
X0049521Y0029123D01*
X0049450Y0028980D01*
X0049376Y0028839D01*
X0049298Y0028700D01*
X0049216Y0028563D01*
X0049131Y0028428D01*
X0049043Y0028295D01*
X0048951Y0028164D01*
X0048857Y0028036D01*
X0048759Y0027910D01*
X0048658Y0027786D01*
X0048554Y0027665D01*
X0048447Y0027547D01*
X0048337Y0027431D01*
X0048224Y0027318D01*
X0048108Y0027208D01*
X0047990Y0027101D01*
X0047869Y0026997D01*
X0047745Y0026896D01*
X0047619Y0026798D01*
X0047491Y0026704D01*
X0047360Y0026612D01*
X0047227Y0026524D01*
X0047092Y0026439D01*
X0046955Y0026357D01*
X0046816Y0026279D01*
X0046675Y0026205D01*
X0046532Y0026134D01*
X0046387Y0026066D01*
X0046241Y0026003D01*
X0046093Y0025942D01*
X0045944Y0025886D01*
X0045793Y0025833D01*
X0045641Y0025784D01*
X0045488Y0025739D01*
X0045334Y0025698D01*
X0045179Y0025660D01*
X0045023Y0025627D01*
X0044866Y0025597D01*
X0044709Y0025571D01*
X0044551Y0025550D01*
X0044392Y0025532D01*
X0044233Y0025518D01*
X0044074Y0025508D01*
X0043915Y0025502D01*
X0043755Y0025500D01*
X0043595Y0025502D01*
X0043436Y0025508D01*
X0043277Y0025518D01*
X0043118Y0025532D01*
X0042959Y0025550D01*
X0042801Y0025571D01*
X0042644Y0025597D01*
X0042487Y0025627D01*
X0042331Y0025660D01*
X0042176Y0025698D01*
X0042022Y0025739D01*
X0041869Y0025784D01*
X0041717Y0025833D01*
X0041566Y0025886D01*
X0041417Y0025942D01*
X0041269Y0026003D01*
X0041123Y0026066D01*
X0040978Y0026134D01*
X0040835Y0026205D01*
X0040694Y0026279D01*
X0040555Y0026357D01*
X0040418Y0026439D01*
X0040283Y0026524D01*
X0040150Y0026612D01*
X0040019Y0026704D01*
X0039891Y0026798D01*
X0039765Y0026896D01*
X0039641Y0026997D01*
X0039520Y0027101D01*
X0039402Y0027208D01*
X0039286Y0027318D01*
X0039173Y0027431D01*
X0039063Y0027547D01*
X0038956Y0027665D01*
X0038852Y0027786D01*
X0038751Y0027910D01*
X0038653Y0028036D01*
X0038559Y0028164D01*
X0038467Y0028295D01*
X0038379Y0028428D01*
X0038294Y0028563D01*
X0038212Y0028700D01*
X0038134Y0028839D01*
X0038060Y0028980D01*
X0037989Y0029123D01*
X0037921Y0029268D01*
X0037858Y0029414D01*
X0037797Y0029562D01*
X0037741Y0029711D01*
X0037688Y0029862D01*
X0037639Y0030014D01*
X0037594Y0030167D01*
X0037553Y0030321D01*
X0037515Y0030476D01*
X0037482Y0030632D01*
X0037452Y0030789D01*
X0037426Y0030946D01*
X0037405Y0031104D01*
X0037387Y0031263D01*
X0037373Y0031422D01*
X0037363Y0031581D01*
X0037357Y0031740D01*
X0037355Y0031900D01*
X0082355Y0031900D02*
X0082357Y0032060D01*
X0082363Y0032219D01*
X0082373Y0032378D01*
X0082387Y0032537D01*
X0082405Y0032696D01*
X0082426Y0032854D01*
X0082452Y0033011D01*
X0082482Y0033168D01*
X0082515Y0033324D01*
X0082553Y0033479D01*
X0082594Y0033633D01*
X0082639Y0033786D01*
X0082688Y0033938D01*
X0082741Y0034089D01*
X0082797Y0034238D01*
X0082858Y0034386D01*
X0082921Y0034532D01*
X0082989Y0034677D01*
X0083060Y0034820D01*
X0083134Y0034961D01*
X0083212Y0035100D01*
X0083294Y0035237D01*
X0083379Y0035372D01*
X0083467Y0035505D01*
X0083559Y0035636D01*
X0083653Y0035764D01*
X0083751Y0035890D01*
X0083852Y0036014D01*
X0083956Y0036135D01*
X0084063Y0036253D01*
X0084173Y0036369D01*
X0084286Y0036482D01*
X0084402Y0036592D01*
X0084520Y0036699D01*
X0084641Y0036803D01*
X0084765Y0036904D01*
X0084891Y0037002D01*
X0085019Y0037096D01*
X0085150Y0037188D01*
X0085283Y0037276D01*
X0085418Y0037361D01*
X0085555Y0037443D01*
X0085694Y0037521D01*
X0085835Y0037595D01*
X0085978Y0037666D01*
X0086123Y0037734D01*
X0086269Y0037797D01*
X0086417Y0037858D01*
X0086566Y0037914D01*
X0086717Y0037967D01*
X0086869Y0038016D01*
X0087022Y0038061D01*
X0087176Y0038102D01*
X0087331Y0038140D01*
X0087487Y0038173D01*
X0087644Y0038203D01*
X0087801Y0038229D01*
X0087959Y0038250D01*
X0088118Y0038268D01*
X0088277Y0038282D01*
X0088436Y0038292D01*
X0088595Y0038298D01*
X0088755Y0038300D01*
X0088915Y0038298D01*
X0089074Y0038292D01*
X0089233Y0038282D01*
X0089392Y0038268D01*
X0089551Y0038250D01*
X0089709Y0038229D01*
X0089866Y0038203D01*
X0090023Y0038173D01*
X0090179Y0038140D01*
X0090334Y0038102D01*
X0090488Y0038061D01*
X0090641Y0038016D01*
X0090793Y0037967D01*
X0090944Y0037914D01*
X0091093Y0037858D01*
X0091241Y0037797D01*
X0091387Y0037734D01*
X0091532Y0037666D01*
X0091675Y0037595D01*
X0091816Y0037521D01*
X0091955Y0037443D01*
X0092092Y0037361D01*
X0092227Y0037276D01*
X0092360Y0037188D01*
X0092491Y0037096D01*
X0092619Y0037002D01*
X0092745Y0036904D01*
X0092869Y0036803D01*
X0092990Y0036699D01*
X0093108Y0036592D01*
X0093224Y0036482D01*
X0093337Y0036369D01*
X0093447Y0036253D01*
X0093554Y0036135D01*
X0093658Y0036014D01*
X0093759Y0035890D01*
X0093857Y0035764D01*
X0093951Y0035636D01*
X0094043Y0035505D01*
X0094131Y0035372D01*
X0094216Y0035237D01*
X0094298Y0035100D01*
X0094376Y0034961D01*
X0094450Y0034820D01*
X0094521Y0034677D01*
X0094589Y0034532D01*
X0094652Y0034386D01*
X0094713Y0034238D01*
X0094769Y0034089D01*
X0094822Y0033938D01*
X0094871Y0033786D01*
X0094916Y0033633D01*
X0094957Y0033479D01*
X0094995Y0033324D01*
X0095028Y0033168D01*
X0095058Y0033011D01*
X0095084Y0032854D01*
X0095105Y0032696D01*
X0095123Y0032537D01*
X0095137Y0032378D01*
X0095147Y0032219D01*
X0095153Y0032060D01*
X0095155Y0031900D01*
X0095153Y0031740D01*
X0095147Y0031581D01*
X0095137Y0031422D01*
X0095123Y0031263D01*
X0095105Y0031104D01*
X0095084Y0030946D01*
X0095058Y0030789D01*
X0095028Y0030632D01*
X0094995Y0030476D01*
X0094957Y0030321D01*
X0094916Y0030167D01*
X0094871Y0030014D01*
X0094822Y0029862D01*
X0094769Y0029711D01*
X0094713Y0029562D01*
X0094652Y0029414D01*
X0094589Y0029268D01*
X0094521Y0029123D01*
X0094450Y0028980D01*
X0094376Y0028839D01*
X0094298Y0028700D01*
X0094216Y0028563D01*
X0094131Y0028428D01*
X0094043Y0028295D01*
X0093951Y0028164D01*
X0093857Y0028036D01*
X0093759Y0027910D01*
X0093658Y0027786D01*
X0093554Y0027665D01*
X0093447Y0027547D01*
X0093337Y0027431D01*
X0093224Y0027318D01*
X0093108Y0027208D01*
X0092990Y0027101D01*
X0092869Y0026997D01*
X0092745Y0026896D01*
X0092619Y0026798D01*
X0092491Y0026704D01*
X0092360Y0026612D01*
X0092227Y0026524D01*
X0092092Y0026439D01*
X0091955Y0026357D01*
X0091816Y0026279D01*
X0091675Y0026205D01*
X0091532Y0026134D01*
X0091387Y0026066D01*
X0091241Y0026003D01*
X0091093Y0025942D01*
X0090944Y0025886D01*
X0090793Y0025833D01*
X0090641Y0025784D01*
X0090488Y0025739D01*
X0090334Y0025698D01*
X0090179Y0025660D01*
X0090023Y0025627D01*
X0089866Y0025597D01*
X0089709Y0025571D01*
X0089551Y0025550D01*
X0089392Y0025532D01*
X0089233Y0025518D01*
X0089074Y0025508D01*
X0088915Y0025502D01*
X0088755Y0025500D01*
X0088595Y0025502D01*
X0088436Y0025508D01*
X0088277Y0025518D01*
X0088118Y0025532D01*
X0087959Y0025550D01*
X0087801Y0025571D01*
X0087644Y0025597D01*
X0087487Y0025627D01*
X0087331Y0025660D01*
X0087176Y0025698D01*
X0087022Y0025739D01*
X0086869Y0025784D01*
X0086717Y0025833D01*
X0086566Y0025886D01*
X0086417Y0025942D01*
X0086269Y0026003D01*
X0086123Y0026066D01*
X0085978Y0026134D01*
X0085835Y0026205D01*
X0085694Y0026279D01*
X0085555Y0026357D01*
X0085418Y0026439D01*
X0085283Y0026524D01*
X0085150Y0026612D01*
X0085019Y0026704D01*
X0084891Y0026798D01*
X0084765Y0026896D01*
X0084641Y0026997D01*
X0084520Y0027101D01*
X0084402Y0027208D01*
X0084286Y0027318D01*
X0084173Y0027431D01*
X0084063Y0027547D01*
X0083956Y0027665D01*
X0083852Y0027786D01*
X0083751Y0027910D01*
X0083653Y0028036D01*
X0083559Y0028164D01*
X0083467Y0028295D01*
X0083379Y0028428D01*
X0083294Y0028563D01*
X0083212Y0028700D01*
X0083134Y0028839D01*
X0083060Y0028980D01*
X0082989Y0029123D01*
X0082921Y0029268D01*
X0082858Y0029414D01*
X0082797Y0029562D01*
X0082741Y0029711D01*
X0082688Y0029862D01*
X0082639Y0030014D01*
X0082594Y0030167D01*
X0082553Y0030321D01*
X0082515Y0030476D01*
X0082482Y0030632D01*
X0082452Y0030789D01*
X0082426Y0030946D01*
X0082405Y0031104D01*
X0082387Y0031263D01*
X0082373Y0031422D01*
X0082363Y0031581D01*
X0082357Y0031740D01*
X0082355Y0031900D01*
X0273576Y0031900D02*
X0273578Y0032060D01*
X0273584Y0032219D01*
X0273594Y0032378D01*
X0273608Y0032537D01*
X0273626Y0032696D01*
X0273647Y0032854D01*
X0273673Y0033011D01*
X0273703Y0033168D01*
X0273736Y0033324D01*
X0273774Y0033479D01*
X0273815Y0033633D01*
X0273860Y0033786D01*
X0273909Y0033938D01*
X0273962Y0034089D01*
X0274018Y0034238D01*
X0274079Y0034386D01*
X0274142Y0034532D01*
X0274210Y0034677D01*
X0274281Y0034820D01*
X0274355Y0034961D01*
X0274433Y0035100D01*
X0274515Y0035237D01*
X0274600Y0035372D01*
X0274688Y0035505D01*
X0274780Y0035636D01*
X0274874Y0035764D01*
X0274972Y0035890D01*
X0275073Y0036014D01*
X0275177Y0036135D01*
X0275284Y0036253D01*
X0275394Y0036369D01*
X0275507Y0036482D01*
X0275623Y0036592D01*
X0275741Y0036699D01*
X0275862Y0036803D01*
X0275986Y0036904D01*
X0276112Y0037002D01*
X0276240Y0037096D01*
X0276371Y0037188D01*
X0276504Y0037276D01*
X0276639Y0037361D01*
X0276776Y0037443D01*
X0276915Y0037521D01*
X0277056Y0037595D01*
X0277199Y0037666D01*
X0277344Y0037734D01*
X0277490Y0037797D01*
X0277638Y0037858D01*
X0277787Y0037914D01*
X0277938Y0037967D01*
X0278090Y0038016D01*
X0278243Y0038061D01*
X0278397Y0038102D01*
X0278552Y0038140D01*
X0278708Y0038173D01*
X0278865Y0038203D01*
X0279022Y0038229D01*
X0279180Y0038250D01*
X0279339Y0038268D01*
X0279498Y0038282D01*
X0279657Y0038292D01*
X0279816Y0038298D01*
X0279976Y0038300D01*
X0280136Y0038298D01*
X0280295Y0038292D01*
X0280454Y0038282D01*
X0280613Y0038268D01*
X0280772Y0038250D01*
X0280930Y0038229D01*
X0281087Y0038203D01*
X0281244Y0038173D01*
X0281400Y0038140D01*
X0281555Y0038102D01*
X0281709Y0038061D01*
X0281862Y0038016D01*
X0282014Y0037967D01*
X0282165Y0037914D01*
X0282314Y0037858D01*
X0282462Y0037797D01*
X0282608Y0037734D01*
X0282753Y0037666D01*
X0282896Y0037595D01*
X0283037Y0037521D01*
X0283176Y0037443D01*
X0283313Y0037361D01*
X0283448Y0037276D01*
X0283581Y0037188D01*
X0283712Y0037096D01*
X0283840Y0037002D01*
X0283966Y0036904D01*
X0284090Y0036803D01*
X0284211Y0036699D01*
X0284329Y0036592D01*
X0284445Y0036482D01*
X0284558Y0036369D01*
X0284668Y0036253D01*
X0284775Y0036135D01*
X0284879Y0036014D01*
X0284980Y0035890D01*
X0285078Y0035764D01*
X0285172Y0035636D01*
X0285264Y0035505D01*
X0285352Y0035372D01*
X0285437Y0035237D01*
X0285519Y0035100D01*
X0285597Y0034961D01*
X0285671Y0034820D01*
X0285742Y0034677D01*
X0285810Y0034532D01*
X0285873Y0034386D01*
X0285934Y0034238D01*
X0285990Y0034089D01*
X0286043Y0033938D01*
X0286092Y0033786D01*
X0286137Y0033633D01*
X0286178Y0033479D01*
X0286216Y0033324D01*
X0286249Y0033168D01*
X0286279Y0033011D01*
X0286305Y0032854D01*
X0286326Y0032696D01*
X0286344Y0032537D01*
X0286358Y0032378D01*
X0286368Y0032219D01*
X0286374Y0032060D01*
X0286376Y0031900D01*
X0286374Y0031740D01*
X0286368Y0031581D01*
X0286358Y0031422D01*
X0286344Y0031263D01*
X0286326Y0031104D01*
X0286305Y0030946D01*
X0286279Y0030789D01*
X0286249Y0030632D01*
X0286216Y0030476D01*
X0286178Y0030321D01*
X0286137Y0030167D01*
X0286092Y0030014D01*
X0286043Y0029862D01*
X0285990Y0029711D01*
X0285934Y0029562D01*
X0285873Y0029414D01*
X0285810Y0029268D01*
X0285742Y0029123D01*
X0285671Y0028980D01*
X0285597Y0028839D01*
X0285519Y0028700D01*
X0285437Y0028563D01*
X0285352Y0028428D01*
X0285264Y0028295D01*
X0285172Y0028164D01*
X0285078Y0028036D01*
X0284980Y0027910D01*
X0284879Y0027786D01*
X0284775Y0027665D01*
X0284668Y0027547D01*
X0284558Y0027431D01*
X0284445Y0027318D01*
X0284329Y0027208D01*
X0284211Y0027101D01*
X0284090Y0026997D01*
X0283966Y0026896D01*
X0283840Y0026798D01*
X0283712Y0026704D01*
X0283581Y0026612D01*
X0283448Y0026524D01*
X0283313Y0026439D01*
X0283176Y0026357D01*
X0283037Y0026279D01*
X0282896Y0026205D01*
X0282753Y0026134D01*
X0282608Y0026066D01*
X0282462Y0026003D01*
X0282314Y0025942D01*
X0282165Y0025886D01*
X0282014Y0025833D01*
X0281862Y0025784D01*
X0281709Y0025739D01*
X0281555Y0025698D01*
X0281400Y0025660D01*
X0281244Y0025627D01*
X0281087Y0025597D01*
X0280930Y0025571D01*
X0280772Y0025550D01*
X0280613Y0025532D01*
X0280454Y0025518D01*
X0280295Y0025508D01*
X0280136Y0025502D01*
X0279976Y0025500D01*
X0279816Y0025502D01*
X0279657Y0025508D01*
X0279498Y0025518D01*
X0279339Y0025532D01*
X0279180Y0025550D01*
X0279022Y0025571D01*
X0278865Y0025597D01*
X0278708Y0025627D01*
X0278552Y0025660D01*
X0278397Y0025698D01*
X0278243Y0025739D01*
X0278090Y0025784D01*
X0277938Y0025833D01*
X0277787Y0025886D01*
X0277638Y0025942D01*
X0277490Y0026003D01*
X0277344Y0026066D01*
X0277199Y0026134D01*
X0277056Y0026205D01*
X0276915Y0026279D01*
X0276776Y0026357D01*
X0276639Y0026439D01*
X0276504Y0026524D01*
X0276371Y0026612D01*
X0276240Y0026704D01*
X0276112Y0026798D01*
X0275986Y0026896D01*
X0275862Y0026997D01*
X0275741Y0027101D01*
X0275623Y0027208D01*
X0275507Y0027318D01*
X0275394Y0027431D01*
X0275284Y0027547D01*
X0275177Y0027665D01*
X0275073Y0027786D01*
X0274972Y0027910D01*
X0274874Y0028036D01*
X0274780Y0028164D01*
X0274688Y0028295D01*
X0274600Y0028428D01*
X0274515Y0028563D01*
X0274433Y0028700D01*
X0274355Y0028839D01*
X0274281Y0028980D01*
X0274210Y0029123D01*
X0274142Y0029268D01*
X0274079Y0029414D01*
X0274018Y0029562D01*
X0273962Y0029711D01*
X0273909Y0029862D01*
X0273860Y0030014D01*
X0273815Y0030167D01*
X0273774Y0030321D01*
X0273736Y0030476D01*
X0273703Y0030632D01*
X0273673Y0030789D01*
X0273647Y0030946D01*
X0273626Y0031104D01*
X0273608Y0031263D01*
X0273594Y0031422D01*
X0273584Y0031581D01*
X0273578Y0031740D01*
X0273576Y0031900D01*
X0318576Y0031900D02*
X0318578Y0032060D01*
X0318584Y0032219D01*
X0318594Y0032378D01*
X0318608Y0032537D01*
X0318626Y0032696D01*
X0318647Y0032854D01*
X0318673Y0033011D01*
X0318703Y0033168D01*
X0318736Y0033324D01*
X0318774Y0033479D01*
X0318815Y0033633D01*
X0318860Y0033786D01*
X0318909Y0033938D01*
X0318962Y0034089D01*
X0319018Y0034238D01*
X0319079Y0034386D01*
X0319142Y0034532D01*
X0319210Y0034677D01*
X0319281Y0034820D01*
X0319355Y0034961D01*
X0319433Y0035100D01*
X0319515Y0035237D01*
X0319600Y0035372D01*
X0319688Y0035505D01*
X0319780Y0035636D01*
X0319874Y0035764D01*
X0319972Y0035890D01*
X0320073Y0036014D01*
X0320177Y0036135D01*
X0320284Y0036253D01*
X0320394Y0036369D01*
X0320507Y0036482D01*
X0320623Y0036592D01*
X0320741Y0036699D01*
X0320862Y0036803D01*
X0320986Y0036904D01*
X0321112Y0037002D01*
X0321240Y0037096D01*
X0321371Y0037188D01*
X0321504Y0037276D01*
X0321639Y0037361D01*
X0321776Y0037443D01*
X0321915Y0037521D01*
X0322056Y0037595D01*
X0322199Y0037666D01*
X0322344Y0037734D01*
X0322490Y0037797D01*
X0322638Y0037858D01*
X0322787Y0037914D01*
X0322938Y0037967D01*
X0323090Y0038016D01*
X0323243Y0038061D01*
X0323397Y0038102D01*
X0323552Y0038140D01*
X0323708Y0038173D01*
X0323865Y0038203D01*
X0324022Y0038229D01*
X0324180Y0038250D01*
X0324339Y0038268D01*
X0324498Y0038282D01*
X0324657Y0038292D01*
X0324816Y0038298D01*
X0324976Y0038300D01*
X0325136Y0038298D01*
X0325295Y0038292D01*
X0325454Y0038282D01*
X0325613Y0038268D01*
X0325772Y0038250D01*
X0325930Y0038229D01*
X0326087Y0038203D01*
X0326244Y0038173D01*
X0326400Y0038140D01*
X0326555Y0038102D01*
X0326709Y0038061D01*
X0326862Y0038016D01*
X0327014Y0037967D01*
X0327165Y0037914D01*
X0327314Y0037858D01*
X0327462Y0037797D01*
X0327608Y0037734D01*
X0327753Y0037666D01*
X0327896Y0037595D01*
X0328037Y0037521D01*
X0328176Y0037443D01*
X0328313Y0037361D01*
X0328448Y0037276D01*
X0328581Y0037188D01*
X0328712Y0037096D01*
X0328840Y0037002D01*
X0328966Y0036904D01*
X0329090Y0036803D01*
X0329211Y0036699D01*
X0329329Y0036592D01*
X0329445Y0036482D01*
X0329558Y0036369D01*
X0329668Y0036253D01*
X0329775Y0036135D01*
X0329879Y0036014D01*
X0329980Y0035890D01*
X0330078Y0035764D01*
X0330172Y0035636D01*
X0330264Y0035505D01*
X0330352Y0035372D01*
X0330437Y0035237D01*
X0330519Y0035100D01*
X0330597Y0034961D01*
X0330671Y0034820D01*
X0330742Y0034677D01*
X0330810Y0034532D01*
X0330873Y0034386D01*
X0330934Y0034238D01*
X0330990Y0034089D01*
X0331043Y0033938D01*
X0331092Y0033786D01*
X0331137Y0033633D01*
X0331178Y0033479D01*
X0331216Y0033324D01*
X0331249Y0033168D01*
X0331279Y0033011D01*
X0331305Y0032854D01*
X0331326Y0032696D01*
X0331344Y0032537D01*
X0331358Y0032378D01*
X0331368Y0032219D01*
X0331374Y0032060D01*
X0331376Y0031900D01*
X0331374Y0031740D01*
X0331368Y0031581D01*
X0331358Y0031422D01*
X0331344Y0031263D01*
X0331326Y0031104D01*
X0331305Y0030946D01*
X0331279Y0030789D01*
X0331249Y0030632D01*
X0331216Y0030476D01*
X0331178Y0030321D01*
X0331137Y0030167D01*
X0331092Y0030014D01*
X0331043Y0029862D01*
X0330990Y0029711D01*
X0330934Y0029562D01*
X0330873Y0029414D01*
X0330810Y0029268D01*
X0330742Y0029123D01*
X0330671Y0028980D01*
X0330597Y0028839D01*
X0330519Y0028700D01*
X0330437Y0028563D01*
X0330352Y0028428D01*
X0330264Y0028295D01*
X0330172Y0028164D01*
X0330078Y0028036D01*
X0329980Y0027910D01*
X0329879Y0027786D01*
X0329775Y0027665D01*
X0329668Y0027547D01*
X0329558Y0027431D01*
X0329445Y0027318D01*
X0329329Y0027208D01*
X0329211Y0027101D01*
X0329090Y0026997D01*
X0328966Y0026896D01*
X0328840Y0026798D01*
X0328712Y0026704D01*
X0328581Y0026612D01*
X0328448Y0026524D01*
X0328313Y0026439D01*
X0328176Y0026357D01*
X0328037Y0026279D01*
X0327896Y0026205D01*
X0327753Y0026134D01*
X0327608Y0026066D01*
X0327462Y0026003D01*
X0327314Y0025942D01*
X0327165Y0025886D01*
X0327014Y0025833D01*
X0326862Y0025784D01*
X0326709Y0025739D01*
X0326555Y0025698D01*
X0326400Y0025660D01*
X0326244Y0025627D01*
X0326087Y0025597D01*
X0325930Y0025571D01*
X0325772Y0025550D01*
X0325613Y0025532D01*
X0325454Y0025518D01*
X0325295Y0025508D01*
X0325136Y0025502D01*
X0324976Y0025500D01*
X0324816Y0025502D01*
X0324657Y0025508D01*
X0324498Y0025518D01*
X0324339Y0025532D01*
X0324180Y0025550D01*
X0324022Y0025571D01*
X0323865Y0025597D01*
X0323708Y0025627D01*
X0323552Y0025660D01*
X0323397Y0025698D01*
X0323243Y0025739D01*
X0323090Y0025784D01*
X0322938Y0025833D01*
X0322787Y0025886D01*
X0322638Y0025942D01*
X0322490Y0026003D01*
X0322344Y0026066D01*
X0322199Y0026134D01*
X0322056Y0026205D01*
X0321915Y0026279D01*
X0321776Y0026357D01*
X0321639Y0026439D01*
X0321504Y0026524D01*
X0321371Y0026612D01*
X0321240Y0026704D01*
X0321112Y0026798D01*
X0320986Y0026896D01*
X0320862Y0026997D01*
X0320741Y0027101D01*
X0320623Y0027208D01*
X0320507Y0027318D01*
X0320394Y0027431D01*
X0320284Y0027547D01*
X0320177Y0027665D01*
X0320073Y0027786D01*
X0319972Y0027910D01*
X0319874Y0028036D01*
X0319780Y0028164D01*
X0319688Y0028295D01*
X0319600Y0028428D01*
X0319515Y0028563D01*
X0319433Y0028700D01*
X0319355Y0028839D01*
X0319281Y0028980D01*
X0319210Y0029123D01*
X0319142Y0029268D01*
X0319079Y0029414D01*
X0319018Y0029562D01*
X0318962Y0029711D01*
X0318909Y0029862D01*
X0318860Y0030014D01*
X0318815Y0030167D01*
X0318774Y0030321D01*
X0318736Y0030476D01*
X0318703Y0030632D01*
X0318673Y0030789D01*
X0318647Y0030946D01*
X0318626Y0031104D01*
X0318608Y0031263D01*
X0318594Y0031422D01*
X0318584Y0031581D01*
X0318578Y0031740D01*
X0318576Y0031900D01*
X0343421Y0024026D02*
X0343423Y0024184D01*
X0343429Y0024342D01*
X0343439Y0024500D01*
X0343453Y0024658D01*
X0343471Y0024815D01*
X0343492Y0024972D01*
X0343518Y0025128D01*
X0343548Y0025284D01*
X0343581Y0025439D01*
X0343619Y0025592D01*
X0343660Y0025745D01*
X0343705Y0025897D01*
X0343754Y0026048D01*
X0343807Y0026197D01*
X0343863Y0026345D01*
X0343923Y0026491D01*
X0343987Y0026636D01*
X0344055Y0026779D01*
X0344126Y0026921D01*
X0344200Y0027061D01*
X0344278Y0027198D01*
X0344360Y0027334D01*
X0344444Y0027468D01*
X0344533Y0027599D01*
X0344624Y0027728D01*
X0344719Y0027855D01*
X0344816Y0027980D01*
X0344917Y0028102D01*
X0345021Y0028221D01*
X0345128Y0028338D01*
X0345238Y0028452D01*
X0345351Y0028563D01*
X0345466Y0028672D01*
X0345584Y0028777D01*
X0345705Y0028879D01*
X0345828Y0028979D01*
X0345954Y0029075D01*
X0346082Y0029168D01*
X0346212Y0029258D01*
X0346345Y0029344D01*
X0346480Y0029428D01*
X0346616Y0029507D01*
X0346755Y0029584D01*
X0346896Y0029656D01*
X0347038Y0029726D01*
X0347182Y0029791D01*
X0347328Y0029853D01*
X0347475Y0029911D01*
X0347624Y0029966D01*
X0347774Y0030017D01*
X0347925Y0030064D01*
X0348077Y0030107D01*
X0348230Y0030146D01*
X0348385Y0030182D01*
X0348540Y0030213D01*
X0348696Y0030241D01*
X0348852Y0030265D01*
X0349009Y0030285D01*
X0349167Y0030301D01*
X0349324Y0030313D01*
X0349483Y0030321D01*
X0349641Y0030325D01*
X0349799Y0030325D01*
X0349957Y0030321D01*
X0350116Y0030313D01*
X0350273Y0030301D01*
X0350431Y0030285D01*
X0350588Y0030265D01*
X0350744Y0030241D01*
X0350900Y0030213D01*
X0351055Y0030182D01*
X0351210Y0030146D01*
X0351363Y0030107D01*
X0351515Y0030064D01*
X0351666Y0030017D01*
X0351816Y0029966D01*
X0351965Y0029911D01*
X0352112Y0029853D01*
X0352258Y0029791D01*
X0352402Y0029726D01*
X0352544Y0029656D01*
X0352685Y0029584D01*
X0352824Y0029507D01*
X0352960Y0029428D01*
X0353095Y0029344D01*
X0353228Y0029258D01*
X0353358Y0029168D01*
X0353486Y0029075D01*
X0353612Y0028979D01*
X0353735Y0028879D01*
X0353856Y0028777D01*
X0353974Y0028672D01*
X0354089Y0028563D01*
X0354202Y0028452D01*
X0354312Y0028338D01*
X0354419Y0028221D01*
X0354523Y0028102D01*
X0354624Y0027980D01*
X0354721Y0027855D01*
X0354816Y0027728D01*
X0354907Y0027599D01*
X0354996Y0027468D01*
X0355080Y0027334D01*
X0355162Y0027198D01*
X0355240Y0027061D01*
X0355314Y0026921D01*
X0355385Y0026779D01*
X0355453Y0026636D01*
X0355517Y0026491D01*
X0355577Y0026345D01*
X0355633Y0026197D01*
X0355686Y0026048D01*
X0355735Y0025897D01*
X0355780Y0025745D01*
X0355821Y0025592D01*
X0355859Y0025439D01*
X0355892Y0025284D01*
X0355922Y0025128D01*
X0355948Y0024972D01*
X0355969Y0024815D01*
X0355987Y0024658D01*
X0356001Y0024500D01*
X0356011Y0024342D01*
X0356017Y0024184D01*
X0356019Y0024026D01*
X0356017Y0023868D01*
X0356011Y0023710D01*
X0356001Y0023552D01*
X0355987Y0023394D01*
X0355969Y0023237D01*
X0355948Y0023080D01*
X0355922Y0022924D01*
X0355892Y0022768D01*
X0355859Y0022613D01*
X0355821Y0022460D01*
X0355780Y0022307D01*
X0355735Y0022155D01*
X0355686Y0022004D01*
X0355633Y0021855D01*
X0355577Y0021707D01*
X0355517Y0021561D01*
X0355453Y0021416D01*
X0355385Y0021273D01*
X0355314Y0021131D01*
X0355240Y0020991D01*
X0355162Y0020854D01*
X0355080Y0020718D01*
X0354996Y0020584D01*
X0354907Y0020453D01*
X0354816Y0020324D01*
X0354721Y0020197D01*
X0354624Y0020072D01*
X0354523Y0019950D01*
X0354419Y0019831D01*
X0354312Y0019714D01*
X0354202Y0019600D01*
X0354089Y0019489D01*
X0353974Y0019380D01*
X0353856Y0019275D01*
X0353735Y0019173D01*
X0353612Y0019073D01*
X0353486Y0018977D01*
X0353358Y0018884D01*
X0353228Y0018794D01*
X0353095Y0018708D01*
X0352960Y0018624D01*
X0352824Y0018545D01*
X0352685Y0018468D01*
X0352544Y0018396D01*
X0352402Y0018326D01*
X0352258Y0018261D01*
X0352112Y0018199D01*
X0351965Y0018141D01*
X0351816Y0018086D01*
X0351666Y0018035D01*
X0351515Y0017988D01*
X0351363Y0017945D01*
X0351210Y0017906D01*
X0351055Y0017870D01*
X0350900Y0017839D01*
X0350744Y0017811D01*
X0350588Y0017787D01*
X0350431Y0017767D01*
X0350273Y0017751D01*
X0350116Y0017739D01*
X0349957Y0017731D01*
X0349799Y0017727D01*
X0349641Y0017727D01*
X0349483Y0017731D01*
X0349324Y0017739D01*
X0349167Y0017751D01*
X0349009Y0017767D01*
X0348852Y0017787D01*
X0348696Y0017811D01*
X0348540Y0017839D01*
X0348385Y0017870D01*
X0348230Y0017906D01*
X0348077Y0017945D01*
X0347925Y0017988D01*
X0347774Y0018035D01*
X0347624Y0018086D01*
X0347475Y0018141D01*
X0347328Y0018199D01*
X0347182Y0018261D01*
X0347038Y0018326D01*
X0346896Y0018396D01*
X0346755Y0018468D01*
X0346616Y0018545D01*
X0346480Y0018624D01*
X0346345Y0018708D01*
X0346212Y0018794D01*
X0346082Y0018884D01*
X0345954Y0018977D01*
X0345828Y0019073D01*
X0345705Y0019173D01*
X0345584Y0019275D01*
X0345466Y0019380D01*
X0345351Y0019489D01*
X0345238Y0019600D01*
X0345128Y0019714D01*
X0345021Y0019831D01*
X0344917Y0019950D01*
X0344816Y0020072D01*
X0344719Y0020197D01*
X0344624Y0020324D01*
X0344533Y0020453D01*
X0344444Y0020584D01*
X0344360Y0020718D01*
X0344278Y0020854D01*
X0344200Y0020991D01*
X0344126Y0021131D01*
X0344055Y0021273D01*
X0343987Y0021416D01*
X0343923Y0021561D01*
X0343863Y0021707D01*
X0343807Y0021855D01*
X0343754Y0022004D01*
X0343705Y0022155D01*
X0343660Y0022307D01*
X0343619Y0022460D01*
X0343581Y0022613D01*
X0343548Y0022768D01*
X0343518Y0022924D01*
X0343492Y0023080D01*
X0343471Y0023237D01*
X0343453Y0023394D01*
X0343439Y0023552D01*
X0343429Y0023710D01*
X0343423Y0023868D01*
X0343421Y0024026D01*
X0343421Y0236624D02*
X0343423Y0236782D01*
X0343429Y0236940D01*
X0343439Y0237098D01*
X0343453Y0237256D01*
X0343471Y0237413D01*
X0343492Y0237570D01*
X0343518Y0237726D01*
X0343548Y0237882D01*
X0343581Y0238037D01*
X0343619Y0238190D01*
X0343660Y0238343D01*
X0343705Y0238495D01*
X0343754Y0238646D01*
X0343807Y0238795D01*
X0343863Y0238943D01*
X0343923Y0239089D01*
X0343987Y0239234D01*
X0344055Y0239377D01*
X0344126Y0239519D01*
X0344200Y0239659D01*
X0344278Y0239796D01*
X0344360Y0239932D01*
X0344444Y0240066D01*
X0344533Y0240197D01*
X0344624Y0240326D01*
X0344719Y0240453D01*
X0344816Y0240578D01*
X0344917Y0240700D01*
X0345021Y0240819D01*
X0345128Y0240936D01*
X0345238Y0241050D01*
X0345351Y0241161D01*
X0345466Y0241270D01*
X0345584Y0241375D01*
X0345705Y0241477D01*
X0345828Y0241577D01*
X0345954Y0241673D01*
X0346082Y0241766D01*
X0346212Y0241856D01*
X0346345Y0241942D01*
X0346480Y0242026D01*
X0346616Y0242105D01*
X0346755Y0242182D01*
X0346896Y0242254D01*
X0347038Y0242324D01*
X0347182Y0242389D01*
X0347328Y0242451D01*
X0347475Y0242509D01*
X0347624Y0242564D01*
X0347774Y0242615D01*
X0347925Y0242662D01*
X0348077Y0242705D01*
X0348230Y0242744D01*
X0348385Y0242780D01*
X0348540Y0242811D01*
X0348696Y0242839D01*
X0348852Y0242863D01*
X0349009Y0242883D01*
X0349167Y0242899D01*
X0349324Y0242911D01*
X0349483Y0242919D01*
X0349641Y0242923D01*
X0349799Y0242923D01*
X0349957Y0242919D01*
X0350116Y0242911D01*
X0350273Y0242899D01*
X0350431Y0242883D01*
X0350588Y0242863D01*
X0350744Y0242839D01*
X0350900Y0242811D01*
X0351055Y0242780D01*
X0351210Y0242744D01*
X0351363Y0242705D01*
X0351515Y0242662D01*
X0351666Y0242615D01*
X0351816Y0242564D01*
X0351965Y0242509D01*
X0352112Y0242451D01*
X0352258Y0242389D01*
X0352402Y0242324D01*
X0352544Y0242254D01*
X0352685Y0242182D01*
X0352824Y0242105D01*
X0352960Y0242026D01*
X0353095Y0241942D01*
X0353228Y0241856D01*
X0353358Y0241766D01*
X0353486Y0241673D01*
X0353612Y0241577D01*
X0353735Y0241477D01*
X0353856Y0241375D01*
X0353974Y0241270D01*
X0354089Y0241161D01*
X0354202Y0241050D01*
X0354312Y0240936D01*
X0354419Y0240819D01*
X0354523Y0240700D01*
X0354624Y0240578D01*
X0354721Y0240453D01*
X0354816Y0240326D01*
X0354907Y0240197D01*
X0354996Y0240066D01*
X0355080Y0239932D01*
X0355162Y0239796D01*
X0355240Y0239659D01*
X0355314Y0239519D01*
X0355385Y0239377D01*
X0355453Y0239234D01*
X0355517Y0239089D01*
X0355577Y0238943D01*
X0355633Y0238795D01*
X0355686Y0238646D01*
X0355735Y0238495D01*
X0355780Y0238343D01*
X0355821Y0238190D01*
X0355859Y0238037D01*
X0355892Y0237882D01*
X0355922Y0237726D01*
X0355948Y0237570D01*
X0355969Y0237413D01*
X0355987Y0237256D01*
X0356001Y0237098D01*
X0356011Y0236940D01*
X0356017Y0236782D01*
X0356019Y0236624D01*
X0356017Y0236466D01*
X0356011Y0236308D01*
X0356001Y0236150D01*
X0355987Y0235992D01*
X0355969Y0235835D01*
X0355948Y0235678D01*
X0355922Y0235522D01*
X0355892Y0235366D01*
X0355859Y0235211D01*
X0355821Y0235058D01*
X0355780Y0234905D01*
X0355735Y0234753D01*
X0355686Y0234602D01*
X0355633Y0234453D01*
X0355577Y0234305D01*
X0355517Y0234159D01*
X0355453Y0234014D01*
X0355385Y0233871D01*
X0355314Y0233729D01*
X0355240Y0233589D01*
X0355162Y0233452D01*
X0355080Y0233316D01*
X0354996Y0233182D01*
X0354907Y0233051D01*
X0354816Y0232922D01*
X0354721Y0232795D01*
X0354624Y0232670D01*
X0354523Y0232548D01*
X0354419Y0232429D01*
X0354312Y0232312D01*
X0354202Y0232198D01*
X0354089Y0232087D01*
X0353974Y0231978D01*
X0353856Y0231873D01*
X0353735Y0231771D01*
X0353612Y0231671D01*
X0353486Y0231575D01*
X0353358Y0231482D01*
X0353228Y0231392D01*
X0353095Y0231306D01*
X0352960Y0231222D01*
X0352824Y0231143D01*
X0352685Y0231066D01*
X0352544Y0230994D01*
X0352402Y0230924D01*
X0352258Y0230859D01*
X0352112Y0230797D01*
X0351965Y0230739D01*
X0351816Y0230684D01*
X0351666Y0230633D01*
X0351515Y0230586D01*
X0351363Y0230543D01*
X0351210Y0230504D01*
X0351055Y0230468D01*
X0350900Y0230437D01*
X0350744Y0230409D01*
X0350588Y0230385D01*
X0350431Y0230365D01*
X0350273Y0230349D01*
X0350116Y0230337D01*
X0349957Y0230329D01*
X0349799Y0230325D01*
X0349641Y0230325D01*
X0349483Y0230329D01*
X0349324Y0230337D01*
X0349167Y0230349D01*
X0349009Y0230365D01*
X0348852Y0230385D01*
X0348696Y0230409D01*
X0348540Y0230437D01*
X0348385Y0230468D01*
X0348230Y0230504D01*
X0348077Y0230543D01*
X0347925Y0230586D01*
X0347774Y0230633D01*
X0347624Y0230684D01*
X0347475Y0230739D01*
X0347328Y0230797D01*
X0347182Y0230859D01*
X0347038Y0230924D01*
X0346896Y0230994D01*
X0346755Y0231066D01*
X0346616Y0231143D01*
X0346480Y0231222D01*
X0346345Y0231306D01*
X0346212Y0231392D01*
X0346082Y0231482D01*
X0345954Y0231575D01*
X0345828Y0231671D01*
X0345705Y0231771D01*
X0345584Y0231873D01*
X0345466Y0231978D01*
X0345351Y0232087D01*
X0345238Y0232198D01*
X0345128Y0232312D01*
X0345021Y0232429D01*
X0344917Y0232548D01*
X0344816Y0232670D01*
X0344719Y0232795D01*
X0344624Y0232922D01*
X0344533Y0233051D01*
X0344444Y0233182D01*
X0344360Y0233316D01*
X0344278Y0233452D01*
X0344200Y0233589D01*
X0344126Y0233729D01*
X0344055Y0233871D01*
X0343987Y0234014D01*
X0343923Y0234159D01*
X0343863Y0234305D01*
X0343807Y0234453D01*
X0343754Y0234602D01*
X0343705Y0234753D01*
X0343660Y0234905D01*
X0343619Y0235058D01*
X0343581Y0235211D01*
X0343548Y0235366D01*
X0343518Y0235522D01*
X0343492Y0235678D01*
X0343471Y0235835D01*
X0343453Y0235992D01*
X0343439Y0236150D01*
X0343429Y0236308D01*
X0343423Y0236466D01*
X0343421Y0236624D01*
X0012712Y0236624D02*
X0012714Y0236782D01*
X0012720Y0236940D01*
X0012730Y0237098D01*
X0012744Y0237256D01*
X0012762Y0237413D01*
X0012783Y0237570D01*
X0012809Y0237726D01*
X0012839Y0237882D01*
X0012872Y0238037D01*
X0012910Y0238190D01*
X0012951Y0238343D01*
X0012996Y0238495D01*
X0013045Y0238646D01*
X0013098Y0238795D01*
X0013154Y0238943D01*
X0013214Y0239089D01*
X0013278Y0239234D01*
X0013346Y0239377D01*
X0013417Y0239519D01*
X0013491Y0239659D01*
X0013569Y0239796D01*
X0013651Y0239932D01*
X0013735Y0240066D01*
X0013824Y0240197D01*
X0013915Y0240326D01*
X0014010Y0240453D01*
X0014107Y0240578D01*
X0014208Y0240700D01*
X0014312Y0240819D01*
X0014419Y0240936D01*
X0014529Y0241050D01*
X0014642Y0241161D01*
X0014757Y0241270D01*
X0014875Y0241375D01*
X0014996Y0241477D01*
X0015119Y0241577D01*
X0015245Y0241673D01*
X0015373Y0241766D01*
X0015503Y0241856D01*
X0015636Y0241942D01*
X0015771Y0242026D01*
X0015907Y0242105D01*
X0016046Y0242182D01*
X0016187Y0242254D01*
X0016329Y0242324D01*
X0016473Y0242389D01*
X0016619Y0242451D01*
X0016766Y0242509D01*
X0016915Y0242564D01*
X0017065Y0242615D01*
X0017216Y0242662D01*
X0017368Y0242705D01*
X0017521Y0242744D01*
X0017676Y0242780D01*
X0017831Y0242811D01*
X0017987Y0242839D01*
X0018143Y0242863D01*
X0018300Y0242883D01*
X0018458Y0242899D01*
X0018615Y0242911D01*
X0018774Y0242919D01*
X0018932Y0242923D01*
X0019090Y0242923D01*
X0019248Y0242919D01*
X0019407Y0242911D01*
X0019564Y0242899D01*
X0019722Y0242883D01*
X0019879Y0242863D01*
X0020035Y0242839D01*
X0020191Y0242811D01*
X0020346Y0242780D01*
X0020501Y0242744D01*
X0020654Y0242705D01*
X0020806Y0242662D01*
X0020957Y0242615D01*
X0021107Y0242564D01*
X0021256Y0242509D01*
X0021403Y0242451D01*
X0021549Y0242389D01*
X0021693Y0242324D01*
X0021835Y0242254D01*
X0021976Y0242182D01*
X0022115Y0242105D01*
X0022251Y0242026D01*
X0022386Y0241942D01*
X0022519Y0241856D01*
X0022649Y0241766D01*
X0022777Y0241673D01*
X0022903Y0241577D01*
X0023026Y0241477D01*
X0023147Y0241375D01*
X0023265Y0241270D01*
X0023380Y0241161D01*
X0023493Y0241050D01*
X0023603Y0240936D01*
X0023710Y0240819D01*
X0023814Y0240700D01*
X0023915Y0240578D01*
X0024012Y0240453D01*
X0024107Y0240326D01*
X0024198Y0240197D01*
X0024287Y0240066D01*
X0024371Y0239932D01*
X0024453Y0239796D01*
X0024531Y0239659D01*
X0024605Y0239519D01*
X0024676Y0239377D01*
X0024744Y0239234D01*
X0024808Y0239089D01*
X0024868Y0238943D01*
X0024924Y0238795D01*
X0024977Y0238646D01*
X0025026Y0238495D01*
X0025071Y0238343D01*
X0025112Y0238190D01*
X0025150Y0238037D01*
X0025183Y0237882D01*
X0025213Y0237726D01*
X0025239Y0237570D01*
X0025260Y0237413D01*
X0025278Y0237256D01*
X0025292Y0237098D01*
X0025302Y0236940D01*
X0025308Y0236782D01*
X0025310Y0236624D01*
X0025308Y0236466D01*
X0025302Y0236308D01*
X0025292Y0236150D01*
X0025278Y0235992D01*
X0025260Y0235835D01*
X0025239Y0235678D01*
X0025213Y0235522D01*
X0025183Y0235366D01*
X0025150Y0235211D01*
X0025112Y0235058D01*
X0025071Y0234905D01*
X0025026Y0234753D01*
X0024977Y0234602D01*
X0024924Y0234453D01*
X0024868Y0234305D01*
X0024808Y0234159D01*
X0024744Y0234014D01*
X0024676Y0233871D01*
X0024605Y0233729D01*
X0024531Y0233589D01*
X0024453Y0233452D01*
X0024371Y0233316D01*
X0024287Y0233182D01*
X0024198Y0233051D01*
X0024107Y0232922D01*
X0024012Y0232795D01*
X0023915Y0232670D01*
X0023814Y0232548D01*
X0023710Y0232429D01*
X0023603Y0232312D01*
X0023493Y0232198D01*
X0023380Y0232087D01*
X0023265Y0231978D01*
X0023147Y0231873D01*
X0023026Y0231771D01*
X0022903Y0231671D01*
X0022777Y0231575D01*
X0022649Y0231482D01*
X0022519Y0231392D01*
X0022386Y0231306D01*
X0022251Y0231222D01*
X0022115Y0231143D01*
X0021976Y0231066D01*
X0021835Y0230994D01*
X0021693Y0230924D01*
X0021549Y0230859D01*
X0021403Y0230797D01*
X0021256Y0230739D01*
X0021107Y0230684D01*
X0020957Y0230633D01*
X0020806Y0230586D01*
X0020654Y0230543D01*
X0020501Y0230504D01*
X0020346Y0230468D01*
X0020191Y0230437D01*
X0020035Y0230409D01*
X0019879Y0230385D01*
X0019722Y0230365D01*
X0019564Y0230349D01*
X0019407Y0230337D01*
X0019248Y0230329D01*
X0019090Y0230325D01*
X0018932Y0230325D01*
X0018774Y0230329D01*
X0018615Y0230337D01*
X0018458Y0230349D01*
X0018300Y0230365D01*
X0018143Y0230385D01*
X0017987Y0230409D01*
X0017831Y0230437D01*
X0017676Y0230468D01*
X0017521Y0230504D01*
X0017368Y0230543D01*
X0017216Y0230586D01*
X0017065Y0230633D01*
X0016915Y0230684D01*
X0016766Y0230739D01*
X0016619Y0230797D01*
X0016473Y0230859D01*
X0016329Y0230924D01*
X0016187Y0230994D01*
X0016046Y0231066D01*
X0015907Y0231143D01*
X0015771Y0231222D01*
X0015636Y0231306D01*
X0015503Y0231392D01*
X0015373Y0231482D01*
X0015245Y0231575D01*
X0015119Y0231671D01*
X0014996Y0231771D01*
X0014875Y0231873D01*
X0014757Y0231978D01*
X0014642Y0232087D01*
X0014529Y0232198D01*
X0014419Y0232312D01*
X0014312Y0232429D01*
X0014208Y0232548D01*
X0014107Y0232670D01*
X0014010Y0232795D01*
X0013915Y0232922D01*
X0013824Y0233051D01*
X0013735Y0233182D01*
X0013651Y0233316D01*
X0013569Y0233452D01*
X0013491Y0233589D01*
X0013417Y0233729D01*
X0013346Y0233871D01*
X0013278Y0234014D01*
X0013214Y0234159D01*
X0013154Y0234305D01*
X0013098Y0234453D01*
X0013045Y0234602D01*
X0012996Y0234753D01*
X0012951Y0234905D01*
X0012910Y0235058D01*
X0012872Y0235211D01*
X0012839Y0235366D01*
X0012809Y0235522D01*
X0012783Y0235678D01*
X0012762Y0235835D01*
X0012744Y0235992D01*
X0012730Y0236150D01*
X0012720Y0236308D01*
X0012714Y0236466D01*
X0012712Y0236624D01*
D11*
X0067200Y0204715D03*
X0077200Y0204715D03*
X0087200Y0204715D03*
X0097200Y0204715D03*
X0077200Y0122215D03*
X0077200Y0112215D03*
X0147200Y0092215D03*
X0157200Y0092215D03*
X0199700Y0097215D03*
X0199700Y0107215D03*
X0199700Y0117215D03*
X0199700Y0087215D03*
X0212200Y0062215D03*
X0252200Y0062215D03*
D12*
X0167200Y0054815D02*
X0167200Y0049615D01*
X0157200Y0049615D02*
X0157200Y0054815D01*
X0147200Y0054815D02*
X0147200Y0049615D01*
X0137200Y0049615D02*
X0137200Y0054815D01*
X0137200Y0079615D02*
X0137200Y0084815D01*
X0147200Y0084815D02*
X0147200Y0079615D01*
X0157200Y0079615D02*
X0157200Y0084815D01*
X0167200Y0084815D02*
X0167200Y0079615D01*
X0167200Y0099615D02*
X0167200Y0104815D01*
X0157200Y0104815D02*
X0157200Y0099615D01*
X0147200Y0099615D02*
X0147200Y0104815D01*
X0137200Y0104815D02*
X0137200Y0099615D01*
X0127200Y0099615D02*
X0127200Y0104815D01*
X0117200Y0104815D02*
X0117200Y0099615D01*
X0107200Y0099615D02*
X0107200Y0104815D01*
X0097200Y0104815D02*
X0097200Y0099615D01*
X0087200Y0099615D02*
X0087200Y0104815D01*
X0087200Y0129615D02*
X0087200Y0134815D01*
X0097200Y0134815D02*
X0097200Y0129615D01*
X0107200Y0129615D02*
X0107200Y0134815D01*
X0117200Y0134815D02*
X0117200Y0129615D01*
X0127200Y0129615D02*
X0127200Y0134815D01*
X0137200Y0134815D02*
X0137200Y0129615D01*
X0147200Y0129615D02*
X0147200Y0134815D01*
X0157200Y0134815D02*
X0157200Y0129615D01*
X0167200Y0129615D02*
X0167200Y0134815D01*
X0167200Y0159615D02*
X0167200Y0164815D01*
X0157200Y0164815D02*
X0157200Y0159615D01*
X0147200Y0159615D02*
X0147200Y0164815D01*
X0137200Y0164815D02*
X0137200Y0159615D01*
X0127200Y0159615D02*
X0127200Y0164815D01*
X0117200Y0164815D02*
X0117200Y0159615D01*
X0107200Y0159615D02*
X0107200Y0164815D01*
X0097200Y0164815D02*
X0097200Y0159615D01*
X0087200Y0159615D02*
X0087200Y0164815D01*
X0077200Y0164815D02*
X0077200Y0159615D01*
X0067200Y0159615D02*
X0067200Y0164815D01*
X0057200Y0164815D02*
X0057200Y0159615D01*
X0047200Y0159615D02*
X0047200Y0164815D01*
X0037200Y0164815D02*
X0037200Y0159615D01*
X0037200Y0189615D02*
X0037200Y0194815D01*
X0047200Y0194815D02*
X0047200Y0189615D01*
X0057200Y0189615D02*
X0057200Y0194815D01*
X0067200Y0194815D02*
X0067200Y0189615D01*
X0077200Y0189615D02*
X0077200Y0194815D01*
X0087200Y0194815D02*
X0087200Y0189615D01*
X0097200Y0189615D02*
X0097200Y0194815D01*
X0107200Y0194815D02*
X0107200Y0189615D01*
X0117200Y0189615D02*
X0117200Y0194815D01*
X0127200Y0194815D02*
X0127200Y0189615D01*
X0137200Y0189615D02*
X0137200Y0194815D01*
X0147200Y0194815D02*
X0147200Y0189615D01*
X0157200Y0189615D02*
X0157200Y0194815D01*
X0167200Y0194815D02*
X0167200Y0189615D01*
D13*
X0164400Y0042215D02*
X0170000Y0042215D01*
X0170000Y0032215D02*
X0164400Y0032215D01*
D14*
X0147200Y0032215D03*
X0107200Y0032215D03*
X0027200Y0082215D03*
X0037200Y0102215D03*
X0027200Y0122215D03*
X0027200Y0142215D03*
X0027200Y0152215D03*
X0077200Y0102215D03*
D15*
X0184700Y0092715D03*
X0184700Y0111715D03*
X0091700Y0219715D03*
X0072700Y0219715D03*
D16*
X0037200Y0112215D03*
D17*
X0047200Y0112215D03*
X0057200Y0112215D03*
X0057200Y0122215D03*
X0047200Y0122215D03*
X0037200Y0122215D03*
D18*
X0184700Y0036465D02*
X0184700Y0030465D01*
X0194700Y0030465D02*
X0194700Y0036465D01*
X0204700Y0036465D02*
X0204700Y0030465D01*
X0222200Y0030465D02*
X0222200Y0036465D01*
X0232200Y0036465D02*
X0232200Y0030465D01*
X0242200Y0030465D02*
X0242200Y0036465D01*
X0242200Y0086715D02*
X0242200Y0092715D01*
X0232200Y0092715D02*
X0232200Y0086715D01*
X0222200Y0086715D02*
X0222200Y0092715D01*
X0220200Y0137215D02*
X0214200Y0137215D01*
X0200200Y0137215D02*
X0194200Y0137215D01*
X0194200Y0147215D02*
X0200200Y0147215D01*
X0214200Y0147215D02*
X0220200Y0147215D01*
X0220200Y0157215D02*
X0214200Y0157215D01*
X0200200Y0157215D02*
X0194200Y0157215D01*
X0194200Y0177215D02*
X0200200Y0177215D01*
X0214200Y0177215D02*
X0220200Y0177215D01*
X0220200Y0187215D02*
X0214200Y0187215D01*
X0200200Y0187215D02*
X0194200Y0187215D01*
X0194200Y0197215D02*
X0200200Y0197215D01*
X0214200Y0197215D02*
X0220200Y0197215D01*
X0234200Y0197215D02*
X0240200Y0197215D01*
X0254200Y0197215D02*
X0260200Y0197215D01*
X0260200Y0187215D02*
X0254200Y0187215D01*
X0240200Y0187215D02*
X0234200Y0187215D01*
X0234200Y0177215D02*
X0240200Y0177215D01*
X0254200Y0177215D02*
X0260200Y0177215D01*
X0260200Y0157215D02*
X0254200Y0157215D01*
X0240200Y0157215D02*
X0234200Y0157215D01*
X0234200Y0147215D02*
X0240200Y0147215D01*
X0254200Y0147215D02*
X0260200Y0147215D01*
X0260200Y0137215D02*
X0254200Y0137215D01*
X0240200Y0137215D02*
X0234200Y0137215D01*
X0344200Y0132215D02*
X0350200Y0132215D01*
X0350200Y0122215D02*
X0344200Y0122215D01*
X0344200Y0142215D02*
X0350200Y0142215D01*
X0350200Y0152215D02*
X0344200Y0152215D01*
X0260200Y0217215D02*
X0254200Y0217215D01*
X0240200Y0217215D02*
X0234200Y0217215D01*
X0234200Y0227215D02*
X0240200Y0227215D01*
X0254200Y0227215D02*
X0260200Y0227215D01*
X0260200Y0237215D02*
X0254200Y0237215D01*
X0240200Y0237215D02*
X0234200Y0237215D01*
X0220200Y0237215D02*
X0214200Y0237215D01*
X0200200Y0237215D02*
X0194200Y0237215D01*
X0194200Y0227215D02*
X0200200Y0227215D01*
X0214200Y0227215D02*
X0220200Y0227215D01*
X0220200Y0217215D02*
X0214200Y0217215D01*
X0200200Y0217215D02*
X0194200Y0217215D01*
D19*
X0289976Y0066900D03*
X0299976Y0066900D03*
X0309976Y0066900D03*
X0319976Y0066900D03*
X0314976Y0056900D03*
X0304976Y0056900D03*
X0294976Y0056900D03*
X0284976Y0056900D03*
X0083755Y0066900D03*
X0073755Y0066900D03*
X0063755Y0066900D03*
X0053755Y0066900D03*
X0048755Y0056900D03*
X0058755Y0056900D03*
X0068755Y0056900D03*
X0078755Y0056900D03*
D20*
X0292200Y0137215D03*
X0302200Y0137215D03*
X0312200Y0137215D03*
X0312200Y0177215D03*
X0302200Y0177215D03*
X0292200Y0177215D03*
X0292200Y0217215D03*
X0302200Y0217215D03*
X0312200Y0217215D03*
D21*
X0242200Y0062215D03*
X0222200Y0062215D03*
D22*
X0226717Y0060185D02*
X0237683Y0060185D01*
X0237900Y0059661D02*
X0237900Y0038627D01*
X0237400Y0037420D01*
X0237400Y0029510D01*
X0238131Y0027746D01*
X0238162Y0027715D01*
X0236630Y0027715D01*
X0236647Y0027740D01*
X0237019Y0028469D01*
X0237272Y0029247D01*
X0237400Y0030056D01*
X0237400Y0033465D01*
X0237400Y0036874D01*
X0237272Y0037683D01*
X0237019Y0038461D01*
X0236647Y0039190D01*
X0236166Y0039853D01*
X0235588Y0040431D01*
X0234925Y0040912D01*
X0234196Y0041284D01*
X0233418Y0041537D01*
X0232609Y0041665D01*
X0232200Y0041665D01*
X0232200Y0033465D01*
X0232200Y0033465D01*
X0232200Y0041665D01*
X0231791Y0041665D01*
X0230982Y0041537D01*
X0230204Y0041284D01*
X0229475Y0040912D01*
X0228812Y0040431D01*
X0228234Y0039853D01*
X0227753Y0039190D01*
X0227381Y0038461D01*
X0227128Y0037683D01*
X0227000Y0036874D01*
X0227000Y0033465D01*
X0232200Y0033465D01*
X0237400Y0033465D01*
X0232200Y0033465D01*
X0232200Y0033465D01*
X0232200Y0033465D01*
X0227000Y0033465D01*
X0227000Y0030056D01*
X0227128Y0029247D01*
X0227381Y0028469D01*
X0227753Y0027740D01*
X0227770Y0027715D01*
X0226238Y0027715D01*
X0226269Y0027746D01*
X0227000Y0029510D01*
X0227000Y0037420D01*
X0226269Y0039184D01*
X0224919Y0040534D01*
X0223155Y0041265D01*
X0221245Y0041265D01*
X0219481Y0040534D01*
X0218131Y0039184D01*
X0217400Y0037420D01*
X0217400Y0029510D01*
X0218131Y0027746D01*
X0218162Y0027715D01*
X0208738Y0027715D01*
X0208769Y0027746D01*
X0209500Y0029510D01*
X0209500Y0037420D01*
X0208769Y0039184D01*
X0207419Y0040534D01*
X0205655Y0041265D01*
X0203745Y0041265D01*
X0201981Y0040534D01*
X0200631Y0039184D01*
X0199900Y0037420D01*
X0199900Y0029510D01*
X0200631Y0027746D01*
X0200662Y0027715D01*
X0198738Y0027715D01*
X0198769Y0027746D01*
X0199500Y0029510D01*
X0199500Y0037420D01*
X0198769Y0039184D01*
X0197419Y0040534D01*
X0195655Y0041265D01*
X0193745Y0041265D01*
X0193273Y0041069D01*
X0190654Y0043688D01*
X0189923Y0044419D01*
X0188967Y0044815D01*
X0173902Y0044815D01*
X0173900Y0044821D01*
X0172606Y0046115D01*
X0171056Y0046756D01*
X0171305Y0047099D01*
X0171648Y0047772D01*
X0171882Y0048491D01*
X0172000Y0049237D01*
X0172000Y0052215D01*
X0172000Y0055193D01*
X0171882Y0055939D01*
X0171648Y0056658D01*
X0171305Y0057331D01*
X0170861Y0057942D01*
X0170327Y0058476D01*
X0169716Y0058920D01*
X0169043Y0059263D01*
X0168324Y0059497D01*
X0167578Y0059615D01*
X0167200Y0059615D01*
X0167200Y0052215D01*
X0167200Y0052215D01*
X0167200Y0059615D01*
X0166822Y0059615D01*
X0166076Y0059497D01*
X0165357Y0059263D01*
X0164684Y0058920D01*
X0164073Y0058476D01*
X0163539Y0057942D01*
X0163095Y0057331D01*
X0162752Y0056658D01*
X0162518Y0055939D01*
X0162400Y0055193D01*
X0162400Y0052215D01*
X0167200Y0052215D01*
X0172000Y0052215D01*
X0167200Y0052215D01*
X0167200Y0052215D01*
X0167200Y0052215D01*
X0162400Y0052215D01*
X0162400Y0049237D01*
X0162518Y0048491D01*
X0162752Y0047772D01*
X0163095Y0047099D01*
X0163344Y0046756D01*
X0161794Y0046115D01*
X0160500Y0044821D01*
X0159800Y0043130D01*
X0159800Y0041300D01*
X0160500Y0039609D01*
X0161794Y0038315D01*
X0163485Y0037615D01*
X0170915Y0037615D01*
X0172606Y0038315D01*
X0173900Y0039609D01*
X0173902Y0039615D01*
X0180561Y0039615D01*
X0180253Y0039190D01*
X0179881Y0038461D01*
X0179628Y0037683D01*
X0179500Y0036874D01*
X0179500Y0033465D01*
X0184700Y0033465D01*
X0189900Y0033465D01*
X0189900Y0036874D01*
X0189860Y0037128D01*
X0189900Y0037088D01*
X0189900Y0029510D01*
X0190631Y0027746D01*
X0190662Y0027715D01*
X0189130Y0027715D01*
X0189147Y0027740D01*
X0189519Y0028469D01*
X0189772Y0029247D01*
X0189900Y0030056D01*
X0189900Y0033465D01*
X0184700Y0033465D01*
X0184700Y0033465D01*
X0184700Y0033465D01*
X0179500Y0033465D01*
X0179500Y0030056D01*
X0179628Y0029247D01*
X0179881Y0028469D01*
X0180253Y0027740D01*
X0180270Y0027715D01*
X0171156Y0027715D01*
X0172606Y0028315D01*
X0173900Y0029609D01*
X0174600Y0031300D01*
X0174600Y0033130D01*
X0173900Y0034821D01*
X0172606Y0036115D01*
X0170915Y0036815D01*
X0163485Y0036815D01*
X0161794Y0036115D01*
X0160500Y0034821D01*
X0159800Y0033130D01*
X0159800Y0031300D01*
X0160500Y0029609D01*
X0161794Y0028315D01*
X0163244Y0027715D01*
X0133443Y0027715D01*
X0109743Y0051414D01*
X0108899Y0052258D01*
X0107797Y0052715D01*
X0080541Y0052715D01*
X0081332Y0053043D01*
X0082612Y0054323D01*
X0083305Y0055995D01*
X0083305Y0057805D01*
X0082612Y0059477D01*
X0081332Y0060757D01*
X0079660Y0061450D01*
X0077850Y0061450D01*
X0076178Y0060757D01*
X0074898Y0059477D01*
X0074205Y0057805D01*
X0074205Y0055995D01*
X0074898Y0054323D01*
X0076178Y0053043D01*
X0076969Y0052715D01*
X0070541Y0052715D01*
X0071332Y0053043D01*
X0072612Y0054323D01*
X0073305Y0055995D01*
X0073305Y0057805D01*
X0072612Y0059477D01*
X0071332Y0060757D01*
X0069660Y0061450D01*
X0067850Y0061450D01*
X0066178Y0060757D01*
X0064898Y0059477D01*
X0064205Y0057805D01*
X0064205Y0055995D01*
X0064898Y0054323D01*
X0066089Y0053131D01*
X0065171Y0052751D01*
X0064164Y0051743D01*
X0063619Y0050427D01*
X0063619Y0049003D01*
X0064152Y0047715D01*
X0062183Y0047715D01*
X0057869Y0052029D01*
X0058366Y0051950D01*
X0058755Y0051950D01*
X0058755Y0056900D01*
X0058755Y0056900D01*
X0053805Y0056900D01*
X0053805Y0057290D01*
X0053927Y0058059D01*
X0054168Y0058800D01*
X0054521Y0059494D01*
X0054979Y0060125D01*
X0055530Y0060676D01*
X0056161Y0061134D01*
X0056855Y0061487D01*
X0057596Y0061728D01*
X0058366Y0061850D01*
X0058755Y0061850D01*
X0058755Y0056900D01*
X0053805Y0056900D01*
X0053805Y0056510D01*
X0053884Y0056014D01*
X0053305Y0056593D01*
X0053305Y0057805D01*
X0052612Y0059477D01*
X0051332Y0060757D01*
X0049660Y0061450D01*
X0047850Y0061450D01*
X0046178Y0060757D01*
X0044898Y0059477D01*
X0044205Y0057805D01*
X0044205Y0055995D01*
X0044898Y0054323D01*
X0046178Y0053043D01*
X0047850Y0052350D01*
X0049062Y0052350D01*
X0059241Y0042172D01*
X0060343Y0041715D01*
X0103457Y0041715D01*
X0108557Y0036615D01*
X0105377Y0036615D01*
X0102800Y0034037D01*
X0102800Y0030392D01*
X0105377Y0027815D01*
X0109023Y0027815D01*
X0111600Y0030392D01*
X0111600Y0033572D01*
X0128001Y0017172D01*
X0129103Y0016715D01*
X0247797Y0016715D01*
X0248899Y0017172D01*
X0249743Y0018016D01*
X0284078Y0052350D01*
X0285881Y0052350D01*
X0287553Y0053043D01*
X0288833Y0054323D01*
X0289526Y0055995D01*
X0289526Y0057805D01*
X0288833Y0059477D01*
X0287553Y0060757D01*
X0285881Y0061450D01*
X0285678Y0061450D01*
X0287334Y0063107D01*
X0287398Y0063043D01*
X0289071Y0062350D01*
X0290881Y0062350D01*
X0292553Y0063043D01*
X0293833Y0064323D01*
X0294526Y0065995D01*
X0294526Y0067805D01*
X0293833Y0069477D01*
X0292553Y0070757D01*
X0290881Y0071450D01*
X0289071Y0071450D01*
X0287398Y0070757D01*
X0286541Y0069900D01*
X0286288Y0069900D01*
X0285186Y0069443D01*
X0284342Y0068599D01*
X0247000Y0031258D01*
X0247000Y0037420D01*
X0246500Y0038627D01*
X0246500Y0059661D01*
X0246850Y0060506D01*
X0246850Y0059999D01*
X0249984Y0056865D01*
X0252200Y0056865D01*
X0254416Y0056865D01*
X0257550Y0059999D01*
X0257550Y0062215D01*
X0257550Y0064431D01*
X0254416Y0067565D01*
X0252200Y0067565D01*
X0252200Y0062215D01*
X0252200Y0062215D01*
X0252200Y0067565D01*
X0249984Y0067565D01*
X0246850Y0064431D01*
X0246850Y0063924D01*
X0246500Y0064769D01*
X0246500Y0084553D01*
X0246857Y0085415D01*
X0270555Y0085415D01*
X0272136Y0086070D01*
X0273345Y0087279D01*
X0294636Y0108570D01*
X0295845Y0109779D01*
X0296500Y0111360D01*
X0296500Y0133426D01*
X0296772Y0133698D01*
X0296772Y0140732D01*
X0296500Y0141004D01*
X0296500Y0173426D01*
X0296772Y0173698D01*
X0296772Y0180732D01*
X0296500Y0181004D01*
X0296500Y0213426D01*
X0296772Y0213698D01*
X0296772Y0220732D01*
X0295717Y0221787D01*
X0288683Y0221787D01*
X0287628Y0220732D01*
X0287628Y0213698D01*
X0287900Y0213426D01*
X0287900Y0181004D01*
X0287628Y0180732D01*
X0287628Y0173698D01*
X0287900Y0173426D01*
X0287900Y0141004D01*
X0287628Y0140732D01*
X0287628Y0133698D01*
X0287900Y0133426D01*
X0287900Y0113996D01*
X0267919Y0094015D01*
X0246857Y0094015D01*
X0246269Y0095434D01*
X0244919Y0096784D01*
X0243155Y0097515D01*
X0241245Y0097515D01*
X0239481Y0096784D01*
X0238131Y0095434D01*
X0237400Y0093670D01*
X0237400Y0085760D01*
X0237900Y0084553D01*
X0237900Y0064769D01*
X0237250Y0063200D01*
X0237250Y0061230D01*
X0237900Y0059661D01*
X0237900Y0057787D02*
X0224444Y0057787D01*
X0225004Y0058019D02*
X0226396Y0059411D01*
X0227150Y0061230D01*
X0227150Y0063200D01*
X0226500Y0064769D01*
X0226500Y0084553D01*
X0227000Y0085760D01*
X0227000Y0093670D01*
X0226269Y0095434D01*
X0224919Y0096784D01*
X0223155Y0097515D01*
X0221245Y0097515D01*
X0219481Y0096784D01*
X0218131Y0095434D01*
X0217400Y0093670D01*
X0217400Y0085760D01*
X0217900Y0084553D01*
X0217900Y0075215D01*
X0159137Y0075215D01*
X0159716Y0075510D01*
X0160327Y0075954D01*
X0160861Y0076488D01*
X0161305Y0077099D01*
X0161648Y0077772D01*
X0161882Y0078491D01*
X0162000Y0079237D01*
X0162000Y0082215D01*
X0162000Y0085193D01*
X0161882Y0085939D01*
X0161648Y0086658D01*
X0161305Y0087331D01*
X0160861Y0087942D01*
X0160677Y0088126D01*
X0162550Y0089999D01*
X0162550Y0092215D01*
X0162550Y0094431D01*
X0160394Y0096587D01*
X0160930Y0097123D01*
X0161600Y0098740D01*
X0161600Y0105690D01*
X0160930Y0107307D01*
X0159692Y0108545D01*
X0158075Y0109215D01*
X0156325Y0109215D01*
X0154708Y0108545D01*
X0153470Y0107307D01*
X0152800Y0105690D01*
X0152800Y0098740D01*
X0153470Y0097123D01*
X0154006Y0096587D01*
X0151917Y0094498D01*
X0150111Y0096304D01*
X0150930Y0097123D01*
X0151600Y0098740D01*
X0151600Y0105690D01*
X0150930Y0107307D01*
X0149692Y0108545D01*
X0148075Y0109215D01*
X0146325Y0109215D01*
X0144708Y0108545D01*
X0143470Y0107307D01*
X0142800Y0105690D01*
X0142800Y0098740D01*
X0143470Y0097123D01*
X0144289Y0096304D01*
X0142250Y0094265D01*
X0142250Y0090165D01*
X0144289Y0088126D01*
X0143470Y0087307D01*
X0142800Y0085690D01*
X0142800Y0078740D01*
X0143470Y0077123D01*
X0144200Y0076392D01*
X0144200Y0063458D01*
X0139406Y0058664D01*
X0138075Y0059215D01*
X0136325Y0059215D01*
X0134708Y0058545D01*
X0133470Y0057307D01*
X0132800Y0055690D01*
X0132800Y0048740D01*
X0133470Y0047123D01*
X0134708Y0045885D01*
X0136325Y0045215D01*
X0138075Y0045215D01*
X0139692Y0045885D01*
X0140930Y0047123D01*
X0141600Y0048740D01*
X0141600Y0052372D01*
X0142800Y0053572D01*
X0142800Y0048740D01*
X0143470Y0047123D01*
X0144708Y0045885D01*
X0144984Y0045770D01*
X0144996Y0045742D01*
X0153619Y0037119D01*
X0153619Y0036503D01*
X0154164Y0035186D01*
X0155171Y0034179D01*
X0156488Y0033634D01*
X0157912Y0033634D01*
X0159229Y0034179D01*
X0160236Y0035186D01*
X0160781Y0036503D01*
X0160781Y0037927D01*
X0160236Y0039243D01*
X0159229Y0040251D01*
X0157912Y0040796D01*
X0157296Y0040796D01*
X0150942Y0047150D01*
X0151600Y0048740D01*
X0151600Y0055690D01*
X0150930Y0057307D01*
X0149692Y0058545D01*
X0148335Y0059107D01*
X0149743Y0060516D01*
X0150200Y0061618D01*
X0150200Y0069215D01*
X0217900Y0069215D01*
X0217900Y0064769D01*
X0217550Y0063924D01*
X0217550Y0064431D01*
X0214416Y0067565D01*
X0212200Y0067565D01*
X0212200Y0062215D01*
X0212200Y0062215D01*
X0212200Y0067565D01*
X0209984Y0067565D01*
X0206850Y0064431D01*
X0206850Y0062215D01*
X0212200Y0062215D01*
X0212200Y0062215D01*
X0212200Y0056865D01*
X0214416Y0056865D01*
X0217550Y0059999D01*
X0217550Y0060506D01*
X0218004Y0059411D01*
X0219396Y0058019D01*
X0221215Y0057265D01*
X0223185Y0057265D01*
X0225004Y0058019D01*
X0219956Y0057787D02*
X0215338Y0057787D01*
X0212200Y0057787D02*
X0212200Y0057787D01*
X0212200Y0056865D02*
X0212200Y0062215D01*
X0212200Y0062215D01*
X0206850Y0062215D01*
X0206850Y0059999D01*
X0209984Y0056865D01*
X0212200Y0056865D01*
X0209062Y0057787D02*
X0170974Y0057787D01*
X0171969Y0055388D02*
X0237900Y0055388D01*
X0237900Y0052990D02*
X0172000Y0052990D01*
X0172000Y0050591D02*
X0237900Y0050591D01*
X0237900Y0048193D02*
X0171785Y0048193D01*
X0172926Y0045794D02*
X0237900Y0045794D01*
X0237900Y0043396D02*
X0190946Y0043396D01*
X0196301Y0040997D02*
X0203099Y0040997D01*
X0206301Y0040997D02*
X0220599Y0040997D01*
X0223801Y0040997D02*
X0229641Y0040997D01*
X0232200Y0040997D02*
X0232200Y0040997D01*
X0232200Y0038599D02*
X0232200Y0038599D01*
X0232200Y0036200D02*
X0232200Y0036200D01*
X0232200Y0033802D02*
X0232200Y0033802D01*
X0227000Y0033802D02*
X0227000Y0033802D01*
X0227000Y0036200D02*
X0227000Y0036200D01*
X0227451Y0038599D02*
X0226512Y0038599D01*
X0234759Y0040997D02*
X0237900Y0040997D01*
X0237888Y0038599D02*
X0236949Y0038599D01*
X0237400Y0036200D02*
X0237400Y0036200D01*
X0237400Y0033802D02*
X0237400Y0033802D01*
X0237400Y0031403D02*
X0237400Y0031403D01*
X0237193Y0029005D02*
X0237609Y0029005D01*
X0244700Y0024715D02*
X0286885Y0066900D01*
X0289976Y0066900D01*
X0294106Y0064982D02*
X0295397Y0064982D01*
X0295388Y0065000D02*
X0295742Y0064306D01*
X0296200Y0063675D01*
X0296751Y0063124D01*
X0297381Y0062666D01*
X0298075Y0062313D01*
X0298816Y0062072D01*
X0299586Y0061950D01*
X0299976Y0061950D01*
X0300365Y0061950D01*
X0301135Y0062072D01*
X0301876Y0062313D01*
X0302570Y0062666D01*
X0303200Y0063124D01*
X0303751Y0063675D01*
X0304209Y0064306D01*
X0304563Y0065000D01*
X0304804Y0065741D01*
X0304926Y0066510D01*
X0304926Y0066900D01*
X0304926Y0067290D01*
X0304804Y0068059D01*
X0304563Y0068800D01*
X0304209Y0069494D01*
X0303751Y0070125D01*
X0303200Y0070676D01*
X0302570Y0071134D01*
X0301876Y0071487D01*
X0301135Y0071728D01*
X0300365Y0071850D01*
X0299976Y0071850D01*
X0299976Y0066900D01*
X0304926Y0066900D01*
X0299976Y0066900D01*
X0299976Y0066900D01*
X0299976Y0066900D01*
X0299976Y0061950D01*
X0299976Y0066900D01*
X0299976Y0066900D01*
X0299976Y0071850D01*
X0299586Y0071850D01*
X0298816Y0071728D01*
X0298075Y0071487D01*
X0297381Y0071134D01*
X0296751Y0070676D01*
X0296200Y0070125D01*
X0295742Y0069494D01*
X0295388Y0068800D01*
X0295147Y0068059D01*
X0295026Y0067290D01*
X0295026Y0066900D01*
X0295026Y0066510D01*
X0295147Y0065741D01*
X0295388Y0065000D01*
X0295026Y0066900D02*
X0299975Y0066900D01*
X0299975Y0066900D01*
X0295026Y0066900D01*
X0295040Y0067381D02*
X0294526Y0067381D01*
X0293531Y0069779D02*
X0295949Y0069779D01*
X0299976Y0069779D02*
X0299976Y0069779D01*
X0299976Y0067381D02*
X0299976Y0067381D01*
X0299976Y0064982D02*
X0299976Y0064982D01*
X0299976Y0062584D02*
X0299976Y0062584D01*
X0302408Y0062584D02*
X0308506Y0062584D01*
X0309071Y0062350D02*
X0310881Y0062350D01*
X0312553Y0063043D01*
X0313833Y0064323D01*
X0314526Y0065995D01*
X0314526Y0067805D01*
X0313833Y0069477D01*
X0312553Y0070757D01*
X0310881Y0071450D01*
X0309071Y0071450D01*
X0307398Y0070757D01*
X0306118Y0069477D01*
X0305426Y0067805D01*
X0305426Y0065995D01*
X0306118Y0064323D01*
X0307398Y0063043D01*
X0309071Y0062350D01*
X0307553Y0060757D02*
X0305881Y0061450D01*
X0304071Y0061450D01*
X0302398Y0060757D01*
X0301118Y0059477D01*
X0300426Y0057805D01*
X0300426Y0055995D01*
X0301118Y0054323D01*
X0302398Y0053043D01*
X0304071Y0052350D01*
X0305881Y0052350D01*
X0307553Y0053043D01*
X0308833Y0054323D01*
X0309526Y0055995D01*
X0309526Y0057805D01*
X0308833Y0059477D01*
X0307553Y0060757D01*
X0308125Y0060185D02*
X0311826Y0060185D01*
X0312398Y0060757D02*
X0311118Y0059477D01*
X0310426Y0057805D01*
X0310426Y0055995D01*
X0311118Y0054323D01*
X0312398Y0053043D01*
X0314071Y0052350D01*
X0315881Y0052350D01*
X0317553Y0053043D01*
X0318833Y0054323D01*
X0319526Y0055995D01*
X0319526Y0057805D01*
X0318833Y0059477D01*
X0317553Y0060757D01*
X0315881Y0061450D01*
X0314071Y0061450D01*
X0312398Y0060757D01*
X0311445Y0062584D02*
X0318506Y0062584D01*
X0319071Y0062350D02*
X0320881Y0062350D01*
X0322553Y0063043D01*
X0323833Y0064323D01*
X0324526Y0065995D01*
X0324526Y0067805D01*
X0323833Y0069477D01*
X0322553Y0070757D01*
X0320881Y0071450D01*
X0319071Y0071450D01*
X0317398Y0070757D01*
X0316118Y0069477D01*
X0315426Y0067805D01*
X0315426Y0065995D01*
X0316118Y0064323D01*
X0317398Y0063043D01*
X0319071Y0062350D01*
X0318125Y0060185D02*
X0342200Y0060185D01*
X0342200Y0057787D02*
X0319526Y0057787D01*
X0319274Y0055388D02*
X0342200Y0055388D01*
X0342200Y0052990D02*
X0317425Y0052990D01*
X0312526Y0052990D02*
X0307425Y0052990D01*
X0309274Y0055388D02*
X0310677Y0055388D01*
X0310426Y0057787D02*
X0309526Y0057787D01*
X0301826Y0060185D02*
X0298691Y0060185D01*
X0298751Y0060125D02*
X0298200Y0060676D01*
X0297570Y0061134D01*
X0296876Y0061487D01*
X0296135Y0061728D01*
X0295365Y0061850D01*
X0294976Y0061850D01*
X0294976Y0056900D01*
X0299926Y0056900D01*
X0299926Y0057290D01*
X0299804Y0058059D01*
X0299563Y0058800D01*
X0299209Y0059494D01*
X0298751Y0060125D01*
X0299847Y0057787D02*
X0300426Y0057787D01*
X0299926Y0056900D02*
X0294976Y0056900D01*
X0294976Y0056900D01*
X0294976Y0056900D01*
X0294976Y0051950D01*
X0295365Y0051950D01*
X0296135Y0052072D01*
X0296876Y0052313D01*
X0297570Y0052666D01*
X0298200Y0053124D01*
X0298751Y0053675D01*
X0299209Y0054306D01*
X0299563Y0055000D01*
X0299804Y0055741D01*
X0299926Y0056510D01*
X0299926Y0056900D01*
X0299689Y0055388D02*
X0300677Y0055388D01*
X0302526Y0052990D02*
X0298015Y0052990D01*
X0294976Y0052990D02*
X0294976Y0052990D01*
X0294976Y0051950D02*
X0294976Y0056900D01*
X0294976Y0056900D01*
X0294976Y0061850D01*
X0294586Y0061850D01*
X0293816Y0061728D01*
X0293075Y0061487D01*
X0292381Y0061134D01*
X0291751Y0060676D01*
X0291200Y0060125D01*
X0290742Y0059494D01*
X0290388Y0058800D01*
X0290147Y0058059D01*
X0290026Y0057290D01*
X0290026Y0056900D01*
X0290026Y0056510D01*
X0290147Y0055741D01*
X0290388Y0055000D01*
X0290742Y0054306D01*
X0291200Y0053675D01*
X0291751Y0053124D01*
X0292381Y0052666D01*
X0293075Y0052313D01*
X0293816Y0052072D01*
X0294586Y0051950D01*
X0294976Y0051950D01*
X0291936Y0052990D02*
X0287425Y0052990D01*
X0289274Y0055388D02*
X0290262Y0055388D01*
X0290026Y0056900D02*
X0294975Y0056900D01*
X0294975Y0056900D01*
X0290026Y0056900D01*
X0290104Y0057787D02*
X0289526Y0057787D01*
X0288125Y0060185D02*
X0291260Y0060185D01*
X0291445Y0062584D02*
X0297543Y0062584D01*
X0294976Y0060185D02*
X0294976Y0060185D01*
X0294976Y0057787D02*
X0294976Y0057787D01*
X0294976Y0055388D02*
X0294976Y0055388D01*
X0284976Y0056900D02*
X0284385Y0056900D01*
X0247200Y0019715D01*
X0129700Y0019715D01*
X0104700Y0044715D01*
X0060940Y0044715D01*
X0048755Y0056900D01*
X0045606Y0060185D02*
X0009400Y0060185D01*
X0009400Y0057787D02*
X0044205Y0057787D01*
X0044456Y0055388D02*
X0009400Y0055388D01*
X0009400Y0052990D02*
X0046306Y0052990D01*
X0050821Y0050591D02*
X0009400Y0050591D01*
X0009400Y0048193D02*
X0053220Y0048193D01*
X0055618Y0045794D02*
X0009400Y0045794D01*
X0009400Y0043396D02*
X0058017Y0043396D01*
X0061705Y0048193D02*
X0063954Y0048193D01*
X0063687Y0050591D02*
X0059307Y0050591D01*
X0059145Y0051950D02*
X0058755Y0051950D01*
X0058755Y0056900D01*
X0058755Y0056900D01*
X0058755Y0056900D01*
X0058755Y0061850D01*
X0059145Y0061850D01*
X0059914Y0061728D01*
X0060655Y0061487D01*
X0061349Y0061134D01*
X0061980Y0060676D01*
X0062531Y0060125D01*
X0062989Y0059494D01*
X0063342Y0058800D01*
X0063583Y0058059D01*
X0063705Y0057290D01*
X0063705Y0056900D01*
X0058755Y0056900D01*
X0058755Y0056900D01*
X0063705Y0056900D01*
X0063705Y0056510D01*
X0063583Y0055741D01*
X0063342Y0055000D01*
X0062989Y0054306D01*
X0062531Y0053675D01*
X0061980Y0053124D01*
X0061349Y0052666D01*
X0060655Y0052313D01*
X0059914Y0052072D01*
X0059145Y0051950D01*
X0058755Y0052990D02*
X0058755Y0052990D01*
X0058755Y0055388D02*
X0058755Y0055388D01*
X0058755Y0057787D02*
X0058755Y0057787D01*
X0058755Y0060185D02*
X0058755Y0060185D01*
X0060530Y0063124D02*
X0061161Y0062666D01*
X0061855Y0062313D01*
X0062596Y0062072D01*
X0063366Y0061950D01*
X0063755Y0061950D01*
X0063755Y0066900D01*
X0063755Y0066900D01*
X0058805Y0066900D01*
X0058805Y0067290D01*
X0058927Y0068059D01*
X0059168Y0068800D01*
X0059521Y0069494D01*
X0059979Y0070125D01*
X0060530Y0070676D01*
X0061161Y0071134D01*
X0061855Y0071487D01*
X0062596Y0071728D01*
X0063366Y0071850D01*
X0063755Y0071850D01*
X0063755Y0066900D01*
X0058805Y0066900D01*
X0058805Y0066510D01*
X0058927Y0065741D01*
X0059168Y0065000D01*
X0059521Y0064306D01*
X0059979Y0063675D01*
X0060530Y0063124D01*
X0061323Y0062584D02*
X0055224Y0062584D01*
X0054660Y0062350D02*
X0056332Y0063043D01*
X0057612Y0064323D01*
X0058305Y0065995D01*
X0058305Y0067805D01*
X0057612Y0069477D01*
X0056332Y0070757D01*
X0054660Y0071450D01*
X0052850Y0071450D01*
X0051178Y0070757D01*
X0049898Y0069477D01*
X0049205Y0067805D01*
X0049205Y0065995D01*
X0049898Y0064323D01*
X0051178Y0063043D01*
X0052850Y0062350D01*
X0054660Y0062350D01*
X0055040Y0060185D02*
X0051905Y0060185D01*
X0052286Y0062584D02*
X0009400Y0062584D01*
X0009400Y0064982D02*
X0049625Y0064982D01*
X0049205Y0067381D02*
X0009400Y0067381D01*
X0009400Y0069779D02*
X0050200Y0069779D01*
X0057311Y0069779D02*
X0059728Y0069779D01*
X0058820Y0067381D02*
X0058305Y0067381D01*
X0057886Y0064982D02*
X0059177Y0064982D01*
X0063755Y0064982D02*
X0063755Y0064982D01*
X0063755Y0066900D02*
X0063755Y0061950D01*
X0064145Y0061950D01*
X0064914Y0062072D01*
X0065655Y0062313D01*
X0066349Y0062666D01*
X0066980Y0063124D01*
X0067531Y0063675D01*
X0067989Y0064306D01*
X0068342Y0065000D01*
X0068583Y0065741D01*
X0068705Y0066510D01*
X0068705Y0066900D01*
X0068705Y0067290D01*
X0068583Y0068059D01*
X0068342Y0068800D01*
X0067989Y0069494D01*
X0067531Y0070125D01*
X0066980Y0070676D01*
X0066349Y0071134D01*
X0065655Y0071487D01*
X0064914Y0071728D01*
X0064145Y0071850D01*
X0063755Y0071850D01*
X0063755Y0066900D01*
X0063755Y0066900D01*
X0063755Y0066900D01*
X0068705Y0066900D01*
X0063755Y0066900D01*
X0063755Y0066900D01*
X0063755Y0067381D02*
X0063755Y0067381D01*
X0063755Y0069779D02*
X0063755Y0069779D01*
X0067782Y0069779D02*
X0070200Y0069779D01*
X0069898Y0069477D02*
X0071178Y0070757D01*
X0072850Y0071450D01*
X0074660Y0071450D01*
X0076332Y0070757D01*
X0077612Y0069477D01*
X0078305Y0067805D01*
X0078305Y0065995D01*
X0077612Y0064323D01*
X0076332Y0063043D01*
X0074660Y0062350D01*
X0072850Y0062350D01*
X0071178Y0063043D01*
X0069898Y0064323D01*
X0069205Y0065995D01*
X0069205Y0067805D01*
X0069898Y0069477D01*
X0069205Y0067381D02*
X0068691Y0067381D01*
X0068333Y0064982D02*
X0069625Y0064982D01*
X0072286Y0062584D02*
X0066187Y0062584D01*
X0063755Y0062584D02*
X0063755Y0062584D01*
X0062470Y0060185D02*
X0065606Y0060185D01*
X0064205Y0057787D02*
X0063626Y0057787D01*
X0063469Y0055388D02*
X0064456Y0055388D01*
X0065748Y0052990D02*
X0061794Y0052990D01*
X0067200Y0049715D02*
X0107200Y0049715D01*
X0132200Y0024715D01*
X0244700Y0024715D01*
X0251138Y0019410D02*
X0342432Y0019410D01*
X0342514Y0019212D02*
X0344905Y0016821D01*
X0348029Y0015527D01*
X0351410Y0015527D01*
X0354534Y0016821D01*
X0356925Y0019212D01*
X0358219Y0022335D01*
X0358219Y0025717D01*
X0356925Y0028840D01*
X0354534Y0031231D01*
X0352159Y0032215D01*
X0359331Y0032215D01*
X0359331Y0022057D01*
X0359237Y0020862D01*
X0358498Y0018588D01*
X0357092Y0016653D01*
X0355158Y0015248D01*
X0352884Y0014509D01*
X0351688Y0014415D01*
X0017042Y0014415D01*
X0015847Y0014509D01*
X0015847Y0014509D01*
X0013573Y0015248D01*
X0011638Y0016653D01*
X0010233Y0018588D01*
X0009494Y0020862D01*
X0009400Y0022057D01*
X0009400Y0237682D01*
X0009400Y0238593D01*
X0009494Y0239788D01*
X0010233Y0242063D01*
X0011638Y0243997D01*
X0013573Y0245402D01*
X0015847Y0246141D01*
X0017042Y0246235D01*
X0351688Y0246235D01*
X0352884Y0246141D01*
X0355158Y0245402D01*
X0357092Y0243997D01*
X0358498Y0242063D01*
X0359237Y0239788D01*
X0359331Y0238593D01*
X0359331Y0112215D01*
X0342200Y0112215D01*
X0342200Y0032215D01*
X0347280Y0032215D01*
X0344905Y0031231D01*
X0342514Y0028840D01*
X0341220Y0025717D01*
X0341220Y0022335D01*
X0342514Y0019212D01*
X0341438Y0021809D02*
X0253537Y0021809D01*
X0255935Y0024208D02*
X0276074Y0024208D01*
X0275104Y0024609D02*
X0278265Y0023300D01*
X0281686Y0023300D01*
X0284847Y0024609D01*
X0287266Y0027028D01*
X0288576Y0030189D01*
X0288576Y0033611D01*
X0287266Y0036772D01*
X0284847Y0039191D01*
X0281686Y0040500D01*
X0278265Y0040500D01*
X0275104Y0039191D01*
X0272685Y0036772D01*
X0271376Y0033611D01*
X0271376Y0030189D01*
X0272685Y0027028D01*
X0275104Y0024609D01*
X0273107Y0026606D02*
X0258334Y0026606D01*
X0260732Y0029005D02*
X0271866Y0029005D01*
X0271376Y0031403D02*
X0263131Y0031403D01*
X0265529Y0033802D02*
X0271455Y0033802D01*
X0272448Y0036200D02*
X0267928Y0036200D01*
X0270326Y0038599D02*
X0274512Y0038599D01*
X0272725Y0040997D02*
X0342200Y0040997D01*
X0342200Y0038599D02*
X0330439Y0038599D01*
X0329847Y0039191D02*
X0326686Y0040500D01*
X0323265Y0040500D01*
X0320104Y0039191D01*
X0317685Y0036772D01*
X0316376Y0033611D01*
X0316376Y0030189D01*
X0317685Y0027028D01*
X0320104Y0024609D01*
X0323265Y0023300D01*
X0326686Y0023300D01*
X0329847Y0024609D01*
X0332266Y0027028D01*
X0333576Y0030189D01*
X0333576Y0033611D01*
X0332266Y0036772D01*
X0329847Y0039191D01*
X0332503Y0036200D02*
X0342200Y0036200D01*
X0342200Y0033802D02*
X0333497Y0033802D01*
X0333576Y0031403D02*
X0345320Y0031403D01*
X0342679Y0029005D02*
X0333085Y0029005D01*
X0331844Y0026606D02*
X0341589Y0026606D01*
X0341220Y0024208D02*
X0328877Y0024208D01*
X0321074Y0024208D02*
X0283877Y0024208D01*
X0286844Y0026606D02*
X0318107Y0026606D01*
X0316866Y0029005D02*
X0288085Y0029005D01*
X0288576Y0031403D02*
X0316376Y0031403D01*
X0316455Y0033802D02*
X0288497Y0033802D01*
X0287503Y0036200D02*
X0317448Y0036200D01*
X0319512Y0038599D02*
X0285439Y0038599D01*
X0277522Y0045794D02*
X0342200Y0045794D01*
X0342200Y0043396D02*
X0275123Y0043396D01*
X0279920Y0048193D02*
X0342200Y0048193D01*
X0342200Y0050591D02*
X0282319Y0050591D01*
X0273529Y0057787D02*
X0255338Y0057787D01*
X0252200Y0057787D02*
X0252200Y0057787D01*
X0252200Y0056865D02*
X0252200Y0062215D01*
X0257550Y0062215D01*
X0252200Y0062215D01*
X0252200Y0062215D01*
X0252200Y0062215D01*
X0252200Y0056865D01*
X0249062Y0057787D02*
X0246500Y0057787D01*
X0246500Y0055388D02*
X0271131Y0055388D01*
X0268732Y0052990D02*
X0246500Y0052990D01*
X0246500Y0050591D02*
X0266334Y0050591D01*
X0263935Y0048193D02*
X0246500Y0048193D01*
X0246500Y0045794D02*
X0261537Y0045794D01*
X0259138Y0043396D02*
X0246500Y0043396D01*
X0246500Y0040997D02*
X0256740Y0040997D01*
X0254341Y0038599D02*
X0246512Y0038599D01*
X0247000Y0036200D02*
X0251942Y0036200D01*
X0249544Y0033802D02*
X0247000Y0033802D01*
X0247000Y0031403D02*
X0247145Y0031403D01*
X0249743Y0018016D02*
X0249743Y0018016D01*
X0248514Y0017012D02*
X0344714Y0017012D01*
X0353205Y0014613D02*
X0015526Y0014613D01*
X0017320Y0015527D02*
X0014197Y0016821D01*
X0011806Y0019212D01*
X0010512Y0022335D01*
X0010512Y0025717D01*
X0011806Y0028840D01*
X0014197Y0031231D01*
X0017320Y0032525D01*
X0020702Y0032525D01*
X0023825Y0031231D01*
X0026216Y0028840D01*
X0027510Y0025717D01*
X0027510Y0022335D01*
X0026216Y0019212D01*
X0023825Y0016821D01*
X0020702Y0015527D01*
X0017320Y0015527D01*
X0014005Y0017012D02*
X0011378Y0017012D01*
X0011723Y0019410D02*
X0009966Y0019410D01*
X0009420Y0021809D02*
X0010730Y0021809D01*
X0010512Y0024208D02*
X0009400Y0024208D01*
X0009400Y0026606D02*
X0010880Y0026606D01*
X0011970Y0029005D02*
X0009400Y0029005D01*
X0009400Y0031403D02*
X0014611Y0031403D01*
X0009400Y0033802D02*
X0035234Y0033802D01*
X0035155Y0033611D02*
X0035155Y0030189D01*
X0036464Y0027028D01*
X0038884Y0024609D01*
X0042044Y0023300D01*
X0045466Y0023300D01*
X0048627Y0024609D01*
X0051046Y0027028D01*
X0052355Y0030189D01*
X0052355Y0033611D01*
X0051046Y0036772D01*
X0048627Y0039191D01*
X0045466Y0040500D01*
X0042044Y0040500D01*
X0038884Y0039191D01*
X0036464Y0036772D01*
X0035155Y0033611D01*
X0035155Y0031403D02*
X0023411Y0031403D01*
X0026052Y0029005D02*
X0035646Y0029005D01*
X0036887Y0026606D02*
X0027142Y0026606D01*
X0027510Y0024208D02*
X0039854Y0024208D01*
X0047657Y0024208D02*
X0084854Y0024208D01*
X0083884Y0024609D02*
X0087044Y0023300D01*
X0090466Y0023300D01*
X0093627Y0024609D01*
X0096046Y0027028D01*
X0097355Y0030189D01*
X0097355Y0033611D01*
X0096046Y0036772D01*
X0093627Y0039191D01*
X0090466Y0040500D01*
X0087044Y0040500D01*
X0083884Y0039191D01*
X0081464Y0036772D01*
X0080155Y0033611D01*
X0080155Y0030189D01*
X0081464Y0027028D01*
X0083884Y0024609D01*
X0081887Y0026606D02*
X0050623Y0026606D01*
X0051864Y0029005D02*
X0080646Y0029005D01*
X0080155Y0031403D02*
X0052355Y0031403D01*
X0052276Y0033802D02*
X0080234Y0033802D01*
X0081228Y0036200D02*
X0051283Y0036200D01*
X0049219Y0038599D02*
X0083291Y0038599D01*
X0094219Y0038599D02*
X0106574Y0038599D01*
X0104963Y0036200D02*
X0096283Y0036200D01*
X0097276Y0033802D02*
X0102800Y0033802D01*
X0102800Y0031403D02*
X0097355Y0031403D01*
X0096864Y0029005D02*
X0104188Y0029005D01*
X0110212Y0029005D02*
X0116168Y0029005D01*
X0113769Y0031403D02*
X0111600Y0031403D01*
X0118566Y0026606D02*
X0095623Y0026606D01*
X0092657Y0024208D02*
X0120965Y0024208D01*
X0123363Y0021809D02*
X0027292Y0021809D01*
X0026299Y0019410D02*
X0125762Y0019410D01*
X0128386Y0017012D02*
X0024017Y0017012D01*
X0036228Y0036200D02*
X0009400Y0036200D01*
X0009400Y0038599D02*
X0038291Y0038599D01*
X0053305Y0057787D02*
X0053884Y0057787D01*
X0071204Y0052990D02*
X0076306Y0052990D01*
X0074456Y0055388D02*
X0073054Y0055388D01*
X0073305Y0057787D02*
X0074205Y0057787D01*
X0075606Y0060185D02*
X0071905Y0060185D01*
X0075224Y0062584D02*
X0082286Y0062584D01*
X0082850Y0062350D02*
X0084660Y0062350D01*
X0086332Y0063043D01*
X0087612Y0064323D01*
X0088305Y0065995D01*
X0088305Y0067805D01*
X0087612Y0069477D01*
X0086332Y0070757D01*
X0084660Y0071450D01*
X0082850Y0071450D01*
X0081178Y0070757D01*
X0079898Y0069477D01*
X0079205Y0067805D01*
X0079205Y0065995D01*
X0079898Y0064323D01*
X0081178Y0063043D01*
X0082850Y0062350D01*
X0081905Y0060185D02*
X0140928Y0060185D01*
X0143326Y0062584D02*
X0085224Y0062584D01*
X0087886Y0064982D02*
X0144200Y0064982D01*
X0144200Y0067381D02*
X0088305Y0067381D01*
X0087311Y0069779D02*
X0144200Y0069779D01*
X0144200Y0072178D02*
X0009400Y0072178D01*
X0009400Y0074576D02*
X0144200Y0074576D01*
X0143618Y0076975D02*
X0140782Y0076975D01*
X0140930Y0077123D02*
X0141600Y0078740D01*
X0141600Y0085690D01*
X0140930Y0087307D01*
X0139692Y0088545D01*
X0138075Y0089215D01*
X0136325Y0089215D01*
X0134708Y0088545D01*
X0133470Y0087307D01*
X0132800Y0085690D01*
X0132800Y0078740D01*
X0133470Y0077123D01*
X0134708Y0075885D01*
X0136325Y0075215D01*
X0138075Y0075215D01*
X0139692Y0075885D01*
X0140930Y0077123D01*
X0141600Y0079373D02*
X0142800Y0079373D01*
X0142800Y0081772D02*
X0141600Y0081772D01*
X0141600Y0084170D02*
X0142800Y0084170D01*
X0143164Y0086569D02*
X0141236Y0086569D01*
X0143447Y0088967D02*
X0138673Y0088967D01*
X0135727Y0088967D02*
X0009400Y0088967D01*
X0009400Y0086569D02*
X0024766Y0086569D01*
X0025212Y0087015D02*
X0022400Y0084203D01*
X0022400Y0082215D01*
X0027200Y0082215D01*
X0027200Y0082215D01*
X0027200Y0087015D01*
X0029188Y0087015D01*
X0032000Y0084203D01*
X0032000Y0082215D01*
X0027200Y0082215D01*
X0027200Y0087015D01*
X0025212Y0087015D01*
X0027200Y0086569D02*
X0027200Y0086569D01*
X0027200Y0084170D02*
X0027200Y0084170D01*
X0027200Y0082215D02*
X0027200Y0082215D01*
X0027200Y0082215D01*
X0032000Y0082215D01*
X0032000Y0080227D01*
X0029188Y0077415D01*
X0027200Y0077415D01*
X0027200Y0082215D01*
X0022400Y0082215D01*
X0022400Y0080227D01*
X0025212Y0077415D01*
X0027200Y0077415D01*
X0027200Y0082215D01*
X0027200Y0082215D01*
X0027200Y0081772D02*
X0027200Y0081772D01*
X0027200Y0079373D02*
X0027200Y0079373D01*
X0031147Y0079373D02*
X0132800Y0079373D01*
X0132800Y0081772D02*
X0032000Y0081772D01*
X0032000Y0084170D02*
X0132800Y0084170D01*
X0133164Y0086569D02*
X0029634Y0086569D01*
X0022400Y0084170D02*
X0009400Y0084170D01*
X0009400Y0081772D02*
X0022400Y0081772D01*
X0023253Y0079373D02*
X0009400Y0079373D01*
X0009400Y0076975D02*
X0133618Y0076975D01*
X0147200Y0072215D02*
X0222200Y0072215D01*
X0226500Y0072178D02*
X0237900Y0072178D01*
X0237900Y0074576D02*
X0226500Y0074576D01*
X0226500Y0076975D02*
X0237900Y0076975D01*
X0237900Y0079373D02*
X0226500Y0079373D01*
X0226500Y0081772D02*
X0230586Y0081772D01*
X0230204Y0081896D02*
X0230982Y0081643D01*
X0231791Y0081515D01*
X0232200Y0081515D01*
X0232609Y0081515D01*
X0233418Y0081643D01*
X0234196Y0081896D01*
X0234925Y0082268D01*
X0235588Y0082749D01*
X0236166Y0083327D01*
X0236647Y0083990D01*
X0237019Y0084719D01*
X0237272Y0085497D01*
X0237400Y0086306D01*
X0237400Y0089715D01*
X0237400Y0093124D01*
X0237272Y0093933D01*
X0237019Y0094711D01*
X0236647Y0095440D01*
X0236166Y0096103D01*
X0235588Y0096681D01*
X0234925Y0097162D01*
X0234196Y0097534D01*
X0233418Y0097787D01*
X0232609Y0097915D01*
X0232200Y0097915D01*
X0232200Y0089715D01*
X0232200Y0089715D01*
X0232200Y0097915D01*
X0231791Y0097915D01*
X0230982Y0097787D01*
X0230204Y0097534D01*
X0229475Y0097162D01*
X0228812Y0096681D01*
X0228234Y0096103D01*
X0227753Y0095440D01*
X0227381Y0094711D01*
X0227128Y0093933D01*
X0227000Y0093124D01*
X0227000Y0089715D01*
X0232200Y0089715D01*
X0237400Y0089715D01*
X0232200Y0089715D01*
X0232200Y0089715D01*
X0232200Y0089715D01*
X0227000Y0089715D01*
X0227000Y0086306D01*
X0227128Y0085497D01*
X0227381Y0084719D01*
X0227753Y0083990D01*
X0228234Y0083327D01*
X0228812Y0082749D01*
X0229475Y0082268D01*
X0230204Y0081896D01*
X0232200Y0081772D02*
X0232200Y0081772D01*
X0232200Y0081515D02*
X0232200Y0089715D01*
X0232200Y0089715D01*
X0232200Y0081515D01*
X0233814Y0081772D02*
X0237900Y0081772D01*
X0237900Y0084170D02*
X0236740Y0084170D01*
X0237400Y0086569D02*
X0237400Y0086569D01*
X0237400Y0088967D02*
X0237400Y0088967D01*
X0237400Y0091366D02*
X0237400Y0091366D01*
X0237439Y0093764D02*
X0237299Y0093764D01*
X0236106Y0096163D02*
X0238860Y0096163D01*
X0232200Y0096163D02*
X0232200Y0096163D01*
X0232200Y0093764D02*
X0232200Y0093764D01*
X0232200Y0091366D02*
X0232200Y0091366D01*
X0232200Y0088967D02*
X0232200Y0088967D01*
X0232200Y0086569D02*
X0232200Y0086569D01*
X0232200Y0084170D02*
X0232200Y0084170D01*
X0227660Y0084170D02*
X0226500Y0084170D01*
X0227000Y0086569D02*
X0227000Y0086569D01*
X0227000Y0088967D02*
X0227000Y0088967D01*
X0227000Y0091366D02*
X0227000Y0091366D01*
X0226961Y0093764D02*
X0227101Y0093764D01*
X0228294Y0096163D02*
X0225540Y0096163D01*
X0218860Y0096163D02*
X0205050Y0096163D01*
X0205050Y0097215D02*
X0205050Y0094999D01*
X0201983Y0091932D01*
X0204650Y0089265D01*
X0204650Y0085165D01*
X0201750Y0082265D01*
X0197650Y0082265D01*
X0194750Y0085165D01*
X0194750Y0089265D01*
X0197417Y0091932D01*
X0194350Y0094999D01*
X0194350Y0097215D01*
X0199700Y0097215D01*
X0199700Y0097215D01*
X0199700Y0107215D01*
X0205050Y0107215D01*
X0205050Y0109431D01*
X0201983Y0112498D01*
X0204650Y0115165D01*
X0204650Y0119265D01*
X0201750Y0122165D01*
X0197650Y0122165D01*
X0194750Y0119265D01*
X0194750Y0115165D01*
X0197417Y0112498D01*
X0194350Y0109431D01*
X0194350Y0107215D01*
X0199700Y0107215D01*
X0199700Y0107215D01*
X0199700Y0107215D01*
X0205050Y0107215D01*
X0205050Y0104999D01*
X0202266Y0102215D01*
X0205050Y0099431D01*
X0205050Y0097215D01*
X0199700Y0097215D01*
X0199700Y0102565D01*
X0199700Y0107215D01*
X0194350Y0107215D01*
X0194350Y0104999D01*
X0197134Y0102215D01*
X0194350Y0099431D01*
X0194350Y0097215D01*
X0199700Y0097215D01*
X0199700Y0097215D01*
X0199700Y0097215D01*
X0205050Y0097215D01*
X0205050Y0098561D02*
X0272465Y0098561D01*
X0270067Y0096163D02*
X0245540Y0096163D01*
X0246500Y0084170D02*
X0342200Y0084170D01*
X0342200Y0081772D02*
X0246500Y0081772D01*
X0246500Y0079373D02*
X0342200Y0079373D01*
X0342200Y0076975D02*
X0246500Y0076975D01*
X0246500Y0074576D02*
X0342200Y0074576D01*
X0342200Y0072178D02*
X0246500Y0072178D01*
X0246500Y0069779D02*
X0285997Y0069779D01*
X0283123Y0067381D02*
X0254600Y0067381D01*
X0252200Y0067381D02*
X0252200Y0067381D01*
X0252200Y0064982D02*
X0252200Y0064982D01*
X0252200Y0062584D02*
X0252200Y0062584D01*
X0252200Y0060185D02*
X0252200Y0060185D01*
X0257550Y0060185D02*
X0275928Y0060185D01*
X0278326Y0062584D02*
X0257550Y0062584D01*
X0256999Y0064982D02*
X0280725Y0064982D01*
X0286811Y0062584D02*
X0288506Y0062584D01*
X0304554Y0064982D02*
X0305845Y0064982D01*
X0305426Y0067381D02*
X0304911Y0067381D01*
X0304002Y0069779D02*
X0306420Y0069779D01*
X0313531Y0069779D02*
X0316420Y0069779D01*
X0315426Y0067381D02*
X0314526Y0067381D01*
X0314106Y0064982D02*
X0315845Y0064982D01*
X0321445Y0062584D02*
X0342200Y0062584D01*
X0342200Y0064982D02*
X0324106Y0064982D01*
X0324526Y0067381D02*
X0342200Y0067381D01*
X0342200Y0069779D02*
X0323531Y0069779D01*
X0342200Y0086569D02*
X0272635Y0086569D01*
X0275033Y0088967D02*
X0342200Y0088967D01*
X0342200Y0091366D02*
X0277432Y0091366D01*
X0279830Y0093764D02*
X0342200Y0093764D01*
X0342200Y0096163D02*
X0282229Y0096163D01*
X0284628Y0098561D02*
X0342200Y0098561D01*
X0342200Y0100960D02*
X0287026Y0100960D01*
X0289425Y0103358D02*
X0342200Y0103358D01*
X0342200Y0105757D02*
X0291823Y0105757D01*
X0294222Y0108155D02*
X0342200Y0108155D01*
X0342200Y0110554D02*
X0296166Y0110554D01*
X0296500Y0112952D02*
X0359331Y0112952D01*
X0359331Y0115351D02*
X0296500Y0115351D01*
X0296500Y0117749D02*
X0342438Y0117749D01*
X0343245Y0117415D02*
X0341481Y0118146D01*
X0340131Y0119496D01*
X0339400Y0121260D01*
X0339400Y0123170D01*
X0340131Y0124934D01*
X0341481Y0126284D01*
X0343245Y0127015D01*
X0351155Y0127015D01*
X0352919Y0126284D01*
X0354269Y0124934D01*
X0355000Y0123170D01*
X0355000Y0121260D01*
X0354269Y0119496D01*
X0352919Y0118146D01*
X0351155Y0117415D01*
X0343245Y0117415D01*
X0339861Y0120148D02*
X0296500Y0120148D01*
X0296500Y0122546D02*
X0339400Y0122546D01*
X0340142Y0124945D02*
X0296500Y0124945D01*
X0296500Y0127344D02*
X0359331Y0127344D01*
X0359331Y0129742D02*
X0354371Y0129742D01*
X0354269Y0129496D02*
X0355000Y0131260D01*
X0355000Y0133170D01*
X0354269Y0134934D01*
X0352919Y0136284D01*
X0351155Y0137015D01*
X0343245Y0137015D01*
X0341481Y0136284D01*
X0340131Y0134934D01*
X0339400Y0133170D01*
X0339400Y0131260D01*
X0340131Y0129496D01*
X0341481Y0128146D01*
X0343245Y0127415D01*
X0351155Y0127415D01*
X0352919Y0128146D01*
X0354269Y0129496D01*
X0355000Y0132141D02*
X0359331Y0132141D01*
X0359331Y0134539D02*
X0354433Y0134539D01*
X0352196Y0137396D02*
X0351418Y0137143D01*
X0350609Y0137015D01*
X0347200Y0137015D01*
X0347200Y0142215D01*
X0347200Y0142215D01*
X0347200Y0147415D01*
X0350609Y0147415D01*
X0351418Y0147287D01*
X0352196Y0147034D01*
X0352925Y0146662D01*
X0353588Y0146181D01*
X0354166Y0145603D01*
X0354647Y0144940D01*
X0355019Y0144211D01*
X0355272Y0143433D01*
X0355400Y0142624D01*
X0355400Y0142215D01*
X0347200Y0142215D01*
X0347200Y0147415D01*
X0343791Y0147415D01*
X0342982Y0147287D01*
X0342204Y0147034D01*
X0341475Y0146662D01*
X0340812Y0146181D01*
X0340234Y0145603D01*
X0339753Y0144940D01*
X0339381Y0144211D01*
X0339128Y0143433D01*
X0339000Y0142624D01*
X0339000Y0142215D01*
X0347200Y0142215D01*
X0347200Y0142215D01*
X0347200Y0142215D01*
X0355400Y0142215D01*
X0355400Y0141806D01*
X0355272Y0140997D01*
X0355019Y0140219D01*
X0354647Y0139490D01*
X0354166Y0138827D01*
X0353588Y0138249D01*
X0352925Y0137768D01*
X0352196Y0137396D01*
X0351342Y0136938D02*
X0359331Y0136938D01*
X0359331Y0139336D02*
X0354536Y0139336D01*
X0355389Y0141735D02*
X0359331Y0141735D01*
X0359331Y0144133D02*
X0355044Y0144133D01*
X0353105Y0146532D02*
X0359331Y0146532D01*
X0359331Y0148930D02*
X0353703Y0148930D01*
X0354269Y0149496D02*
X0355000Y0151260D01*
X0355000Y0153170D01*
X0354269Y0154934D01*
X0352919Y0156284D01*
X0351155Y0157015D01*
X0343245Y0157015D01*
X0341481Y0156284D01*
X0340131Y0154934D01*
X0339400Y0153170D01*
X0339400Y0151260D01*
X0340131Y0149496D01*
X0341481Y0148146D01*
X0343245Y0147415D01*
X0351155Y0147415D01*
X0352919Y0148146D01*
X0354269Y0149496D01*
X0355000Y0151329D02*
X0359331Y0151329D01*
X0359331Y0153727D02*
X0354769Y0153727D01*
X0353078Y0156126D02*
X0359331Y0156126D01*
X0359331Y0158524D02*
X0296500Y0158524D01*
X0296500Y0156126D02*
X0341322Y0156126D01*
X0339631Y0153727D02*
X0296500Y0153727D01*
X0296500Y0151329D02*
X0339400Y0151329D01*
X0340697Y0148930D02*
X0296500Y0148930D01*
X0296500Y0146532D02*
X0341295Y0146532D01*
X0339356Y0144133D02*
X0296500Y0144133D01*
X0296500Y0141735D02*
X0298065Y0141735D01*
X0298078Y0141747D02*
X0297668Y0141337D01*
X0297378Y0140836D01*
X0297228Y0140276D01*
X0297228Y0137215D01*
X0302200Y0137215D01*
X0302200Y0137215D01*
X0302200Y0142187D01*
X0305261Y0142187D01*
X0305821Y0142037D01*
X0306322Y0141747D01*
X0306732Y0141337D01*
X0307022Y0140836D01*
X0307172Y0140276D01*
X0307172Y0137215D01*
X0302200Y0137215D01*
X0302200Y0142187D01*
X0299139Y0142187D01*
X0298579Y0142037D01*
X0298078Y0141747D01*
X0297228Y0139336D02*
X0296772Y0139336D01*
X0297228Y0137215D02*
X0297228Y0134154D01*
X0297378Y0133594D01*
X0297668Y0133092D01*
X0298078Y0132683D01*
X0298579Y0132393D01*
X0299139Y0132243D01*
X0302200Y0132243D01*
X0302200Y0137215D01*
X0302200Y0137215D01*
X0302200Y0137215D01*
X0307172Y0137215D01*
X0307172Y0134154D01*
X0307022Y0133594D01*
X0306732Y0133092D01*
X0306322Y0132683D01*
X0305821Y0132393D01*
X0305261Y0132243D01*
X0302200Y0132243D01*
X0302200Y0137215D01*
X0302200Y0137215D01*
X0297228Y0137215D01*
X0297228Y0136938D02*
X0296772Y0136938D01*
X0296772Y0134539D02*
X0297228Y0134539D01*
X0296500Y0132141D02*
X0339400Y0132141D01*
X0339967Y0134539D02*
X0316772Y0134539D01*
X0316772Y0133698D02*
X0315717Y0132643D01*
X0308683Y0132643D01*
X0307628Y0133698D01*
X0307628Y0140732D01*
X0308683Y0141787D01*
X0315717Y0141787D01*
X0316772Y0140732D01*
X0316772Y0133698D01*
X0316772Y0136938D02*
X0343058Y0136938D01*
X0342982Y0137143D02*
X0343791Y0137015D01*
X0347200Y0137015D01*
X0347200Y0142215D01*
X0347200Y0142215D01*
X0339000Y0142215D01*
X0339000Y0141806D01*
X0339128Y0140997D01*
X0339381Y0140219D01*
X0339753Y0139490D01*
X0340234Y0138827D01*
X0340812Y0138249D01*
X0341475Y0137768D01*
X0342204Y0137396D01*
X0342982Y0137143D01*
X0339864Y0139336D02*
X0316772Y0139336D01*
X0315769Y0141735D02*
X0339011Y0141735D01*
X0347200Y0141735D02*
X0347200Y0141735D01*
X0347200Y0144133D02*
X0347200Y0144133D01*
X0347200Y0146532D02*
X0347200Y0146532D01*
X0347200Y0139336D02*
X0347200Y0139336D01*
X0340029Y0129742D02*
X0296500Y0129742D01*
X0302200Y0134539D02*
X0302200Y0134539D01*
X0302200Y0136938D02*
X0302200Y0136938D01*
X0302200Y0139336D02*
X0302200Y0139336D01*
X0302200Y0141735D02*
X0302200Y0141735D01*
X0306335Y0141735D02*
X0308631Y0141735D01*
X0307628Y0139336D02*
X0307172Y0139336D01*
X0307172Y0136938D02*
X0307628Y0136938D01*
X0307628Y0134539D02*
X0307172Y0134539D01*
X0287900Y0132141D02*
X0171600Y0132141D01*
X0171600Y0134539D02*
X0190113Y0134539D01*
X0190131Y0134496D02*
X0191481Y0133146D01*
X0193245Y0132415D01*
X0201155Y0132415D01*
X0202919Y0133146D01*
X0204269Y0134496D01*
X0205000Y0136260D01*
X0205000Y0138170D01*
X0204269Y0139934D01*
X0202919Y0141284D01*
X0201155Y0142015D01*
X0193245Y0142015D01*
X0191481Y0141284D01*
X0190131Y0139934D01*
X0189400Y0138170D01*
X0189400Y0136260D01*
X0190131Y0134496D01*
X0189400Y0136938D02*
X0171083Y0136938D01*
X0170930Y0137307D02*
X0169692Y0138545D01*
X0168075Y0139215D01*
X0166325Y0139215D01*
X0164708Y0138545D01*
X0163470Y0137307D01*
X0162800Y0135690D01*
X0162800Y0128740D01*
X0163470Y0127123D01*
X0164708Y0125885D01*
X0166325Y0125215D01*
X0168075Y0125215D01*
X0169692Y0125885D01*
X0170930Y0127123D01*
X0171600Y0128740D01*
X0171600Y0135690D01*
X0170930Y0137307D01*
X0163317Y0136938D02*
X0161083Y0136938D01*
X0160930Y0137307D02*
X0159692Y0138545D01*
X0158075Y0139215D01*
X0156325Y0139215D01*
X0154708Y0138545D01*
X0153470Y0137307D01*
X0152800Y0135690D01*
X0152800Y0128740D01*
X0153470Y0127123D01*
X0154708Y0125885D01*
X0156325Y0125215D01*
X0158075Y0125215D01*
X0159692Y0125885D01*
X0160930Y0127123D01*
X0161600Y0128740D01*
X0161600Y0135690D01*
X0160930Y0137307D01*
X0161600Y0134539D02*
X0162800Y0134539D01*
X0162800Y0132141D02*
X0161600Y0132141D01*
X0161600Y0129742D02*
X0162800Y0129742D01*
X0163378Y0127344D02*
X0161022Y0127344D01*
X0153378Y0127344D02*
X0151022Y0127344D01*
X0150930Y0127123D02*
X0151600Y0128740D01*
X0151600Y0135690D01*
X0150930Y0137307D01*
X0149692Y0138545D01*
X0148075Y0139215D01*
X0146325Y0139215D01*
X0145200Y0138749D01*
X0145200Y0155681D01*
X0146325Y0155215D01*
X0148075Y0155215D01*
X0149692Y0155885D01*
X0150930Y0157123D01*
X0151600Y0158740D01*
X0151600Y0165690D01*
X0150930Y0167307D01*
X0149692Y0168545D01*
X0148075Y0169215D01*
X0146325Y0169215D01*
X0145200Y0168749D01*
X0145200Y0170312D01*
X0144743Y0171414D01*
X0143899Y0172258D01*
X0140200Y0175958D01*
X0140200Y0186392D01*
X0140930Y0187123D01*
X0141600Y0188740D01*
X0141600Y0195690D01*
X0141176Y0196715D01*
X0143224Y0196715D01*
X0142800Y0195690D01*
X0142800Y0188740D01*
X0143470Y0187123D01*
X0144708Y0185885D01*
X0146325Y0185215D01*
X0148075Y0185215D01*
X0149692Y0185885D01*
X0150930Y0187123D01*
X0151600Y0188740D01*
X0151600Y0195690D01*
X0151176Y0196715D01*
X0153224Y0196715D01*
X0152800Y0195690D01*
X0152800Y0188740D01*
X0153470Y0187123D01*
X0154708Y0185885D01*
X0156325Y0185215D01*
X0158075Y0185215D01*
X0159692Y0185885D01*
X0160930Y0187123D01*
X0161600Y0188740D01*
X0161600Y0193572D01*
X0162800Y0192372D01*
X0162800Y0188740D01*
X0163470Y0187123D01*
X0164708Y0185885D01*
X0166325Y0185215D01*
X0168075Y0185215D01*
X0169692Y0185885D01*
X0170930Y0187123D01*
X0171600Y0188740D01*
X0171600Y0195690D01*
X0170930Y0197307D01*
X0169692Y0198545D01*
X0168075Y0199215D01*
X0166325Y0199215D01*
X0164994Y0198664D01*
X0161399Y0202258D01*
X0160297Y0202715D01*
X0114103Y0202715D01*
X0113001Y0202258D01*
X0112157Y0201414D01*
X0109657Y0198914D01*
X0109531Y0198612D01*
X0108075Y0199215D01*
X0106325Y0199215D01*
X0104708Y0198545D01*
X0103470Y0197307D01*
X0102800Y0195690D01*
X0102800Y0188740D01*
X0103470Y0187123D01*
X0104200Y0186392D01*
X0104200Y0183458D01*
X0094657Y0173914D01*
X0094200Y0172812D01*
X0094200Y0168038D01*
X0093470Y0167307D01*
X0092800Y0165690D01*
X0092800Y0158740D01*
X0093470Y0157123D01*
X0094708Y0155885D01*
X0096325Y0155215D01*
X0098075Y0155215D01*
X0099200Y0155681D01*
X0099200Y0150958D01*
X0094657Y0146414D01*
X0094200Y0145312D01*
X0094200Y0138037D01*
X0093470Y0137307D01*
X0092800Y0135690D01*
X0092800Y0128740D01*
X0093293Y0127550D01*
X0085957Y0120215D01*
X0082150Y0120215D01*
X0082150Y0124265D01*
X0079250Y0127165D01*
X0075150Y0127165D01*
X0072250Y0124265D01*
X0072250Y0120215D01*
X0062400Y0120215D01*
X0062400Y0122215D01*
X0062400Y0124369D01*
X0059354Y0127415D01*
X0057200Y0127415D01*
X0057200Y0122215D01*
X0057200Y0122215D01*
X0057200Y0127415D01*
X0055200Y0127415D01*
X0055200Y0143472D01*
X0060943Y0149215D01*
X0072797Y0149215D01*
X0073899Y0149672D01*
X0078899Y0154672D01*
X0079743Y0155516D01*
X0080040Y0156233D01*
X0080930Y0157123D01*
X0081600Y0158740D01*
X0081600Y0165690D01*
X0080930Y0167307D01*
X0079692Y0168545D01*
X0078075Y0169215D01*
X0076325Y0169215D01*
X0074708Y0168545D01*
X0073470Y0167307D01*
X0072800Y0165690D01*
X0072800Y0158740D01*
X0073293Y0157550D01*
X0070957Y0155215D01*
X0059443Y0155215D01*
X0059743Y0155516D01*
X0060040Y0156233D01*
X0060930Y0157123D01*
X0061600Y0158740D01*
X0061600Y0165690D01*
X0061176Y0166715D01*
X0063224Y0166715D01*
X0062800Y0165690D01*
X0062800Y0158740D01*
X0063470Y0157123D01*
X0064708Y0155885D01*
X0066325Y0155215D01*
X0068075Y0155215D01*
X0069692Y0155885D01*
X0070930Y0157123D01*
X0071600Y0158740D01*
X0071600Y0165690D01*
X0070930Y0167307D01*
X0070040Y0168197D01*
X0069743Y0168914D01*
X0068899Y0169758D01*
X0066399Y0172258D01*
X0065297Y0172715D01*
X0044103Y0172715D01*
X0043001Y0172258D01*
X0042157Y0171414D01*
X0039657Y0168914D01*
X0039531Y0168612D01*
X0038075Y0169215D01*
X0036325Y0169215D01*
X0034708Y0168545D01*
X0033470Y0167307D01*
X0032800Y0165690D01*
X0032800Y0158740D01*
X0033470Y0157123D01*
X0034708Y0155885D01*
X0036325Y0155215D01*
X0038075Y0155215D01*
X0039200Y0155681D01*
X0039200Y0127003D01*
X0039188Y0127015D01*
X0035212Y0127015D01*
X0032400Y0124203D01*
X0032400Y0120227D01*
X0035212Y0117415D01*
X0038157Y0117415D01*
X0037757Y0117015D01*
X0036245Y0117015D01*
X0034481Y0116284D01*
X0033131Y0114934D01*
X0032400Y0113170D01*
X0032400Y0111260D01*
X0033131Y0109496D01*
X0034481Y0108146D01*
X0036245Y0107415D01*
X0038155Y0107415D01*
X0039919Y0108146D01*
X0041269Y0109496D01*
X0042000Y0111260D01*
X0042000Y0112772D01*
X0042400Y0113172D01*
X0042400Y0110227D01*
X0045212Y0107415D01*
X0049188Y0107415D01*
X0052000Y0110227D01*
X0052000Y0112772D01*
X0052400Y0113172D01*
X0052400Y0110227D01*
X0055212Y0107415D01*
X0059188Y0107415D01*
X0062000Y0110227D01*
X0062000Y0112772D01*
X0063443Y0114215D01*
X0071850Y0114215D01*
X0071850Y0112215D01*
X0077200Y0112215D01*
X0082550Y0112215D01*
X0082550Y0114215D01*
X0087797Y0114215D01*
X0088899Y0114672D01*
X0089743Y0115516D01*
X0099743Y0125516D01*
X0100040Y0126233D01*
X0100930Y0127123D01*
X0101600Y0128740D01*
X0101600Y0135690D01*
X0100930Y0137307D01*
X0100200Y0138037D01*
X0100200Y0143472D01*
X0103899Y0147172D01*
X0104743Y0148016D01*
X0105200Y0149118D01*
X0105200Y0155247D01*
X0105357Y0155167D01*
X0106076Y0154933D01*
X0106822Y0154815D01*
X0107200Y0154815D01*
X0107578Y0154815D01*
X0108324Y0154933D01*
X0109043Y0155167D01*
X0109716Y0155510D01*
X0110327Y0155954D01*
X0110861Y0156488D01*
X0111305Y0157099D01*
X0111648Y0157772D01*
X0111882Y0158491D01*
X0112000Y0159237D01*
X0112000Y0162215D01*
X0112000Y0165193D01*
X0111882Y0165939D01*
X0111648Y0166658D01*
X0111305Y0167331D01*
X0110861Y0167942D01*
X0110327Y0168476D01*
X0109716Y0168920D01*
X0109043Y0169263D01*
X0108324Y0169497D01*
X0107578Y0169615D01*
X0107200Y0169615D01*
X0107200Y0162215D01*
X0107200Y0162215D01*
X0107200Y0169615D01*
X0106822Y0169615D01*
X0106252Y0169525D01*
X0113899Y0177172D01*
X0114743Y0178016D01*
X0115200Y0179118D01*
X0115200Y0185681D01*
X0116325Y0185215D01*
X0118075Y0185215D01*
X0119692Y0185885D01*
X0120930Y0187123D01*
X0121600Y0188740D01*
X0121600Y0195690D01*
X0121176Y0196715D01*
X0123224Y0196715D01*
X0122800Y0195690D01*
X0122800Y0188740D01*
X0123470Y0187123D01*
X0124708Y0185885D01*
X0126325Y0185215D01*
X0128075Y0185215D01*
X0129692Y0185885D01*
X0130930Y0187123D01*
X0131600Y0188740D01*
X0131600Y0195690D01*
X0131176Y0196715D01*
X0133224Y0196715D01*
X0132800Y0195690D01*
X0132800Y0188740D01*
X0133470Y0187123D01*
X0134200Y0186392D01*
X0134200Y0174118D01*
X0134657Y0173016D01*
X0138728Y0168945D01*
X0138075Y0169215D01*
X0136325Y0169215D01*
X0134708Y0168545D01*
X0133470Y0167307D01*
X0132800Y0165690D01*
X0132800Y0158740D01*
X0133470Y0157123D01*
X0134708Y0155885D01*
X0136325Y0155215D01*
X0138075Y0155215D01*
X0139200Y0155681D01*
X0139200Y0138749D01*
X0138075Y0139215D01*
X0136325Y0139215D01*
X0134708Y0138545D01*
X0133470Y0137307D01*
X0132800Y0135690D01*
X0132800Y0128740D01*
X0133470Y0127123D01*
X0134708Y0125885D01*
X0136325Y0125215D01*
X0138075Y0125215D01*
X0139692Y0125885D01*
X0140930Y0127123D01*
X0141600Y0128740D01*
X0141600Y0133572D01*
X0142800Y0132372D01*
X0142800Y0128740D01*
X0143470Y0127123D01*
X0144708Y0125885D01*
X0146325Y0125215D01*
X0148075Y0125215D01*
X0149692Y0125885D01*
X0150930Y0127123D01*
X0151600Y0129742D02*
X0152800Y0129742D01*
X0152800Y0132141D02*
X0151600Y0132141D01*
X0151600Y0134539D02*
X0152800Y0134539D01*
X0153317Y0136938D02*
X0151083Y0136938D01*
X0145200Y0139336D02*
X0189883Y0139336D01*
X0192568Y0141735D02*
X0145200Y0141735D01*
X0145200Y0144133D02*
X0190494Y0144133D01*
X0190131Y0144496D02*
X0191481Y0143146D01*
X0193245Y0142415D01*
X0201155Y0142415D01*
X0202919Y0143146D01*
X0204269Y0144496D01*
X0205000Y0146260D01*
X0205000Y0148170D01*
X0204269Y0149934D01*
X0202919Y0151284D01*
X0201155Y0152015D01*
X0193245Y0152015D01*
X0191481Y0151284D01*
X0190131Y0149934D01*
X0189400Y0148170D01*
X0189400Y0146260D01*
X0190131Y0144496D01*
X0189400Y0146532D02*
X0145200Y0146532D01*
X0145200Y0148930D02*
X0189715Y0148930D01*
X0191588Y0151329D02*
X0145200Y0151329D01*
X0145200Y0153727D02*
X0190334Y0153727D01*
X0190234Y0153827D02*
X0190812Y0153249D01*
X0191475Y0152768D01*
X0192204Y0152396D01*
X0192982Y0152143D01*
X0193791Y0152015D01*
X0197200Y0152015D01*
X0200609Y0152015D01*
X0201418Y0152143D01*
X0202196Y0152396D01*
X0202925Y0152768D01*
X0203588Y0153249D01*
X0204166Y0153827D01*
X0204647Y0154490D01*
X0205019Y0155219D01*
X0205272Y0155997D01*
X0205400Y0156806D01*
X0205400Y0157215D01*
X0205400Y0157624D01*
X0205272Y0158433D01*
X0205019Y0159211D01*
X0204711Y0159815D01*
X0209689Y0159815D01*
X0209381Y0159211D01*
X0209128Y0158433D01*
X0209000Y0157624D01*
X0209000Y0157215D01*
X0217200Y0157215D01*
X0225400Y0157215D01*
X0225400Y0157624D01*
X0225272Y0158433D01*
X0225019Y0159211D01*
X0224711Y0159815D01*
X0229689Y0159815D01*
X0229381Y0159211D01*
X0229128Y0158433D01*
X0229000Y0157624D01*
X0229000Y0157215D01*
X0237200Y0157215D01*
X0237200Y0157215D01*
X0237200Y0152015D01*
X0240609Y0152015D01*
X0241418Y0152143D01*
X0242196Y0152396D01*
X0242925Y0152768D01*
X0243588Y0153249D01*
X0243831Y0153492D01*
X0244164Y0152686D01*
X0244800Y0152051D01*
X0244800Y0148653D01*
X0244269Y0149934D01*
X0242919Y0151284D01*
X0241155Y0152015D01*
X0233245Y0152015D01*
X0231481Y0151284D01*
X0230131Y0149934D01*
X0229400Y0148170D01*
X0229400Y0146260D01*
X0230131Y0144496D01*
X0231481Y0143146D01*
X0233245Y0142415D01*
X0241155Y0142415D01*
X0242919Y0143146D01*
X0244269Y0144496D01*
X0244800Y0145777D01*
X0244800Y0144459D01*
X0242004Y0141663D01*
X0241155Y0142015D01*
X0233245Y0142015D01*
X0231481Y0141284D01*
X0230131Y0139934D01*
X0229400Y0138170D01*
X0229400Y0136260D01*
X0230131Y0134496D01*
X0231481Y0133146D01*
X0233245Y0132415D01*
X0241155Y0132415D01*
X0242919Y0133146D01*
X0244269Y0134496D01*
X0245000Y0136260D01*
X0245000Y0137871D01*
X0249235Y0142105D01*
X0249600Y0142988D01*
X0249600Y0145777D01*
X0250131Y0144496D01*
X0251481Y0143146D01*
X0253245Y0142415D01*
X0261155Y0142415D01*
X0262919Y0143146D01*
X0264269Y0144496D01*
X0265000Y0146260D01*
X0265000Y0148170D01*
X0264269Y0149934D01*
X0262919Y0151284D01*
X0261155Y0152015D01*
X0253245Y0152015D01*
X0251481Y0151284D01*
X0250131Y0149934D01*
X0249600Y0148653D01*
X0249600Y0152051D01*
X0250236Y0152686D01*
X0250569Y0153492D01*
X0250812Y0153249D01*
X0251475Y0152768D01*
X0252204Y0152396D01*
X0252982Y0152143D01*
X0253791Y0152015D01*
X0257200Y0152015D01*
X0260609Y0152015D01*
X0261418Y0152143D01*
X0262196Y0152396D01*
X0262925Y0152768D01*
X0263588Y0153249D01*
X0264166Y0153827D01*
X0264647Y0154490D01*
X0265019Y0155219D01*
X0265272Y0155997D01*
X0265362Y0156563D01*
X0265414Y0156436D01*
X0266050Y0155801D01*
X0266050Y0145709D01*
X0262004Y0141663D01*
X0261155Y0142015D01*
X0253245Y0142015D01*
X0251481Y0141284D01*
X0250131Y0139934D01*
X0249400Y0138170D01*
X0249400Y0136260D01*
X0250131Y0134496D01*
X0251481Y0133146D01*
X0253245Y0132415D01*
X0261155Y0132415D01*
X0262919Y0133146D01*
X0264269Y0134496D01*
X0265000Y0136260D01*
X0265000Y0137871D01*
X0270485Y0143355D01*
X0270850Y0144238D01*
X0270850Y0155801D01*
X0271486Y0156436D01*
X0272031Y0157753D01*
X0272031Y0159177D01*
X0271767Y0159815D01*
X0279536Y0159815D01*
X0280171Y0159179D01*
X0281488Y0158634D01*
X0282912Y0158634D01*
X0284229Y0159179D01*
X0285236Y0160186D01*
X0285781Y0161503D01*
X0285781Y0162927D01*
X0285236Y0164243D01*
X0284229Y0165251D01*
X0282912Y0165796D01*
X0281488Y0165796D01*
X0280781Y0165503D01*
X0280781Y0166677D01*
X0280236Y0167993D01*
X0279229Y0169001D01*
X0277912Y0169546D01*
X0276488Y0169546D01*
X0275171Y0169001D01*
X0274164Y0167993D01*
X0273800Y0167115D01*
X0175694Y0167115D01*
X0171059Y0171750D01*
X0170177Y0172115D01*
X0164223Y0172115D01*
X0163341Y0171750D01*
X0162665Y0171074D01*
X0159914Y0168323D01*
X0159692Y0168545D01*
X0158075Y0169215D01*
X0156325Y0169215D01*
X0154708Y0168545D01*
X0153470Y0167307D01*
X0152800Y0165690D01*
X0152800Y0158740D01*
X0153470Y0157123D01*
X0154708Y0155885D01*
X0156325Y0155215D01*
X0158075Y0155215D01*
X0159692Y0155885D01*
X0160930Y0157123D01*
X0161600Y0158740D01*
X0161600Y0163221D01*
X0162800Y0164421D01*
X0162800Y0158740D01*
X0163470Y0157123D01*
X0164708Y0155885D01*
X0166325Y0155215D01*
X0168075Y0155215D01*
X0169692Y0155885D01*
X0170930Y0157123D01*
X0171600Y0158740D01*
X0171600Y0159815D01*
X0189689Y0159815D01*
X0189381Y0159211D01*
X0189128Y0158433D01*
X0189000Y0157624D01*
X0189000Y0157215D01*
X0197200Y0157215D01*
X0205400Y0157215D01*
X0197200Y0157215D01*
X0197200Y0157215D01*
X0197200Y0157215D01*
X0197200Y0152015D01*
X0197200Y0157215D01*
X0197200Y0157215D01*
X0189000Y0157215D01*
X0189000Y0156806D01*
X0189128Y0155997D01*
X0189381Y0155219D01*
X0189753Y0154490D01*
X0190234Y0153827D01*
X0189108Y0156126D02*
X0169933Y0156126D01*
X0171511Y0158524D02*
X0189158Y0158524D01*
X0197200Y0156126D02*
X0197200Y0156126D01*
X0197200Y0153727D02*
X0197200Y0153727D01*
X0202812Y0151329D02*
X0211588Y0151329D01*
X0211481Y0151284D02*
X0210131Y0149934D01*
X0209400Y0148170D01*
X0209400Y0146260D01*
X0210131Y0144496D01*
X0211481Y0143146D01*
X0213245Y0142415D01*
X0221155Y0142415D01*
X0222919Y0143146D01*
X0224269Y0144496D01*
X0225000Y0146260D01*
X0225000Y0148170D01*
X0224269Y0149934D01*
X0222919Y0151284D01*
X0221155Y0152015D01*
X0213245Y0152015D01*
X0211481Y0151284D01*
X0212204Y0152396D02*
X0212982Y0152143D01*
X0213791Y0152015D01*
X0217200Y0152015D01*
X0220609Y0152015D01*
X0221418Y0152143D01*
X0222196Y0152396D01*
X0222925Y0152768D01*
X0223588Y0153249D01*
X0224166Y0153827D01*
X0224647Y0154490D01*
X0225019Y0155219D01*
X0225272Y0155997D01*
X0225400Y0156806D01*
X0225400Y0157215D01*
X0217200Y0157215D01*
X0217200Y0157215D01*
X0217200Y0157215D01*
X0217200Y0152015D01*
X0217200Y0157215D01*
X0217200Y0157215D01*
X0209000Y0157215D01*
X0209000Y0156806D01*
X0209128Y0155997D01*
X0209381Y0155219D01*
X0209753Y0154490D01*
X0210234Y0153827D01*
X0210812Y0153249D01*
X0211475Y0152768D01*
X0212204Y0152396D01*
X0210334Y0153727D02*
X0204066Y0153727D01*
X0205292Y0156126D02*
X0209108Y0156126D01*
X0209158Y0158524D02*
X0205242Y0158524D01*
X0217200Y0156126D02*
X0217200Y0156126D01*
X0217200Y0153727D02*
X0217200Y0153727D01*
X0222812Y0151329D02*
X0231588Y0151329D01*
X0232204Y0152396D02*
X0232982Y0152143D01*
X0233791Y0152015D01*
X0237200Y0152015D01*
X0237200Y0157215D01*
X0237200Y0157215D01*
X0229000Y0157215D01*
X0229000Y0156806D01*
X0229128Y0155997D01*
X0229381Y0155219D01*
X0229753Y0154490D01*
X0230234Y0153827D01*
X0230812Y0153249D01*
X0231475Y0152768D01*
X0232204Y0152396D01*
X0230334Y0153727D02*
X0224066Y0153727D01*
X0225292Y0156126D02*
X0229108Y0156126D01*
X0229158Y0158524D02*
X0225242Y0158524D01*
X0224685Y0148930D02*
X0229715Y0148930D01*
X0229400Y0146532D02*
X0225000Y0146532D01*
X0223906Y0144133D02*
X0230494Y0144133D01*
X0232568Y0141735D02*
X0221832Y0141735D01*
X0221155Y0142015D02*
X0222919Y0141284D01*
X0224269Y0139934D01*
X0225000Y0138170D01*
X0225000Y0136260D01*
X0224269Y0134496D01*
X0222919Y0133146D01*
X0221155Y0132415D01*
X0213245Y0132415D01*
X0211481Y0133146D01*
X0210131Y0134496D01*
X0209400Y0136260D01*
X0209400Y0138170D01*
X0210131Y0139934D01*
X0211481Y0141284D01*
X0213245Y0142015D01*
X0221155Y0142015D01*
X0224517Y0139336D02*
X0229883Y0139336D01*
X0229400Y0136938D02*
X0225000Y0136938D01*
X0224287Y0134539D02*
X0230113Y0134539D01*
X0241832Y0141735D02*
X0242076Y0141735D01*
X0243906Y0144133D02*
X0244474Y0144133D01*
X0248864Y0141735D02*
X0252568Y0141735D01*
X0250494Y0144133D02*
X0249600Y0144133D01*
X0249600Y0148930D02*
X0249715Y0148930D01*
X0249600Y0151329D02*
X0251588Y0151329D01*
X0257200Y0152015D02*
X0257200Y0157215D01*
X0257200Y0152015D01*
X0257200Y0153727D02*
X0257200Y0153727D01*
X0257200Y0156126D02*
X0257200Y0156126D01*
X0257200Y0157215D02*
X0257200Y0157215D01*
X0264066Y0153727D02*
X0266050Y0153727D01*
X0266050Y0151329D02*
X0262812Y0151329D01*
X0264685Y0148930D02*
X0266050Y0148930D01*
X0266050Y0146532D02*
X0265000Y0146532D01*
X0264474Y0144133D02*
X0263906Y0144133D01*
X0262076Y0141735D02*
X0261832Y0141735D01*
X0266465Y0139336D02*
X0287628Y0139336D01*
X0287628Y0136938D02*
X0265000Y0136938D01*
X0264287Y0134539D02*
X0287628Y0134539D01*
X0287900Y0129742D02*
X0171600Y0129742D01*
X0171022Y0127344D02*
X0287900Y0127344D01*
X0287900Y0124945D02*
X0099173Y0124945D01*
X0097200Y0127215D02*
X0087200Y0117215D01*
X0062200Y0117215D01*
X0057200Y0112215D01*
X0057200Y0117015D02*
X0055200Y0117015D01*
X0055200Y0117003D01*
X0055212Y0117015D01*
X0057757Y0117015D01*
X0057757Y0117015D01*
X0057200Y0117015D01*
X0057200Y0122215D01*
X0062400Y0122215D01*
X0057200Y0122215D01*
X0057200Y0122215D01*
X0057200Y0122215D01*
X0057200Y0117015D01*
X0057200Y0117749D02*
X0057200Y0117749D01*
X0057200Y0120148D02*
X0057200Y0120148D01*
X0057200Y0122546D02*
X0057200Y0122546D01*
X0057200Y0124945D02*
X0057200Y0124945D01*
X0057200Y0127344D02*
X0057200Y0127344D01*
X0059425Y0127344D02*
X0083378Y0127344D01*
X0083470Y0127123D02*
X0082800Y0128740D01*
X0082800Y0135690D01*
X0083470Y0137307D01*
X0084200Y0138038D01*
X0084200Y0156392D01*
X0083470Y0157123D01*
X0082800Y0158740D01*
X0082800Y0165690D01*
X0083470Y0167307D01*
X0084708Y0168545D01*
X0086325Y0169215D01*
X0088075Y0169215D01*
X0089692Y0168545D01*
X0090930Y0167307D01*
X0091600Y0165690D01*
X0091600Y0158740D01*
X0090930Y0157123D01*
X0090200Y0156392D01*
X0090200Y0138038D01*
X0090930Y0137307D01*
X0091600Y0135690D01*
X0091600Y0128740D01*
X0090930Y0127123D01*
X0089692Y0125885D01*
X0088075Y0125215D01*
X0086325Y0125215D01*
X0084708Y0125885D01*
X0083470Y0127123D01*
X0082800Y0129742D02*
X0055200Y0129742D01*
X0055200Y0132141D02*
X0082800Y0132141D01*
X0082800Y0134539D02*
X0055200Y0134539D01*
X0055200Y0136938D02*
X0083317Y0136938D01*
X0084200Y0139336D02*
X0055200Y0139336D01*
X0055200Y0141735D02*
X0084200Y0141735D01*
X0084200Y0144133D02*
X0055861Y0144133D01*
X0058259Y0146532D02*
X0084200Y0146532D01*
X0084200Y0148930D02*
X0060658Y0148930D01*
X0059700Y0152215D02*
X0072200Y0152215D01*
X0077200Y0157215D01*
X0077200Y0162215D01*
X0072800Y0163321D02*
X0071600Y0163321D01*
X0071600Y0160923D02*
X0072800Y0160923D01*
X0072889Y0158524D02*
X0071511Y0158524D01*
X0071868Y0156126D02*
X0069933Y0156126D01*
X0064467Y0156126D02*
X0059996Y0156126D01*
X0061511Y0158524D02*
X0062889Y0158524D01*
X0062800Y0160923D02*
X0061600Y0160923D01*
X0061600Y0163321D02*
X0062800Y0163321D01*
X0062812Y0165720D02*
X0061588Y0165720D01*
X0064700Y0169715D02*
X0067200Y0167215D01*
X0067200Y0162215D01*
X0071588Y0165720D02*
X0072812Y0165720D01*
X0074281Y0168118D02*
X0070119Y0168118D01*
X0068141Y0170517D02*
X0094200Y0170517D01*
X0094243Y0172915D02*
X0009400Y0172915D01*
X0009400Y0170517D02*
X0041259Y0170517D01*
X0042200Y0167215D02*
X0044700Y0169715D01*
X0064700Y0169715D01*
X0057200Y0162215D02*
X0057200Y0157215D01*
X0047200Y0147215D01*
X0047200Y0122215D01*
X0042200Y0117215D02*
X0042200Y0167215D01*
X0034281Y0168118D02*
X0009400Y0168118D01*
X0009400Y0165720D02*
X0032812Y0165720D01*
X0032800Y0163321D02*
X0009400Y0163321D01*
X0009400Y0160923D02*
X0032800Y0160923D01*
X0032889Y0158524D02*
X0009400Y0158524D01*
X0009400Y0156126D02*
X0024888Y0156126D01*
X0025377Y0156615D02*
X0022800Y0154037D01*
X0022800Y0150392D01*
X0025377Y0147815D01*
X0029023Y0147815D01*
X0031600Y0150392D01*
X0031600Y0154037D01*
X0029023Y0156615D01*
X0025377Y0156615D01*
X0022800Y0153727D02*
X0009400Y0153727D01*
X0009400Y0151329D02*
X0022800Y0151329D01*
X0024262Y0148930D02*
X0009400Y0148930D01*
X0009400Y0146532D02*
X0025294Y0146532D01*
X0025377Y0146615D02*
X0022800Y0144037D01*
X0022800Y0140392D01*
X0025377Y0137815D01*
X0029023Y0137815D01*
X0031600Y0140392D01*
X0031600Y0144037D01*
X0029023Y0146615D01*
X0025377Y0146615D01*
X0022896Y0144133D02*
X0009400Y0144133D01*
X0009400Y0141735D02*
X0022800Y0141735D01*
X0023856Y0139336D02*
X0009400Y0139336D01*
X0009400Y0136938D02*
X0039200Y0136938D01*
X0039200Y0139336D02*
X0030544Y0139336D01*
X0031600Y0141735D02*
X0039200Y0141735D01*
X0039200Y0144133D02*
X0031504Y0144133D01*
X0029106Y0146532D02*
X0039200Y0146532D01*
X0039200Y0148930D02*
X0030138Y0148930D01*
X0031600Y0151329D02*
X0039200Y0151329D01*
X0039200Y0153727D02*
X0031600Y0153727D01*
X0029512Y0156126D02*
X0034467Y0156126D01*
X0052200Y0144715D02*
X0059700Y0152215D01*
X0052200Y0144715D02*
X0052200Y0117215D01*
X0047200Y0112215D01*
X0042400Y0112952D02*
X0042180Y0112952D01*
X0042400Y0110554D02*
X0041707Y0110554D01*
X0039929Y0108155D02*
X0044471Y0108155D01*
X0049929Y0108155D02*
X0054471Y0108155D01*
X0052400Y0110554D02*
X0052000Y0110554D01*
X0052180Y0112952D02*
X0052400Y0112952D01*
X0059929Y0108155D02*
X0073694Y0108155D01*
X0074984Y0106865D02*
X0071850Y0109999D01*
X0071850Y0112215D01*
X0077200Y0112215D01*
X0077200Y0112215D01*
X0077200Y0112215D01*
X0082550Y0112215D01*
X0082550Y0109999D01*
X0079416Y0106865D01*
X0077200Y0106865D01*
X0077200Y0112215D01*
X0077200Y0112215D01*
X0077200Y0106865D01*
X0074984Y0106865D01*
X0075377Y0106615D02*
X0072800Y0104037D01*
X0072800Y0100392D01*
X0075377Y0097815D01*
X0079023Y0097815D01*
X0081600Y0100392D01*
X0081600Y0104037D01*
X0079023Y0106615D01*
X0075377Y0106615D01*
X0074519Y0105757D02*
X0039881Y0105757D01*
X0039023Y0106615D02*
X0035377Y0106615D01*
X0032800Y0104037D01*
X0032800Y0100392D01*
X0035377Y0097815D01*
X0039023Y0097815D01*
X0041600Y0100392D01*
X0041600Y0104037D01*
X0039023Y0106615D01*
X0041600Y0103358D02*
X0072800Y0103358D01*
X0072800Y0100960D02*
X0041600Y0100960D01*
X0039769Y0098561D02*
X0074631Y0098561D01*
X0079769Y0098561D02*
X0082874Y0098561D01*
X0082800Y0098740D02*
X0083470Y0097123D01*
X0084708Y0095885D01*
X0086325Y0095215D01*
X0088075Y0095215D01*
X0089692Y0095885D01*
X0090930Y0097123D01*
X0091600Y0098740D01*
X0091600Y0105690D01*
X0090930Y0107307D01*
X0089692Y0108545D01*
X0088075Y0109215D01*
X0086325Y0109215D01*
X0084708Y0108545D01*
X0083470Y0107307D01*
X0082800Y0105690D01*
X0082800Y0098740D01*
X0082800Y0100960D02*
X0081600Y0100960D01*
X0081600Y0103358D02*
X0082800Y0103358D01*
X0082828Y0105757D02*
X0079881Y0105757D01*
X0080706Y0108155D02*
X0084318Y0108155D01*
X0082550Y0110554D02*
X0180418Y0110554D01*
X0180300Y0110840D02*
X0180970Y0109223D01*
X0182208Y0107985D01*
X0183825Y0107315D01*
X0185575Y0107315D01*
X0187192Y0107985D01*
X0188430Y0109223D01*
X0189100Y0110840D01*
X0189100Y0112590D01*
X0188430Y0114207D01*
X0187192Y0115445D01*
X0185575Y0116115D01*
X0183825Y0116115D01*
X0182208Y0115445D01*
X0180970Y0114207D01*
X0180300Y0112590D01*
X0180300Y0110840D01*
X0180450Y0112952D02*
X0082550Y0112952D01*
X0077200Y0110554D02*
X0077200Y0110554D01*
X0077200Y0108155D02*
X0077200Y0108155D01*
X0071850Y0110554D02*
X0062000Y0110554D01*
X0062180Y0112952D02*
X0071850Y0112952D01*
X0072250Y0122546D02*
X0062400Y0122546D01*
X0061824Y0124945D02*
X0072930Y0124945D01*
X0081470Y0124945D02*
X0090687Y0124945D01*
X0091022Y0127344D02*
X0093086Y0127344D01*
X0092800Y0129742D02*
X0091600Y0129742D01*
X0091600Y0132141D02*
X0092800Y0132141D01*
X0092800Y0134539D02*
X0091600Y0134539D01*
X0091083Y0136938D02*
X0093317Y0136938D01*
X0094200Y0139336D02*
X0090200Y0139336D01*
X0090200Y0141735D02*
X0094200Y0141735D01*
X0094200Y0144133D02*
X0090200Y0144133D01*
X0090200Y0146532D02*
X0094774Y0146532D01*
X0097200Y0144715D02*
X0102200Y0149715D01*
X0102200Y0169715D01*
X0112200Y0179715D01*
X0112200Y0197215D01*
X0114700Y0199715D01*
X0159700Y0199715D01*
X0167200Y0192215D01*
X0171600Y0192103D02*
X0193233Y0192103D01*
X0193245Y0192015D02*
X0191481Y0191284D01*
X0190131Y0189934D01*
X0189400Y0188170D01*
X0189400Y0186260D01*
X0190081Y0184615D01*
X0186723Y0184615D01*
X0185841Y0184250D01*
X0185165Y0183574D01*
X0184887Y0183296D01*
X0183988Y0183296D01*
X0182671Y0182751D01*
X0181664Y0181743D01*
X0181119Y0180427D01*
X0181119Y0179003D01*
X0181664Y0177686D01*
X0182236Y0177115D01*
X0181114Y0177115D01*
X0180479Y0177751D01*
X0179162Y0178296D01*
X0177738Y0178296D01*
X0176421Y0177751D01*
X0175414Y0176743D01*
X0174869Y0175427D01*
X0174869Y0174003D01*
X0175414Y0172686D01*
X0176421Y0171679D01*
X0177738Y0171134D01*
X0179162Y0171134D01*
X0180479Y0171679D01*
X0181114Y0172315D01*
X0185177Y0172315D01*
X0186059Y0172680D01*
X0188194Y0174815D01*
X0189999Y0174815D01*
X0190131Y0174496D01*
X0191481Y0173146D01*
X0193245Y0172415D01*
X0201155Y0172415D01*
X0202919Y0173146D01*
X0204269Y0174496D01*
X0205000Y0176260D01*
X0205000Y0178170D01*
X0204319Y0179815D01*
X0210081Y0179815D01*
X0209400Y0178170D01*
X0209400Y0176260D01*
X0210131Y0174496D01*
X0211481Y0173146D01*
X0213245Y0172415D01*
X0221155Y0172415D01*
X0222919Y0173146D01*
X0224269Y0174496D01*
X0225000Y0176260D01*
X0225000Y0178170D01*
X0224319Y0179815D01*
X0230081Y0179815D01*
X0229400Y0178170D01*
X0229400Y0176260D01*
X0230131Y0174496D01*
X0231481Y0173146D01*
X0233245Y0172415D01*
X0241155Y0172415D01*
X0242919Y0173146D01*
X0244269Y0174496D01*
X0245000Y0176260D01*
X0245000Y0178170D01*
X0244269Y0179934D01*
X0242919Y0181284D01*
X0241155Y0182015D01*
X0235794Y0182015D01*
X0235394Y0182415D01*
X0241155Y0182415D01*
X0242919Y0183146D01*
X0244269Y0184496D01*
X0245000Y0186260D01*
X0245000Y0188170D01*
X0244269Y0189934D01*
X0242919Y0191284D01*
X0241155Y0192015D01*
X0233245Y0192015D01*
X0231481Y0191284D01*
X0230131Y0189934D01*
X0229400Y0188170D01*
X0229400Y0186260D01*
X0230081Y0184615D01*
X0224319Y0184615D01*
X0225000Y0186260D01*
X0225000Y0188170D01*
X0224269Y0189934D01*
X0222919Y0191284D01*
X0221155Y0192015D01*
X0213245Y0192015D01*
X0211481Y0191284D01*
X0210131Y0189934D01*
X0209400Y0188170D01*
X0209400Y0186260D01*
X0210081Y0184615D01*
X0204319Y0184615D01*
X0205000Y0186260D01*
X0205000Y0188170D01*
X0204269Y0189934D01*
X0202919Y0191284D01*
X0201155Y0192015D01*
X0193245Y0192015D01*
X0192982Y0192143D02*
X0193791Y0192015D01*
X0197200Y0192015D01*
X0200609Y0192015D01*
X0201418Y0192143D01*
X0202196Y0192396D01*
X0202925Y0192768D01*
X0203588Y0193249D01*
X0204166Y0193827D01*
X0204647Y0194490D01*
X0205019Y0195219D01*
X0205272Y0195997D01*
X0205400Y0196806D01*
X0205400Y0197215D01*
X0205400Y0197624D01*
X0205272Y0198433D01*
X0205019Y0199211D01*
X0204647Y0199940D01*
X0204166Y0200603D01*
X0203588Y0201181D01*
X0202925Y0201662D01*
X0202196Y0202034D01*
X0201418Y0202287D01*
X0200609Y0202415D01*
X0197200Y0202415D01*
X0197200Y0197215D01*
X0197200Y0197215D01*
X0197200Y0202415D01*
X0193791Y0202415D01*
X0192982Y0202287D01*
X0192204Y0202034D01*
X0191475Y0201662D01*
X0190812Y0201181D01*
X0190234Y0200603D01*
X0189753Y0199940D01*
X0189381Y0199211D01*
X0189128Y0198433D01*
X0189000Y0197624D01*
X0189000Y0197215D01*
X0197200Y0197215D01*
X0205400Y0197215D01*
X0197200Y0197215D01*
X0197200Y0197215D01*
X0197200Y0197215D01*
X0197200Y0192015D01*
X0197200Y0197215D01*
X0197200Y0197215D01*
X0189000Y0197215D01*
X0189000Y0196806D01*
X0189128Y0195997D01*
X0189381Y0195219D01*
X0189753Y0194490D01*
X0190234Y0193827D01*
X0190812Y0193249D01*
X0191475Y0192768D01*
X0192204Y0192396D01*
X0192982Y0192143D01*
X0190036Y0189705D02*
X0171600Y0189705D01*
X0171006Y0187306D02*
X0189400Y0187306D01*
X0189960Y0184908D02*
X0140200Y0184908D01*
X0140200Y0182509D02*
X0182430Y0182509D01*
X0181119Y0180111D02*
X0140200Y0180111D01*
X0140200Y0177712D02*
X0176383Y0177712D01*
X0174869Y0175314D02*
X0140844Y0175314D01*
X0143242Y0172915D02*
X0175319Y0172915D01*
X0172292Y0170517D02*
X0287900Y0170517D01*
X0287900Y0172915D02*
X0262362Y0172915D01*
X0262919Y0173146D02*
X0264269Y0174496D01*
X0265000Y0176260D01*
X0265000Y0178170D01*
X0264269Y0179934D01*
X0262919Y0181284D01*
X0261155Y0182015D01*
X0253245Y0182015D01*
X0251481Y0181284D01*
X0250131Y0179934D01*
X0249400Y0178170D01*
X0249400Y0176260D01*
X0250131Y0174496D01*
X0251481Y0173146D01*
X0253245Y0172415D01*
X0261155Y0172415D01*
X0262919Y0173146D01*
X0264608Y0175314D02*
X0287628Y0175314D01*
X0287628Y0177712D02*
X0265000Y0177712D01*
X0264092Y0180111D02*
X0287628Y0180111D01*
X0287900Y0182509D02*
X0261382Y0182509D01*
X0261155Y0182415D02*
X0262919Y0183146D01*
X0264269Y0184496D01*
X0265000Y0186260D01*
X0265000Y0188170D01*
X0264269Y0189934D01*
X0262919Y0191284D01*
X0261155Y0192015D01*
X0253245Y0192015D01*
X0251481Y0191284D01*
X0250131Y0189934D01*
X0249400Y0188170D01*
X0249400Y0186260D01*
X0250131Y0184496D01*
X0251481Y0183146D01*
X0253245Y0182415D01*
X0261155Y0182415D01*
X0264440Y0184908D02*
X0287900Y0184908D01*
X0287900Y0187306D02*
X0265000Y0187306D01*
X0264364Y0189705D02*
X0287900Y0189705D01*
X0287900Y0192103D02*
X0261167Y0192103D01*
X0261418Y0192143D02*
X0262196Y0192396D01*
X0262925Y0192768D01*
X0263588Y0193249D01*
X0264166Y0193827D01*
X0264647Y0194490D01*
X0265019Y0195219D01*
X0265272Y0195997D01*
X0265400Y0196806D01*
X0265400Y0197215D01*
X0265400Y0197624D01*
X0265272Y0198433D01*
X0265019Y0199211D01*
X0264647Y0199940D01*
X0264166Y0200603D01*
X0263588Y0201181D01*
X0262925Y0201662D01*
X0262196Y0202034D01*
X0261418Y0202287D01*
X0260609Y0202415D01*
X0257200Y0202415D01*
X0257200Y0197215D01*
X0257200Y0197215D01*
X0257200Y0202415D01*
X0253791Y0202415D01*
X0252982Y0202287D01*
X0252204Y0202034D01*
X0251475Y0201662D01*
X0250812Y0201181D01*
X0250234Y0200603D01*
X0249753Y0199940D01*
X0249381Y0199211D01*
X0249128Y0198433D01*
X0249000Y0197624D01*
X0249000Y0197215D01*
X0257200Y0197215D01*
X0265400Y0197215D01*
X0257200Y0197215D01*
X0257200Y0197215D01*
X0257200Y0197215D01*
X0257200Y0192015D01*
X0260609Y0192015D01*
X0261418Y0192143D01*
X0264654Y0194502D02*
X0287900Y0194502D01*
X0287900Y0196900D02*
X0265400Y0196900D01*
X0264974Y0199299D02*
X0287900Y0199299D01*
X0287900Y0201697D02*
X0262857Y0201697D01*
X0257200Y0201697D02*
X0257200Y0201697D01*
X0257200Y0199299D02*
X0257200Y0199299D01*
X0257200Y0197215D02*
X0249000Y0197215D01*
X0249000Y0196806D01*
X0249128Y0195997D01*
X0249381Y0195219D01*
X0249753Y0194490D01*
X0250234Y0193827D01*
X0250812Y0193249D01*
X0251475Y0192768D01*
X0252204Y0192396D01*
X0252982Y0192143D01*
X0253791Y0192015D01*
X0257200Y0192015D01*
X0257200Y0197215D01*
X0257200Y0197215D01*
X0257200Y0196900D02*
X0257200Y0196900D01*
X0257200Y0194502D02*
X0257200Y0194502D01*
X0257200Y0192103D02*
X0257200Y0192103D01*
X0253233Y0192103D02*
X0241167Y0192103D01*
X0241418Y0192143D02*
X0242196Y0192396D01*
X0242925Y0192768D01*
X0243588Y0193249D01*
X0244166Y0193827D01*
X0244647Y0194490D01*
X0245019Y0195219D01*
X0245272Y0195997D01*
X0245400Y0196806D01*
X0245400Y0197215D01*
X0245400Y0197624D01*
X0245272Y0198433D01*
X0245019Y0199211D01*
X0244647Y0199940D01*
X0244166Y0200603D01*
X0243588Y0201181D01*
X0242925Y0201662D01*
X0242196Y0202034D01*
X0241418Y0202287D01*
X0240609Y0202415D01*
X0237200Y0202415D01*
X0237200Y0197215D01*
X0237200Y0197215D01*
X0237200Y0202415D01*
X0233791Y0202415D01*
X0232982Y0202287D01*
X0232204Y0202034D01*
X0231475Y0201662D01*
X0230812Y0201181D01*
X0230234Y0200603D01*
X0229753Y0199940D01*
X0229381Y0199211D01*
X0229128Y0198433D01*
X0229000Y0197624D01*
X0229000Y0197215D01*
X0237200Y0197215D01*
X0245400Y0197215D01*
X0237200Y0197215D01*
X0237200Y0197215D01*
X0237200Y0197215D01*
X0237200Y0192015D01*
X0240609Y0192015D01*
X0241418Y0192143D01*
X0244364Y0189705D02*
X0250036Y0189705D01*
X0249400Y0187306D02*
X0245000Y0187306D01*
X0244440Y0184908D02*
X0249960Y0184908D01*
X0253018Y0182509D02*
X0241382Y0182509D01*
X0244092Y0180111D02*
X0250308Y0180111D01*
X0249400Y0177712D02*
X0245000Y0177712D01*
X0244608Y0175314D02*
X0249792Y0175314D01*
X0252037Y0172915D02*
X0242362Y0172915D01*
X0232037Y0172915D02*
X0222362Y0172915D01*
X0224608Y0175314D02*
X0229792Y0175314D01*
X0229400Y0177712D02*
X0225000Y0177712D01*
X0224440Y0184908D02*
X0229960Y0184908D01*
X0229400Y0187306D02*
X0225000Y0187306D01*
X0224364Y0189705D02*
X0230036Y0189705D01*
X0231475Y0192768D02*
X0232204Y0192396D01*
X0232982Y0192143D01*
X0233791Y0192015D01*
X0237200Y0192015D01*
X0237200Y0197215D01*
X0237200Y0197215D01*
X0229000Y0197215D01*
X0229000Y0196806D01*
X0229128Y0195997D01*
X0229381Y0195219D01*
X0229753Y0194490D01*
X0230234Y0193827D01*
X0230812Y0193249D01*
X0231475Y0192768D01*
X0233233Y0192103D02*
X0221167Y0192103D01*
X0221418Y0192143D02*
X0222196Y0192396D01*
X0222925Y0192768D01*
X0223588Y0193249D01*
X0224166Y0193827D01*
X0224647Y0194490D01*
X0225019Y0195219D01*
X0225272Y0195997D01*
X0225400Y0196806D01*
X0225400Y0197215D01*
X0225400Y0197624D01*
X0225272Y0198433D01*
X0225019Y0199211D01*
X0224647Y0199940D01*
X0224166Y0200603D01*
X0223588Y0201181D01*
X0222925Y0201662D01*
X0222196Y0202034D01*
X0221418Y0202287D01*
X0220609Y0202415D01*
X0217200Y0202415D01*
X0217200Y0197215D01*
X0217200Y0197215D01*
X0217200Y0202415D01*
X0213791Y0202415D01*
X0212982Y0202287D01*
X0212204Y0202034D01*
X0211475Y0201662D01*
X0210812Y0201181D01*
X0210234Y0200603D01*
X0209753Y0199940D01*
X0209381Y0199211D01*
X0209128Y0198433D01*
X0209000Y0197624D01*
X0209000Y0197215D01*
X0217200Y0197215D01*
X0225400Y0197215D01*
X0217200Y0197215D01*
X0217200Y0197215D01*
X0217200Y0197215D01*
X0217200Y0192015D01*
X0220609Y0192015D01*
X0221418Y0192143D01*
X0224654Y0194502D02*
X0229746Y0194502D01*
X0229000Y0196900D02*
X0225400Y0196900D01*
X0224974Y0199299D02*
X0229426Y0199299D01*
X0231543Y0201697D02*
X0222857Y0201697D01*
X0217200Y0201697D02*
X0217200Y0201697D01*
X0217200Y0199299D02*
X0217200Y0199299D01*
X0217200Y0197215D02*
X0209000Y0197215D01*
X0209000Y0196806D01*
X0209128Y0195997D01*
X0209381Y0195219D01*
X0209753Y0194490D01*
X0210234Y0193827D01*
X0210812Y0193249D01*
X0211475Y0192768D01*
X0212204Y0192396D01*
X0212982Y0192143D01*
X0213791Y0192015D01*
X0217200Y0192015D01*
X0217200Y0197215D01*
X0217200Y0197215D01*
X0217200Y0196900D02*
X0217200Y0196900D01*
X0217200Y0194502D02*
X0217200Y0194502D01*
X0217200Y0192103D02*
X0217200Y0192103D01*
X0213233Y0192103D02*
X0201167Y0192103D01*
X0197200Y0192103D02*
X0197200Y0192103D01*
X0197200Y0194502D02*
X0197200Y0194502D01*
X0197200Y0196900D02*
X0197200Y0196900D01*
X0197200Y0199299D02*
X0197200Y0199299D01*
X0197200Y0201697D02*
X0197200Y0201697D01*
X0202857Y0201697D02*
X0211543Y0201697D01*
X0209426Y0199299D02*
X0204974Y0199299D01*
X0205400Y0196900D02*
X0209000Y0196900D01*
X0209746Y0194502D02*
X0204654Y0194502D01*
X0204364Y0189705D02*
X0210036Y0189705D01*
X0209400Y0187306D02*
X0205000Y0187306D01*
X0204440Y0184908D02*
X0209960Y0184908D01*
X0209400Y0177712D02*
X0205000Y0177712D01*
X0204608Y0175314D02*
X0209792Y0175314D01*
X0212037Y0172915D02*
X0202362Y0172915D01*
X0192037Y0172915D02*
X0186294Y0172915D01*
X0181653Y0177712D02*
X0180517Y0177712D01*
X0174691Y0168118D02*
X0274289Y0168118D01*
X0280111Y0168118D02*
X0287900Y0168118D01*
X0287900Y0165720D02*
X0283097Y0165720D01*
X0281303Y0165720D02*
X0280781Y0165720D01*
X0285618Y0163321D02*
X0287900Y0163321D01*
X0287900Y0160923D02*
X0285541Y0160923D01*
X0287900Y0158524D02*
X0272031Y0158524D01*
X0271175Y0156126D02*
X0287900Y0156126D01*
X0287900Y0153727D02*
X0270850Y0153727D01*
X0270850Y0151329D02*
X0287900Y0151329D01*
X0287900Y0148930D02*
X0270850Y0148930D01*
X0270850Y0146532D02*
X0287900Y0146532D01*
X0287900Y0144133D02*
X0270807Y0144133D01*
X0268864Y0141735D02*
X0287900Y0141735D01*
X0265725Y0156126D02*
X0265292Y0156126D01*
X0244800Y0151329D02*
X0242812Y0151329D01*
X0244685Y0148930D02*
X0244800Y0148930D01*
X0237200Y0153727D02*
X0237200Y0153727D01*
X0237200Y0156126D02*
X0237200Y0156126D01*
X0246465Y0139336D02*
X0249883Y0139336D01*
X0249400Y0136938D02*
X0245000Y0136938D01*
X0244287Y0134539D02*
X0250113Y0134539D01*
X0212568Y0141735D02*
X0201832Y0141735D01*
X0203906Y0144133D02*
X0210494Y0144133D01*
X0209400Y0146532D02*
X0205000Y0146532D01*
X0204685Y0148930D02*
X0209715Y0148930D01*
X0209883Y0139336D02*
X0204517Y0139336D01*
X0205000Y0136938D02*
X0209400Y0136938D01*
X0210113Y0134539D02*
X0204287Y0134539D01*
X0203767Y0120148D02*
X0287900Y0120148D01*
X0287900Y0122546D02*
X0096774Y0122546D01*
X0094376Y0120148D02*
X0195633Y0120148D01*
X0194750Y0117749D02*
X0091977Y0117749D01*
X0089579Y0115351D02*
X0182113Y0115351D01*
X0187287Y0115351D02*
X0194750Y0115351D01*
X0196962Y0112952D02*
X0188950Y0112952D01*
X0188982Y0110554D02*
X0195473Y0110554D01*
X0194350Y0108155D02*
X0187363Y0108155D01*
X0182037Y0108155D02*
X0170648Y0108155D01*
X0170861Y0107942D02*
X0170327Y0108476D01*
X0169716Y0108920D01*
X0169043Y0109263D01*
X0168324Y0109497D01*
X0167578Y0109615D01*
X0167200Y0109615D01*
X0167200Y0102215D01*
X0167200Y0102215D01*
X0167200Y0109615D01*
X0166822Y0109615D01*
X0166076Y0109497D01*
X0165357Y0109263D01*
X0164684Y0108920D01*
X0164073Y0108476D01*
X0163539Y0107942D01*
X0163095Y0107331D01*
X0162752Y0106658D01*
X0162518Y0105939D01*
X0162400Y0105193D01*
X0162400Y0102215D01*
X0167200Y0102215D01*
X0172000Y0102215D01*
X0172000Y0105193D01*
X0171882Y0105939D01*
X0171648Y0106658D01*
X0171305Y0107331D01*
X0170861Y0107942D01*
X0171911Y0105757D02*
X0194350Y0105757D01*
X0195991Y0103358D02*
X0172000Y0103358D01*
X0172000Y0102215D02*
X0167200Y0102215D01*
X0167200Y0102215D01*
X0167200Y0102215D01*
X0167200Y0094815D01*
X0167578Y0094815D01*
X0168324Y0094933D01*
X0169043Y0095167D01*
X0169716Y0095510D01*
X0170327Y0095954D01*
X0170861Y0096488D01*
X0171305Y0097099D01*
X0171648Y0097772D01*
X0171882Y0098491D01*
X0172000Y0099237D01*
X0172000Y0102215D01*
X0172000Y0100960D02*
X0195879Y0100960D01*
X0194350Y0098561D02*
X0171893Y0098561D01*
X0170536Y0096163D02*
X0181925Y0096163D01*
X0182208Y0096445D02*
X0180970Y0095207D01*
X0180300Y0093590D01*
X0180300Y0091840D01*
X0180970Y0090223D01*
X0182208Y0088985D01*
X0183825Y0088315D01*
X0185575Y0088315D01*
X0187192Y0088985D01*
X0188430Y0090223D01*
X0189100Y0091840D01*
X0189100Y0093590D01*
X0188430Y0095207D01*
X0187192Y0096445D01*
X0185575Y0097115D01*
X0183825Y0097115D01*
X0182208Y0096445D01*
X0180372Y0093764D02*
X0162550Y0093764D01*
X0162550Y0092215D02*
X0157200Y0092215D01*
X0157200Y0092215D01*
X0162550Y0092215D01*
X0162550Y0091366D02*
X0180496Y0091366D01*
X0182250Y0088967D02*
X0168673Y0088967D01*
X0168075Y0089215D02*
X0169692Y0088545D01*
X0170930Y0087307D01*
X0171600Y0085690D01*
X0171600Y0078740D01*
X0170930Y0077123D01*
X0169692Y0075885D01*
X0168075Y0075215D01*
X0166325Y0075215D01*
X0164708Y0075885D01*
X0163470Y0077123D01*
X0162800Y0078740D01*
X0162800Y0085690D01*
X0163470Y0087307D01*
X0164708Y0088545D01*
X0166325Y0089215D01*
X0168075Y0089215D01*
X0165727Y0088967D02*
X0161518Y0088967D01*
X0161677Y0086569D02*
X0163164Y0086569D01*
X0162800Y0084170D02*
X0162000Y0084170D01*
X0162000Y0082215D02*
X0157200Y0082215D01*
X0157200Y0082215D01*
X0157200Y0092215D01*
X0157200Y0092215D01*
X0157200Y0086865D01*
X0157200Y0082215D01*
X0157200Y0082215D01*
X0157200Y0082215D01*
X0152400Y0082215D01*
X0152400Y0085193D01*
X0152518Y0085939D01*
X0152752Y0086658D01*
X0153095Y0087331D01*
X0153539Y0087942D01*
X0153723Y0088126D01*
X0151917Y0089932D01*
X0150111Y0088126D01*
X0150930Y0087307D01*
X0151600Y0085690D01*
X0151600Y0078740D01*
X0150930Y0077123D01*
X0150200Y0076392D01*
X0150200Y0075215D01*
X0155263Y0075215D01*
X0154684Y0075510D01*
X0154073Y0075954D01*
X0153539Y0076488D01*
X0153095Y0077099D01*
X0152752Y0077772D01*
X0152518Y0078491D01*
X0152400Y0079237D01*
X0152400Y0082215D01*
X0157200Y0082215D01*
X0162000Y0082215D01*
X0162000Y0081772D02*
X0162800Y0081772D01*
X0162800Y0079373D02*
X0162000Y0079373D01*
X0161215Y0076975D02*
X0163618Y0076975D01*
X0170782Y0076975D02*
X0217900Y0076975D01*
X0217900Y0079373D02*
X0171600Y0079373D01*
X0171600Y0081772D02*
X0217900Y0081772D01*
X0217900Y0084170D02*
X0203656Y0084170D01*
X0204650Y0086569D02*
X0217400Y0086569D01*
X0217400Y0088967D02*
X0204650Y0088967D01*
X0202549Y0091366D02*
X0217400Y0091366D01*
X0217439Y0093764D02*
X0203815Y0093764D01*
X0199700Y0098561D02*
X0199700Y0098561D01*
X0199700Y0100960D02*
X0199700Y0100960D01*
X0199700Y0103358D02*
X0199700Y0103358D01*
X0199700Y0105757D02*
X0199700Y0105757D01*
X0199700Y0107215D02*
X0199700Y0107215D01*
X0203927Y0110554D02*
X0284458Y0110554D01*
X0286856Y0112952D02*
X0202438Y0112952D01*
X0204650Y0115351D02*
X0287900Y0115351D01*
X0287900Y0117749D02*
X0204650Y0117749D01*
X0205050Y0108155D02*
X0282059Y0108155D01*
X0279661Y0105757D02*
X0205050Y0105757D01*
X0203409Y0103358D02*
X0277262Y0103358D01*
X0274864Y0100960D02*
X0203521Y0100960D01*
X0194350Y0096163D02*
X0187475Y0096163D01*
X0189028Y0093764D02*
X0195585Y0093764D01*
X0196851Y0091366D02*
X0188904Y0091366D01*
X0187150Y0088967D02*
X0194750Y0088967D01*
X0194750Y0086569D02*
X0171236Y0086569D01*
X0171600Y0084170D02*
X0195744Y0084170D01*
X0209800Y0067381D02*
X0150200Y0067381D01*
X0150200Y0064982D02*
X0207401Y0064982D01*
X0206850Y0062584D02*
X0150200Y0062584D01*
X0149413Y0060185D02*
X0206850Y0060185D01*
X0212200Y0060185D02*
X0212200Y0060185D01*
X0212200Y0062584D02*
X0212200Y0062584D01*
X0212200Y0064982D02*
X0212200Y0064982D01*
X0212200Y0067381D02*
X0212200Y0067381D01*
X0214600Y0067381D02*
X0217900Y0067381D01*
X0217900Y0064982D02*
X0216999Y0064982D01*
X0217550Y0060185D02*
X0217683Y0060185D01*
X0227150Y0062584D02*
X0237250Y0062584D01*
X0237900Y0064982D02*
X0226500Y0064982D01*
X0226500Y0067381D02*
X0237900Y0067381D01*
X0237900Y0069779D02*
X0226500Y0069779D01*
X0246500Y0067381D02*
X0249800Y0067381D01*
X0247401Y0064982D02*
X0246500Y0064982D01*
X0246717Y0060185D02*
X0246850Y0060185D01*
X0217888Y0038599D02*
X0209012Y0038599D01*
X0209500Y0036200D02*
X0217400Y0036200D01*
X0217400Y0033802D02*
X0209500Y0033802D01*
X0209500Y0031403D02*
X0217400Y0031403D01*
X0217609Y0029005D02*
X0209291Y0029005D01*
X0200109Y0029005D02*
X0199291Y0029005D01*
X0199500Y0031403D02*
X0199900Y0031403D01*
X0199900Y0033802D02*
X0199500Y0033802D01*
X0199500Y0036200D02*
X0199900Y0036200D01*
X0200388Y0038599D02*
X0199012Y0038599D01*
X0189900Y0036200D02*
X0189900Y0036200D01*
X0189900Y0033802D02*
X0189900Y0033802D01*
X0189900Y0031403D02*
X0189900Y0031403D01*
X0189693Y0029005D02*
X0190109Y0029005D01*
X0179707Y0029005D02*
X0173295Y0029005D01*
X0174600Y0031403D02*
X0179500Y0031403D01*
X0179500Y0033802D02*
X0174322Y0033802D01*
X0172399Y0036200D02*
X0179500Y0036200D01*
X0179951Y0038599D02*
X0172889Y0038599D01*
X0162001Y0036200D02*
X0160656Y0036200D01*
X0160503Y0038599D02*
X0161511Y0038599D01*
X0159925Y0040997D02*
X0157095Y0040997D01*
X0154696Y0043396D02*
X0159910Y0043396D01*
X0159473Y0045794D02*
X0161474Y0045794D01*
X0160930Y0047123D02*
X0161600Y0048740D01*
X0161600Y0055690D01*
X0160930Y0057307D01*
X0159692Y0058545D01*
X0158075Y0059215D01*
X0156325Y0059215D01*
X0154708Y0058545D01*
X0153470Y0057307D01*
X0152800Y0055690D01*
X0152800Y0048740D01*
X0153470Y0047123D01*
X0154708Y0045885D01*
X0156325Y0045215D01*
X0158075Y0045215D01*
X0159692Y0045885D01*
X0160930Y0047123D01*
X0161373Y0048193D02*
X0162615Y0048193D01*
X0162400Y0050591D02*
X0161600Y0050591D01*
X0161600Y0052990D02*
X0162400Y0052990D01*
X0162431Y0055388D02*
X0161600Y0055388D01*
X0160451Y0057787D02*
X0163426Y0057787D01*
X0167200Y0057787D02*
X0167200Y0057787D01*
X0167200Y0055388D02*
X0167200Y0055388D01*
X0167200Y0052990D02*
X0167200Y0052990D01*
X0153949Y0057787D02*
X0150451Y0057787D01*
X0151600Y0055388D02*
X0152800Y0055388D01*
X0152800Y0052990D02*
X0151600Y0052990D01*
X0151600Y0050591D02*
X0152800Y0050591D01*
X0153027Y0048193D02*
X0151373Y0048193D01*
X0152298Y0045794D02*
X0154927Y0045794D01*
X0149741Y0040997D02*
X0120160Y0040997D01*
X0117762Y0043396D02*
X0147342Y0043396D01*
X0144927Y0045794D02*
X0139473Y0045794D01*
X0141373Y0048193D02*
X0143027Y0048193D01*
X0142800Y0050591D02*
X0141600Y0050591D01*
X0142217Y0052990D02*
X0142800Y0052990D01*
X0137200Y0052215D02*
X0147200Y0062215D01*
X0147200Y0072215D01*
X0147200Y0082215D01*
X0151600Y0081772D02*
X0152400Y0081772D01*
X0152400Y0084170D02*
X0151600Y0084170D01*
X0151236Y0086569D02*
X0152723Y0086569D01*
X0152882Y0088967D02*
X0150953Y0088967D01*
X0157200Y0088967D02*
X0157200Y0088967D01*
X0157200Y0086569D02*
X0157200Y0086569D01*
X0157200Y0084170D02*
X0157200Y0084170D01*
X0152400Y0079373D02*
X0151600Y0079373D01*
X0150782Y0076975D02*
X0153185Y0076975D01*
X0157200Y0091366D02*
X0157200Y0091366D01*
X0153582Y0096163D02*
X0150252Y0096163D01*
X0151526Y0098561D02*
X0152874Y0098561D01*
X0152800Y0100960D02*
X0151600Y0100960D01*
X0151600Y0103358D02*
X0152800Y0103358D01*
X0152828Y0105757D02*
X0151572Y0105757D01*
X0150082Y0108155D02*
X0154318Y0108155D01*
X0160082Y0108155D02*
X0163752Y0108155D01*
X0162489Y0105757D02*
X0161572Y0105757D01*
X0161600Y0103358D02*
X0162400Y0103358D01*
X0162400Y0102215D02*
X0162400Y0099237D01*
X0162518Y0098491D01*
X0162752Y0097772D01*
X0163095Y0097099D01*
X0163539Y0096488D01*
X0164073Y0095954D01*
X0164684Y0095510D01*
X0165357Y0095167D01*
X0166076Y0094933D01*
X0166822Y0094815D01*
X0167200Y0094815D01*
X0167200Y0102215D01*
X0167200Y0102215D01*
X0162400Y0102215D01*
X0162400Y0100960D02*
X0161600Y0100960D01*
X0161526Y0098561D02*
X0162507Y0098561D01*
X0163864Y0096163D02*
X0160818Y0096163D01*
X0167200Y0096163D02*
X0167200Y0096163D01*
X0167200Y0098561D02*
X0167200Y0098561D01*
X0167200Y0100960D02*
X0167200Y0100960D01*
X0167200Y0103358D02*
X0167200Y0103358D01*
X0167200Y0105757D02*
X0167200Y0105757D01*
X0167200Y0108155D02*
X0167200Y0108155D01*
X0144318Y0108155D02*
X0140082Y0108155D01*
X0139692Y0108545D02*
X0138075Y0109215D01*
X0136325Y0109215D01*
X0134708Y0108545D01*
X0133470Y0107307D01*
X0132800Y0105690D01*
X0132800Y0098740D01*
X0133470Y0097123D01*
X0134708Y0095885D01*
X0136325Y0095215D01*
X0138075Y0095215D01*
X0139692Y0095885D01*
X0140930Y0097123D01*
X0141600Y0098740D01*
X0141600Y0105690D01*
X0140930Y0107307D01*
X0139692Y0108545D01*
X0141572Y0105757D02*
X0142828Y0105757D01*
X0142800Y0103358D02*
X0141600Y0103358D01*
X0141600Y0100960D02*
X0142800Y0100960D01*
X0142874Y0098561D02*
X0141526Y0098561D01*
X0139970Y0096163D02*
X0144148Y0096163D01*
X0142250Y0093764D02*
X0009400Y0093764D01*
X0009400Y0091366D02*
X0142250Y0091366D01*
X0134430Y0096163D02*
X0129970Y0096163D01*
X0129692Y0095885D02*
X0130930Y0097123D01*
X0131600Y0098740D01*
X0131600Y0105690D01*
X0130930Y0107307D01*
X0129692Y0108545D01*
X0128075Y0109215D01*
X0126325Y0109215D01*
X0124708Y0108545D01*
X0123470Y0107307D01*
X0122800Y0105690D01*
X0122800Y0098740D01*
X0123470Y0097123D01*
X0124708Y0095885D01*
X0126325Y0095215D01*
X0128075Y0095215D01*
X0129692Y0095885D01*
X0131526Y0098561D02*
X0132874Y0098561D01*
X0132800Y0100960D02*
X0131600Y0100960D01*
X0131600Y0103358D02*
X0132800Y0103358D01*
X0132828Y0105757D02*
X0131572Y0105757D01*
X0130082Y0108155D02*
X0134318Y0108155D01*
X0124318Y0108155D02*
X0120082Y0108155D01*
X0119692Y0108545D02*
X0118075Y0109215D01*
X0116325Y0109215D01*
X0114708Y0108545D01*
X0113470Y0107307D01*
X0112800Y0105690D01*
X0112800Y0098740D01*
X0113470Y0097123D01*
X0114708Y0095885D01*
X0116325Y0095215D01*
X0118075Y0095215D01*
X0119692Y0095885D01*
X0120930Y0097123D01*
X0121600Y0098740D01*
X0121600Y0105690D01*
X0120930Y0107307D01*
X0119692Y0108545D01*
X0121572Y0105757D02*
X0122828Y0105757D01*
X0122800Y0103358D02*
X0121600Y0103358D01*
X0121600Y0100960D02*
X0122800Y0100960D01*
X0122874Y0098561D02*
X0121526Y0098561D01*
X0119970Y0096163D02*
X0124430Y0096163D01*
X0114430Y0096163D02*
X0109970Y0096163D01*
X0109692Y0095885D02*
X0110930Y0097123D01*
X0111600Y0098740D01*
X0111600Y0105690D01*
X0110930Y0107307D01*
X0109692Y0108545D01*
X0108075Y0109215D01*
X0106325Y0109215D01*
X0104708Y0108545D01*
X0103470Y0107307D01*
X0102800Y0105690D01*
X0102800Y0098740D01*
X0103470Y0097123D01*
X0104708Y0095885D01*
X0106325Y0095215D01*
X0108075Y0095215D01*
X0109692Y0095885D01*
X0111526Y0098561D02*
X0112874Y0098561D01*
X0112800Y0100960D02*
X0111600Y0100960D01*
X0111600Y0103358D02*
X0112800Y0103358D01*
X0112828Y0105757D02*
X0111572Y0105757D01*
X0110082Y0108155D02*
X0114318Y0108155D01*
X0104318Y0108155D02*
X0100082Y0108155D01*
X0099692Y0108545D02*
X0100930Y0107307D01*
X0101600Y0105690D01*
X0101600Y0098740D01*
X0100930Y0097123D01*
X0099692Y0095885D01*
X0098075Y0095215D01*
X0096325Y0095215D01*
X0094708Y0095885D01*
X0093470Y0097123D01*
X0092800Y0098740D01*
X0092800Y0105690D01*
X0093470Y0107307D01*
X0094708Y0108545D01*
X0096325Y0109215D01*
X0098075Y0109215D01*
X0099692Y0108545D01*
X0101572Y0105757D02*
X0102828Y0105757D01*
X0102800Y0103358D02*
X0101600Y0103358D01*
X0101600Y0100960D02*
X0102800Y0100960D01*
X0102874Y0098561D02*
X0101526Y0098561D01*
X0099970Y0096163D02*
X0104430Y0096163D01*
X0094430Y0096163D02*
X0089970Y0096163D01*
X0091526Y0098561D02*
X0092874Y0098561D01*
X0092800Y0100960D02*
X0091600Y0100960D01*
X0091600Y0103358D02*
X0092800Y0103358D01*
X0092828Y0105757D02*
X0091572Y0105757D01*
X0090082Y0108155D02*
X0094318Y0108155D01*
X0084430Y0096163D02*
X0009400Y0096163D01*
X0009400Y0098561D02*
X0034631Y0098561D01*
X0032800Y0100960D02*
X0009400Y0100960D01*
X0009400Y0103358D02*
X0032800Y0103358D01*
X0034519Y0105757D02*
X0009400Y0105757D01*
X0009400Y0108155D02*
X0034471Y0108155D01*
X0032693Y0110554D02*
X0009400Y0110554D01*
X0009400Y0112952D02*
X0032400Y0112952D01*
X0033548Y0115351D02*
X0009400Y0115351D01*
X0009400Y0117749D02*
X0034877Y0117749D01*
X0032479Y0120148D02*
X0031356Y0120148D01*
X0031600Y0120392D02*
X0029023Y0117815D01*
X0025377Y0117815D01*
X0022800Y0120392D01*
X0022800Y0124037D01*
X0025377Y0126615D01*
X0029023Y0126615D01*
X0031600Y0124037D01*
X0031600Y0120392D01*
X0031600Y0122546D02*
X0032400Y0122546D01*
X0033142Y0124945D02*
X0030692Y0124945D01*
X0023708Y0124945D02*
X0009400Y0124945D01*
X0009400Y0127344D02*
X0039200Y0127344D01*
X0039200Y0129742D02*
X0009400Y0129742D01*
X0009400Y0132141D02*
X0039200Y0132141D01*
X0039200Y0134539D02*
X0009400Y0134539D01*
X0009400Y0122546D02*
X0022800Y0122546D01*
X0023044Y0120148D02*
X0009400Y0120148D01*
X0037200Y0112215D02*
X0042200Y0117215D01*
X0082150Y0122546D02*
X0088289Y0122546D01*
X0087200Y0132215D02*
X0087200Y0162215D01*
X0091600Y0163321D02*
X0092800Y0163321D01*
X0092800Y0160923D02*
X0091600Y0160923D01*
X0091511Y0158524D02*
X0092889Y0158524D01*
X0094467Y0156126D02*
X0090200Y0156126D01*
X0090200Y0153727D02*
X0099200Y0153727D01*
X0099200Y0151329D02*
X0090200Y0151329D01*
X0090200Y0148930D02*
X0097173Y0148930D01*
X0103259Y0146532D02*
X0139200Y0146532D01*
X0139200Y0148930D02*
X0105122Y0148930D01*
X0105200Y0151329D02*
X0139200Y0151329D01*
X0139200Y0153727D02*
X0105200Y0153727D01*
X0107200Y0154815D02*
X0107200Y0162215D01*
X0112000Y0162215D01*
X0107200Y0162215D01*
X0107200Y0162215D01*
X0107200Y0154815D01*
X0107200Y0156126D02*
X0107200Y0156126D01*
X0107200Y0158524D02*
X0107200Y0158524D01*
X0107200Y0160923D02*
X0107200Y0160923D01*
X0107200Y0162215D02*
X0107200Y0162215D01*
X0107200Y0163321D02*
X0107200Y0163321D01*
X0107200Y0165720D02*
X0107200Y0165720D01*
X0107200Y0168118D02*
X0107200Y0168118D01*
X0107244Y0170517D02*
X0137156Y0170517D01*
X0134757Y0172915D02*
X0109643Y0172915D01*
X0112041Y0175314D02*
X0134200Y0175314D01*
X0134200Y0177712D02*
X0114440Y0177712D01*
X0115200Y0180111D02*
X0134200Y0180111D01*
X0134200Y0182509D02*
X0115200Y0182509D01*
X0115200Y0184908D02*
X0134200Y0184908D01*
X0133394Y0187306D02*
X0131006Y0187306D01*
X0131600Y0189705D02*
X0132800Y0189705D01*
X0132800Y0192103D02*
X0131600Y0192103D01*
X0131600Y0194502D02*
X0132800Y0194502D01*
X0137200Y0192215D02*
X0137200Y0174715D01*
X0142200Y0169715D01*
X0142200Y0137215D01*
X0147200Y0132215D01*
X0142800Y0132141D02*
X0141600Y0132141D01*
X0141600Y0129742D02*
X0142800Y0129742D01*
X0143378Y0127344D02*
X0141022Y0127344D01*
X0133378Y0127344D02*
X0131022Y0127344D01*
X0130930Y0127123D02*
X0131600Y0128740D01*
X0131600Y0135690D01*
X0130930Y0137307D01*
X0129692Y0138545D01*
X0128075Y0139215D01*
X0126325Y0139215D01*
X0124708Y0138545D01*
X0123470Y0137307D01*
X0122800Y0135690D01*
X0122800Y0128740D01*
X0123470Y0127123D01*
X0124708Y0125885D01*
X0126325Y0125215D01*
X0128075Y0125215D01*
X0129692Y0125885D01*
X0130930Y0127123D01*
X0131600Y0129742D02*
X0132800Y0129742D01*
X0132800Y0132141D02*
X0131600Y0132141D01*
X0131600Y0134539D02*
X0132800Y0134539D01*
X0133317Y0136938D02*
X0131083Y0136938D01*
X0123317Y0136938D02*
X0121083Y0136938D01*
X0120930Y0137307D02*
X0119692Y0138545D01*
X0118075Y0139215D01*
X0116325Y0139215D01*
X0114708Y0138545D01*
X0113470Y0137307D01*
X0112800Y0135690D01*
X0112800Y0128740D01*
X0113470Y0127123D01*
X0114708Y0125885D01*
X0116325Y0125215D01*
X0118075Y0125215D01*
X0119692Y0125885D01*
X0120930Y0127123D01*
X0121600Y0128740D01*
X0121600Y0135690D01*
X0120930Y0137307D01*
X0121600Y0134539D02*
X0122800Y0134539D01*
X0122800Y0132141D02*
X0121600Y0132141D01*
X0121600Y0129742D02*
X0122800Y0129742D01*
X0123378Y0127344D02*
X0121022Y0127344D01*
X0113378Y0127344D02*
X0111022Y0127344D01*
X0110930Y0127123D02*
X0111600Y0128740D01*
X0111600Y0135690D01*
X0110930Y0137307D01*
X0109692Y0138545D01*
X0108075Y0139215D01*
X0106325Y0139215D01*
X0104708Y0138545D01*
X0103470Y0137307D01*
X0102800Y0135690D01*
X0102800Y0128740D01*
X0103470Y0127123D01*
X0104708Y0125885D01*
X0106325Y0125215D01*
X0108075Y0125215D01*
X0109692Y0125885D01*
X0110930Y0127123D01*
X0111600Y0129742D02*
X0112800Y0129742D01*
X0112800Y0132141D02*
X0111600Y0132141D01*
X0111600Y0134539D02*
X0112800Y0134539D01*
X0113317Y0136938D02*
X0111083Y0136938D01*
X0103317Y0136938D02*
X0101083Y0136938D01*
X0101600Y0134539D02*
X0102800Y0134539D01*
X0102800Y0132141D02*
X0101600Y0132141D01*
X0101600Y0129742D02*
X0102800Y0129742D01*
X0103378Y0127344D02*
X0101022Y0127344D01*
X0097200Y0127215D02*
X0097200Y0132215D01*
X0097200Y0144715D01*
X0100861Y0144133D02*
X0139200Y0144133D01*
X0139200Y0141735D02*
X0100200Y0141735D01*
X0100200Y0139336D02*
X0139200Y0139336D01*
X0134467Y0156126D02*
X0129933Y0156126D01*
X0129692Y0155885D02*
X0130930Y0157123D01*
X0131600Y0158740D01*
X0131600Y0165690D01*
X0130930Y0167307D01*
X0129692Y0168545D01*
X0128075Y0169215D01*
X0126325Y0169215D01*
X0124708Y0168545D01*
X0123470Y0167307D01*
X0122800Y0165690D01*
X0122800Y0158740D01*
X0123470Y0157123D01*
X0124708Y0155885D01*
X0126325Y0155215D01*
X0128075Y0155215D01*
X0129692Y0155885D01*
X0131511Y0158524D02*
X0132889Y0158524D01*
X0132800Y0160923D02*
X0131600Y0160923D01*
X0131600Y0163321D02*
X0132800Y0163321D01*
X0132812Y0165720D02*
X0131588Y0165720D01*
X0130119Y0168118D02*
X0134281Y0168118D01*
X0124281Y0168118D02*
X0120119Y0168118D01*
X0119692Y0168545D02*
X0118075Y0169215D01*
X0116325Y0169215D01*
X0114708Y0168545D01*
X0113470Y0167307D01*
X0112800Y0165690D01*
X0112800Y0158740D01*
X0113470Y0157123D01*
X0114708Y0155885D01*
X0116325Y0155215D01*
X0118075Y0155215D01*
X0119692Y0155885D01*
X0120930Y0157123D01*
X0121600Y0158740D01*
X0121600Y0165690D01*
X0120930Y0167307D01*
X0119692Y0168545D01*
X0121588Y0165720D02*
X0122812Y0165720D01*
X0122800Y0163321D02*
X0121600Y0163321D01*
X0121600Y0160923D02*
X0122800Y0160923D01*
X0122889Y0158524D02*
X0121511Y0158524D01*
X0119933Y0156126D02*
X0124467Y0156126D01*
X0114467Y0156126D02*
X0110499Y0156126D01*
X0111887Y0158524D02*
X0112889Y0158524D01*
X0112800Y0160923D02*
X0112000Y0160923D01*
X0112000Y0163321D02*
X0112800Y0163321D01*
X0112812Y0165720D02*
X0111917Y0165720D01*
X0110685Y0168118D02*
X0114281Y0168118D01*
X0107200Y0182215D02*
X0097200Y0172215D01*
X0097200Y0162215D01*
X0092812Y0165720D02*
X0091588Y0165720D01*
X0090119Y0168118D02*
X0094200Y0168118D01*
X0096056Y0175314D02*
X0009400Y0175314D01*
X0009400Y0177712D02*
X0098455Y0177712D01*
X0100853Y0180111D02*
X0009400Y0180111D01*
X0009400Y0182509D02*
X0103252Y0182509D01*
X0104200Y0184908D02*
X0098164Y0184908D01*
X0098324Y0184933D02*
X0099043Y0185167D01*
X0099716Y0185510D01*
X0100327Y0185954D01*
X0100861Y0186488D01*
X0101305Y0187099D01*
X0101648Y0187772D01*
X0101882Y0188491D01*
X0102000Y0189237D01*
X0102000Y0192215D01*
X0102000Y0195193D01*
X0101882Y0195939D01*
X0101648Y0196658D01*
X0101305Y0197331D01*
X0100861Y0197942D01*
X0100327Y0198476D01*
X0099716Y0198920D01*
X0099043Y0199263D01*
X0098730Y0199365D01*
X0099416Y0199365D01*
X0102550Y0202499D01*
X0102550Y0204715D01*
X0102550Y0206931D01*
X0099416Y0210065D01*
X0097200Y0210065D01*
X0097200Y0204715D01*
X0097200Y0204715D01*
X0097200Y0210065D01*
X0094984Y0210065D01*
X0091917Y0206998D01*
X0090200Y0208715D01*
X0090200Y0213972D01*
X0091543Y0215315D01*
X0092575Y0215315D01*
X0094192Y0215985D01*
X0095430Y0217223D01*
X0096100Y0218840D01*
X0096100Y0220590D01*
X0095430Y0222207D01*
X0094192Y0223445D01*
X0092575Y0224115D01*
X0090825Y0224115D01*
X0089208Y0223445D01*
X0087970Y0222207D01*
X0087300Y0220590D01*
X0087300Y0219558D01*
X0085501Y0217758D01*
X0084657Y0216914D01*
X0084200Y0215812D01*
X0084200Y0208715D01*
X0082250Y0206765D01*
X0082250Y0202665D01*
X0084200Y0200715D01*
X0084200Y0198037D01*
X0083470Y0197307D01*
X0082800Y0195690D01*
X0082800Y0188740D01*
X0083470Y0187123D01*
X0084708Y0185885D01*
X0086325Y0185215D01*
X0088075Y0185215D01*
X0089692Y0185885D01*
X0090930Y0187123D01*
X0091600Y0188740D01*
X0091600Y0195690D01*
X0090930Y0197307D01*
X0090200Y0198037D01*
X0090200Y0200715D01*
X0091917Y0202432D01*
X0094984Y0199365D01*
X0095670Y0199365D01*
X0095357Y0199263D01*
X0094684Y0198920D01*
X0094073Y0198476D01*
X0093539Y0197942D01*
X0093095Y0197331D01*
X0092752Y0196658D01*
X0092518Y0195939D01*
X0092400Y0195193D01*
X0092400Y0192215D01*
X0097200Y0192215D01*
X0097200Y0192215D01*
X0097200Y0204715D01*
X0102550Y0204715D01*
X0097200Y0204715D01*
X0097200Y0204715D01*
X0097200Y0204715D01*
X0097200Y0199365D01*
X0097200Y0192215D01*
X0102000Y0192215D01*
X0097200Y0192215D01*
X0097200Y0192215D01*
X0097200Y0192215D01*
X0092400Y0192215D01*
X0092400Y0189237D01*
X0092518Y0188491D01*
X0092752Y0187772D01*
X0093095Y0187099D01*
X0093539Y0186488D01*
X0094073Y0185954D01*
X0094684Y0185510D01*
X0095357Y0185167D01*
X0096076Y0184933D01*
X0096822Y0184815D01*
X0097200Y0184815D01*
X0097578Y0184815D01*
X0098324Y0184933D01*
X0097200Y0184908D02*
X0097200Y0184908D01*
X0097200Y0184815D02*
X0097200Y0192215D01*
X0097200Y0192215D01*
X0097200Y0184815D01*
X0096236Y0184908D02*
X0009400Y0184908D01*
X0009400Y0187306D02*
X0033394Y0187306D01*
X0033470Y0187123D02*
X0034708Y0185885D01*
X0036325Y0185215D01*
X0038075Y0185215D01*
X0039692Y0185885D01*
X0040930Y0187123D01*
X0041600Y0188740D01*
X0041600Y0195690D01*
X0040930Y0197307D01*
X0039692Y0198545D01*
X0038075Y0199215D01*
X0036325Y0199215D01*
X0034708Y0198545D01*
X0033470Y0197307D01*
X0032800Y0195690D01*
X0032800Y0188740D01*
X0033470Y0187123D01*
X0032800Y0189705D02*
X0009400Y0189705D01*
X0009400Y0192103D02*
X0032800Y0192103D01*
X0032800Y0194502D02*
X0009400Y0194502D01*
X0009400Y0196900D02*
X0033301Y0196900D01*
X0041099Y0196900D02*
X0043301Y0196900D01*
X0043470Y0197307D02*
X0042800Y0195690D01*
X0042800Y0188740D01*
X0043470Y0187123D01*
X0044708Y0185885D01*
X0046325Y0185215D01*
X0048075Y0185215D01*
X0049692Y0185885D01*
X0050930Y0187123D01*
X0051600Y0188740D01*
X0051600Y0195690D01*
X0050930Y0197307D01*
X0049692Y0198545D01*
X0048075Y0199215D01*
X0046325Y0199215D01*
X0044708Y0198545D01*
X0043470Y0197307D01*
X0042800Y0194502D02*
X0041600Y0194502D01*
X0041600Y0192103D02*
X0042800Y0192103D01*
X0042800Y0189705D02*
X0041600Y0189705D01*
X0041006Y0187306D02*
X0043394Y0187306D01*
X0051006Y0187306D02*
X0053394Y0187306D01*
X0053470Y0187123D02*
X0054708Y0185885D01*
X0056325Y0185215D01*
X0058075Y0185215D01*
X0059692Y0185885D01*
X0060930Y0187123D01*
X0061600Y0188740D01*
X0061600Y0195690D01*
X0060930Y0197307D01*
X0059692Y0198545D01*
X0058075Y0199215D01*
X0056325Y0199215D01*
X0054708Y0198545D01*
X0053470Y0197307D01*
X0052800Y0195690D01*
X0052800Y0188740D01*
X0053470Y0187123D01*
X0052800Y0189705D02*
X0051600Y0189705D01*
X0051600Y0192103D02*
X0052800Y0192103D01*
X0052800Y0194502D02*
X0051600Y0194502D01*
X0051099Y0196900D02*
X0053301Y0196900D01*
X0061099Y0196900D02*
X0063301Y0196900D01*
X0063470Y0197307D02*
X0062800Y0195690D01*
X0062800Y0188740D01*
X0063470Y0187123D01*
X0064708Y0185885D01*
X0066325Y0185215D01*
X0068075Y0185215D01*
X0069692Y0185885D01*
X0070930Y0187123D01*
X0071600Y0188740D01*
X0071600Y0195690D01*
X0070930Y0197307D01*
X0069692Y0198545D01*
X0068075Y0199215D01*
X0066325Y0199215D01*
X0064708Y0198545D01*
X0063470Y0197307D01*
X0064984Y0199365D02*
X0067200Y0199365D01*
X0069416Y0199365D01*
X0072483Y0202432D01*
X0074200Y0200715D01*
X0074200Y0198037D01*
X0073470Y0197307D01*
X0072800Y0195690D01*
X0072800Y0188740D01*
X0073470Y0187123D01*
X0074708Y0185885D01*
X0076325Y0185215D01*
X0078075Y0185215D01*
X0079692Y0185885D01*
X0080930Y0187123D01*
X0081600Y0188740D01*
X0081600Y0195690D01*
X0080930Y0197307D01*
X0080200Y0198037D01*
X0080200Y0200715D01*
X0082150Y0202665D01*
X0082150Y0206765D01*
X0080200Y0208715D01*
X0080200Y0215812D01*
X0079743Y0216914D01*
X0078899Y0217758D01*
X0077100Y0219558D01*
X0077100Y0220590D01*
X0076430Y0222207D01*
X0075192Y0223445D01*
X0073575Y0224115D01*
X0071825Y0224115D01*
X0070208Y0223445D01*
X0068970Y0222207D01*
X0068300Y0220590D01*
X0068300Y0218840D01*
X0068970Y0217223D01*
X0070208Y0215985D01*
X0071825Y0215315D01*
X0072857Y0215315D01*
X0074200Y0213972D01*
X0074200Y0208715D01*
X0072483Y0206998D01*
X0069416Y0210065D01*
X0067200Y0210065D01*
X0067200Y0204715D01*
X0067200Y0204715D01*
X0067200Y0210065D01*
X0064984Y0210065D01*
X0061850Y0206931D01*
X0061850Y0204715D01*
X0067200Y0204715D01*
X0067200Y0204715D01*
X0067200Y0199365D01*
X0067200Y0204715D01*
X0067200Y0204715D01*
X0061850Y0204715D01*
X0061850Y0202499D01*
X0064984Y0199365D01*
X0067200Y0201697D02*
X0067200Y0201697D01*
X0067200Y0204096D02*
X0067200Y0204096D01*
X0067200Y0206494D02*
X0067200Y0206494D01*
X0067200Y0208893D02*
X0067200Y0208893D01*
X0070588Y0208893D02*
X0074200Y0208893D01*
X0074200Y0211291D02*
X0009400Y0211291D01*
X0009400Y0208893D02*
X0063812Y0208893D01*
X0061850Y0206494D02*
X0009400Y0206494D01*
X0009400Y0204096D02*
X0061850Y0204096D01*
X0062652Y0201697D02*
X0009400Y0201697D01*
X0009400Y0199299D02*
X0074200Y0199299D01*
X0073301Y0196900D02*
X0071099Y0196900D01*
X0071600Y0194502D02*
X0072800Y0194502D01*
X0072800Y0192103D02*
X0071600Y0192103D01*
X0071600Y0189705D02*
X0072800Y0189705D01*
X0073394Y0187306D02*
X0071006Y0187306D01*
X0063394Y0187306D02*
X0061006Y0187306D01*
X0061600Y0189705D02*
X0062800Y0189705D01*
X0062800Y0192103D02*
X0061600Y0192103D01*
X0061600Y0194502D02*
X0062800Y0194502D01*
X0071748Y0201697D02*
X0073217Y0201697D01*
X0077200Y0204715D02*
X0077200Y0215215D01*
X0072700Y0219715D01*
X0068446Y0218487D02*
X0009400Y0218487D01*
X0009400Y0220885D02*
X0068422Y0220885D01*
X0070046Y0223284D02*
X0009400Y0223284D01*
X0009400Y0225682D02*
X0189639Y0225682D01*
X0189400Y0226260D02*
X0190131Y0224496D01*
X0191481Y0223146D01*
X0193245Y0222415D01*
X0201155Y0222415D01*
X0202919Y0223146D01*
X0204269Y0224496D01*
X0205000Y0226260D01*
X0205000Y0228170D01*
X0204269Y0229934D01*
X0202919Y0231284D01*
X0201155Y0232015D01*
X0193245Y0232015D01*
X0191481Y0231284D01*
X0190131Y0229934D01*
X0189400Y0228170D01*
X0189400Y0226260D01*
X0189400Y0228081D02*
X0009400Y0228081D01*
X0009400Y0230479D02*
X0013136Y0230479D01*
X0014197Y0229419D02*
X0017320Y0228125D01*
X0020702Y0228125D01*
X0023825Y0229419D01*
X0026216Y0231810D01*
X0027510Y0234934D01*
X0027510Y0238315D01*
X0026216Y0241439D01*
X0023825Y0243830D01*
X0020702Y0245124D01*
X0017320Y0245124D01*
X0014197Y0243830D01*
X0011806Y0241439D01*
X0010512Y0238315D01*
X0010512Y0234934D01*
X0011806Y0231810D01*
X0014197Y0229419D01*
X0011363Y0232878D02*
X0009400Y0232878D01*
X0009400Y0235277D02*
X0010512Y0235277D01*
X0010512Y0237675D02*
X0009400Y0237675D01*
X0009587Y0240074D02*
X0011240Y0240074D01*
X0010530Y0242472D02*
X0012839Y0242472D01*
X0012841Y0244871D02*
X0016709Y0244871D01*
X0021313Y0244871D02*
X0347418Y0244871D01*
X0348029Y0245124D02*
X0344905Y0243830D01*
X0342514Y0241439D01*
X0341220Y0238315D01*
X0341220Y0234934D01*
X0342514Y0231810D01*
X0344905Y0229419D01*
X0348029Y0228125D01*
X0351410Y0228125D01*
X0354534Y0229419D01*
X0356925Y0231810D01*
X0358219Y0234934D01*
X0358219Y0238315D01*
X0356925Y0241439D01*
X0354534Y0243830D01*
X0351410Y0245124D01*
X0348029Y0245124D01*
X0352021Y0244871D02*
X0355890Y0244871D01*
X0355892Y0242472D02*
X0358200Y0242472D01*
X0357490Y0240074D02*
X0359144Y0240074D01*
X0359331Y0237675D02*
X0358219Y0237675D01*
X0358219Y0235277D02*
X0359331Y0235277D01*
X0359331Y0232878D02*
X0357367Y0232878D01*
X0355594Y0230479D02*
X0359331Y0230479D01*
X0359331Y0228081D02*
X0265000Y0228081D01*
X0265000Y0228170D02*
X0264269Y0229934D01*
X0262919Y0231284D01*
X0261155Y0232015D01*
X0253245Y0232015D01*
X0251481Y0231284D01*
X0250131Y0229934D01*
X0249400Y0228170D01*
X0249400Y0226260D01*
X0250131Y0224496D01*
X0251481Y0223146D01*
X0253245Y0222415D01*
X0261155Y0222415D01*
X0262919Y0223146D01*
X0264269Y0224496D01*
X0265000Y0226260D01*
X0265000Y0228170D01*
X0264761Y0225682D02*
X0359331Y0225682D01*
X0359331Y0223284D02*
X0263057Y0223284D01*
X0262919Y0221284D02*
X0261155Y0222015D01*
X0253245Y0222015D01*
X0251481Y0221284D01*
X0250131Y0219934D01*
X0249400Y0218170D01*
X0249400Y0216260D01*
X0250131Y0214496D01*
X0251481Y0213146D01*
X0253245Y0212415D01*
X0261155Y0212415D01*
X0262919Y0213146D01*
X0264269Y0214496D01*
X0265000Y0216260D01*
X0265000Y0218170D01*
X0264269Y0219934D01*
X0262919Y0221284D01*
X0263318Y0220885D02*
X0287782Y0220885D01*
X0287628Y0218487D02*
X0264869Y0218487D01*
X0264929Y0216088D02*
X0287628Y0216088D01*
X0287636Y0213690D02*
X0263463Y0213690D01*
X0250937Y0213690D02*
X0243463Y0213690D01*
X0242919Y0213146D02*
X0244269Y0214496D01*
X0245000Y0216260D01*
X0245000Y0218170D01*
X0244269Y0219934D01*
X0242919Y0221284D01*
X0241155Y0222015D01*
X0233245Y0222015D01*
X0231481Y0221284D01*
X0230131Y0219934D01*
X0229400Y0218170D01*
X0229400Y0216260D01*
X0230131Y0214496D01*
X0231481Y0213146D01*
X0233245Y0212415D01*
X0241155Y0212415D01*
X0242919Y0213146D01*
X0244929Y0216088D02*
X0249471Y0216088D01*
X0249531Y0218487D02*
X0244869Y0218487D01*
X0243318Y0220885D02*
X0251082Y0220885D01*
X0251343Y0223284D02*
X0243057Y0223284D01*
X0242919Y0223146D02*
X0244269Y0224496D01*
X0245000Y0226260D01*
X0245000Y0228170D01*
X0244269Y0229934D01*
X0242919Y0231284D01*
X0241155Y0232015D01*
X0233245Y0232015D01*
X0231481Y0231284D01*
X0230131Y0229934D01*
X0229400Y0228170D01*
X0229400Y0226260D01*
X0230131Y0224496D01*
X0231481Y0223146D01*
X0233245Y0222415D01*
X0241155Y0222415D01*
X0242919Y0223146D01*
X0244761Y0225682D02*
X0249639Y0225682D01*
X0249400Y0228081D02*
X0245000Y0228081D01*
X0243724Y0230479D02*
X0250676Y0230479D01*
X0251475Y0232768D02*
X0250812Y0233249D01*
X0250234Y0233827D01*
X0249753Y0234490D01*
X0249381Y0235219D01*
X0249128Y0235997D01*
X0249000Y0236806D01*
X0249000Y0237215D01*
X0257200Y0237215D01*
X0257200Y0237215D01*
X0257200Y0242415D01*
X0260609Y0242415D01*
X0261418Y0242287D01*
X0262196Y0242034D01*
X0262925Y0241662D01*
X0263588Y0241181D01*
X0264166Y0240603D01*
X0264647Y0239940D01*
X0265019Y0239211D01*
X0265272Y0238433D01*
X0265400Y0237624D01*
X0265400Y0237215D01*
X0257200Y0237215D01*
X0257200Y0242415D01*
X0253791Y0242415D01*
X0252982Y0242287D01*
X0252204Y0242034D01*
X0251475Y0241662D01*
X0250812Y0241181D01*
X0250234Y0240603D01*
X0249753Y0239940D01*
X0249381Y0239211D01*
X0249128Y0238433D01*
X0249000Y0237624D01*
X0249000Y0237215D01*
X0257200Y0237215D01*
X0257200Y0237215D01*
X0257200Y0237215D01*
X0265400Y0237215D01*
X0265400Y0236806D01*
X0265272Y0235997D01*
X0265019Y0235219D01*
X0264647Y0234490D01*
X0264166Y0233827D01*
X0263588Y0233249D01*
X0262925Y0232768D01*
X0262196Y0232396D01*
X0261418Y0232143D01*
X0260609Y0232015D01*
X0257200Y0232015D01*
X0257200Y0237215D01*
X0257200Y0237215D01*
X0257200Y0232015D01*
X0253791Y0232015D01*
X0252982Y0232143D01*
X0252204Y0232396D01*
X0251475Y0232768D01*
X0251323Y0232878D02*
X0243077Y0232878D01*
X0242925Y0232768D02*
X0243588Y0233249D01*
X0244166Y0233827D01*
X0244647Y0234490D01*
X0245019Y0235219D01*
X0245272Y0235997D01*
X0245400Y0236806D01*
X0245400Y0237215D01*
X0245400Y0237624D01*
X0245272Y0238433D01*
X0245019Y0239211D01*
X0244647Y0239940D01*
X0244166Y0240603D01*
X0243588Y0241181D01*
X0242925Y0241662D01*
X0242196Y0242034D01*
X0241418Y0242287D01*
X0240609Y0242415D01*
X0237200Y0242415D01*
X0237200Y0237215D01*
X0237200Y0237215D01*
X0237200Y0242415D01*
X0233791Y0242415D01*
X0232982Y0242287D01*
X0232204Y0242034D01*
X0231475Y0241662D01*
X0230812Y0241181D01*
X0230234Y0240603D01*
X0229753Y0239940D01*
X0229381Y0239211D01*
X0229128Y0238433D01*
X0229000Y0237624D01*
X0229000Y0237215D01*
X0237200Y0237215D01*
X0245400Y0237215D01*
X0237200Y0237215D01*
X0237200Y0237215D01*
X0237200Y0237215D01*
X0237200Y0232015D01*
X0240609Y0232015D01*
X0241418Y0232143D01*
X0242196Y0232396D01*
X0242925Y0232768D01*
X0245038Y0235277D02*
X0249362Y0235277D01*
X0249008Y0237675D02*
X0245392Y0237675D01*
X0244551Y0240074D02*
X0249849Y0240074D01*
X0257200Y0240074D02*
X0257200Y0240074D01*
X0257200Y0237675D02*
X0257200Y0237675D01*
X0257200Y0235277D02*
X0257200Y0235277D01*
X0257200Y0232878D02*
X0257200Y0232878D01*
X0263077Y0232878D02*
X0342072Y0232878D01*
X0341220Y0235277D02*
X0265038Y0235277D01*
X0265392Y0237675D02*
X0341220Y0237675D01*
X0341949Y0240074D02*
X0264551Y0240074D01*
X0263724Y0230479D02*
X0343845Y0230479D01*
X0359331Y0220885D02*
X0316618Y0220885D01*
X0316772Y0220732D02*
X0315717Y0221787D01*
X0308683Y0221787D01*
X0307628Y0220732D01*
X0307628Y0213698D01*
X0308683Y0212643D01*
X0315717Y0212643D01*
X0316772Y0213698D01*
X0316772Y0220732D01*
X0316772Y0218487D02*
X0359331Y0218487D01*
X0359331Y0216088D02*
X0316772Y0216088D01*
X0316764Y0213690D02*
X0359331Y0213690D01*
X0359331Y0211291D02*
X0296500Y0211291D01*
X0298078Y0212683D02*
X0298579Y0212393D01*
X0299139Y0212243D01*
X0302200Y0212243D01*
X0302200Y0217215D01*
X0302200Y0217215D01*
X0302200Y0222187D01*
X0305261Y0222187D01*
X0305821Y0222037D01*
X0306322Y0221747D01*
X0306732Y0221337D01*
X0307022Y0220836D01*
X0307172Y0220276D01*
X0307172Y0217215D01*
X0302200Y0217215D01*
X0302200Y0222187D01*
X0299139Y0222187D01*
X0298579Y0222037D01*
X0298078Y0221747D01*
X0297668Y0221337D01*
X0297378Y0220836D01*
X0297228Y0220276D01*
X0297228Y0217215D01*
X0302200Y0217215D01*
X0302200Y0217215D01*
X0302200Y0217215D01*
X0307172Y0217215D01*
X0307172Y0214154D01*
X0307022Y0213594D01*
X0306732Y0213092D01*
X0306322Y0212683D01*
X0305821Y0212393D01*
X0305261Y0212243D01*
X0302200Y0212243D01*
X0302200Y0217215D01*
X0302200Y0217215D01*
X0297228Y0217215D01*
X0297228Y0214154D01*
X0297378Y0213594D01*
X0297668Y0213092D01*
X0298078Y0212683D01*
X0297353Y0213690D02*
X0296764Y0213690D01*
X0296772Y0216088D02*
X0297228Y0216088D01*
X0297228Y0218487D02*
X0296772Y0218487D01*
X0296618Y0220885D02*
X0297407Y0220885D01*
X0302200Y0220885D02*
X0302200Y0220885D01*
X0302200Y0218487D02*
X0302200Y0218487D01*
X0302200Y0216088D02*
X0302200Y0216088D01*
X0302200Y0213690D02*
X0302200Y0213690D01*
X0296500Y0208893D02*
X0359331Y0208893D01*
X0359331Y0206494D02*
X0296500Y0206494D01*
X0296500Y0204096D02*
X0359331Y0204096D01*
X0359331Y0201697D02*
X0296500Y0201697D01*
X0296500Y0199299D02*
X0359331Y0199299D01*
X0359331Y0196900D02*
X0296500Y0196900D01*
X0296500Y0194502D02*
X0359331Y0194502D01*
X0359331Y0192103D02*
X0296500Y0192103D01*
X0296500Y0189705D02*
X0359331Y0189705D01*
X0359331Y0187306D02*
X0296500Y0187306D01*
X0296500Y0184908D02*
X0359331Y0184908D01*
X0359331Y0182509D02*
X0296500Y0182509D01*
X0297668Y0181337D02*
X0297378Y0180836D01*
X0297228Y0180276D01*
X0297228Y0177215D01*
X0302200Y0177215D01*
X0302200Y0177215D01*
X0302200Y0182187D01*
X0305261Y0182187D01*
X0305821Y0182037D01*
X0306322Y0181747D01*
X0306732Y0181337D01*
X0307022Y0180836D01*
X0307172Y0180276D01*
X0307172Y0177215D01*
X0302200Y0177215D01*
X0302200Y0182187D01*
X0299139Y0182187D01*
X0298579Y0182037D01*
X0298078Y0181747D01*
X0297668Y0181337D01*
X0297228Y0180111D02*
X0296772Y0180111D01*
X0296772Y0177712D02*
X0297228Y0177712D01*
X0297228Y0177215D02*
X0297228Y0174154D01*
X0297378Y0173594D01*
X0297668Y0173092D01*
X0298078Y0172683D01*
X0298579Y0172393D01*
X0299139Y0172243D01*
X0302200Y0172243D01*
X0302200Y0177215D01*
X0302200Y0177215D01*
X0302200Y0177215D01*
X0307172Y0177215D01*
X0307172Y0174154D01*
X0307022Y0173594D01*
X0306732Y0173092D01*
X0306322Y0172683D01*
X0305821Y0172393D01*
X0305261Y0172243D01*
X0302200Y0172243D01*
X0302200Y0177215D01*
X0302200Y0177215D01*
X0297228Y0177215D01*
X0297228Y0175314D02*
X0296772Y0175314D01*
X0296500Y0172915D02*
X0297845Y0172915D01*
X0296500Y0170517D02*
X0359331Y0170517D01*
X0359331Y0172915D02*
X0315989Y0172915D01*
X0315717Y0172643D02*
X0316772Y0173698D01*
X0316772Y0180732D01*
X0315717Y0181787D01*
X0308683Y0181787D01*
X0307628Y0180732D01*
X0307628Y0173698D01*
X0308683Y0172643D01*
X0315717Y0172643D01*
X0316772Y0175314D02*
X0359331Y0175314D01*
X0359331Y0177712D02*
X0316772Y0177712D01*
X0316772Y0180111D02*
X0359331Y0180111D01*
X0359331Y0168118D02*
X0296500Y0168118D01*
X0296500Y0165720D02*
X0359331Y0165720D01*
X0359331Y0163321D02*
X0296500Y0163321D01*
X0296500Y0160923D02*
X0359331Y0160923D01*
X0359331Y0124945D02*
X0354258Y0124945D01*
X0355000Y0122546D02*
X0359331Y0122546D01*
X0359331Y0120148D02*
X0354539Y0120148D01*
X0351962Y0117749D02*
X0359331Y0117749D01*
X0308411Y0172915D02*
X0306555Y0172915D01*
X0307172Y0175314D02*
X0307628Y0175314D01*
X0307628Y0177712D02*
X0307172Y0177712D01*
X0307172Y0180111D02*
X0307628Y0180111D01*
X0302200Y0180111D02*
X0302200Y0180111D01*
X0302200Y0177712D02*
X0302200Y0177712D01*
X0302200Y0175314D02*
X0302200Y0175314D01*
X0302200Y0172915D02*
X0302200Y0172915D01*
X0287900Y0204096D02*
X0102550Y0204096D01*
X0102550Y0206494D02*
X0287900Y0206494D01*
X0287900Y0208893D02*
X0100588Y0208893D01*
X0097200Y0208893D02*
X0097200Y0208893D01*
X0097200Y0206494D02*
X0097200Y0206494D01*
X0097200Y0204096D02*
X0097200Y0204096D01*
X0097200Y0201697D02*
X0097200Y0201697D01*
X0097200Y0199299D02*
X0097200Y0199299D01*
X0098933Y0199299D02*
X0110041Y0199299D01*
X0112440Y0201697D02*
X0101748Y0201697D01*
X0101525Y0196900D02*
X0103301Y0196900D01*
X0102800Y0194502D02*
X0102000Y0194502D01*
X0102000Y0192103D02*
X0102800Y0192103D01*
X0102800Y0189705D02*
X0102000Y0189705D01*
X0101411Y0187306D02*
X0103394Y0187306D01*
X0097200Y0187306D02*
X0097200Y0187306D01*
X0097200Y0189705D02*
X0097200Y0189705D01*
X0097200Y0192103D02*
X0097200Y0192103D01*
X0097200Y0194502D02*
X0097200Y0194502D01*
X0097200Y0196900D02*
X0097200Y0196900D01*
X0095467Y0199299D02*
X0090200Y0199299D01*
X0091099Y0196900D02*
X0092875Y0196900D01*
X0092400Y0194502D02*
X0091600Y0194502D01*
X0091600Y0192103D02*
X0092400Y0192103D01*
X0092400Y0189705D02*
X0091600Y0189705D01*
X0091006Y0187306D02*
X0092989Y0187306D01*
X0087200Y0192215D02*
X0087200Y0204715D01*
X0087200Y0215215D01*
X0091700Y0219715D01*
X0095954Y0218487D02*
X0189531Y0218487D01*
X0189400Y0218170D02*
X0189400Y0216260D01*
X0190131Y0214496D01*
X0191481Y0213146D01*
X0193245Y0212415D01*
X0201155Y0212415D01*
X0202919Y0213146D01*
X0204269Y0214496D01*
X0205000Y0216260D01*
X0205000Y0218170D01*
X0204269Y0219934D01*
X0202919Y0221284D01*
X0201155Y0222015D01*
X0193245Y0222015D01*
X0191481Y0221284D01*
X0190131Y0219934D01*
X0189400Y0218170D01*
X0189471Y0216088D02*
X0094296Y0216088D01*
X0090200Y0213690D02*
X0190937Y0213690D01*
X0191082Y0220885D02*
X0095978Y0220885D01*
X0094354Y0223284D02*
X0191343Y0223284D01*
X0190676Y0230479D02*
X0024886Y0230479D01*
X0026659Y0232878D02*
X0191323Y0232878D01*
X0191475Y0232768D02*
X0192204Y0232396D01*
X0192982Y0232143D01*
X0193791Y0232015D01*
X0197200Y0232015D01*
X0200609Y0232015D01*
X0201418Y0232143D01*
X0202196Y0232396D01*
X0202925Y0232768D01*
X0203588Y0233249D01*
X0204166Y0233827D01*
X0204647Y0234490D01*
X0205019Y0235219D01*
X0205272Y0235997D01*
X0205400Y0236806D01*
X0205400Y0237215D01*
X0205400Y0237624D01*
X0205272Y0238433D01*
X0205019Y0239211D01*
X0204647Y0239940D01*
X0204166Y0240603D01*
X0203588Y0241181D01*
X0202925Y0241662D01*
X0202196Y0242034D01*
X0201418Y0242287D01*
X0200609Y0242415D01*
X0197200Y0242415D01*
X0197200Y0237215D01*
X0197200Y0237215D01*
X0197200Y0242415D01*
X0193791Y0242415D01*
X0192982Y0242287D01*
X0192204Y0242034D01*
X0191475Y0241662D01*
X0190812Y0241181D01*
X0190234Y0240603D01*
X0189753Y0239940D01*
X0189381Y0239211D01*
X0189128Y0238433D01*
X0189000Y0237624D01*
X0189000Y0237215D01*
X0197200Y0237215D01*
X0205400Y0237215D01*
X0197200Y0237215D01*
X0197200Y0237215D01*
X0197200Y0237215D01*
X0197200Y0232015D01*
X0197200Y0237215D01*
X0197200Y0237215D01*
X0189000Y0237215D01*
X0189000Y0236806D01*
X0189128Y0235997D01*
X0189381Y0235219D01*
X0189753Y0234490D01*
X0190234Y0233827D01*
X0190812Y0233249D01*
X0191475Y0232768D01*
X0189362Y0235277D02*
X0027510Y0235277D01*
X0027510Y0237675D02*
X0189008Y0237675D01*
X0189849Y0240074D02*
X0026782Y0240074D01*
X0025183Y0242472D02*
X0343548Y0242472D01*
X0307782Y0220885D02*
X0306993Y0220885D01*
X0307172Y0218487D02*
X0307628Y0218487D01*
X0307628Y0216088D02*
X0307172Y0216088D01*
X0307047Y0213690D02*
X0307636Y0213690D01*
X0287900Y0211291D02*
X0090200Y0211291D01*
X0090200Y0208893D02*
X0093812Y0208893D01*
X0092652Y0201697D02*
X0091183Y0201697D01*
X0084200Y0199299D02*
X0080200Y0199299D01*
X0081099Y0196900D02*
X0083301Y0196900D01*
X0082800Y0194502D02*
X0081600Y0194502D01*
X0081600Y0192103D02*
X0082800Y0192103D01*
X0082800Y0189705D02*
X0081600Y0189705D01*
X0081006Y0187306D02*
X0083394Y0187306D01*
X0077200Y0192215D02*
X0077200Y0204715D01*
X0081183Y0201697D02*
X0083217Y0201697D01*
X0082250Y0204096D02*
X0082150Y0204096D01*
X0082150Y0206494D02*
X0082250Y0206494D01*
X0084200Y0208893D02*
X0080200Y0208893D01*
X0080200Y0211291D02*
X0084200Y0211291D01*
X0084200Y0213690D02*
X0080200Y0213690D01*
X0080085Y0216088D02*
X0084315Y0216088D01*
X0086229Y0218487D02*
X0078171Y0218487D01*
X0076978Y0220885D02*
X0087422Y0220885D01*
X0089046Y0223284D02*
X0075354Y0223284D01*
X0070104Y0216088D02*
X0009400Y0216088D01*
X0009400Y0213690D02*
X0074200Y0213690D01*
X0107200Y0192215D02*
X0107200Y0182215D01*
X0121006Y0187306D02*
X0123394Y0187306D01*
X0122800Y0189705D02*
X0121600Y0189705D01*
X0121600Y0192103D02*
X0122800Y0192103D01*
X0122800Y0194502D02*
X0121600Y0194502D01*
X0141600Y0194502D02*
X0142800Y0194502D01*
X0142800Y0192103D02*
X0141600Y0192103D01*
X0141600Y0189705D02*
X0142800Y0189705D01*
X0143394Y0187306D02*
X0141006Y0187306D01*
X0151006Y0187306D02*
X0153394Y0187306D01*
X0152800Y0189705D02*
X0151600Y0189705D01*
X0151600Y0192103D02*
X0152800Y0192103D01*
X0152800Y0194502D02*
X0151600Y0194502D01*
X0161600Y0192103D02*
X0162800Y0192103D01*
X0162800Y0189705D02*
X0161600Y0189705D01*
X0161006Y0187306D02*
X0163394Y0187306D01*
X0171600Y0194502D02*
X0189746Y0194502D01*
X0189000Y0196900D02*
X0171099Y0196900D01*
X0164359Y0199299D02*
X0189426Y0199299D01*
X0191543Y0201697D02*
X0161960Y0201697D01*
X0203057Y0223284D02*
X0211343Y0223284D01*
X0211481Y0223146D02*
X0213245Y0222415D01*
X0221155Y0222415D01*
X0222919Y0223146D01*
X0224269Y0224496D01*
X0225000Y0226260D01*
X0225000Y0228170D01*
X0224269Y0229934D01*
X0222919Y0231284D01*
X0221155Y0232015D01*
X0213245Y0232015D01*
X0211481Y0231284D01*
X0210131Y0229934D01*
X0209400Y0228170D01*
X0209400Y0226260D01*
X0210131Y0224496D01*
X0211481Y0223146D01*
X0211481Y0221284D02*
X0213245Y0222015D01*
X0221155Y0222015D01*
X0222919Y0221284D01*
X0224269Y0219934D01*
X0225000Y0218170D01*
X0225000Y0216260D01*
X0224269Y0214496D01*
X0222919Y0213146D01*
X0221155Y0212415D01*
X0213245Y0212415D01*
X0211481Y0213146D01*
X0210131Y0214496D01*
X0209400Y0216260D01*
X0209400Y0218170D01*
X0210131Y0219934D01*
X0211481Y0221284D01*
X0211082Y0220885D02*
X0203318Y0220885D01*
X0204869Y0218487D02*
X0209531Y0218487D01*
X0209471Y0216088D02*
X0204929Y0216088D01*
X0203463Y0213690D02*
X0210937Y0213690D01*
X0223463Y0213690D02*
X0230937Y0213690D01*
X0229471Y0216088D02*
X0224929Y0216088D01*
X0224869Y0218487D02*
X0229531Y0218487D01*
X0231082Y0220885D02*
X0223318Y0220885D01*
X0223057Y0223284D02*
X0231343Y0223284D01*
X0229639Y0225682D02*
X0224761Y0225682D01*
X0225000Y0228081D02*
X0229400Y0228081D01*
X0230676Y0230479D02*
X0223724Y0230479D01*
X0222925Y0232768D02*
X0223588Y0233249D01*
X0224166Y0233827D01*
X0224647Y0234490D01*
X0225019Y0235219D01*
X0225272Y0235997D01*
X0225400Y0236806D01*
X0225400Y0237215D01*
X0225400Y0237624D01*
X0225272Y0238433D01*
X0225019Y0239211D01*
X0224647Y0239940D01*
X0224166Y0240603D01*
X0223588Y0241181D01*
X0222925Y0241662D01*
X0222196Y0242034D01*
X0221418Y0242287D01*
X0220609Y0242415D01*
X0217200Y0242415D01*
X0217200Y0237215D01*
X0217200Y0237215D01*
X0217200Y0242415D01*
X0213791Y0242415D01*
X0212982Y0242287D01*
X0212204Y0242034D01*
X0211475Y0241662D01*
X0210812Y0241181D01*
X0210234Y0240603D01*
X0209753Y0239940D01*
X0209381Y0239211D01*
X0209128Y0238433D01*
X0209000Y0237624D01*
X0209000Y0237215D01*
X0217200Y0237215D01*
X0225400Y0237215D01*
X0217200Y0237215D01*
X0217200Y0237215D01*
X0217200Y0237215D01*
X0217200Y0232015D01*
X0220609Y0232015D01*
X0221418Y0232143D01*
X0222196Y0232396D01*
X0222925Y0232768D01*
X0223077Y0232878D02*
X0231323Y0232878D01*
X0231475Y0232768D02*
X0232204Y0232396D01*
X0232982Y0232143D01*
X0233791Y0232015D01*
X0237200Y0232015D01*
X0237200Y0237215D01*
X0237200Y0237215D01*
X0229000Y0237215D01*
X0229000Y0236806D01*
X0229128Y0235997D01*
X0229381Y0235219D01*
X0229753Y0234490D01*
X0230234Y0233827D01*
X0230812Y0233249D01*
X0231475Y0232768D01*
X0229362Y0235277D02*
X0225038Y0235277D01*
X0225392Y0237675D02*
X0229008Y0237675D01*
X0229849Y0240074D02*
X0224551Y0240074D01*
X0217200Y0240074D02*
X0217200Y0240074D01*
X0217200Y0237675D02*
X0217200Y0237675D01*
X0217200Y0237215D02*
X0209000Y0237215D01*
X0209000Y0236806D01*
X0209128Y0235997D01*
X0209381Y0235219D01*
X0209753Y0234490D01*
X0210234Y0233827D01*
X0210812Y0233249D01*
X0211475Y0232768D01*
X0212204Y0232396D01*
X0212982Y0232143D01*
X0213791Y0232015D01*
X0217200Y0232015D01*
X0217200Y0237215D01*
X0217200Y0237215D01*
X0217200Y0235277D02*
X0217200Y0235277D01*
X0217200Y0232878D02*
X0217200Y0232878D01*
X0211323Y0232878D02*
X0203077Y0232878D01*
X0203724Y0230479D02*
X0210676Y0230479D01*
X0209400Y0228081D02*
X0205000Y0228081D01*
X0204761Y0225682D02*
X0209639Y0225682D01*
X0197200Y0232878D02*
X0197200Y0232878D01*
X0197200Y0235277D02*
X0197200Y0235277D01*
X0197200Y0237675D02*
X0197200Y0237675D01*
X0197200Y0240074D02*
X0197200Y0240074D01*
X0204551Y0240074D02*
X0209849Y0240074D01*
X0209008Y0237675D02*
X0205392Y0237675D01*
X0205038Y0235277D02*
X0209362Y0235277D01*
X0237200Y0235277D02*
X0237200Y0235277D01*
X0237200Y0237675D02*
X0237200Y0237675D01*
X0237200Y0240074D02*
X0237200Y0240074D01*
X0237200Y0232878D02*
X0237200Y0232878D01*
X0237200Y0201697D02*
X0237200Y0201697D01*
X0237200Y0199299D02*
X0237200Y0199299D01*
X0237200Y0196900D02*
X0237200Y0196900D01*
X0237200Y0194502D02*
X0237200Y0194502D01*
X0237200Y0192103D02*
X0237200Y0192103D01*
X0244654Y0194502D02*
X0249746Y0194502D01*
X0249000Y0196900D02*
X0245400Y0196900D01*
X0244974Y0199299D02*
X0249426Y0199299D01*
X0251543Y0201697D02*
X0242857Y0201697D01*
X0162800Y0163321D02*
X0161700Y0163321D01*
X0161600Y0160923D02*
X0162800Y0160923D01*
X0162889Y0158524D02*
X0161511Y0158524D01*
X0159933Y0156126D02*
X0164467Y0156126D01*
X0154467Y0156126D02*
X0149933Y0156126D01*
X0151511Y0158524D02*
X0152889Y0158524D01*
X0152800Y0160923D02*
X0151600Y0160923D01*
X0151600Y0163321D02*
X0152800Y0163321D01*
X0152812Y0165720D02*
X0151588Y0165720D01*
X0150119Y0168118D02*
X0154281Y0168118D01*
X0162108Y0170517D02*
X0145115Y0170517D01*
X0084281Y0168118D02*
X0080119Y0168118D01*
X0081588Y0165720D02*
X0082812Y0165720D01*
X0082800Y0163321D02*
X0081600Y0163321D01*
X0081600Y0160923D02*
X0082800Y0160923D01*
X0082889Y0158524D02*
X0081511Y0158524D01*
X0079996Y0156126D02*
X0084200Y0156126D01*
X0084200Y0153727D02*
X0077955Y0153727D01*
X0075556Y0151329D02*
X0084200Y0151329D01*
X0080200Y0069779D02*
X0077311Y0069779D01*
X0078305Y0067381D02*
X0079205Y0067381D01*
X0079625Y0064982D02*
X0077886Y0064982D01*
X0083305Y0057787D02*
X0133949Y0057787D01*
X0132800Y0055388D02*
X0083054Y0055388D01*
X0081204Y0052990D02*
X0132800Y0052990D01*
X0132800Y0050591D02*
X0110566Y0050591D01*
X0112965Y0048193D02*
X0133027Y0048193D01*
X0134927Y0045794D02*
X0115363Y0045794D01*
X0122559Y0038599D02*
X0152139Y0038599D01*
X0153744Y0036200D02*
X0149437Y0036200D01*
X0149023Y0036615D02*
X0145377Y0036615D01*
X0142800Y0034037D01*
X0142800Y0030392D01*
X0145377Y0027815D01*
X0149023Y0027815D01*
X0151600Y0030392D01*
X0151600Y0034037D01*
X0149023Y0036615D01*
X0151600Y0033802D02*
X0156083Y0033802D01*
X0158317Y0033802D02*
X0160078Y0033802D01*
X0159800Y0031403D02*
X0151600Y0031403D01*
X0150212Y0029005D02*
X0161105Y0029005D01*
X0144188Y0029005D02*
X0132153Y0029005D01*
X0129755Y0031403D02*
X0142800Y0031403D01*
X0142800Y0033802D02*
X0127356Y0033802D01*
X0124958Y0036200D02*
X0144963Y0036200D01*
X0104175Y0040997D02*
X0009400Y0040997D01*
X0226791Y0029005D02*
X0227207Y0029005D01*
X0227000Y0031403D02*
X0227000Y0031403D01*
X0354119Y0031403D02*
X0359331Y0031403D01*
X0359331Y0029005D02*
X0356761Y0029005D01*
X0357850Y0026606D02*
X0359331Y0026606D01*
X0359331Y0024208D02*
X0358219Y0024208D01*
X0358001Y0021809D02*
X0359311Y0021809D01*
X0358765Y0019410D02*
X0357007Y0019410D01*
X0357353Y0017012D02*
X0354725Y0017012D01*
D23*
X0269700Y0089715D02*
X0242200Y0089715D01*
X0242200Y0062215D01*
X0242200Y0033465D01*
X0222200Y0062215D02*
X0222200Y0072215D01*
X0222200Y0089715D01*
X0269700Y0089715D02*
X0292200Y0112215D01*
X0292200Y0137215D01*
X0292200Y0177215D01*
X0292200Y0217215D01*
D24*
X0147200Y0052215D02*
X0147200Y0047215D01*
X0157200Y0037215D01*
X0167200Y0042215D02*
X0188450Y0042215D01*
X0194700Y0035965D01*
X0194700Y0033465D01*
D25*
X0157200Y0037215D03*
X0067200Y0049715D03*
X0247200Y0154715D03*
X0268450Y0158465D03*
X0277200Y0165965D03*
X0282200Y0162215D03*
X0184700Y0179715D03*
X0178450Y0174715D03*
D26*
X0184700Y0174715D01*
X0187200Y0177215D01*
X0197200Y0177215D01*
X0187200Y0182215D02*
X0184700Y0179715D01*
X0187200Y0182215D02*
X0232200Y0182215D01*
X0237200Y0177215D01*
X0268450Y0158465D02*
X0268450Y0144715D01*
X0260950Y0137215D01*
X0257200Y0137215D01*
X0247200Y0143465D02*
X0240950Y0137215D01*
X0237200Y0137215D01*
X0247200Y0143465D02*
X0247200Y0154715D01*
X0275950Y0164715D02*
X0277200Y0165965D01*
X0275950Y0164715D02*
X0174700Y0164715D01*
X0169700Y0169715D01*
X0164700Y0169715D01*
X0157200Y0162215D01*
X0167200Y0162215D02*
X0282200Y0162215D01*
M02*
