G75*
%MOIN*%
%OFA0B0*%
%FSLAX25Y25*%
%IPPOS*%
%LPD*%
%AMOC8*
5,1,8,0,0,1.08239X$1,22.5*
%
%ADD10C,0.00000*%
%ADD11C,0.12998*%
%ADD12OC8,0.06700*%
%ADD13C,0.05600*%
%ADD14C,0.06000*%
%ADD15OC8,0.05600*%
%ADD16C,0.05600*%
%ADD17C,0.06400*%
%ADD18OC8,0.06400*%
%ADD19C,0.06400*%
%ADD20C,0.05900*%
%ADD21C,0.13200*%
%ADD22R,0.05943X0.05943*%
%ADD23C,0.06700*%
D10*
X0017043Y0012215D02*
X0351688Y0012215D01*
X0351688Y0012214D02*
X0351926Y0012217D01*
X0352164Y0012225D01*
X0352401Y0012240D01*
X0352638Y0012260D01*
X0352874Y0012286D01*
X0353110Y0012317D01*
X0353345Y0012354D01*
X0353579Y0012397D01*
X0353812Y0012446D01*
X0354044Y0012500D01*
X0354274Y0012560D01*
X0354503Y0012625D01*
X0354730Y0012696D01*
X0354955Y0012772D01*
X0355178Y0012854D01*
X0355400Y0012941D01*
X0355619Y0013033D01*
X0355836Y0013131D01*
X0356050Y0013233D01*
X0356262Y0013341D01*
X0356472Y0013455D01*
X0356678Y0013573D01*
X0356882Y0013696D01*
X0357082Y0013824D01*
X0357279Y0013956D01*
X0357474Y0014094D01*
X0357664Y0014236D01*
X0357852Y0014383D01*
X0358035Y0014534D01*
X0358215Y0014689D01*
X0358391Y0014849D01*
X0358563Y0015013D01*
X0358732Y0015182D01*
X0358896Y0015354D01*
X0359056Y0015530D01*
X0359211Y0015710D01*
X0359362Y0015893D01*
X0359509Y0016081D01*
X0359651Y0016271D01*
X0359789Y0016466D01*
X0359921Y0016663D01*
X0360049Y0016863D01*
X0360172Y0017067D01*
X0360290Y0017273D01*
X0360404Y0017483D01*
X0360512Y0017695D01*
X0360614Y0017909D01*
X0360712Y0018126D01*
X0360804Y0018345D01*
X0360891Y0018567D01*
X0360973Y0018790D01*
X0361049Y0019015D01*
X0361120Y0019242D01*
X0361185Y0019471D01*
X0361245Y0019701D01*
X0361299Y0019933D01*
X0361348Y0020166D01*
X0361391Y0020400D01*
X0361428Y0020635D01*
X0361459Y0020871D01*
X0361485Y0021107D01*
X0361505Y0021344D01*
X0361520Y0021581D01*
X0361528Y0021819D01*
X0361531Y0022057D01*
X0361531Y0238593D01*
X0361528Y0238831D01*
X0361520Y0239069D01*
X0361505Y0239306D01*
X0361485Y0239543D01*
X0361459Y0239779D01*
X0361428Y0240015D01*
X0361391Y0240250D01*
X0361348Y0240484D01*
X0361299Y0240717D01*
X0361245Y0240949D01*
X0361185Y0241179D01*
X0361120Y0241408D01*
X0361049Y0241635D01*
X0360973Y0241860D01*
X0360891Y0242083D01*
X0360804Y0242305D01*
X0360712Y0242524D01*
X0360614Y0242741D01*
X0360512Y0242955D01*
X0360404Y0243167D01*
X0360290Y0243377D01*
X0360172Y0243583D01*
X0360049Y0243787D01*
X0359921Y0243987D01*
X0359789Y0244184D01*
X0359651Y0244379D01*
X0359509Y0244569D01*
X0359362Y0244757D01*
X0359211Y0244940D01*
X0359056Y0245120D01*
X0358896Y0245296D01*
X0358732Y0245468D01*
X0358563Y0245637D01*
X0358391Y0245801D01*
X0358215Y0245961D01*
X0358035Y0246116D01*
X0357852Y0246267D01*
X0357664Y0246414D01*
X0357474Y0246556D01*
X0357279Y0246694D01*
X0357082Y0246826D01*
X0356882Y0246954D01*
X0356678Y0247077D01*
X0356472Y0247195D01*
X0356262Y0247309D01*
X0356050Y0247417D01*
X0355836Y0247519D01*
X0355619Y0247617D01*
X0355400Y0247709D01*
X0355178Y0247796D01*
X0354955Y0247878D01*
X0354730Y0247954D01*
X0354503Y0248025D01*
X0354274Y0248090D01*
X0354044Y0248150D01*
X0353812Y0248204D01*
X0353579Y0248253D01*
X0353345Y0248296D01*
X0353110Y0248333D01*
X0352874Y0248364D01*
X0352638Y0248390D01*
X0352401Y0248410D01*
X0352164Y0248425D01*
X0351926Y0248433D01*
X0351688Y0248436D01*
X0351688Y0248435D02*
X0017043Y0248435D01*
X0017043Y0248436D02*
X0016805Y0248433D01*
X0016567Y0248425D01*
X0016330Y0248410D01*
X0016093Y0248390D01*
X0015857Y0248364D01*
X0015621Y0248333D01*
X0015386Y0248296D01*
X0015152Y0248253D01*
X0014919Y0248204D01*
X0014687Y0248150D01*
X0014457Y0248090D01*
X0014228Y0248025D01*
X0014001Y0247954D01*
X0013776Y0247878D01*
X0013553Y0247796D01*
X0013331Y0247709D01*
X0013112Y0247617D01*
X0012895Y0247519D01*
X0012681Y0247417D01*
X0012469Y0247309D01*
X0012259Y0247195D01*
X0012053Y0247077D01*
X0011849Y0246954D01*
X0011649Y0246826D01*
X0011452Y0246694D01*
X0011257Y0246556D01*
X0011067Y0246414D01*
X0010879Y0246267D01*
X0010696Y0246116D01*
X0010516Y0245961D01*
X0010340Y0245801D01*
X0010168Y0245637D01*
X0009999Y0245468D01*
X0009835Y0245296D01*
X0009675Y0245120D01*
X0009520Y0244940D01*
X0009369Y0244757D01*
X0009222Y0244569D01*
X0009080Y0244379D01*
X0008942Y0244184D01*
X0008810Y0243987D01*
X0008682Y0243787D01*
X0008559Y0243583D01*
X0008441Y0243377D01*
X0008327Y0243167D01*
X0008219Y0242955D01*
X0008117Y0242741D01*
X0008019Y0242524D01*
X0007927Y0242305D01*
X0007840Y0242083D01*
X0007758Y0241860D01*
X0007682Y0241635D01*
X0007611Y0241408D01*
X0007546Y0241179D01*
X0007486Y0240949D01*
X0007432Y0240717D01*
X0007383Y0240484D01*
X0007340Y0240250D01*
X0007303Y0240015D01*
X0007272Y0239779D01*
X0007246Y0239543D01*
X0007226Y0239306D01*
X0007211Y0239069D01*
X0007203Y0238831D01*
X0007200Y0238593D01*
X0007200Y0022057D01*
X0007203Y0021819D01*
X0007211Y0021581D01*
X0007226Y0021344D01*
X0007246Y0021107D01*
X0007272Y0020871D01*
X0007303Y0020635D01*
X0007340Y0020400D01*
X0007383Y0020166D01*
X0007432Y0019933D01*
X0007486Y0019701D01*
X0007546Y0019471D01*
X0007611Y0019242D01*
X0007682Y0019015D01*
X0007758Y0018790D01*
X0007840Y0018567D01*
X0007927Y0018345D01*
X0008019Y0018126D01*
X0008117Y0017909D01*
X0008219Y0017695D01*
X0008327Y0017483D01*
X0008441Y0017273D01*
X0008559Y0017067D01*
X0008682Y0016863D01*
X0008810Y0016663D01*
X0008942Y0016466D01*
X0009080Y0016271D01*
X0009222Y0016081D01*
X0009369Y0015893D01*
X0009520Y0015710D01*
X0009675Y0015530D01*
X0009835Y0015354D01*
X0009999Y0015182D01*
X0010168Y0015013D01*
X0010340Y0014849D01*
X0010516Y0014689D01*
X0010696Y0014534D01*
X0010879Y0014383D01*
X0011067Y0014236D01*
X0011257Y0014094D01*
X0011452Y0013956D01*
X0011649Y0013824D01*
X0011849Y0013696D01*
X0012053Y0013573D01*
X0012259Y0013455D01*
X0012469Y0013341D01*
X0012681Y0013233D01*
X0012895Y0013131D01*
X0013112Y0013033D01*
X0013331Y0012941D01*
X0013553Y0012854D01*
X0013776Y0012772D01*
X0014001Y0012696D01*
X0014228Y0012625D01*
X0014457Y0012560D01*
X0014687Y0012500D01*
X0014919Y0012446D01*
X0015152Y0012397D01*
X0015386Y0012354D01*
X0015621Y0012317D01*
X0015857Y0012286D01*
X0016093Y0012260D01*
X0016330Y0012240D01*
X0016567Y0012225D01*
X0016805Y0012217D01*
X0017043Y0012214D01*
X0012712Y0024026D02*
X0012714Y0024184D01*
X0012720Y0024342D01*
X0012730Y0024500D01*
X0012744Y0024658D01*
X0012762Y0024815D01*
X0012783Y0024972D01*
X0012809Y0025128D01*
X0012839Y0025284D01*
X0012872Y0025439D01*
X0012910Y0025592D01*
X0012951Y0025745D01*
X0012996Y0025897D01*
X0013045Y0026048D01*
X0013098Y0026197D01*
X0013154Y0026345D01*
X0013214Y0026491D01*
X0013278Y0026636D01*
X0013346Y0026779D01*
X0013417Y0026921D01*
X0013491Y0027061D01*
X0013569Y0027198D01*
X0013651Y0027334D01*
X0013735Y0027468D01*
X0013824Y0027599D01*
X0013915Y0027728D01*
X0014010Y0027855D01*
X0014107Y0027980D01*
X0014208Y0028102D01*
X0014312Y0028221D01*
X0014419Y0028338D01*
X0014529Y0028452D01*
X0014642Y0028563D01*
X0014757Y0028672D01*
X0014875Y0028777D01*
X0014996Y0028879D01*
X0015119Y0028979D01*
X0015245Y0029075D01*
X0015373Y0029168D01*
X0015503Y0029258D01*
X0015636Y0029344D01*
X0015771Y0029428D01*
X0015907Y0029507D01*
X0016046Y0029584D01*
X0016187Y0029656D01*
X0016329Y0029726D01*
X0016473Y0029791D01*
X0016619Y0029853D01*
X0016766Y0029911D01*
X0016915Y0029966D01*
X0017065Y0030017D01*
X0017216Y0030064D01*
X0017368Y0030107D01*
X0017521Y0030146D01*
X0017676Y0030182D01*
X0017831Y0030213D01*
X0017987Y0030241D01*
X0018143Y0030265D01*
X0018300Y0030285D01*
X0018458Y0030301D01*
X0018615Y0030313D01*
X0018774Y0030321D01*
X0018932Y0030325D01*
X0019090Y0030325D01*
X0019248Y0030321D01*
X0019407Y0030313D01*
X0019564Y0030301D01*
X0019722Y0030285D01*
X0019879Y0030265D01*
X0020035Y0030241D01*
X0020191Y0030213D01*
X0020346Y0030182D01*
X0020501Y0030146D01*
X0020654Y0030107D01*
X0020806Y0030064D01*
X0020957Y0030017D01*
X0021107Y0029966D01*
X0021256Y0029911D01*
X0021403Y0029853D01*
X0021549Y0029791D01*
X0021693Y0029726D01*
X0021835Y0029656D01*
X0021976Y0029584D01*
X0022115Y0029507D01*
X0022251Y0029428D01*
X0022386Y0029344D01*
X0022519Y0029258D01*
X0022649Y0029168D01*
X0022777Y0029075D01*
X0022903Y0028979D01*
X0023026Y0028879D01*
X0023147Y0028777D01*
X0023265Y0028672D01*
X0023380Y0028563D01*
X0023493Y0028452D01*
X0023603Y0028338D01*
X0023710Y0028221D01*
X0023814Y0028102D01*
X0023915Y0027980D01*
X0024012Y0027855D01*
X0024107Y0027728D01*
X0024198Y0027599D01*
X0024287Y0027468D01*
X0024371Y0027334D01*
X0024453Y0027198D01*
X0024531Y0027061D01*
X0024605Y0026921D01*
X0024676Y0026779D01*
X0024744Y0026636D01*
X0024808Y0026491D01*
X0024868Y0026345D01*
X0024924Y0026197D01*
X0024977Y0026048D01*
X0025026Y0025897D01*
X0025071Y0025745D01*
X0025112Y0025592D01*
X0025150Y0025439D01*
X0025183Y0025284D01*
X0025213Y0025128D01*
X0025239Y0024972D01*
X0025260Y0024815D01*
X0025278Y0024658D01*
X0025292Y0024500D01*
X0025302Y0024342D01*
X0025308Y0024184D01*
X0025310Y0024026D01*
X0025308Y0023868D01*
X0025302Y0023710D01*
X0025292Y0023552D01*
X0025278Y0023394D01*
X0025260Y0023237D01*
X0025239Y0023080D01*
X0025213Y0022924D01*
X0025183Y0022768D01*
X0025150Y0022613D01*
X0025112Y0022460D01*
X0025071Y0022307D01*
X0025026Y0022155D01*
X0024977Y0022004D01*
X0024924Y0021855D01*
X0024868Y0021707D01*
X0024808Y0021561D01*
X0024744Y0021416D01*
X0024676Y0021273D01*
X0024605Y0021131D01*
X0024531Y0020991D01*
X0024453Y0020854D01*
X0024371Y0020718D01*
X0024287Y0020584D01*
X0024198Y0020453D01*
X0024107Y0020324D01*
X0024012Y0020197D01*
X0023915Y0020072D01*
X0023814Y0019950D01*
X0023710Y0019831D01*
X0023603Y0019714D01*
X0023493Y0019600D01*
X0023380Y0019489D01*
X0023265Y0019380D01*
X0023147Y0019275D01*
X0023026Y0019173D01*
X0022903Y0019073D01*
X0022777Y0018977D01*
X0022649Y0018884D01*
X0022519Y0018794D01*
X0022386Y0018708D01*
X0022251Y0018624D01*
X0022115Y0018545D01*
X0021976Y0018468D01*
X0021835Y0018396D01*
X0021693Y0018326D01*
X0021549Y0018261D01*
X0021403Y0018199D01*
X0021256Y0018141D01*
X0021107Y0018086D01*
X0020957Y0018035D01*
X0020806Y0017988D01*
X0020654Y0017945D01*
X0020501Y0017906D01*
X0020346Y0017870D01*
X0020191Y0017839D01*
X0020035Y0017811D01*
X0019879Y0017787D01*
X0019722Y0017767D01*
X0019564Y0017751D01*
X0019407Y0017739D01*
X0019248Y0017731D01*
X0019090Y0017727D01*
X0018932Y0017727D01*
X0018774Y0017731D01*
X0018615Y0017739D01*
X0018458Y0017751D01*
X0018300Y0017767D01*
X0018143Y0017787D01*
X0017987Y0017811D01*
X0017831Y0017839D01*
X0017676Y0017870D01*
X0017521Y0017906D01*
X0017368Y0017945D01*
X0017216Y0017988D01*
X0017065Y0018035D01*
X0016915Y0018086D01*
X0016766Y0018141D01*
X0016619Y0018199D01*
X0016473Y0018261D01*
X0016329Y0018326D01*
X0016187Y0018396D01*
X0016046Y0018468D01*
X0015907Y0018545D01*
X0015771Y0018624D01*
X0015636Y0018708D01*
X0015503Y0018794D01*
X0015373Y0018884D01*
X0015245Y0018977D01*
X0015119Y0019073D01*
X0014996Y0019173D01*
X0014875Y0019275D01*
X0014757Y0019380D01*
X0014642Y0019489D01*
X0014529Y0019600D01*
X0014419Y0019714D01*
X0014312Y0019831D01*
X0014208Y0019950D01*
X0014107Y0020072D01*
X0014010Y0020197D01*
X0013915Y0020324D01*
X0013824Y0020453D01*
X0013735Y0020584D01*
X0013651Y0020718D01*
X0013569Y0020854D01*
X0013491Y0020991D01*
X0013417Y0021131D01*
X0013346Y0021273D01*
X0013278Y0021416D01*
X0013214Y0021561D01*
X0013154Y0021707D01*
X0013098Y0021855D01*
X0013045Y0022004D01*
X0012996Y0022155D01*
X0012951Y0022307D01*
X0012910Y0022460D01*
X0012872Y0022613D01*
X0012839Y0022768D01*
X0012809Y0022924D01*
X0012783Y0023080D01*
X0012762Y0023237D01*
X0012744Y0023394D01*
X0012730Y0023552D01*
X0012720Y0023710D01*
X0012714Y0023868D01*
X0012712Y0024026D01*
X0037355Y0031900D02*
X0037357Y0032060D01*
X0037363Y0032219D01*
X0037373Y0032378D01*
X0037387Y0032537D01*
X0037405Y0032696D01*
X0037426Y0032854D01*
X0037452Y0033011D01*
X0037482Y0033168D01*
X0037515Y0033324D01*
X0037553Y0033479D01*
X0037594Y0033633D01*
X0037639Y0033786D01*
X0037688Y0033938D01*
X0037741Y0034089D01*
X0037797Y0034238D01*
X0037858Y0034386D01*
X0037921Y0034532D01*
X0037989Y0034677D01*
X0038060Y0034820D01*
X0038134Y0034961D01*
X0038212Y0035100D01*
X0038294Y0035237D01*
X0038379Y0035372D01*
X0038467Y0035505D01*
X0038559Y0035636D01*
X0038653Y0035764D01*
X0038751Y0035890D01*
X0038852Y0036014D01*
X0038956Y0036135D01*
X0039063Y0036253D01*
X0039173Y0036369D01*
X0039286Y0036482D01*
X0039402Y0036592D01*
X0039520Y0036699D01*
X0039641Y0036803D01*
X0039765Y0036904D01*
X0039891Y0037002D01*
X0040019Y0037096D01*
X0040150Y0037188D01*
X0040283Y0037276D01*
X0040418Y0037361D01*
X0040555Y0037443D01*
X0040694Y0037521D01*
X0040835Y0037595D01*
X0040978Y0037666D01*
X0041123Y0037734D01*
X0041269Y0037797D01*
X0041417Y0037858D01*
X0041566Y0037914D01*
X0041717Y0037967D01*
X0041869Y0038016D01*
X0042022Y0038061D01*
X0042176Y0038102D01*
X0042331Y0038140D01*
X0042487Y0038173D01*
X0042644Y0038203D01*
X0042801Y0038229D01*
X0042959Y0038250D01*
X0043118Y0038268D01*
X0043277Y0038282D01*
X0043436Y0038292D01*
X0043595Y0038298D01*
X0043755Y0038300D01*
X0043915Y0038298D01*
X0044074Y0038292D01*
X0044233Y0038282D01*
X0044392Y0038268D01*
X0044551Y0038250D01*
X0044709Y0038229D01*
X0044866Y0038203D01*
X0045023Y0038173D01*
X0045179Y0038140D01*
X0045334Y0038102D01*
X0045488Y0038061D01*
X0045641Y0038016D01*
X0045793Y0037967D01*
X0045944Y0037914D01*
X0046093Y0037858D01*
X0046241Y0037797D01*
X0046387Y0037734D01*
X0046532Y0037666D01*
X0046675Y0037595D01*
X0046816Y0037521D01*
X0046955Y0037443D01*
X0047092Y0037361D01*
X0047227Y0037276D01*
X0047360Y0037188D01*
X0047491Y0037096D01*
X0047619Y0037002D01*
X0047745Y0036904D01*
X0047869Y0036803D01*
X0047990Y0036699D01*
X0048108Y0036592D01*
X0048224Y0036482D01*
X0048337Y0036369D01*
X0048447Y0036253D01*
X0048554Y0036135D01*
X0048658Y0036014D01*
X0048759Y0035890D01*
X0048857Y0035764D01*
X0048951Y0035636D01*
X0049043Y0035505D01*
X0049131Y0035372D01*
X0049216Y0035237D01*
X0049298Y0035100D01*
X0049376Y0034961D01*
X0049450Y0034820D01*
X0049521Y0034677D01*
X0049589Y0034532D01*
X0049652Y0034386D01*
X0049713Y0034238D01*
X0049769Y0034089D01*
X0049822Y0033938D01*
X0049871Y0033786D01*
X0049916Y0033633D01*
X0049957Y0033479D01*
X0049995Y0033324D01*
X0050028Y0033168D01*
X0050058Y0033011D01*
X0050084Y0032854D01*
X0050105Y0032696D01*
X0050123Y0032537D01*
X0050137Y0032378D01*
X0050147Y0032219D01*
X0050153Y0032060D01*
X0050155Y0031900D01*
X0050153Y0031740D01*
X0050147Y0031581D01*
X0050137Y0031422D01*
X0050123Y0031263D01*
X0050105Y0031104D01*
X0050084Y0030946D01*
X0050058Y0030789D01*
X0050028Y0030632D01*
X0049995Y0030476D01*
X0049957Y0030321D01*
X0049916Y0030167D01*
X0049871Y0030014D01*
X0049822Y0029862D01*
X0049769Y0029711D01*
X0049713Y0029562D01*
X0049652Y0029414D01*
X0049589Y0029268D01*
X0049521Y0029123D01*
X0049450Y0028980D01*
X0049376Y0028839D01*
X0049298Y0028700D01*
X0049216Y0028563D01*
X0049131Y0028428D01*
X0049043Y0028295D01*
X0048951Y0028164D01*
X0048857Y0028036D01*
X0048759Y0027910D01*
X0048658Y0027786D01*
X0048554Y0027665D01*
X0048447Y0027547D01*
X0048337Y0027431D01*
X0048224Y0027318D01*
X0048108Y0027208D01*
X0047990Y0027101D01*
X0047869Y0026997D01*
X0047745Y0026896D01*
X0047619Y0026798D01*
X0047491Y0026704D01*
X0047360Y0026612D01*
X0047227Y0026524D01*
X0047092Y0026439D01*
X0046955Y0026357D01*
X0046816Y0026279D01*
X0046675Y0026205D01*
X0046532Y0026134D01*
X0046387Y0026066D01*
X0046241Y0026003D01*
X0046093Y0025942D01*
X0045944Y0025886D01*
X0045793Y0025833D01*
X0045641Y0025784D01*
X0045488Y0025739D01*
X0045334Y0025698D01*
X0045179Y0025660D01*
X0045023Y0025627D01*
X0044866Y0025597D01*
X0044709Y0025571D01*
X0044551Y0025550D01*
X0044392Y0025532D01*
X0044233Y0025518D01*
X0044074Y0025508D01*
X0043915Y0025502D01*
X0043755Y0025500D01*
X0043595Y0025502D01*
X0043436Y0025508D01*
X0043277Y0025518D01*
X0043118Y0025532D01*
X0042959Y0025550D01*
X0042801Y0025571D01*
X0042644Y0025597D01*
X0042487Y0025627D01*
X0042331Y0025660D01*
X0042176Y0025698D01*
X0042022Y0025739D01*
X0041869Y0025784D01*
X0041717Y0025833D01*
X0041566Y0025886D01*
X0041417Y0025942D01*
X0041269Y0026003D01*
X0041123Y0026066D01*
X0040978Y0026134D01*
X0040835Y0026205D01*
X0040694Y0026279D01*
X0040555Y0026357D01*
X0040418Y0026439D01*
X0040283Y0026524D01*
X0040150Y0026612D01*
X0040019Y0026704D01*
X0039891Y0026798D01*
X0039765Y0026896D01*
X0039641Y0026997D01*
X0039520Y0027101D01*
X0039402Y0027208D01*
X0039286Y0027318D01*
X0039173Y0027431D01*
X0039063Y0027547D01*
X0038956Y0027665D01*
X0038852Y0027786D01*
X0038751Y0027910D01*
X0038653Y0028036D01*
X0038559Y0028164D01*
X0038467Y0028295D01*
X0038379Y0028428D01*
X0038294Y0028563D01*
X0038212Y0028700D01*
X0038134Y0028839D01*
X0038060Y0028980D01*
X0037989Y0029123D01*
X0037921Y0029268D01*
X0037858Y0029414D01*
X0037797Y0029562D01*
X0037741Y0029711D01*
X0037688Y0029862D01*
X0037639Y0030014D01*
X0037594Y0030167D01*
X0037553Y0030321D01*
X0037515Y0030476D01*
X0037482Y0030632D01*
X0037452Y0030789D01*
X0037426Y0030946D01*
X0037405Y0031104D01*
X0037387Y0031263D01*
X0037373Y0031422D01*
X0037363Y0031581D01*
X0037357Y0031740D01*
X0037355Y0031900D01*
X0082355Y0031900D02*
X0082357Y0032060D01*
X0082363Y0032219D01*
X0082373Y0032378D01*
X0082387Y0032537D01*
X0082405Y0032696D01*
X0082426Y0032854D01*
X0082452Y0033011D01*
X0082482Y0033168D01*
X0082515Y0033324D01*
X0082553Y0033479D01*
X0082594Y0033633D01*
X0082639Y0033786D01*
X0082688Y0033938D01*
X0082741Y0034089D01*
X0082797Y0034238D01*
X0082858Y0034386D01*
X0082921Y0034532D01*
X0082989Y0034677D01*
X0083060Y0034820D01*
X0083134Y0034961D01*
X0083212Y0035100D01*
X0083294Y0035237D01*
X0083379Y0035372D01*
X0083467Y0035505D01*
X0083559Y0035636D01*
X0083653Y0035764D01*
X0083751Y0035890D01*
X0083852Y0036014D01*
X0083956Y0036135D01*
X0084063Y0036253D01*
X0084173Y0036369D01*
X0084286Y0036482D01*
X0084402Y0036592D01*
X0084520Y0036699D01*
X0084641Y0036803D01*
X0084765Y0036904D01*
X0084891Y0037002D01*
X0085019Y0037096D01*
X0085150Y0037188D01*
X0085283Y0037276D01*
X0085418Y0037361D01*
X0085555Y0037443D01*
X0085694Y0037521D01*
X0085835Y0037595D01*
X0085978Y0037666D01*
X0086123Y0037734D01*
X0086269Y0037797D01*
X0086417Y0037858D01*
X0086566Y0037914D01*
X0086717Y0037967D01*
X0086869Y0038016D01*
X0087022Y0038061D01*
X0087176Y0038102D01*
X0087331Y0038140D01*
X0087487Y0038173D01*
X0087644Y0038203D01*
X0087801Y0038229D01*
X0087959Y0038250D01*
X0088118Y0038268D01*
X0088277Y0038282D01*
X0088436Y0038292D01*
X0088595Y0038298D01*
X0088755Y0038300D01*
X0088915Y0038298D01*
X0089074Y0038292D01*
X0089233Y0038282D01*
X0089392Y0038268D01*
X0089551Y0038250D01*
X0089709Y0038229D01*
X0089866Y0038203D01*
X0090023Y0038173D01*
X0090179Y0038140D01*
X0090334Y0038102D01*
X0090488Y0038061D01*
X0090641Y0038016D01*
X0090793Y0037967D01*
X0090944Y0037914D01*
X0091093Y0037858D01*
X0091241Y0037797D01*
X0091387Y0037734D01*
X0091532Y0037666D01*
X0091675Y0037595D01*
X0091816Y0037521D01*
X0091955Y0037443D01*
X0092092Y0037361D01*
X0092227Y0037276D01*
X0092360Y0037188D01*
X0092491Y0037096D01*
X0092619Y0037002D01*
X0092745Y0036904D01*
X0092869Y0036803D01*
X0092990Y0036699D01*
X0093108Y0036592D01*
X0093224Y0036482D01*
X0093337Y0036369D01*
X0093447Y0036253D01*
X0093554Y0036135D01*
X0093658Y0036014D01*
X0093759Y0035890D01*
X0093857Y0035764D01*
X0093951Y0035636D01*
X0094043Y0035505D01*
X0094131Y0035372D01*
X0094216Y0035237D01*
X0094298Y0035100D01*
X0094376Y0034961D01*
X0094450Y0034820D01*
X0094521Y0034677D01*
X0094589Y0034532D01*
X0094652Y0034386D01*
X0094713Y0034238D01*
X0094769Y0034089D01*
X0094822Y0033938D01*
X0094871Y0033786D01*
X0094916Y0033633D01*
X0094957Y0033479D01*
X0094995Y0033324D01*
X0095028Y0033168D01*
X0095058Y0033011D01*
X0095084Y0032854D01*
X0095105Y0032696D01*
X0095123Y0032537D01*
X0095137Y0032378D01*
X0095147Y0032219D01*
X0095153Y0032060D01*
X0095155Y0031900D01*
X0095153Y0031740D01*
X0095147Y0031581D01*
X0095137Y0031422D01*
X0095123Y0031263D01*
X0095105Y0031104D01*
X0095084Y0030946D01*
X0095058Y0030789D01*
X0095028Y0030632D01*
X0094995Y0030476D01*
X0094957Y0030321D01*
X0094916Y0030167D01*
X0094871Y0030014D01*
X0094822Y0029862D01*
X0094769Y0029711D01*
X0094713Y0029562D01*
X0094652Y0029414D01*
X0094589Y0029268D01*
X0094521Y0029123D01*
X0094450Y0028980D01*
X0094376Y0028839D01*
X0094298Y0028700D01*
X0094216Y0028563D01*
X0094131Y0028428D01*
X0094043Y0028295D01*
X0093951Y0028164D01*
X0093857Y0028036D01*
X0093759Y0027910D01*
X0093658Y0027786D01*
X0093554Y0027665D01*
X0093447Y0027547D01*
X0093337Y0027431D01*
X0093224Y0027318D01*
X0093108Y0027208D01*
X0092990Y0027101D01*
X0092869Y0026997D01*
X0092745Y0026896D01*
X0092619Y0026798D01*
X0092491Y0026704D01*
X0092360Y0026612D01*
X0092227Y0026524D01*
X0092092Y0026439D01*
X0091955Y0026357D01*
X0091816Y0026279D01*
X0091675Y0026205D01*
X0091532Y0026134D01*
X0091387Y0026066D01*
X0091241Y0026003D01*
X0091093Y0025942D01*
X0090944Y0025886D01*
X0090793Y0025833D01*
X0090641Y0025784D01*
X0090488Y0025739D01*
X0090334Y0025698D01*
X0090179Y0025660D01*
X0090023Y0025627D01*
X0089866Y0025597D01*
X0089709Y0025571D01*
X0089551Y0025550D01*
X0089392Y0025532D01*
X0089233Y0025518D01*
X0089074Y0025508D01*
X0088915Y0025502D01*
X0088755Y0025500D01*
X0088595Y0025502D01*
X0088436Y0025508D01*
X0088277Y0025518D01*
X0088118Y0025532D01*
X0087959Y0025550D01*
X0087801Y0025571D01*
X0087644Y0025597D01*
X0087487Y0025627D01*
X0087331Y0025660D01*
X0087176Y0025698D01*
X0087022Y0025739D01*
X0086869Y0025784D01*
X0086717Y0025833D01*
X0086566Y0025886D01*
X0086417Y0025942D01*
X0086269Y0026003D01*
X0086123Y0026066D01*
X0085978Y0026134D01*
X0085835Y0026205D01*
X0085694Y0026279D01*
X0085555Y0026357D01*
X0085418Y0026439D01*
X0085283Y0026524D01*
X0085150Y0026612D01*
X0085019Y0026704D01*
X0084891Y0026798D01*
X0084765Y0026896D01*
X0084641Y0026997D01*
X0084520Y0027101D01*
X0084402Y0027208D01*
X0084286Y0027318D01*
X0084173Y0027431D01*
X0084063Y0027547D01*
X0083956Y0027665D01*
X0083852Y0027786D01*
X0083751Y0027910D01*
X0083653Y0028036D01*
X0083559Y0028164D01*
X0083467Y0028295D01*
X0083379Y0028428D01*
X0083294Y0028563D01*
X0083212Y0028700D01*
X0083134Y0028839D01*
X0083060Y0028980D01*
X0082989Y0029123D01*
X0082921Y0029268D01*
X0082858Y0029414D01*
X0082797Y0029562D01*
X0082741Y0029711D01*
X0082688Y0029862D01*
X0082639Y0030014D01*
X0082594Y0030167D01*
X0082553Y0030321D01*
X0082515Y0030476D01*
X0082482Y0030632D01*
X0082452Y0030789D01*
X0082426Y0030946D01*
X0082405Y0031104D01*
X0082387Y0031263D01*
X0082373Y0031422D01*
X0082363Y0031581D01*
X0082357Y0031740D01*
X0082355Y0031900D01*
X0273576Y0031900D02*
X0273578Y0032060D01*
X0273584Y0032219D01*
X0273594Y0032378D01*
X0273608Y0032537D01*
X0273626Y0032696D01*
X0273647Y0032854D01*
X0273673Y0033011D01*
X0273703Y0033168D01*
X0273736Y0033324D01*
X0273774Y0033479D01*
X0273815Y0033633D01*
X0273860Y0033786D01*
X0273909Y0033938D01*
X0273962Y0034089D01*
X0274018Y0034238D01*
X0274079Y0034386D01*
X0274142Y0034532D01*
X0274210Y0034677D01*
X0274281Y0034820D01*
X0274355Y0034961D01*
X0274433Y0035100D01*
X0274515Y0035237D01*
X0274600Y0035372D01*
X0274688Y0035505D01*
X0274780Y0035636D01*
X0274874Y0035764D01*
X0274972Y0035890D01*
X0275073Y0036014D01*
X0275177Y0036135D01*
X0275284Y0036253D01*
X0275394Y0036369D01*
X0275507Y0036482D01*
X0275623Y0036592D01*
X0275741Y0036699D01*
X0275862Y0036803D01*
X0275986Y0036904D01*
X0276112Y0037002D01*
X0276240Y0037096D01*
X0276371Y0037188D01*
X0276504Y0037276D01*
X0276639Y0037361D01*
X0276776Y0037443D01*
X0276915Y0037521D01*
X0277056Y0037595D01*
X0277199Y0037666D01*
X0277344Y0037734D01*
X0277490Y0037797D01*
X0277638Y0037858D01*
X0277787Y0037914D01*
X0277938Y0037967D01*
X0278090Y0038016D01*
X0278243Y0038061D01*
X0278397Y0038102D01*
X0278552Y0038140D01*
X0278708Y0038173D01*
X0278865Y0038203D01*
X0279022Y0038229D01*
X0279180Y0038250D01*
X0279339Y0038268D01*
X0279498Y0038282D01*
X0279657Y0038292D01*
X0279816Y0038298D01*
X0279976Y0038300D01*
X0280136Y0038298D01*
X0280295Y0038292D01*
X0280454Y0038282D01*
X0280613Y0038268D01*
X0280772Y0038250D01*
X0280930Y0038229D01*
X0281087Y0038203D01*
X0281244Y0038173D01*
X0281400Y0038140D01*
X0281555Y0038102D01*
X0281709Y0038061D01*
X0281862Y0038016D01*
X0282014Y0037967D01*
X0282165Y0037914D01*
X0282314Y0037858D01*
X0282462Y0037797D01*
X0282608Y0037734D01*
X0282753Y0037666D01*
X0282896Y0037595D01*
X0283037Y0037521D01*
X0283176Y0037443D01*
X0283313Y0037361D01*
X0283448Y0037276D01*
X0283581Y0037188D01*
X0283712Y0037096D01*
X0283840Y0037002D01*
X0283966Y0036904D01*
X0284090Y0036803D01*
X0284211Y0036699D01*
X0284329Y0036592D01*
X0284445Y0036482D01*
X0284558Y0036369D01*
X0284668Y0036253D01*
X0284775Y0036135D01*
X0284879Y0036014D01*
X0284980Y0035890D01*
X0285078Y0035764D01*
X0285172Y0035636D01*
X0285264Y0035505D01*
X0285352Y0035372D01*
X0285437Y0035237D01*
X0285519Y0035100D01*
X0285597Y0034961D01*
X0285671Y0034820D01*
X0285742Y0034677D01*
X0285810Y0034532D01*
X0285873Y0034386D01*
X0285934Y0034238D01*
X0285990Y0034089D01*
X0286043Y0033938D01*
X0286092Y0033786D01*
X0286137Y0033633D01*
X0286178Y0033479D01*
X0286216Y0033324D01*
X0286249Y0033168D01*
X0286279Y0033011D01*
X0286305Y0032854D01*
X0286326Y0032696D01*
X0286344Y0032537D01*
X0286358Y0032378D01*
X0286368Y0032219D01*
X0286374Y0032060D01*
X0286376Y0031900D01*
X0286374Y0031740D01*
X0286368Y0031581D01*
X0286358Y0031422D01*
X0286344Y0031263D01*
X0286326Y0031104D01*
X0286305Y0030946D01*
X0286279Y0030789D01*
X0286249Y0030632D01*
X0286216Y0030476D01*
X0286178Y0030321D01*
X0286137Y0030167D01*
X0286092Y0030014D01*
X0286043Y0029862D01*
X0285990Y0029711D01*
X0285934Y0029562D01*
X0285873Y0029414D01*
X0285810Y0029268D01*
X0285742Y0029123D01*
X0285671Y0028980D01*
X0285597Y0028839D01*
X0285519Y0028700D01*
X0285437Y0028563D01*
X0285352Y0028428D01*
X0285264Y0028295D01*
X0285172Y0028164D01*
X0285078Y0028036D01*
X0284980Y0027910D01*
X0284879Y0027786D01*
X0284775Y0027665D01*
X0284668Y0027547D01*
X0284558Y0027431D01*
X0284445Y0027318D01*
X0284329Y0027208D01*
X0284211Y0027101D01*
X0284090Y0026997D01*
X0283966Y0026896D01*
X0283840Y0026798D01*
X0283712Y0026704D01*
X0283581Y0026612D01*
X0283448Y0026524D01*
X0283313Y0026439D01*
X0283176Y0026357D01*
X0283037Y0026279D01*
X0282896Y0026205D01*
X0282753Y0026134D01*
X0282608Y0026066D01*
X0282462Y0026003D01*
X0282314Y0025942D01*
X0282165Y0025886D01*
X0282014Y0025833D01*
X0281862Y0025784D01*
X0281709Y0025739D01*
X0281555Y0025698D01*
X0281400Y0025660D01*
X0281244Y0025627D01*
X0281087Y0025597D01*
X0280930Y0025571D01*
X0280772Y0025550D01*
X0280613Y0025532D01*
X0280454Y0025518D01*
X0280295Y0025508D01*
X0280136Y0025502D01*
X0279976Y0025500D01*
X0279816Y0025502D01*
X0279657Y0025508D01*
X0279498Y0025518D01*
X0279339Y0025532D01*
X0279180Y0025550D01*
X0279022Y0025571D01*
X0278865Y0025597D01*
X0278708Y0025627D01*
X0278552Y0025660D01*
X0278397Y0025698D01*
X0278243Y0025739D01*
X0278090Y0025784D01*
X0277938Y0025833D01*
X0277787Y0025886D01*
X0277638Y0025942D01*
X0277490Y0026003D01*
X0277344Y0026066D01*
X0277199Y0026134D01*
X0277056Y0026205D01*
X0276915Y0026279D01*
X0276776Y0026357D01*
X0276639Y0026439D01*
X0276504Y0026524D01*
X0276371Y0026612D01*
X0276240Y0026704D01*
X0276112Y0026798D01*
X0275986Y0026896D01*
X0275862Y0026997D01*
X0275741Y0027101D01*
X0275623Y0027208D01*
X0275507Y0027318D01*
X0275394Y0027431D01*
X0275284Y0027547D01*
X0275177Y0027665D01*
X0275073Y0027786D01*
X0274972Y0027910D01*
X0274874Y0028036D01*
X0274780Y0028164D01*
X0274688Y0028295D01*
X0274600Y0028428D01*
X0274515Y0028563D01*
X0274433Y0028700D01*
X0274355Y0028839D01*
X0274281Y0028980D01*
X0274210Y0029123D01*
X0274142Y0029268D01*
X0274079Y0029414D01*
X0274018Y0029562D01*
X0273962Y0029711D01*
X0273909Y0029862D01*
X0273860Y0030014D01*
X0273815Y0030167D01*
X0273774Y0030321D01*
X0273736Y0030476D01*
X0273703Y0030632D01*
X0273673Y0030789D01*
X0273647Y0030946D01*
X0273626Y0031104D01*
X0273608Y0031263D01*
X0273594Y0031422D01*
X0273584Y0031581D01*
X0273578Y0031740D01*
X0273576Y0031900D01*
X0318576Y0031900D02*
X0318578Y0032060D01*
X0318584Y0032219D01*
X0318594Y0032378D01*
X0318608Y0032537D01*
X0318626Y0032696D01*
X0318647Y0032854D01*
X0318673Y0033011D01*
X0318703Y0033168D01*
X0318736Y0033324D01*
X0318774Y0033479D01*
X0318815Y0033633D01*
X0318860Y0033786D01*
X0318909Y0033938D01*
X0318962Y0034089D01*
X0319018Y0034238D01*
X0319079Y0034386D01*
X0319142Y0034532D01*
X0319210Y0034677D01*
X0319281Y0034820D01*
X0319355Y0034961D01*
X0319433Y0035100D01*
X0319515Y0035237D01*
X0319600Y0035372D01*
X0319688Y0035505D01*
X0319780Y0035636D01*
X0319874Y0035764D01*
X0319972Y0035890D01*
X0320073Y0036014D01*
X0320177Y0036135D01*
X0320284Y0036253D01*
X0320394Y0036369D01*
X0320507Y0036482D01*
X0320623Y0036592D01*
X0320741Y0036699D01*
X0320862Y0036803D01*
X0320986Y0036904D01*
X0321112Y0037002D01*
X0321240Y0037096D01*
X0321371Y0037188D01*
X0321504Y0037276D01*
X0321639Y0037361D01*
X0321776Y0037443D01*
X0321915Y0037521D01*
X0322056Y0037595D01*
X0322199Y0037666D01*
X0322344Y0037734D01*
X0322490Y0037797D01*
X0322638Y0037858D01*
X0322787Y0037914D01*
X0322938Y0037967D01*
X0323090Y0038016D01*
X0323243Y0038061D01*
X0323397Y0038102D01*
X0323552Y0038140D01*
X0323708Y0038173D01*
X0323865Y0038203D01*
X0324022Y0038229D01*
X0324180Y0038250D01*
X0324339Y0038268D01*
X0324498Y0038282D01*
X0324657Y0038292D01*
X0324816Y0038298D01*
X0324976Y0038300D01*
X0325136Y0038298D01*
X0325295Y0038292D01*
X0325454Y0038282D01*
X0325613Y0038268D01*
X0325772Y0038250D01*
X0325930Y0038229D01*
X0326087Y0038203D01*
X0326244Y0038173D01*
X0326400Y0038140D01*
X0326555Y0038102D01*
X0326709Y0038061D01*
X0326862Y0038016D01*
X0327014Y0037967D01*
X0327165Y0037914D01*
X0327314Y0037858D01*
X0327462Y0037797D01*
X0327608Y0037734D01*
X0327753Y0037666D01*
X0327896Y0037595D01*
X0328037Y0037521D01*
X0328176Y0037443D01*
X0328313Y0037361D01*
X0328448Y0037276D01*
X0328581Y0037188D01*
X0328712Y0037096D01*
X0328840Y0037002D01*
X0328966Y0036904D01*
X0329090Y0036803D01*
X0329211Y0036699D01*
X0329329Y0036592D01*
X0329445Y0036482D01*
X0329558Y0036369D01*
X0329668Y0036253D01*
X0329775Y0036135D01*
X0329879Y0036014D01*
X0329980Y0035890D01*
X0330078Y0035764D01*
X0330172Y0035636D01*
X0330264Y0035505D01*
X0330352Y0035372D01*
X0330437Y0035237D01*
X0330519Y0035100D01*
X0330597Y0034961D01*
X0330671Y0034820D01*
X0330742Y0034677D01*
X0330810Y0034532D01*
X0330873Y0034386D01*
X0330934Y0034238D01*
X0330990Y0034089D01*
X0331043Y0033938D01*
X0331092Y0033786D01*
X0331137Y0033633D01*
X0331178Y0033479D01*
X0331216Y0033324D01*
X0331249Y0033168D01*
X0331279Y0033011D01*
X0331305Y0032854D01*
X0331326Y0032696D01*
X0331344Y0032537D01*
X0331358Y0032378D01*
X0331368Y0032219D01*
X0331374Y0032060D01*
X0331376Y0031900D01*
X0331374Y0031740D01*
X0331368Y0031581D01*
X0331358Y0031422D01*
X0331344Y0031263D01*
X0331326Y0031104D01*
X0331305Y0030946D01*
X0331279Y0030789D01*
X0331249Y0030632D01*
X0331216Y0030476D01*
X0331178Y0030321D01*
X0331137Y0030167D01*
X0331092Y0030014D01*
X0331043Y0029862D01*
X0330990Y0029711D01*
X0330934Y0029562D01*
X0330873Y0029414D01*
X0330810Y0029268D01*
X0330742Y0029123D01*
X0330671Y0028980D01*
X0330597Y0028839D01*
X0330519Y0028700D01*
X0330437Y0028563D01*
X0330352Y0028428D01*
X0330264Y0028295D01*
X0330172Y0028164D01*
X0330078Y0028036D01*
X0329980Y0027910D01*
X0329879Y0027786D01*
X0329775Y0027665D01*
X0329668Y0027547D01*
X0329558Y0027431D01*
X0329445Y0027318D01*
X0329329Y0027208D01*
X0329211Y0027101D01*
X0329090Y0026997D01*
X0328966Y0026896D01*
X0328840Y0026798D01*
X0328712Y0026704D01*
X0328581Y0026612D01*
X0328448Y0026524D01*
X0328313Y0026439D01*
X0328176Y0026357D01*
X0328037Y0026279D01*
X0327896Y0026205D01*
X0327753Y0026134D01*
X0327608Y0026066D01*
X0327462Y0026003D01*
X0327314Y0025942D01*
X0327165Y0025886D01*
X0327014Y0025833D01*
X0326862Y0025784D01*
X0326709Y0025739D01*
X0326555Y0025698D01*
X0326400Y0025660D01*
X0326244Y0025627D01*
X0326087Y0025597D01*
X0325930Y0025571D01*
X0325772Y0025550D01*
X0325613Y0025532D01*
X0325454Y0025518D01*
X0325295Y0025508D01*
X0325136Y0025502D01*
X0324976Y0025500D01*
X0324816Y0025502D01*
X0324657Y0025508D01*
X0324498Y0025518D01*
X0324339Y0025532D01*
X0324180Y0025550D01*
X0324022Y0025571D01*
X0323865Y0025597D01*
X0323708Y0025627D01*
X0323552Y0025660D01*
X0323397Y0025698D01*
X0323243Y0025739D01*
X0323090Y0025784D01*
X0322938Y0025833D01*
X0322787Y0025886D01*
X0322638Y0025942D01*
X0322490Y0026003D01*
X0322344Y0026066D01*
X0322199Y0026134D01*
X0322056Y0026205D01*
X0321915Y0026279D01*
X0321776Y0026357D01*
X0321639Y0026439D01*
X0321504Y0026524D01*
X0321371Y0026612D01*
X0321240Y0026704D01*
X0321112Y0026798D01*
X0320986Y0026896D01*
X0320862Y0026997D01*
X0320741Y0027101D01*
X0320623Y0027208D01*
X0320507Y0027318D01*
X0320394Y0027431D01*
X0320284Y0027547D01*
X0320177Y0027665D01*
X0320073Y0027786D01*
X0319972Y0027910D01*
X0319874Y0028036D01*
X0319780Y0028164D01*
X0319688Y0028295D01*
X0319600Y0028428D01*
X0319515Y0028563D01*
X0319433Y0028700D01*
X0319355Y0028839D01*
X0319281Y0028980D01*
X0319210Y0029123D01*
X0319142Y0029268D01*
X0319079Y0029414D01*
X0319018Y0029562D01*
X0318962Y0029711D01*
X0318909Y0029862D01*
X0318860Y0030014D01*
X0318815Y0030167D01*
X0318774Y0030321D01*
X0318736Y0030476D01*
X0318703Y0030632D01*
X0318673Y0030789D01*
X0318647Y0030946D01*
X0318626Y0031104D01*
X0318608Y0031263D01*
X0318594Y0031422D01*
X0318584Y0031581D01*
X0318578Y0031740D01*
X0318576Y0031900D01*
X0343421Y0024026D02*
X0343423Y0024184D01*
X0343429Y0024342D01*
X0343439Y0024500D01*
X0343453Y0024658D01*
X0343471Y0024815D01*
X0343492Y0024972D01*
X0343518Y0025128D01*
X0343548Y0025284D01*
X0343581Y0025439D01*
X0343619Y0025592D01*
X0343660Y0025745D01*
X0343705Y0025897D01*
X0343754Y0026048D01*
X0343807Y0026197D01*
X0343863Y0026345D01*
X0343923Y0026491D01*
X0343987Y0026636D01*
X0344055Y0026779D01*
X0344126Y0026921D01*
X0344200Y0027061D01*
X0344278Y0027198D01*
X0344360Y0027334D01*
X0344444Y0027468D01*
X0344533Y0027599D01*
X0344624Y0027728D01*
X0344719Y0027855D01*
X0344816Y0027980D01*
X0344917Y0028102D01*
X0345021Y0028221D01*
X0345128Y0028338D01*
X0345238Y0028452D01*
X0345351Y0028563D01*
X0345466Y0028672D01*
X0345584Y0028777D01*
X0345705Y0028879D01*
X0345828Y0028979D01*
X0345954Y0029075D01*
X0346082Y0029168D01*
X0346212Y0029258D01*
X0346345Y0029344D01*
X0346480Y0029428D01*
X0346616Y0029507D01*
X0346755Y0029584D01*
X0346896Y0029656D01*
X0347038Y0029726D01*
X0347182Y0029791D01*
X0347328Y0029853D01*
X0347475Y0029911D01*
X0347624Y0029966D01*
X0347774Y0030017D01*
X0347925Y0030064D01*
X0348077Y0030107D01*
X0348230Y0030146D01*
X0348385Y0030182D01*
X0348540Y0030213D01*
X0348696Y0030241D01*
X0348852Y0030265D01*
X0349009Y0030285D01*
X0349167Y0030301D01*
X0349324Y0030313D01*
X0349483Y0030321D01*
X0349641Y0030325D01*
X0349799Y0030325D01*
X0349957Y0030321D01*
X0350116Y0030313D01*
X0350273Y0030301D01*
X0350431Y0030285D01*
X0350588Y0030265D01*
X0350744Y0030241D01*
X0350900Y0030213D01*
X0351055Y0030182D01*
X0351210Y0030146D01*
X0351363Y0030107D01*
X0351515Y0030064D01*
X0351666Y0030017D01*
X0351816Y0029966D01*
X0351965Y0029911D01*
X0352112Y0029853D01*
X0352258Y0029791D01*
X0352402Y0029726D01*
X0352544Y0029656D01*
X0352685Y0029584D01*
X0352824Y0029507D01*
X0352960Y0029428D01*
X0353095Y0029344D01*
X0353228Y0029258D01*
X0353358Y0029168D01*
X0353486Y0029075D01*
X0353612Y0028979D01*
X0353735Y0028879D01*
X0353856Y0028777D01*
X0353974Y0028672D01*
X0354089Y0028563D01*
X0354202Y0028452D01*
X0354312Y0028338D01*
X0354419Y0028221D01*
X0354523Y0028102D01*
X0354624Y0027980D01*
X0354721Y0027855D01*
X0354816Y0027728D01*
X0354907Y0027599D01*
X0354996Y0027468D01*
X0355080Y0027334D01*
X0355162Y0027198D01*
X0355240Y0027061D01*
X0355314Y0026921D01*
X0355385Y0026779D01*
X0355453Y0026636D01*
X0355517Y0026491D01*
X0355577Y0026345D01*
X0355633Y0026197D01*
X0355686Y0026048D01*
X0355735Y0025897D01*
X0355780Y0025745D01*
X0355821Y0025592D01*
X0355859Y0025439D01*
X0355892Y0025284D01*
X0355922Y0025128D01*
X0355948Y0024972D01*
X0355969Y0024815D01*
X0355987Y0024658D01*
X0356001Y0024500D01*
X0356011Y0024342D01*
X0356017Y0024184D01*
X0356019Y0024026D01*
X0356017Y0023868D01*
X0356011Y0023710D01*
X0356001Y0023552D01*
X0355987Y0023394D01*
X0355969Y0023237D01*
X0355948Y0023080D01*
X0355922Y0022924D01*
X0355892Y0022768D01*
X0355859Y0022613D01*
X0355821Y0022460D01*
X0355780Y0022307D01*
X0355735Y0022155D01*
X0355686Y0022004D01*
X0355633Y0021855D01*
X0355577Y0021707D01*
X0355517Y0021561D01*
X0355453Y0021416D01*
X0355385Y0021273D01*
X0355314Y0021131D01*
X0355240Y0020991D01*
X0355162Y0020854D01*
X0355080Y0020718D01*
X0354996Y0020584D01*
X0354907Y0020453D01*
X0354816Y0020324D01*
X0354721Y0020197D01*
X0354624Y0020072D01*
X0354523Y0019950D01*
X0354419Y0019831D01*
X0354312Y0019714D01*
X0354202Y0019600D01*
X0354089Y0019489D01*
X0353974Y0019380D01*
X0353856Y0019275D01*
X0353735Y0019173D01*
X0353612Y0019073D01*
X0353486Y0018977D01*
X0353358Y0018884D01*
X0353228Y0018794D01*
X0353095Y0018708D01*
X0352960Y0018624D01*
X0352824Y0018545D01*
X0352685Y0018468D01*
X0352544Y0018396D01*
X0352402Y0018326D01*
X0352258Y0018261D01*
X0352112Y0018199D01*
X0351965Y0018141D01*
X0351816Y0018086D01*
X0351666Y0018035D01*
X0351515Y0017988D01*
X0351363Y0017945D01*
X0351210Y0017906D01*
X0351055Y0017870D01*
X0350900Y0017839D01*
X0350744Y0017811D01*
X0350588Y0017787D01*
X0350431Y0017767D01*
X0350273Y0017751D01*
X0350116Y0017739D01*
X0349957Y0017731D01*
X0349799Y0017727D01*
X0349641Y0017727D01*
X0349483Y0017731D01*
X0349324Y0017739D01*
X0349167Y0017751D01*
X0349009Y0017767D01*
X0348852Y0017787D01*
X0348696Y0017811D01*
X0348540Y0017839D01*
X0348385Y0017870D01*
X0348230Y0017906D01*
X0348077Y0017945D01*
X0347925Y0017988D01*
X0347774Y0018035D01*
X0347624Y0018086D01*
X0347475Y0018141D01*
X0347328Y0018199D01*
X0347182Y0018261D01*
X0347038Y0018326D01*
X0346896Y0018396D01*
X0346755Y0018468D01*
X0346616Y0018545D01*
X0346480Y0018624D01*
X0346345Y0018708D01*
X0346212Y0018794D01*
X0346082Y0018884D01*
X0345954Y0018977D01*
X0345828Y0019073D01*
X0345705Y0019173D01*
X0345584Y0019275D01*
X0345466Y0019380D01*
X0345351Y0019489D01*
X0345238Y0019600D01*
X0345128Y0019714D01*
X0345021Y0019831D01*
X0344917Y0019950D01*
X0344816Y0020072D01*
X0344719Y0020197D01*
X0344624Y0020324D01*
X0344533Y0020453D01*
X0344444Y0020584D01*
X0344360Y0020718D01*
X0344278Y0020854D01*
X0344200Y0020991D01*
X0344126Y0021131D01*
X0344055Y0021273D01*
X0343987Y0021416D01*
X0343923Y0021561D01*
X0343863Y0021707D01*
X0343807Y0021855D01*
X0343754Y0022004D01*
X0343705Y0022155D01*
X0343660Y0022307D01*
X0343619Y0022460D01*
X0343581Y0022613D01*
X0343548Y0022768D01*
X0343518Y0022924D01*
X0343492Y0023080D01*
X0343471Y0023237D01*
X0343453Y0023394D01*
X0343439Y0023552D01*
X0343429Y0023710D01*
X0343423Y0023868D01*
X0343421Y0024026D01*
X0343421Y0236624D02*
X0343423Y0236782D01*
X0343429Y0236940D01*
X0343439Y0237098D01*
X0343453Y0237256D01*
X0343471Y0237413D01*
X0343492Y0237570D01*
X0343518Y0237726D01*
X0343548Y0237882D01*
X0343581Y0238037D01*
X0343619Y0238190D01*
X0343660Y0238343D01*
X0343705Y0238495D01*
X0343754Y0238646D01*
X0343807Y0238795D01*
X0343863Y0238943D01*
X0343923Y0239089D01*
X0343987Y0239234D01*
X0344055Y0239377D01*
X0344126Y0239519D01*
X0344200Y0239659D01*
X0344278Y0239796D01*
X0344360Y0239932D01*
X0344444Y0240066D01*
X0344533Y0240197D01*
X0344624Y0240326D01*
X0344719Y0240453D01*
X0344816Y0240578D01*
X0344917Y0240700D01*
X0345021Y0240819D01*
X0345128Y0240936D01*
X0345238Y0241050D01*
X0345351Y0241161D01*
X0345466Y0241270D01*
X0345584Y0241375D01*
X0345705Y0241477D01*
X0345828Y0241577D01*
X0345954Y0241673D01*
X0346082Y0241766D01*
X0346212Y0241856D01*
X0346345Y0241942D01*
X0346480Y0242026D01*
X0346616Y0242105D01*
X0346755Y0242182D01*
X0346896Y0242254D01*
X0347038Y0242324D01*
X0347182Y0242389D01*
X0347328Y0242451D01*
X0347475Y0242509D01*
X0347624Y0242564D01*
X0347774Y0242615D01*
X0347925Y0242662D01*
X0348077Y0242705D01*
X0348230Y0242744D01*
X0348385Y0242780D01*
X0348540Y0242811D01*
X0348696Y0242839D01*
X0348852Y0242863D01*
X0349009Y0242883D01*
X0349167Y0242899D01*
X0349324Y0242911D01*
X0349483Y0242919D01*
X0349641Y0242923D01*
X0349799Y0242923D01*
X0349957Y0242919D01*
X0350116Y0242911D01*
X0350273Y0242899D01*
X0350431Y0242883D01*
X0350588Y0242863D01*
X0350744Y0242839D01*
X0350900Y0242811D01*
X0351055Y0242780D01*
X0351210Y0242744D01*
X0351363Y0242705D01*
X0351515Y0242662D01*
X0351666Y0242615D01*
X0351816Y0242564D01*
X0351965Y0242509D01*
X0352112Y0242451D01*
X0352258Y0242389D01*
X0352402Y0242324D01*
X0352544Y0242254D01*
X0352685Y0242182D01*
X0352824Y0242105D01*
X0352960Y0242026D01*
X0353095Y0241942D01*
X0353228Y0241856D01*
X0353358Y0241766D01*
X0353486Y0241673D01*
X0353612Y0241577D01*
X0353735Y0241477D01*
X0353856Y0241375D01*
X0353974Y0241270D01*
X0354089Y0241161D01*
X0354202Y0241050D01*
X0354312Y0240936D01*
X0354419Y0240819D01*
X0354523Y0240700D01*
X0354624Y0240578D01*
X0354721Y0240453D01*
X0354816Y0240326D01*
X0354907Y0240197D01*
X0354996Y0240066D01*
X0355080Y0239932D01*
X0355162Y0239796D01*
X0355240Y0239659D01*
X0355314Y0239519D01*
X0355385Y0239377D01*
X0355453Y0239234D01*
X0355517Y0239089D01*
X0355577Y0238943D01*
X0355633Y0238795D01*
X0355686Y0238646D01*
X0355735Y0238495D01*
X0355780Y0238343D01*
X0355821Y0238190D01*
X0355859Y0238037D01*
X0355892Y0237882D01*
X0355922Y0237726D01*
X0355948Y0237570D01*
X0355969Y0237413D01*
X0355987Y0237256D01*
X0356001Y0237098D01*
X0356011Y0236940D01*
X0356017Y0236782D01*
X0356019Y0236624D01*
X0356017Y0236466D01*
X0356011Y0236308D01*
X0356001Y0236150D01*
X0355987Y0235992D01*
X0355969Y0235835D01*
X0355948Y0235678D01*
X0355922Y0235522D01*
X0355892Y0235366D01*
X0355859Y0235211D01*
X0355821Y0235058D01*
X0355780Y0234905D01*
X0355735Y0234753D01*
X0355686Y0234602D01*
X0355633Y0234453D01*
X0355577Y0234305D01*
X0355517Y0234159D01*
X0355453Y0234014D01*
X0355385Y0233871D01*
X0355314Y0233729D01*
X0355240Y0233589D01*
X0355162Y0233452D01*
X0355080Y0233316D01*
X0354996Y0233182D01*
X0354907Y0233051D01*
X0354816Y0232922D01*
X0354721Y0232795D01*
X0354624Y0232670D01*
X0354523Y0232548D01*
X0354419Y0232429D01*
X0354312Y0232312D01*
X0354202Y0232198D01*
X0354089Y0232087D01*
X0353974Y0231978D01*
X0353856Y0231873D01*
X0353735Y0231771D01*
X0353612Y0231671D01*
X0353486Y0231575D01*
X0353358Y0231482D01*
X0353228Y0231392D01*
X0353095Y0231306D01*
X0352960Y0231222D01*
X0352824Y0231143D01*
X0352685Y0231066D01*
X0352544Y0230994D01*
X0352402Y0230924D01*
X0352258Y0230859D01*
X0352112Y0230797D01*
X0351965Y0230739D01*
X0351816Y0230684D01*
X0351666Y0230633D01*
X0351515Y0230586D01*
X0351363Y0230543D01*
X0351210Y0230504D01*
X0351055Y0230468D01*
X0350900Y0230437D01*
X0350744Y0230409D01*
X0350588Y0230385D01*
X0350431Y0230365D01*
X0350273Y0230349D01*
X0350116Y0230337D01*
X0349957Y0230329D01*
X0349799Y0230325D01*
X0349641Y0230325D01*
X0349483Y0230329D01*
X0349324Y0230337D01*
X0349167Y0230349D01*
X0349009Y0230365D01*
X0348852Y0230385D01*
X0348696Y0230409D01*
X0348540Y0230437D01*
X0348385Y0230468D01*
X0348230Y0230504D01*
X0348077Y0230543D01*
X0347925Y0230586D01*
X0347774Y0230633D01*
X0347624Y0230684D01*
X0347475Y0230739D01*
X0347328Y0230797D01*
X0347182Y0230859D01*
X0347038Y0230924D01*
X0346896Y0230994D01*
X0346755Y0231066D01*
X0346616Y0231143D01*
X0346480Y0231222D01*
X0346345Y0231306D01*
X0346212Y0231392D01*
X0346082Y0231482D01*
X0345954Y0231575D01*
X0345828Y0231671D01*
X0345705Y0231771D01*
X0345584Y0231873D01*
X0345466Y0231978D01*
X0345351Y0232087D01*
X0345238Y0232198D01*
X0345128Y0232312D01*
X0345021Y0232429D01*
X0344917Y0232548D01*
X0344816Y0232670D01*
X0344719Y0232795D01*
X0344624Y0232922D01*
X0344533Y0233051D01*
X0344444Y0233182D01*
X0344360Y0233316D01*
X0344278Y0233452D01*
X0344200Y0233589D01*
X0344126Y0233729D01*
X0344055Y0233871D01*
X0343987Y0234014D01*
X0343923Y0234159D01*
X0343863Y0234305D01*
X0343807Y0234453D01*
X0343754Y0234602D01*
X0343705Y0234753D01*
X0343660Y0234905D01*
X0343619Y0235058D01*
X0343581Y0235211D01*
X0343548Y0235366D01*
X0343518Y0235522D01*
X0343492Y0235678D01*
X0343471Y0235835D01*
X0343453Y0235992D01*
X0343439Y0236150D01*
X0343429Y0236308D01*
X0343423Y0236466D01*
X0343421Y0236624D01*
X0012712Y0236624D02*
X0012714Y0236782D01*
X0012720Y0236940D01*
X0012730Y0237098D01*
X0012744Y0237256D01*
X0012762Y0237413D01*
X0012783Y0237570D01*
X0012809Y0237726D01*
X0012839Y0237882D01*
X0012872Y0238037D01*
X0012910Y0238190D01*
X0012951Y0238343D01*
X0012996Y0238495D01*
X0013045Y0238646D01*
X0013098Y0238795D01*
X0013154Y0238943D01*
X0013214Y0239089D01*
X0013278Y0239234D01*
X0013346Y0239377D01*
X0013417Y0239519D01*
X0013491Y0239659D01*
X0013569Y0239796D01*
X0013651Y0239932D01*
X0013735Y0240066D01*
X0013824Y0240197D01*
X0013915Y0240326D01*
X0014010Y0240453D01*
X0014107Y0240578D01*
X0014208Y0240700D01*
X0014312Y0240819D01*
X0014419Y0240936D01*
X0014529Y0241050D01*
X0014642Y0241161D01*
X0014757Y0241270D01*
X0014875Y0241375D01*
X0014996Y0241477D01*
X0015119Y0241577D01*
X0015245Y0241673D01*
X0015373Y0241766D01*
X0015503Y0241856D01*
X0015636Y0241942D01*
X0015771Y0242026D01*
X0015907Y0242105D01*
X0016046Y0242182D01*
X0016187Y0242254D01*
X0016329Y0242324D01*
X0016473Y0242389D01*
X0016619Y0242451D01*
X0016766Y0242509D01*
X0016915Y0242564D01*
X0017065Y0242615D01*
X0017216Y0242662D01*
X0017368Y0242705D01*
X0017521Y0242744D01*
X0017676Y0242780D01*
X0017831Y0242811D01*
X0017987Y0242839D01*
X0018143Y0242863D01*
X0018300Y0242883D01*
X0018458Y0242899D01*
X0018615Y0242911D01*
X0018774Y0242919D01*
X0018932Y0242923D01*
X0019090Y0242923D01*
X0019248Y0242919D01*
X0019407Y0242911D01*
X0019564Y0242899D01*
X0019722Y0242883D01*
X0019879Y0242863D01*
X0020035Y0242839D01*
X0020191Y0242811D01*
X0020346Y0242780D01*
X0020501Y0242744D01*
X0020654Y0242705D01*
X0020806Y0242662D01*
X0020957Y0242615D01*
X0021107Y0242564D01*
X0021256Y0242509D01*
X0021403Y0242451D01*
X0021549Y0242389D01*
X0021693Y0242324D01*
X0021835Y0242254D01*
X0021976Y0242182D01*
X0022115Y0242105D01*
X0022251Y0242026D01*
X0022386Y0241942D01*
X0022519Y0241856D01*
X0022649Y0241766D01*
X0022777Y0241673D01*
X0022903Y0241577D01*
X0023026Y0241477D01*
X0023147Y0241375D01*
X0023265Y0241270D01*
X0023380Y0241161D01*
X0023493Y0241050D01*
X0023603Y0240936D01*
X0023710Y0240819D01*
X0023814Y0240700D01*
X0023915Y0240578D01*
X0024012Y0240453D01*
X0024107Y0240326D01*
X0024198Y0240197D01*
X0024287Y0240066D01*
X0024371Y0239932D01*
X0024453Y0239796D01*
X0024531Y0239659D01*
X0024605Y0239519D01*
X0024676Y0239377D01*
X0024744Y0239234D01*
X0024808Y0239089D01*
X0024868Y0238943D01*
X0024924Y0238795D01*
X0024977Y0238646D01*
X0025026Y0238495D01*
X0025071Y0238343D01*
X0025112Y0238190D01*
X0025150Y0238037D01*
X0025183Y0237882D01*
X0025213Y0237726D01*
X0025239Y0237570D01*
X0025260Y0237413D01*
X0025278Y0237256D01*
X0025292Y0237098D01*
X0025302Y0236940D01*
X0025308Y0236782D01*
X0025310Y0236624D01*
X0025308Y0236466D01*
X0025302Y0236308D01*
X0025292Y0236150D01*
X0025278Y0235992D01*
X0025260Y0235835D01*
X0025239Y0235678D01*
X0025213Y0235522D01*
X0025183Y0235366D01*
X0025150Y0235211D01*
X0025112Y0235058D01*
X0025071Y0234905D01*
X0025026Y0234753D01*
X0024977Y0234602D01*
X0024924Y0234453D01*
X0024868Y0234305D01*
X0024808Y0234159D01*
X0024744Y0234014D01*
X0024676Y0233871D01*
X0024605Y0233729D01*
X0024531Y0233589D01*
X0024453Y0233452D01*
X0024371Y0233316D01*
X0024287Y0233182D01*
X0024198Y0233051D01*
X0024107Y0232922D01*
X0024012Y0232795D01*
X0023915Y0232670D01*
X0023814Y0232548D01*
X0023710Y0232429D01*
X0023603Y0232312D01*
X0023493Y0232198D01*
X0023380Y0232087D01*
X0023265Y0231978D01*
X0023147Y0231873D01*
X0023026Y0231771D01*
X0022903Y0231671D01*
X0022777Y0231575D01*
X0022649Y0231482D01*
X0022519Y0231392D01*
X0022386Y0231306D01*
X0022251Y0231222D01*
X0022115Y0231143D01*
X0021976Y0231066D01*
X0021835Y0230994D01*
X0021693Y0230924D01*
X0021549Y0230859D01*
X0021403Y0230797D01*
X0021256Y0230739D01*
X0021107Y0230684D01*
X0020957Y0230633D01*
X0020806Y0230586D01*
X0020654Y0230543D01*
X0020501Y0230504D01*
X0020346Y0230468D01*
X0020191Y0230437D01*
X0020035Y0230409D01*
X0019879Y0230385D01*
X0019722Y0230365D01*
X0019564Y0230349D01*
X0019407Y0230337D01*
X0019248Y0230329D01*
X0019090Y0230325D01*
X0018932Y0230325D01*
X0018774Y0230329D01*
X0018615Y0230337D01*
X0018458Y0230349D01*
X0018300Y0230365D01*
X0018143Y0230385D01*
X0017987Y0230409D01*
X0017831Y0230437D01*
X0017676Y0230468D01*
X0017521Y0230504D01*
X0017368Y0230543D01*
X0017216Y0230586D01*
X0017065Y0230633D01*
X0016915Y0230684D01*
X0016766Y0230739D01*
X0016619Y0230797D01*
X0016473Y0230859D01*
X0016329Y0230924D01*
X0016187Y0230994D01*
X0016046Y0231066D01*
X0015907Y0231143D01*
X0015771Y0231222D01*
X0015636Y0231306D01*
X0015503Y0231392D01*
X0015373Y0231482D01*
X0015245Y0231575D01*
X0015119Y0231671D01*
X0014996Y0231771D01*
X0014875Y0231873D01*
X0014757Y0231978D01*
X0014642Y0232087D01*
X0014529Y0232198D01*
X0014419Y0232312D01*
X0014312Y0232429D01*
X0014208Y0232548D01*
X0014107Y0232670D01*
X0014010Y0232795D01*
X0013915Y0232922D01*
X0013824Y0233051D01*
X0013735Y0233182D01*
X0013651Y0233316D01*
X0013569Y0233452D01*
X0013491Y0233589D01*
X0013417Y0233729D01*
X0013346Y0233871D01*
X0013278Y0234014D01*
X0013214Y0234159D01*
X0013154Y0234305D01*
X0013098Y0234453D01*
X0013045Y0234602D01*
X0012996Y0234753D01*
X0012951Y0234905D01*
X0012910Y0235058D01*
X0012872Y0235211D01*
X0012839Y0235366D01*
X0012809Y0235522D01*
X0012783Y0235678D01*
X0012762Y0235835D01*
X0012744Y0235992D01*
X0012730Y0236150D01*
X0012720Y0236308D01*
X0012714Y0236466D01*
X0012712Y0236624D01*
D11*
X0019011Y0236624D03*
X0019011Y0024026D03*
X0349720Y0024026D03*
X0349720Y0236624D03*
D12*
X0199700Y0117215D03*
X0199700Y0107215D03*
X0199700Y0097215D03*
X0199700Y0087215D03*
X0212200Y0062215D03*
X0252200Y0062215D03*
X0157200Y0092215D03*
X0147200Y0092215D03*
X0077200Y0112215D03*
X0077200Y0122215D03*
X0077200Y0204715D03*
X0067200Y0204715D03*
X0087200Y0204715D03*
X0097200Y0204715D03*
D13*
X0097200Y0194815D02*
X0097200Y0189615D01*
X0087200Y0189615D02*
X0087200Y0194815D01*
X0077200Y0194815D02*
X0077200Y0189615D01*
X0067200Y0189615D02*
X0067200Y0194815D01*
X0057200Y0194815D02*
X0057200Y0189615D01*
X0047200Y0189615D02*
X0047200Y0194815D01*
X0037200Y0194815D02*
X0037200Y0189615D01*
X0037200Y0164815D02*
X0037200Y0159615D01*
X0047200Y0159615D02*
X0047200Y0164815D01*
X0057200Y0164815D02*
X0057200Y0159615D01*
X0067200Y0159615D02*
X0067200Y0164815D01*
X0077200Y0164815D02*
X0077200Y0159615D01*
X0087200Y0159615D02*
X0087200Y0164815D01*
X0097200Y0164815D02*
X0097200Y0159615D01*
X0107200Y0159615D02*
X0107200Y0164815D01*
X0117200Y0164815D02*
X0117200Y0159615D01*
X0127200Y0159615D02*
X0127200Y0164815D01*
X0137200Y0164815D02*
X0137200Y0159615D01*
X0147200Y0159615D02*
X0147200Y0164815D01*
X0157200Y0164815D02*
X0157200Y0159615D01*
X0167200Y0159615D02*
X0167200Y0164815D01*
X0167200Y0189615D02*
X0167200Y0194815D01*
X0157200Y0194815D02*
X0157200Y0189615D01*
X0147200Y0189615D02*
X0147200Y0194815D01*
X0137200Y0194815D02*
X0137200Y0189615D01*
X0127200Y0189615D02*
X0127200Y0194815D01*
X0117200Y0194815D02*
X0117200Y0189615D01*
X0107200Y0189615D02*
X0107200Y0194815D01*
X0107200Y0134815D02*
X0107200Y0129615D01*
X0117200Y0129615D02*
X0117200Y0134815D01*
X0127200Y0134815D02*
X0127200Y0129615D01*
X0137200Y0129615D02*
X0137200Y0134815D01*
X0147200Y0134815D02*
X0147200Y0129615D01*
X0157200Y0129615D02*
X0157200Y0134815D01*
X0167200Y0134815D02*
X0167200Y0129615D01*
X0167200Y0104815D02*
X0167200Y0099615D01*
X0157200Y0099615D02*
X0157200Y0104815D01*
X0147200Y0104815D02*
X0147200Y0099615D01*
X0137200Y0099615D02*
X0137200Y0104815D01*
X0127200Y0104815D02*
X0127200Y0099615D01*
X0117200Y0099615D02*
X0117200Y0104815D01*
X0107200Y0104815D02*
X0107200Y0099615D01*
X0097200Y0099615D02*
X0097200Y0104815D01*
X0087200Y0104815D02*
X0087200Y0099615D01*
X0087200Y0129615D02*
X0087200Y0134815D01*
X0097200Y0134815D02*
X0097200Y0129615D01*
X0137200Y0084815D02*
X0137200Y0079615D01*
X0147200Y0079615D02*
X0147200Y0084815D01*
X0157200Y0084815D02*
X0157200Y0079615D01*
X0167200Y0079615D02*
X0167200Y0084815D01*
X0167200Y0054815D02*
X0167200Y0049615D01*
X0157200Y0049615D02*
X0157200Y0054815D01*
X0147200Y0054815D02*
X0147200Y0049615D01*
X0137200Y0049615D02*
X0137200Y0054815D01*
D14*
X0164400Y0042215D02*
X0170000Y0042215D01*
X0170000Y0032215D02*
X0164400Y0032215D01*
D15*
X0147200Y0032215D03*
X0107200Y0032215D03*
X0027200Y0082215D03*
X0037200Y0102215D03*
X0027200Y0122215D03*
X0027200Y0142215D03*
X0027200Y0152215D03*
X0077200Y0102215D03*
D16*
X0184700Y0092715D03*
X0184700Y0111715D03*
X0091700Y0219715D03*
X0072700Y0219715D03*
D17*
X0037200Y0112215D03*
D18*
X0047200Y0112215D03*
X0057200Y0112215D03*
X0057200Y0122215D03*
X0047200Y0122215D03*
X0037200Y0122215D03*
D19*
X0184700Y0036465D02*
X0184700Y0030465D01*
X0194700Y0030465D02*
X0194700Y0036465D01*
X0204700Y0036465D02*
X0204700Y0030465D01*
X0222200Y0030465D02*
X0222200Y0036465D01*
X0232200Y0036465D02*
X0232200Y0030465D01*
X0242200Y0030465D02*
X0242200Y0036465D01*
X0242200Y0086715D02*
X0242200Y0092715D01*
X0232200Y0092715D02*
X0232200Y0086715D01*
X0222200Y0086715D02*
X0222200Y0092715D01*
X0220200Y0137215D02*
X0214200Y0137215D01*
X0200200Y0137215D02*
X0194200Y0137215D01*
X0194200Y0147215D02*
X0200200Y0147215D01*
X0214200Y0147215D02*
X0220200Y0147215D01*
X0220200Y0157215D02*
X0214200Y0157215D01*
X0200200Y0157215D02*
X0194200Y0157215D01*
X0194200Y0177215D02*
X0200200Y0177215D01*
X0214200Y0177215D02*
X0220200Y0177215D01*
X0220200Y0187215D02*
X0214200Y0187215D01*
X0200200Y0187215D02*
X0194200Y0187215D01*
X0194200Y0197215D02*
X0200200Y0197215D01*
X0214200Y0197215D02*
X0220200Y0197215D01*
X0234200Y0197215D02*
X0240200Y0197215D01*
X0254200Y0197215D02*
X0260200Y0197215D01*
X0260200Y0187215D02*
X0254200Y0187215D01*
X0240200Y0187215D02*
X0234200Y0187215D01*
X0234200Y0177215D02*
X0240200Y0177215D01*
X0254200Y0177215D02*
X0260200Y0177215D01*
X0260200Y0157215D02*
X0254200Y0157215D01*
X0240200Y0157215D02*
X0234200Y0157215D01*
X0234200Y0147215D02*
X0240200Y0147215D01*
X0254200Y0147215D02*
X0260200Y0147215D01*
X0260200Y0137215D02*
X0254200Y0137215D01*
X0240200Y0137215D02*
X0234200Y0137215D01*
X0344200Y0132215D02*
X0350200Y0132215D01*
X0350200Y0122215D02*
X0344200Y0122215D01*
X0344200Y0142215D02*
X0350200Y0142215D01*
X0350200Y0152215D02*
X0344200Y0152215D01*
X0260200Y0217215D02*
X0254200Y0217215D01*
X0240200Y0217215D02*
X0234200Y0217215D01*
X0234200Y0227215D02*
X0240200Y0227215D01*
X0254200Y0227215D02*
X0260200Y0227215D01*
X0260200Y0237215D02*
X0254200Y0237215D01*
X0240200Y0237215D02*
X0234200Y0237215D01*
X0220200Y0237215D02*
X0214200Y0237215D01*
X0200200Y0237215D02*
X0194200Y0237215D01*
X0194200Y0227215D02*
X0200200Y0227215D01*
X0214200Y0227215D02*
X0220200Y0227215D01*
X0220200Y0217215D02*
X0214200Y0217215D01*
X0200200Y0217215D02*
X0194200Y0217215D01*
D20*
X0289976Y0066900D03*
X0299976Y0066900D03*
X0309976Y0066900D03*
X0319976Y0066900D03*
X0314976Y0056900D03*
X0304976Y0056900D03*
X0294976Y0056900D03*
X0284976Y0056900D03*
X0083755Y0066900D03*
X0073755Y0066900D03*
X0063755Y0066900D03*
X0053755Y0066900D03*
X0048755Y0056900D03*
X0058755Y0056900D03*
X0068755Y0056900D03*
X0078755Y0056900D03*
D21*
X0088755Y0031900D03*
X0043755Y0031900D03*
X0279976Y0031900D03*
X0324976Y0031900D03*
D22*
X0312200Y0137215D03*
X0302200Y0137215D03*
X0292200Y0137215D03*
X0292200Y0177215D03*
X0302200Y0177215D03*
X0312200Y0177215D03*
X0312200Y0217215D03*
X0302200Y0217215D03*
X0292200Y0217215D03*
D23*
X0242200Y0062215D03*
X0222200Y0062215D03*
M02*
