G75*
%MOIN*%
%OFA0B0*%
%FSLAX25Y25*%
%IPPOS*%
%LPD*%
%AMOC8*
5,1,8,0,0,1.08239X$1,22.5*
%
%ADD10C,0.00000*%
%ADD11OC8,0.06300*%
%ADD12C,0.05200*%
%ADD13C,0.05600*%
%ADD14OC8,0.05200*%
%ADD15C,0.05200*%
%ADD16C,0.06000*%
%ADD17OC8,0.06000*%
%ADD18C,0.06000*%
%ADD19C,0.05500*%
%ADD20R,0.05543X0.05543*%
%ADD21C,0.06300*%
%ADD22C,0.02400*%
%ADD23C,0.05000*%
%ADD24C,0.01600*%
%ADD25C,0.03562*%
%ADD26C,0.01200*%
D10*
X0026059Y0048303D02*
X0360705Y0048303D01*
X0360943Y0048306D01*
X0361181Y0048314D01*
X0361418Y0048329D01*
X0361655Y0048349D01*
X0361891Y0048375D01*
X0362127Y0048406D01*
X0362362Y0048443D01*
X0362596Y0048486D01*
X0362829Y0048535D01*
X0363061Y0048589D01*
X0363291Y0048649D01*
X0363520Y0048714D01*
X0363747Y0048785D01*
X0363972Y0048861D01*
X0364195Y0048943D01*
X0364417Y0049030D01*
X0364636Y0049122D01*
X0364853Y0049220D01*
X0365067Y0049322D01*
X0365279Y0049430D01*
X0365489Y0049544D01*
X0365695Y0049662D01*
X0365899Y0049785D01*
X0366099Y0049913D01*
X0366296Y0050045D01*
X0366491Y0050183D01*
X0366681Y0050325D01*
X0366869Y0050472D01*
X0367052Y0050623D01*
X0367232Y0050778D01*
X0367408Y0050938D01*
X0367580Y0051102D01*
X0367749Y0051271D01*
X0367913Y0051443D01*
X0368073Y0051619D01*
X0368228Y0051799D01*
X0368379Y0051982D01*
X0368526Y0052170D01*
X0368668Y0052360D01*
X0368806Y0052555D01*
X0368938Y0052752D01*
X0369066Y0052952D01*
X0369189Y0053156D01*
X0369307Y0053362D01*
X0369421Y0053572D01*
X0369529Y0053784D01*
X0369631Y0053998D01*
X0369729Y0054215D01*
X0369821Y0054434D01*
X0369908Y0054656D01*
X0369990Y0054879D01*
X0370066Y0055104D01*
X0370137Y0055331D01*
X0370202Y0055560D01*
X0370262Y0055790D01*
X0370316Y0056022D01*
X0370365Y0056255D01*
X0370408Y0056489D01*
X0370445Y0056724D01*
X0370476Y0056960D01*
X0370502Y0057196D01*
X0370522Y0057433D01*
X0370537Y0057670D01*
X0370545Y0057908D01*
X0370548Y0058146D01*
X0370547Y0058146D02*
X0370547Y0274681D01*
X0370548Y0274681D02*
X0370545Y0274919D01*
X0370537Y0275157D01*
X0370522Y0275394D01*
X0370502Y0275631D01*
X0370476Y0275867D01*
X0370445Y0276103D01*
X0370408Y0276338D01*
X0370365Y0276572D01*
X0370316Y0276805D01*
X0370262Y0277037D01*
X0370202Y0277267D01*
X0370137Y0277496D01*
X0370066Y0277723D01*
X0369990Y0277948D01*
X0369908Y0278171D01*
X0369821Y0278393D01*
X0369729Y0278612D01*
X0369631Y0278829D01*
X0369529Y0279043D01*
X0369421Y0279255D01*
X0369307Y0279465D01*
X0369189Y0279671D01*
X0369066Y0279875D01*
X0368938Y0280075D01*
X0368806Y0280272D01*
X0368668Y0280467D01*
X0368526Y0280657D01*
X0368379Y0280845D01*
X0368228Y0281028D01*
X0368073Y0281208D01*
X0367913Y0281384D01*
X0367749Y0281556D01*
X0367580Y0281725D01*
X0367408Y0281889D01*
X0367232Y0282049D01*
X0367052Y0282204D01*
X0366869Y0282355D01*
X0366681Y0282502D01*
X0366491Y0282644D01*
X0366296Y0282782D01*
X0366099Y0282914D01*
X0365899Y0283042D01*
X0365695Y0283165D01*
X0365489Y0283283D01*
X0365279Y0283397D01*
X0365067Y0283505D01*
X0364853Y0283607D01*
X0364636Y0283705D01*
X0364417Y0283797D01*
X0364195Y0283884D01*
X0363972Y0283966D01*
X0363747Y0284042D01*
X0363520Y0284113D01*
X0363291Y0284178D01*
X0363061Y0284238D01*
X0362829Y0284292D01*
X0362596Y0284341D01*
X0362362Y0284384D01*
X0362127Y0284421D01*
X0361891Y0284452D01*
X0361655Y0284478D01*
X0361418Y0284498D01*
X0361181Y0284513D01*
X0360943Y0284521D01*
X0360705Y0284524D01*
X0026059Y0284524D01*
X0025821Y0284521D01*
X0025583Y0284513D01*
X0025346Y0284498D01*
X0025109Y0284478D01*
X0024873Y0284452D01*
X0024637Y0284421D01*
X0024402Y0284384D01*
X0024168Y0284341D01*
X0023935Y0284292D01*
X0023703Y0284238D01*
X0023473Y0284178D01*
X0023244Y0284113D01*
X0023017Y0284042D01*
X0022792Y0283966D01*
X0022569Y0283884D01*
X0022347Y0283797D01*
X0022128Y0283705D01*
X0021911Y0283607D01*
X0021697Y0283505D01*
X0021485Y0283397D01*
X0021275Y0283283D01*
X0021069Y0283165D01*
X0020865Y0283042D01*
X0020665Y0282914D01*
X0020468Y0282782D01*
X0020273Y0282644D01*
X0020083Y0282502D01*
X0019895Y0282355D01*
X0019712Y0282204D01*
X0019532Y0282049D01*
X0019356Y0281889D01*
X0019184Y0281725D01*
X0019015Y0281556D01*
X0018851Y0281384D01*
X0018691Y0281208D01*
X0018536Y0281028D01*
X0018385Y0280845D01*
X0018238Y0280657D01*
X0018096Y0280467D01*
X0017958Y0280272D01*
X0017826Y0280075D01*
X0017698Y0279875D01*
X0017575Y0279671D01*
X0017457Y0279465D01*
X0017343Y0279255D01*
X0017235Y0279043D01*
X0017133Y0278829D01*
X0017035Y0278612D01*
X0016943Y0278393D01*
X0016856Y0278171D01*
X0016774Y0277948D01*
X0016698Y0277723D01*
X0016627Y0277496D01*
X0016562Y0277267D01*
X0016502Y0277037D01*
X0016448Y0276805D01*
X0016399Y0276572D01*
X0016356Y0276338D01*
X0016319Y0276103D01*
X0016288Y0275867D01*
X0016262Y0275631D01*
X0016242Y0275394D01*
X0016227Y0275157D01*
X0016219Y0274919D01*
X0016216Y0274681D01*
X0016217Y0274681D02*
X0016217Y0058146D01*
X0016216Y0058146D02*
X0016219Y0057908D01*
X0016227Y0057670D01*
X0016242Y0057433D01*
X0016262Y0057196D01*
X0016288Y0056960D01*
X0016319Y0056724D01*
X0016356Y0056489D01*
X0016399Y0056255D01*
X0016448Y0056022D01*
X0016502Y0055790D01*
X0016562Y0055560D01*
X0016627Y0055331D01*
X0016698Y0055104D01*
X0016774Y0054879D01*
X0016856Y0054656D01*
X0016943Y0054434D01*
X0017035Y0054215D01*
X0017133Y0053998D01*
X0017235Y0053784D01*
X0017343Y0053572D01*
X0017457Y0053362D01*
X0017575Y0053156D01*
X0017698Y0052952D01*
X0017826Y0052752D01*
X0017958Y0052555D01*
X0018096Y0052360D01*
X0018238Y0052170D01*
X0018385Y0051982D01*
X0018536Y0051799D01*
X0018691Y0051619D01*
X0018851Y0051443D01*
X0019015Y0051271D01*
X0019184Y0051102D01*
X0019356Y0050938D01*
X0019532Y0050778D01*
X0019712Y0050623D01*
X0019895Y0050472D01*
X0020083Y0050325D01*
X0020273Y0050183D01*
X0020468Y0050045D01*
X0020665Y0049913D01*
X0020865Y0049785D01*
X0021069Y0049662D01*
X0021275Y0049544D01*
X0021485Y0049430D01*
X0021697Y0049322D01*
X0021911Y0049220D01*
X0022128Y0049122D01*
X0022347Y0049030D01*
X0022569Y0048943D01*
X0022792Y0048861D01*
X0023017Y0048785D01*
X0023244Y0048714D01*
X0023473Y0048649D01*
X0023703Y0048589D01*
X0023935Y0048535D01*
X0024168Y0048486D01*
X0024402Y0048443D01*
X0024637Y0048406D01*
X0024873Y0048375D01*
X0025109Y0048349D01*
X0025346Y0048329D01*
X0025583Y0048314D01*
X0025821Y0048306D01*
X0026059Y0048303D01*
X0021729Y0060114D02*
X0021731Y0060272D01*
X0021737Y0060430D01*
X0021747Y0060588D01*
X0021761Y0060746D01*
X0021779Y0060903D01*
X0021800Y0061060D01*
X0021826Y0061216D01*
X0021856Y0061372D01*
X0021889Y0061527D01*
X0021927Y0061680D01*
X0021968Y0061833D01*
X0022013Y0061985D01*
X0022062Y0062136D01*
X0022115Y0062285D01*
X0022171Y0062433D01*
X0022231Y0062579D01*
X0022295Y0062724D01*
X0022363Y0062867D01*
X0022434Y0063009D01*
X0022508Y0063149D01*
X0022586Y0063286D01*
X0022668Y0063422D01*
X0022752Y0063556D01*
X0022841Y0063687D01*
X0022932Y0063816D01*
X0023027Y0063943D01*
X0023124Y0064068D01*
X0023225Y0064190D01*
X0023329Y0064309D01*
X0023436Y0064426D01*
X0023546Y0064540D01*
X0023659Y0064651D01*
X0023774Y0064760D01*
X0023892Y0064865D01*
X0024013Y0064967D01*
X0024136Y0065067D01*
X0024262Y0065163D01*
X0024390Y0065256D01*
X0024520Y0065346D01*
X0024653Y0065432D01*
X0024788Y0065516D01*
X0024924Y0065595D01*
X0025063Y0065672D01*
X0025204Y0065744D01*
X0025346Y0065814D01*
X0025490Y0065879D01*
X0025636Y0065941D01*
X0025783Y0065999D01*
X0025932Y0066054D01*
X0026082Y0066105D01*
X0026233Y0066152D01*
X0026385Y0066195D01*
X0026538Y0066234D01*
X0026693Y0066270D01*
X0026848Y0066301D01*
X0027004Y0066329D01*
X0027160Y0066353D01*
X0027317Y0066373D01*
X0027475Y0066389D01*
X0027632Y0066401D01*
X0027791Y0066409D01*
X0027949Y0066413D01*
X0028107Y0066413D01*
X0028265Y0066409D01*
X0028424Y0066401D01*
X0028581Y0066389D01*
X0028739Y0066373D01*
X0028896Y0066353D01*
X0029052Y0066329D01*
X0029208Y0066301D01*
X0029363Y0066270D01*
X0029518Y0066234D01*
X0029671Y0066195D01*
X0029823Y0066152D01*
X0029974Y0066105D01*
X0030124Y0066054D01*
X0030273Y0065999D01*
X0030420Y0065941D01*
X0030566Y0065879D01*
X0030710Y0065814D01*
X0030852Y0065744D01*
X0030993Y0065672D01*
X0031132Y0065595D01*
X0031268Y0065516D01*
X0031403Y0065432D01*
X0031536Y0065346D01*
X0031666Y0065256D01*
X0031794Y0065163D01*
X0031920Y0065067D01*
X0032043Y0064967D01*
X0032164Y0064865D01*
X0032282Y0064760D01*
X0032397Y0064651D01*
X0032510Y0064540D01*
X0032620Y0064426D01*
X0032727Y0064309D01*
X0032831Y0064190D01*
X0032932Y0064068D01*
X0033029Y0063943D01*
X0033124Y0063816D01*
X0033215Y0063687D01*
X0033304Y0063556D01*
X0033388Y0063422D01*
X0033470Y0063286D01*
X0033548Y0063149D01*
X0033622Y0063009D01*
X0033693Y0062867D01*
X0033761Y0062724D01*
X0033825Y0062579D01*
X0033885Y0062433D01*
X0033941Y0062285D01*
X0033994Y0062136D01*
X0034043Y0061985D01*
X0034088Y0061833D01*
X0034129Y0061680D01*
X0034167Y0061527D01*
X0034200Y0061372D01*
X0034230Y0061216D01*
X0034256Y0061060D01*
X0034277Y0060903D01*
X0034295Y0060746D01*
X0034309Y0060588D01*
X0034319Y0060430D01*
X0034325Y0060272D01*
X0034327Y0060114D01*
X0034325Y0059956D01*
X0034319Y0059798D01*
X0034309Y0059640D01*
X0034295Y0059482D01*
X0034277Y0059325D01*
X0034256Y0059168D01*
X0034230Y0059012D01*
X0034200Y0058856D01*
X0034167Y0058701D01*
X0034129Y0058548D01*
X0034088Y0058395D01*
X0034043Y0058243D01*
X0033994Y0058092D01*
X0033941Y0057943D01*
X0033885Y0057795D01*
X0033825Y0057649D01*
X0033761Y0057504D01*
X0033693Y0057361D01*
X0033622Y0057219D01*
X0033548Y0057079D01*
X0033470Y0056942D01*
X0033388Y0056806D01*
X0033304Y0056672D01*
X0033215Y0056541D01*
X0033124Y0056412D01*
X0033029Y0056285D01*
X0032932Y0056160D01*
X0032831Y0056038D01*
X0032727Y0055919D01*
X0032620Y0055802D01*
X0032510Y0055688D01*
X0032397Y0055577D01*
X0032282Y0055468D01*
X0032164Y0055363D01*
X0032043Y0055261D01*
X0031920Y0055161D01*
X0031794Y0055065D01*
X0031666Y0054972D01*
X0031536Y0054882D01*
X0031403Y0054796D01*
X0031268Y0054712D01*
X0031132Y0054633D01*
X0030993Y0054556D01*
X0030852Y0054484D01*
X0030710Y0054414D01*
X0030566Y0054349D01*
X0030420Y0054287D01*
X0030273Y0054229D01*
X0030124Y0054174D01*
X0029974Y0054123D01*
X0029823Y0054076D01*
X0029671Y0054033D01*
X0029518Y0053994D01*
X0029363Y0053958D01*
X0029208Y0053927D01*
X0029052Y0053899D01*
X0028896Y0053875D01*
X0028739Y0053855D01*
X0028581Y0053839D01*
X0028424Y0053827D01*
X0028265Y0053819D01*
X0028107Y0053815D01*
X0027949Y0053815D01*
X0027791Y0053819D01*
X0027632Y0053827D01*
X0027475Y0053839D01*
X0027317Y0053855D01*
X0027160Y0053875D01*
X0027004Y0053899D01*
X0026848Y0053927D01*
X0026693Y0053958D01*
X0026538Y0053994D01*
X0026385Y0054033D01*
X0026233Y0054076D01*
X0026082Y0054123D01*
X0025932Y0054174D01*
X0025783Y0054229D01*
X0025636Y0054287D01*
X0025490Y0054349D01*
X0025346Y0054414D01*
X0025204Y0054484D01*
X0025063Y0054556D01*
X0024924Y0054633D01*
X0024788Y0054712D01*
X0024653Y0054796D01*
X0024520Y0054882D01*
X0024390Y0054972D01*
X0024262Y0055065D01*
X0024136Y0055161D01*
X0024013Y0055261D01*
X0023892Y0055363D01*
X0023774Y0055468D01*
X0023659Y0055577D01*
X0023546Y0055688D01*
X0023436Y0055802D01*
X0023329Y0055919D01*
X0023225Y0056038D01*
X0023124Y0056160D01*
X0023027Y0056285D01*
X0022932Y0056412D01*
X0022841Y0056541D01*
X0022752Y0056672D01*
X0022668Y0056806D01*
X0022586Y0056942D01*
X0022508Y0057079D01*
X0022434Y0057219D01*
X0022363Y0057361D01*
X0022295Y0057504D01*
X0022231Y0057649D01*
X0022171Y0057795D01*
X0022115Y0057943D01*
X0022062Y0058092D01*
X0022013Y0058243D01*
X0021968Y0058395D01*
X0021927Y0058548D01*
X0021889Y0058701D01*
X0021856Y0058856D01*
X0021826Y0059012D01*
X0021800Y0059168D01*
X0021779Y0059325D01*
X0021761Y0059482D01*
X0021747Y0059640D01*
X0021737Y0059798D01*
X0021731Y0059956D01*
X0021729Y0060114D01*
X0046372Y0067988D02*
X0046374Y0068148D01*
X0046380Y0068307D01*
X0046390Y0068466D01*
X0046404Y0068625D01*
X0046422Y0068784D01*
X0046443Y0068942D01*
X0046469Y0069099D01*
X0046499Y0069256D01*
X0046532Y0069412D01*
X0046570Y0069567D01*
X0046611Y0069721D01*
X0046656Y0069874D01*
X0046705Y0070026D01*
X0046758Y0070177D01*
X0046814Y0070326D01*
X0046875Y0070474D01*
X0046938Y0070620D01*
X0047006Y0070765D01*
X0047077Y0070908D01*
X0047151Y0071049D01*
X0047229Y0071188D01*
X0047311Y0071325D01*
X0047396Y0071460D01*
X0047484Y0071593D01*
X0047576Y0071724D01*
X0047670Y0071852D01*
X0047768Y0071978D01*
X0047869Y0072102D01*
X0047973Y0072223D01*
X0048080Y0072341D01*
X0048190Y0072457D01*
X0048303Y0072570D01*
X0048419Y0072680D01*
X0048537Y0072787D01*
X0048658Y0072891D01*
X0048782Y0072992D01*
X0048908Y0073090D01*
X0049036Y0073184D01*
X0049167Y0073276D01*
X0049300Y0073364D01*
X0049435Y0073449D01*
X0049572Y0073531D01*
X0049711Y0073609D01*
X0049852Y0073683D01*
X0049995Y0073754D01*
X0050140Y0073822D01*
X0050286Y0073885D01*
X0050434Y0073946D01*
X0050583Y0074002D01*
X0050734Y0074055D01*
X0050886Y0074104D01*
X0051039Y0074149D01*
X0051193Y0074190D01*
X0051348Y0074228D01*
X0051504Y0074261D01*
X0051661Y0074291D01*
X0051818Y0074317D01*
X0051976Y0074338D01*
X0052135Y0074356D01*
X0052294Y0074370D01*
X0052453Y0074380D01*
X0052612Y0074386D01*
X0052772Y0074388D01*
X0052932Y0074386D01*
X0053091Y0074380D01*
X0053250Y0074370D01*
X0053409Y0074356D01*
X0053568Y0074338D01*
X0053726Y0074317D01*
X0053883Y0074291D01*
X0054040Y0074261D01*
X0054196Y0074228D01*
X0054351Y0074190D01*
X0054505Y0074149D01*
X0054658Y0074104D01*
X0054810Y0074055D01*
X0054961Y0074002D01*
X0055110Y0073946D01*
X0055258Y0073885D01*
X0055404Y0073822D01*
X0055549Y0073754D01*
X0055692Y0073683D01*
X0055833Y0073609D01*
X0055972Y0073531D01*
X0056109Y0073449D01*
X0056244Y0073364D01*
X0056377Y0073276D01*
X0056508Y0073184D01*
X0056636Y0073090D01*
X0056762Y0072992D01*
X0056886Y0072891D01*
X0057007Y0072787D01*
X0057125Y0072680D01*
X0057241Y0072570D01*
X0057354Y0072457D01*
X0057464Y0072341D01*
X0057571Y0072223D01*
X0057675Y0072102D01*
X0057776Y0071978D01*
X0057874Y0071852D01*
X0057968Y0071724D01*
X0058060Y0071593D01*
X0058148Y0071460D01*
X0058233Y0071325D01*
X0058315Y0071188D01*
X0058393Y0071049D01*
X0058467Y0070908D01*
X0058538Y0070765D01*
X0058606Y0070620D01*
X0058669Y0070474D01*
X0058730Y0070326D01*
X0058786Y0070177D01*
X0058839Y0070026D01*
X0058888Y0069874D01*
X0058933Y0069721D01*
X0058974Y0069567D01*
X0059012Y0069412D01*
X0059045Y0069256D01*
X0059075Y0069099D01*
X0059101Y0068942D01*
X0059122Y0068784D01*
X0059140Y0068625D01*
X0059154Y0068466D01*
X0059164Y0068307D01*
X0059170Y0068148D01*
X0059172Y0067988D01*
X0059170Y0067828D01*
X0059164Y0067669D01*
X0059154Y0067510D01*
X0059140Y0067351D01*
X0059122Y0067192D01*
X0059101Y0067034D01*
X0059075Y0066877D01*
X0059045Y0066720D01*
X0059012Y0066564D01*
X0058974Y0066409D01*
X0058933Y0066255D01*
X0058888Y0066102D01*
X0058839Y0065950D01*
X0058786Y0065799D01*
X0058730Y0065650D01*
X0058669Y0065502D01*
X0058606Y0065356D01*
X0058538Y0065211D01*
X0058467Y0065068D01*
X0058393Y0064927D01*
X0058315Y0064788D01*
X0058233Y0064651D01*
X0058148Y0064516D01*
X0058060Y0064383D01*
X0057968Y0064252D01*
X0057874Y0064124D01*
X0057776Y0063998D01*
X0057675Y0063874D01*
X0057571Y0063753D01*
X0057464Y0063635D01*
X0057354Y0063519D01*
X0057241Y0063406D01*
X0057125Y0063296D01*
X0057007Y0063189D01*
X0056886Y0063085D01*
X0056762Y0062984D01*
X0056636Y0062886D01*
X0056508Y0062792D01*
X0056377Y0062700D01*
X0056244Y0062612D01*
X0056109Y0062527D01*
X0055972Y0062445D01*
X0055833Y0062367D01*
X0055692Y0062293D01*
X0055549Y0062222D01*
X0055404Y0062154D01*
X0055258Y0062091D01*
X0055110Y0062030D01*
X0054961Y0061974D01*
X0054810Y0061921D01*
X0054658Y0061872D01*
X0054505Y0061827D01*
X0054351Y0061786D01*
X0054196Y0061748D01*
X0054040Y0061715D01*
X0053883Y0061685D01*
X0053726Y0061659D01*
X0053568Y0061638D01*
X0053409Y0061620D01*
X0053250Y0061606D01*
X0053091Y0061596D01*
X0052932Y0061590D01*
X0052772Y0061588D01*
X0052612Y0061590D01*
X0052453Y0061596D01*
X0052294Y0061606D01*
X0052135Y0061620D01*
X0051976Y0061638D01*
X0051818Y0061659D01*
X0051661Y0061685D01*
X0051504Y0061715D01*
X0051348Y0061748D01*
X0051193Y0061786D01*
X0051039Y0061827D01*
X0050886Y0061872D01*
X0050734Y0061921D01*
X0050583Y0061974D01*
X0050434Y0062030D01*
X0050286Y0062091D01*
X0050140Y0062154D01*
X0049995Y0062222D01*
X0049852Y0062293D01*
X0049711Y0062367D01*
X0049572Y0062445D01*
X0049435Y0062527D01*
X0049300Y0062612D01*
X0049167Y0062700D01*
X0049036Y0062792D01*
X0048908Y0062886D01*
X0048782Y0062984D01*
X0048658Y0063085D01*
X0048537Y0063189D01*
X0048419Y0063296D01*
X0048303Y0063406D01*
X0048190Y0063519D01*
X0048080Y0063635D01*
X0047973Y0063753D01*
X0047869Y0063874D01*
X0047768Y0063998D01*
X0047670Y0064124D01*
X0047576Y0064252D01*
X0047484Y0064383D01*
X0047396Y0064516D01*
X0047311Y0064651D01*
X0047229Y0064788D01*
X0047151Y0064927D01*
X0047077Y0065068D01*
X0047006Y0065211D01*
X0046938Y0065356D01*
X0046875Y0065502D01*
X0046814Y0065650D01*
X0046758Y0065799D01*
X0046705Y0065950D01*
X0046656Y0066102D01*
X0046611Y0066255D01*
X0046570Y0066409D01*
X0046532Y0066564D01*
X0046499Y0066720D01*
X0046469Y0066877D01*
X0046443Y0067034D01*
X0046422Y0067192D01*
X0046404Y0067351D01*
X0046390Y0067510D01*
X0046380Y0067669D01*
X0046374Y0067828D01*
X0046372Y0067988D01*
X0091372Y0067988D02*
X0091374Y0068148D01*
X0091380Y0068307D01*
X0091390Y0068466D01*
X0091404Y0068625D01*
X0091422Y0068784D01*
X0091443Y0068942D01*
X0091469Y0069099D01*
X0091499Y0069256D01*
X0091532Y0069412D01*
X0091570Y0069567D01*
X0091611Y0069721D01*
X0091656Y0069874D01*
X0091705Y0070026D01*
X0091758Y0070177D01*
X0091814Y0070326D01*
X0091875Y0070474D01*
X0091938Y0070620D01*
X0092006Y0070765D01*
X0092077Y0070908D01*
X0092151Y0071049D01*
X0092229Y0071188D01*
X0092311Y0071325D01*
X0092396Y0071460D01*
X0092484Y0071593D01*
X0092576Y0071724D01*
X0092670Y0071852D01*
X0092768Y0071978D01*
X0092869Y0072102D01*
X0092973Y0072223D01*
X0093080Y0072341D01*
X0093190Y0072457D01*
X0093303Y0072570D01*
X0093419Y0072680D01*
X0093537Y0072787D01*
X0093658Y0072891D01*
X0093782Y0072992D01*
X0093908Y0073090D01*
X0094036Y0073184D01*
X0094167Y0073276D01*
X0094300Y0073364D01*
X0094435Y0073449D01*
X0094572Y0073531D01*
X0094711Y0073609D01*
X0094852Y0073683D01*
X0094995Y0073754D01*
X0095140Y0073822D01*
X0095286Y0073885D01*
X0095434Y0073946D01*
X0095583Y0074002D01*
X0095734Y0074055D01*
X0095886Y0074104D01*
X0096039Y0074149D01*
X0096193Y0074190D01*
X0096348Y0074228D01*
X0096504Y0074261D01*
X0096661Y0074291D01*
X0096818Y0074317D01*
X0096976Y0074338D01*
X0097135Y0074356D01*
X0097294Y0074370D01*
X0097453Y0074380D01*
X0097612Y0074386D01*
X0097772Y0074388D01*
X0097932Y0074386D01*
X0098091Y0074380D01*
X0098250Y0074370D01*
X0098409Y0074356D01*
X0098568Y0074338D01*
X0098726Y0074317D01*
X0098883Y0074291D01*
X0099040Y0074261D01*
X0099196Y0074228D01*
X0099351Y0074190D01*
X0099505Y0074149D01*
X0099658Y0074104D01*
X0099810Y0074055D01*
X0099961Y0074002D01*
X0100110Y0073946D01*
X0100258Y0073885D01*
X0100404Y0073822D01*
X0100549Y0073754D01*
X0100692Y0073683D01*
X0100833Y0073609D01*
X0100972Y0073531D01*
X0101109Y0073449D01*
X0101244Y0073364D01*
X0101377Y0073276D01*
X0101508Y0073184D01*
X0101636Y0073090D01*
X0101762Y0072992D01*
X0101886Y0072891D01*
X0102007Y0072787D01*
X0102125Y0072680D01*
X0102241Y0072570D01*
X0102354Y0072457D01*
X0102464Y0072341D01*
X0102571Y0072223D01*
X0102675Y0072102D01*
X0102776Y0071978D01*
X0102874Y0071852D01*
X0102968Y0071724D01*
X0103060Y0071593D01*
X0103148Y0071460D01*
X0103233Y0071325D01*
X0103315Y0071188D01*
X0103393Y0071049D01*
X0103467Y0070908D01*
X0103538Y0070765D01*
X0103606Y0070620D01*
X0103669Y0070474D01*
X0103730Y0070326D01*
X0103786Y0070177D01*
X0103839Y0070026D01*
X0103888Y0069874D01*
X0103933Y0069721D01*
X0103974Y0069567D01*
X0104012Y0069412D01*
X0104045Y0069256D01*
X0104075Y0069099D01*
X0104101Y0068942D01*
X0104122Y0068784D01*
X0104140Y0068625D01*
X0104154Y0068466D01*
X0104164Y0068307D01*
X0104170Y0068148D01*
X0104172Y0067988D01*
X0104170Y0067828D01*
X0104164Y0067669D01*
X0104154Y0067510D01*
X0104140Y0067351D01*
X0104122Y0067192D01*
X0104101Y0067034D01*
X0104075Y0066877D01*
X0104045Y0066720D01*
X0104012Y0066564D01*
X0103974Y0066409D01*
X0103933Y0066255D01*
X0103888Y0066102D01*
X0103839Y0065950D01*
X0103786Y0065799D01*
X0103730Y0065650D01*
X0103669Y0065502D01*
X0103606Y0065356D01*
X0103538Y0065211D01*
X0103467Y0065068D01*
X0103393Y0064927D01*
X0103315Y0064788D01*
X0103233Y0064651D01*
X0103148Y0064516D01*
X0103060Y0064383D01*
X0102968Y0064252D01*
X0102874Y0064124D01*
X0102776Y0063998D01*
X0102675Y0063874D01*
X0102571Y0063753D01*
X0102464Y0063635D01*
X0102354Y0063519D01*
X0102241Y0063406D01*
X0102125Y0063296D01*
X0102007Y0063189D01*
X0101886Y0063085D01*
X0101762Y0062984D01*
X0101636Y0062886D01*
X0101508Y0062792D01*
X0101377Y0062700D01*
X0101244Y0062612D01*
X0101109Y0062527D01*
X0100972Y0062445D01*
X0100833Y0062367D01*
X0100692Y0062293D01*
X0100549Y0062222D01*
X0100404Y0062154D01*
X0100258Y0062091D01*
X0100110Y0062030D01*
X0099961Y0061974D01*
X0099810Y0061921D01*
X0099658Y0061872D01*
X0099505Y0061827D01*
X0099351Y0061786D01*
X0099196Y0061748D01*
X0099040Y0061715D01*
X0098883Y0061685D01*
X0098726Y0061659D01*
X0098568Y0061638D01*
X0098409Y0061620D01*
X0098250Y0061606D01*
X0098091Y0061596D01*
X0097932Y0061590D01*
X0097772Y0061588D01*
X0097612Y0061590D01*
X0097453Y0061596D01*
X0097294Y0061606D01*
X0097135Y0061620D01*
X0096976Y0061638D01*
X0096818Y0061659D01*
X0096661Y0061685D01*
X0096504Y0061715D01*
X0096348Y0061748D01*
X0096193Y0061786D01*
X0096039Y0061827D01*
X0095886Y0061872D01*
X0095734Y0061921D01*
X0095583Y0061974D01*
X0095434Y0062030D01*
X0095286Y0062091D01*
X0095140Y0062154D01*
X0094995Y0062222D01*
X0094852Y0062293D01*
X0094711Y0062367D01*
X0094572Y0062445D01*
X0094435Y0062527D01*
X0094300Y0062612D01*
X0094167Y0062700D01*
X0094036Y0062792D01*
X0093908Y0062886D01*
X0093782Y0062984D01*
X0093658Y0063085D01*
X0093537Y0063189D01*
X0093419Y0063296D01*
X0093303Y0063406D01*
X0093190Y0063519D01*
X0093080Y0063635D01*
X0092973Y0063753D01*
X0092869Y0063874D01*
X0092768Y0063998D01*
X0092670Y0064124D01*
X0092576Y0064252D01*
X0092484Y0064383D01*
X0092396Y0064516D01*
X0092311Y0064651D01*
X0092229Y0064788D01*
X0092151Y0064927D01*
X0092077Y0065068D01*
X0092006Y0065211D01*
X0091938Y0065356D01*
X0091875Y0065502D01*
X0091814Y0065650D01*
X0091758Y0065799D01*
X0091705Y0065950D01*
X0091656Y0066102D01*
X0091611Y0066255D01*
X0091570Y0066409D01*
X0091532Y0066564D01*
X0091499Y0066720D01*
X0091469Y0066877D01*
X0091443Y0067034D01*
X0091422Y0067192D01*
X0091404Y0067351D01*
X0091390Y0067510D01*
X0091380Y0067669D01*
X0091374Y0067828D01*
X0091372Y0067988D01*
X0282592Y0067988D02*
X0282594Y0068148D01*
X0282600Y0068307D01*
X0282610Y0068466D01*
X0282624Y0068625D01*
X0282642Y0068784D01*
X0282663Y0068942D01*
X0282689Y0069099D01*
X0282719Y0069256D01*
X0282752Y0069412D01*
X0282790Y0069567D01*
X0282831Y0069721D01*
X0282876Y0069874D01*
X0282925Y0070026D01*
X0282978Y0070177D01*
X0283034Y0070326D01*
X0283095Y0070474D01*
X0283158Y0070620D01*
X0283226Y0070765D01*
X0283297Y0070908D01*
X0283371Y0071049D01*
X0283449Y0071188D01*
X0283531Y0071325D01*
X0283616Y0071460D01*
X0283704Y0071593D01*
X0283796Y0071724D01*
X0283890Y0071852D01*
X0283988Y0071978D01*
X0284089Y0072102D01*
X0284193Y0072223D01*
X0284300Y0072341D01*
X0284410Y0072457D01*
X0284523Y0072570D01*
X0284639Y0072680D01*
X0284757Y0072787D01*
X0284878Y0072891D01*
X0285002Y0072992D01*
X0285128Y0073090D01*
X0285256Y0073184D01*
X0285387Y0073276D01*
X0285520Y0073364D01*
X0285655Y0073449D01*
X0285792Y0073531D01*
X0285931Y0073609D01*
X0286072Y0073683D01*
X0286215Y0073754D01*
X0286360Y0073822D01*
X0286506Y0073885D01*
X0286654Y0073946D01*
X0286803Y0074002D01*
X0286954Y0074055D01*
X0287106Y0074104D01*
X0287259Y0074149D01*
X0287413Y0074190D01*
X0287568Y0074228D01*
X0287724Y0074261D01*
X0287881Y0074291D01*
X0288038Y0074317D01*
X0288196Y0074338D01*
X0288355Y0074356D01*
X0288514Y0074370D01*
X0288673Y0074380D01*
X0288832Y0074386D01*
X0288992Y0074388D01*
X0289152Y0074386D01*
X0289311Y0074380D01*
X0289470Y0074370D01*
X0289629Y0074356D01*
X0289788Y0074338D01*
X0289946Y0074317D01*
X0290103Y0074291D01*
X0290260Y0074261D01*
X0290416Y0074228D01*
X0290571Y0074190D01*
X0290725Y0074149D01*
X0290878Y0074104D01*
X0291030Y0074055D01*
X0291181Y0074002D01*
X0291330Y0073946D01*
X0291478Y0073885D01*
X0291624Y0073822D01*
X0291769Y0073754D01*
X0291912Y0073683D01*
X0292053Y0073609D01*
X0292192Y0073531D01*
X0292329Y0073449D01*
X0292464Y0073364D01*
X0292597Y0073276D01*
X0292728Y0073184D01*
X0292856Y0073090D01*
X0292982Y0072992D01*
X0293106Y0072891D01*
X0293227Y0072787D01*
X0293345Y0072680D01*
X0293461Y0072570D01*
X0293574Y0072457D01*
X0293684Y0072341D01*
X0293791Y0072223D01*
X0293895Y0072102D01*
X0293996Y0071978D01*
X0294094Y0071852D01*
X0294188Y0071724D01*
X0294280Y0071593D01*
X0294368Y0071460D01*
X0294453Y0071325D01*
X0294535Y0071188D01*
X0294613Y0071049D01*
X0294687Y0070908D01*
X0294758Y0070765D01*
X0294826Y0070620D01*
X0294889Y0070474D01*
X0294950Y0070326D01*
X0295006Y0070177D01*
X0295059Y0070026D01*
X0295108Y0069874D01*
X0295153Y0069721D01*
X0295194Y0069567D01*
X0295232Y0069412D01*
X0295265Y0069256D01*
X0295295Y0069099D01*
X0295321Y0068942D01*
X0295342Y0068784D01*
X0295360Y0068625D01*
X0295374Y0068466D01*
X0295384Y0068307D01*
X0295390Y0068148D01*
X0295392Y0067988D01*
X0295390Y0067828D01*
X0295384Y0067669D01*
X0295374Y0067510D01*
X0295360Y0067351D01*
X0295342Y0067192D01*
X0295321Y0067034D01*
X0295295Y0066877D01*
X0295265Y0066720D01*
X0295232Y0066564D01*
X0295194Y0066409D01*
X0295153Y0066255D01*
X0295108Y0066102D01*
X0295059Y0065950D01*
X0295006Y0065799D01*
X0294950Y0065650D01*
X0294889Y0065502D01*
X0294826Y0065356D01*
X0294758Y0065211D01*
X0294687Y0065068D01*
X0294613Y0064927D01*
X0294535Y0064788D01*
X0294453Y0064651D01*
X0294368Y0064516D01*
X0294280Y0064383D01*
X0294188Y0064252D01*
X0294094Y0064124D01*
X0293996Y0063998D01*
X0293895Y0063874D01*
X0293791Y0063753D01*
X0293684Y0063635D01*
X0293574Y0063519D01*
X0293461Y0063406D01*
X0293345Y0063296D01*
X0293227Y0063189D01*
X0293106Y0063085D01*
X0292982Y0062984D01*
X0292856Y0062886D01*
X0292728Y0062792D01*
X0292597Y0062700D01*
X0292464Y0062612D01*
X0292329Y0062527D01*
X0292192Y0062445D01*
X0292053Y0062367D01*
X0291912Y0062293D01*
X0291769Y0062222D01*
X0291624Y0062154D01*
X0291478Y0062091D01*
X0291330Y0062030D01*
X0291181Y0061974D01*
X0291030Y0061921D01*
X0290878Y0061872D01*
X0290725Y0061827D01*
X0290571Y0061786D01*
X0290416Y0061748D01*
X0290260Y0061715D01*
X0290103Y0061685D01*
X0289946Y0061659D01*
X0289788Y0061638D01*
X0289629Y0061620D01*
X0289470Y0061606D01*
X0289311Y0061596D01*
X0289152Y0061590D01*
X0288992Y0061588D01*
X0288832Y0061590D01*
X0288673Y0061596D01*
X0288514Y0061606D01*
X0288355Y0061620D01*
X0288196Y0061638D01*
X0288038Y0061659D01*
X0287881Y0061685D01*
X0287724Y0061715D01*
X0287568Y0061748D01*
X0287413Y0061786D01*
X0287259Y0061827D01*
X0287106Y0061872D01*
X0286954Y0061921D01*
X0286803Y0061974D01*
X0286654Y0062030D01*
X0286506Y0062091D01*
X0286360Y0062154D01*
X0286215Y0062222D01*
X0286072Y0062293D01*
X0285931Y0062367D01*
X0285792Y0062445D01*
X0285655Y0062527D01*
X0285520Y0062612D01*
X0285387Y0062700D01*
X0285256Y0062792D01*
X0285128Y0062886D01*
X0285002Y0062984D01*
X0284878Y0063085D01*
X0284757Y0063189D01*
X0284639Y0063296D01*
X0284523Y0063406D01*
X0284410Y0063519D01*
X0284300Y0063635D01*
X0284193Y0063753D01*
X0284089Y0063874D01*
X0283988Y0063998D01*
X0283890Y0064124D01*
X0283796Y0064252D01*
X0283704Y0064383D01*
X0283616Y0064516D01*
X0283531Y0064651D01*
X0283449Y0064788D01*
X0283371Y0064927D01*
X0283297Y0065068D01*
X0283226Y0065211D01*
X0283158Y0065356D01*
X0283095Y0065502D01*
X0283034Y0065650D01*
X0282978Y0065799D01*
X0282925Y0065950D01*
X0282876Y0066102D01*
X0282831Y0066255D01*
X0282790Y0066409D01*
X0282752Y0066564D01*
X0282719Y0066720D01*
X0282689Y0066877D01*
X0282663Y0067034D01*
X0282642Y0067192D01*
X0282624Y0067351D01*
X0282610Y0067510D01*
X0282600Y0067669D01*
X0282594Y0067828D01*
X0282592Y0067988D01*
X0327592Y0067988D02*
X0327594Y0068148D01*
X0327600Y0068307D01*
X0327610Y0068466D01*
X0327624Y0068625D01*
X0327642Y0068784D01*
X0327663Y0068942D01*
X0327689Y0069099D01*
X0327719Y0069256D01*
X0327752Y0069412D01*
X0327790Y0069567D01*
X0327831Y0069721D01*
X0327876Y0069874D01*
X0327925Y0070026D01*
X0327978Y0070177D01*
X0328034Y0070326D01*
X0328095Y0070474D01*
X0328158Y0070620D01*
X0328226Y0070765D01*
X0328297Y0070908D01*
X0328371Y0071049D01*
X0328449Y0071188D01*
X0328531Y0071325D01*
X0328616Y0071460D01*
X0328704Y0071593D01*
X0328796Y0071724D01*
X0328890Y0071852D01*
X0328988Y0071978D01*
X0329089Y0072102D01*
X0329193Y0072223D01*
X0329300Y0072341D01*
X0329410Y0072457D01*
X0329523Y0072570D01*
X0329639Y0072680D01*
X0329757Y0072787D01*
X0329878Y0072891D01*
X0330002Y0072992D01*
X0330128Y0073090D01*
X0330256Y0073184D01*
X0330387Y0073276D01*
X0330520Y0073364D01*
X0330655Y0073449D01*
X0330792Y0073531D01*
X0330931Y0073609D01*
X0331072Y0073683D01*
X0331215Y0073754D01*
X0331360Y0073822D01*
X0331506Y0073885D01*
X0331654Y0073946D01*
X0331803Y0074002D01*
X0331954Y0074055D01*
X0332106Y0074104D01*
X0332259Y0074149D01*
X0332413Y0074190D01*
X0332568Y0074228D01*
X0332724Y0074261D01*
X0332881Y0074291D01*
X0333038Y0074317D01*
X0333196Y0074338D01*
X0333355Y0074356D01*
X0333514Y0074370D01*
X0333673Y0074380D01*
X0333832Y0074386D01*
X0333992Y0074388D01*
X0334152Y0074386D01*
X0334311Y0074380D01*
X0334470Y0074370D01*
X0334629Y0074356D01*
X0334788Y0074338D01*
X0334946Y0074317D01*
X0335103Y0074291D01*
X0335260Y0074261D01*
X0335416Y0074228D01*
X0335571Y0074190D01*
X0335725Y0074149D01*
X0335878Y0074104D01*
X0336030Y0074055D01*
X0336181Y0074002D01*
X0336330Y0073946D01*
X0336478Y0073885D01*
X0336624Y0073822D01*
X0336769Y0073754D01*
X0336912Y0073683D01*
X0337053Y0073609D01*
X0337192Y0073531D01*
X0337329Y0073449D01*
X0337464Y0073364D01*
X0337597Y0073276D01*
X0337728Y0073184D01*
X0337856Y0073090D01*
X0337982Y0072992D01*
X0338106Y0072891D01*
X0338227Y0072787D01*
X0338345Y0072680D01*
X0338461Y0072570D01*
X0338574Y0072457D01*
X0338684Y0072341D01*
X0338791Y0072223D01*
X0338895Y0072102D01*
X0338996Y0071978D01*
X0339094Y0071852D01*
X0339188Y0071724D01*
X0339280Y0071593D01*
X0339368Y0071460D01*
X0339453Y0071325D01*
X0339535Y0071188D01*
X0339613Y0071049D01*
X0339687Y0070908D01*
X0339758Y0070765D01*
X0339826Y0070620D01*
X0339889Y0070474D01*
X0339950Y0070326D01*
X0340006Y0070177D01*
X0340059Y0070026D01*
X0340108Y0069874D01*
X0340153Y0069721D01*
X0340194Y0069567D01*
X0340232Y0069412D01*
X0340265Y0069256D01*
X0340295Y0069099D01*
X0340321Y0068942D01*
X0340342Y0068784D01*
X0340360Y0068625D01*
X0340374Y0068466D01*
X0340384Y0068307D01*
X0340390Y0068148D01*
X0340392Y0067988D01*
X0340390Y0067828D01*
X0340384Y0067669D01*
X0340374Y0067510D01*
X0340360Y0067351D01*
X0340342Y0067192D01*
X0340321Y0067034D01*
X0340295Y0066877D01*
X0340265Y0066720D01*
X0340232Y0066564D01*
X0340194Y0066409D01*
X0340153Y0066255D01*
X0340108Y0066102D01*
X0340059Y0065950D01*
X0340006Y0065799D01*
X0339950Y0065650D01*
X0339889Y0065502D01*
X0339826Y0065356D01*
X0339758Y0065211D01*
X0339687Y0065068D01*
X0339613Y0064927D01*
X0339535Y0064788D01*
X0339453Y0064651D01*
X0339368Y0064516D01*
X0339280Y0064383D01*
X0339188Y0064252D01*
X0339094Y0064124D01*
X0338996Y0063998D01*
X0338895Y0063874D01*
X0338791Y0063753D01*
X0338684Y0063635D01*
X0338574Y0063519D01*
X0338461Y0063406D01*
X0338345Y0063296D01*
X0338227Y0063189D01*
X0338106Y0063085D01*
X0337982Y0062984D01*
X0337856Y0062886D01*
X0337728Y0062792D01*
X0337597Y0062700D01*
X0337464Y0062612D01*
X0337329Y0062527D01*
X0337192Y0062445D01*
X0337053Y0062367D01*
X0336912Y0062293D01*
X0336769Y0062222D01*
X0336624Y0062154D01*
X0336478Y0062091D01*
X0336330Y0062030D01*
X0336181Y0061974D01*
X0336030Y0061921D01*
X0335878Y0061872D01*
X0335725Y0061827D01*
X0335571Y0061786D01*
X0335416Y0061748D01*
X0335260Y0061715D01*
X0335103Y0061685D01*
X0334946Y0061659D01*
X0334788Y0061638D01*
X0334629Y0061620D01*
X0334470Y0061606D01*
X0334311Y0061596D01*
X0334152Y0061590D01*
X0333992Y0061588D01*
X0333832Y0061590D01*
X0333673Y0061596D01*
X0333514Y0061606D01*
X0333355Y0061620D01*
X0333196Y0061638D01*
X0333038Y0061659D01*
X0332881Y0061685D01*
X0332724Y0061715D01*
X0332568Y0061748D01*
X0332413Y0061786D01*
X0332259Y0061827D01*
X0332106Y0061872D01*
X0331954Y0061921D01*
X0331803Y0061974D01*
X0331654Y0062030D01*
X0331506Y0062091D01*
X0331360Y0062154D01*
X0331215Y0062222D01*
X0331072Y0062293D01*
X0330931Y0062367D01*
X0330792Y0062445D01*
X0330655Y0062527D01*
X0330520Y0062612D01*
X0330387Y0062700D01*
X0330256Y0062792D01*
X0330128Y0062886D01*
X0330002Y0062984D01*
X0329878Y0063085D01*
X0329757Y0063189D01*
X0329639Y0063296D01*
X0329523Y0063406D01*
X0329410Y0063519D01*
X0329300Y0063635D01*
X0329193Y0063753D01*
X0329089Y0063874D01*
X0328988Y0063998D01*
X0328890Y0064124D01*
X0328796Y0064252D01*
X0328704Y0064383D01*
X0328616Y0064516D01*
X0328531Y0064651D01*
X0328449Y0064788D01*
X0328371Y0064927D01*
X0328297Y0065068D01*
X0328226Y0065211D01*
X0328158Y0065356D01*
X0328095Y0065502D01*
X0328034Y0065650D01*
X0327978Y0065799D01*
X0327925Y0065950D01*
X0327876Y0066102D01*
X0327831Y0066255D01*
X0327790Y0066409D01*
X0327752Y0066564D01*
X0327719Y0066720D01*
X0327689Y0066877D01*
X0327663Y0067034D01*
X0327642Y0067192D01*
X0327624Y0067351D01*
X0327610Y0067510D01*
X0327600Y0067669D01*
X0327594Y0067828D01*
X0327592Y0067988D01*
X0352437Y0060114D02*
X0352439Y0060272D01*
X0352445Y0060430D01*
X0352455Y0060588D01*
X0352469Y0060746D01*
X0352487Y0060903D01*
X0352508Y0061060D01*
X0352534Y0061216D01*
X0352564Y0061372D01*
X0352597Y0061527D01*
X0352635Y0061680D01*
X0352676Y0061833D01*
X0352721Y0061985D01*
X0352770Y0062136D01*
X0352823Y0062285D01*
X0352879Y0062433D01*
X0352939Y0062579D01*
X0353003Y0062724D01*
X0353071Y0062867D01*
X0353142Y0063009D01*
X0353216Y0063149D01*
X0353294Y0063286D01*
X0353376Y0063422D01*
X0353460Y0063556D01*
X0353549Y0063687D01*
X0353640Y0063816D01*
X0353735Y0063943D01*
X0353832Y0064068D01*
X0353933Y0064190D01*
X0354037Y0064309D01*
X0354144Y0064426D01*
X0354254Y0064540D01*
X0354367Y0064651D01*
X0354482Y0064760D01*
X0354600Y0064865D01*
X0354721Y0064967D01*
X0354844Y0065067D01*
X0354970Y0065163D01*
X0355098Y0065256D01*
X0355228Y0065346D01*
X0355361Y0065432D01*
X0355496Y0065516D01*
X0355632Y0065595D01*
X0355771Y0065672D01*
X0355912Y0065744D01*
X0356054Y0065814D01*
X0356198Y0065879D01*
X0356344Y0065941D01*
X0356491Y0065999D01*
X0356640Y0066054D01*
X0356790Y0066105D01*
X0356941Y0066152D01*
X0357093Y0066195D01*
X0357246Y0066234D01*
X0357401Y0066270D01*
X0357556Y0066301D01*
X0357712Y0066329D01*
X0357868Y0066353D01*
X0358025Y0066373D01*
X0358183Y0066389D01*
X0358340Y0066401D01*
X0358499Y0066409D01*
X0358657Y0066413D01*
X0358815Y0066413D01*
X0358973Y0066409D01*
X0359132Y0066401D01*
X0359289Y0066389D01*
X0359447Y0066373D01*
X0359604Y0066353D01*
X0359760Y0066329D01*
X0359916Y0066301D01*
X0360071Y0066270D01*
X0360226Y0066234D01*
X0360379Y0066195D01*
X0360531Y0066152D01*
X0360682Y0066105D01*
X0360832Y0066054D01*
X0360981Y0065999D01*
X0361128Y0065941D01*
X0361274Y0065879D01*
X0361418Y0065814D01*
X0361560Y0065744D01*
X0361701Y0065672D01*
X0361840Y0065595D01*
X0361976Y0065516D01*
X0362111Y0065432D01*
X0362244Y0065346D01*
X0362374Y0065256D01*
X0362502Y0065163D01*
X0362628Y0065067D01*
X0362751Y0064967D01*
X0362872Y0064865D01*
X0362990Y0064760D01*
X0363105Y0064651D01*
X0363218Y0064540D01*
X0363328Y0064426D01*
X0363435Y0064309D01*
X0363539Y0064190D01*
X0363640Y0064068D01*
X0363737Y0063943D01*
X0363832Y0063816D01*
X0363923Y0063687D01*
X0364012Y0063556D01*
X0364096Y0063422D01*
X0364178Y0063286D01*
X0364256Y0063149D01*
X0364330Y0063009D01*
X0364401Y0062867D01*
X0364469Y0062724D01*
X0364533Y0062579D01*
X0364593Y0062433D01*
X0364649Y0062285D01*
X0364702Y0062136D01*
X0364751Y0061985D01*
X0364796Y0061833D01*
X0364837Y0061680D01*
X0364875Y0061527D01*
X0364908Y0061372D01*
X0364938Y0061216D01*
X0364964Y0061060D01*
X0364985Y0060903D01*
X0365003Y0060746D01*
X0365017Y0060588D01*
X0365027Y0060430D01*
X0365033Y0060272D01*
X0365035Y0060114D01*
X0365033Y0059956D01*
X0365027Y0059798D01*
X0365017Y0059640D01*
X0365003Y0059482D01*
X0364985Y0059325D01*
X0364964Y0059168D01*
X0364938Y0059012D01*
X0364908Y0058856D01*
X0364875Y0058701D01*
X0364837Y0058548D01*
X0364796Y0058395D01*
X0364751Y0058243D01*
X0364702Y0058092D01*
X0364649Y0057943D01*
X0364593Y0057795D01*
X0364533Y0057649D01*
X0364469Y0057504D01*
X0364401Y0057361D01*
X0364330Y0057219D01*
X0364256Y0057079D01*
X0364178Y0056942D01*
X0364096Y0056806D01*
X0364012Y0056672D01*
X0363923Y0056541D01*
X0363832Y0056412D01*
X0363737Y0056285D01*
X0363640Y0056160D01*
X0363539Y0056038D01*
X0363435Y0055919D01*
X0363328Y0055802D01*
X0363218Y0055688D01*
X0363105Y0055577D01*
X0362990Y0055468D01*
X0362872Y0055363D01*
X0362751Y0055261D01*
X0362628Y0055161D01*
X0362502Y0055065D01*
X0362374Y0054972D01*
X0362244Y0054882D01*
X0362111Y0054796D01*
X0361976Y0054712D01*
X0361840Y0054633D01*
X0361701Y0054556D01*
X0361560Y0054484D01*
X0361418Y0054414D01*
X0361274Y0054349D01*
X0361128Y0054287D01*
X0360981Y0054229D01*
X0360832Y0054174D01*
X0360682Y0054123D01*
X0360531Y0054076D01*
X0360379Y0054033D01*
X0360226Y0053994D01*
X0360071Y0053958D01*
X0359916Y0053927D01*
X0359760Y0053899D01*
X0359604Y0053875D01*
X0359447Y0053855D01*
X0359289Y0053839D01*
X0359132Y0053827D01*
X0358973Y0053819D01*
X0358815Y0053815D01*
X0358657Y0053815D01*
X0358499Y0053819D01*
X0358340Y0053827D01*
X0358183Y0053839D01*
X0358025Y0053855D01*
X0357868Y0053875D01*
X0357712Y0053899D01*
X0357556Y0053927D01*
X0357401Y0053958D01*
X0357246Y0053994D01*
X0357093Y0054033D01*
X0356941Y0054076D01*
X0356790Y0054123D01*
X0356640Y0054174D01*
X0356491Y0054229D01*
X0356344Y0054287D01*
X0356198Y0054349D01*
X0356054Y0054414D01*
X0355912Y0054484D01*
X0355771Y0054556D01*
X0355632Y0054633D01*
X0355496Y0054712D01*
X0355361Y0054796D01*
X0355228Y0054882D01*
X0355098Y0054972D01*
X0354970Y0055065D01*
X0354844Y0055161D01*
X0354721Y0055261D01*
X0354600Y0055363D01*
X0354482Y0055468D01*
X0354367Y0055577D01*
X0354254Y0055688D01*
X0354144Y0055802D01*
X0354037Y0055919D01*
X0353933Y0056038D01*
X0353832Y0056160D01*
X0353735Y0056285D01*
X0353640Y0056412D01*
X0353549Y0056541D01*
X0353460Y0056672D01*
X0353376Y0056806D01*
X0353294Y0056942D01*
X0353216Y0057079D01*
X0353142Y0057219D01*
X0353071Y0057361D01*
X0353003Y0057504D01*
X0352939Y0057649D01*
X0352879Y0057795D01*
X0352823Y0057943D01*
X0352770Y0058092D01*
X0352721Y0058243D01*
X0352676Y0058395D01*
X0352635Y0058548D01*
X0352597Y0058701D01*
X0352564Y0058856D01*
X0352534Y0059012D01*
X0352508Y0059168D01*
X0352487Y0059325D01*
X0352469Y0059482D01*
X0352455Y0059640D01*
X0352445Y0059798D01*
X0352439Y0059956D01*
X0352437Y0060114D01*
X0352437Y0272713D02*
X0352439Y0272871D01*
X0352445Y0273029D01*
X0352455Y0273187D01*
X0352469Y0273345D01*
X0352487Y0273502D01*
X0352508Y0273659D01*
X0352534Y0273815D01*
X0352564Y0273971D01*
X0352597Y0274126D01*
X0352635Y0274279D01*
X0352676Y0274432D01*
X0352721Y0274584D01*
X0352770Y0274735D01*
X0352823Y0274884D01*
X0352879Y0275032D01*
X0352939Y0275178D01*
X0353003Y0275323D01*
X0353071Y0275466D01*
X0353142Y0275608D01*
X0353216Y0275748D01*
X0353294Y0275885D01*
X0353376Y0276021D01*
X0353460Y0276155D01*
X0353549Y0276286D01*
X0353640Y0276415D01*
X0353735Y0276542D01*
X0353832Y0276667D01*
X0353933Y0276789D01*
X0354037Y0276908D01*
X0354144Y0277025D01*
X0354254Y0277139D01*
X0354367Y0277250D01*
X0354482Y0277359D01*
X0354600Y0277464D01*
X0354721Y0277566D01*
X0354844Y0277666D01*
X0354970Y0277762D01*
X0355098Y0277855D01*
X0355228Y0277945D01*
X0355361Y0278031D01*
X0355496Y0278115D01*
X0355632Y0278194D01*
X0355771Y0278271D01*
X0355912Y0278343D01*
X0356054Y0278413D01*
X0356198Y0278478D01*
X0356344Y0278540D01*
X0356491Y0278598D01*
X0356640Y0278653D01*
X0356790Y0278704D01*
X0356941Y0278751D01*
X0357093Y0278794D01*
X0357246Y0278833D01*
X0357401Y0278869D01*
X0357556Y0278900D01*
X0357712Y0278928D01*
X0357868Y0278952D01*
X0358025Y0278972D01*
X0358183Y0278988D01*
X0358340Y0279000D01*
X0358499Y0279008D01*
X0358657Y0279012D01*
X0358815Y0279012D01*
X0358973Y0279008D01*
X0359132Y0279000D01*
X0359289Y0278988D01*
X0359447Y0278972D01*
X0359604Y0278952D01*
X0359760Y0278928D01*
X0359916Y0278900D01*
X0360071Y0278869D01*
X0360226Y0278833D01*
X0360379Y0278794D01*
X0360531Y0278751D01*
X0360682Y0278704D01*
X0360832Y0278653D01*
X0360981Y0278598D01*
X0361128Y0278540D01*
X0361274Y0278478D01*
X0361418Y0278413D01*
X0361560Y0278343D01*
X0361701Y0278271D01*
X0361840Y0278194D01*
X0361976Y0278115D01*
X0362111Y0278031D01*
X0362244Y0277945D01*
X0362374Y0277855D01*
X0362502Y0277762D01*
X0362628Y0277666D01*
X0362751Y0277566D01*
X0362872Y0277464D01*
X0362990Y0277359D01*
X0363105Y0277250D01*
X0363218Y0277139D01*
X0363328Y0277025D01*
X0363435Y0276908D01*
X0363539Y0276789D01*
X0363640Y0276667D01*
X0363737Y0276542D01*
X0363832Y0276415D01*
X0363923Y0276286D01*
X0364012Y0276155D01*
X0364096Y0276021D01*
X0364178Y0275885D01*
X0364256Y0275748D01*
X0364330Y0275608D01*
X0364401Y0275466D01*
X0364469Y0275323D01*
X0364533Y0275178D01*
X0364593Y0275032D01*
X0364649Y0274884D01*
X0364702Y0274735D01*
X0364751Y0274584D01*
X0364796Y0274432D01*
X0364837Y0274279D01*
X0364875Y0274126D01*
X0364908Y0273971D01*
X0364938Y0273815D01*
X0364964Y0273659D01*
X0364985Y0273502D01*
X0365003Y0273345D01*
X0365017Y0273187D01*
X0365027Y0273029D01*
X0365033Y0272871D01*
X0365035Y0272713D01*
X0365033Y0272555D01*
X0365027Y0272397D01*
X0365017Y0272239D01*
X0365003Y0272081D01*
X0364985Y0271924D01*
X0364964Y0271767D01*
X0364938Y0271611D01*
X0364908Y0271455D01*
X0364875Y0271300D01*
X0364837Y0271147D01*
X0364796Y0270994D01*
X0364751Y0270842D01*
X0364702Y0270691D01*
X0364649Y0270542D01*
X0364593Y0270394D01*
X0364533Y0270248D01*
X0364469Y0270103D01*
X0364401Y0269960D01*
X0364330Y0269818D01*
X0364256Y0269678D01*
X0364178Y0269541D01*
X0364096Y0269405D01*
X0364012Y0269271D01*
X0363923Y0269140D01*
X0363832Y0269011D01*
X0363737Y0268884D01*
X0363640Y0268759D01*
X0363539Y0268637D01*
X0363435Y0268518D01*
X0363328Y0268401D01*
X0363218Y0268287D01*
X0363105Y0268176D01*
X0362990Y0268067D01*
X0362872Y0267962D01*
X0362751Y0267860D01*
X0362628Y0267760D01*
X0362502Y0267664D01*
X0362374Y0267571D01*
X0362244Y0267481D01*
X0362111Y0267395D01*
X0361976Y0267311D01*
X0361840Y0267232D01*
X0361701Y0267155D01*
X0361560Y0267083D01*
X0361418Y0267013D01*
X0361274Y0266948D01*
X0361128Y0266886D01*
X0360981Y0266828D01*
X0360832Y0266773D01*
X0360682Y0266722D01*
X0360531Y0266675D01*
X0360379Y0266632D01*
X0360226Y0266593D01*
X0360071Y0266557D01*
X0359916Y0266526D01*
X0359760Y0266498D01*
X0359604Y0266474D01*
X0359447Y0266454D01*
X0359289Y0266438D01*
X0359132Y0266426D01*
X0358973Y0266418D01*
X0358815Y0266414D01*
X0358657Y0266414D01*
X0358499Y0266418D01*
X0358340Y0266426D01*
X0358183Y0266438D01*
X0358025Y0266454D01*
X0357868Y0266474D01*
X0357712Y0266498D01*
X0357556Y0266526D01*
X0357401Y0266557D01*
X0357246Y0266593D01*
X0357093Y0266632D01*
X0356941Y0266675D01*
X0356790Y0266722D01*
X0356640Y0266773D01*
X0356491Y0266828D01*
X0356344Y0266886D01*
X0356198Y0266948D01*
X0356054Y0267013D01*
X0355912Y0267083D01*
X0355771Y0267155D01*
X0355632Y0267232D01*
X0355496Y0267311D01*
X0355361Y0267395D01*
X0355228Y0267481D01*
X0355098Y0267571D01*
X0354970Y0267664D01*
X0354844Y0267760D01*
X0354721Y0267860D01*
X0354600Y0267962D01*
X0354482Y0268067D01*
X0354367Y0268176D01*
X0354254Y0268287D01*
X0354144Y0268401D01*
X0354037Y0268518D01*
X0353933Y0268637D01*
X0353832Y0268759D01*
X0353735Y0268884D01*
X0353640Y0269011D01*
X0353549Y0269140D01*
X0353460Y0269271D01*
X0353376Y0269405D01*
X0353294Y0269541D01*
X0353216Y0269678D01*
X0353142Y0269818D01*
X0353071Y0269960D01*
X0353003Y0270103D01*
X0352939Y0270248D01*
X0352879Y0270394D01*
X0352823Y0270542D01*
X0352770Y0270691D01*
X0352721Y0270842D01*
X0352676Y0270994D01*
X0352635Y0271147D01*
X0352597Y0271300D01*
X0352564Y0271455D01*
X0352534Y0271611D01*
X0352508Y0271767D01*
X0352487Y0271924D01*
X0352469Y0272081D01*
X0352455Y0272239D01*
X0352445Y0272397D01*
X0352439Y0272555D01*
X0352437Y0272713D01*
X0021729Y0272713D02*
X0021731Y0272871D01*
X0021737Y0273029D01*
X0021747Y0273187D01*
X0021761Y0273345D01*
X0021779Y0273502D01*
X0021800Y0273659D01*
X0021826Y0273815D01*
X0021856Y0273971D01*
X0021889Y0274126D01*
X0021927Y0274279D01*
X0021968Y0274432D01*
X0022013Y0274584D01*
X0022062Y0274735D01*
X0022115Y0274884D01*
X0022171Y0275032D01*
X0022231Y0275178D01*
X0022295Y0275323D01*
X0022363Y0275466D01*
X0022434Y0275608D01*
X0022508Y0275748D01*
X0022586Y0275885D01*
X0022668Y0276021D01*
X0022752Y0276155D01*
X0022841Y0276286D01*
X0022932Y0276415D01*
X0023027Y0276542D01*
X0023124Y0276667D01*
X0023225Y0276789D01*
X0023329Y0276908D01*
X0023436Y0277025D01*
X0023546Y0277139D01*
X0023659Y0277250D01*
X0023774Y0277359D01*
X0023892Y0277464D01*
X0024013Y0277566D01*
X0024136Y0277666D01*
X0024262Y0277762D01*
X0024390Y0277855D01*
X0024520Y0277945D01*
X0024653Y0278031D01*
X0024788Y0278115D01*
X0024924Y0278194D01*
X0025063Y0278271D01*
X0025204Y0278343D01*
X0025346Y0278413D01*
X0025490Y0278478D01*
X0025636Y0278540D01*
X0025783Y0278598D01*
X0025932Y0278653D01*
X0026082Y0278704D01*
X0026233Y0278751D01*
X0026385Y0278794D01*
X0026538Y0278833D01*
X0026693Y0278869D01*
X0026848Y0278900D01*
X0027004Y0278928D01*
X0027160Y0278952D01*
X0027317Y0278972D01*
X0027475Y0278988D01*
X0027632Y0279000D01*
X0027791Y0279008D01*
X0027949Y0279012D01*
X0028107Y0279012D01*
X0028265Y0279008D01*
X0028424Y0279000D01*
X0028581Y0278988D01*
X0028739Y0278972D01*
X0028896Y0278952D01*
X0029052Y0278928D01*
X0029208Y0278900D01*
X0029363Y0278869D01*
X0029518Y0278833D01*
X0029671Y0278794D01*
X0029823Y0278751D01*
X0029974Y0278704D01*
X0030124Y0278653D01*
X0030273Y0278598D01*
X0030420Y0278540D01*
X0030566Y0278478D01*
X0030710Y0278413D01*
X0030852Y0278343D01*
X0030993Y0278271D01*
X0031132Y0278194D01*
X0031268Y0278115D01*
X0031403Y0278031D01*
X0031536Y0277945D01*
X0031666Y0277855D01*
X0031794Y0277762D01*
X0031920Y0277666D01*
X0032043Y0277566D01*
X0032164Y0277464D01*
X0032282Y0277359D01*
X0032397Y0277250D01*
X0032510Y0277139D01*
X0032620Y0277025D01*
X0032727Y0276908D01*
X0032831Y0276789D01*
X0032932Y0276667D01*
X0033029Y0276542D01*
X0033124Y0276415D01*
X0033215Y0276286D01*
X0033304Y0276155D01*
X0033388Y0276021D01*
X0033470Y0275885D01*
X0033548Y0275748D01*
X0033622Y0275608D01*
X0033693Y0275466D01*
X0033761Y0275323D01*
X0033825Y0275178D01*
X0033885Y0275032D01*
X0033941Y0274884D01*
X0033994Y0274735D01*
X0034043Y0274584D01*
X0034088Y0274432D01*
X0034129Y0274279D01*
X0034167Y0274126D01*
X0034200Y0273971D01*
X0034230Y0273815D01*
X0034256Y0273659D01*
X0034277Y0273502D01*
X0034295Y0273345D01*
X0034309Y0273187D01*
X0034319Y0273029D01*
X0034325Y0272871D01*
X0034327Y0272713D01*
X0034325Y0272555D01*
X0034319Y0272397D01*
X0034309Y0272239D01*
X0034295Y0272081D01*
X0034277Y0271924D01*
X0034256Y0271767D01*
X0034230Y0271611D01*
X0034200Y0271455D01*
X0034167Y0271300D01*
X0034129Y0271147D01*
X0034088Y0270994D01*
X0034043Y0270842D01*
X0033994Y0270691D01*
X0033941Y0270542D01*
X0033885Y0270394D01*
X0033825Y0270248D01*
X0033761Y0270103D01*
X0033693Y0269960D01*
X0033622Y0269818D01*
X0033548Y0269678D01*
X0033470Y0269541D01*
X0033388Y0269405D01*
X0033304Y0269271D01*
X0033215Y0269140D01*
X0033124Y0269011D01*
X0033029Y0268884D01*
X0032932Y0268759D01*
X0032831Y0268637D01*
X0032727Y0268518D01*
X0032620Y0268401D01*
X0032510Y0268287D01*
X0032397Y0268176D01*
X0032282Y0268067D01*
X0032164Y0267962D01*
X0032043Y0267860D01*
X0031920Y0267760D01*
X0031794Y0267664D01*
X0031666Y0267571D01*
X0031536Y0267481D01*
X0031403Y0267395D01*
X0031268Y0267311D01*
X0031132Y0267232D01*
X0030993Y0267155D01*
X0030852Y0267083D01*
X0030710Y0267013D01*
X0030566Y0266948D01*
X0030420Y0266886D01*
X0030273Y0266828D01*
X0030124Y0266773D01*
X0029974Y0266722D01*
X0029823Y0266675D01*
X0029671Y0266632D01*
X0029518Y0266593D01*
X0029363Y0266557D01*
X0029208Y0266526D01*
X0029052Y0266498D01*
X0028896Y0266474D01*
X0028739Y0266454D01*
X0028581Y0266438D01*
X0028424Y0266426D01*
X0028265Y0266418D01*
X0028107Y0266414D01*
X0027949Y0266414D01*
X0027791Y0266418D01*
X0027632Y0266426D01*
X0027475Y0266438D01*
X0027317Y0266454D01*
X0027160Y0266474D01*
X0027004Y0266498D01*
X0026848Y0266526D01*
X0026693Y0266557D01*
X0026538Y0266593D01*
X0026385Y0266632D01*
X0026233Y0266675D01*
X0026082Y0266722D01*
X0025932Y0266773D01*
X0025783Y0266828D01*
X0025636Y0266886D01*
X0025490Y0266948D01*
X0025346Y0267013D01*
X0025204Y0267083D01*
X0025063Y0267155D01*
X0024924Y0267232D01*
X0024788Y0267311D01*
X0024653Y0267395D01*
X0024520Y0267481D01*
X0024390Y0267571D01*
X0024262Y0267664D01*
X0024136Y0267760D01*
X0024013Y0267860D01*
X0023892Y0267962D01*
X0023774Y0268067D01*
X0023659Y0268176D01*
X0023546Y0268287D01*
X0023436Y0268401D01*
X0023329Y0268518D01*
X0023225Y0268637D01*
X0023124Y0268759D01*
X0023027Y0268884D01*
X0022932Y0269011D01*
X0022841Y0269140D01*
X0022752Y0269271D01*
X0022668Y0269405D01*
X0022586Y0269541D01*
X0022508Y0269678D01*
X0022434Y0269818D01*
X0022363Y0269960D01*
X0022295Y0270103D01*
X0022231Y0270248D01*
X0022171Y0270394D01*
X0022115Y0270542D01*
X0022062Y0270691D01*
X0022013Y0270842D01*
X0021968Y0270994D01*
X0021927Y0271147D01*
X0021889Y0271300D01*
X0021856Y0271455D01*
X0021826Y0271611D01*
X0021800Y0271767D01*
X0021779Y0271924D01*
X0021761Y0272081D01*
X0021747Y0272239D01*
X0021737Y0272397D01*
X0021731Y0272555D01*
X0021729Y0272713D01*
D11*
X0076217Y0240803D03*
X0086217Y0240803D03*
X0096217Y0240803D03*
X0106217Y0240803D03*
X0086217Y0158303D03*
X0086217Y0148303D03*
X0156217Y0128303D03*
X0166217Y0128303D03*
X0208717Y0123303D03*
X0208717Y0133303D03*
X0208717Y0143303D03*
X0208717Y0153303D03*
X0221217Y0098303D03*
X0261217Y0098303D03*
D12*
X0176217Y0090903D02*
X0176217Y0085703D01*
X0166217Y0085703D02*
X0166217Y0090903D01*
X0156217Y0090903D02*
X0156217Y0085703D01*
X0146217Y0085703D02*
X0146217Y0090903D01*
X0146217Y0115703D02*
X0146217Y0120903D01*
X0156217Y0120903D02*
X0156217Y0115703D01*
X0166217Y0115703D02*
X0166217Y0120903D01*
X0176217Y0120903D02*
X0176217Y0115703D01*
X0176217Y0135703D02*
X0176217Y0140903D01*
X0166217Y0140903D02*
X0166217Y0135703D01*
X0156217Y0135703D02*
X0156217Y0140903D01*
X0146217Y0140903D02*
X0146217Y0135703D01*
X0136217Y0135703D02*
X0136217Y0140903D01*
X0126217Y0140903D02*
X0126217Y0135703D01*
X0116217Y0135703D02*
X0116217Y0140903D01*
X0106217Y0140903D02*
X0106217Y0135703D01*
X0096217Y0135703D02*
X0096217Y0140903D01*
X0096217Y0165703D02*
X0096217Y0170903D01*
X0106217Y0170903D02*
X0106217Y0165703D01*
X0116217Y0165703D02*
X0116217Y0170903D01*
X0126217Y0170903D02*
X0126217Y0165703D01*
X0136217Y0165703D02*
X0136217Y0170903D01*
X0146217Y0170903D02*
X0146217Y0165703D01*
X0156217Y0165703D02*
X0156217Y0170903D01*
X0166217Y0170903D02*
X0166217Y0165703D01*
X0176217Y0165703D02*
X0176217Y0170903D01*
X0176217Y0195703D02*
X0176217Y0200903D01*
X0166217Y0200903D02*
X0166217Y0195703D01*
X0156217Y0195703D02*
X0156217Y0200903D01*
X0146217Y0200903D02*
X0146217Y0195703D01*
X0136217Y0195703D02*
X0136217Y0200903D01*
X0126217Y0200903D02*
X0126217Y0195703D01*
X0116217Y0195703D02*
X0116217Y0200903D01*
X0106217Y0200903D02*
X0106217Y0195703D01*
X0096217Y0195703D02*
X0096217Y0200903D01*
X0086217Y0200903D02*
X0086217Y0195703D01*
X0076217Y0195703D02*
X0076217Y0200903D01*
X0066217Y0200903D02*
X0066217Y0195703D01*
X0056217Y0195703D02*
X0056217Y0200903D01*
X0046217Y0200903D02*
X0046217Y0195703D01*
X0046217Y0225703D02*
X0046217Y0230903D01*
X0056217Y0230903D02*
X0056217Y0225703D01*
X0066217Y0225703D02*
X0066217Y0230903D01*
X0076217Y0230903D02*
X0076217Y0225703D01*
X0086217Y0225703D02*
X0086217Y0230903D01*
X0096217Y0230903D02*
X0096217Y0225703D01*
X0106217Y0225703D02*
X0106217Y0230903D01*
X0116217Y0230903D02*
X0116217Y0225703D01*
X0126217Y0225703D02*
X0126217Y0230903D01*
X0136217Y0230903D02*
X0136217Y0225703D01*
X0146217Y0225703D02*
X0146217Y0230903D01*
X0156217Y0230903D02*
X0156217Y0225703D01*
X0166217Y0225703D02*
X0166217Y0230903D01*
X0176217Y0230903D02*
X0176217Y0225703D01*
D13*
X0173417Y0078303D02*
X0179017Y0078303D01*
X0179017Y0068303D02*
X0173417Y0068303D01*
D14*
X0156217Y0068303D03*
X0116217Y0068303D03*
X0036217Y0118303D03*
X0046217Y0138303D03*
X0036217Y0158303D03*
X0036217Y0178303D03*
X0036217Y0188303D03*
X0086217Y0138303D03*
D15*
X0193717Y0128803D03*
X0193717Y0147803D03*
X0100717Y0255803D03*
X0081717Y0255803D03*
D16*
X0046217Y0148303D03*
D17*
X0056217Y0148303D03*
X0066217Y0148303D03*
X0066217Y0158303D03*
X0056217Y0158303D03*
X0046217Y0158303D03*
D18*
X0193717Y0072553D02*
X0193717Y0066553D01*
X0203717Y0066553D02*
X0203717Y0072553D01*
X0213717Y0072553D02*
X0213717Y0066553D01*
X0231217Y0066553D02*
X0231217Y0072553D01*
X0241217Y0072553D02*
X0241217Y0066553D01*
X0251217Y0066553D02*
X0251217Y0072553D01*
X0251217Y0122803D02*
X0251217Y0128803D01*
X0241217Y0128803D02*
X0241217Y0122803D01*
X0231217Y0122803D02*
X0231217Y0128803D01*
X0229217Y0173303D02*
X0223217Y0173303D01*
X0209217Y0173303D02*
X0203217Y0173303D01*
X0203217Y0183303D02*
X0209217Y0183303D01*
X0209217Y0193303D02*
X0203217Y0193303D01*
X0223217Y0193303D02*
X0229217Y0193303D01*
X0229217Y0183303D02*
X0223217Y0183303D01*
X0243217Y0183303D02*
X0249217Y0183303D01*
X0249217Y0193303D02*
X0243217Y0193303D01*
X0263217Y0193303D02*
X0269217Y0193303D01*
X0269217Y0183303D02*
X0263217Y0183303D01*
X0263217Y0173303D02*
X0269217Y0173303D01*
X0249217Y0173303D02*
X0243217Y0173303D01*
X0243217Y0213303D02*
X0249217Y0213303D01*
X0249217Y0223303D02*
X0243217Y0223303D01*
X0229217Y0223303D02*
X0223217Y0223303D01*
X0223217Y0213303D02*
X0229217Y0213303D01*
X0209217Y0213303D02*
X0203217Y0213303D01*
X0203217Y0223303D02*
X0209217Y0223303D01*
X0209217Y0233303D02*
X0203217Y0233303D01*
X0223217Y0233303D02*
X0229217Y0233303D01*
X0243217Y0233303D02*
X0249217Y0233303D01*
X0263217Y0233303D02*
X0269217Y0233303D01*
X0269217Y0223303D02*
X0263217Y0223303D01*
X0263217Y0213303D02*
X0269217Y0213303D01*
X0269217Y0253303D02*
X0263217Y0253303D01*
X0263217Y0263303D02*
X0269217Y0263303D01*
X0269217Y0273303D02*
X0263217Y0273303D01*
X0249217Y0273303D02*
X0243217Y0273303D01*
X0229217Y0273303D02*
X0223217Y0273303D01*
X0209217Y0273303D02*
X0203217Y0273303D01*
X0203217Y0263303D02*
X0209217Y0263303D01*
X0209217Y0253303D02*
X0203217Y0253303D01*
X0223217Y0253303D02*
X0229217Y0253303D01*
X0229217Y0263303D02*
X0223217Y0263303D01*
X0243217Y0263303D02*
X0249217Y0263303D01*
X0249217Y0253303D02*
X0243217Y0253303D01*
X0353217Y0188303D02*
X0359217Y0188303D01*
X0359217Y0178303D02*
X0353217Y0178303D01*
X0353217Y0168303D02*
X0359217Y0168303D01*
X0359217Y0158303D02*
X0353217Y0158303D01*
D19*
X0328992Y0102988D03*
X0318992Y0102988D03*
X0308992Y0102988D03*
X0298992Y0102988D03*
X0293992Y0092988D03*
X0303992Y0092988D03*
X0313992Y0092988D03*
X0323992Y0092988D03*
X0092772Y0102988D03*
X0082772Y0102988D03*
X0072772Y0102988D03*
X0062772Y0102988D03*
X0067772Y0092988D03*
X0077772Y0092988D03*
X0087772Y0092988D03*
X0057772Y0092988D03*
D20*
X0301217Y0173303D03*
X0311217Y0173303D03*
X0321217Y0173303D03*
X0321217Y0213303D03*
X0311217Y0213303D03*
X0301217Y0213303D03*
X0301217Y0253303D03*
X0311217Y0253303D03*
X0321217Y0253303D03*
D21*
X0251217Y0098303D03*
X0231217Y0098303D03*
D22*
X0235734Y0096273D02*
X0246699Y0096273D01*
X0246917Y0095749D02*
X0246267Y0097319D01*
X0246267Y0099288D01*
X0246917Y0100857D01*
X0246917Y0120641D01*
X0246417Y0121848D01*
X0246417Y0129758D01*
X0247147Y0131522D01*
X0248498Y0132872D01*
X0250262Y0133603D01*
X0252171Y0133603D01*
X0253936Y0132872D01*
X0255286Y0131522D01*
X0255874Y0130103D01*
X0276935Y0130103D01*
X0296917Y0150084D01*
X0296917Y0169514D01*
X0296645Y0169786D01*
X0296645Y0176820D01*
X0296917Y0177092D01*
X0296917Y0209514D01*
X0296645Y0209786D01*
X0296645Y0216820D01*
X0296917Y0217092D01*
X0296917Y0249514D01*
X0296645Y0249786D01*
X0296645Y0256820D01*
X0297699Y0257875D01*
X0304734Y0257875D01*
X0305788Y0256820D01*
X0305788Y0249786D01*
X0305517Y0249514D01*
X0305517Y0217092D01*
X0305788Y0216820D01*
X0305788Y0209786D01*
X0305517Y0209514D01*
X0305517Y0177092D01*
X0305788Y0176820D01*
X0305788Y0169786D01*
X0305517Y0169514D01*
X0305517Y0147448D01*
X0304862Y0145867D01*
X0303652Y0144658D01*
X0282362Y0123367D01*
X0281152Y0122158D01*
X0279572Y0121503D01*
X0255874Y0121503D01*
X0255517Y0120641D01*
X0255517Y0100857D01*
X0255867Y0100012D01*
X0255867Y0100519D01*
X0259000Y0103653D01*
X0261216Y0103653D01*
X0261216Y0098303D01*
X0261217Y0098303D01*
X0261217Y0098303D01*
X0266567Y0098303D01*
X0266567Y0096087D01*
X0263433Y0092953D01*
X0261217Y0092953D01*
X0261217Y0098303D01*
X0266567Y0098303D01*
X0266567Y0100519D01*
X0263433Y0103653D01*
X0261217Y0103653D01*
X0261217Y0098303D01*
X0261216Y0098303D01*
X0261216Y0092953D01*
X0259000Y0092953D01*
X0255867Y0096087D01*
X0255867Y0096594D01*
X0255517Y0095749D01*
X0255517Y0074715D01*
X0256017Y0073508D01*
X0256017Y0067346D01*
X0293358Y0104688D01*
X0294202Y0105531D01*
X0295305Y0105988D01*
X0295557Y0105988D01*
X0296415Y0106845D01*
X0298087Y0107538D01*
X0299897Y0107538D01*
X0301569Y0106845D01*
X0302849Y0105566D01*
X0303542Y0103893D01*
X0303542Y0102083D01*
X0302849Y0100411D01*
X0301569Y0099131D01*
X0299897Y0098438D01*
X0298087Y0098438D01*
X0296415Y0099131D01*
X0296351Y0099195D01*
X0294694Y0097538D01*
X0294897Y0097538D01*
X0296569Y0096845D01*
X0297849Y0095566D01*
X0298542Y0093893D01*
X0298542Y0092083D01*
X0297849Y0090411D01*
X0296569Y0089131D01*
X0294897Y0088438D01*
X0293094Y0088438D01*
X0258760Y0054104D01*
X0258760Y0054104D01*
X0257916Y0053260D01*
X0256813Y0052803D01*
X0138120Y0052803D01*
X0137017Y0053260D01*
X0120617Y0069661D01*
X0120617Y0066481D01*
X0118039Y0063903D01*
X0114394Y0063903D01*
X0111817Y0066481D01*
X0111817Y0070126D01*
X0114394Y0072703D01*
X0117574Y0072703D01*
X0112474Y0077803D01*
X0069360Y0077803D01*
X0068257Y0078260D01*
X0058079Y0088438D01*
X0056867Y0088438D01*
X0055194Y0089131D01*
X0053914Y0090411D01*
X0053222Y0092083D01*
X0053222Y0093893D01*
X0053914Y0095566D01*
X0055194Y0096845D01*
X0056867Y0097538D01*
X0058677Y0097538D01*
X0060349Y0096845D01*
X0061629Y0095566D01*
X0062322Y0093893D01*
X0062322Y0092681D01*
X0062900Y0092102D01*
X0062822Y0092599D01*
X0062822Y0092988D01*
X0067772Y0092988D01*
X0067772Y0092988D01*
X0072722Y0092988D01*
X0072722Y0092599D01*
X0072600Y0091829D01*
X0072359Y0091088D01*
X0072005Y0090394D01*
X0071547Y0089763D01*
X0070996Y0089213D01*
X0070366Y0088755D01*
X0069672Y0088401D01*
X0068931Y0088160D01*
X0068161Y0088038D01*
X0067772Y0088038D01*
X0067772Y0092988D01*
X0067772Y0092988D01*
X0072722Y0092988D01*
X0072722Y0093378D01*
X0072600Y0094147D01*
X0072359Y0094888D01*
X0072005Y0095583D01*
X0071547Y0096213D01*
X0070996Y0096764D01*
X0070366Y0097222D01*
X0069672Y0097576D01*
X0068931Y0097816D01*
X0068161Y0097938D01*
X0067772Y0097938D01*
X0067772Y0092988D01*
X0067772Y0092988D01*
X0067772Y0088038D01*
X0067382Y0088038D01*
X0066886Y0088117D01*
X0071199Y0083803D01*
X0073169Y0083803D01*
X0072635Y0085091D01*
X0072635Y0086515D01*
X0073181Y0087832D01*
X0074188Y0088839D01*
X0075106Y0089219D01*
X0073914Y0090411D01*
X0073222Y0092083D01*
X0073222Y0093893D01*
X0073914Y0095566D01*
X0075194Y0096845D01*
X0076867Y0097538D01*
X0078677Y0097538D01*
X0080349Y0096845D01*
X0081629Y0095566D01*
X0082322Y0093893D01*
X0082322Y0092083D01*
X0081629Y0090411D01*
X0080349Y0089131D01*
X0079558Y0088803D01*
X0085986Y0088803D01*
X0085194Y0089131D01*
X0083914Y0090411D01*
X0083222Y0092083D01*
X0083222Y0093893D01*
X0083914Y0095566D01*
X0085194Y0096845D01*
X0086867Y0097538D01*
X0088677Y0097538D01*
X0090349Y0096845D01*
X0091629Y0095566D01*
X0092322Y0093893D01*
X0092322Y0092083D01*
X0091629Y0090411D01*
X0090349Y0089131D01*
X0089558Y0088803D01*
X0116813Y0088803D01*
X0117916Y0088346D01*
X0118760Y0087503D01*
X0142459Y0063803D01*
X0172260Y0063803D01*
X0170811Y0064403D01*
X0169517Y0065697D01*
X0168817Y0067388D01*
X0168817Y0069218D01*
X0169517Y0070909D01*
X0170811Y0072203D01*
X0172502Y0072903D01*
X0179932Y0072903D01*
X0181622Y0072203D01*
X0182916Y0070909D01*
X0183617Y0069218D01*
X0183617Y0067388D01*
X0182916Y0065697D01*
X0181622Y0064403D01*
X0180173Y0063803D01*
X0189287Y0063803D01*
X0189269Y0063828D01*
X0188898Y0064557D01*
X0188645Y0065335D01*
X0188517Y0066144D01*
X0188517Y0069553D01*
X0193716Y0069553D01*
X0193716Y0069553D01*
X0188517Y0069553D01*
X0188517Y0072962D01*
X0188645Y0073771D01*
X0188898Y0074549D01*
X0189269Y0075279D01*
X0189578Y0075703D01*
X0182919Y0075703D01*
X0182916Y0075697D01*
X0181622Y0074403D01*
X0179932Y0073703D01*
X0172502Y0073703D01*
X0170811Y0074403D01*
X0169517Y0075697D01*
X0168817Y0077388D01*
X0168817Y0079218D01*
X0169517Y0080909D01*
X0170811Y0082203D01*
X0172360Y0082845D01*
X0172111Y0083187D01*
X0171768Y0083861D01*
X0171535Y0084579D01*
X0171417Y0085325D01*
X0171417Y0088303D01*
X0176216Y0088303D01*
X0176216Y0088303D01*
X0171417Y0088303D01*
X0171417Y0091281D01*
X0171535Y0092027D01*
X0171768Y0092746D01*
X0172111Y0093419D01*
X0172555Y0094030D01*
X0173090Y0094564D01*
X0173701Y0095008D01*
X0174374Y0095351D01*
X0175093Y0095585D01*
X0175839Y0095703D01*
X0176216Y0095703D01*
X0176216Y0088303D01*
X0176217Y0088303D01*
X0176217Y0088303D01*
X0181017Y0088303D01*
X0181017Y0085325D01*
X0180898Y0084579D01*
X0180665Y0083861D01*
X0180322Y0083187D01*
X0180073Y0082845D01*
X0181622Y0082203D01*
X0182916Y0080909D01*
X0182919Y0080903D01*
X0197984Y0080903D01*
X0198939Y0080507D01*
X0199671Y0079776D01*
X0202289Y0077157D01*
X0202762Y0077353D01*
X0204671Y0077353D01*
X0206436Y0076622D01*
X0207786Y0075272D01*
X0208517Y0073508D01*
X0208517Y0065598D01*
X0207786Y0063834D01*
X0207755Y0063803D01*
X0209678Y0063803D01*
X0209647Y0063834D01*
X0208917Y0065598D01*
X0208917Y0073508D01*
X0209647Y0075272D01*
X0210998Y0076622D01*
X0212762Y0077353D01*
X0214671Y0077353D01*
X0216436Y0076622D01*
X0217786Y0075272D01*
X0218517Y0073508D01*
X0218517Y0065598D01*
X0217786Y0063834D01*
X0217755Y0063803D01*
X0227178Y0063803D01*
X0227147Y0063834D01*
X0226417Y0065598D01*
X0226417Y0073508D01*
X0227147Y0075272D01*
X0228498Y0076622D01*
X0230262Y0077353D01*
X0232171Y0077353D01*
X0233936Y0076622D01*
X0235286Y0075272D01*
X0236017Y0073508D01*
X0236017Y0065598D01*
X0235286Y0063834D01*
X0235255Y0063803D01*
X0236787Y0063803D01*
X0236769Y0063828D01*
X0236398Y0064557D01*
X0236145Y0065335D01*
X0236017Y0066144D01*
X0236017Y0069553D01*
X0241216Y0069553D01*
X0241216Y0069553D01*
X0236017Y0069553D01*
X0236017Y0072962D01*
X0236145Y0073771D01*
X0236398Y0074549D01*
X0236769Y0075279D01*
X0237250Y0075941D01*
X0237829Y0076519D01*
X0238491Y0077001D01*
X0239220Y0077372D01*
X0239999Y0077625D01*
X0240807Y0077753D01*
X0241216Y0077753D01*
X0241216Y0069553D01*
X0241217Y0069553D01*
X0241217Y0069553D01*
X0246417Y0069553D01*
X0246417Y0066144D01*
X0246288Y0065335D01*
X0246036Y0064557D01*
X0245664Y0063828D01*
X0245646Y0063803D01*
X0247178Y0063803D01*
X0247147Y0063834D01*
X0246417Y0065598D01*
X0246417Y0073508D01*
X0246917Y0074715D01*
X0246917Y0095749D01*
X0246917Y0093875D02*
X0233461Y0093875D01*
X0234020Y0094107D02*
X0235413Y0095499D01*
X0236167Y0097319D01*
X0236167Y0099288D01*
X0235517Y0100857D01*
X0235517Y0120641D01*
X0236017Y0121848D01*
X0236017Y0129758D01*
X0235286Y0131522D01*
X0233936Y0132872D01*
X0232171Y0133603D01*
X0230262Y0133603D01*
X0228498Y0132872D01*
X0227147Y0131522D01*
X0226417Y0129758D01*
X0226417Y0121848D01*
X0226917Y0120641D01*
X0226917Y0111303D01*
X0168154Y0111303D01*
X0168732Y0111598D01*
X0169344Y0112042D01*
X0169878Y0112576D01*
X0170322Y0113187D01*
X0170665Y0113861D01*
X0170898Y0114579D01*
X0171017Y0115325D01*
X0171017Y0118303D01*
X0166217Y0118303D01*
X0166217Y0118303D01*
X0171017Y0118303D01*
X0171017Y0121281D01*
X0170898Y0122027D01*
X0170665Y0122746D01*
X0170322Y0123419D01*
X0169878Y0124030D01*
X0169694Y0124214D01*
X0171567Y0126087D01*
X0171567Y0128303D01*
X0166217Y0128303D01*
X0166217Y0128303D01*
X0171567Y0128303D01*
X0171567Y0130519D01*
X0169411Y0132675D01*
X0169947Y0133211D01*
X0170617Y0134828D01*
X0170617Y0141778D01*
X0169947Y0143396D01*
X0168709Y0144633D01*
X0167092Y0145303D01*
X0165341Y0145303D01*
X0163724Y0144633D01*
X0162486Y0143396D01*
X0161817Y0141778D01*
X0161817Y0134828D01*
X0162486Y0133211D01*
X0163022Y0132675D01*
X0160934Y0130586D01*
X0159128Y0132392D01*
X0159947Y0133211D01*
X0160617Y0134828D01*
X0160617Y0141778D01*
X0159947Y0143396D01*
X0158709Y0144633D01*
X0157092Y0145303D01*
X0155341Y0145303D01*
X0153724Y0144633D01*
X0152486Y0143396D01*
X0151817Y0141778D01*
X0151817Y0134828D01*
X0152486Y0133211D01*
X0153305Y0132392D01*
X0151267Y0130353D01*
X0151267Y0126253D01*
X0153305Y0124214D01*
X0152486Y0123396D01*
X0151817Y0121778D01*
X0151817Y0114828D01*
X0152486Y0113211D01*
X0153217Y0112481D01*
X0153217Y0099546D01*
X0148423Y0094752D01*
X0147092Y0095303D01*
X0145341Y0095303D01*
X0143724Y0094633D01*
X0142486Y0093396D01*
X0141817Y0091778D01*
X0141817Y0084828D01*
X0142486Y0083211D01*
X0143724Y0081973D01*
X0145341Y0081303D01*
X0147092Y0081303D01*
X0148709Y0081973D01*
X0149947Y0083211D01*
X0150617Y0084828D01*
X0150617Y0088461D01*
X0151817Y0089661D01*
X0151817Y0084828D01*
X0152486Y0083211D01*
X0153724Y0081973D01*
X0154001Y0081858D01*
X0154012Y0081830D01*
X0162635Y0073207D01*
X0162635Y0072591D01*
X0163181Y0071275D01*
X0164188Y0070267D01*
X0165504Y0069722D01*
X0166929Y0069722D01*
X0168245Y0070267D01*
X0169252Y0071275D01*
X0169798Y0072591D01*
X0169798Y0074015D01*
X0169252Y0075332D01*
X0168245Y0076339D01*
X0166929Y0076884D01*
X0166312Y0076884D01*
X0159958Y0083238D01*
X0160617Y0084828D01*
X0160617Y0091778D01*
X0159947Y0093396D01*
X0158709Y0094633D01*
X0157352Y0095196D01*
X0158760Y0096604D01*
X0159217Y0097706D01*
X0159217Y0105303D01*
X0226917Y0105303D01*
X0226917Y0100857D01*
X0226567Y0100012D01*
X0226567Y0100519D01*
X0223433Y0103653D01*
X0221217Y0103653D01*
X0221217Y0098303D01*
X0221217Y0092953D01*
X0223433Y0092953D01*
X0226567Y0096087D01*
X0226567Y0096594D01*
X0227020Y0095499D01*
X0228413Y0094107D01*
X0230232Y0093353D01*
X0232201Y0093353D01*
X0234020Y0094107D01*
X0236167Y0098672D02*
X0246267Y0098672D01*
X0246917Y0101070D02*
X0235517Y0101070D01*
X0235517Y0103469D02*
X0246917Y0103469D01*
X0246917Y0105867D02*
X0235517Y0105867D01*
X0235517Y0108266D02*
X0246917Y0108266D01*
X0246917Y0110664D02*
X0235517Y0110664D01*
X0235517Y0113063D02*
X0246917Y0113063D01*
X0246917Y0115461D02*
X0235517Y0115461D01*
X0235517Y0117860D02*
X0239602Y0117860D01*
X0239220Y0117984D02*
X0239999Y0117731D01*
X0240807Y0117603D01*
X0241216Y0117603D01*
X0241216Y0125803D01*
X0236017Y0125803D01*
X0236017Y0122394D01*
X0236145Y0121585D01*
X0236398Y0120807D01*
X0236769Y0120078D01*
X0237250Y0119416D01*
X0237829Y0118837D01*
X0238491Y0118356D01*
X0239220Y0117984D01*
X0241216Y0117860D02*
X0241217Y0117860D01*
X0241217Y0117603D02*
X0241626Y0117603D01*
X0242434Y0117731D01*
X0243213Y0117984D01*
X0243942Y0118356D01*
X0244604Y0118837D01*
X0245183Y0119416D01*
X0245664Y0120078D01*
X0246036Y0120807D01*
X0246288Y0121585D01*
X0246417Y0122394D01*
X0246417Y0125803D01*
X0241217Y0125803D01*
X0241217Y0125803D01*
X0246417Y0125803D01*
X0246417Y0129212D01*
X0246288Y0130021D01*
X0246036Y0130799D01*
X0245664Y0131529D01*
X0245183Y0132191D01*
X0244604Y0132769D01*
X0243942Y0133251D01*
X0243213Y0133622D01*
X0242434Y0133875D01*
X0241626Y0134003D01*
X0241217Y0134003D01*
X0241217Y0125803D01*
X0241217Y0117603D01*
X0242831Y0117860D02*
X0246917Y0117860D01*
X0246917Y0120258D02*
X0245756Y0120258D01*
X0246417Y0122657D02*
X0246417Y0122657D01*
X0246417Y0125056D02*
X0246417Y0125056D01*
X0246417Y0127454D02*
X0246417Y0127454D01*
X0246456Y0129853D02*
X0246315Y0129853D01*
X0245123Y0132251D02*
X0247876Y0132251D01*
X0241217Y0132251D02*
X0241216Y0132251D01*
X0241216Y0134003D02*
X0240807Y0134003D01*
X0239999Y0133875D01*
X0239220Y0133622D01*
X0238491Y0133251D01*
X0237829Y0132769D01*
X0237250Y0132191D01*
X0236769Y0131529D01*
X0236398Y0130799D01*
X0236145Y0130021D01*
X0236017Y0129212D01*
X0236017Y0125803D01*
X0241216Y0125803D01*
X0241216Y0125803D01*
X0241217Y0125803D01*
X0241216Y0125803D01*
X0241216Y0134003D01*
X0237311Y0132251D02*
X0234557Y0132251D01*
X0235977Y0129853D02*
X0236118Y0129853D01*
X0236017Y0127454D02*
X0236017Y0127454D01*
X0236017Y0125056D02*
X0236017Y0125056D01*
X0236017Y0122657D02*
X0236017Y0122657D01*
X0235517Y0120258D02*
X0236677Y0120258D01*
X0241216Y0120258D02*
X0241217Y0120258D01*
X0241216Y0122657D02*
X0241217Y0122657D01*
X0241216Y0125056D02*
X0241217Y0125056D01*
X0241216Y0127454D02*
X0241217Y0127454D01*
X0241216Y0129853D02*
X0241217Y0129853D01*
X0254557Y0132251D02*
X0279083Y0132251D01*
X0281482Y0134650D02*
X0214067Y0134650D01*
X0214067Y0135519D02*
X0211283Y0138303D01*
X0214067Y0141087D01*
X0214067Y0143303D01*
X0208717Y0143303D01*
X0208717Y0143303D01*
X0214067Y0143303D01*
X0214067Y0145519D01*
X0211000Y0148586D01*
X0213667Y0151253D01*
X0213667Y0155353D01*
X0210767Y0158253D01*
X0206666Y0158253D01*
X0203767Y0155353D01*
X0203767Y0151253D01*
X0206433Y0148586D01*
X0203367Y0145519D01*
X0203367Y0143303D01*
X0203367Y0141087D01*
X0206151Y0138303D01*
X0203367Y0135519D01*
X0203367Y0133303D01*
X0203367Y0131087D01*
X0206433Y0128020D01*
X0203767Y0125353D01*
X0203767Y0121253D01*
X0206666Y0118353D01*
X0210767Y0118353D01*
X0213667Y0121253D01*
X0213667Y0125353D01*
X0211000Y0128020D01*
X0214067Y0131087D01*
X0214067Y0133303D01*
X0208717Y0133303D01*
X0208717Y0133303D01*
X0214067Y0133303D01*
X0214067Y0135519D01*
X0212538Y0137048D02*
X0283880Y0137048D01*
X0286279Y0139447D02*
X0212426Y0139447D01*
X0214067Y0141845D02*
X0288677Y0141845D01*
X0291076Y0144244D02*
X0214067Y0144244D01*
X0212944Y0146642D02*
X0293474Y0146642D01*
X0295873Y0149041D02*
X0211454Y0149041D01*
X0213667Y0151439D02*
X0296917Y0151439D01*
X0296917Y0153838D02*
X0213667Y0153838D01*
X0212784Y0156236D02*
X0296917Y0156236D01*
X0296917Y0158635D02*
X0105791Y0158635D01*
X0108189Y0161033D02*
X0296917Y0161033D01*
X0296917Y0163432D02*
X0180038Y0163432D01*
X0179947Y0163211D02*
X0180617Y0164828D01*
X0180617Y0171778D01*
X0179947Y0173396D01*
X0178709Y0174633D01*
X0177092Y0175303D01*
X0175341Y0175303D01*
X0173724Y0174633D01*
X0172486Y0173396D01*
X0171817Y0171778D01*
X0171817Y0164828D01*
X0172486Y0163211D01*
X0173724Y0161973D01*
X0175341Y0161303D01*
X0177092Y0161303D01*
X0178709Y0161973D01*
X0179947Y0163211D01*
X0180617Y0165830D02*
X0296917Y0165830D01*
X0296917Y0168229D02*
X0180617Y0168229D01*
X0180617Y0170627D02*
X0199129Y0170627D01*
X0199147Y0170584D02*
X0200498Y0169234D01*
X0202262Y0168503D01*
X0210171Y0168503D01*
X0211936Y0169234D01*
X0213286Y0170584D01*
X0214017Y0172348D01*
X0214017Y0174258D01*
X0213286Y0176022D01*
X0211936Y0177372D01*
X0210171Y0178103D01*
X0202262Y0178103D01*
X0200498Y0177372D01*
X0199147Y0176022D01*
X0198417Y0174258D01*
X0198417Y0172348D01*
X0199147Y0170584D01*
X0198417Y0173026D02*
X0180100Y0173026D01*
X0172333Y0173026D02*
X0170100Y0173026D01*
X0169947Y0173396D02*
X0168709Y0174633D01*
X0167092Y0175303D01*
X0165341Y0175303D01*
X0163724Y0174633D01*
X0162486Y0173396D01*
X0161817Y0171778D01*
X0161817Y0164828D01*
X0162486Y0163211D01*
X0163724Y0161973D01*
X0165341Y0161303D01*
X0167092Y0161303D01*
X0168709Y0161973D01*
X0169947Y0163211D01*
X0170617Y0164828D01*
X0170617Y0171778D01*
X0169947Y0173396D01*
X0170617Y0170627D02*
X0171817Y0170627D01*
X0171817Y0168229D02*
X0170617Y0168229D01*
X0170617Y0165830D02*
X0171817Y0165830D01*
X0172395Y0163432D02*
X0170038Y0163432D01*
X0162395Y0163432D02*
X0160038Y0163432D01*
X0159947Y0163211D02*
X0160617Y0164828D01*
X0160617Y0171778D01*
X0159947Y0173396D01*
X0158709Y0174633D01*
X0157092Y0175303D01*
X0155341Y0175303D01*
X0154217Y0174837D01*
X0154217Y0191769D01*
X0155341Y0191303D01*
X0157092Y0191303D01*
X0158709Y0191973D01*
X0159947Y0193211D01*
X0160617Y0194828D01*
X0160617Y0201778D01*
X0159947Y0203396D01*
X0158709Y0204633D01*
X0157092Y0205303D01*
X0155341Y0205303D01*
X0154217Y0204837D01*
X0154217Y0206400D01*
X0153760Y0207503D01*
X0152916Y0208346D01*
X0149217Y0212046D01*
X0149217Y0222481D01*
X0149947Y0223211D01*
X0150617Y0224828D01*
X0150617Y0231778D01*
X0150192Y0232803D01*
X0152241Y0232803D01*
X0151817Y0231778D01*
X0151817Y0224828D01*
X0152486Y0223211D01*
X0153724Y0221973D01*
X0155341Y0221303D01*
X0157092Y0221303D01*
X0158709Y0221973D01*
X0159947Y0223211D01*
X0160617Y0224828D01*
X0160617Y0231778D01*
X0160192Y0232803D01*
X0162241Y0232803D01*
X0161817Y0231778D01*
X0161817Y0224828D01*
X0162486Y0223211D01*
X0163724Y0221973D01*
X0165341Y0221303D01*
X0167092Y0221303D01*
X0168709Y0221973D01*
X0169947Y0223211D01*
X0170617Y0224828D01*
X0170617Y0229661D01*
X0171817Y0228460D01*
X0171817Y0224828D01*
X0172486Y0223211D01*
X0173724Y0221973D01*
X0175341Y0221303D01*
X0177092Y0221303D01*
X0178709Y0221973D01*
X0179947Y0223211D01*
X0180617Y0224828D01*
X0180617Y0231778D01*
X0179947Y0233396D01*
X0178709Y0234633D01*
X0177092Y0235303D01*
X0175341Y0235303D01*
X0174010Y0234752D01*
X0170416Y0238346D01*
X0169313Y0238803D01*
X0123120Y0238803D01*
X0122017Y0238346D01*
X0121173Y0237503D01*
X0118673Y0235003D01*
X0118548Y0234700D01*
X0117092Y0235303D01*
X0115341Y0235303D01*
X0113724Y0234633D01*
X0112486Y0233396D01*
X0111817Y0231778D01*
X0111817Y0224828D01*
X0112486Y0223211D01*
X0113217Y0222481D01*
X0113217Y0219546D01*
X0103673Y0210003D01*
X0103217Y0208900D01*
X0103217Y0204126D01*
X0102486Y0203396D01*
X0101817Y0201778D01*
X0101817Y0194828D01*
X0102486Y0193211D01*
X0103724Y0191973D01*
X0105341Y0191303D01*
X0107092Y0191303D01*
X0108217Y0191769D01*
X0108217Y0187046D01*
X0103673Y0182503D01*
X0103217Y0181400D01*
X0103217Y0174126D01*
X0102486Y0173396D01*
X0101817Y0171778D01*
X0101817Y0164828D01*
X0102309Y0163638D01*
X0094974Y0156303D01*
X0091167Y0156303D01*
X0091167Y0160353D01*
X0088267Y0163253D01*
X0084166Y0163253D01*
X0081267Y0160353D01*
X0081267Y0156303D01*
X0071417Y0156303D01*
X0071417Y0158303D01*
X0066217Y0158303D01*
X0066217Y0158303D01*
X0071417Y0158303D01*
X0071417Y0160457D01*
X0068370Y0163503D01*
X0066217Y0163503D01*
X0066217Y0158303D01*
X0066217Y0153103D01*
X0066774Y0153103D01*
X0064228Y0153103D01*
X0064217Y0153091D01*
X0064217Y0153103D01*
X0066216Y0153103D01*
X0066216Y0158303D01*
X0066217Y0158303D01*
X0066216Y0158303D01*
X0066216Y0163503D01*
X0064217Y0163503D01*
X0064217Y0179560D01*
X0069959Y0185303D01*
X0081813Y0185303D01*
X0082916Y0185760D01*
X0087916Y0190760D01*
X0088760Y0191604D01*
X0089057Y0192321D01*
X0089947Y0193211D01*
X0090617Y0194828D01*
X0090617Y0201778D01*
X0089947Y0203396D01*
X0088709Y0204633D01*
X0087092Y0205303D01*
X0085341Y0205303D01*
X0083724Y0204633D01*
X0082486Y0203396D01*
X0081817Y0201778D01*
X0081817Y0194828D01*
X0082309Y0193638D01*
X0079974Y0191303D01*
X0068459Y0191303D01*
X0068760Y0191604D01*
X0069057Y0192321D01*
X0069947Y0193211D01*
X0070617Y0194828D01*
X0070617Y0201778D01*
X0070192Y0202803D01*
X0072241Y0202803D01*
X0071817Y0201778D01*
X0071817Y0194828D01*
X0072486Y0193211D01*
X0073724Y0191973D01*
X0075341Y0191303D01*
X0077092Y0191303D01*
X0078709Y0191973D01*
X0079947Y0193211D01*
X0080617Y0194828D01*
X0080617Y0201778D01*
X0079947Y0203396D01*
X0079057Y0204285D01*
X0078760Y0205003D01*
X0077916Y0205846D01*
X0075416Y0208346D01*
X0074313Y0208803D01*
X0053120Y0208803D01*
X0052017Y0208346D01*
X0051173Y0207503D01*
X0048673Y0205003D01*
X0048548Y0204700D01*
X0047092Y0205303D01*
X0045341Y0205303D01*
X0043724Y0204633D01*
X0042486Y0203396D01*
X0041817Y0201778D01*
X0041817Y0194828D01*
X0042486Y0193211D01*
X0043724Y0191973D01*
X0045341Y0191303D01*
X0047092Y0191303D01*
X0048217Y0191769D01*
X0048217Y0163091D01*
X0048205Y0163103D01*
X0044228Y0163103D01*
X0041417Y0160291D01*
X0041417Y0156315D01*
X0044228Y0153503D01*
X0047174Y0153503D01*
X0046774Y0153103D01*
X0045262Y0153103D01*
X0043498Y0152372D01*
X0042147Y0151022D01*
X0041417Y0149258D01*
X0041417Y0147348D01*
X0042147Y0145584D01*
X0043498Y0144234D01*
X0045262Y0143503D01*
X0047171Y0143503D01*
X0048936Y0144234D01*
X0050286Y0145584D01*
X0051017Y0147348D01*
X0051017Y0148860D01*
X0051417Y0149261D01*
X0051417Y0146315D01*
X0054228Y0143503D01*
X0058205Y0143503D01*
X0061017Y0146315D01*
X0061017Y0148861D01*
X0061417Y0149261D01*
X0061417Y0146315D01*
X0064228Y0143503D01*
X0068205Y0143503D01*
X0071017Y0146315D01*
X0071017Y0148860D01*
X0072459Y0150303D01*
X0080867Y0150303D01*
X0080867Y0148303D01*
X0080867Y0146087D01*
X0084000Y0142953D01*
X0086216Y0142953D01*
X0086216Y0148303D01*
X0080867Y0148303D01*
X0086216Y0148303D01*
X0086216Y0148303D01*
X0086217Y0148303D01*
X0086217Y0148303D01*
X0091567Y0148303D01*
X0091567Y0146087D01*
X0088433Y0142953D01*
X0086217Y0142953D01*
X0086217Y0148303D01*
X0091567Y0148303D01*
X0091567Y0150303D01*
X0096813Y0150303D01*
X0097916Y0150760D01*
X0098760Y0151604D01*
X0108760Y0161604D01*
X0109057Y0162321D01*
X0109947Y0163211D01*
X0110617Y0164828D01*
X0110617Y0171778D01*
X0109947Y0173396D01*
X0109217Y0174126D01*
X0109217Y0179560D01*
X0112916Y0183260D01*
X0113760Y0184104D01*
X0114217Y0185206D01*
X0114217Y0191335D01*
X0114374Y0191255D01*
X0115093Y0191021D01*
X0115839Y0190903D01*
X0116216Y0190903D01*
X0116216Y0198303D01*
X0116217Y0198303D01*
X0116217Y0198303D01*
X0121017Y0198303D01*
X0121017Y0195325D01*
X0120898Y0194579D01*
X0120665Y0193861D01*
X0120322Y0193187D01*
X0119878Y0192576D01*
X0119344Y0192042D01*
X0118732Y0191598D01*
X0118059Y0191255D01*
X0117341Y0191021D01*
X0116594Y0190903D01*
X0116217Y0190903D01*
X0116217Y0198303D01*
X0121017Y0198303D01*
X0121017Y0201281D01*
X0120898Y0202027D01*
X0120665Y0202746D01*
X0120322Y0203419D01*
X0119878Y0204030D01*
X0119344Y0204564D01*
X0118732Y0205008D01*
X0118059Y0205351D01*
X0117341Y0205585D01*
X0116594Y0205703D01*
X0116217Y0205703D01*
X0116217Y0198303D01*
X0116216Y0198303D01*
X0116216Y0205703D01*
X0115839Y0205703D01*
X0115269Y0205613D01*
X0122916Y0213260D01*
X0123760Y0214104D01*
X0124217Y0215206D01*
X0124217Y0221769D01*
X0125341Y0221303D01*
X0127092Y0221303D01*
X0128709Y0221973D01*
X0129947Y0223211D01*
X0130617Y0224828D01*
X0130617Y0231778D01*
X0130192Y0232803D01*
X0132241Y0232803D01*
X0131817Y0231778D01*
X0131817Y0224828D01*
X0132486Y0223211D01*
X0133724Y0221973D01*
X0135341Y0221303D01*
X0137092Y0221303D01*
X0138709Y0221973D01*
X0139947Y0223211D01*
X0140617Y0224828D01*
X0140617Y0231778D01*
X0140192Y0232803D01*
X0142241Y0232803D01*
X0141817Y0231778D01*
X0141817Y0224828D01*
X0142486Y0223211D01*
X0143217Y0222481D01*
X0143217Y0210206D01*
X0143673Y0209104D01*
X0147744Y0205033D01*
X0147092Y0205303D01*
X0145341Y0205303D01*
X0143724Y0204633D01*
X0142486Y0203396D01*
X0141817Y0201778D01*
X0141817Y0194828D01*
X0142486Y0193211D01*
X0143724Y0191973D01*
X0145341Y0191303D01*
X0147092Y0191303D01*
X0148217Y0191769D01*
X0148217Y0174837D01*
X0147092Y0175303D01*
X0145341Y0175303D01*
X0143724Y0174633D01*
X0142486Y0173396D01*
X0141817Y0171778D01*
X0141817Y0164828D01*
X0142486Y0163211D01*
X0143724Y0161973D01*
X0145341Y0161303D01*
X0147092Y0161303D01*
X0148709Y0161973D01*
X0149947Y0163211D01*
X0150617Y0164828D01*
X0150617Y0169661D01*
X0151817Y0168461D01*
X0151817Y0164828D01*
X0152486Y0163211D01*
X0153724Y0161973D01*
X0155341Y0161303D01*
X0157092Y0161303D01*
X0158709Y0161973D01*
X0159947Y0163211D01*
X0160617Y0165830D02*
X0161817Y0165830D01*
X0161817Y0168229D02*
X0160617Y0168229D01*
X0160617Y0170627D02*
X0161817Y0170627D01*
X0162333Y0173026D02*
X0160100Y0173026D01*
X0154217Y0175424D02*
X0198900Y0175424D01*
X0201585Y0177823D02*
X0154217Y0177823D01*
X0154217Y0180221D02*
X0199510Y0180221D01*
X0199147Y0180584D02*
X0200498Y0179234D01*
X0202262Y0178503D01*
X0210171Y0178503D01*
X0211936Y0179234D01*
X0213286Y0180584D01*
X0214017Y0182348D01*
X0214017Y0184258D01*
X0213286Y0186022D01*
X0211936Y0187372D01*
X0210171Y0188103D01*
X0202262Y0188103D01*
X0200498Y0187372D01*
X0199147Y0186022D01*
X0198417Y0184258D01*
X0198417Y0182348D01*
X0199147Y0180584D01*
X0198417Y0182620D02*
X0154217Y0182620D01*
X0154217Y0185018D02*
X0198731Y0185018D01*
X0200605Y0187417D02*
X0154217Y0187417D01*
X0154217Y0189815D02*
X0199350Y0189815D01*
X0199250Y0189916D02*
X0199829Y0189337D01*
X0200491Y0188856D01*
X0201220Y0188484D01*
X0201999Y0188231D01*
X0202807Y0188103D01*
X0206216Y0188103D01*
X0206216Y0193303D01*
X0198017Y0193303D01*
X0198017Y0192894D01*
X0198145Y0192085D01*
X0198398Y0191307D01*
X0198769Y0190578D01*
X0199250Y0189916D01*
X0198124Y0192214D02*
X0178950Y0192214D01*
X0178709Y0191973D02*
X0179947Y0193211D01*
X0180617Y0194828D01*
X0180617Y0195903D01*
X0198705Y0195903D01*
X0198398Y0195299D01*
X0198145Y0194521D01*
X0198017Y0193712D01*
X0198017Y0193303D01*
X0206216Y0193303D01*
X0206216Y0193303D01*
X0206217Y0193303D01*
X0206217Y0193303D01*
X0214417Y0193303D01*
X0214417Y0192894D01*
X0214288Y0192085D01*
X0214036Y0191307D01*
X0213664Y0190578D01*
X0213183Y0189916D01*
X0212604Y0189337D01*
X0211942Y0188856D01*
X0211213Y0188484D01*
X0210434Y0188231D01*
X0209626Y0188103D01*
X0206217Y0188103D01*
X0206217Y0193303D01*
X0214417Y0193303D01*
X0214417Y0193712D01*
X0214288Y0194521D01*
X0214036Y0195299D01*
X0213728Y0195903D01*
X0218705Y0195903D01*
X0218398Y0195299D01*
X0218145Y0194521D01*
X0218017Y0193712D01*
X0218017Y0193303D01*
X0218017Y0192894D01*
X0218145Y0192085D01*
X0218398Y0191307D01*
X0218769Y0190578D01*
X0219250Y0189916D01*
X0219829Y0189337D01*
X0220491Y0188856D01*
X0221220Y0188484D01*
X0221999Y0188231D01*
X0222807Y0188103D01*
X0226216Y0188103D01*
X0226216Y0193303D01*
X0218017Y0193303D01*
X0226216Y0193303D01*
X0226216Y0193303D01*
X0226217Y0193303D01*
X0226217Y0193303D01*
X0234417Y0193303D01*
X0234417Y0192894D01*
X0234288Y0192085D01*
X0234036Y0191307D01*
X0233664Y0190578D01*
X0233183Y0189916D01*
X0232604Y0189337D01*
X0231942Y0188856D01*
X0231213Y0188484D01*
X0230434Y0188231D01*
X0229626Y0188103D01*
X0226217Y0188103D01*
X0226217Y0193303D01*
X0234417Y0193303D01*
X0234417Y0193712D01*
X0234288Y0194521D01*
X0234036Y0195299D01*
X0233728Y0195903D01*
X0238705Y0195903D01*
X0238398Y0195299D01*
X0238145Y0194521D01*
X0238017Y0193712D01*
X0238017Y0193303D01*
X0238017Y0192894D01*
X0238145Y0192085D01*
X0238398Y0191307D01*
X0238769Y0190578D01*
X0239250Y0189916D01*
X0239829Y0189337D01*
X0240491Y0188856D01*
X0241220Y0188484D01*
X0241999Y0188231D01*
X0242807Y0188103D01*
X0246216Y0188103D01*
X0246216Y0193303D01*
X0238017Y0193303D01*
X0246216Y0193303D01*
X0246216Y0193303D01*
X0246217Y0193303D01*
X0246217Y0188103D01*
X0249626Y0188103D01*
X0250434Y0188231D01*
X0251213Y0188484D01*
X0251942Y0188856D01*
X0252604Y0189337D01*
X0252847Y0189580D01*
X0253181Y0188775D01*
X0253817Y0188139D01*
X0253817Y0184741D01*
X0253286Y0186022D01*
X0251936Y0187372D01*
X0250171Y0188103D01*
X0242262Y0188103D01*
X0240498Y0187372D01*
X0239147Y0186022D01*
X0238417Y0184258D01*
X0238417Y0182348D01*
X0239147Y0180584D01*
X0240498Y0179234D01*
X0242262Y0178503D01*
X0250171Y0178503D01*
X0251936Y0179234D01*
X0253286Y0180584D01*
X0253817Y0181866D01*
X0253817Y0180547D01*
X0251021Y0177751D01*
X0250171Y0178103D01*
X0242262Y0178103D01*
X0240498Y0177372D01*
X0239147Y0176022D01*
X0238417Y0174258D01*
X0238417Y0172348D01*
X0239147Y0170584D01*
X0240498Y0169234D01*
X0242262Y0168503D01*
X0250171Y0168503D01*
X0251936Y0169234D01*
X0253286Y0170584D01*
X0254017Y0172348D01*
X0254017Y0173959D01*
X0258251Y0178194D01*
X0258617Y0179076D01*
X0258617Y0181866D01*
X0259147Y0180584D01*
X0260498Y0179234D01*
X0262262Y0178503D01*
X0270171Y0178503D01*
X0271936Y0179234D01*
X0273286Y0180584D01*
X0274017Y0182348D01*
X0274017Y0184258D01*
X0273286Y0186022D01*
X0271936Y0187372D01*
X0270171Y0188103D01*
X0262262Y0188103D01*
X0260498Y0187372D01*
X0259147Y0186022D01*
X0258617Y0184741D01*
X0258617Y0188139D01*
X0259252Y0188775D01*
X0259586Y0189580D01*
X0259829Y0189337D01*
X0260491Y0188856D01*
X0261220Y0188484D01*
X0261999Y0188231D01*
X0262807Y0188103D01*
X0266216Y0188103D01*
X0266216Y0193303D01*
X0266217Y0193303D01*
X0266217Y0188103D01*
X0269626Y0188103D01*
X0270434Y0188231D01*
X0271213Y0188484D01*
X0271942Y0188856D01*
X0272604Y0189337D01*
X0273183Y0189916D01*
X0273664Y0190578D01*
X0274036Y0191307D01*
X0274288Y0192085D01*
X0274378Y0192651D01*
X0274431Y0192525D01*
X0275067Y0191889D01*
X0275067Y0181797D01*
X0271021Y0177751D01*
X0270171Y0178103D01*
X0262262Y0178103D01*
X0260498Y0177372D01*
X0259147Y0176022D01*
X0258417Y0174258D01*
X0258417Y0172348D01*
X0259147Y0170584D01*
X0260498Y0169234D01*
X0262262Y0168503D01*
X0270171Y0168503D01*
X0271936Y0169234D01*
X0273286Y0170584D01*
X0274017Y0172348D01*
X0274017Y0173959D01*
X0279501Y0179444D01*
X0279867Y0180326D01*
X0279867Y0191889D01*
X0280502Y0192525D01*
X0281048Y0193841D01*
X0281048Y0195265D01*
X0280783Y0195903D01*
X0288552Y0195903D01*
X0289188Y0195267D01*
X0290504Y0194722D01*
X0291929Y0194722D01*
X0293245Y0195267D01*
X0294252Y0196275D01*
X0294798Y0197591D01*
X0294798Y0199015D01*
X0294252Y0200332D01*
X0293245Y0201339D01*
X0291929Y0201884D01*
X0290504Y0201884D01*
X0289798Y0201592D01*
X0289798Y0202765D01*
X0289252Y0204082D01*
X0288245Y0205089D01*
X0286929Y0205634D01*
X0285504Y0205634D01*
X0284188Y0205089D01*
X0283181Y0204082D01*
X0282817Y0203203D01*
X0184711Y0203203D01*
X0180076Y0207838D01*
X0179194Y0208203D01*
X0173239Y0208203D01*
X0172357Y0207838D01*
X0171682Y0207163D01*
X0168931Y0204411D01*
X0168709Y0204633D01*
X0167092Y0205303D01*
X0165341Y0205303D01*
X0163724Y0204633D01*
X0162486Y0203396D01*
X0161817Y0201778D01*
X0161817Y0194828D01*
X0162486Y0193211D01*
X0163724Y0191973D01*
X0165341Y0191303D01*
X0167092Y0191303D01*
X0168709Y0191973D01*
X0169947Y0193211D01*
X0170617Y0194828D01*
X0170617Y0199309D01*
X0171817Y0200509D01*
X0171817Y0194828D01*
X0172486Y0193211D01*
X0173724Y0191973D01*
X0175341Y0191303D01*
X0177092Y0191303D01*
X0178709Y0191973D01*
X0180527Y0194612D02*
X0198174Y0194612D01*
X0206216Y0192214D02*
X0206217Y0192214D01*
X0206216Y0189815D02*
X0206217Y0189815D01*
X0211828Y0187417D02*
X0220605Y0187417D01*
X0220498Y0187372D02*
X0219147Y0186022D01*
X0218417Y0184258D01*
X0218417Y0182348D01*
X0219147Y0180584D01*
X0220498Y0179234D01*
X0222262Y0178503D01*
X0230171Y0178503D01*
X0231936Y0179234D01*
X0233286Y0180584D01*
X0234017Y0182348D01*
X0234017Y0184258D01*
X0233286Y0186022D01*
X0231936Y0187372D01*
X0230171Y0188103D01*
X0222262Y0188103D01*
X0220498Y0187372D01*
X0219350Y0189815D02*
X0213083Y0189815D01*
X0214309Y0192214D02*
X0218124Y0192214D01*
X0218174Y0194612D02*
X0214259Y0194612D01*
X0213702Y0185018D02*
X0218731Y0185018D01*
X0218417Y0182620D02*
X0214017Y0182620D01*
X0212923Y0180221D02*
X0219510Y0180221D01*
X0220498Y0177372D02*
X0219147Y0176022D01*
X0218417Y0174258D01*
X0218417Y0172348D01*
X0219147Y0170584D01*
X0220498Y0169234D01*
X0222262Y0168503D01*
X0230171Y0168503D01*
X0231936Y0169234D01*
X0233286Y0170584D01*
X0234017Y0172348D01*
X0234017Y0174258D01*
X0233286Y0176022D01*
X0231936Y0177372D01*
X0230171Y0178103D01*
X0222262Y0178103D01*
X0220498Y0177372D01*
X0221585Y0177823D02*
X0210848Y0177823D01*
X0213533Y0175424D02*
X0218900Y0175424D01*
X0218417Y0173026D02*
X0214017Y0173026D01*
X0213304Y0170627D02*
X0219129Y0170627D01*
X0230848Y0177823D02*
X0241585Y0177823D01*
X0239510Y0180221D02*
X0232923Y0180221D01*
X0234017Y0182620D02*
X0238417Y0182620D01*
X0238731Y0185018D02*
X0233702Y0185018D01*
X0231828Y0187417D02*
X0240605Y0187417D01*
X0239350Y0189815D02*
X0233083Y0189815D01*
X0234309Y0192214D02*
X0238124Y0192214D01*
X0238174Y0194612D02*
X0234259Y0194612D01*
X0226217Y0192214D02*
X0226216Y0192214D01*
X0226216Y0189815D02*
X0226217Y0189815D01*
X0233533Y0175424D02*
X0238900Y0175424D01*
X0238417Y0173026D02*
X0234017Y0173026D01*
X0233304Y0170627D02*
X0239129Y0170627D01*
X0250848Y0177823D02*
X0251092Y0177823D01*
X0252923Y0180221D02*
X0253491Y0180221D01*
X0253702Y0185018D02*
X0253817Y0185018D01*
X0253817Y0187417D02*
X0251828Y0187417D01*
X0246217Y0189815D02*
X0246216Y0189815D01*
X0246216Y0192214D02*
X0246217Y0192214D01*
X0258617Y0187417D02*
X0260605Y0187417D01*
X0258732Y0185018D02*
X0258617Y0185018D01*
X0258617Y0180221D02*
X0259510Y0180221D01*
X0257880Y0177823D02*
X0261585Y0177823D01*
X0258900Y0175424D02*
X0255482Y0175424D01*
X0254017Y0173026D02*
X0258417Y0173026D01*
X0259129Y0170627D02*
X0253304Y0170627D01*
X0270848Y0177823D02*
X0271092Y0177823D01*
X0272923Y0180221D02*
X0273491Y0180221D01*
X0274017Y0182620D02*
X0275067Y0182620D01*
X0275067Y0185018D02*
X0273702Y0185018D01*
X0275067Y0187417D02*
X0271828Y0187417D01*
X0273083Y0189815D02*
X0275067Y0189815D01*
X0274741Y0192214D02*
X0274309Y0192214D01*
X0280192Y0192214D02*
X0296917Y0192214D01*
X0296917Y0194612D02*
X0281048Y0194612D01*
X0279867Y0189815D02*
X0296917Y0189815D01*
X0296917Y0187417D02*
X0279867Y0187417D01*
X0279867Y0185018D02*
X0296917Y0185018D01*
X0296917Y0182620D02*
X0279867Y0182620D01*
X0279823Y0180221D02*
X0296917Y0180221D01*
X0296917Y0177823D02*
X0277880Y0177823D01*
X0275482Y0175424D02*
X0296645Y0175424D01*
X0296645Y0173026D02*
X0274017Y0173026D01*
X0273304Y0170627D02*
X0296645Y0170627D01*
X0305788Y0170627D02*
X0306245Y0170627D01*
X0306245Y0170242D02*
X0306395Y0169682D01*
X0306684Y0169181D01*
X0307094Y0168771D01*
X0307596Y0168481D01*
X0308155Y0168331D01*
X0311216Y0168331D01*
X0311216Y0173303D01*
X0306245Y0173303D01*
X0306245Y0170242D01*
X0305517Y0168229D02*
X0348417Y0168229D01*
X0348417Y0167348D02*
X0349147Y0165584D01*
X0350498Y0164234D01*
X0352262Y0163503D01*
X0360171Y0163503D01*
X0361936Y0164234D01*
X0363286Y0165584D01*
X0364017Y0167348D01*
X0364017Y0169258D01*
X0363286Y0171022D01*
X0361936Y0172372D01*
X0360171Y0173103D01*
X0352262Y0173103D01*
X0350498Y0172372D01*
X0349147Y0171022D01*
X0348417Y0169258D01*
X0348417Y0167348D01*
X0349045Y0165830D02*
X0305517Y0165830D01*
X0305517Y0163432D02*
X0368347Y0163432D01*
X0368347Y0165830D02*
X0363388Y0165830D01*
X0364017Y0168229D02*
X0368347Y0168229D01*
X0368347Y0170627D02*
X0363449Y0170627D01*
X0361942Y0173856D02*
X0362604Y0174337D01*
X0363183Y0174916D01*
X0363664Y0175578D01*
X0364036Y0176307D01*
X0364288Y0177085D01*
X0364417Y0177894D01*
X0364417Y0178303D01*
X0356217Y0178303D01*
X0356217Y0178303D01*
X0364417Y0178303D01*
X0364417Y0178712D01*
X0364288Y0179521D01*
X0364036Y0180299D01*
X0363664Y0181029D01*
X0363183Y0181691D01*
X0362604Y0182269D01*
X0361942Y0182751D01*
X0361213Y0183122D01*
X0360434Y0183375D01*
X0359626Y0183503D01*
X0356217Y0183503D01*
X0356217Y0178303D01*
X0356217Y0173103D01*
X0359626Y0173103D01*
X0360434Y0173231D01*
X0361213Y0173484D01*
X0361942Y0173856D01*
X0360358Y0173026D02*
X0368347Y0173026D01*
X0368347Y0175424D02*
X0363552Y0175424D01*
X0364405Y0177823D02*
X0368347Y0177823D01*
X0368347Y0180221D02*
X0364061Y0180221D01*
X0362122Y0182620D02*
X0368347Y0182620D01*
X0368347Y0185018D02*
X0362720Y0185018D01*
X0363286Y0185584D02*
X0364017Y0187348D01*
X0364017Y0189258D01*
X0363286Y0191022D01*
X0361936Y0192372D01*
X0360171Y0193103D01*
X0352262Y0193103D01*
X0350498Y0192372D01*
X0349147Y0191022D01*
X0348417Y0189258D01*
X0348417Y0187348D01*
X0349147Y0185584D01*
X0350498Y0184234D01*
X0352262Y0183503D01*
X0360171Y0183503D01*
X0361936Y0184234D01*
X0363286Y0185584D01*
X0364017Y0187417D02*
X0368347Y0187417D01*
X0368347Y0189815D02*
X0363786Y0189815D01*
X0362094Y0192214D02*
X0368347Y0192214D01*
X0368347Y0194612D02*
X0305517Y0194612D01*
X0305517Y0192214D02*
X0350339Y0192214D01*
X0348647Y0189815D02*
X0305517Y0189815D01*
X0305517Y0187417D02*
X0348417Y0187417D01*
X0349713Y0185018D02*
X0305517Y0185018D01*
X0305517Y0182620D02*
X0350311Y0182620D01*
X0350491Y0182751D02*
X0349829Y0182269D01*
X0349250Y0181691D01*
X0348769Y0181029D01*
X0348398Y0180299D01*
X0348145Y0179521D01*
X0348017Y0178712D01*
X0348017Y0178303D01*
X0348017Y0177894D01*
X0348145Y0177085D01*
X0348398Y0176307D01*
X0348769Y0175578D01*
X0349250Y0174916D01*
X0349829Y0174337D01*
X0350491Y0173856D01*
X0351220Y0173484D01*
X0351999Y0173231D01*
X0352807Y0173103D01*
X0356216Y0173103D01*
X0356216Y0178303D01*
X0348017Y0178303D01*
X0356216Y0178303D01*
X0356216Y0178303D01*
X0356217Y0178303D01*
X0356216Y0178303D01*
X0356216Y0183503D01*
X0352807Y0183503D01*
X0351999Y0183375D01*
X0351220Y0183122D01*
X0350491Y0182751D01*
X0348372Y0180221D02*
X0305517Y0180221D01*
X0305517Y0177823D02*
X0307082Y0177823D01*
X0307094Y0177835D02*
X0306684Y0177426D01*
X0306395Y0176924D01*
X0306245Y0176364D01*
X0306245Y0173303D01*
X0311216Y0173303D01*
X0311216Y0173303D01*
X0311217Y0173303D01*
X0311217Y0173303D01*
X0316188Y0173303D01*
X0316188Y0170242D01*
X0316038Y0169682D01*
X0315749Y0169181D01*
X0315339Y0168771D01*
X0314837Y0168481D01*
X0314278Y0168331D01*
X0311217Y0168331D01*
X0311217Y0173303D01*
X0316188Y0173303D01*
X0316188Y0176364D01*
X0316038Y0176924D01*
X0315749Y0177426D01*
X0315339Y0177835D01*
X0314837Y0178125D01*
X0314278Y0178275D01*
X0311217Y0178275D01*
X0311217Y0173303D01*
X0311216Y0173303D01*
X0311216Y0178275D01*
X0308155Y0178275D01*
X0307596Y0178125D01*
X0307094Y0177835D01*
X0306245Y0175424D02*
X0305788Y0175424D01*
X0305788Y0173026D02*
X0306245Y0173026D01*
X0311216Y0173026D02*
X0311217Y0173026D01*
X0311216Y0175424D02*
X0311217Y0175424D01*
X0311216Y0177823D02*
X0311217Y0177823D01*
X0315351Y0177823D02*
X0317647Y0177823D01*
X0317699Y0177875D02*
X0316645Y0176820D01*
X0316645Y0169786D01*
X0317699Y0168731D01*
X0324734Y0168731D01*
X0325788Y0169786D01*
X0325788Y0176820D01*
X0324734Y0177875D01*
X0317699Y0177875D01*
X0316645Y0175424D02*
X0316188Y0175424D01*
X0316188Y0173026D02*
X0316645Y0173026D01*
X0316645Y0170627D02*
X0316188Y0170627D01*
X0311217Y0170627D02*
X0311216Y0170627D01*
X0305517Y0161033D02*
X0349158Y0161033D01*
X0349147Y0161022D02*
X0348417Y0159258D01*
X0348417Y0157348D01*
X0349147Y0155584D01*
X0350498Y0154234D01*
X0352262Y0153503D01*
X0360171Y0153503D01*
X0361936Y0154234D01*
X0363286Y0155584D01*
X0364017Y0157348D01*
X0364017Y0159258D01*
X0363286Y0161022D01*
X0361936Y0162372D01*
X0360171Y0163103D01*
X0352262Y0163103D01*
X0350498Y0162372D01*
X0349147Y0161022D01*
X0348417Y0158635D02*
X0305517Y0158635D01*
X0305517Y0156236D02*
X0348877Y0156236D01*
X0351454Y0153838D02*
X0305517Y0153838D01*
X0305517Y0151439D02*
X0368347Y0151439D01*
X0368347Y0149041D02*
X0305517Y0149041D01*
X0305183Y0146642D02*
X0351217Y0146642D01*
X0351217Y0148303D02*
X0351217Y0068303D01*
X0356297Y0068303D01*
X0353922Y0067319D01*
X0351531Y0064929D01*
X0350237Y0061805D01*
X0350237Y0058424D01*
X0351531Y0055300D01*
X0353922Y0052909D01*
X0357046Y0051615D01*
X0360427Y0051615D01*
X0363551Y0052909D01*
X0365941Y0055300D01*
X0367235Y0058424D01*
X0367235Y0061805D01*
X0365941Y0064929D01*
X0363551Y0067319D01*
X0361176Y0068303D01*
X0368347Y0068303D01*
X0368347Y0058146D01*
X0368253Y0056950D01*
X0367514Y0054676D01*
X0366109Y0052742D01*
X0364174Y0051336D01*
X0361900Y0050597D01*
X0360705Y0050503D01*
X0026059Y0050503D01*
X0024863Y0050597D01*
X0024863Y0050597D01*
X0022589Y0051336D01*
X0020655Y0052742D01*
X0019250Y0054676D01*
X0018511Y0056950D01*
X0018417Y0058146D01*
X0018417Y0273770D01*
X0018417Y0274681D01*
X0018511Y0275877D01*
X0019250Y0278151D01*
X0020655Y0280085D01*
X0022589Y0281491D01*
X0024863Y0282230D01*
X0026059Y0282324D01*
X0360705Y0282324D01*
X0361900Y0282230D01*
X0364174Y0281491D01*
X0366109Y0280085D01*
X0367514Y0278151D01*
X0368253Y0275877D01*
X0368347Y0274681D01*
X0368347Y0148303D01*
X0351217Y0148303D01*
X0351217Y0144244D02*
X0303238Y0144244D01*
X0300840Y0141845D02*
X0351217Y0141845D01*
X0351217Y0139447D02*
X0298441Y0139447D01*
X0296043Y0137048D02*
X0351217Y0137048D01*
X0351217Y0134650D02*
X0293644Y0134650D01*
X0291246Y0132251D02*
X0351217Y0132251D01*
X0351217Y0129853D02*
X0288847Y0129853D01*
X0286449Y0127454D02*
X0351217Y0127454D01*
X0351217Y0125056D02*
X0284050Y0125056D01*
X0281652Y0122657D02*
X0351217Y0122657D01*
X0351217Y0120258D02*
X0255517Y0120258D01*
X0255517Y0117860D02*
X0351217Y0117860D01*
X0351217Y0115461D02*
X0255517Y0115461D01*
X0255517Y0113063D02*
X0351217Y0113063D01*
X0351217Y0110664D02*
X0255517Y0110664D01*
X0255517Y0108266D02*
X0351217Y0108266D01*
X0351217Y0105867D02*
X0332548Y0105867D01*
X0332849Y0105566D02*
X0331569Y0106845D01*
X0329897Y0107538D01*
X0328087Y0107538D01*
X0326415Y0106845D01*
X0325135Y0105566D01*
X0324442Y0103893D01*
X0324442Y0102083D01*
X0325135Y0100411D01*
X0326415Y0099131D01*
X0328087Y0098438D01*
X0329897Y0098438D01*
X0331569Y0099131D01*
X0332849Y0100411D01*
X0333542Y0102083D01*
X0333542Y0103893D01*
X0332849Y0105566D01*
X0333542Y0103469D02*
X0351217Y0103469D01*
X0351217Y0101070D02*
X0333123Y0101070D01*
X0330461Y0098672D02*
X0351217Y0098672D01*
X0351217Y0096273D02*
X0327142Y0096273D01*
X0326569Y0096845D02*
X0324897Y0097538D01*
X0323087Y0097538D01*
X0321415Y0096845D01*
X0320135Y0095566D01*
X0319442Y0093893D01*
X0319442Y0092083D01*
X0320135Y0090411D01*
X0321415Y0089131D01*
X0323087Y0088438D01*
X0324897Y0088438D01*
X0326569Y0089131D01*
X0327849Y0090411D01*
X0328542Y0092083D01*
X0328542Y0093893D01*
X0327849Y0095566D01*
X0326569Y0096845D01*
X0327523Y0098672D02*
X0320461Y0098672D01*
X0319897Y0098438D02*
X0321569Y0099131D01*
X0322849Y0100411D01*
X0323542Y0102083D01*
X0323542Y0103893D01*
X0322849Y0105566D01*
X0321569Y0106845D01*
X0319897Y0107538D01*
X0318087Y0107538D01*
X0316415Y0106845D01*
X0315135Y0105566D01*
X0314442Y0103893D01*
X0314442Y0102083D01*
X0315135Y0100411D01*
X0316415Y0099131D01*
X0318087Y0098438D01*
X0319897Y0098438D01*
X0320843Y0096273D02*
X0317142Y0096273D01*
X0316569Y0096845D02*
X0314897Y0097538D01*
X0313087Y0097538D01*
X0311415Y0096845D01*
X0310135Y0095566D01*
X0309442Y0093893D01*
X0309442Y0092083D01*
X0310135Y0090411D01*
X0311415Y0089131D01*
X0313087Y0088438D01*
X0314897Y0088438D01*
X0316569Y0089131D01*
X0317849Y0090411D01*
X0318542Y0092083D01*
X0318542Y0093893D01*
X0317849Y0095566D01*
X0316569Y0096845D01*
X0317523Y0098672D02*
X0311424Y0098672D01*
X0311586Y0098755D02*
X0312217Y0099213D01*
X0312768Y0099763D01*
X0313226Y0100394D01*
X0313579Y0101088D01*
X0313820Y0101829D01*
X0313942Y0102599D01*
X0313942Y0102988D01*
X0308992Y0102988D01*
X0308992Y0102988D01*
X0308992Y0098038D01*
X0308603Y0098038D01*
X0307833Y0098160D01*
X0307092Y0098401D01*
X0306398Y0098755D01*
X0305767Y0099213D01*
X0305216Y0099763D01*
X0304759Y0100394D01*
X0304405Y0101088D01*
X0304164Y0101829D01*
X0304042Y0102599D01*
X0304042Y0102988D01*
X0308992Y0102988D01*
X0308992Y0102988D01*
X0308992Y0098038D01*
X0309382Y0098038D01*
X0310151Y0098160D01*
X0310892Y0098401D01*
X0311586Y0098755D01*
X0310843Y0096273D02*
X0307707Y0096273D01*
X0307768Y0096213D02*
X0307217Y0096764D01*
X0306586Y0097222D01*
X0305892Y0097576D01*
X0305151Y0097816D01*
X0304382Y0097938D01*
X0303992Y0097938D01*
X0303603Y0097938D01*
X0302833Y0097816D01*
X0302092Y0097576D01*
X0301398Y0097222D01*
X0300767Y0096764D01*
X0300216Y0096213D01*
X0299759Y0095583D01*
X0299405Y0094888D01*
X0299164Y0094147D01*
X0299042Y0093378D01*
X0299042Y0092988D01*
X0299042Y0092599D01*
X0299164Y0091829D01*
X0299405Y0091088D01*
X0299759Y0090394D01*
X0300216Y0089763D01*
X0300767Y0089213D01*
X0301398Y0088755D01*
X0302092Y0088401D01*
X0302833Y0088160D01*
X0303603Y0088038D01*
X0303992Y0088038D01*
X0303992Y0092988D01*
X0303992Y0092988D01*
X0299042Y0092988D01*
X0303992Y0092988D01*
X0303992Y0092988D01*
X0303992Y0088038D01*
X0304382Y0088038D01*
X0305151Y0088160D01*
X0305892Y0088401D01*
X0306586Y0088755D01*
X0307217Y0089213D01*
X0307768Y0089763D01*
X0308226Y0090394D01*
X0308579Y0091088D01*
X0308820Y0091829D01*
X0308942Y0092599D01*
X0308942Y0092988D01*
X0303992Y0092988D01*
X0303992Y0092988D01*
X0303992Y0097938D01*
X0303992Y0092988D01*
X0303992Y0092988D01*
X0308942Y0092988D01*
X0308942Y0093378D01*
X0308820Y0094147D01*
X0308579Y0094888D01*
X0308226Y0095583D01*
X0307768Y0096213D01*
X0308863Y0093875D02*
X0309442Y0093875D01*
X0309693Y0091476D02*
X0308706Y0091476D01*
X0307031Y0089078D02*
X0311543Y0089078D01*
X0316441Y0089078D02*
X0321543Y0089078D01*
X0319693Y0091476D02*
X0318291Y0091476D01*
X0318542Y0093875D02*
X0319442Y0093875D01*
X0323123Y0101070D02*
X0324862Y0101070D01*
X0324442Y0103469D02*
X0323542Y0103469D01*
X0322548Y0105867D02*
X0325437Y0105867D01*
X0315437Y0105867D02*
X0313019Y0105867D01*
X0313226Y0105583D02*
X0312768Y0106213D01*
X0312217Y0106764D01*
X0311586Y0107222D01*
X0310892Y0107576D01*
X0310151Y0107816D01*
X0309382Y0107938D01*
X0308992Y0107938D01*
X0308603Y0107938D01*
X0307833Y0107816D01*
X0307092Y0107576D01*
X0306398Y0107222D01*
X0305767Y0106764D01*
X0305216Y0106213D01*
X0304759Y0105583D01*
X0304405Y0104888D01*
X0304164Y0104147D01*
X0304042Y0103378D01*
X0304042Y0102988D01*
X0308992Y0102988D01*
X0308992Y0102988D01*
X0308992Y0107938D01*
X0308992Y0102988D01*
X0308992Y0102988D01*
X0313942Y0102988D01*
X0313942Y0103378D01*
X0313820Y0104147D01*
X0313579Y0104888D01*
X0313226Y0105583D01*
X0313928Y0103469D02*
X0314442Y0103469D01*
X0314862Y0101070D02*
X0313570Y0101070D01*
X0308992Y0101070D02*
X0308992Y0101070D01*
X0308992Y0098672D02*
X0308992Y0098672D01*
X0306560Y0098672D02*
X0300461Y0098672D01*
X0300277Y0096273D02*
X0297142Y0096273D01*
X0297523Y0098672D02*
X0295828Y0098672D01*
X0298542Y0093875D02*
X0299121Y0093875D01*
X0299279Y0091476D02*
X0298291Y0091476D01*
X0296441Y0089078D02*
X0300953Y0089078D01*
X0303992Y0089078D02*
X0303992Y0089078D01*
X0303992Y0091476D02*
X0303992Y0091476D01*
X0303992Y0093875D02*
X0303992Y0093875D01*
X0303992Y0096273D02*
X0303992Y0096273D01*
X0304414Y0101070D02*
X0303123Y0101070D01*
X0303542Y0103469D02*
X0304057Y0103469D01*
X0304965Y0105867D02*
X0302548Y0105867D01*
X0298992Y0102988D02*
X0295902Y0102988D01*
X0253717Y0060803D01*
X0141217Y0060803D01*
X0116217Y0085803D01*
X0076217Y0085803D01*
X0074765Y0089078D02*
X0070811Y0089078D01*
X0072485Y0091476D02*
X0073473Y0091476D01*
X0073222Y0093875D02*
X0072643Y0093875D01*
X0071487Y0096273D02*
X0074622Y0096273D01*
X0073931Y0098160D02*
X0074672Y0098401D01*
X0075366Y0098755D01*
X0075996Y0099213D01*
X0076547Y0099763D01*
X0077005Y0100394D01*
X0077359Y0101088D01*
X0077600Y0101829D01*
X0077722Y0102599D01*
X0077722Y0102988D01*
X0072772Y0102988D01*
X0072772Y0102988D01*
X0072772Y0098038D01*
X0073161Y0098038D01*
X0073931Y0098160D01*
X0072772Y0098038D02*
X0072772Y0102988D01*
X0072772Y0102988D01*
X0077722Y0102988D01*
X0077722Y0103378D01*
X0077600Y0104147D01*
X0077359Y0104888D01*
X0077005Y0105583D01*
X0076547Y0106213D01*
X0075996Y0106764D01*
X0075366Y0107222D01*
X0074672Y0107576D01*
X0073931Y0107816D01*
X0073161Y0107938D01*
X0072772Y0107938D01*
X0072772Y0102988D01*
X0072772Y0102988D01*
X0067822Y0102988D01*
X0067822Y0102599D01*
X0067944Y0101829D01*
X0068184Y0101088D01*
X0068538Y0100394D01*
X0068996Y0099763D01*
X0069547Y0099213D01*
X0070177Y0098755D01*
X0070872Y0098401D01*
X0071613Y0098160D01*
X0072382Y0098038D01*
X0072772Y0098038D01*
X0072772Y0098672D02*
X0072772Y0098672D01*
X0072772Y0101070D02*
X0072772Y0101070D01*
X0072772Y0102988D02*
X0072772Y0102988D01*
X0072772Y0107938D01*
X0072382Y0107938D01*
X0071613Y0107816D01*
X0070872Y0107576D01*
X0070177Y0107222D01*
X0069547Y0106764D01*
X0068996Y0106213D01*
X0068538Y0105583D01*
X0068184Y0104888D01*
X0067944Y0104147D01*
X0067822Y0103378D01*
X0067822Y0102988D01*
X0072772Y0102988D01*
X0072772Y0103469D02*
X0072772Y0103469D01*
X0072772Y0105867D02*
X0072772Y0105867D01*
X0076798Y0105867D02*
X0079216Y0105867D01*
X0078914Y0105566D02*
X0078222Y0103893D01*
X0078222Y0102083D01*
X0078914Y0100411D01*
X0080194Y0099131D01*
X0081867Y0098438D01*
X0083677Y0098438D01*
X0085349Y0099131D01*
X0086629Y0100411D01*
X0087322Y0102083D01*
X0087322Y0103893D01*
X0086629Y0105566D01*
X0085349Y0106845D01*
X0083677Y0107538D01*
X0081867Y0107538D01*
X0080194Y0106845D01*
X0078914Y0105566D01*
X0078222Y0103469D02*
X0077707Y0103469D01*
X0077350Y0101070D02*
X0078641Y0101070D01*
X0081302Y0098672D02*
X0075204Y0098672D01*
X0080921Y0096273D02*
X0084622Y0096273D01*
X0084241Y0098672D02*
X0091302Y0098672D01*
X0091867Y0098438D02*
X0093677Y0098438D01*
X0095349Y0099131D01*
X0096629Y0100411D01*
X0097322Y0102083D01*
X0097322Y0103893D01*
X0096629Y0105566D01*
X0095349Y0106845D01*
X0093677Y0107538D01*
X0091867Y0107538D01*
X0090194Y0106845D01*
X0088914Y0105566D01*
X0088222Y0103893D01*
X0088222Y0102083D01*
X0088914Y0100411D01*
X0090194Y0099131D01*
X0091867Y0098438D01*
X0090921Y0096273D02*
X0149944Y0096273D01*
X0152343Y0098672D02*
X0094241Y0098672D01*
X0096902Y0101070D02*
X0153217Y0101070D01*
X0153217Y0103469D02*
X0097322Y0103469D01*
X0096327Y0105867D02*
X0153217Y0105867D01*
X0153217Y0108266D02*
X0018417Y0108266D01*
X0018417Y0110664D02*
X0153217Y0110664D01*
X0152634Y0113063D02*
X0149799Y0113063D01*
X0149947Y0113211D02*
X0150617Y0114828D01*
X0150617Y0121778D01*
X0149947Y0123396D01*
X0148709Y0124633D01*
X0147092Y0125303D01*
X0145341Y0125303D01*
X0143724Y0124633D01*
X0142486Y0123396D01*
X0141817Y0121778D01*
X0141817Y0114828D01*
X0142486Y0113211D01*
X0143724Y0111973D01*
X0145341Y0111303D01*
X0147092Y0111303D01*
X0148709Y0111973D01*
X0149947Y0113211D01*
X0150617Y0115461D02*
X0151817Y0115461D01*
X0151817Y0117860D02*
X0150617Y0117860D01*
X0150617Y0120258D02*
X0151817Y0120258D01*
X0152180Y0122657D02*
X0150253Y0122657D01*
X0152464Y0125056D02*
X0147690Y0125056D01*
X0144743Y0125056D02*
X0018417Y0125056D01*
X0018417Y0127454D02*
X0151267Y0127454D01*
X0151267Y0129853D02*
X0018417Y0129853D01*
X0018417Y0132251D02*
X0093446Y0132251D01*
X0093724Y0131973D02*
X0095341Y0131303D01*
X0097092Y0131303D01*
X0098709Y0131973D01*
X0099947Y0133211D01*
X0100617Y0134828D01*
X0100617Y0141778D01*
X0099947Y0143396D01*
X0098709Y0144633D01*
X0097092Y0145303D01*
X0095341Y0145303D01*
X0093724Y0144633D01*
X0092486Y0143396D01*
X0091817Y0141778D01*
X0091817Y0134828D01*
X0092486Y0133211D01*
X0093724Y0131973D01*
X0091890Y0134650D02*
X0088785Y0134650D01*
X0088039Y0133903D02*
X0090617Y0136481D01*
X0090617Y0140126D01*
X0088039Y0142703D01*
X0084394Y0142703D01*
X0081817Y0140126D01*
X0081817Y0136481D01*
X0084394Y0133903D01*
X0088039Y0133903D01*
X0090617Y0137048D02*
X0091817Y0137048D01*
X0091817Y0139447D02*
X0090617Y0139447D01*
X0091844Y0141845D02*
X0088897Y0141845D01*
X0089723Y0144244D02*
X0093334Y0144244D01*
X0091567Y0146642D02*
X0189435Y0146642D01*
X0189317Y0146928D02*
X0189986Y0145311D01*
X0191224Y0144073D01*
X0192841Y0143403D01*
X0194592Y0143403D01*
X0196209Y0144073D01*
X0197447Y0145311D01*
X0198117Y0146928D01*
X0198117Y0148678D01*
X0197447Y0150296D01*
X0196209Y0151533D01*
X0194592Y0152203D01*
X0192841Y0152203D01*
X0191224Y0151533D01*
X0189986Y0150296D01*
X0189317Y0148678D01*
X0189317Y0146928D01*
X0189467Y0149041D02*
X0091567Y0149041D01*
X0096217Y0153303D02*
X0071217Y0153303D01*
X0066217Y0148303D01*
X0066774Y0153103D02*
X0066774Y0153103D01*
X0066216Y0153838D02*
X0066217Y0153838D01*
X0066216Y0156236D02*
X0066217Y0156236D01*
X0066216Y0158635D02*
X0066217Y0158635D01*
X0066216Y0161033D02*
X0066217Y0161033D01*
X0066216Y0163432D02*
X0066217Y0163432D01*
X0068442Y0163432D02*
X0092395Y0163432D01*
X0092486Y0163211D02*
X0093724Y0161973D01*
X0095341Y0161303D01*
X0097092Y0161303D01*
X0098709Y0161973D01*
X0099947Y0163211D01*
X0100617Y0164828D01*
X0100617Y0171778D01*
X0099947Y0173396D01*
X0099217Y0174126D01*
X0099217Y0192481D01*
X0099947Y0193211D01*
X0100617Y0194828D01*
X0100617Y0201778D01*
X0099947Y0203396D01*
X0098709Y0204633D01*
X0097092Y0205303D01*
X0095341Y0205303D01*
X0093724Y0204633D01*
X0092486Y0203396D01*
X0091817Y0201778D01*
X0091817Y0194828D01*
X0092486Y0193211D01*
X0093217Y0192481D01*
X0093217Y0174126D01*
X0092486Y0173396D01*
X0091817Y0171778D01*
X0091817Y0164828D01*
X0092486Y0163211D01*
X0091817Y0165830D02*
X0064217Y0165830D01*
X0064217Y0168229D02*
X0091817Y0168229D01*
X0091817Y0170627D02*
X0064217Y0170627D01*
X0064217Y0173026D02*
X0092333Y0173026D01*
X0093217Y0175424D02*
X0064217Y0175424D01*
X0064217Y0177823D02*
X0093217Y0177823D01*
X0093217Y0180221D02*
X0064877Y0180221D01*
X0067276Y0182620D02*
X0093217Y0182620D01*
X0093217Y0185018D02*
X0069674Y0185018D01*
X0068717Y0188303D02*
X0081217Y0188303D01*
X0086217Y0193303D01*
X0086217Y0198303D01*
X0090617Y0199409D02*
X0091817Y0199409D01*
X0091817Y0197011D02*
X0090617Y0197011D01*
X0090527Y0194612D02*
X0091906Y0194612D01*
X0093217Y0192214D02*
X0089012Y0192214D01*
X0086971Y0189815D02*
X0093217Y0189815D01*
X0093217Y0187417D02*
X0084573Y0187417D01*
X0080885Y0192214D02*
X0078950Y0192214D01*
X0080527Y0194612D02*
X0081906Y0194612D01*
X0081817Y0197011D02*
X0080617Y0197011D01*
X0080617Y0199409D02*
X0081817Y0199409D01*
X0081829Y0201808D02*
X0080604Y0201808D01*
X0079136Y0204206D02*
X0083297Y0204206D01*
X0089136Y0204206D02*
X0093297Y0204206D01*
X0091829Y0201808D02*
X0090604Y0201808D01*
X0096217Y0198303D02*
X0096217Y0168303D01*
X0100617Y0168229D02*
X0101817Y0168229D01*
X0101817Y0170627D02*
X0100617Y0170627D01*
X0100100Y0173026D02*
X0102333Y0173026D01*
X0103217Y0175424D02*
X0099217Y0175424D01*
X0099217Y0177823D02*
X0103217Y0177823D01*
X0103217Y0180221D02*
X0099217Y0180221D01*
X0099217Y0182620D02*
X0103791Y0182620D01*
X0106217Y0180803D02*
X0111217Y0185803D01*
X0111217Y0205803D01*
X0121217Y0215803D01*
X0121217Y0233303D01*
X0123717Y0235803D01*
X0168717Y0235803D01*
X0176217Y0228303D01*
X0180617Y0228191D02*
X0202249Y0228191D01*
X0202262Y0228103D02*
X0200498Y0227372D01*
X0199147Y0226022D01*
X0198417Y0224258D01*
X0198417Y0222348D01*
X0199098Y0220703D01*
X0195739Y0220703D01*
X0194857Y0220338D01*
X0194182Y0219663D01*
X0193904Y0219384D01*
X0193004Y0219384D01*
X0191688Y0218839D01*
X0190681Y0217832D01*
X0190135Y0216515D01*
X0190135Y0215091D01*
X0190681Y0213775D01*
X0191252Y0213203D01*
X0190131Y0213203D01*
X0189495Y0213839D01*
X0188179Y0214384D01*
X0186754Y0214384D01*
X0185438Y0213839D01*
X0184431Y0212832D01*
X0183885Y0211515D01*
X0183885Y0210091D01*
X0184431Y0208775D01*
X0185438Y0207767D01*
X0186754Y0207222D01*
X0188179Y0207222D01*
X0189495Y0207767D01*
X0190131Y0208403D01*
X0194194Y0208403D01*
X0195076Y0208769D01*
X0197211Y0210903D01*
X0199015Y0210903D01*
X0199147Y0210584D01*
X0200498Y0209234D01*
X0202262Y0208503D01*
X0210171Y0208503D01*
X0211936Y0209234D01*
X0213286Y0210584D01*
X0214017Y0212348D01*
X0214017Y0214258D01*
X0213335Y0215903D01*
X0219098Y0215903D01*
X0218417Y0214258D01*
X0218417Y0212348D01*
X0219147Y0210584D01*
X0220498Y0209234D01*
X0222262Y0208503D01*
X0230171Y0208503D01*
X0231936Y0209234D01*
X0233286Y0210584D01*
X0234017Y0212348D01*
X0234017Y0214258D01*
X0233335Y0215903D01*
X0239098Y0215903D01*
X0238417Y0214258D01*
X0238417Y0212348D01*
X0239147Y0210584D01*
X0240498Y0209234D01*
X0242262Y0208503D01*
X0250171Y0208503D01*
X0251936Y0209234D01*
X0253286Y0210584D01*
X0254017Y0212348D01*
X0254017Y0214258D01*
X0253286Y0216022D01*
X0251936Y0217372D01*
X0250171Y0218103D01*
X0244811Y0218103D01*
X0244411Y0218503D01*
X0250171Y0218503D01*
X0251936Y0219234D01*
X0253286Y0220584D01*
X0254017Y0222348D01*
X0254017Y0224258D01*
X0253286Y0226022D01*
X0251936Y0227372D01*
X0250171Y0228103D01*
X0242262Y0228103D01*
X0240498Y0227372D01*
X0239147Y0226022D01*
X0238417Y0224258D01*
X0238417Y0222348D01*
X0239098Y0220703D01*
X0233335Y0220703D01*
X0234017Y0222348D01*
X0234017Y0224258D01*
X0233286Y0226022D01*
X0231936Y0227372D01*
X0230171Y0228103D01*
X0222262Y0228103D01*
X0220498Y0227372D01*
X0219147Y0226022D01*
X0218417Y0224258D01*
X0218417Y0222348D01*
X0219098Y0220703D01*
X0213335Y0220703D01*
X0214017Y0222348D01*
X0214017Y0224258D01*
X0213286Y0226022D01*
X0211936Y0227372D01*
X0210171Y0228103D01*
X0202262Y0228103D01*
X0201999Y0228231D02*
X0202807Y0228103D01*
X0206216Y0228103D01*
X0206216Y0233303D01*
X0198017Y0233303D01*
X0198017Y0232894D01*
X0198145Y0232085D01*
X0198398Y0231307D01*
X0198769Y0230578D01*
X0199250Y0229916D01*
X0199829Y0229337D01*
X0200491Y0228856D01*
X0201220Y0228484D01*
X0201999Y0228231D01*
X0199052Y0225793D02*
X0180617Y0225793D01*
X0180023Y0223394D02*
X0198417Y0223394D01*
X0198977Y0220996D02*
X0149217Y0220996D01*
X0149217Y0218597D02*
X0191446Y0218597D01*
X0190135Y0216199D02*
X0149217Y0216199D01*
X0149217Y0213800D02*
X0185399Y0213800D01*
X0183885Y0211402D02*
X0149860Y0211402D01*
X0152259Y0209003D02*
X0184336Y0209003D01*
X0181309Y0206605D02*
X0296917Y0206605D01*
X0296917Y0209003D02*
X0271379Y0209003D01*
X0271936Y0209234D02*
X0270171Y0208503D01*
X0262262Y0208503D01*
X0260498Y0209234D01*
X0259147Y0210584D01*
X0258417Y0212348D01*
X0258417Y0214258D01*
X0259147Y0216022D01*
X0260498Y0217372D01*
X0262262Y0218103D01*
X0270171Y0218103D01*
X0271936Y0217372D01*
X0273286Y0216022D01*
X0274017Y0214258D01*
X0274017Y0212348D01*
X0273286Y0210584D01*
X0271936Y0209234D01*
X0273624Y0211402D02*
X0296645Y0211402D01*
X0296645Y0213800D02*
X0274017Y0213800D01*
X0273109Y0216199D02*
X0296645Y0216199D01*
X0296917Y0218597D02*
X0270399Y0218597D01*
X0270171Y0218503D02*
X0271936Y0219234D01*
X0273286Y0220584D01*
X0274017Y0222348D01*
X0274017Y0224258D01*
X0273286Y0226022D01*
X0271936Y0227372D01*
X0270171Y0228103D01*
X0262262Y0228103D01*
X0260498Y0227372D01*
X0259147Y0226022D01*
X0258417Y0224258D01*
X0258417Y0222348D01*
X0259147Y0220584D01*
X0260498Y0219234D01*
X0262262Y0218503D01*
X0270171Y0218503D01*
X0273456Y0220996D02*
X0296917Y0220996D01*
X0296917Y0223394D02*
X0274017Y0223394D01*
X0273381Y0225793D02*
X0296917Y0225793D01*
X0296917Y0228191D02*
X0270184Y0228191D01*
X0270434Y0228231D02*
X0271213Y0228484D01*
X0271942Y0228856D01*
X0272604Y0229337D01*
X0273183Y0229916D01*
X0273664Y0230578D01*
X0274036Y0231307D01*
X0274288Y0232085D01*
X0274417Y0232894D01*
X0274417Y0233303D01*
X0266217Y0233303D01*
X0266217Y0233303D01*
X0274417Y0233303D01*
X0274417Y0233712D01*
X0274288Y0234521D01*
X0274036Y0235299D01*
X0273664Y0236029D01*
X0273183Y0236691D01*
X0272604Y0237269D01*
X0271942Y0237751D01*
X0271213Y0238122D01*
X0270434Y0238375D01*
X0269626Y0238503D01*
X0266217Y0238503D01*
X0266217Y0233303D01*
X0266217Y0228103D01*
X0269626Y0228103D01*
X0270434Y0228231D01*
X0273670Y0230590D02*
X0296917Y0230590D01*
X0296917Y0232989D02*
X0274417Y0232989D01*
X0273991Y0235387D02*
X0296917Y0235387D01*
X0296917Y0237786D02*
X0271873Y0237786D01*
X0266217Y0237786D02*
X0266216Y0237786D01*
X0266216Y0238503D02*
X0262807Y0238503D01*
X0261999Y0238375D01*
X0261220Y0238122D01*
X0260491Y0237751D01*
X0259829Y0237269D01*
X0259250Y0236691D01*
X0258769Y0236029D01*
X0258398Y0235299D01*
X0258145Y0234521D01*
X0258017Y0233712D01*
X0258017Y0233303D01*
X0258017Y0232894D01*
X0258145Y0232085D01*
X0258398Y0231307D01*
X0258769Y0230578D01*
X0259250Y0229916D01*
X0259829Y0229337D01*
X0260491Y0228856D01*
X0261220Y0228484D01*
X0261999Y0228231D01*
X0262807Y0228103D01*
X0266216Y0228103D01*
X0266216Y0233303D01*
X0258017Y0233303D01*
X0266216Y0233303D01*
X0266216Y0233303D01*
X0266217Y0233303D01*
X0266216Y0233303D01*
X0266216Y0238503D01*
X0266216Y0235387D02*
X0266217Y0235387D01*
X0266216Y0232989D02*
X0266217Y0232989D01*
X0266216Y0230590D02*
X0266217Y0230590D01*
X0266216Y0228191D02*
X0266217Y0228191D01*
X0262249Y0228191D02*
X0250184Y0228191D01*
X0250434Y0228231D02*
X0251213Y0228484D01*
X0251942Y0228856D01*
X0252604Y0229337D01*
X0253183Y0229916D01*
X0253664Y0230578D01*
X0254036Y0231307D01*
X0254288Y0232085D01*
X0254417Y0232894D01*
X0254417Y0233303D01*
X0246217Y0233303D01*
X0246217Y0233303D01*
X0254417Y0233303D01*
X0254417Y0233712D01*
X0254288Y0234521D01*
X0254036Y0235299D01*
X0253664Y0236029D01*
X0253183Y0236691D01*
X0252604Y0237269D01*
X0251942Y0237751D01*
X0251213Y0238122D01*
X0250434Y0238375D01*
X0249626Y0238503D01*
X0246217Y0238503D01*
X0246217Y0233303D01*
X0246217Y0228103D01*
X0249626Y0228103D01*
X0250434Y0228231D01*
X0253381Y0225793D02*
X0259052Y0225793D01*
X0258417Y0223394D02*
X0254017Y0223394D01*
X0253456Y0220996D02*
X0258977Y0220996D01*
X0262034Y0218597D02*
X0250399Y0218597D01*
X0253109Y0216199D02*
X0259324Y0216199D01*
X0258417Y0213800D02*
X0254017Y0213800D01*
X0253624Y0211402D02*
X0258809Y0211402D01*
X0261054Y0209003D02*
X0251379Y0209003D01*
X0241054Y0209003D02*
X0231379Y0209003D01*
X0233624Y0211402D02*
X0238809Y0211402D01*
X0238417Y0213800D02*
X0234017Y0213800D01*
X0233456Y0220996D02*
X0238977Y0220996D01*
X0238417Y0223394D02*
X0234017Y0223394D01*
X0233381Y0225793D02*
X0239052Y0225793D01*
X0240491Y0228856D02*
X0241220Y0228484D01*
X0241999Y0228231D01*
X0242807Y0228103D01*
X0246216Y0228103D01*
X0246216Y0233303D01*
X0238017Y0233303D01*
X0238017Y0232894D01*
X0238145Y0232085D01*
X0238398Y0231307D01*
X0238769Y0230578D01*
X0239250Y0229916D01*
X0239829Y0229337D01*
X0240491Y0228856D01*
X0242249Y0228191D02*
X0230184Y0228191D01*
X0230434Y0228231D02*
X0231213Y0228484D01*
X0231942Y0228856D01*
X0232604Y0229337D01*
X0233183Y0229916D01*
X0233664Y0230578D01*
X0234036Y0231307D01*
X0234288Y0232085D01*
X0234417Y0232894D01*
X0234417Y0233303D01*
X0226217Y0233303D01*
X0226217Y0233303D01*
X0234417Y0233303D01*
X0234417Y0233712D01*
X0234288Y0234521D01*
X0234036Y0235299D01*
X0233664Y0236029D01*
X0233183Y0236691D01*
X0232604Y0237269D01*
X0231942Y0237751D01*
X0231213Y0238122D01*
X0230434Y0238375D01*
X0229626Y0238503D01*
X0226217Y0238503D01*
X0226217Y0233303D01*
X0226217Y0228103D01*
X0229626Y0228103D01*
X0230434Y0228231D01*
X0233670Y0230590D02*
X0238763Y0230590D01*
X0238017Y0232989D02*
X0234417Y0232989D01*
X0233991Y0235387D02*
X0238442Y0235387D01*
X0238398Y0235299D02*
X0238769Y0236029D01*
X0239250Y0236691D01*
X0239829Y0237269D01*
X0240491Y0237751D01*
X0241220Y0238122D01*
X0241999Y0238375D01*
X0242807Y0238503D01*
X0246216Y0238503D01*
X0246216Y0233303D01*
X0246216Y0233303D01*
X0238017Y0233303D01*
X0238017Y0233712D01*
X0238145Y0234521D01*
X0238398Y0235299D01*
X0240560Y0237786D02*
X0231873Y0237786D01*
X0226217Y0237786D02*
X0226216Y0237786D01*
X0226216Y0238503D02*
X0222807Y0238503D01*
X0221999Y0238375D01*
X0221220Y0238122D01*
X0220491Y0237751D01*
X0219829Y0237269D01*
X0219250Y0236691D01*
X0218769Y0236029D01*
X0218398Y0235299D01*
X0218145Y0234521D01*
X0218017Y0233712D01*
X0218017Y0233303D01*
X0218017Y0232894D01*
X0218145Y0232085D01*
X0218398Y0231307D01*
X0218769Y0230578D01*
X0219250Y0229916D01*
X0219829Y0229337D01*
X0220491Y0228856D01*
X0221220Y0228484D01*
X0221999Y0228231D01*
X0222807Y0228103D01*
X0226216Y0228103D01*
X0226216Y0233303D01*
X0218017Y0233303D01*
X0226216Y0233303D01*
X0226216Y0233303D01*
X0226217Y0233303D01*
X0226216Y0233303D01*
X0226216Y0238503D01*
X0226216Y0235387D02*
X0226217Y0235387D01*
X0226216Y0232989D02*
X0226217Y0232989D01*
X0226216Y0230590D02*
X0226217Y0230590D01*
X0226216Y0228191D02*
X0226217Y0228191D01*
X0222249Y0228191D02*
X0210184Y0228191D01*
X0210434Y0228231D02*
X0211213Y0228484D01*
X0211942Y0228856D01*
X0212604Y0229337D01*
X0213183Y0229916D01*
X0213664Y0230578D01*
X0214036Y0231307D01*
X0214288Y0232085D01*
X0214417Y0232894D01*
X0214417Y0233303D01*
X0206217Y0233303D01*
X0206217Y0233303D01*
X0214417Y0233303D01*
X0214417Y0233712D01*
X0214288Y0234521D01*
X0214036Y0235299D01*
X0213664Y0236029D01*
X0213183Y0236691D01*
X0212604Y0237269D01*
X0211942Y0237751D01*
X0211213Y0238122D01*
X0210434Y0238375D01*
X0209626Y0238503D01*
X0206217Y0238503D01*
X0206217Y0233303D01*
X0206217Y0228103D01*
X0209626Y0228103D01*
X0210434Y0228231D01*
X0213381Y0225793D02*
X0219052Y0225793D01*
X0218417Y0223394D02*
X0214017Y0223394D01*
X0213456Y0220996D02*
X0218977Y0220996D01*
X0218417Y0213800D02*
X0214017Y0213800D01*
X0213624Y0211402D02*
X0218809Y0211402D01*
X0221054Y0209003D02*
X0211379Y0209003D01*
X0201054Y0209003D02*
X0195311Y0209003D01*
X0190670Y0213800D02*
X0189534Y0213800D01*
X0183707Y0204206D02*
X0283305Y0204206D01*
X0289128Y0204206D02*
X0296917Y0204206D01*
X0296917Y0201808D02*
X0292113Y0201808D01*
X0290320Y0201808D02*
X0289798Y0201808D01*
X0294634Y0199409D02*
X0296917Y0199409D01*
X0296917Y0197011D02*
X0294557Y0197011D01*
X0305517Y0197011D02*
X0368347Y0197011D01*
X0368347Y0199409D02*
X0305517Y0199409D01*
X0305517Y0201808D02*
X0368347Y0201808D01*
X0368347Y0204206D02*
X0305517Y0204206D01*
X0305517Y0206605D02*
X0368347Y0206605D01*
X0368347Y0209003D02*
X0325006Y0209003D01*
X0324734Y0208731D02*
X0325788Y0209786D01*
X0325788Y0216820D01*
X0324734Y0217875D01*
X0317699Y0217875D01*
X0316645Y0216820D01*
X0316645Y0209786D01*
X0317699Y0208731D01*
X0324734Y0208731D01*
X0325788Y0211402D02*
X0368347Y0211402D01*
X0368347Y0213800D02*
X0325788Y0213800D01*
X0325788Y0216199D02*
X0368347Y0216199D01*
X0368347Y0218597D02*
X0305517Y0218597D01*
X0306684Y0217426D02*
X0306395Y0216924D01*
X0306245Y0216364D01*
X0306245Y0213303D01*
X0306245Y0210242D01*
X0306395Y0209682D01*
X0306684Y0209181D01*
X0307094Y0208771D01*
X0307596Y0208481D01*
X0308155Y0208331D01*
X0311216Y0208331D01*
X0311216Y0213303D01*
X0306245Y0213303D01*
X0311216Y0213303D01*
X0311216Y0213303D01*
X0311217Y0213303D01*
X0311217Y0213303D01*
X0316188Y0213303D01*
X0316188Y0210242D01*
X0316038Y0209682D01*
X0315749Y0209181D01*
X0315339Y0208771D01*
X0314837Y0208481D01*
X0314278Y0208331D01*
X0311217Y0208331D01*
X0311217Y0213303D01*
X0316188Y0213303D01*
X0316188Y0216364D01*
X0316038Y0216924D01*
X0315749Y0217426D01*
X0315339Y0217835D01*
X0314837Y0218125D01*
X0314278Y0218275D01*
X0311217Y0218275D01*
X0311217Y0213303D01*
X0311216Y0213303D01*
X0311216Y0218275D01*
X0308155Y0218275D01*
X0307596Y0218125D01*
X0307094Y0217835D01*
X0306684Y0217426D01*
X0306245Y0216199D02*
X0305788Y0216199D01*
X0305788Y0213800D02*
X0306245Y0213800D01*
X0306245Y0211402D02*
X0305788Y0211402D01*
X0305517Y0209003D02*
X0306862Y0209003D01*
X0311216Y0209003D02*
X0311217Y0209003D01*
X0311216Y0211402D02*
X0311217Y0211402D01*
X0311216Y0213800D02*
X0311217Y0213800D01*
X0311216Y0216199D02*
X0311217Y0216199D01*
X0316188Y0216199D02*
X0316645Y0216199D01*
X0316645Y0213800D02*
X0316188Y0213800D01*
X0316188Y0211402D02*
X0316645Y0211402D01*
X0317427Y0209003D02*
X0315571Y0209003D01*
X0305517Y0220996D02*
X0368347Y0220996D01*
X0368347Y0223394D02*
X0305517Y0223394D01*
X0305517Y0225793D02*
X0368347Y0225793D01*
X0368347Y0228191D02*
X0305517Y0228191D01*
X0305517Y0230590D02*
X0368347Y0230590D01*
X0368347Y0232989D02*
X0305517Y0232989D01*
X0305517Y0235387D02*
X0368347Y0235387D01*
X0368347Y0237786D02*
X0305517Y0237786D01*
X0305517Y0240184D02*
X0368347Y0240184D01*
X0368347Y0242583D02*
X0305517Y0242583D01*
X0305517Y0244981D02*
X0368347Y0244981D01*
X0368347Y0247380D02*
X0305517Y0247380D01*
X0307094Y0248771D02*
X0306684Y0249181D01*
X0306395Y0249682D01*
X0306245Y0250242D01*
X0306245Y0253303D01*
X0311216Y0253303D01*
X0311216Y0253303D01*
X0306245Y0253303D01*
X0306245Y0256364D01*
X0306395Y0256924D01*
X0306684Y0257426D01*
X0307094Y0257835D01*
X0307596Y0258125D01*
X0308155Y0258275D01*
X0311216Y0258275D01*
X0311216Y0253303D01*
X0311217Y0253303D01*
X0311217Y0253303D01*
X0316188Y0253303D01*
X0316188Y0250242D01*
X0316038Y0249682D01*
X0315749Y0249181D01*
X0315339Y0248771D01*
X0314837Y0248481D01*
X0314278Y0248331D01*
X0311217Y0248331D01*
X0311217Y0253303D01*
X0316188Y0253303D01*
X0316188Y0256364D01*
X0316038Y0256924D01*
X0315749Y0257426D01*
X0315339Y0257835D01*
X0314837Y0258125D01*
X0314278Y0258275D01*
X0311217Y0258275D01*
X0311217Y0253303D01*
X0311216Y0253303D01*
X0311216Y0248331D01*
X0308155Y0248331D01*
X0307596Y0248481D01*
X0307094Y0248771D01*
X0306369Y0249778D02*
X0305780Y0249778D01*
X0305788Y0252177D02*
X0306245Y0252177D01*
X0306245Y0254575D02*
X0305788Y0254575D01*
X0305635Y0256974D02*
X0306423Y0256974D01*
X0311216Y0256974D02*
X0311217Y0256974D01*
X0311216Y0254575D02*
X0311217Y0254575D01*
X0311216Y0252177D02*
X0311217Y0252177D01*
X0311216Y0249778D02*
X0311217Y0249778D01*
X0316064Y0249778D02*
X0316653Y0249778D01*
X0316645Y0249786D02*
X0317699Y0248731D01*
X0324734Y0248731D01*
X0325788Y0249786D01*
X0325788Y0256820D01*
X0324734Y0257875D01*
X0317699Y0257875D01*
X0316645Y0256820D01*
X0316645Y0249786D01*
X0316645Y0252177D02*
X0316188Y0252177D01*
X0316188Y0254575D02*
X0316645Y0254575D01*
X0316798Y0256974D02*
X0316010Y0256974D01*
X0325635Y0256974D02*
X0368347Y0256974D01*
X0368347Y0259372D02*
X0272074Y0259372D01*
X0271936Y0259234D02*
X0273286Y0260584D01*
X0274017Y0262348D01*
X0274017Y0264258D01*
X0273286Y0266022D01*
X0271936Y0267372D01*
X0270171Y0268103D01*
X0262262Y0268103D01*
X0260498Y0267372D01*
X0259147Y0266022D01*
X0258417Y0264258D01*
X0258417Y0262348D01*
X0259147Y0260584D01*
X0260498Y0259234D01*
X0262262Y0258503D01*
X0270171Y0258503D01*
X0271936Y0259234D01*
X0271936Y0257372D02*
X0270171Y0258103D01*
X0262262Y0258103D01*
X0260498Y0257372D01*
X0259147Y0256022D01*
X0258417Y0254258D01*
X0258417Y0252348D01*
X0259147Y0250584D01*
X0260498Y0249234D01*
X0262262Y0248503D01*
X0270171Y0248503D01*
X0271936Y0249234D01*
X0273286Y0250584D01*
X0274017Y0252348D01*
X0274017Y0254258D01*
X0273286Y0256022D01*
X0271936Y0257372D01*
X0272334Y0256974D02*
X0296798Y0256974D01*
X0296645Y0254575D02*
X0273885Y0254575D01*
X0273945Y0252177D02*
X0296645Y0252177D01*
X0296653Y0249778D02*
X0272480Y0249778D01*
X0259953Y0249778D02*
X0252480Y0249778D01*
X0251936Y0249234D02*
X0253286Y0250584D01*
X0254017Y0252348D01*
X0254017Y0254258D01*
X0253286Y0256022D01*
X0251936Y0257372D01*
X0250171Y0258103D01*
X0242262Y0258103D01*
X0240498Y0257372D01*
X0239147Y0256022D01*
X0238417Y0254258D01*
X0238417Y0252348D01*
X0239147Y0250584D01*
X0240498Y0249234D01*
X0242262Y0248503D01*
X0250171Y0248503D01*
X0251936Y0249234D01*
X0253945Y0252177D02*
X0258488Y0252177D01*
X0258548Y0254575D02*
X0253885Y0254575D01*
X0252334Y0256974D02*
X0260099Y0256974D01*
X0260359Y0259372D02*
X0252074Y0259372D01*
X0251936Y0259234D02*
X0253286Y0260584D01*
X0254017Y0262348D01*
X0254017Y0264258D01*
X0253286Y0266022D01*
X0251936Y0267372D01*
X0250171Y0268103D01*
X0242262Y0268103D01*
X0240498Y0267372D01*
X0239147Y0266022D01*
X0238417Y0264258D01*
X0238417Y0262348D01*
X0239147Y0260584D01*
X0240498Y0259234D01*
X0242262Y0258503D01*
X0250171Y0258503D01*
X0251936Y0259234D01*
X0253777Y0261771D02*
X0258656Y0261771D01*
X0258417Y0264169D02*
X0254017Y0264169D01*
X0252740Y0266568D02*
X0259693Y0266568D01*
X0260491Y0268856D02*
X0261220Y0268484D01*
X0261999Y0268231D01*
X0262807Y0268103D01*
X0266216Y0268103D01*
X0266216Y0273303D01*
X0258017Y0273303D01*
X0258017Y0272894D01*
X0258145Y0272085D01*
X0258398Y0271307D01*
X0258769Y0270578D01*
X0259250Y0269916D01*
X0259829Y0269337D01*
X0260491Y0268856D01*
X0260339Y0268966D02*
X0252094Y0268966D01*
X0251942Y0268856D02*
X0252604Y0269337D01*
X0253183Y0269916D01*
X0253664Y0270578D01*
X0254036Y0271307D01*
X0254288Y0272085D01*
X0254417Y0272894D01*
X0254417Y0273303D01*
X0246217Y0273303D01*
X0246217Y0273303D01*
X0254417Y0273303D01*
X0254417Y0273712D01*
X0254288Y0274521D01*
X0254036Y0275299D01*
X0253664Y0276029D01*
X0253183Y0276691D01*
X0252604Y0277269D01*
X0251942Y0277751D01*
X0251213Y0278122D01*
X0250434Y0278375D01*
X0249626Y0278503D01*
X0246217Y0278503D01*
X0246217Y0273303D01*
X0246217Y0268103D01*
X0249626Y0268103D01*
X0250434Y0268231D01*
X0251213Y0268484D01*
X0251942Y0268856D01*
X0254054Y0271365D02*
X0258379Y0271365D01*
X0258017Y0273303D02*
X0266216Y0273303D01*
X0266216Y0273303D01*
X0266217Y0273303D01*
X0266217Y0273303D01*
X0274417Y0273303D01*
X0274417Y0272894D01*
X0274288Y0272085D01*
X0274036Y0271307D01*
X0273664Y0270578D01*
X0273183Y0269916D01*
X0272604Y0269337D01*
X0271942Y0268856D01*
X0271213Y0268484D01*
X0270434Y0268231D01*
X0269626Y0268103D01*
X0266217Y0268103D01*
X0266217Y0273303D01*
X0274417Y0273303D01*
X0274417Y0273712D01*
X0274288Y0274521D01*
X0274036Y0275299D01*
X0273664Y0276029D01*
X0273183Y0276691D01*
X0272604Y0277269D01*
X0271942Y0277751D01*
X0271213Y0278122D01*
X0270434Y0278375D01*
X0269626Y0278503D01*
X0266217Y0278503D01*
X0266217Y0273303D01*
X0266216Y0273303D01*
X0266216Y0278503D01*
X0262807Y0278503D01*
X0261999Y0278375D01*
X0261220Y0278122D01*
X0260491Y0277751D01*
X0259829Y0277269D01*
X0259250Y0276691D01*
X0258769Y0276029D01*
X0258398Y0275299D01*
X0258145Y0274521D01*
X0258017Y0273712D01*
X0258017Y0273303D01*
X0258025Y0273763D02*
X0254408Y0273763D01*
X0253567Y0276162D02*
X0258866Y0276162D01*
X0266216Y0276162D02*
X0266217Y0276162D01*
X0266216Y0273763D02*
X0266217Y0273763D01*
X0266216Y0271365D02*
X0266217Y0271365D01*
X0266216Y0268966D02*
X0266217Y0268966D01*
X0272094Y0268966D02*
X0351089Y0268966D01*
X0351531Y0267898D02*
X0353922Y0265507D01*
X0357046Y0264213D01*
X0360427Y0264213D01*
X0363551Y0265507D01*
X0365941Y0267898D01*
X0367235Y0271022D01*
X0367235Y0274403D01*
X0365941Y0277527D01*
X0363551Y0279918D01*
X0360427Y0281212D01*
X0357046Y0281212D01*
X0353922Y0279918D01*
X0351531Y0277527D01*
X0350237Y0274403D01*
X0350237Y0271022D01*
X0351531Y0267898D01*
X0352861Y0266568D02*
X0272740Y0266568D01*
X0274017Y0264169D02*
X0368347Y0264169D01*
X0368347Y0261771D02*
X0273777Y0261771D01*
X0274054Y0271365D02*
X0350237Y0271365D01*
X0350237Y0273763D02*
X0274408Y0273763D01*
X0273567Y0276162D02*
X0350965Y0276162D01*
X0352564Y0278560D02*
X0034200Y0278560D01*
X0035233Y0277527D02*
X0032842Y0279918D01*
X0029718Y0281212D01*
X0026337Y0281212D01*
X0023213Y0279918D01*
X0020822Y0277527D01*
X0019528Y0274403D01*
X0019528Y0271022D01*
X0020822Y0267898D01*
X0023213Y0265507D01*
X0026337Y0264213D01*
X0029718Y0264213D01*
X0032842Y0265507D01*
X0035233Y0267898D01*
X0036527Y0271022D01*
X0036527Y0274403D01*
X0035233Y0277527D01*
X0035798Y0276162D02*
X0198866Y0276162D01*
X0198769Y0276029D02*
X0198398Y0275299D01*
X0198145Y0274521D01*
X0198017Y0273712D01*
X0198017Y0273303D01*
X0198017Y0272894D01*
X0198145Y0272085D01*
X0198398Y0271307D01*
X0198769Y0270578D01*
X0199250Y0269916D01*
X0199829Y0269337D01*
X0200491Y0268856D01*
X0201220Y0268484D01*
X0201999Y0268231D01*
X0202807Y0268103D01*
X0206216Y0268103D01*
X0206216Y0273303D01*
X0198017Y0273303D01*
X0206216Y0273303D01*
X0206216Y0273303D01*
X0206217Y0273303D01*
X0206217Y0273303D01*
X0214417Y0273303D01*
X0214417Y0272894D01*
X0214288Y0272085D01*
X0214036Y0271307D01*
X0213664Y0270578D01*
X0213183Y0269916D01*
X0212604Y0269337D01*
X0211942Y0268856D01*
X0211213Y0268484D01*
X0210434Y0268231D01*
X0209626Y0268103D01*
X0206217Y0268103D01*
X0206217Y0273303D01*
X0214417Y0273303D01*
X0214417Y0273712D01*
X0214288Y0274521D01*
X0214036Y0275299D01*
X0213664Y0276029D01*
X0213183Y0276691D01*
X0212604Y0277269D01*
X0211942Y0277751D01*
X0211213Y0278122D01*
X0210434Y0278375D01*
X0209626Y0278503D01*
X0206217Y0278503D01*
X0206217Y0273303D01*
X0206216Y0273303D01*
X0206216Y0278503D01*
X0202807Y0278503D01*
X0201999Y0278375D01*
X0201220Y0278122D01*
X0200491Y0277751D01*
X0199829Y0277269D01*
X0199250Y0276691D01*
X0198769Y0276029D01*
X0198025Y0273763D02*
X0036527Y0273763D01*
X0036527Y0271365D02*
X0198379Y0271365D01*
X0200339Y0268966D02*
X0035675Y0268966D01*
X0033902Y0266568D02*
X0199693Y0266568D01*
X0199147Y0266022D02*
X0198417Y0264258D01*
X0198417Y0262348D01*
X0199147Y0260584D01*
X0200498Y0259234D01*
X0202262Y0258503D01*
X0210171Y0258503D01*
X0211936Y0259234D01*
X0213286Y0260584D01*
X0214017Y0262348D01*
X0214017Y0264258D01*
X0213286Y0266022D01*
X0211936Y0267372D01*
X0210171Y0268103D01*
X0202262Y0268103D01*
X0200498Y0267372D01*
X0199147Y0266022D01*
X0198417Y0264169D02*
X0018417Y0264169D01*
X0018417Y0261771D02*
X0198656Y0261771D01*
X0200359Y0259372D02*
X0103370Y0259372D01*
X0103209Y0259533D02*
X0101592Y0260203D01*
X0099841Y0260203D01*
X0098224Y0259533D01*
X0096986Y0258296D01*
X0096317Y0256678D01*
X0096317Y0255646D01*
X0094517Y0253846D01*
X0093673Y0253003D01*
X0093217Y0251900D01*
X0093217Y0244803D01*
X0091267Y0242853D01*
X0091267Y0238753D01*
X0093217Y0236803D01*
X0093217Y0234126D01*
X0092486Y0233396D01*
X0091817Y0231778D01*
X0091817Y0224828D01*
X0092486Y0223211D01*
X0093724Y0221973D01*
X0095341Y0221303D01*
X0097092Y0221303D01*
X0098709Y0221973D01*
X0099947Y0223211D01*
X0100617Y0224828D01*
X0100617Y0231778D01*
X0099947Y0233396D01*
X0099217Y0234126D01*
X0099217Y0236803D01*
X0100934Y0238520D01*
X0104000Y0235453D01*
X0104687Y0235453D01*
X0104374Y0235351D01*
X0103701Y0235008D01*
X0103090Y0234564D01*
X0102555Y0234030D01*
X0102111Y0233419D01*
X0101768Y0232746D01*
X0101535Y0232027D01*
X0101417Y0231281D01*
X0101417Y0228303D01*
X0101417Y0225325D01*
X0101535Y0224579D01*
X0101768Y0223861D01*
X0102111Y0223187D01*
X0102555Y0222576D01*
X0103090Y0222042D01*
X0103701Y0221598D01*
X0104374Y0221255D01*
X0105093Y0221021D01*
X0105839Y0220903D01*
X0106216Y0220903D01*
X0106216Y0228303D01*
X0101417Y0228303D01*
X0106216Y0228303D01*
X0106216Y0228303D01*
X0106217Y0228303D01*
X0106217Y0228303D01*
X0111017Y0228303D01*
X0111017Y0225325D01*
X0110898Y0224579D01*
X0110665Y0223861D01*
X0110322Y0223187D01*
X0109878Y0222576D01*
X0109344Y0222042D01*
X0108732Y0221598D01*
X0108059Y0221255D01*
X0107341Y0221021D01*
X0106594Y0220903D01*
X0106217Y0220903D01*
X0106217Y0228303D01*
X0111017Y0228303D01*
X0111017Y0231281D01*
X0110898Y0232027D01*
X0110665Y0232746D01*
X0110322Y0233419D01*
X0109878Y0234030D01*
X0109344Y0234564D01*
X0108732Y0235008D01*
X0108059Y0235351D01*
X0107746Y0235453D01*
X0108433Y0235453D01*
X0111567Y0238587D01*
X0111567Y0240803D01*
X0106217Y0240803D01*
X0106217Y0240803D01*
X0111567Y0240803D01*
X0111567Y0243019D01*
X0108433Y0246153D01*
X0106217Y0246153D01*
X0106217Y0240803D01*
X0106217Y0228303D01*
X0106216Y0228303D01*
X0106216Y0235453D01*
X0106216Y0240803D01*
X0106217Y0240803D01*
X0106216Y0240803D01*
X0106216Y0246153D01*
X0104000Y0246153D01*
X0100934Y0243086D01*
X0099217Y0244803D01*
X0099217Y0250060D01*
X0100559Y0251403D01*
X0101592Y0251403D01*
X0103209Y0252073D01*
X0104447Y0253311D01*
X0105117Y0254928D01*
X0105117Y0256678D01*
X0104447Y0258296D01*
X0103209Y0259533D01*
X0104994Y0256974D02*
X0200099Y0256974D01*
X0200498Y0257372D02*
X0199147Y0256022D01*
X0198417Y0254258D01*
X0198417Y0252348D01*
X0199147Y0250584D01*
X0200498Y0249234D01*
X0202262Y0248503D01*
X0210171Y0248503D01*
X0211936Y0249234D01*
X0213286Y0250584D01*
X0214017Y0252348D01*
X0214017Y0254258D01*
X0213286Y0256022D01*
X0211936Y0257372D01*
X0210171Y0258103D01*
X0202262Y0258103D01*
X0200498Y0257372D01*
X0198548Y0254575D02*
X0104970Y0254575D01*
X0103313Y0252177D02*
X0198488Y0252177D01*
X0199953Y0249778D02*
X0099217Y0249778D01*
X0099217Y0247380D02*
X0296917Y0247380D01*
X0296917Y0244981D02*
X0109605Y0244981D01*
X0111567Y0242583D02*
X0296917Y0242583D01*
X0296917Y0240184D02*
X0111567Y0240184D01*
X0110765Y0237786D02*
X0121456Y0237786D01*
X0119058Y0235387D02*
X0107950Y0235387D01*
X0106217Y0235387D02*
X0106216Y0235387D01*
X0104483Y0235387D02*
X0099217Y0235387D01*
X0100115Y0232989D02*
X0101892Y0232989D01*
X0101417Y0230590D02*
X0100617Y0230590D01*
X0100617Y0228191D02*
X0101417Y0228191D01*
X0101417Y0225793D02*
X0100617Y0225793D01*
X0100023Y0223394D02*
X0102006Y0223394D01*
X0105253Y0220996D02*
X0018417Y0220996D01*
X0018417Y0223394D02*
X0042410Y0223394D01*
X0042486Y0223211D02*
X0043724Y0221973D01*
X0045341Y0221303D01*
X0047092Y0221303D01*
X0048709Y0221973D01*
X0049947Y0223211D01*
X0050617Y0224828D01*
X0050617Y0231778D01*
X0049947Y0233396D01*
X0048709Y0234633D01*
X0047092Y0235303D01*
X0045341Y0235303D01*
X0043724Y0234633D01*
X0042486Y0233396D01*
X0041817Y0231778D01*
X0041817Y0224828D01*
X0042486Y0223211D01*
X0041817Y0225793D02*
X0018417Y0225793D01*
X0018417Y0228191D02*
X0041817Y0228191D01*
X0041817Y0230590D02*
X0018417Y0230590D01*
X0018417Y0232989D02*
X0042318Y0232989D01*
X0050115Y0232989D02*
X0052318Y0232989D01*
X0052486Y0233396D02*
X0051817Y0231778D01*
X0051817Y0224828D01*
X0052486Y0223211D01*
X0053724Y0221973D01*
X0055341Y0221303D01*
X0057092Y0221303D01*
X0058709Y0221973D01*
X0059947Y0223211D01*
X0060617Y0224828D01*
X0060617Y0231778D01*
X0059947Y0233396D01*
X0058709Y0234633D01*
X0057092Y0235303D01*
X0055341Y0235303D01*
X0053724Y0234633D01*
X0052486Y0233396D01*
X0051817Y0230590D02*
X0050617Y0230590D01*
X0050617Y0228191D02*
X0051817Y0228191D01*
X0051817Y0225793D02*
X0050617Y0225793D01*
X0050023Y0223394D02*
X0052410Y0223394D01*
X0060023Y0223394D02*
X0062410Y0223394D01*
X0062486Y0223211D02*
X0063724Y0221973D01*
X0065341Y0221303D01*
X0067092Y0221303D01*
X0068709Y0221973D01*
X0069947Y0223211D01*
X0070617Y0224828D01*
X0070617Y0231778D01*
X0069947Y0233396D01*
X0068709Y0234633D01*
X0067092Y0235303D01*
X0065341Y0235303D01*
X0063724Y0234633D01*
X0062486Y0233396D01*
X0061817Y0231778D01*
X0061817Y0224828D01*
X0062486Y0223211D01*
X0061817Y0225793D02*
X0060617Y0225793D01*
X0060617Y0228191D02*
X0061817Y0228191D01*
X0061817Y0230590D02*
X0060617Y0230590D01*
X0060115Y0232989D02*
X0062318Y0232989D01*
X0070115Y0232989D02*
X0072318Y0232989D01*
X0072486Y0233396D02*
X0071817Y0231778D01*
X0071817Y0224828D01*
X0072486Y0223211D01*
X0073724Y0221973D01*
X0075341Y0221303D01*
X0077092Y0221303D01*
X0078709Y0221973D01*
X0079947Y0223211D01*
X0080617Y0224828D01*
X0080617Y0231778D01*
X0079947Y0233396D01*
X0078709Y0234633D01*
X0077092Y0235303D01*
X0075341Y0235303D01*
X0073724Y0234633D01*
X0072486Y0233396D01*
X0074000Y0235453D02*
X0076216Y0235453D01*
X0076216Y0240803D01*
X0070867Y0240803D01*
X0070867Y0238587D01*
X0074000Y0235453D01*
X0076217Y0235453D02*
X0076217Y0240803D01*
X0076216Y0240803D01*
X0076216Y0240803D01*
X0070867Y0240803D01*
X0070867Y0243019D01*
X0074000Y0246153D01*
X0076216Y0246153D01*
X0076216Y0240803D01*
X0076217Y0240803D01*
X0076217Y0246153D01*
X0078433Y0246153D01*
X0081499Y0243086D01*
X0083217Y0244803D01*
X0083217Y0250060D01*
X0081874Y0251403D01*
X0080841Y0251403D01*
X0079224Y0252073D01*
X0077986Y0253311D01*
X0077317Y0254928D01*
X0077317Y0256678D01*
X0077986Y0258296D01*
X0079224Y0259533D01*
X0080841Y0260203D01*
X0082592Y0260203D01*
X0084209Y0259533D01*
X0085447Y0258296D01*
X0086117Y0256678D01*
X0086117Y0255646D01*
X0087916Y0253846D01*
X0088760Y0253003D01*
X0089217Y0251900D01*
X0089217Y0244803D01*
X0091167Y0242853D01*
X0091167Y0238753D01*
X0089217Y0236803D01*
X0089217Y0234126D01*
X0089947Y0233396D01*
X0090617Y0231778D01*
X0090617Y0224828D01*
X0089947Y0223211D01*
X0088709Y0221973D01*
X0087092Y0221303D01*
X0085341Y0221303D01*
X0083724Y0221973D01*
X0082486Y0223211D01*
X0081817Y0224828D01*
X0081817Y0231778D01*
X0082486Y0233396D01*
X0083217Y0234126D01*
X0083217Y0236803D01*
X0081499Y0238520D01*
X0078433Y0235453D01*
X0076217Y0235453D01*
X0076216Y0237786D02*
X0076217Y0237786D01*
X0076216Y0240184D02*
X0076217Y0240184D01*
X0076216Y0242583D02*
X0076217Y0242583D01*
X0076216Y0244981D02*
X0076217Y0244981D01*
X0079605Y0244981D02*
X0083217Y0244981D01*
X0083217Y0247380D02*
X0018417Y0247380D01*
X0018417Y0249778D02*
X0083217Y0249778D01*
X0086217Y0251303D02*
X0086217Y0240803D01*
X0086217Y0228303D01*
X0090617Y0228191D02*
X0091817Y0228191D01*
X0091817Y0225793D02*
X0090617Y0225793D01*
X0090023Y0223394D02*
X0092410Y0223394D01*
X0096217Y0228303D02*
X0096217Y0240803D01*
X0096217Y0251303D01*
X0100717Y0255803D01*
X0096439Y0256974D02*
X0085994Y0256974D01*
X0087187Y0254575D02*
X0095246Y0254575D01*
X0093331Y0252177D02*
X0089102Y0252177D01*
X0089217Y0249778D02*
X0093217Y0249778D01*
X0093217Y0247380D02*
X0089217Y0247380D01*
X0089217Y0244981D02*
X0093217Y0244981D01*
X0091267Y0242583D02*
X0091167Y0242583D01*
X0091167Y0240184D02*
X0091267Y0240184D01*
X0092234Y0237786D02*
X0090199Y0237786D01*
X0089217Y0235387D02*
X0093217Y0235387D01*
X0092318Y0232989D02*
X0090115Y0232989D01*
X0090617Y0230590D02*
X0091817Y0230590D01*
X0083217Y0235387D02*
X0018417Y0235387D01*
X0018417Y0237786D02*
X0071668Y0237786D01*
X0070867Y0240184D02*
X0018417Y0240184D01*
X0018417Y0242583D02*
X0070867Y0242583D01*
X0072828Y0244981D02*
X0018417Y0244981D01*
X0018417Y0252177D02*
X0079121Y0252177D01*
X0077463Y0254575D02*
X0018417Y0254575D01*
X0018417Y0256974D02*
X0077439Y0256974D01*
X0079063Y0259372D02*
X0018417Y0259372D01*
X0018417Y0266568D02*
X0022153Y0266568D01*
X0020380Y0268966D02*
X0018417Y0268966D01*
X0018417Y0271365D02*
X0019528Y0271365D01*
X0019528Y0273763D02*
X0018417Y0273763D01*
X0018603Y0276162D02*
X0020257Y0276162D01*
X0019547Y0278560D02*
X0021855Y0278560D01*
X0021857Y0280959D02*
X0025726Y0280959D01*
X0030329Y0280959D02*
X0356435Y0280959D01*
X0361038Y0280959D02*
X0364906Y0280959D01*
X0364908Y0278560D02*
X0367217Y0278560D01*
X0366507Y0276162D02*
X0368161Y0276162D01*
X0368347Y0273763D02*
X0367235Y0273763D01*
X0367235Y0271365D02*
X0368347Y0271365D01*
X0368347Y0268966D02*
X0366384Y0268966D01*
X0364611Y0266568D02*
X0368347Y0266568D01*
X0368347Y0254575D02*
X0325788Y0254575D01*
X0325788Y0252177D02*
X0368347Y0252177D01*
X0368347Y0249778D02*
X0325780Y0249778D01*
X0260560Y0237786D02*
X0251873Y0237786D01*
X0253991Y0235387D02*
X0258442Y0235387D01*
X0258017Y0232989D02*
X0254417Y0232989D01*
X0253670Y0230590D02*
X0258763Y0230590D01*
X0246217Y0230590D02*
X0246216Y0230590D01*
X0246216Y0228191D02*
X0246217Y0228191D01*
X0246216Y0232989D02*
X0246217Y0232989D01*
X0246216Y0233303D02*
X0246217Y0233303D01*
X0246216Y0233303D01*
X0246216Y0235387D02*
X0246217Y0235387D01*
X0246216Y0237786D02*
X0246217Y0237786D01*
X0239953Y0249778D02*
X0232480Y0249778D01*
X0231936Y0249234D02*
X0233286Y0250584D01*
X0234017Y0252348D01*
X0234017Y0254258D01*
X0233286Y0256022D01*
X0231936Y0257372D01*
X0230171Y0258103D01*
X0222262Y0258103D01*
X0220498Y0257372D01*
X0219147Y0256022D01*
X0218417Y0254258D01*
X0218417Y0252348D01*
X0219147Y0250584D01*
X0220498Y0249234D01*
X0222262Y0248503D01*
X0230171Y0248503D01*
X0231936Y0249234D01*
X0233945Y0252177D02*
X0238488Y0252177D01*
X0238548Y0254575D02*
X0233885Y0254575D01*
X0232334Y0256974D02*
X0240099Y0256974D01*
X0240359Y0259372D02*
X0232074Y0259372D01*
X0231936Y0259234D02*
X0233286Y0260584D01*
X0234017Y0262348D01*
X0234017Y0264258D01*
X0233286Y0266022D01*
X0231936Y0267372D01*
X0230171Y0268103D01*
X0222262Y0268103D01*
X0220498Y0267372D01*
X0219147Y0266022D01*
X0218417Y0264258D01*
X0218417Y0262348D01*
X0219147Y0260584D01*
X0220498Y0259234D01*
X0222262Y0258503D01*
X0230171Y0258503D01*
X0231936Y0259234D01*
X0233777Y0261771D02*
X0238656Y0261771D01*
X0238417Y0264169D02*
X0234017Y0264169D01*
X0232740Y0266568D02*
X0239693Y0266568D01*
X0240491Y0268856D02*
X0241220Y0268484D01*
X0241999Y0268231D01*
X0242807Y0268103D01*
X0246216Y0268103D01*
X0246216Y0273303D01*
X0238017Y0273303D01*
X0238017Y0272894D01*
X0238145Y0272085D01*
X0238398Y0271307D01*
X0238769Y0270578D01*
X0239250Y0269916D01*
X0239829Y0269337D01*
X0240491Y0268856D01*
X0240339Y0268966D02*
X0232094Y0268966D01*
X0231942Y0268856D02*
X0232604Y0269337D01*
X0233183Y0269916D01*
X0233664Y0270578D01*
X0234036Y0271307D01*
X0234288Y0272085D01*
X0234417Y0272894D01*
X0234417Y0273303D01*
X0226217Y0273303D01*
X0226217Y0273303D01*
X0234417Y0273303D01*
X0234417Y0273712D01*
X0234288Y0274521D01*
X0234036Y0275299D01*
X0233664Y0276029D01*
X0233183Y0276691D01*
X0232604Y0277269D01*
X0231942Y0277751D01*
X0231213Y0278122D01*
X0230434Y0278375D01*
X0229626Y0278503D01*
X0226217Y0278503D01*
X0226217Y0273303D01*
X0226217Y0268103D01*
X0229626Y0268103D01*
X0230434Y0268231D01*
X0231213Y0268484D01*
X0231942Y0268856D01*
X0234054Y0271365D02*
X0238379Y0271365D01*
X0238017Y0273303D02*
X0246216Y0273303D01*
X0246216Y0273303D01*
X0246217Y0273303D01*
X0246216Y0273303D01*
X0246216Y0278503D01*
X0242807Y0278503D01*
X0241999Y0278375D01*
X0241220Y0278122D01*
X0240491Y0277751D01*
X0239829Y0277269D01*
X0239250Y0276691D01*
X0238769Y0276029D01*
X0238398Y0275299D01*
X0238145Y0274521D01*
X0238017Y0273712D01*
X0238017Y0273303D01*
X0238025Y0273763D02*
X0234408Y0273763D01*
X0233567Y0276162D02*
X0238866Y0276162D01*
X0246216Y0276162D02*
X0246217Y0276162D01*
X0246216Y0273763D02*
X0246217Y0273763D01*
X0246216Y0271365D02*
X0246217Y0271365D01*
X0246216Y0268966D02*
X0246217Y0268966D01*
X0226217Y0268966D02*
X0226216Y0268966D01*
X0226216Y0268103D02*
X0226216Y0273303D01*
X0218017Y0273303D01*
X0218017Y0272894D01*
X0218145Y0272085D01*
X0218398Y0271307D01*
X0218769Y0270578D01*
X0219250Y0269916D01*
X0219829Y0269337D01*
X0220491Y0268856D01*
X0221220Y0268484D01*
X0221999Y0268231D01*
X0222807Y0268103D01*
X0226216Y0268103D01*
X0226216Y0271365D02*
X0226217Y0271365D01*
X0226216Y0273303D02*
X0226217Y0273303D01*
X0226216Y0273303D01*
X0226216Y0273303D01*
X0218017Y0273303D01*
X0218017Y0273712D01*
X0218145Y0274521D01*
X0218398Y0275299D01*
X0218769Y0276029D01*
X0219250Y0276691D01*
X0219829Y0277269D01*
X0220491Y0277751D01*
X0221220Y0278122D01*
X0221999Y0278375D01*
X0222807Y0278503D01*
X0226216Y0278503D01*
X0226216Y0273303D01*
X0226216Y0273763D02*
X0226217Y0273763D01*
X0226216Y0276162D02*
X0226217Y0276162D01*
X0218866Y0276162D02*
X0213567Y0276162D01*
X0214408Y0273763D02*
X0218025Y0273763D01*
X0218379Y0271365D02*
X0214054Y0271365D01*
X0212094Y0268966D02*
X0220339Y0268966D01*
X0219693Y0266568D02*
X0212740Y0266568D01*
X0214017Y0264169D02*
X0218417Y0264169D01*
X0218656Y0261771D02*
X0213777Y0261771D01*
X0212074Y0259372D02*
X0220359Y0259372D01*
X0220099Y0256974D02*
X0212334Y0256974D01*
X0213885Y0254575D02*
X0218548Y0254575D01*
X0218488Y0252177D02*
X0213945Y0252177D01*
X0212480Y0249778D02*
X0219953Y0249778D01*
X0220560Y0237786D02*
X0211873Y0237786D01*
X0213991Y0235387D02*
X0218442Y0235387D01*
X0218017Y0232989D02*
X0214417Y0232989D01*
X0213670Y0230590D02*
X0218763Y0230590D01*
X0206217Y0230590D02*
X0206216Y0230590D01*
X0206216Y0228191D02*
X0206217Y0228191D01*
X0206216Y0232989D02*
X0206217Y0232989D01*
X0206216Y0233303D02*
X0206217Y0233303D01*
X0206216Y0233303D01*
X0206216Y0233303D01*
X0198017Y0233303D01*
X0198017Y0233712D01*
X0198145Y0234521D01*
X0198398Y0235299D01*
X0198769Y0236029D01*
X0199250Y0236691D01*
X0199829Y0237269D01*
X0200491Y0237751D01*
X0201220Y0238122D01*
X0201999Y0238375D01*
X0202807Y0238503D01*
X0206216Y0238503D01*
X0206216Y0233303D01*
X0206216Y0235387D02*
X0206217Y0235387D01*
X0206216Y0237786D02*
X0206217Y0237786D01*
X0200560Y0237786D02*
X0170977Y0237786D01*
X0173375Y0235387D02*
X0198442Y0235387D01*
X0198017Y0232989D02*
X0180115Y0232989D01*
X0180617Y0230590D02*
X0198763Y0230590D01*
X0171817Y0228191D02*
X0170617Y0228191D01*
X0170617Y0225793D02*
X0171817Y0225793D01*
X0172410Y0223394D02*
X0170023Y0223394D01*
X0162410Y0223394D02*
X0160023Y0223394D01*
X0160617Y0225793D02*
X0161817Y0225793D01*
X0161817Y0228191D02*
X0160617Y0228191D01*
X0160617Y0230590D02*
X0161817Y0230590D01*
X0151817Y0230590D02*
X0150617Y0230590D01*
X0150617Y0228191D02*
X0151817Y0228191D01*
X0151817Y0225793D02*
X0150617Y0225793D01*
X0150023Y0223394D02*
X0152410Y0223394D01*
X0146217Y0228303D02*
X0146217Y0210803D01*
X0151217Y0205803D01*
X0151217Y0173303D01*
X0156217Y0168303D01*
X0151817Y0168229D02*
X0150617Y0168229D01*
X0150617Y0165830D02*
X0151817Y0165830D01*
X0152395Y0163432D02*
X0150038Y0163432D01*
X0142395Y0163432D02*
X0140038Y0163432D01*
X0139947Y0163211D02*
X0140617Y0164828D01*
X0140617Y0171778D01*
X0139947Y0173396D01*
X0138709Y0174633D01*
X0137092Y0175303D01*
X0135341Y0175303D01*
X0133724Y0174633D01*
X0132486Y0173396D01*
X0131817Y0171778D01*
X0131817Y0164828D01*
X0132486Y0163211D01*
X0133724Y0161973D01*
X0135341Y0161303D01*
X0137092Y0161303D01*
X0138709Y0161973D01*
X0139947Y0163211D01*
X0140617Y0165830D02*
X0141817Y0165830D01*
X0141817Y0168229D02*
X0140617Y0168229D01*
X0140617Y0170627D02*
X0141817Y0170627D01*
X0142333Y0173026D02*
X0140100Y0173026D01*
X0132333Y0173026D02*
X0130100Y0173026D01*
X0129947Y0173396D02*
X0128709Y0174633D01*
X0127092Y0175303D01*
X0125341Y0175303D01*
X0123724Y0174633D01*
X0122486Y0173396D01*
X0121817Y0171778D01*
X0121817Y0164828D01*
X0122486Y0163211D01*
X0123724Y0161973D01*
X0125341Y0161303D01*
X0127092Y0161303D01*
X0128709Y0161973D01*
X0129947Y0163211D01*
X0130617Y0164828D01*
X0130617Y0171778D01*
X0129947Y0173396D01*
X0130617Y0170627D02*
X0131817Y0170627D01*
X0131817Y0168229D02*
X0130617Y0168229D01*
X0130617Y0165830D02*
X0131817Y0165830D01*
X0132395Y0163432D02*
X0130038Y0163432D01*
X0122395Y0163432D02*
X0120038Y0163432D01*
X0119947Y0163211D02*
X0120617Y0164828D01*
X0120617Y0171778D01*
X0119947Y0173396D01*
X0118709Y0174633D01*
X0117092Y0175303D01*
X0115341Y0175303D01*
X0113724Y0174633D01*
X0112486Y0173396D01*
X0111817Y0171778D01*
X0111817Y0164828D01*
X0112486Y0163211D01*
X0113724Y0161973D01*
X0115341Y0161303D01*
X0117092Y0161303D01*
X0118709Y0161973D01*
X0119947Y0163211D01*
X0120617Y0165830D02*
X0121817Y0165830D01*
X0121817Y0168229D02*
X0120617Y0168229D01*
X0120617Y0170627D02*
X0121817Y0170627D01*
X0122333Y0173026D02*
X0120100Y0173026D01*
X0112333Y0173026D02*
X0110100Y0173026D01*
X0110617Y0170627D02*
X0111817Y0170627D01*
X0111817Y0168229D02*
X0110617Y0168229D01*
X0110617Y0165830D02*
X0111817Y0165830D01*
X0112395Y0163432D02*
X0110038Y0163432D01*
X0106217Y0163303D02*
X0106217Y0168303D01*
X0106217Y0180803D01*
X0109877Y0180221D02*
X0148217Y0180221D01*
X0148217Y0177823D02*
X0109217Y0177823D01*
X0109217Y0175424D02*
X0148217Y0175424D01*
X0148217Y0182620D02*
X0112276Y0182620D01*
X0114139Y0185018D02*
X0148217Y0185018D01*
X0148217Y0187417D02*
X0114217Y0187417D01*
X0114217Y0189815D02*
X0148217Y0189815D01*
X0143483Y0192214D02*
X0138950Y0192214D01*
X0138709Y0191973D02*
X0139947Y0193211D01*
X0140617Y0194828D01*
X0140617Y0201778D01*
X0139947Y0203396D01*
X0138709Y0204633D01*
X0137092Y0205303D01*
X0135341Y0205303D01*
X0133724Y0204633D01*
X0132486Y0203396D01*
X0131817Y0201778D01*
X0131817Y0194828D01*
X0132486Y0193211D01*
X0133724Y0191973D01*
X0135341Y0191303D01*
X0137092Y0191303D01*
X0138709Y0191973D01*
X0140527Y0194612D02*
X0141906Y0194612D01*
X0141817Y0197011D02*
X0140617Y0197011D01*
X0140617Y0199409D02*
X0141817Y0199409D01*
X0141829Y0201808D02*
X0140604Y0201808D01*
X0139136Y0204206D02*
X0143297Y0204206D01*
X0146172Y0206605D02*
X0116261Y0206605D01*
X0116216Y0204206D02*
X0116217Y0204206D01*
X0116216Y0201808D02*
X0116217Y0201808D01*
X0116216Y0199409D02*
X0116217Y0199409D01*
X0116216Y0197011D02*
X0116217Y0197011D01*
X0116216Y0194612D02*
X0116217Y0194612D01*
X0116216Y0192214D02*
X0116217Y0192214D01*
X0119515Y0192214D02*
X0123483Y0192214D01*
X0123724Y0191973D02*
X0125341Y0191303D01*
X0127092Y0191303D01*
X0128709Y0191973D01*
X0129947Y0193211D01*
X0130617Y0194828D01*
X0130617Y0201778D01*
X0129947Y0203396D01*
X0128709Y0204633D01*
X0127092Y0205303D01*
X0125341Y0205303D01*
X0123724Y0204633D01*
X0122486Y0203396D01*
X0121817Y0201778D01*
X0121817Y0194828D01*
X0122486Y0193211D01*
X0123724Y0191973D01*
X0121906Y0194612D02*
X0120904Y0194612D01*
X0121017Y0197011D02*
X0121817Y0197011D01*
X0121817Y0199409D02*
X0121017Y0199409D01*
X0120933Y0201808D02*
X0121829Y0201808D01*
X0123297Y0204206D02*
X0119702Y0204206D01*
X0118659Y0209003D02*
X0143774Y0209003D01*
X0143217Y0211402D02*
X0121058Y0211402D01*
X0123456Y0213800D02*
X0143217Y0213800D01*
X0143217Y0216199D02*
X0124217Y0216199D01*
X0124217Y0218597D02*
X0143217Y0218597D01*
X0143217Y0220996D02*
X0124217Y0220996D01*
X0116217Y0218303D02*
X0116217Y0228303D01*
X0111817Y0228191D02*
X0111017Y0228191D01*
X0111017Y0225793D02*
X0111817Y0225793D01*
X0112410Y0223394D02*
X0110427Y0223394D01*
X0113217Y0220996D02*
X0107180Y0220996D01*
X0106217Y0220996D02*
X0106216Y0220996D01*
X0106216Y0223394D02*
X0106217Y0223394D01*
X0106216Y0225793D02*
X0106217Y0225793D01*
X0106216Y0228191D02*
X0106217Y0228191D01*
X0106216Y0230590D02*
X0106217Y0230590D01*
X0106216Y0232989D02*
X0106217Y0232989D01*
X0110541Y0232989D02*
X0112318Y0232989D01*
X0111817Y0230590D02*
X0111017Y0230590D01*
X0106217Y0237786D02*
X0106216Y0237786D01*
X0106216Y0240184D02*
X0106217Y0240184D01*
X0106216Y0242583D02*
X0106217Y0242583D01*
X0106216Y0244981D02*
X0106217Y0244981D01*
X0102828Y0244981D02*
X0099217Y0244981D01*
X0100199Y0237786D02*
X0101668Y0237786D01*
X0082234Y0237786D02*
X0080765Y0237786D01*
X0080115Y0232989D02*
X0082318Y0232989D01*
X0081817Y0230590D02*
X0080617Y0230590D01*
X0080617Y0228191D02*
X0081817Y0228191D01*
X0081817Y0225793D02*
X0080617Y0225793D01*
X0080023Y0223394D02*
X0082410Y0223394D01*
X0072410Y0223394D02*
X0070023Y0223394D01*
X0070617Y0225793D02*
X0071817Y0225793D01*
X0071817Y0228191D02*
X0070617Y0228191D01*
X0070617Y0230590D02*
X0071817Y0230590D01*
X0086217Y0251303D02*
X0081717Y0255803D01*
X0084370Y0259372D02*
X0098063Y0259372D01*
X0130617Y0230590D02*
X0131817Y0230590D01*
X0131817Y0228191D02*
X0130617Y0228191D01*
X0130617Y0225793D02*
X0131817Y0225793D01*
X0132410Y0223394D02*
X0130023Y0223394D01*
X0140023Y0223394D02*
X0142410Y0223394D01*
X0141817Y0225793D02*
X0140617Y0225793D01*
X0140617Y0228191D02*
X0141817Y0228191D01*
X0141817Y0230590D02*
X0140617Y0230590D01*
X0116217Y0218303D02*
X0106217Y0208303D01*
X0106217Y0198303D01*
X0101817Y0199409D02*
X0100617Y0199409D01*
X0100617Y0197011D02*
X0101817Y0197011D01*
X0101906Y0194612D02*
X0100527Y0194612D01*
X0099217Y0192214D02*
X0103483Y0192214D01*
X0099217Y0189815D02*
X0108217Y0189815D01*
X0108217Y0187417D02*
X0099217Y0187417D01*
X0099217Y0185018D02*
X0106189Y0185018D01*
X0101829Y0201808D02*
X0100604Y0201808D01*
X0099136Y0204206D02*
X0103217Y0204206D01*
X0103217Y0206605D02*
X0077157Y0206605D01*
X0076217Y0203303D02*
X0073717Y0205803D01*
X0053717Y0205803D01*
X0051217Y0203303D01*
X0051217Y0153303D01*
X0046217Y0148303D01*
X0050724Y0146642D02*
X0051417Y0146642D01*
X0051417Y0149041D02*
X0051197Y0149041D01*
X0056217Y0148303D02*
X0061217Y0153303D01*
X0061217Y0180803D01*
X0068717Y0188303D01*
X0069012Y0192214D02*
X0073483Y0192214D01*
X0071906Y0194612D02*
X0070527Y0194612D01*
X0070617Y0197011D02*
X0071817Y0197011D01*
X0071817Y0199409D02*
X0070617Y0199409D01*
X0070604Y0201808D02*
X0071829Y0201808D01*
X0076217Y0203303D02*
X0076217Y0198303D01*
X0066217Y0198303D02*
X0066217Y0193303D01*
X0056217Y0183303D01*
X0056217Y0158303D01*
X0048217Y0163432D02*
X0018417Y0163432D01*
X0018417Y0165830D02*
X0048217Y0165830D01*
X0048217Y0168229D02*
X0018417Y0168229D01*
X0018417Y0170627D02*
X0048217Y0170627D01*
X0048217Y0173026D02*
X0018417Y0173026D01*
X0018417Y0175424D02*
X0032873Y0175424D01*
X0031817Y0176481D02*
X0034394Y0173903D01*
X0038039Y0173903D01*
X0040617Y0176481D01*
X0040617Y0180126D01*
X0038039Y0182703D01*
X0034394Y0182703D01*
X0031817Y0180126D01*
X0031817Y0176481D01*
X0031817Y0177823D02*
X0018417Y0177823D01*
X0018417Y0180221D02*
X0031912Y0180221D01*
X0034311Y0182620D02*
X0018417Y0182620D01*
X0018417Y0185018D02*
X0033279Y0185018D01*
X0034394Y0183903D02*
X0038039Y0183903D01*
X0040617Y0186481D01*
X0040617Y0190126D01*
X0038039Y0192703D01*
X0034394Y0192703D01*
X0031817Y0190126D01*
X0031817Y0186481D01*
X0034394Y0183903D01*
X0038122Y0182620D02*
X0048217Y0182620D01*
X0048217Y0185018D02*
X0039154Y0185018D01*
X0040617Y0187417D02*
X0048217Y0187417D01*
X0048217Y0189815D02*
X0040617Y0189815D01*
X0038528Y0192214D02*
X0043483Y0192214D01*
X0041906Y0194612D02*
X0018417Y0194612D01*
X0018417Y0192214D02*
X0033905Y0192214D01*
X0031817Y0189815D02*
X0018417Y0189815D01*
X0018417Y0187417D02*
X0031817Y0187417D01*
X0040521Y0180221D02*
X0048217Y0180221D01*
X0048217Y0177823D02*
X0040617Y0177823D01*
X0039560Y0175424D02*
X0048217Y0175424D01*
X0038039Y0162703D02*
X0034394Y0162703D01*
X0031817Y0160126D01*
X0031817Y0156481D01*
X0034394Y0153903D01*
X0038039Y0153903D01*
X0040617Y0156481D01*
X0040617Y0160126D01*
X0038039Y0162703D01*
X0039709Y0161033D02*
X0042158Y0161033D01*
X0041417Y0158635D02*
X0040617Y0158635D01*
X0040372Y0156236D02*
X0041495Y0156236D01*
X0043894Y0153838D02*
X0018417Y0153838D01*
X0018417Y0156236D02*
X0032061Y0156236D01*
X0031817Y0158635D02*
X0018417Y0158635D01*
X0018417Y0161033D02*
X0032724Y0161033D01*
X0042564Y0151439D02*
X0018417Y0151439D01*
X0018417Y0149041D02*
X0041417Y0149041D01*
X0041709Y0146642D02*
X0018417Y0146642D01*
X0018417Y0144244D02*
X0043488Y0144244D01*
X0044394Y0142703D02*
X0041817Y0140126D01*
X0041817Y0136481D01*
X0044394Y0133903D01*
X0048039Y0133903D01*
X0050617Y0136481D01*
X0050617Y0140126D01*
X0048039Y0142703D01*
X0044394Y0142703D01*
X0043536Y0141845D02*
X0018417Y0141845D01*
X0018417Y0139447D02*
X0041817Y0139447D01*
X0041817Y0137048D02*
X0018417Y0137048D01*
X0018417Y0134650D02*
X0043648Y0134650D01*
X0048785Y0134650D02*
X0083648Y0134650D01*
X0081817Y0137048D02*
X0050617Y0137048D01*
X0050617Y0139447D02*
X0081817Y0139447D01*
X0083536Y0141845D02*
X0048897Y0141845D01*
X0048945Y0144244D02*
X0053488Y0144244D01*
X0058945Y0144244D02*
X0063488Y0144244D01*
X0061417Y0146642D02*
X0061017Y0146642D01*
X0061197Y0149041D02*
X0061417Y0149041D01*
X0068945Y0144244D02*
X0082710Y0144244D01*
X0080867Y0146642D02*
X0071017Y0146642D01*
X0071197Y0149041D02*
X0080867Y0149041D01*
X0086216Y0146642D02*
X0086217Y0146642D01*
X0086216Y0144244D02*
X0086217Y0144244D01*
X0099099Y0144244D02*
X0103334Y0144244D01*
X0103724Y0144633D02*
X0102486Y0143396D01*
X0101817Y0141778D01*
X0101817Y0134828D01*
X0102486Y0133211D01*
X0103724Y0131973D01*
X0105341Y0131303D01*
X0107092Y0131303D01*
X0108709Y0131973D01*
X0109947Y0133211D01*
X0110617Y0134828D01*
X0110617Y0141778D01*
X0109947Y0143396D01*
X0108709Y0144633D01*
X0107092Y0145303D01*
X0105341Y0145303D01*
X0103724Y0144633D01*
X0101844Y0141845D02*
X0100589Y0141845D01*
X0100617Y0139447D02*
X0101817Y0139447D01*
X0101817Y0137048D02*
X0100617Y0137048D01*
X0100543Y0134650D02*
X0101890Y0134650D01*
X0103446Y0132251D02*
X0098987Y0132251D01*
X0108987Y0132251D02*
X0113446Y0132251D01*
X0113724Y0131973D02*
X0115341Y0131303D01*
X0117092Y0131303D01*
X0118709Y0131973D01*
X0119947Y0133211D01*
X0120617Y0134828D01*
X0120617Y0141778D01*
X0119947Y0143396D01*
X0118709Y0144633D01*
X0117092Y0145303D01*
X0115341Y0145303D01*
X0113724Y0144633D01*
X0112486Y0143396D01*
X0111817Y0141778D01*
X0111817Y0134828D01*
X0112486Y0133211D01*
X0113724Y0131973D01*
X0111890Y0134650D02*
X0110543Y0134650D01*
X0110617Y0137048D02*
X0111817Y0137048D01*
X0111817Y0139447D02*
X0110617Y0139447D01*
X0110589Y0141845D02*
X0111844Y0141845D01*
X0113334Y0144244D02*
X0109099Y0144244D01*
X0119099Y0144244D02*
X0123334Y0144244D01*
X0123724Y0144633D02*
X0122486Y0143396D01*
X0121817Y0141778D01*
X0121817Y0134828D01*
X0122486Y0133211D01*
X0123724Y0131973D01*
X0125341Y0131303D01*
X0127092Y0131303D01*
X0128709Y0131973D01*
X0129947Y0133211D01*
X0130617Y0134828D01*
X0130617Y0141778D01*
X0129947Y0143396D01*
X0128709Y0144633D01*
X0127092Y0145303D01*
X0125341Y0145303D01*
X0123724Y0144633D01*
X0121844Y0141845D02*
X0120589Y0141845D01*
X0120617Y0139447D02*
X0121817Y0139447D01*
X0121817Y0137048D02*
X0120617Y0137048D01*
X0120543Y0134650D02*
X0121890Y0134650D01*
X0123446Y0132251D02*
X0118987Y0132251D01*
X0128987Y0132251D02*
X0133446Y0132251D01*
X0133724Y0131973D02*
X0135341Y0131303D01*
X0137092Y0131303D01*
X0138709Y0131973D01*
X0139947Y0133211D01*
X0140617Y0134828D01*
X0140617Y0141778D01*
X0139947Y0143396D01*
X0138709Y0144633D01*
X0137092Y0145303D01*
X0135341Y0145303D01*
X0133724Y0144633D01*
X0132486Y0143396D01*
X0131817Y0141778D01*
X0131817Y0134828D01*
X0132486Y0133211D01*
X0133724Y0131973D01*
X0131890Y0134650D02*
X0130543Y0134650D01*
X0130617Y0137048D02*
X0131817Y0137048D01*
X0131817Y0139447D02*
X0130617Y0139447D01*
X0130589Y0141845D02*
X0131844Y0141845D01*
X0133334Y0144244D02*
X0129099Y0144244D01*
X0139099Y0144244D02*
X0143334Y0144244D01*
X0143724Y0144633D02*
X0142486Y0143396D01*
X0141817Y0141778D01*
X0141817Y0134828D01*
X0142486Y0133211D01*
X0143724Y0131973D01*
X0145341Y0131303D01*
X0147092Y0131303D01*
X0148709Y0131973D01*
X0149947Y0133211D01*
X0150617Y0134828D01*
X0150617Y0141778D01*
X0149947Y0143396D01*
X0148709Y0144633D01*
X0147092Y0145303D01*
X0145341Y0145303D01*
X0143724Y0144633D01*
X0141844Y0141845D02*
X0140589Y0141845D01*
X0140617Y0139447D02*
X0141817Y0139447D01*
X0141817Y0137048D02*
X0140617Y0137048D01*
X0140543Y0134650D02*
X0141890Y0134650D01*
X0143446Y0132251D02*
X0138987Y0132251D01*
X0148987Y0132251D02*
X0153164Y0132251D01*
X0151890Y0134650D02*
X0150543Y0134650D01*
X0150617Y0137048D02*
X0151817Y0137048D01*
X0151817Y0139447D02*
X0150617Y0139447D01*
X0150589Y0141845D02*
X0151844Y0141845D01*
X0153334Y0144244D02*
X0149099Y0144244D01*
X0159099Y0144244D02*
X0163334Y0144244D01*
X0161844Y0141845D02*
X0160589Y0141845D01*
X0160617Y0139447D02*
X0161817Y0139447D01*
X0161817Y0137048D02*
X0160617Y0137048D01*
X0160543Y0134650D02*
X0161890Y0134650D01*
X0162598Y0132251D02*
X0159269Y0132251D01*
X0160934Y0126020D02*
X0162739Y0124214D01*
X0162555Y0124030D01*
X0162111Y0123419D01*
X0161768Y0122746D01*
X0161535Y0122027D01*
X0161417Y0121281D01*
X0161417Y0118303D01*
X0161417Y0115325D01*
X0161535Y0114579D01*
X0161768Y0113861D01*
X0162111Y0113187D01*
X0162555Y0112576D01*
X0163090Y0112042D01*
X0163701Y0111598D01*
X0164279Y0111303D01*
X0159217Y0111303D01*
X0159217Y0112481D01*
X0159947Y0113211D01*
X0160617Y0114828D01*
X0160617Y0121778D01*
X0159947Y0123396D01*
X0159128Y0124214D01*
X0160934Y0126020D01*
X0161898Y0125056D02*
X0159969Y0125056D01*
X0160253Y0122657D02*
X0161739Y0122657D01*
X0161417Y0120258D02*
X0160617Y0120258D01*
X0161417Y0118303D02*
X0166216Y0118303D01*
X0161417Y0118303D01*
X0161417Y0117860D02*
X0160617Y0117860D01*
X0160617Y0115461D02*
X0161417Y0115461D01*
X0162202Y0113063D02*
X0159799Y0113063D01*
X0156217Y0108303D02*
X0231217Y0108303D01*
X0226917Y0113063D02*
X0179799Y0113063D01*
X0179947Y0113211D02*
X0180617Y0114828D01*
X0180617Y0121778D01*
X0179947Y0123396D01*
X0178709Y0124633D01*
X0177092Y0125303D01*
X0175341Y0125303D01*
X0173724Y0124633D01*
X0172486Y0123396D01*
X0171817Y0121778D01*
X0171817Y0114828D01*
X0172486Y0113211D01*
X0173724Y0111973D01*
X0175341Y0111303D01*
X0177092Y0111303D01*
X0178709Y0111973D01*
X0179947Y0113211D01*
X0180617Y0115461D02*
X0226917Y0115461D01*
X0226917Y0117860D02*
X0180617Y0117860D01*
X0180617Y0120258D02*
X0204761Y0120258D01*
X0203767Y0122657D02*
X0180253Y0122657D01*
X0177690Y0125056D02*
X0191266Y0125056D01*
X0191224Y0125073D02*
X0192841Y0124403D01*
X0194592Y0124403D01*
X0196209Y0125073D01*
X0197447Y0126311D01*
X0198117Y0127928D01*
X0198117Y0129678D01*
X0197447Y0131296D01*
X0196209Y0132533D01*
X0194592Y0133203D01*
X0192841Y0133203D01*
X0191224Y0132533D01*
X0189986Y0131296D01*
X0189317Y0129678D01*
X0189317Y0127928D01*
X0189986Y0126311D01*
X0191224Y0125073D01*
X0189513Y0127454D02*
X0171567Y0127454D01*
X0171567Y0129853D02*
X0189389Y0129853D01*
X0190942Y0132251D02*
X0179553Y0132251D01*
X0179344Y0132042D02*
X0179878Y0132576D01*
X0180322Y0133187D01*
X0180665Y0133861D01*
X0180898Y0134579D01*
X0181017Y0135325D01*
X0181017Y0138303D01*
X0176217Y0138303D01*
X0176217Y0138303D01*
X0181017Y0138303D01*
X0181017Y0141281D01*
X0180898Y0142027D01*
X0180665Y0142746D01*
X0180322Y0143419D01*
X0179878Y0144030D01*
X0179344Y0144564D01*
X0178732Y0145008D01*
X0178059Y0145351D01*
X0177341Y0145585D01*
X0176594Y0145703D01*
X0176217Y0145703D01*
X0176217Y0138303D01*
X0176217Y0130903D01*
X0176594Y0130903D01*
X0177341Y0131021D01*
X0178059Y0131255D01*
X0178732Y0131598D01*
X0179344Y0132042D01*
X0180909Y0134650D02*
X0203367Y0134650D01*
X0203367Y0133303D02*
X0208716Y0133303D01*
X0203367Y0133303D01*
X0203367Y0132251D02*
X0196491Y0132251D01*
X0198044Y0129853D02*
X0204601Y0129853D01*
X0205867Y0127454D02*
X0197920Y0127454D01*
X0196167Y0125056D02*
X0203767Y0125056D01*
X0211566Y0127454D02*
X0226417Y0127454D01*
X0226417Y0125056D02*
X0213667Y0125056D01*
X0213667Y0122657D02*
X0226417Y0122657D01*
X0226917Y0120258D02*
X0212672Y0120258D01*
X0212832Y0129853D02*
X0226456Y0129853D01*
X0227876Y0132251D02*
X0214067Y0132251D01*
X0208717Y0133303D02*
X0208716Y0133303D01*
X0208716Y0133303D01*
X0208716Y0138653D01*
X0208716Y0143303D01*
X0203367Y0143303D01*
X0208716Y0143303D01*
X0208716Y0143303D01*
X0208717Y0143303D01*
X0208717Y0133303D01*
X0208716Y0134650D02*
X0208717Y0134650D01*
X0208716Y0137048D02*
X0208717Y0137048D01*
X0208716Y0139447D02*
X0208717Y0139447D01*
X0208716Y0141845D02*
X0208717Y0141845D01*
X0205007Y0139447D02*
X0181017Y0139447D01*
X0181017Y0137048D02*
X0204895Y0137048D01*
X0203367Y0141845D02*
X0180927Y0141845D01*
X0179664Y0144244D02*
X0191054Y0144244D01*
X0196380Y0144244D02*
X0203367Y0144244D01*
X0204489Y0146642D02*
X0197998Y0146642D01*
X0197966Y0149041D02*
X0205979Y0149041D01*
X0203767Y0151439D02*
X0196303Y0151439D01*
X0191130Y0151439D02*
X0098595Y0151439D01*
X0096217Y0153303D02*
X0106217Y0163303D01*
X0102102Y0163432D02*
X0100038Y0163432D01*
X0099704Y0161033D02*
X0090487Y0161033D01*
X0091167Y0158635D02*
X0097305Y0158635D01*
X0103392Y0156236D02*
X0204649Y0156236D01*
X0203767Y0153838D02*
X0100994Y0153838D01*
X0100617Y0165830D02*
X0101817Y0165830D01*
X0081946Y0161033D02*
X0070840Y0161033D01*
X0071417Y0158635D02*
X0081267Y0158635D01*
X0041017Y0120291D02*
X0038205Y0123103D01*
X0036217Y0123103D01*
X0036217Y0118303D01*
X0036217Y0118303D01*
X0041017Y0118303D01*
X0041017Y0116315D01*
X0038205Y0113503D01*
X0036217Y0113503D01*
X0036217Y0118303D01*
X0041017Y0118303D01*
X0041017Y0120291D01*
X0041017Y0120258D02*
X0141817Y0120258D01*
X0141817Y0117860D02*
X0041017Y0117860D01*
X0040163Y0115461D02*
X0141817Y0115461D01*
X0142634Y0113063D02*
X0018417Y0113063D01*
X0018417Y0115461D02*
X0032270Y0115461D01*
X0031417Y0116315D02*
X0034228Y0113503D01*
X0036216Y0113503D01*
X0036216Y0118303D01*
X0031417Y0118303D01*
X0031417Y0116315D01*
X0031417Y0117860D02*
X0018417Y0117860D01*
X0018417Y0120258D02*
X0031417Y0120258D01*
X0031417Y0120291D02*
X0031417Y0118303D01*
X0036216Y0118303D01*
X0036216Y0118303D01*
X0036217Y0118303D01*
X0036216Y0118303D01*
X0036216Y0123103D01*
X0034228Y0123103D01*
X0031417Y0120291D01*
X0033782Y0122657D02*
X0018417Y0122657D01*
X0036216Y0122657D02*
X0036217Y0122657D01*
X0036216Y0120258D02*
X0036217Y0120258D01*
X0036216Y0117860D02*
X0036217Y0117860D01*
X0036216Y0115461D02*
X0036217Y0115461D01*
X0038651Y0122657D02*
X0142180Y0122657D01*
X0156217Y0118303D02*
X0156217Y0108303D01*
X0156217Y0098303D01*
X0146217Y0088303D01*
X0141817Y0089078D02*
X0090221Y0089078D01*
X0092070Y0091476D02*
X0141817Y0091476D01*
X0142966Y0093875D02*
X0092322Y0093875D01*
X0088641Y0101070D02*
X0086902Y0101070D01*
X0087322Y0103469D02*
X0088222Y0103469D01*
X0089216Y0105867D02*
X0086327Y0105867D01*
X0083222Y0093875D02*
X0082322Y0093875D01*
X0082070Y0091476D02*
X0083473Y0091476D01*
X0085322Y0089078D02*
X0080221Y0089078D01*
X0072703Y0086679D02*
X0068323Y0086679D01*
X0067772Y0089078D02*
X0067772Y0089078D01*
X0067772Y0091476D02*
X0067772Y0091476D01*
X0067772Y0092988D02*
X0067772Y0092988D01*
X0067772Y0097938D01*
X0067382Y0097938D01*
X0066613Y0097816D01*
X0065872Y0097576D01*
X0065177Y0097222D01*
X0064547Y0096764D01*
X0063996Y0096213D01*
X0063538Y0095583D01*
X0063184Y0094888D01*
X0062944Y0094147D01*
X0062822Y0093378D01*
X0062822Y0092988D01*
X0067772Y0092988D01*
X0067772Y0093875D02*
X0067772Y0093875D01*
X0067772Y0096273D02*
X0067772Y0096273D01*
X0070340Y0098672D02*
X0064241Y0098672D01*
X0063677Y0098438D02*
X0065349Y0099131D01*
X0066629Y0100411D01*
X0067322Y0102083D01*
X0067322Y0103893D01*
X0066629Y0105566D01*
X0065349Y0106845D01*
X0063677Y0107538D01*
X0061867Y0107538D01*
X0060194Y0106845D01*
X0058914Y0105566D01*
X0058222Y0103893D01*
X0058222Y0102083D01*
X0058914Y0100411D01*
X0060194Y0099131D01*
X0061867Y0098438D01*
X0063677Y0098438D01*
X0064056Y0096273D02*
X0060921Y0096273D01*
X0061302Y0098672D02*
X0018417Y0098672D01*
X0018417Y0101070D02*
X0058641Y0101070D01*
X0058222Y0103469D02*
X0018417Y0103469D01*
X0018417Y0105867D02*
X0059216Y0105867D01*
X0066327Y0105867D02*
X0068745Y0105867D01*
X0067836Y0103469D02*
X0067322Y0103469D01*
X0066902Y0101070D02*
X0068193Y0101070D01*
X0062900Y0093875D02*
X0062322Y0093875D01*
X0057772Y0092988D02*
X0069957Y0080803D01*
X0113717Y0080803D01*
X0138717Y0055803D01*
X0256217Y0055803D01*
X0293402Y0092988D01*
X0293992Y0092988D01*
X0287343Y0098672D02*
X0266567Y0098672D01*
X0266567Y0096273D02*
X0284944Y0096273D01*
X0282546Y0093875D02*
X0264354Y0093875D01*
X0261217Y0093875D02*
X0261216Y0093875D01*
X0261216Y0096273D02*
X0261217Y0096273D01*
X0261216Y0098672D02*
X0261217Y0098672D01*
X0261216Y0101070D02*
X0261217Y0101070D01*
X0261216Y0103469D02*
X0261217Y0103469D01*
X0263617Y0103469D02*
X0292140Y0103469D01*
X0289741Y0101070D02*
X0266015Y0101070D01*
X0258816Y0103469D02*
X0255517Y0103469D01*
X0255517Y0105867D02*
X0295013Y0105867D01*
X0308992Y0105867D02*
X0308992Y0105867D01*
X0308992Y0103469D02*
X0308992Y0103469D01*
X0328542Y0093875D02*
X0351217Y0093875D01*
X0351217Y0091476D02*
X0328291Y0091476D01*
X0326441Y0089078D02*
X0351217Y0089078D01*
X0351217Y0086679D02*
X0291335Y0086679D01*
X0288937Y0084281D02*
X0351217Y0084281D01*
X0351217Y0081882D02*
X0286538Y0081882D01*
X0284140Y0079484D02*
X0351217Y0079484D01*
X0351217Y0077085D02*
X0281741Y0077085D01*
X0284121Y0075279D02*
X0281701Y0072860D01*
X0280392Y0069699D01*
X0280392Y0066278D01*
X0281701Y0063117D01*
X0284121Y0060697D01*
X0287281Y0059388D01*
X0290703Y0059388D01*
X0293864Y0060697D01*
X0296283Y0063117D01*
X0297592Y0066278D01*
X0297592Y0069699D01*
X0296283Y0072860D01*
X0293864Y0075279D01*
X0290703Y0076588D01*
X0287281Y0076588D01*
X0284121Y0075279D01*
X0283528Y0074687D02*
X0279343Y0074687D01*
X0281465Y0072288D02*
X0276944Y0072288D01*
X0274546Y0069890D02*
X0280471Y0069890D01*
X0280392Y0067491D02*
X0272147Y0067491D01*
X0269749Y0065093D02*
X0280883Y0065093D01*
X0282124Y0062694D02*
X0267350Y0062694D01*
X0264952Y0060296D02*
X0285091Y0060296D01*
X0292894Y0060296D02*
X0330091Y0060296D01*
X0329121Y0060697D02*
X0332281Y0059388D01*
X0335703Y0059388D01*
X0338864Y0060697D01*
X0341283Y0063117D01*
X0342592Y0066278D01*
X0342592Y0069699D01*
X0341283Y0072860D01*
X0338864Y0075279D01*
X0335703Y0076588D01*
X0332281Y0076588D01*
X0329121Y0075279D01*
X0326701Y0072860D01*
X0325392Y0069699D01*
X0325392Y0066278D01*
X0326701Y0063117D01*
X0329121Y0060697D01*
X0327124Y0062694D02*
X0295860Y0062694D01*
X0297101Y0065093D02*
X0325883Y0065093D01*
X0325392Y0067491D02*
X0297592Y0067491D01*
X0297513Y0069890D02*
X0325471Y0069890D01*
X0326465Y0072288D02*
X0296520Y0072288D01*
X0294456Y0074687D02*
X0328528Y0074687D01*
X0339456Y0074687D02*
X0351217Y0074687D01*
X0351217Y0072288D02*
X0341520Y0072288D01*
X0342513Y0069890D02*
X0351217Y0069890D01*
X0354337Y0067491D02*
X0342592Y0067491D01*
X0342101Y0065093D02*
X0351695Y0065093D01*
X0350605Y0062694D02*
X0340860Y0062694D01*
X0337894Y0060296D02*
X0350237Y0060296D01*
X0350455Y0057897D02*
X0262553Y0057897D01*
X0260155Y0055499D02*
X0351449Y0055499D01*
X0353731Y0053100D02*
X0257530Y0053100D01*
X0246626Y0065093D02*
X0246210Y0065093D01*
X0246417Y0067491D02*
X0246417Y0067491D01*
X0246417Y0069553D02*
X0246417Y0072962D01*
X0246288Y0073771D01*
X0246036Y0074549D01*
X0245664Y0075279D01*
X0245183Y0075941D01*
X0244604Y0076519D01*
X0243942Y0077001D01*
X0243213Y0077372D01*
X0242434Y0077625D01*
X0241626Y0077753D01*
X0241217Y0077753D01*
X0241217Y0069553D01*
X0246417Y0069553D01*
X0246417Y0069890D02*
X0246417Y0069890D01*
X0246417Y0072288D02*
X0246417Y0072288D01*
X0245965Y0074687D02*
X0246905Y0074687D01*
X0246917Y0077085D02*
X0243776Y0077085D01*
X0241217Y0077085D02*
X0241216Y0077085D01*
X0241216Y0074687D02*
X0241217Y0074687D01*
X0241216Y0072288D02*
X0241217Y0072288D01*
X0241216Y0069890D02*
X0241217Y0069890D01*
X0236017Y0069890D02*
X0236017Y0069890D01*
X0236017Y0072288D02*
X0236017Y0072288D01*
X0236468Y0074687D02*
X0235528Y0074687D01*
X0232818Y0077085D02*
X0238657Y0077085D01*
X0246917Y0079484D02*
X0199963Y0079484D01*
X0205318Y0077085D02*
X0212115Y0077085D01*
X0215318Y0077085D02*
X0229615Y0077085D01*
X0226905Y0074687D02*
X0218028Y0074687D01*
X0218517Y0072288D02*
X0226417Y0072288D01*
X0226417Y0069890D02*
X0218517Y0069890D01*
X0218517Y0067491D02*
X0226417Y0067491D01*
X0226626Y0065093D02*
X0218307Y0065093D01*
X0209126Y0065093D02*
X0208307Y0065093D01*
X0208517Y0067491D02*
X0208917Y0067491D01*
X0208917Y0069890D02*
X0208517Y0069890D01*
X0208517Y0072288D02*
X0208917Y0072288D01*
X0209405Y0074687D02*
X0208028Y0074687D01*
X0198917Y0073176D02*
X0198917Y0065598D01*
X0199647Y0063834D01*
X0199678Y0063803D01*
X0198146Y0063803D01*
X0198164Y0063828D01*
X0198536Y0064557D01*
X0198788Y0065335D01*
X0198917Y0066144D01*
X0198917Y0069553D01*
X0193717Y0069553D01*
X0193717Y0069553D01*
X0198917Y0069553D01*
X0198917Y0072962D01*
X0198876Y0073216D01*
X0198917Y0073176D01*
X0198917Y0072288D02*
X0198917Y0072288D01*
X0198917Y0069890D02*
X0198917Y0069890D01*
X0198917Y0067491D02*
X0198917Y0067491D01*
X0198710Y0065093D02*
X0199126Y0065093D01*
X0188723Y0065093D02*
X0182311Y0065093D01*
X0183617Y0067491D02*
X0188517Y0067491D01*
X0188517Y0069890D02*
X0183338Y0069890D01*
X0181416Y0072288D02*
X0188517Y0072288D01*
X0188968Y0074687D02*
X0181906Y0074687D01*
X0171017Y0072288D02*
X0169672Y0072288D01*
X0169520Y0074687D02*
X0170528Y0074687D01*
X0168942Y0077085D02*
X0166111Y0077085D01*
X0163713Y0079484D02*
X0168927Y0079484D01*
X0168490Y0081882D02*
X0170490Y0081882D01*
X0169947Y0083211D02*
X0170617Y0084828D01*
X0170617Y0091778D01*
X0169947Y0093396D01*
X0168709Y0094633D01*
X0167092Y0095303D01*
X0165341Y0095303D01*
X0163724Y0094633D01*
X0162486Y0093396D01*
X0161817Y0091778D01*
X0161817Y0084828D01*
X0162486Y0083211D01*
X0163724Y0081973D01*
X0165341Y0081303D01*
X0167092Y0081303D01*
X0168709Y0081973D01*
X0169947Y0083211D01*
X0170390Y0084281D02*
X0171632Y0084281D01*
X0171417Y0086679D02*
X0170617Y0086679D01*
X0170617Y0089078D02*
X0171417Y0089078D01*
X0171448Y0091476D02*
X0170617Y0091476D01*
X0169467Y0093875D02*
X0172443Y0093875D01*
X0176216Y0093875D02*
X0176217Y0093875D01*
X0176217Y0095703D02*
X0176217Y0088303D01*
X0181017Y0088303D01*
X0181017Y0091281D01*
X0180898Y0092027D01*
X0180665Y0092746D01*
X0180322Y0093419D01*
X0179878Y0094030D01*
X0179344Y0094564D01*
X0178732Y0095008D01*
X0178059Y0095351D01*
X0177341Y0095585D01*
X0176594Y0095703D01*
X0176217Y0095703D01*
X0179991Y0093875D02*
X0218079Y0093875D01*
X0219000Y0092953D02*
X0221216Y0092953D01*
X0221216Y0098303D01*
X0215867Y0098303D01*
X0215867Y0096087D01*
X0219000Y0092953D01*
X0221216Y0093875D02*
X0221217Y0093875D01*
X0221216Y0096273D02*
X0221217Y0096273D01*
X0221216Y0098303D02*
X0221217Y0098303D01*
X0221216Y0098303D01*
X0221216Y0098303D01*
X0215867Y0098303D01*
X0215867Y0100519D01*
X0219000Y0103653D01*
X0221216Y0103653D01*
X0221216Y0098303D01*
X0221216Y0098672D02*
X0221217Y0098672D01*
X0221216Y0101070D02*
X0221217Y0101070D01*
X0221216Y0103469D02*
X0221217Y0103469D01*
X0223617Y0103469D02*
X0226917Y0103469D01*
X0226917Y0101070D02*
X0226015Y0101070D01*
X0226567Y0096273D02*
X0226699Y0096273D01*
X0228972Y0093875D02*
X0224354Y0093875D01*
X0215867Y0096273D02*
X0158429Y0096273D01*
X0159217Y0098672D02*
X0215867Y0098672D01*
X0216418Y0101070D02*
X0159217Y0101070D01*
X0159217Y0103469D02*
X0218816Y0103469D01*
X0246917Y0091476D02*
X0180986Y0091476D01*
X0181017Y0089078D02*
X0246917Y0089078D01*
X0246917Y0086679D02*
X0181017Y0086679D01*
X0180801Y0084281D02*
X0246917Y0084281D01*
X0246917Y0081882D02*
X0181943Y0081882D01*
X0176216Y0089078D02*
X0176217Y0089078D01*
X0176216Y0091476D02*
X0176217Y0091476D01*
X0162966Y0093875D02*
X0159467Y0093875D01*
X0160617Y0091476D02*
X0161817Y0091476D01*
X0161817Y0089078D02*
X0160617Y0089078D01*
X0160617Y0086679D02*
X0161817Y0086679D01*
X0162043Y0084281D02*
X0160390Y0084281D01*
X0161314Y0081882D02*
X0163943Y0081882D01*
X0158757Y0077085D02*
X0129177Y0077085D01*
X0131576Y0074687D02*
X0161156Y0074687D01*
X0162761Y0072288D02*
X0158454Y0072288D01*
X0158039Y0072703D02*
X0160617Y0070126D01*
X0160617Y0066481D01*
X0158039Y0063903D01*
X0154394Y0063903D01*
X0151817Y0066481D01*
X0151817Y0070126D01*
X0154394Y0072703D01*
X0158039Y0072703D01*
X0160617Y0069890D02*
X0165099Y0069890D01*
X0167334Y0069890D02*
X0169095Y0069890D01*
X0168817Y0067491D02*
X0160617Y0067491D01*
X0159229Y0065093D02*
X0170122Y0065093D01*
X0153979Y0072288D02*
X0133974Y0072288D01*
X0136373Y0069890D02*
X0151817Y0069890D01*
X0151817Y0067491D02*
X0138771Y0067491D01*
X0141170Y0065093D02*
X0153204Y0065093D01*
X0137403Y0053100D02*
X0033033Y0053100D01*
X0032842Y0052909D02*
X0035233Y0055300D01*
X0036527Y0058424D01*
X0036527Y0061805D01*
X0035233Y0064929D01*
X0032842Y0067319D01*
X0029718Y0068613D01*
X0026337Y0068613D01*
X0023213Y0067319D01*
X0020822Y0064929D01*
X0019528Y0061805D01*
X0019528Y0058424D01*
X0020822Y0055300D01*
X0023213Y0052909D01*
X0026337Y0051615D01*
X0029718Y0051615D01*
X0032842Y0052909D01*
X0035315Y0055499D02*
X0134778Y0055499D01*
X0132380Y0057897D02*
X0036309Y0057897D01*
X0036527Y0060296D02*
X0048870Y0060296D01*
X0047900Y0060697D02*
X0051061Y0059388D01*
X0054482Y0059388D01*
X0057643Y0060697D01*
X0060062Y0063117D01*
X0061372Y0066278D01*
X0061372Y0069699D01*
X0060062Y0072860D01*
X0057643Y0075279D01*
X0054482Y0076588D01*
X0051061Y0076588D01*
X0047900Y0075279D01*
X0045481Y0072860D01*
X0044172Y0069699D01*
X0044172Y0066278D01*
X0045481Y0063117D01*
X0047900Y0060697D01*
X0045903Y0062694D02*
X0036158Y0062694D01*
X0035069Y0065093D02*
X0044662Y0065093D01*
X0044172Y0067491D02*
X0032427Y0067491D01*
X0023628Y0067491D02*
X0018417Y0067491D01*
X0018417Y0065093D02*
X0020986Y0065093D01*
X0019897Y0062694D02*
X0018417Y0062694D01*
X0018417Y0060296D02*
X0019528Y0060296D01*
X0019746Y0057897D02*
X0018436Y0057897D01*
X0018982Y0055499D02*
X0020740Y0055499D01*
X0020394Y0053100D02*
X0023022Y0053100D01*
X0024542Y0050702D02*
X0362222Y0050702D01*
X0363742Y0053100D02*
X0366369Y0053100D01*
X0366024Y0055499D02*
X0367782Y0055499D01*
X0368328Y0057897D02*
X0367017Y0057897D01*
X0367235Y0060296D02*
X0368347Y0060296D01*
X0368347Y0062694D02*
X0366867Y0062694D01*
X0365777Y0065093D02*
X0368347Y0065093D01*
X0368347Y0067491D02*
X0363136Y0067491D01*
X0280147Y0091476D02*
X0255517Y0091476D01*
X0255517Y0089078D02*
X0277749Y0089078D01*
X0275350Y0086679D02*
X0255517Y0086679D01*
X0255517Y0084281D02*
X0272952Y0084281D01*
X0270553Y0081882D02*
X0255517Y0081882D01*
X0255517Y0079484D02*
X0268155Y0079484D01*
X0265756Y0077085D02*
X0255517Y0077085D01*
X0255528Y0074687D02*
X0263358Y0074687D01*
X0260959Y0072288D02*
X0256017Y0072288D01*
X0256017Y0069890D02*
X0258561Y0069890D01*
X0256162Y0067491D02*
X0256017Y0067491D01*
X0236223Y0065093D02*
X0235807Y0065093D01*
X0236017Y0067491D02*
X0236017Y0067491D01*
X0255517Y0093875D02*
X0258079Y0093875D01*
X0255867Y0096273D02*
X0255734Y0096273D01*
X0255517Y0101070D02*
X0256418Y0101070D01*
X0174743Y0125056D02*
X0170535Y0125056D01*
X0170694Y0122657D02*
X0172180Y0122657D01*
X0171817Y0120258D02*
X0171017Y0120258D01*
X0171017Y0117860D02*
X0171817Y0117860D01*
X0171817Y0115461D02*
X0171017Y0115461D01*
X0170231Y0113063D02*
X0172634Y0113063D01*
X0166217Y0118303D02*
X0166216Y0118303D01*
X0166216Y0118303D01*
X0166216Y0122953D01*
X0166216Y0128303D01*
X0166217Y0128303D01*
X0166217Y0118303D01*
X0166216Y0120258D02*
X0166217Y0120258D01*
X0166216Y0122657D02*
X0166217Y0122657D01*
X0166216Y0125056D02*
X0166217Y0125056D01*
X0166216Y0127454D02*
X0166217Y0127454D01*
X0169835Y0132251D02*
X0172880Y0132251D01*
X0173090Y0132042D02*
X0173701Y0131598D01*
X0174374Y0131255D01*
X0175093Y0131021D01*
X0175839Y0130903D01*
X0176216Y0130903D01*
X0176216Y0138303D01*
X0171417Y0138303D01*
X0171417Y0135325D01*
X0171535Y0134579D01*
X0171768Y0133861D01*
X0172111Y0133187D01*
X0172555Y0132576D01*
X0173090Y0132042D01*
X0171524Y0134650D02*
X0170543Y0134650D01*
X0170617Y0137048D02*
X0171417Y0137048D01*
X0171417Y0138303D02*
X0176216Y0138303D01*
X0176216Y0138303D01*
X0176217Y0138303D01*
X0176216Y0138303D01*
X0176216Y0145703D01*
X0175839Y0145703D01*
X0175093Y0145585D01*
X0174374Y0145351D01*
X0173701Y0145008D01*
X0173090Y0144564D01*
X0172555Y0144030D01*
X0172111Y0143419D01*
X0171768Y0142746D01*
X0171535Y0142027D01*
X0171417Y0141281D01*
X0171417Y0138303D01*
X0171417Y0139447D02*
X0170617Y0139447D01*
X0170589Y0141845D02*
X0171506Y0141845D01*
X0172769Y0144244D02*
X0169099Y0144244D01*
X0176216Y0144244D02*
X0176217Y0144244D01*
X0176216Y0141845D02*
X0176217Y0141845D01*
X0176216Y0139447D02*
X0176217Y0139447D01*
X0176216Y0137048D02*
X0176217Y0137048D01*
X0176216Y0134650D02*
X0176217Y0134650D01*
X0176216Y0132251D02*
X0176217Y0132251D01*
X0151817Y0089078D02*
X0151234Y0089078D01*
X0151817Y0086679D02*
X0150617Y0086679D01*
X0150390Y0084281D02*
X0152043Y0084281D01*
X0153943Y0081882D02*
X0148490Y0081882D01*
X0143943Y0081882D02*
X0124380Y0081882D01*
X0126779Y0079484D02*
X0156359Y0079484D01*
X0142043Y0084281D02*
X0121981Y0084281D01*
X0119583Y0086679D02*
X0141817Y0086679D01*
X0122786Y0067491D02*
X0120617Y0067491D01*
X0119229Y0065093D02*
X0125184Y0065093D01*
X0127583Y0062694D02*
X0104640Y0062694D01*
X0105062Y0063117D02*
X0106372Y0066278D01*
X0106372Y0069699D01*
X0105062Y0072860D01*
X0102643Y0075279D01*
X0099482Y0076588D01*
X0096061Y0076588D01*
X0092900Y0075279D01*
X0090481Y0072860D01*
X0089172Y0069699D01*
X0089172Y0066278D01*
X0090481Y0063117D01*
X0092900Y0060697D01*
X0096061Y0059388D01*
X0099482Y0059388D01*
X0102643Y0060697D01*
X0105062Y0063117D01*
X0105881Y0065093D02*
X0113204Y0065093D01*
X0111817Y0067491D02*
X0106372Y0067491D01*
X0106293Y0069890D02*
X0111817Y0069890D01*
X0113979Y0072288D02*
X0105299Y0072288D01*
X0103235Y0074687D02*
X0115590Y0074687D01*
X0113192Y0077085D02*
X0018417Y0077085D01*
X0018417Y0074687D02*
X0047308Y0074687D01*
X0045244Y0072288D02*
X0018417Y0072288D01*
X0018417Y0069890D02*
X0044251Y0069890D01*
X0058235Y0074687D02*
X0092308Y0074687D01*
X0090244Y0072288D02*
X0060299Y0072288D01*
X0061293Y0069890D02*
X0089251Y0069890D01*
X0089172Y0067491D02*
X0061372Y0067491D01*
X0060881Y0065093D02*
X0089662Y0065093D01*
X0090903Y0062694D02*
X0059640Y0062694D01*
X0056673Y0060296D02*
X0093870Y0060296D01*
X0101673Y0060296D02*
X0129981Y0060296D01*
X0072971Y0084281D02*
X0070722Y0084281D01*
X0067033Y0079484D02*
X0018417Y0079484D01*
X0018417Y0081882D02*
X0064635Y0081882D01*
X0062236Y0084281D02*
X0018417Y0084281D01*
X0018417Y0086679D02*
X0059838Y0086679D01*
X0055322Y0089078D02*
X0018417Y0089078D01*
X0018417Y0091476D02*
X0053473Y0091476D01*
X0053222Y0093875D02*
X0018417Y0093875D01*
X0018417Y0096273D02*
X0054622Y0096273D01*
X0128950Y0192214D02*
X0133483Y0192214D01*
X0131906Y0194612D02*
X0130527Y0194612D01*
X0130617Y0197011D02*
X0131817Y0197011D01*
X0131817Y0199409D02*
X0130617Y0199409D01*
X0130604Y0201808D02*
X0131829Y0201808D01*
X0133297Y0204206D02*
X0129136Y0204206D01*
X0112268Y0218597D02*
X0018417Y0218597D01*
X0018417Y0216199D02*
X0109870Y0216199D01*
X0107471Y0213800D02*
X0018417Y0213800D01*
X0018417Y0211402D02*
X0105073Y0211402D01*
X0103259Y0209003D02*
X0018417Y0209003D01*
X0018417Y0206605D02*
X0050276Y0206605D01*
X0043297Y0204206D02*
X0018417Y0204206D01*
X0018417Y0201808D02*
X0041829Y0201808D01*
X0041817Y0199409D02*
X0018417Y0199409D01*
X0018417Y0197011D02*
X0041817Y0197011D01*
X0154132Y0206605D02*
X0171124Y0206605D01*
X0163297Y0204206D02*
X0159136Y0204206D01*
X0160604Y0201808D02*
X0161829Y0201808D01*
X0161817Y0199409D02*
X0160617Y0199409D01*
X0160617Y0197011D02*
X0161817Y0197011D01*
X0161906Y0194612D02*
X0160527Y0194612D01*
X0158950Y0192214D02*
X0163483Y0192214D01*
X0168950Y0192214D02*
X0173483Y0192214D01*
X0171906Y0194612D02*
X0170527Y0194612D01*
X0170617Y0197011D02*
X0171817Y0197011D01*
X0171817Y0199409D02*
X0170717Y0199409D01*
X0266216Y0192214D02*
X0266217Y0192214D01*
X0266216Y0189815D02*
X0266217Y0189815D01*
X0324786Y0177823D02*
X0348028Y0177823D01*
X0348881Y0175424D02*
X0325788Y0175424D01*
X0325788Y0173026D02*
X0352075Y0173026D01*
X0348984Y0170627D02*
X0325788Y0170627D01*
X0356216Y0175424D02*
X0356217Y0175424D01*
X0356216Y0177823D02*
X0356217Y0177823D01*
X0356216Y0180221D02*
X0356217Y0180221D01*
X0356216Y0182620D02*
X0356217Y0182620D01*
X0363275Y0161033D02*
X0368347Y0161033D01*
X0368347Y0158635D02*
X0364017Y0158635D01*
X0363556Y0156236D02*
X0368347Y0156236D01*
X0368347Y0153838D02*
X0360979Y0153838D01*
X0206217Y0268966D02*
X0206216Y0268966D01*
X0206216Y0271365D02*
X0206217Y0271365D01*
X0206216Y0273763D02*
X0206217Y0273763D01*
X0206216Y0276162D02*
X0206217Y0276162D01*
D23*
X0301217Y0253303D02*
X0301217Y0213303D01*
X0301217Y0173303D01*
X0301217Y0148303D01*
X0278717Y0125803D01*
X0251217Y0125803D01*
X0251217Y0098303D01*
X0251217Y0069553D01*
X0231217Y0098303D02*
X0231217Y0108303D01*
X0231217Y0125803D01*
D24*
X0197467Y0078303D02*
X0176217Y0078303D01*
X0166217Y0073303D02*
X0156217Y0083303D01*
X0156217Y0088303D01*
X0197467Y0078303D02*
X0203717Y0072053D01*
X0203717Y0069553D01*
D25*
X0166217Y0073303D03*
X0076217Y0085803D03*
X0187467Y0210803D03*
X0193717Y0215803D03*
X0256217Y0190803D03*
X0277467Y0194553D03*
X0286217Y0202053D03*
X0291217Y0198303D03*
D26*
X0176217Y0198303D01*
X0178717Y0205803D02*
X0183717Y0200803D01*
X0284967Y0200803D01*
X0286217Y0202053D01*
X0277467Y0194553D02*
X0277467Y0180803D01*
X0269967Y0173303D01*
X0266217Y0173303D01*
X0256217Y0179553D02*
X0249967Y0173303D01*
X0246217Y0173303D01*
X0256217Y0179553D02*
X0256217Y0190803D01*
X0246217Y0213303D02*
X0241217Y0218303D01*
X0196217Y0218303D01*
X0193717Y0215803D01*
X0196217Y0213303D02*
X0206217Y0213303D01*
X0196217Y0213303D02*
X0193717Y0210803D01*
X0187467Y0210803D01*
X0178717Y0205803D02*
X0173717Y0205803D01*
X0166217Y0198303D01*
M02*
