%
M48
M72
T01C0.02362
T02C0.03200
T03C0.03500
T04C0.03543
T05C0.03600
T06C0.04000
T07C0.05600
T08C0.12598
T09C0.12800
%
T01
X106800Y60494
X89300Y62994
X126800Y65494
X146800Y60494
X151800Y60494
X181800Y95494
X240550Y97994
X274300Y145494
X294123Y191754
X300028Y191754
X300028Y195691
X294123Y195691
X246800Y202994
X196800Y207994
X99300Y204244
X131800Y145494
X141800Y134244
X281800Y50494
X294123Y46085
X300028Y46085
X300028Y42148
X294123Y42148
X246800Y47994
T02
X246800Y85494
X236800Y85494
X226800Y85494
X216800Y85494
X206800Y85494
X196800Y85494
X186800Y85494
X176800Y85494
X166800Y85494
X146800Y85494
X136800Y85494
X126800Y85494
X116800Y85494
X116800Y115494
X126800Y115494
X136800Y115494
X146800Y115494
X166800Y115494
X176800Y115494
X186800Y115494
X196800Y115494
X206800Y115494
X216800Y115494
X226800Y115494
X236800Y115494
X246800Y115494
X206800Y140494
X196800Y140494
X186800Y140494
X176800Y140494
X166800Y140494
X156800Y140494
X146800Y140494
X136800Y140494
X126800Y140494
X116800Y140494
X106800Y140494
X96800Y140494
X86800Y140494
X76800Y140494
X76800Y170494
X86800Y170494
X96800Y170494
X106800Y170494
X116800Y170494
X126800Y170494
X136800Y170494
X146800Y170494
X156800Y170494
X166800Y170494
X176800Y170494
X186800Y170494
X196800Y170494
X206800Y170494
X162942Y181912
X152942Y181912
X142942Y181912
X132942Y181912
X122942Y181912
X112942Y181912
X102942Y181912
X92942Y181912
X82942Y181912
X72942Y181912
T03
X72292Y71243
X62292Y71243
X52292Y71243
X47292Y61243
X57292Y61243
X67292Y61243
X77292Y61243
X82292Y71243
X212646Y61243
X222646Y61243
X232646Y61243
X242646Y61243
X237646Y71243
X227646Y71243
X217646Y71243
X247646Y71243
X344753Y73428
X354753Y68428
X344753Y63428
X354753Y58428
X344753Y53428
X354753Y48428
X344753Y43428
X354753Y38428
X354753Y109294
X344753Y114294
X354753Y119294
X344753Y124294
X354753Y129294
X344753Y134294
X354753Y139294
X344753Y144294
X348946Y166597
X338946Y166597
X328946Y166597
X318946Y166597
X323946Y176597
X333946Y176597
X343946Y176597
X353946Y176597
T04
X273050Y177384
X273050Y163605
T05
X319300Y155494
X329300Y155494
X329300Y130494
X319300Y130494
X319300Y50494
X329300Y50494
X79300Y91744
X69300Y91744
T06
X21485Y95613
X21485Y105613
X21485Y119668
X21485Y129668
X21485Y139668
X21485Y149668
X21485Y85613
X21485Y75613
X21485Y65613
X21485Y55613
X21485Y45613
X219300Y150494
X229300Y150494
X239300Y150494
X239300Y160494
X229300Y160494
X219300Y160494
X222272Y181912
X212272Y181912
X232272Y181912
X329300Y115494
X329300Y105494
X329300Y95494
X329300Y85494
X329300Y75494
X329300Y65494
X273454Y65613
X273454Y75613
X273454Y85613
X273454Y95613
X273454Y105613
X273454Y55613
X273454Y45613
T07
X184871Y41164
X171091Y41164
X157312Y41164
X133769Y41164
X119989Y41164
X129753Y196676
X143532Y196676
X157312Y196676
X171091Y196676
X184871Y196676
X208493Y196676
X222272Y196676
X236052Y196676
X106131Y196676
X92351Y196676
X78572Y196676
X64792Y196676
X51013Y196676
T08
X13611Y32306
X281328Y32306
X312824Y32306
X281328Y205534
X383690Y205534
X13611Y205534
T09
X42292Y36243
X87292Y36243
X207646Y36243
X252646Y36243
X379753Y33428
X379753Y78428
X379753Y104294
X379753Y149294
X358946Y201597
X313946Y201597
M30
