G75*
%MOIN*%
%OFA0B0*%
%FSLAX25Y25*%
%IPPOS*%
%LPD*%
%AMOC8*
5,1,8,0,0,1.08239X$1,22.5*
%
%ADD10C,0.00000*%
%ADD11R,0.06992X0.00583*%
%ADD12R,0.11071X0.00583*%
%ADD13R,0.09906X0.00583*%
%ADD14R,0.10488X0.00583*%
%ADD15R,0.11654X0.00583*%
%ADD16R,0.12236X0.00583*%
%ADD17R,0.13402X0.00583*%
%ADD18R,0.13984X0.00583*%
%ADD19R,0.12819X0.00583*%
%ADD20R,0.14567X0.00583*%
%ADD21R,0.15150X0.00583*%
%ADD22R,0.30299X0.00583*%
%ADD23R,0.30882X0.00583*%
%ADD24R,0.31465X0.00583*%
%ADD25R,0.15732X0.00583*%
%ADD26R,0.16315X0.00583*%
%ADD27R,0.39622X0.00583*%
%ADD28R,0.41953X0.00583*%
%ADD29R,0.44283X0.00583*%
%ADD30R,0.16898X0.00583*%
%ADD31R,0.44866X0.00583*%
%ADD32R,0.46031X0.00583*%
%ADD33R,0.47197X0.00583*%
%ADD34R,0.17480X0.00583*%
%ADD35R,0.47780X0.00583*%
%ADD36R,0.18063X0.00583*%
%ADD37R,0.18646X0.00583*%
%ADD38R,0.34961X0.00583*%
%ADD39R,0.00583X0.00583*%
%ADD40R,0.08157X0.00583*%
%ADD41R,0.02913X0.00583*%
%ADD42R,0.19228X0.00583*%
%ADD43R,0.05244X0.00583*%
%ADD44R,0.04079X0.00583*%
%ADD45R,0.34378X0.00583*%
%ADD46R,0.01748X0.00583*%
%ADD47R,0.20394X0.00583*%
%ADD48R,0.29717X0.00583*%
%ADD49R,0.04661X0.00583*%
%ADD50R,0.29134X0.00583*%
%ADD51R,0.06409X0.00583*%
%ADD52R,0.28551X0.00583*%
%ADD53R,0.20976X0.00583*%
%ADD54R,0.27969X0.00583*%
%ADD55R,0.27386X0.00583*%
%ADD56R,0.26803X0.00583*%
%ADD57R,0.08740X0.00583*%
%ADD58R,0.21559X0.00583*%
%ADD59R,0.26220X0.00583*%
%ADD60R,0.09323X0.00583*%
%ADD61R,0.25055X0.00583*%
%ADD62R,0.24472X0.00583*%
%ADD63R,0.57685X0.00583*%
%ADD64R,0.23307X0.00583*%
%ADD65R,0.58268X0.00583*%
%ADD66R,0.22142X0.00583*%
%ADD67R,0.58850X0.00583*%
%ADD68R,0.59433X0.00583*%
%ADD69R,0.19811X0.00583*%
%ADD70R,0.60016X0.00583*%
%ADD71R,0.01165X0.00583*%
%ADD72R,0.55937X0.00583*%
%ADD73R,0.02331X0.00583*%
%ADD74R,0.43118X0.00583*%
%ADD75R,0.22724X0.00583*%
%ADD76R,0.05827X0.00583*%
%ADD77R,0.41370X0.00583*%
%ADD78R,0.40787X0.00583*%
%ADD79R,0.39039X0.00583*%
%ADD80R,0.37874X0.00583*%
%ADD81R,0.36709X0.00583*%
%ADD82R,0.36126X0.00583*%
%ADD83R,0.33213X0.00583*%
%ADD84R,0.32630X0.00583*%
%ADD85R,0.32047X0.00583*%
%ADD86R,0.38457X0.00583*%
%ADD87R,0.57102X0.00583*%
%ADD88R,0.25638X0.00583*%
%ADD89R,0.23890X0.00583*%
%ADD90R,0.60598X0.00583*%
%ADD91R,0.03496X0.00583*%
%ADD92R,0.07575X0.00583*%
%ADD93R,0.45449X0.00583*%
%ADD94R,0.33795X0.00583*%
%ADD95R,0.40205X0.00583*%
%ADD96R,0.42535X0.00583*%
%ADD97R,0.46614X0.00583*%
%ADD98R,0.48945X0.00583*%
%ADD99R,0.51858X0.00583*%
%ADD100R,0.56520X0.00583*%
%ADD101R,0.55354X0.00583*%
%ADD102R,0.54772X0.00583*%
%ADD103R,0.54189X0.00583*%
%ADD104R,0.53024X0.00583*%
%ADD105R,0.52441X0.00583*%
%ADD106R,0.51276X0.00583*%
%ADD107R,0.50110X0.00583*%
%ADD108R,0.49528X0.00583*%
%ADD109R,0.67591X0.00583*%
%ADD110R,0.65260X0.00583*%
%ADD111R,0.62929X0.00583*%
%ADD112C,0.00600*%
%ADD113R,0.05512X0.02559*%
%ADD114C,0.00400*%
D10*
X0013611Y0020494D02*
X0281328Y0020494D01*
X0281328Y0020495D02*
X0281613Y0020498D01*
X0281899Y0020509D01*
X0282184Y0020526D01*
X0282468Y0020550D01*
X0282752Y0020581D01*
X0283035Y0020619D01*
X0283316Y0020664D01*
X0283597Y0020715D01*
X0283877Y0020773D01*
X0284155Y0020838D01*
X0284431Y0020910D01*
X0284705Y0020988D01*
X0284978Y0021073D01*
X0285248Y0021165D01*
X0285516Y0021263D01*
X0285782Y0021367D01*
X0286045Y0021478D01*
X0286305Y0021595D01*
X0286563Y0021718D01*
X0286817Y0021848D01*
X0287068Y0021984D01*
X0287316Y0022125D01*
X0287560Y0022273D01*
X0287801Y0022426D01*
X0288037Y0022586D01*
X0288270Y0022751D01*
X0288499Y0022921D01*
X0288724Y0023097D01*
X0288944Y0023279D01*
X0289160Y0023465D01*
X0289371Y0023657D01*
X0289578Y0023854D01*
X0289780Y0024056D01*
X0289977Y0024263D01*
X0290169Y0024474D01*
X0290355Y0024690D01*
X0290537Y0024910D01*
X0290713Y0025135D01*
X0290883Y0025364D01*
X0291048Y0025597D01*
X0291208Y0025833D01*
X0291361Y0026074D01*
X0291509Y0026318D01*
X0291650Y0026566D01*
X0291786Y0026817D01*
X0291916Y0027071D01*
X0292039Y0027329D01*
X0292156Y0027589D01*
X0292267Y0027852D01*
X0292371Y0028118D01*
X0292469Y0028386D01*
X0292561Y0028656D01*
X0292646Y0028929D01*
X0292724Y0029203D01*
X0292796Y0029479D01*
X0292861Y0029757D01*
X0292919Y0030037D01*
X0292970Y0030318D01*
X0293015Y0030599D01*
X0293053Y0030882D01*
X0293084Y0031166D01*
X0293108Y0031450D01*
X0293125Y0031735D01*
X0293136Y0032021D01*
X0293139Y0032306D01*
X0293139Y0036243D01*
X0297076Y0040180D02*
X0297200Y0040178D01*
X0297323Y0040172D01*
X0297447Y0040163D01*
X0297569Y0040149D01*
X0297692Y0040132D01*
X0297814Y0040110D01*
X0297935Y0040085D01*
X0298055Y0040056D01*
X0298174Y0040024D01*
X0298293Y0039987D01*
X0298410Y0039947D01*
X0298525Y0039904D01*
X0298640Y0039856D01*
X0298752Y0039805D01*
X0298863Y0039751D01*
X0298973Y0039693D01*
X0299080Y0039632D01*
X0299186Y0039567D01*
X0299289Y0039499D01*
X0299390Y0039428D01*
X0299489Y0039354D01*
X0299586Y0039277D01*
X0299680Y0039196D01*
X0299771Y0039113D01*
X0299860Y0039027D01*
X0299946Y0038938D01*
X0300029Y0038847D01*
X0300110Y0038753D01*
X0300187Y0038656D01*
X0300261Y0038557D01*
X0300332Y0038456D01*
X0300400Y0038353D01*
X0300465Y0038247D01*
X0300526Y0038140D01*
X0300584Y0038030D01*
X0300638Y0037919D01*
X0300689Y0037807D01*
X0300737Y0037692D01*
X0300780Y0037577D01*
X0300820Y0037460D01*
X0300857Y0037341D01*
X0300889Y0037222D01*
X0300918Y0037102D01*
X0300943Y0036981D01*
X0300965Y0036859D01*
X0300982Y0036736D01*
X0300996Y0036614D01*
X0301005Y0036490D01*
X0301011Y0036367D01*
X0301013Y0036243D01*
X0301013Y0032306D01*
X0297076Y0040180D02*
X0296952Y0040178D01*
X0296829Y0040172D01*
X0296705Y0040163D01*
X0296583Y0040149D01*
X0296460Y0040132D01*
X0296338Y0040110D01*
X0296217Y0040085D01*
X0296097Y0040056D01*
X0295978Y0040024D01*
X0295859Y0039987D01*
X0295742Y0039947D01*
X0295627Y0039904D01*
X0295512Y0039856D01*
X0295400Y0039805D01*
X0295289Y0039751D01*
X0295179Y0039693D01*
X0295072Y0039632D01*
X0294966Y0039567D01*
X0294863Y0039499D01*
X0294762Y0039428D01*
X0294663Y0039354D01*
X0294566Y0039277D01*
X0294472Y0039196D01*
X0294381Y0039113D01*
X0294292Y0039027D01*
X0294206Y0038938D01*
X0294123Y0038847D01*
X0294042Y0038753D01*
X0293965Y0038656D01*
X0293891Y0038557D01*
X0293820Y0038456D01*
X0293752Y0038353D01*
X0293687Y0038247D01*
X0293626Y0038140D01*
X0293568Y0038030D01*
X0293514Y0037919D01*
X0293463Y0037807D01*
X0293415Y0037692D01*
X0293372Y0037577D01*
X0293332Y0037460D01*
X0293295Y0037341D01*
X0293263Y0037222D01*
X0293234Y0037102D01*
X0293209Y0036981D01*
X0293187Y0036859D01*
X0293170Y0036736D01*
X0293156Y0036614D01*
X0293147Y0036490D01*
X0293141Y0036367D01*
X0293139Y0036243D01*
X0292942Y0042148D02*
X0292944Y0042217D01*
X0292950Y0042285D01*
X0292960Y0042353D01*
X0292974Y0042420D01*
X0292992Y0042487D01*
X0293013Y0042552D01*
X0293039Y0042616D01*
X0293068Y0042678D01*
X0293100Y0042738D01*
X0293136Y0042797D01*
X0293176Y0042853D01*
X0293218Y0042907D01*
X0293264Y0042958D01*
X0293313Y0043007D01*
X0293364Y0043053D01*
X0293418Y0043095D01*
X0293474Y0043135D01*
X0293532Y0043171D01*
X0293593Y0043203D01*
X0293655Y0043232D01*
X0293719Y0043258D01*
X0293784Y0043279D01*
X0293851Y0043297D01*
X0293918Y0043311D01*
X0293986Y0043321D01*
X0294054Y0043327D01*
X0294123Y0043329D01*
X0294192Y0043327D01*
X0294260Y0043321D01*
X0294328Y0043311D01*
X0294395Y0043297D01*
X0294462Y0043279D01*
X0294527Y0043258D01*
X0294591Y0043232D01*
X0294653Y0043203D01*
X0294713Y0043171D01*
X0294772Y0043135D01*
X0294828Y0043095D01*
X0294882Y0043053D01*
X0294933Y0043007D01*
X0294982Y0042958D01*
X0295028Y0042907D01*
X0295070Y0042853D01*
X0295110Y0042797D01*
X0295146Y0042738D01*
X0295178Y0042678D01*
X0295207Y0042616D01*
X0295233Y0042552D01*
X0295254Y0042487D01*
X0295272Y0042420D01*
X0295286Y0042353D01*
X0295296Y0042285D01*
X0295302Y0042217D01*
X0295304Y0042148D01*
X0295302Y0042079D01*
X0295296Y0042011D01*
X0295286Y0041943D01*
X0295272Y0041876D01*
X0295254Y0041809D01*
X0295233Y0041744D01*
X0295207Y0041680D01*
X0295178Y0041618D01*
X0295146Y0041557D01*
X0295110Y0041499D01*
X0295070Y0041443D01*
X0295028Y0041389D01*
X0294982Y0041338D01*
X0294933Y0041289D01*
X0294882Y0041243D01*
X0294828Y0041201D01*
X0294772Y0041161D01*
X0294714Y0041125D01*
X0294653Y0041093D01*
X0294591Y0041064D01*
X0294527Y0041038D01*
X0294462Y0041017D01*
X0294395Y0040999D01*
X0294328Y0040985D01*
X0294260Y0040975D01*
X0294192Y0040969D01*
X0294123Y0040967D01*
X0294054Y0040969D01*
X0293986Y0040975D01*
X0293918Y0040985D01*
X0293851Y0040999D01*
X0293784Y0041017D01*
X0293719Y0041038D01*
X0293655Y0041064D01*
X0293593Y0041093D01*
X0293532Y0041125D01*
X0293474Y0041161D01*
X0293418Y0041201D01*
X0293364Y0041243D01*
X0293313Y0041289D01*
X0293264Y0041338D01*
X0293218Y0041389D01*
X0293176Y0041443D01*
X0293136Y0041499D01*
X0293100Y0041557D01*
X0293068Y0041618D01*
X0293039Y0041680D01*
X0293013Y0041744D01*
X0292992Y0041809D01*
X0292974Y0041876D01*
X0292960Y0041943D01*
X0292950Y0042011D01*
X0292944Y0042079D01*
X0292942Y0042148D01*
X0298847Y0042148D02*
X0298849Y0042217D01*
X0298855Y0042285D01*
X0298865Y0042353D01*
X0298879Y0042420D01*
X0298897Y0042487D01*
X0298918Y0042552D01*
X0298944Y0042616D01*
X0298973Y0042678D01*
X0299005Y0042738D01*
X0299041Y0042797D01*
X0299081Y0042853D01*
X0299123Y0042907D01*
X0299169Y0042958D01*
X0299218Y0043007D01*
X0299269Y0043053D01*
X0299323Y0043095D01*
X0299379Y0043135D01*
X0299437Y0043171D01*
X0299498Y0043203D01*
X0299560Y0043232D01*
X0299624Y0043258D01*
X0299689Y0043279D01*
X0299756Y0043297D01*
X0299823Y0043311D01*
X0299891Y0043321D01*
X0299959Y0043327D01*
X0300028Y0043329D01*
X0300097Y0043327D01*
X0300165Y0043321D01*
X0300233Y0043311D01*
X0300300Y0043297D01*
X0300367Y0043279D01*
X0300432Y0043258D01*
X0300496Y0043232D01*
X0300558Y0043203D01*
X0300618Y0043171D01*
X0300677Y0043135D01*
X0300733Y0043095D01*
X0300787Y0043053D01*
X0300838Y0043007D01*
X0300887Y0042958D01*
X0300933Y0042907D01*
X0300975Y0042853D01*
X0301015Y0042797D01*
X0301051Y0042738D01*
X0301083Y0042678D01*
X0301112Y0042616D01*
X0301138Y0042552D01*
X0301159Y0042487D01*
X0301177Y0042420D01*
X0301191Y0042353D01*
X0301201Y0042285D01*
X0301207Y0042217D01*
X0301209Y0042148D01*
X0301207Y0042079D01*
X0301201Y0042011D01*
X0301191Y0041943D01*
X0301177Y0041876D01*
X0301159Y0041809D01*
X0301138Y0041744D01*
X0301112Y0041680D01*
X0301083Y0041618D01*
X0301051Y0041557D01*
X0301015Y0041499D01*
X0300975Y0041443D01*
X0300933Y0041389D01*
X0300887Y0041338D01*
X0300838Y0041289D01*
X0300787Y0041243D01*
X0300733Y0041201D01*
X0300677Y0041161D01*
X0300619Y0041125D01*
X0300558Y0041093D01*
X0300496Y0041064D01*
X0300432Y0041038D01*
X0300367Y0041017D01*
X0300300Y0040999D01*
X0300233Y0040985D01*
X0300165Y0040975D01*
X0300097Y0040969D01*
X0300028Y0040967D01*
X0299959Y0040969D01*
X0299891Y0040975D01*
X0299823Y0040985D01*
X0299756Y0040999D01*
X0299689Y0041017D01*
X0299624Y0041038D01*
X0299560Y0041064D01*
X0299498Y0041093D01*
X0299437Y0041125D01*
X0299379Y0041161D01*
X0299323Y0041201D01*
X0299269Y0041243D01*
X0299218Y0041289D01*
X0299169Y0041338D01*
X0299123Y0041389D01*
X0299081Y0041443D01*
X0299041Y0041499D01*
X0299005Y0041557D01*
X0298973Y0041618D01*
X0298944Y0041680D01*
X0298918Y0041744D01*
X0298897Y0041809D01*
X0298879Y0041876D01*
X0298865Y0041943D01*
X0298855Y0042011D01*
X0298849Y0042079D01*
X0298847Y0042148D01*
X0298847Y0046085D02*
X0298849Y0046154D01*
X0298855Y0046222D01*
X0298865Y0046290D01*
X0298879Y0046357D01*
X0298897Y0046424D01*
X0298918Y0046489D01*
X0298944Y0046553D01*
X0298973Y0046615D01*
X0299005Y0046675D01*
X0299041Y0046734D01*
X0299081Y0046790D01*
X0299123Y0046844D01*
X0299169Y0046895D01*
X0299218Y0046944D01*
X0299269Y0046990D01*
X0299323Y0047032D01*
X0299379Y0047072D01*
X0299437Y0047108D01*
X0299498Y0047140D01*
X0299560Y0047169D01*
X0299624Y0047195D01*
X0299689Y0047216D01*
X0299756Y0047234D01*
X0299823Y0047248D01*
X0299891Y0047258D01*
X0299959Y0047264D01*
X0300028Y0047266D01*
X0300097Y0047264D01*
X0300165Y0047258D01*
X0300233Y0047248D01*
X0300300Y0047234D01*
X0300367Y0047216D01*
X0300432Y0047195D01*
X0300496Y0047169D01*
X0300558Y0047140D01*
X0300618Y0047108D01*
X0300677Y0047072D01*
X0300733Y0047032D01*
X0300787Y0046990D01*
X0300838Y0046944D01*
X0300887Y0046895D01*
X0300933Y0046844D01*
X0300975Y0046790D01*
X0301015Y0046734D01*
X0301051Y0046675D01*
X0301083Y0046615D01*
X0301112Y0046553D01*
X0301138Y0046489D01*
X0301159Y0046424D01*
X0301177Y0046357D01*
X0301191Y0046290D01*
X0301201Y0046222D01*
X0301207Y0046154D01*
X0301209Y0046085D01*
X0301207Y0046016D01*
X0301201Y0045948D01*
X0301191Y0045880D01*
X0301177Y0045813D01*
X0301159Y0045746D01*
X0301138Y0045681D01*
X0301112Y0045617D01*
X0301083Y0045555D01*
X0301051Y0045494D01*
X0301015Y0045436D01*
X0300975Y0045380D01*
X0300933Y0045326D01*
X0300887Y0045275D01*
X0300838Y0045226D01*
X0300787Y0045180D01*
X0300733Y0045138D01*
X0300677Y0045098D01*
X0300619Y0045062D01*
X0300558Y0045030D01*
X0300496Y0045001D01*
X0300432Y0044975D01*
X0300367Y0044954D01*
X0300300Y0044936D01*
X0300233Y0044922D01*
X0300165Y0044912D01*
X0300097Y0044906D01*
X0300028Y0044904D01*
X0299959Y0044906D01*
X0299891Y0044912D01*
X0299823Y0044922D01*
X0299756Y0044936D01*
X0299689Y0044954D01*
X0299624Y0044975D01*
X0299560Y0045001D01*
X0299498Y0045030D01*
X0299437Y0045062D01*
X0299379Y0045098D01*
X0299323Y0045138D01*
X0299269Y0045180D01*
X0299218Y0045226D01*
X0299169Y0045275D01*
X0299123Y0045326D01*
X0299081Y0045380D01*
X0299041Y0045436D01*
X0299005Y0045494D01*
X0298973Y0045555D01*
X0298944Y0045617D01*
X0298918Y0045681D01*
X0298897Y0045746D01*
X0298879Y0045813D01*
X0298865Y0045880D01*
X0298855Y0045948D01*
X0298849Y0046016D01*
X0298847Y0046085D01*
X0292942Y0046085D02*
X0292944Y0046154D01*
X0292950Y0046222D01*
X0292960Y0046290D01*
X0292974Y0046357D01*
X0292992Y0046424D01*
X0293013Y0046489D01*
X0293039Y0046553D01*
X0293068Y0046615D01*
X0293100Y0046675D01*
X0293136Y0046734D01*
X0293176Y0046790D01*
X0293218Y0046844D01*
X0293264Y0046895D01*
X0293313Y0046944D01*
X0293364Y0046990D01*
X0293418Y0047032D01*
X0293474Y0047072D01*
X0293532Y0047108D01*
X0293593Y0047140D01*
X0293655Y0047169D01*
X0293719Y0047195D01*
X0293784Y0047216D01*
X0293851Y0047234D01*
X0293918Y0047248D01*
X0293986Y0047258D01*
X0294054Y0047264D01*
X0294123Y0047266D01*
X0294192Y0047264D01*
X0294260Y0047258D01*
X0294328Y0047248D01*
X0294395Y0047234D01*
X0294462Y0047216D01*
X0294527Y0047195D01*
X0294591Y0047169D01*
X0294653Y0047140D01*
X0294713Y0047108D01*
X0294772Y0047072D01*
X0294828Y0047032D01*
X0294882Y0046990D01*
X0294933Y0046944D01*
X0294982Y0046895D01*
X0295028Y0046844D01*
X0295070Y0046790D01*
X0295110Y0046734D01*
X0295146Y0046675D01*
X0295178Y0046615D01*
X0295207Y0046553D01*
X0295233Y0046489D01*
X0295254Y0046424D01*
X0295272Y0046357D01*
X0295286Y0046290D01*
X0295296Y0046222D01*
X0295302Y0046154D01*
X0295304Y0046085D01*
X0295302Y0046016D01*
X0295296Y0045948D01*
X0295286Y0045880D01*
X0295272Y0045813D01*
X0295254Y0045746D01*
X0295233Y0045681D01*
X0295207Y0045617D01*
X0295178Y0045555D01*
X0295146Y0045494D01*
X0295110Y0045436D01*
X0295070Y0045380D01*
X0295028Y0045326D01*
X0294982Y0045275D01*
X0294933Y0045226D01*
X0294882Y0045180D01*
X0294828Y0045138D01*
X0294772Y0045098D01*
X0294714Y0045062D01*
X0294653Y0045030D01*
X0294591Y0045001D01*
X0294527Y0044975D01*
X0294462Y0044954D01*
X0294395Y0044936D01*
X0294328Y0044922D01*
X0294260Y0044912D01*
X0294192Y0044906D01*
X0294123Y0044904D01*
X0294054Y0044906D01*
X0293986Y0044912D01*
X0293918Y0044922D01*
X0293851Y0044936D01*
X0293784Y0044954D01*
X0293719Y0044975D01*
X0293655Y0045001D01*
X0293593Y0045030D01*
X0293532Y0045062D01*
X0293474Y0045098D01*
X0293418Y0045138D01*
X0293364Y0045180D01*
X0293313Y0045226D01*
X0293264Y0045275D01*
X0293218Y0045326D01*
X0293176Y0045380D01*
X0293136Y0045436D01*
X0293100Y0045494D01*
X0293068Y0045555D01*
X0293039Y0045617D01*
X0293013Y0045681D01*
X0292992Y0045746D01*
X0292974Y0045813D01*
X0292960Y0045880D01*
X0292950Y0045948D01*
X0292944Y0046016D01*
X0292942Y0046085D01*
X0293139Y0051991D02*
X0293139Y0185849D01*
X0293141Y0185973D01*
X0293147Y0186096D01*
X0293156Y0186220D01*
X0293170Y0186342D01*
X0293187Y0186465D01*
X0293209Y0186587D01*
X0293234Y0186708D01*
X0293263Y0186828D01*
X0293295Y0186947D01*
X0293332Y0187066D01*
X0293372Y0187183D01*
X0293415Y0187298D01*
X0293463Y0187413D01*
X0293514Y0187525D01*
X0293568Y0187636D01*
X0293626Y0187746D01*
X0293687Y0187853D01*
X0293752Y0187959D01*
X0293820Y0188062D01*
X0293891Y0188163D01*
X0293965Y0188262D01*
X0294042Y0188359D01*
X0294123Y0188453D01*
X0294206Y0188544D01*
X0294292Y0188633D01*
X0294381Y0188719D01*
X0294472Y0188802D01*
X0294566Y0188883D01*
X0294663Y0188960D01*
X0294762Y0189034D01*
X0294863Y0189105D01*
X0294966Y0189173D01*
X0295072Y0189238D01*
X0295179Y0189299D01*
X0295289Y0189357D01*
X0295400Y0189411D01*
X0295512Y0189462D01*
X0295627Y0189510D01*
X0295742Y0189553D01*
X0295859Y0189593D01*
X0295978Y0189630D01*
X0296097Y0189662D01*
X0296217Y0189691D01*
X0296338Y0189716D01*
X0296460Y0189738D01*
X0296583Y0189755D01*
X0296705Y0189769D01*
X0296829Y0189778D01*
X0296952Y0189784D01*
X0297076Y0189786D01*
X0298847Y0191754D02*
X0298849Y0191823D01*
X0298855Y0191891D01*
X0298865Y0191959D01*
X0298879Y0192026D01*
X0298897Y0192093D01*
X0298918Y0192158D01*
X0298944Y0192222D01*
X0298973Y0192284D01*
X0299005Y0192344D01*
X0299041Y0192403D01*
X0299081Y0192459D01*
X0299123Y0192513D01*
X0299169Y0192564D01*
X0299218Y0192613D01*
X0299269Y0192659D01*
X0299323Y0192701D01*
X0299379Y0192741D01*
X0299437Y0192777D01*
X0299498Y0192809D01*
X0299560Y0192838D01*
X0299624Y0192864D01*
X0299689Y0192885D01*
X0299756Y0192903D01*
X0299823Y0192917D01*
X0299891Y0192927D01*
X0299959Y0192933D01*
X0300028Y0192935D01*
X0300097Y0192933D01*
X0300165Y0192927D01*
X0300233Y0192917D01*
X0300300Y0192903D01*
X0300367Y0192885D01*
X0300432Y0192864D01*
X0300496Y0192838D01*
X0300558Y0192809D01*
X0300618Y0192777D01*
X0300677Y0192741D01*
X0300733Y0192701D01*
X0300787Y0192659D01*
X0300838Y0192613D01*
X0300887Y0192564D01*
X0300933Y0192513D01*
X0300975Y0192459D01*
X0301015Y0192403D01*
X0301051Y0192344D01*
X0301083Y0192284D01*
X0301112Y0192222D01*
X0301138Y0192158D01*
X0301159Y0192093D01*
X0301177Y0192026D01*
X0301191Y0191959D01*
X0301201Y0191891D01*
X0301207Y0191823D01*
X0301209Y0191754D01*
X0301207Y0191685D01*
X0301201Y0191617D01*
X0301191Y0191549D01*
X0301177Y0191482D01*
X0301159Y0191415D01*
X0301138Y0191350D01*
X0301112Y0191286D01*
X0301083Y0191224D01*
X0301051Y0191163D01*
X0301015Y0191105D01*
X0300975Y0191049D01*
X0300933Y0190995D01*
X0300887Y0190944D01*
X0300838Y0190895D01*
X0300787Y0190849D01*
X0300733Y0190807D01*
X0300677Y0190767D01*
X0300619Y0190731D01*
X0300558Y0190699D01*
X0300496Y0190670D01*
X0300432Y0190644D01*
X0300367Y0190623D01*
X0300300Y0190605D01*
X0300233Y0190591D01*
X0300165Y0190581D01*
X0300097Y0190575D01*
X0300028Y0190573D01*
X0299959Y0190575D01*
X0299891Y0190581D01*
X0299823Y0190591D01*
X0299756Y0190605D01*
X0299689Y0190623D01*
X0299624Y0190644D01*
X0299560Y0190670D01*
X0299498Y0190699D01*
X0299437Y0190731D01*
X0299379Y0190767D01*
X0299323Y0190807D01*
X0299269Y0190849D01*
X0299218Y0190895D01*
X0299169Y0190944D01*
X0299123Y0190995D01*
X0299081Y0191049D01*
X0299041Y0191105D01*
X0299005Y0191163D01*
X0298973Y0191224D01*
X0298944Y0191286D01*
X0298918Y0191350D01*
X0298897Y0191415D01*
X0298879Y0191482D01*
X0298865Y0191549D01*
X0298855Y0191617D01*
X0298849Y0191685D01*
X0298847Y0191754D01*
X0292942Y0191754D02*
X0292944Y0191823D01*
X0292950Y0191891D01*
X0292960Y0191959D01*
X0292974Y0192026D01*
X0292992Y0192093D01*
X0293013Y0192158D01*
X0293039Y0192222D01*
X0293068Y0192284D01*
X0293100Y0192344D01*
X0293136Y0192403D01*
X0293176Y0192459D01*
X0293218Y0192513D01*
X0293264Y0192564D01*
X0293313Y0192613D01*
X0293364Y0192659D01*
X0293418Y0192701D01*
X0293474Y0192741D01*
X0293532Y0192777D01*
X0293593Y0192809D01*
X0293655Y0192838D01*
X0293719Y0192864D01*
X0293784Y0192885D01*
X0293851Y0192903D01*
X0293918Y0192917D01*
X0293986Y0192927D01*
X0294054Y0192933D01*
X0294123Y0192935D01*
X0294192Y0192933D01*
X0294260Y0192927D01*
X0294328Y0192917D01*
X0294395Y0192903D01*
X0294462Y0192885D01*
X0294527Y0192864D01*
X0294591Y0192838D01*
X0294653Y0192809D01*
X0294713Y0192777D01*
X0294772Y0192741D01*
X0294828Y0192701D01*
X0294882Y0192659D01*
X0294933Y0192613D01*
X0294982Y0192564D01*
X0295028Y0192513D01*
X0295070Y0192459D01*
X0295110Y0192403D01*
X0295146Y0192344D01*
X0295178Y0192284D01*
X0295207Y0192222D01*
X0295233Y0192158D01*
X0295254Y0192093D01*
X0295272Y0192026D01*
X0295286Y0191959D01*
X0295296Y0191891D01*
X0295302Y0191823D01*
X0295304Y0191754D01*
X0295302Y0191685D01*
X0295296Y0191617D01*
X0295286Y0191549D01*
X0295272Y0191482D01*
X0295254Y0191415D01*
X0295233Y0191350D01*
X0295207Y0191286D01*
X0295178Y0191224D01*
X0295146Y0191163D01*
X0295110Y0191105D01*
X0295070Y0191049D01*
X0295028Y0190995D01*
X0294982Y0190944D01*
X0294933Y0190895D01*
X0294882Y0190849D01*
X0294828Y0190807D01*
X0294772Y0190767D01*
X0294714Y0190731D01*
X0294653Y0190699D01*
X0294591Y0190670D01*
X0294527Y0190644D01*
X0294462Y0190623D01*
X0294395Y0190605D01*
X0294328Y0190591D01*
X0294260Y0190581D01*
X0294192Y0190575D01*
X0294123Y0190573D01*
X0294054Y0190575D01*
X0293986Y0190581D01*
X0293918Y0190591D01*
X0293851Y0190605D01*
X0293784Y0190623D01*
X0293719Y0190644D01*
X0293655Y0190670D01*
X0293593Y0190699D01*
X0293532Y0190731D01*
X0293474Y0190767D01*
X0293418Y0190807D01*
X0293364Y0190849D01*
X0293313Y0190895D01*
X0293264Y0190944D01*
X0293218Y0190995D01*
X0293176Y0191049D01*
X0293136Y0191105D01*
X0293100Y0191163D01*
X0293068Y0191224D01*
X0293039Y0191286D01*
X0293013Y0191350D01*
X0292992Y0191415D01*
X0292974Y0191482D01*
X0292960Y0191549D01*
X0292950Y0191617D01*
X0292944Y0191685D01*
X0292942Y0191754D01*
X0292942Y0195691D02*
X0292944Y0195760D01*
X0292950Y0195828D01*
X0292960Y0195896D01*
X0292974Y0195963D01*
X0292992Y0196030D01*
X0293013Y0196095D01*
X0293039Y0196159D01*
X0293068Y0196221D01*
X0293100Y0196281D01*
X0293136Y0196340D01*
X0293176Y0196396D01*
X0293218Y0196450D01*
X0293264Y0196501D01*
X0293313Y0196550D01*
X0293364Y0196596D01*
X0293418Y0196638D01*
X0293474Y0196678D01*
X0293532Y0196714D01*
X0293593Y0196746D01*
X0293655Y0196775D01*
X0293719Y0196801D01*
X0293784Y0196822D01*
X0293851Y0196840D01*
X0293918Y0196854D01*
X0293986Y0196864D01*
X0294054Y0196870D01*
X0294123Y0196872D01*
X0294192Y0196870D01*
X0294260Y0196864D01*
X0294328Y0196854D01*
X0294395Y0196840D01*
X0294462Y0196822D01*
X0294527Y0196801D01*
X0294591Y0196775D01*
X0294653Y0196746D01*
X0294713Y0196714D01*
X0294772Y0196678D01*
X0294828Y0196638D01*
X0294882Y0196596D01*
X0294933Y0196550D01*
X0294982Y0196501D01*
X0295028Y0196450D01*
X0295070Y0196396D01*
X0295110Y0196340D01*
X0295146Y0196281D01*
X0295178Y0196221D01*
X0295207Y0196159D01*
X0295233Y0196095D01*
X0295254Y0196030D01*
X0295272Y0195963D01*
X0295286Y0195896D01*
X0295296Y0195828D01*
X0295302Y0195760D01*
X0295304Y0195691D01*
X0295302Y0195622D01*
X0295296Y0195554D01*
X0295286Y0195486D01*
X0295272Y0195419D01*
X0295254Y0195352D01*
X0295233Y0195287D01*
X0295207Y0195223D01*
X0295178Y0195161D01*
X0295146Y0195100D01*
X0295110Y0195042D01*
X0295070Y0194986D01*
X0295028Y0194932D01*
X0294982Y0194881D01*
X0294933Y0194832D01*
X0294882Y0194786D01*
X0294828Y0194744D01*
X0294772Y0194704D01*
X0294714Y0194668D01*
X0294653Y0194636D01*
X0294591Y0194607D01*
X0294527Y0194581D01*
X0294462Y0194560D01*
X0294395Y0194542D01*
X0294328Y0194528D01*
X0294260Y0194518D01*
X0294192Y0194512D01*
X0294123Y0194510D01*
X0294054Y0194512D01*
X0293986Y0194518D01*
X0293918Y0194528D01*
X0293851Y0194542D01*
X0293784Y0194560D01*
X0293719Y0194581D01*
X0293655Y0194607D01*
X0293593Y0194636D01*
X0293532Y0194668D01*
X0293474Y0194704D01*
X0293418Y0194744D01*
X0293364Y0194786D01*
X0293313Y0194832D01*
X0293264Y0194881D01*
X0293218Y0194932D01*
X0293176Y0194986D01*
X0293136Y0195042D01*
X0293100Y0195100D01*
X0293068Y0195161D01*
X0293039Y0195223D01*
X0293013Y0195287D01*
X0292992Y0195352D01*
X0292974Y0195419D01*
X0292960Y0195486D01*
X0292950Y0195554D01*
X0292944Y0195622D01*
X0292942Y0195691D01*
X0298847Y0195691D02*
X0298849Y0195760D01*
X0298855Y0195828D01*
X0298865Y0195896D01*
X0298879Y0195963D01*
X0298897Y0196030D01*
X0298918Y0196095D01*
X0298944Y0196159D01*
X0298973Y0196221D01*
X0299005Y0196281D01*
X0299041Y0196340D01*
X0299081Y0196396D01*
X0299123Y0196450D01*
X0299169Y0196501D01*
X0299218Y0196550D01*
X0299269Y0196596D01*
X0299323Y0196638D01*
X0299379Y0196678D01*
X0299437Y0196714D01*
X0299498Y0196746D01*
X0299560Y0196775D01*
X0299624Y0196801D01*
X0299689Y0196822D01*
X0299756Y0196840D01*
X0299823Y0196854D01*
X0299891Y0196864D01*
X0299959Y0196870D01*
X0300028Y0196872D01*
X0300097Y0196870D01*
X0300165Y0196864D01*
X0300233Y0196854D01*
X0300300Y0196840D01*
X0300367Y0196822D01*
X0300432Y0196801D01*
X0300496Y0196775D01*
X0300558Y0196746D01*
X0300618Y0196714D01*
X0300677Y0196678D01*
X0300733Y0196638D01*
X0300787Y0196596D01*
X0300838Y0196550D01*
X0300887Y0196501D01*
X0300933Y0196450D01*
X0300975Y0196396D01*
X0301015Y0196340D01*
X0301051Y0196281D01*
X0301083Y0196221D01*
X0301112Y0196159D01*
X0301138Y0196095D01*
X0301159Y0196030D01*
X0301177Y0195963D01*
X0301191Y0195896D01*
X0301201Y0195828D01*
X0301207Y0195760D01*
X0301209Y0195691D01*
X0301207Y0195622D01*
X0301201Y0195554D01*
X0301191Y0195486D01*
X0301177Y0195419D01*
X0301159Y0195352D01*
X0301138Y0195287D01*
X0301112Y0195223D01*
X0301083Y0195161D01*
X0301051Y0195100D01*
X0301015Y0195042D01*
X0300975Y0194986D01*
X0300933Y0194932D01*
X0300887Y0194881D01*
X0300838Y0194832D01*
X0300787Y0194786D01*
X0300733Y0194744D01*
X0300677Y0194704D01*
X0300619Y0194668D01*
X0300558Y0194636D01*
X0300496Y0194607D01*
X0300432Y0194581D01*
X0300367Y0194560D01*
X0300300Y0194542D01*
X0300233Y0194528D01*
X0300165Y0194518D01*
X0300097Y0194512D01*
X0300028Y0194510D01*
X0299959Y0194512D01*
X0299891Y0194518D01*
X0299823Y0194528D01*
X0299756Y0194542D01*
X0299689Y0194560D01*
X0299624Y0194581D01*
X0299560Y0194607D01*
X0299498Y0194636D01*
X0299437Y0194668D01*
X0299379Y0194704D01*
X0299323Y0194744D01*
X0299269Y0194786D01*
X0299218Y0194832D01*
X0299169Y0194881D01*
X0299123Y0194932D01*
X0299081Y0194986D01*
X0299041Y0195042D01*
X0299005Y0195100D01*
X0298973Y0195161D01*
X0298944Y0195223D01*
X0298918Y0195287D01*
X0298897Y0195352D01*
X0298879Y0195419D01*
X0298865Y0195486D01*
X0298855Y0195554D01*
X0298849Y0195622D01*
X0298847Y0195691D01*
X0297076Y0197660D02*
X0297200Y0197662D01*
X0297323Y0197668D01*
X0297447Y0197677D01*
X0297569Y0197691D01*
X0297692Y0197708D01*
X0297814Y0197730D01*
X0297935Y0197755D01*
X0298055Y0197784D01*
X0298174Y0197816D01*
X0298293Y0197853D01*
X0298410Y0197893D01*
X0298525Y0197936D01*
X0298640Y0197984D01*
X0298752Y0198035D01*
X0298863Y0198089D01*
X0298973Y0198147D01*
X0299080Y0198208D01*
X0299186Y0198273D01*
X0299289Y0198341D01*
X0299390Y0198412D01*
X0299489Y0198486D01*
X0299586Y0198563D01*
X0299680Y0198644D01*
X0299771Y0198727D01*
X0299860Y0198813D01*
X0299946Y0198902D01*
X0300029Y0198993D01*
X0300110Y0199087D01*
X0300187Y0199184D01*
X0300261Y0199283D01*
X0300332Y0199384D01*
X0300400Y0199487D01*
X0300465Y0199593D01*
X0300526Y0199700D01*
X0300584Y0199810D01*
X0300638Y0199921D01*
X0300689Y0200033D01*
X0300737Y0200148D01*
X0300780Y0200263D01*
X0300820Y0200380D01*
X0300857Y0200499D01*
X0300889Y0200618D01*
X0300918Y0200738D01*
X0300943Y0200859D01*
X0300965Y0200981D01*
X0300982Y0201104D01*
X0300996Y0201226D01*
X0301005Y0201350D01*
X0301011Y0201473D01*
X0301013Y0201597D01*
X0301013Y0205534D01*
X0293139Y0201597D02*
X0293141Y0201473D01*
X0293147Y0201350D01*
X0293156Y0201226D01*
X0293170Y0201104D01*
X0293187Y0200981D01*
X0293209Y0200859D01*
X0293234Y0200738D01*
X0293263Y0200618D01*
X0293295Y0200499D01*
X0293332Y0200380D01*
X0293372Y0200263D01*
X0293415Y0200148D01*
X0293463Y0200033D01*
X0293514Y0199921D01*
X0293568Y0199810D01*
X0293626Y0199700D01*
X0293687Y0199593D01*
X0293752Y0199487D01*
X0293820Y0199384D01*
X0293891Y0199283D01*
X0293965Y0199184D01*
X0294042Y0199087D01*
X0294123Y0198993D01*
X0294206Y0198902D01*
X0294292Y0198813D01*
X0294381Y0198727D01*
X0294472Y0198644D01*
X0294566Y0198563D01*
X0294663Y0198486D01*
X0294762Y0198412D01*
X0294863Y0198341D01*
X0294966Y0198273D01*
X0295072Y0198208D01*
X0295179Y0198147D01*
X0295289Y0198089D01*
X0295400Y0198035D01*
X0295512Y0197984D01*
X0295627Y0197936D01*
X0295742Y0197893D01*
X0295859Y0197853D01*
X0295978Y0197816D01*
X0296097Y0197784D01*
X0296217Y0197755D01*
X0296338Y0197730D01*
X0296460Y0197708D01*
X0296583Y0197691D01*
X0296705Y0197677D01*
X0296829Y0197668D01*
X0296952Y0197662D01*
X0297076Y0197660D01*
X0293139Y0201597D02*
X0293139Y0205534D01*
X0293136Y0205819D01*
X0293125Y0206105D01*
X0293108Y0206390D01*
X0293084Y0206674D01*
X0293053Y0206958D01*
X0293015Y0207241D01*
X0292970Y0207522D01*
X0292919Y0207803D01*
X0292861Y0208083D01*
X0292796Y0208361D01*
X0292724Y0208637D01*
X0292646Y0208911D01*
X0292561Y0209184D01*
X0292469Y0209454D01*
X0292371Y0209722D01*
X0292267Y0209988D01*
X0292156Y0210251D01*
X0292039Y0210511D01*
X0291916Y0210769D01*
X0291786Y0211023D01*
X0291650Y0211274D01*
X0291509Y0211522D01*
X0291361Y0211766D01*
X0291208Y0212007D01*
X0291048Y0212243D01*
X0290883Y0212476D01*
X0290713Y0212705D01*
X0290537Y0212930D01*
X0290355Y0213150D01*
X0290169Y0213366D01*
X0289977Y0213577D01*
X0289780Y0213784D01*
X0289578Y0213986D01*
X0289371Y0214183D01*
X0289160Y0214375D01*
X0288944Y0214561D01*
X0288724Y0214743D01*
X0288499Y0214919D01*
X0288270Y0215089D01*
X0288037Y0215254D01*
X0287801Y0215414D01*
X0287560Y0215567D01*
X0287316Y0215715D01*
X0287068Y0215856D01*
X0286817Y0215992D01*
X0286563Y0216122D01*
X0286305Y0216245D01*
X0286045Y0216362D01*
X0285782Y0216473D01*
X0285516Y0216577D01*
X0285248Y0216675D01*
X0284978Y0216767D01*
X0284705Y0216852D01*
X0284431Y0216930D01*
X0284155Y0217002D01*
X0283877Y0217067D01*
X0283597Y0217125D01*
X0283316Y0217176D01*
X0283035Y0217221D01*
X0282752Y0217259D01*
X0282468Y0217290D01*
X0282184Y0217314D01*
X0281899Y0217331D01*
X0281613Y0217342D01*
X0281328Y0217345D01*
X0013611Y0217345D01*
X0013326Y0217342D01*
X0013040Y0217331D01*
X0012755Y0217314D01*
X0012471Y0217290D01*
X0012187Y0217259D01*
X0011904Y0217221D01*
X0011623Y0217176D01*
X0011342Y0217125D01*
X0011062Y0217067D01*
X0010784Y0217002D01*
X0010508Y0216930D01*
X0010234Y0216852D01*
X0009961Y0216767D01*
X0009691Y0216675D01*
X0009423Y0216577D01*
X0009157Y0216473D01*
X0008894Y0216362D01*
X0008634Y0216245D01*
X0008376Y0216122D01*
X0008122Y0215992D01*
X0007871Y0215856D01*
X0007623Y0215715D01*
X0007379Y0215567D01*
X0007138Y0215414D01*
X0006902Y0215254D01*
X0006669Y0215089D01*
X0006440Y0214919D01*
X0006215Y0214743D01*
X0005995Y0214561D01*
X0005779Y0214375D01*
X0005568Y0214183D01*
X0005361Y0213986D01*
X0005159Y0213784D01*
X0004962Y0213577D01*
X0004770Y0213366D01*
X0004584Y0213150D01*
X0004402Y0212930D01*
X0004226Y0212705D01*
X0004056Y0212476D01*
X0003891Y0212243D01*
X0003731Y0212007D01*
X0003578Y0211766D01*
X0003430Y0211522D01*
X0003289Y0211274D01*
X0003153Y0211023D01*
X0003023Y0210769D01*
X0002900Y0210511D01*
X0002783Y0210251D01*
X0002672Y0209988D01*
X0002568Y0209722D01*
X0002470Y0209454D01*
X0002378Y0209184D01*
X0002293Y0208911D01*
X0002215Y0208637D01*
X0002143Y0208361D01*
X0002078Y0208083D01*
X0002020Y0207803D01*
X0001969Y0207522D01*
X0001924Y0207241D01*
X0001886Y0206958D01*
X0001855Y0206674D01*
X0001831Y0206390D01*
X0001814Y0206105D01*
X0001803Y0205819D01*
X0001800Y0205534D01*
X0001800Y0032306D01*
X0001803Y0032021D01*
X0001814Y0031735D01*
X0001831Y0031450D01*
X0001855Y0031166D01*
X0001886Y0030882D01*
X0001924Y0030599D01*
X0001969Y0030318D01*
X0002020Y0030037D01*
X0002078Y0029757D01*
X0002143Y0029479D01*
X0002215Y0029203D01*
X0002293Y0028929D01*
X0002378Y0028656D01*
X0002470Y0028386D01*
X0002568Y0028118D01*
X0002672Y0027852D01*
X0002783Y0027589D01*
X0002900Y0027329D01*
X0003023Y0027071D01*
X0003153Y0026817D01*
X0003289Y0026566D01*
X0003430Y0026318D01*
X0003578Y0026074D01*
X0003731Y0025833D01*
X0003891Y0025597D01*
X0004056Y0025364D01*
X0004226Y0025135D01*
X0004402Y0024910D01*
X0004584Y0024690D01*
X0004770Y0024474D01*
X0004962Y0024263D01*
X0005159Y0024056D01*
X0005361Y0023854D01*
X0005568Y0023657D01*
X0005779Y0023465D01*
X0005995Y0023279D01*
X0006215Y0023097D01*
X0006440Y0022921D01*
X0006669Y0022751D01*
X0006902Y0022586D01*
X0007138Y0022426D01*
X0007379Y0022273D01*
X0007623Y0022125D01*
X0007871Y0021984D01*
X0008122Y0021848D01*
X0008376Y0021718D01*
X0008634Y0021595D01*
X0008894Y0021478D01*
X0009157Y0021367D01*
X0009423Y0021263D01*
X0009691Y0021165D01*
X0009961Y0021073D01*
X0010234Y0020988D01*
X0010508Y0020910D01*
X0010784Y0020838D01*
X0011062Y0020773D01*
X0011342Y0020715D01*
X0011623Y0020664D01*
X0011904Y0020619D01*
X0012187Y0020581D01*
X0012471Y0020550D01*
X0012755Y0020526D01*
X0013040Y0020509D01*
X0013326Y0020498D01*
X0013611Y0020495D01*
X0007312Y0032306D02*
X0007314Y0032464D01*
X0007320Y0032622D01*
X0007330Y0032780D01*
X0007344Y0032938D01*
X0007362Y0033095D01*
X0007383Y0033252D01*
X0007409Y0033408D01*
X0007439Y0033564D01*
X0007472Y0033719D01*
X0007510Y0033872D01*
X0007551Y0034025D01*
X0007596Y0034177D01*
X0007645Y0034328D01*
X0007698Y0034477D01*
X0007754Y0034625D01*
X0007814Y0034771D01*
X0007878Y0034916D01*
X0007946Y0035059D01*
X0008017Y0035201D01*
X0008091Y0035341D01*
X0008169Y0035478D01*
X0008251Y0035614D01*
X0008335Y0035748D01*
X0008424Y0035879D01*
X0008515Y0036008D01*
X0008610Y0036135D01*
X0008707Y0036260D01*
X0008808Y0036382D01*
X0008912Y0036501D01*
X0009019Y0036618D01*
X0009129Y0036732D01*
X0009242Y0036843D01*
X0009357Y0036952D01*
X0009475Y0037057D01*
X0009596Y0037159D01*
X0009719Y0037259D01*
X0009845Y0037355D01*
X0009973Y0037448D01*
X0010103Y0037538D01*
X0010236Y0037624D01*
X0010371Y0037708D01*
X0010507Y0037787D01*
X0010646Y0037864D01*
X0010787Y0037936D01*
X0010929Y0038006D01*
X0011073Y0038071D01*
X0011219Y0038133D01*
X0011366Y0038191D01*
X0011515Y0038246D01*
X0011665Y0038297D01*
X0011816Y0038344D01*
X0011968Y0038387D01*
X0012121Y0038426D01*
X0012276Y0038462D01*
X0012431Y0038493D01*
X0012587Y0038521D01*
X0012743Y0038545D01*
X0012900Y0038565D01*
X0013058Y0038581D01*
X0013215Y0038593D01*
X0013374Y0038601D01*
X0013532Y0038605D01*
X0013690Y0038605D01*
X0013848Y0038601D01*
X0014007Y0038593D01*
X0014164Y0038581D01*
X0014322Y0038565D01*
X0014479Y0038545D01*
X0014635Y0038521D01*
X0014791Y0038493D01*
X0014946Y0038462D01*
X0015101Y0038426D01*
X0015254Y0038387D01*
X0015406Y0038344D01*
X0015557Y0038297D01*
X0015707Y0038246D01*
X0015856Y0038191D01*
X0016003Y0038133D01*
X0016149Y0038071D01*
X0016293Y0038006D01*
X0016435Y0037936D01*
X0016576Y0037864D01*
X0016715Y0037787D01*
X0016851Y0037708D01*
X0016986Y0037624D01*
X0017119Y0037538D01*
X0017249Y0037448D01*
X0017377Y0037355D01*
X0017503Y0037259D01*
X0017626Y0037159D01*
X0017747Y0037057D01*
X0017865Y0036952D01*
X0017980Y0036843D01*
X0018093Y0036732D01*
X0018203Y0036618D01*
X0018310Y0036501D01*
X0018414Y0036382D01*
X0018515Y0036260D01*
X0018612Y0036135D01*
X0018707Y0036008D01*
X0018798Y0035879D01*
X0018887Y0035748D01*
X0018971Y0035614D01*
X0019053Y0035478D01*
X0019131Y0035341D01*
X0019205Y0035201D01*
X0019276Y0035059D01*
X0019344Y0034916D01*
X0019408Y0034771D01*
X0019468Y0034625D01*
X0019524Y0034477D01*
X0019577Y0034328D01*
X0019626Y0034177D01*
X0019671Y0034025D01*
X0019712Y0033872D01*
X0019750Y0033719D01*
X0019783Y0033564D01*
X0019813Y0033408D01*
X0019839Y0033252D01*
X0019860Y0033095D01*
X0019878Y0032938D01*
X0019892Y0032780D01*
X0019902Y0032622D01*
X0019908Y0032464D01*
X0019910Y0032306D01*
X0019908Y0032148D01*
X0019902Y0031990D01*
X0019892Y0031832D01*
X0019878Y0031674D01*
X0019860Y0031517D01*
X0019839Y0031360D01*
X0019813Y0031204D01*
X0019783Y0031048D01*
X0019750Y0030893D01*
X0019712Y0030740D01*
X0019671Y0030587D01*
X0019626Y0030435D01*
X0019577Y0030284D01*
X0019524Y0030135D01*
X0019468Y0029987D01*
X0019408Y0029841D01*
X0019344Y0029696D01*
X0019276Y0029553D01*
X0019205Y0029411D01*
X0019131Y0029271D01*
X0019053Y0029134D01*
X0018971Y0028998D01*
X0018887Y0028864D01*
X0018798Y0028733D01*
X0018707Y0028604D01*
X0018612Y0028477D01*
X0018515Y0028352D01*
X0018414Y0028230D01*
X0018310Y0028111D01*
X0018203Y0027994D01*
X0018093Y0027880D01*
X0017980Y0027769D01*
X0017865Y0027660D01*
X0017747Y0027555D01*
X0017626Y0027453D01*
X0017503Y0027353D01*
X0017377Y0027257D01*
X0017249Y0027164D01*
X0017119Y0027074D01*
X0016986Y0026988D01*
X0016851Y0026904D01*
X0016715Y0026825D01*
X0016576Y0026748D01*
X0016435Y0026676D01*
X0016293Y0026606D01*
X0016149Y0026541D01*
X0016003Y0026479D01*
X0015856Y0026421D01*
X0015707Y0026366D01*
X0015557Y0026315D01*
X0015406Y0026268D01*
X0015254Y0026225D01*
X0015101Y0026186D01*
X0014946Y0026150D01*
X0014791Y0026119D01*
X0014635Y0026091D01*
X0014479Y0026067D01*
X0014322Y0026047D01*
X0014164Y0026031D01*
X0014007Y0026019D01*
X0013848Y0026011D01*
X0013690Y0026007D01*
X0013532Y0026007D01*
X0013374Y0026011D01*
X0013215Y0026019D01*
X0013058Y0026031D01*
X0012900Y0026047D01*
X0012743Y0026067D01*
X0012587Y0026091D01*
X0012431Y0026119D01*
X0012276Y0026150D01*
X0012121Y0026186D01*
X0011968Y0026225D01*
X0011816Y0026268D01*
X0011665Y0026315D01*
X0011515Y0026366D01*
X0011366Y0026421D01*
X0011219Y0026479D01*
X0011073Y0026541D01*
X0010929Y0026606D01*
X0010787Y0026676D01*
X0010646Y0026748D01*
X0010507Y0026825D01*
X0010371Y0026904D01*
X0010236Y0026988D01*
X0010103Y0027074D01*
X0009973Y0027164D01*
X0009845Y0027257D01*
X0009719Y0027353D01*
X0009596Y0027453D01*
X0009475Y0027555D01*
X0009357Y0027660D01*
X0009242Y0027769D01*
X0009129Y0027880D01*
X0009019Y0027994D01*
X0008912Y0028111D01*
X0008808Y0028230D01*
X0008707Y0028352D01*
X0008610Y0028477D01*
X0008515Y0028604D01*
X0008424Y0028733D01*
X0008335Y0028864D01*
X0008251Y0028998D01*
X0008169Y0029134D01*
X0008091Y0029271D01*
X0008017Y0029411D01*
X0007946Y0029553D01*
X0007878Y0029696D01*
X0007814Y0029841D01*
X0007754Y0029987D01*
X0007698Y0030135D01*
X0007645Y0030284D01*
X0007596Y0030435D01*
X0007551Y0030587D01*
X0007510Y0030740D01*
X0007472Y0030893D01*
X0007439Y0031048D01*
X0007409Y0031204D01*
X0007383Y0031360D01*
X0007362Y0031517D01*
X0007344Y0031674D01*
X0007330Y0031832D01*
X0007320Y0031990D01*
X0007314Y0032148D01*
X0007312Y0032306D01*
X0035892Y0036243D02*
X0035894Y0036403D01*
X0035900Y0036562D01*
X0035910Y0036721D01*
X0035924Y0036880D01*
X0035942Y0037039D01*
X0035963Y0037197D01*
X0035989Y0037354D01*
X0036019Y0037511D01*
X0036052Y0037667D01*
X0036090Y0037822D01*
X0036131Y0037976D01*
X0036176Y0038129D01*
X0036225Y0038281D01*
X0036278Y0038432D01*
X0036334Y0038581D01*
X0036395Y0038729D01*
X0036458Y0038875D01*
X0036526Y0039020D01*
X0036597Y0039163D01*
X0036671Y0039304D01*
X0036749Y0039443D01*
X0036831Y0039580D01*
X0036916Y0039715D01*
X0037004Y0039848D01*
X0037096Y0039979D01*
X0037190Y0040107D01*
X0037288Y0040233D01*
X0037389Y0040357D01*
X0037493Y0040478D01*
X0037600Y0040596D01*
X0037710Y0040712D01*
X0037823Y0040825D01*
X0037939Y0040935D01*
X0038057Y0041042D01*
X0038178Y0041146D01*
X0038302Y0041247D01*
X0038428Y0041345D01*
X0038556Y0041439D01*
X0038687Y0041531D01*
X0038820Y0041619D01*
X0038955Y0041704D01*
X0039092Y0041786D01*
X0039231Y0041864D01*
X0039372Y0041938D01*
X0039515Y0042009D01*
X0039660Y0042077D01*
X0039806Y0042140D01*
X0039954Y0042201D01*
X0040103Y0042257D01*
X0040254Y0042310D01*
X0040406Y0042359D01*
X0040559Y0042404D01*
X0040713Y0042445D01*
X0040868Y0042483D01*
X0041024Y0042516D01*
X0041181Y0042546D01*
X0041338Y0042572D01*
X0041496Y0042593D01*
X0041655Y0042611D01*
X0041814Y0042625D01*
X0041973Y0042635D01*
X0042132Y0042641D01*
X0042292Y0042643D01*
X0042452Y0042641D01*
X0042611Y0042635D01*
X0042770Y0042625D01*
X0042929Y0042611D01*
X0043088Y0042593D01*
X0043246Y0042572D01*
X0043403Y0042546D01*
X0043560Y0042516D01*
X0043716Y0042483D01*
X0043871Y0042445D01*
X0044025Y0042404D01*
X0044178Y0042359D01*
X0044330Y0042310D01*
X0044481Y0042257D01*
X0044630Y0042201D01*
X0044778Y0042140D01*
X0044924Y0042077D01*
X0045069Y0042009D01*
X0045212Y0041938D01*
X0045353Y0041864D01*
X0045492Y0041786D01*
X0045629Y0041704D01*
X0045764Y0041619D01*
X0045897Y0041531D01*
X0046028Y0041439D01*
X0046156Y0041345D01*
X0046282Y0041247D01*
X0046406Y0041146D01*
X0046527Y0041042D01*
X0046645Y0040935D01*
X0046761Y0040825D01*
X0046874Y0040712D01*
X0046984Y0040596D01*
X0047091Y0040478D01*
X0047195Y0040357D01*
X0047296Y0040233D01*
X0047394Y0040107D01*
X0047488Y0039979D01*
X0047580Y0039848D01*
X0047668Y0039715D01*
X0047753Y0039580D01*
X0047835Y0039443D01*
X0047913Y0039304D01*
X0047987Y0039163D01*
X0048058Y0039020D01*
X0048126Y0038875D01*
X0048189Y0038729D01*
X0048250Y0038581D01*
X0048306Y0038432D01*
X0048359Y0038281D01*
X0048408Y0038129D01*
X0048453Y0037976D01*
X0048494Y0037822D01*
X0048532Y0037667D01*
X0048565Y0037511D01*
X0048595Y0037354D01*
X0048621Y0037197D01*
X0048642Y0037039D01*
X0048660Y0036880D01*
X0048674Y0036721D01*
X0048684Y0036562D01*
X0048690Y0036403D01*
X0048692Y0036243D01*
X0048690Y0036083D01*
X0048684Y0035924D01*
X0048674Y0035765D01*
X0048660Y0035606D01*
X0048642Y0035447D01*
X0048621Y0035289D01*
X0048595Y0035132D01*
X0048565Y0034975D01*
X0048532Y0034819D01*
X0048494Y0034664D01*
X0048453Y0034510D01*
X0048408Y0034357D01*
X0048359Y0034205D01*
X0048306Y0034054D01*
X0048250Y0033905D01*
X0048189Y0033757D01*
X0048126Y0033611D01*
X0048058Y0033466D01*
X0047987Y0033323D01*
X0047913Y0033182D01*
X0047835Y0033043D01*
X0047753Y0032906D01*
X0047668Y0032771D01*
X0047580Y0032638D01*
X0047488Y0032507D01*
X0047394Y0032379D01*
X0047296Y0032253D01*
X0047195Y0032129D01*
X0047091Y0032008D01*
X0046984Y0031890D01*
X0046874Y0031774D01*
X0046761Y0031661D01*
X0046645Y0031551D01*
X0046527Y0031444D01*
X0046406Y0031340D01*
X0046282Y0031239D01*
X0046156Y0031141D01*
X0046028Y0031047D01*
X0045897Y0030955D01*
X0045764Y0030867D01*
X0045629Y0030782D01*
X0045492Y0030700D01*
X0045353Y0030622D01*
X0045212Y0030548D01*
X0045069Y0030477D01*
X0044924Y0030409D01*
X0044778Y0030346D01*
X0044630Y0030285D01*
X0044481Y0030229D01*
X0044330Y0030176D01*
X0044178Y0030127D01*
X0044025Y0030082D01*
X0043871Y0030041D01*
X0043716Y0030003D01*
X0043560Y0029970D01*
X0043403Y0029940D01*
X0043246Y0029914D01*
X0043088Y0029893D01*
X0042929Y0029875D01*
X0042770Y0029861D01*
X0042611Y0029851D01*
X0042452Y0029845D01*
X0042292Y0029843D01*
X0042132Y0029845D01*
X0041973Y0029851D01*
X0041814Y0029861D01*
X0041655Y0029875D01*
X0041496Y0029893D01*
X0041338Y0029914D01*
X0041181Y0029940D01*
X0041024Y0029970D01*
X0040868Y0030003D01*
X0040713Y0030041D01*
X0040559Y0030082D01*
X0040406Y0030127D01*
X0040254Y0030176D01*
X0040103Y0030229D01*
X0039954Y0030285D01*
X0039806Y0030346D01*
X0039660Y0030409D01*
X0039515Y0030477D01*
X0039372Y0030548D01*
X0039231Y0030622D01*
X0039092Y0030700D01*
X0038955Y0030782D01*
X0038820Y0030867D01*
X0038687Y0030955D01*
X0038556Y0031047D01*
X0038428Y0031141D01*
X0038302Y0031239D01*
X0038178Y0031340D01*
X0038057Y0031444D01*
X0037939Y0031551D01*
X0037823Y0031661D01*
X0037710Y0031774D01*
X0037600Y0031890D01*
X0037493Y0032008D01*
X0037389Y0032129D01*
X0037288Y0032253D01*
X0037190Y0032379D01*
X0037096Y0032507D01*
X0037004Y0032638D01*
X0036916Y0032771D01*
X0036831Y0032906D01*
X0036749Y0033043D01*
X0036671Y0033182D01*
X0036597Y0033323D01*
X0036526Y0033466D01*
X0036458Y0033611D01*
X0036395Y0033757D01*
X0036334Y0033905D01*
X0036278Y0034054D01*
X0036225Y0034205D01*
X0036176Y0034357D01*
X0036131Y0034510D01*
X0036090Y0034664D01*
X0036052Y0034819D01*
X0036019Y0034975D01*
X0035989Y0035132D01*
X0035963Y0035289D01*
X0035942Y0035447D01*
X0035924Y0035606D01*
X0035910Y0035765D01*
X0035900Y0035924D01*
X0035894Y0036083D01*
X0035892Y0036243D01*
X0080892Y0036243D02*
X0080894Y0036403D01*
X0080900Y0036562D01*
X0080910Y0036721D01*
X0080924Y0036880D01*
X0080942Y0037039D01*
X0080963Y0037197D01*
X0080989Y0037354D01*
X0081019Y0037511D01*
X0081052Y0037667D01*
X0081090Y0037822D01*
X0081131Y0037976D01*
X0081176Y0038129D01*
X0081225Y0038281D01*
X0081278Y0038432D01*
X0081334Y0038581D01*
X0081395Y0038729D01*
X0081458Y0038875D01*
X0081526Y0039020D01*
X0081597Y0039163D01*
X0081671Y0039304D01*
X0081749Y0039443D01*
X0081831Y0039580D01*
X0081916Y0039715D01*
X0082004Y0039848D01*
X0082096Y0039979D01*
X0082190Y0040107D01*
X0082288Y0040233D01*
X0082389Y0040357D01*
X0082493Y0040478D01*
X0082600Y0040596D01*
X0082710Y0040712D01*
X0082823Y0040825D01*
X0082939Y0040935D01*
X0083057Y0041042D01*
X0083178Y0041146D01*
X0083302Y0041247D01*
X0083428Y0041345D01*
X0083556Y0041439D01*
X0083687Y0041531D01*
X0083820Y0041619D01*
X0083955Y0041704D01*
X0084092Y0041786D01*
X0084231Y0041864D01*
X0084372Y0041938D01*
X0084515Y0042009D01*
X0084660Y0042077D01*
X0084806Y0042140D01*
X0084954Y0042201D01*
X0085103Y0042257D01*
X0085254Y0042310D01*
X0085406Y0042359D01*
X0085559Y0042404D01*
X0085713Y0042445D01*
X0085868Y0042483D01*
X0086024Y0042516D01*
X0086181Y0042546D01*
X0086338Y0042572D01*
X0086496Y0042593D01*
X0086655Y0042611D01*
X0086814Y0042625D01*
X0086973Y0042635D01*
X0087132Y0042641D01*
X0087292Y0042643D01*
X0087452Y0042641D01*
X0087611Y0042635D01*
X0087770Y0042625D01*
X0087929Y0042611D01*
X0088088Y0042593D01*
X0088246Y0042572D01*
X0088403Y0042546D01*
X0088560Y0042516D01*
X0088716Y0042483D01*
X0088871Y0042445D01*
X0089025Y0042404D01*
X0089178Y0042359D01*
X0089330Y0042310D01*
X0089481Y0042257D01*
X0089630Y0042201D01*
X0089778Y0042140D01*
X0089924Y0042077D01*
X0090069Y0042009D01*
X0090212Y0041938D01*
X0090353Y0041864D01*
X0090492Y0041786D01*
X0090629Y0041704D01*
X0090764Y0041619D01*
X0090897Y0041531D01*
X0091028Y0041439D01*
X0091156Y0041345D01*
X0091282Y0041247D01*
X0091406Y0041146D01*
X0091527Y0041042D01*
X0091645Y0040935D01*
X0091761Y0040825D01*
X0091874Y0040712D01*
X0091984Y0040596D01*
X0092091Y0040478D01*
X0092195Y0040357D01*
X0092296Y0040233D01*
X0092394Y0040107D01*
X0092488Y0039979D01*
X0092580Y0039848D01*
X0092668Y0039715D01*
X0092753Y0039580D01*
X0092835Y0039443D01*
X0092913Y0039304D01*
X0092987Y0039163D01*
X0093058Y0039020D01*
X0093126Y0038875D01*
X0093189Y0038729D01*
X0093250Y0038581D01*
X0093306Y0038432D01*
X0093359Y0038281D01*
X0093408Y0038129D01*
X0093453Y0037976D01*
X0093494Y0037822D01*
X0093532Y0037667D01*
X0093565Y0037511D01*
X0093595Y0037354D01*
X0093621Y0037197D01*
X0093642Y0037039D01*
X0093660Y0036880D01*
X0093674Y0036721D01*
X0093684Y0036562D01*
X0093690Y0036403D01*
X0093692Y0036243D01*
X0093690Y0036083D01*
X0093684Y0035924D01*
X0093674Y0035765D01*
X0093660Y0035606D01*
X0093642Y0035447D01*
X0093621Y0035289D01*
X0093595Y0035132D01*
X0093565Y0034975D01*
X0093532Y0034819D01*
X0093494Y0034664D01*
X0093453Y0034510D01*
X0093408Y0034357D01*
X0093359Y0034205D01*
X0093306Y0034054D01*
X0093250Y0033905D01*
X0093189Y0033757D01*
X0093126Y0033611D01*
X0093058Y0033466D01*
X0092987Y0033323D01*
X0092913Y0033182D01*
X0092835Y0033043D01*
X0092753Y0032906D01*
X0092668Y0032771D01*
X0092580Y0032638D01*
X0092488Y0032507D01*
X0092394Y0032379D01*
X0092296Y0032253D01*
X0092195Y0032129D01*
X0092091Y0032008D01*
X0091984Y0031890D01*
X0091874Y0031774D01*
X0091761Y0031661D01*
X0091645Y0031551D01*
X0091527Y0031444D01*
X0091406Y0031340D01*
X0091282Y0031239D01*
X0091156Y0031141D01*
X0091028Y0031047D01*
X0090897Y0030955D01*
X0090764Y0030867D01*
X0090629Y0030782D01*
X0090492Y0030700D01*
X0090353Y0030622D01*
X0090212Y0030548D01*
X0090069Y0030477D01*
X0089924Y0030409D01*
X0089778Y0030346D01*
X0089630Y0030285D01*
X0089481Y0030229D01*
X0089330Y0030176D01*
X0089178Y0030127D01*
X0089025Y0030082D01*
X0088871Y0030041D01*
X0088716Y0030003D01*
X0088560Y0029970D01*
X0088403Y0029940D01*
X0088246Y0029914D01*
X0088088Y0029893D01*
X0087929Y0029875D01*
X0087770Y0029861D01*
X0087611Y0029851D01*
X0087452Y0029845D01*
X0087292Y0029843D01*
X0087132Y0029845D01*
X0086973Y0029851D01*
X0086814Y0029861D01*
X0086655Y0029875D01*
X0086496Y0029893D01*
X0086338Y0029914D01*
X0086181Y0029940D01*
X0086024Y0029970D01*
X0085868Y0030003D01*
X0085713Y0030041D01*
X0085559Y0030082D01*
X0085406Y0030127D01*
X0085254Y0030176D01*
X0085103Y0030229D01*
X0084954Y0030285D01*
X0084806Y0030346D01*
X0084660Y0030409D01*
X0084515Y0030477D01*
X0084372Y0030548D01*
X0084231Y0030622D01*
X0084092Y0030700D01*
X0083955Y0030782D01*
X0083820Y0030867D01*
X0083687Y0030955D01*
X0083556Y0031047D01*
X0083428Y0031141D01*
X0083302Y0031239D01*
X0083178Y0031340D01*
X0083057Y0031444D01*
X0082939Y0031551D01*
X0082823Y0031661D01*
X0082710Y0031774D01*
X0082600Y0031890D01*
X0082493Y0032008D01*
X0082389Y0032129D01*
X0082288Y0032253D01*
X0082190Y0032379D01*
X0082096Y0032507D01*
X0082004Y0032638D01*
X0081916Y0032771D01*
X0081831Y0032906D01*
X0081749Y0033043D01*
X0081671Y0033182D01*
X0081597Y0033323D01*
X0081526Y0033466D01*
X0081458Y0033611D01*
X0081395Y0033757D01*
X0081334Y0033905D01*
X0081278Y0034054D01*
X0081225Y0034205D01*
X0081176Y0034357D01*
X0081131Y0034510D01*
X0081090Y0034664D01*
X0081052Y0034819D01*
X0081019Y0034975D01*
X0080989Y0035132D01*
X0080963Y0035289D01*
X0080942Y0035447D01*
X0080924Y0035606D01*
X0080910Y0035765D01*
X0080900Y0035924D01*
X0080894Y0036083D01*
X0080892Y0036243D01*
X0201246Y0036243D02*
X0201248Y0036403D01*
X0201254Y0036562D01*
X0201264Y0036721D01*
X0201278Y0036880D01*
X0201296Y0037039D01*
X0201317Y0037197D01*
X0201343Y0037354D01*
X0201373Y0037511D01*
X0201406Y0037667D01*
X0201444Y0037822D01*
X0201485Y0037976D01*
X0201530Y0038129D01*
X0201579Y0038281D01*
X0201632Y0038432D01*
X0201688Y0038581D01*
X0201749Y0038729D01*
X0201812Y0038875D01*
X0201880Y0039020D01*
X0201951Y0039163D01*
X0202025Y0039304D01*
X0202103Y0039443D01*
X0202185Y0039580D01*
X0202270Y0039715D01*
X0202358Y0039848D01*
X0202450Y0039979D01*
X0202544Y0040107D01*
X0202642Y0040233D01*
X0202743Y0040357D01*
X0202847Y0040478D01*
X0202954Y0040596D01*
X0203064Y0040712D01*
X0203177Y0040825D01*
X0203293Y0040935D01*
X0203411Y0041042D01*
X0203532Y0041146D01*
X0203656Y0041247D01*
X0203782Y0041345D01*
X0203910Y0041439D01*
X0204041Y0041531D01*
X0204174Y0041619D01*
X0204309Y0041704D01*
X0204446Y0041786D01*
X0204585Y0041864D01*
X0204726Y0041938D01*
X0204869Y0042009D01*
X0205014Y0042077D01*
X0205160Y0042140D01*
X0205308Y0042201D01*
X0205457Y0042257D01*
X0205608Y0042310D01*
X0205760Y0042359D01*
X0205913Y0042404D01*
X0206067Y0042445D01*
X0206222Y0042483D01*
X0206378Y0042516D01*
X0206535Y0042546D01*
X0206692Y0042572D01*
X0206850Y0042593D01*
X0207009Y0042611D01*
X0207168Y0042625D01*
X0207327Y0042635D01*
X0207486Y0042641D01*
X0207646Y0042643D01*
X0207806Y0042641D01*
X0207965Y0042635D01*
X0208124Y0042625D01*
X0208283Y0042611D01*
X0208442Y0042593D01*
X0208600Y0042572D01*
X0208757Y0042546D01*
X0208914Y0042516D01*
X0209070Y0042483D01*
X0209225Y0042445D01*
X0209379Y0042404D01*
X0209532Y0042359D01*
X0209684Y0042310D01*
X0209835Y0042257D01*
X0209984Y0042201D01*
X0210132Y0042140D01*
X0210278Y0042077D01*
X0210423Y0042009D01*
X0210566Y0041938D01*
X0210707Y0041864D01*
X0210846Y0041786D01*
X0210983Y0041704D01*
X0211118Y0041619D01*
X0211251Y0041531D01*
X0211382Y0041439D01*
X0211510Y0041345D01*
X0211636Y0041247D01*
X0211760Y0041146D01*
X0211881Y0041042D01*
X0211999Y0040935D01*
X0212115Y0040825D01*
X0212228Y0040712D01*
X0212338Y0040596D01*
X0212445Y0040478D01*
X0212549Y0040357D01*
X0212650Y0040233D01*
X0212748Y0040107D01*
X0212842Y0039979D01*
X0212934Y0039848D01*
X0213022Y0039715D01*
X0213107Y0039580D01*
X0213189Y0039443D01*
X0213267Y0039304D01*
X0213341Y0039163D01*
X0213412Y0039020D01*
X0213480Y0038875D01*
X0213543Y0038729D01*
X0213604Y0038581D01*
X0213660Y0038432D01*
X0213713Y0038281D01*
X0213762Y0038129D01*
X0213807Y0037976D01*
X0213848Y0037822D01*
X0213886Y0037667D01*
X0213919Y0037511D01*
X0213949Y0037354D01*
X0213975Y0037197D01*
X0213996Y0037039D01*
X0214014Y0036880D01*
X0214028Y0036721D01*
X0214038Y0036562D01*
X0214044Y0036403D01*
X0214046Y0036243D01*
X0214044Y0036083D01*
X0214038Y0035924D01*
X0214028Y0035765D01*
X0214014Y0035606D01*
X0213996Y0035447D01*
X0213975Y0035289D01*
X0213949Y0035132D01*
X0213919Y0034975D01*
X0213886Y0034819D01*
X0213848Y0034664D01*
X0213807Y0034510D01*
X0213762Y0034357D01*
X0213713Y0034205D01*
X0213660Y0034054D01*
X0213604Y0033905D01*
X0213543Y0033757D01*
X0213480Y0033611D01*
X0213412Y0033466D01*
X0213341Y0033323D01*
X0213267Y0033182D01*
X0213189Y0033043D01*
X0213107Y0032906D01*
X0213022Y0032771D01*
X0212934Y0032638D01*
X0212842Y0032507D01*
X0212748Y0032379D01*
X0212650Y0032253D01*
X0212549Y0032129D01*
X0212445Y0032008D01*
X0212338Y0031890D01*
X0212228Y0031774D01*
X0212115Y0031661D01*
X0211999Y0031551D01*
X0211881Y0031444D01*
X0211760Y0031340D01*
X0211636Y0031239D01*
X0211510Y0031141D01*
X0211382Y0031047D01*
X0211251Y0030955D01*
X0211118Y0030867D01*
X0210983Y0030782D01*
X0210846Y0030700D01*
X0210707Y0030622D01*
X0210566Y0030548D01*
X0210423Y0030477D01*
X0210278Y0030409D01*
X0210132Y0030346D01*
X0209984Y0030285D01*
X0209835Y0030229D01*
X0209684Y0030176D01*
X0209532Y0030127D01*
X0209379Y0030082D01*
X0209225Y0030041D01*
X0209070Y0030003D01*
X0208914Y0029970D01*
X0208757Y0029940D01*
X0208600Y0029914D01*
X0208442Y0029893D01*
X0208283Y0029875D01*
X0208124Y0029861D01*
X0207965Y0029851D01*
X0207806Y0029845D01*
X0207646Y0029843D01*
X0207486Y0029845D01*
X0207327Y0029851D01*
X0207168Y0029861D01*
X0207009Y0029875D01*
X0206850Y0029893D01*
X0206692Y0029914D01*
X0206535Y0029940D01*
X0206378Y0029970D01*
X0206222Y0030003D01*
X0206067Y0030041D01*
X0205913Y0030082D01*
X0205760Y0030127D01*
X0205608Y0030176D01*
X0205457Y0030229D01*
X0205308Y0030285D01*
X0205160Y0030346D01*
X0205014Y0030409D01*
X0204869Y0030477D01*
X0204726Y0030548D01*
X0204585Y0030622D01*
X0204446Y0030700D01*
X0204309Y0030782D01*
X0204174Y0030867D01*
X0204041Y0030955D01*
X0203910Y0031047D01*
X0203782Y0031141D01*
X0203656Y0031239D01*
X0203532Y0031340D01*
X0203411Y0031444D01*
X0203293Y0031551D01*
X0203177Y0031661D01*
X0203064Y0031774D01*
X0202954Y0031890D01*
X0202847Y0032008D01*
X0202743Y0032129D01*
X0202642Y0032253D01*
X0202544Y0032379D01*
X0202450Y0032507D01*
X0202358Y0032638D01*
X0202270Y0032771D01*
X0202185Y0032906D01*
X0202103Y0033043D01*
X0202025Y0033182D01*
X0201951Y0033323D01*
X0201880Y0033466D01*
X0201812Y0033611D01*
X0201749Y0033757D01*
X0201688Y0033905D01*
X0201632Y0034054D01*
X0201579Y0034205D01*
X0201530Y0034357D01*
X0201485Y0034510D01*
X0201444Y0034664D01*
X0201406Y0034819D01*
X0201373Y0034975D01*
X0201343Y0035132D01*
X0201317Y0035289D01*
X0201296Y0035447D01*
X0201278Y0035606D01*
X0201264Y0035765D01*
X0201254Y0035924D01*
X0201248Y0036083D01*
X0201246Y0036243D01*
X0246246Y0036243D02*
X0246248Y0036403D01*
X0246254Y0036562D01*
X0246264Y0036721D01*
X0246278Y0036880D01*
X0246296Y0037039D01*
X0246317Y0037197D01*
X0246343Y0037354D01*
X0246373Y0037511D01*
X0246406Y0037667D01*
X0246444Y0037822D01*
X0246485Y0037976D01*
X0246530Y0038129D01*
X0246579Y0038281D01*
X0246632Y0038432D01*
X0246688Y0038581D01*
X0246749Y0038729D01*
X0246812Y0038875D01*
X0246880Y0039020D01*
X0246951Y0039163D01*
X0247025Y0039304D01*
X0247103Y0039443D01*
X0247185Y0039580D01*
X0247270Y0039715D01*
X0247358Y0039848D01*
X0247450Y0039979D01*
X0247544Y0040107D01*
X0247642Y0040233D01*
X0247743Y0040357D01*
X0247847Y0040478D01*
X0247954Y0040596D01*
X0248064Y0040712D01*
X0248177Y0040825D01*
X0248293Y0040935D01*
X0248411Y0041042D01*
X0248532Y0041146D01*
X0248656Y0041247D01*
X0248782Y0041345D01*
X0248910Y0041439D01*
X0249041Y0041531D01*
X0249174Y0041619D01*
X0249309Y0041704D01*
X0249446Y0041786D01*
X0249585Y0041864D01*
X0249726Y0041938D01*
X0249869Y0042009D01*
X0250014Y0042077D01*
X0250160Y0042140D01*
X0250308Y0042201D01*
X0250457Y0042257D01*
X0250608Y0042310D01*
X0250760Y0042359D01*
X0250913Y0042404D01*
X0251067Y0042445D01*
X0251222Y0042483D01*
X0251378Y0042516D01*
X0251535Y0042546D01*
X0251692Y0042572D01*
X0251850Y0042593D01*
X0252009Y0042611D01*
X0252168Y0042625D01*
X0252327Y0042635D01*
X0252486Y0042641D01*
X0252646Y0042643D01*
X0252806Y0042641D01*
X0252965Y0042635D01*
X0253124Y0042625D01*
X0253283Y0042611D01*
X0253442Y0042593D01*
X0253600Y0042572D01*
X0253757Y0042546D01*
X0253914Y0042516D01*
X0254070Y0042483D01*
X0254225Y0042445D01*
X0254379Y0042404D01*
X0254532Y0042359D01*
X0254684Y0042310D01*
X0254835Y0042257D01*
X0254984Y0042201D01*
X0255132Y0042140D01*
X0255278Y0042077D01*
X0255423Y0042009D01*
X0255566Y0041938D01*
X0255707Y0041864D01*
X0255846Y0041786D01*
X0255983Y0041704D01*
X0256118Y0041619D01*
X0256251Y0041531D01*
X0256382Y0041439D01*
X0256510Y0041345D01*
X0256636Y0041247D01*
X0256760Y0041146D01*
X0256881Y0041042D01*
X0256999Y0040935D01*
X0257115Y0040825D01*
X0257228Y0040712D01*
X0257338Y0040596D01*
X0257445Y0040478D01*
X0257549Y0040357D01*
X0257650Y0040233D01*
X0257748Y0040107D01*
X0257842Y0039979D01*
X0257934Y0039848D01*
X0258022Y0039715D01*
X0258107Y0039580D01*
X0258189Y0039443D01*
X0258267Y0039304D01*
X0258341Y0039163D01*
X0258412Y0039020D01*
X0258480Y0038875D01*
X0258543Y0038729D01*
X0258604Y0038581D01*
X0258660Y0038432D01*
X0258713Y0038281D01*
X0258762Y0038129D01*
X0258807Y0037976D01*
X0258848Y0037822D01*
X0258886Y0037667D01*
X0258919Y0037511D01*
X0258949Y0037354D01*
X0258975Y0037197D01*
X0258996Y0037039D01*
X0259014Y0036880D01*
X0259028Y0036721D01*
X0259038Y0036562D01*
X0259044Y0036403D01*
X0259046Y0036243D01*
X0259044Y0036083D01*
X0259038Y0035924D01*
X0259028Y0035765D01*
X0259014Y0035606D01*
X0258996Y0035447D01*
X0258975Y0035289D01*
X0258949Y0035132D01*
X0258919Y0034975D01*
X0258886Y0034819D01*
X0258848Y0034664D01*
X0258807Y0034510D01*
X0258762Y0034357D01*
X0258713Y0034205D01*
X0258660Y0034054D01*
X0258604Y0033905D01*
X0258543Y0033757D01*
X0258480Y0033611D01*
X0258412Y0033466D01*
X0258341Y0033323D01*
X0258267Y0033182D01*
X0258189Y0033043D01*
X0258107Y0032906D01*
X0258022Y0032771D01*
X0257934Y0032638D01*
X0257842Y0032507D01*
X0257748Y0032379D01*
X0257650Y0032253D01*
X0257549Y0032129D01*
X0257445Y0032008D01*
X0257338Y0031890D01*
X0257228Y0031774D01*
X0257115Y0031661D01*
X0256999Y0031551D01*
X0256881Y0031444D01*
X0256760Y0031340D01*
X0256636Y0031239D01*
X0256510Y0031141D01*
X0256382Y0031047D01*
X0256251Y0030955D01*
X0256118Y0030867D01*
X0255983Y0030782D01*
X0255846Y0030700D01*
X0255707Y0030622D01*
X0255566Y0030548D01*
X0255423Y0030477D01*
X0255278Y0030409D01*
X0255132Y0030346D01*
X0254984Y0030285D01*
X0254835Y0030229D01*
X0254684Y0030176D01*
X0254532Y0030127D01*
X0254379Y0030082D01*
X0254225Y0030041D01*
X0254070Y0030003D01*
X0253914Y0029970D01*
X0253757Y0029940D01*
X0253600Y0029914D01*
X0253442Y0029893D01*
X0253283Y0029875D01*
X0253124Y0029861D01*
X0252965Y0029851D01*
X0252806Y0029845D01*
X0252646Y0029843D01*
X0252486Y0029845D01*
X0252327Y0029851D01*
X0252168Y0029861D01*
X0252009Y0029875D01*
X0251850Y0029893D01*
X0251692Y0029914D01*
X0251535Y0029940D01*
X0251378Y0029970D01*
X0251222Y0030003D01*
X0251067Y0030041D01*
X0250913Y0030082D01*
X0250760Y0030127D01*
X0250608Y0030176D01*
X0250457Y0030229D01*
X0250308Y0030285D01*
X0250160Y0030346D01*
X0250014Y0030409D01*
X0249869Y0030477D01*
X0249726Y0030548D01*
X0249585Y0030622D01*
X0249446Y0030700D01*
X0249309Y0030782D01*
X0249174Y0030867D01*
X0249041Y0030955D01*
X0248910Y0031047D01*
X0248782Y0031141D01*
X0248656Y0031239D01*
X0248532Y0031340D01*
X0248411Y0031444D01*
X0248293Y0031551D01*
X0248177Y0031661D01*
X0248064Y0031774D01*
X0247954Y0031890D01*
X0247847Y0032008D01*
X0247743Y0032129D01*
X0247642Y0032253D01*
X0247544Y0032379D01*
X0247450Y0032507D01*
X0247358Y0032638D01*
X0247270Y0032771D01*
X0247185Y0032906D01*
X0247103Y0033043D01*
X0247025Y0033182D01*
X0246951Y0033323D01*
X0246880Y0033466D01*
X0246812Y0033611D01*
X0246749Y0033757D01*
X0246688Y0033905D01*
X0246632Y0034054D01*
X0246579Y0034205D01*
X0246530Y0034357D01*
X0246485Y0034510D01*
X0246444Y0034664D01*
X0246406Y0034819D01*
X0246373Y0034975D01*
X0246343Y0035132D01*
X0246317Y0035289D01*
X0246296Y0035447D01*
X0246278Y0035606D01*
X0246264Y0035765D01*
X0246254Y0035924D01*
X0246248Y0036083D01*
X0246246Y0036243D01*
X0275029Y0032306D02*
X0275031Y0032464D01*
X0275037Y0032622D01*
X0275047Y0032780D01*
X0275061Y0032938D01*
X0275079Y0033095D01*
X0275100Y0033252D01*
X0275126Y0033408D01*
X0275156Y0033564D01*
X0275189Y0033719D01*
X0275227Y0033872D01*
X0275268Y0034025D01*
X0275313Y0034177D01*
X0275362Y0034328D01*
X0275415Y0034477D01*
X0275471Y0034625D01*
X0275531Y0034771D01*
X0275595Y0034916D01*
X0275663Y0035059D01*
X0275734Y0035201D01*
X0275808Y0035341D01*
X0275886Y0035478D01*
X0275968Y0035614D01*
X0276052Y0035748D01*
X0276141Y0035879D01*
X0276232Y0036008D01*
X0276327Y0036135D01*
X0276424Y0036260D01*
X0276525Y0036382D01*
X0276629Y0036501D01*
X0276736Y0036618D01*
X0276846Y0036732D01*
X0276959Y0036843D01*
X0277074Y0036952D01*
X0277192Y0037057D01*
X0277313Y0037159D01*
X0277436Y0037259D01*
X0277562Y0037355D01*
X0277690Y0037448D01*
X0277820Y0037538D01*
X0277953Y0037624D01*
X0278088Y0037708D01*
X0278224Y0037787D01*
X0278363Y0037864D01*
X0278504Y0037936D01*
X0278646Y0038006D01*
X0278790Y0038071D01*
X0278936Y0038133D01*
X0279083Y0038191D01*
X0279232Y0038246D01*
X0279382Y0038297D01*
X0279533Y0038344D01*
X0279685Y0038387D01*
X0279838Y0038426D01*
X0279993Y0038462D01*
X0280148Y0038493D01*
X0280304Y0038521D01*
X0280460Y0038545D01*
X0280617Y0038565D01*
X0280775Y0038581D01*
X0280932Y0038593D01*
X0281091Y0038601D01*
X0281249Y0038605D01*
X0281407Y0038605D01*
X0281565Y0038601D01*
X0281724Y0038593D01*
X0281881Y0038581D01*
X0282039Y0038565D01*
X0282196Y0038545D01*
X0282352Y0038521D01*
X0282508Y0038493D01*
X0282663Y0038462D01*
X0282818Y0038426D01*
X0282971Y0038387D01*
X0283123Y0038344D01*
X0283274Y0038297D01*
X0283424Y0038246D01*
X0283573Y0038191D01*
X0283720Y0038133D01*
X0283866Y0038071D01*
X0284010Y0038006D01*
X0284152Y0037936D01*
X0284293Y0037864D01*
X0284432Y0037787D01*
X0284568Y0037708D01*
X0284703Y0037624D01*
X0284836Y0037538D01*
X0284966Y0037448D01*
X0285094Y0037355D01*
X0285220Y0037259D01*
X0285343Y0037159D01*
X0285464Y0037057D01*
X0285582Y0036952D01*
X0285697Y0036843D01*
X0285810Y0036732D01*
X0285920Y0036618D01*
X0286027Y0036501D01*
X0286131Y0036382D01*
X0286232Y0036260D01*
X0286329Y0036135D01*
X0286424Y0036008D01*
X0286515Y0035879D01*
X0286604Y0035748D01*
X0286688Y0035614D01*
X0286770Y0035478D01*
X0286848Y0035341D01*
X0286922Y0035201D01*
X0286993Y0035059D01*
X0287061Y0034916D01*
X0287125Y0034771D01*
X0287185Y0034625D01*
X0287241Y0034477D01*
X0287294Y0034328D01*
X0287343Y0034177D01*
X0287388Y0034025D01*
X0287429Y0033872D01*
X0287467Y0033719D01*
X0287500Y0033564D01*
X0287530Y0033408D01*
X0287556Y0033252D01*
X0287577Y0033095D01*
X0287595Y0032938D01*
X0287609Y0032780D01*
X0287619Y0032622D01*
X0287625Y0032464D01*
X0287627Y0032306D01*
X0287625Y0032148D01*
X0287619Y0031990D01*
X0287609Y0031832D01*
X0287595Y0031674D01*
X0287577Y0031517D01*
X0287556Y0031360D01*
X0287530Y0031204D01*
X0287500Y0031048D01*
X0287467Y0030893D01*
X0287429Y0030740D01*
X0287388Y0030587D01*
X0287343Y0030435D01*
X0287294Y0030284D01*
X0287241Y0030135D01*
X0287185Y0029987D01*
X0287125Y0029841D01*
X0287061Y0029696D01*
X0286993Y0029553D01*
X0286922Y0029411D01*
X0286848Y0029271D01*
X0286770Y0029134D01*
X0286688Y0028998D01*
X0286604Y0028864D01*
X0286515Y0028733D01*
X0286424Y0028604D01*
X0286329Y0028477D01*
X0286232Y0028352D01*
X0286131Y0028230D01*
X0286027Y0028111D01*
X0285920Y0027994D01*
X0285810Y0027880D01*
X0285697Y0027769D01*
X0285582Y0027660D01*
X0285464Y0027555D01*
X0285343Y0027453D01*
X0285220Y0027353D01*
X0285094Y0027257D01*
X0284966Y0027164D01*
X0284836Y0027074D01*
X0284703Y0026988D01*
X0284568Y0026904D01*
X0284432Y0026825D01*
X0284293Y0026748D01*
X0284152Y0026676D01*
X0284010Y0026606D01*
X0283866Y0026541D01*
X0283720Y0026479D01*
X0283573Y0026421D01*
X0283424Y0026366D01*
X0283274Y0026315D01*
X0283123Y0026268D01*
X0282971Y0026225D01*
X0282818Y0026186D01*
X0282663Y0026150D01*
X0282508Y0026119D01*
X0282352Y0026091D01*
X0282196Y0026067D01*
X0282039Y0026047D01*
X0281881Y0026031D01*
X0281724Y0026019D01*
X0281565Y0026011D01*
X0281407Y0026007D01*
X0281249Y0026007D01*
X0281091Y0026011D01*
X0280932Y0026019D01*
X0280775Y0026031D01*
X0280617Y0026047D01*
X0280460Y0026067D01*
X0280304Y0026091D01*
X0280148Y0026119D01*
X0279993Y0026150D01*
X0279838Y0026186D01*
X0279685Y0026225D01*
X0279533Y0026268D01*
X0279382Y0026315D01*
X0279232Y0026366D01*
X0279083Y0026421D01*
X0278936Y0026479D01*
X0278790Y0026541D01*
X0278646Y0026606D01*
X0278504Y0026676D01*
X0278363Y0026748D01*
X0278224Y0026825D01*
X0278088Y0026904D01*
X0277953Y0026988D01*
X0277820Y0027074D01*
X0277690Y0027164D01*
X0277562Y0027257D01*
X0277436Y0027353D01*
X0277313Y0027453D01*
X0277192Y0027555D01*
X0277074Y0027660D01*
X0276959Y0027769D01*
X0276846Y0027880D01*
X0276736Y0027994D01*
X0276629Y0028111D01*
X0276525Y0028230D01*
X0276424Y0028352D01*
X0276327Y0028477D01*
X0276232Y0028604D01*
X0276141Y0028733D01*
X0276052Y0028864D01*
X0275968Y0028998D01*
X0275886Y0029134D01*
X0275808Y0029271D01*
X0275734Y0029411D01*
X0275663Y0029553D01*
X0275595Y0029696D01*
X0275531Y0029841D01*
X0275471Y0029987D01*
X0275415Y0030135D01*
X0275362Y0030284D01*
X0275313Y0030435D01*
X0275268Y0030587D01*
X0275227Y0030740D01*
X0275189Y0030893D01*
X0275156Y0031048D01*
X0275126Y0031204D01*
X0275100Y0031360D01*
X0275079Y0031517D01*
X0275061Y0031674D01*
X0275047Y0031832D01*
X0275037Y0031990D01*
X0275031Y0032148D01*
X0275029Y0032306D01*
X0297076Y0048054D02*
X0297200Y0048056D01*
X0297323Y0048062D01*
X0297447Y0048071D01*
X0297569Y0048085D01*
X0297692Y0048102D01*
X0297814Y0048124D01*
X0297935Y0048149D01*
X0298055Y0048178D01*
X0298174Y0048210D01*
X0298293Y0048247D01*
X0298410Y0048287D01*
X0298525Y0048330D01*
X0298640Y0048378D01*
X0298752Y0048429D01*
X0298863Y0048483D01*
X0298973Y0048541D01*
X0299080Y0048602D01*
X0299186Y0048667D01*
X0299289Y0048735D01*
X0299390Y0048806D01*
X0299489Y0048880D01*
X0299586Y0048957D01*
X0299680Y0049038D01*
X0299771Y0049121D01*
X0299860Y0049207D01*
X0299946Y0049296D01*
X0300029Y0049387D01*
X0300110Y0049481D01*
X0300187Y0049578D01*
X0300261Y0049677D01*
X0300332Y0049778D01*
X0300400Y0049881D01*
X0300465Y0049987D01*
X0300526Y0050094D01*
X0300584Y0050204D01*
X0300638Y0050315D01*
X0300689Y0050427D01*
X0300737Y0050542D01*
X0300780Y0050657D01*
X0300820Y0050774D01*
X0300857Y0050893D01*
X0300889Y0051012D01*
X0300918Y0051132D01*
X0300943Y0051253D01*
X0300965Y0051375D01*
X0300982Y0051498D01*
X0300996Y0051620D01*
X0301005Y0051744D01*
X0301011Y0051867D01*
X0301013Y0051991D01*
X0301013Y0185849D01*
X0301011Y0185973D01*
X0301005Y0186096D01*
X0300996Y0186220D01*
X0300982Y0186342D01*
X0300965Y0186465D01*
X0300943Y0186587D01*
X0300918Y0186708D01*
X0300889Y0186828D01*
X0300857Y0186947D01*
X0300820Y0187066D01*
X0300780Y0187183D01*
X0300737Y0187298D01*
X0300689Y0187413D01*
X0300638Y0187525D01*
X0300584Y0187636D01*
X0300526Y0187746D01*
X0300465Y0187853D01*
X0300400Y0187959D01*
X0300332Y0188062D01*
X0300261Y0188163D01*
X0300187Y0188262D01*
X0300110Y0188359D01*
X0300029Y0188453D01*
X0299946Y0188544D01*
X0299860Y0188633D01*
X0299771Y0188719D01*
X0299680Y0188802D01*
X0299586Y0188883D01*
X0299489Y0188960D01*
X0299390Y0189034D01*
X0299289Y0189105D01*
X0299186Y0189173D01*
X0299080Y0189238D01*
X0298973Y0189299D01*
X0298863Y0189357D01*
X0298752Y0189411D01*
X0298640Y0189462D01*
X0298525Y0189510D01*
X0298410Y0189553D01*
X0298293Y0189593D01*
X0298174Y0189630D01*
X0298055Y0189662D01*
X0297935Y0189691D01*
X0297814Y0189716D01*
X0297692Y0189738D01*
X0297569Y0189755D01*
X0297447Y0189769D01*
X0297323Y0189778D01*
X0297200Y0189784D01*
X0297076Y0189786D01*
X0307546Y0201597D02*
X0307548Y0201757D01*
X0307554Y0201916D01*
X0307564Y0202075D01*
X0307578Y0202234D01*
X0307596Y0202393D01*
X0307617Y0202551D01*
X0307643Y0202708D01*
X0307673Y0202865D01*
X0307706Y0203021D01*
X0307744Y0203176D01*
X0307785Y0203330D01*
X0307830Y0203483D01*
X0307879Y0203635D01*
X0307932Y0203786D01*
X0307988Y0203935D01*
X0308049Y0204083D01*
X0308112Y0204229D01*
X0308180Y0204374D01*
X0308251Y0204517D01*
X0308325Y0204658D01*
X0308403Y0204797D01*
X0308485Y0204934D01*
X0308570Y0205069D01*
X0308658Y0205202D01*
X0308750Y0205333D01*
X0308844Y0205461D01*
X0308942Y0205587D01*
X0309043Y0205711D01*
X0309147Y0205832D01*
X0309254Y0205950D01*
X0309364Y0206066D01*
X0309477Y0206179D01*
X0309593Y0206289D01*
X0309711Y0206396D01*
X0309832Y0206500D01*
X0309956Y0206601D01*
X0310082Y0206699D01*
X0310210Y0206793D01*
X0310341Y0206885D01*
X0310474Y0206973D01*
X0310609Y0207058D01*
X0310746Y0207140D01*
X0310885Y0207218D01*
X0311026Y0207292D01*
X0311169Y0207363D01*
X0311314Y0207431D01*
X0311460Y0207494D01*
X0311608Y0207555D01*
X0311757Y0207611D01*
X0311908Y0207664D01*
X0312060Y0207713D01*
X0312213Y0207758D01*
X0312367Y0207799D01*
X0312522Y0207837D01*
X0312678Y0207870D01*
X0312835Y0207900D01*
X0312992Y0207926D01*
X0313150Y0207947D01*
X0313309Y0207965D01*
X0313468Y0207979D01*
X0313627Y0207989D01*
X0313786Y0207995D01*
X0313946Y0207997D01*
X0314106Y0207995D01*
X0314265Y0207989D01*
X0314424Y0207979D01*
X0314583Y0207965D01*
X0314742Y0207947D01*
X0314900Y0207926D01*
X0315057Y0207900D01*
X0315214Y0207870D01*
X0315370Y0207837D01*
X0315525Y0207799D01*
X0315679Y0207758D01*
X0315832Y0207713D01*
X0315984Y0207664D01*
X0316135Y0207611D01*
X0316284Y0207555D01*
X0316432Y0207494D01*
X0316578Y0207431D01*
X0316723Y0207363D01*
X0316866Y0207292D01*
X0317007Y0207218D01*
X0317146Y0207140D01*
X0317283Y0207058D01*
X0317418Y0206973D01*
X0317551Y0206885D01*
X0317682Y0206793D01*
X0317810Y0206699D01*
X0317936Y0206601D01*
X0318060Y0206500D01*
X0318181Y0206396D01*
X0318299Y0206289D01*
X0318415Y0206179D01*
X0318528Y0206066D01*
X0318638Y0205950D01*
X0318745Y0205832D01*
X0318849Y0205711D01*
X0318950Y0205587D01*
X0319048Y0205461D01*
X0319142Y0205333D01*
X0319234Y0205202D01*
X0319322Y0205069D01*
X0319407Y0204934D01*
X0319489Y0204797D01*
X0319567Y0204658D01*
X0319641Y0204517D01*
X0319712Y0204374D01*
X0319780Y0204229D01*
X0319843Y0204083D01*
X0319904Y0203935D01*
X0319960Y0203786D01*
X0320013Y0203635D01*
X0320062Y0203483D01*
X0320107Y0203330D01*
X0320148Y0203176D01*
X0320186Y0203021D01*
X0320219Y0202865D01*
X0320249Y0202708D01*
X0320275Y0202551D01*
X0320296Y0202393D01*
X0320314Y0202234D01*
X0320328Y0202075D01*
X0320338Y0201916D01*
X0320344Y0201757D01*
X0320346Y0201597D01*
X0320344Y0201437D01*
X0320338Y0201278D01*
X0320328Y0201119D01*
X0320314Y0200960D01*
X0320296Y0200801D01*
X0320275Y0200643D01*
X0320249Y0200486D01*
X0320219Y0200329D01*
X0320186Y0200173D01*
X0320148Y0200018D01*
X0320107Y0199864D01*
X0320062Y0199711D01*
X0320013Y0199559D01*
X0319960Y0199408D01*
X0319904Y0199259D01*
X0319843Y0199111D01*
X0319780Y0198965D01*
X0319712Y0198820D01*
X0319641Y0198677D01*
X0319567Y0198536D01*
X0319489Y0198397D01*
X0319407Y0198260D01*
X0319322Y0198125D01*
X0319234Y0197992D01*
X0319142Y0197861D01*
X0319048Y0197733D01*
X0318950Y0197607D01*
X0318849Y0197483D01*
X0318745Y0197362D01*
X0318638Y0197244D01*
X0318528Y0197128D01*
X0318415Y0197015D01*
X0318299Y0196905D01*
X0318181Y0196798D01*
X0318060Y0196694D01*
X0317936Y0196593D01*
X0317810Y0196495D01*
X0317682Y0196401D01*
X0317551Y0196309D01*
X0317418Y0196221D01*
X0317283Y0196136D01*
X0317146Y0196054D01*
X0317007Y0195976D01*
X0316866Y0195902D01*
X0316723Y0195831D01*
X0316578Y0195763D01*
X0316432Y0195700D01*
X0316284Y0195639D01*
X0316135Y0195583D01*
X0315984Y0195530D01*
X0315832Y0195481D01*
X0315679Y0195436D01*
X0315525Y0195395D01*
X0315370Y0195357D01*
X0315214Y0195324D01*
X0315057Y0195294D01*
X0314900Y0195268D01*
X0314742Y0195247D01*
X0314583Y0195229D01*
X0314424Y0195215D01*
X0314265Y0195205D01*
X0314106Y0195199D01*
X0313946Y0195197D01*
X0313786Y0195199D01*
X0313627Y0195205D01*
X0313468Y0195215D01*
X0313309Y0195229D01*
X0313150Y0195247D01*
X0312992Y0195268D01*
X0312835Y0195294D01*
X0312678Y0195324D01*
X0312522Y0195357D01*
X0312367Y0195395D01*
X0312213Y0195436D01*
X0312060Y0195481D01*
X0311908Y0195530D01*
X0311757Y0195583D01*
X0311608Y0195639D01*
X0311460Y0195700D01*
X0311314Y0195763D01*
X0311169Y0195831D01*
X0311026Y0195902D01*
X0310885Y0195976D01*
X0310746Y0196054D01*
X0310609Y0196136D01*
X0310474Y0196221D01*
X0310341Y0196309D01*
X0310210Y0196401D01*
X0310082Y0196495D01*
X0309956Y0196593D01*
X0309832Y0196694D01*
X0309711Y0196798D01*
X0309593Y0196905D01*
X0309477Y0197015D01*
X0309364Y0197128D01*
X0309254Y0197244D01*
X0309147Y0197362D01*
X0309043Y0197483D01*
X0308942Y0197607D01*
X0308844Y0197733D01*
X0308750Y0197861D01*
X0308658Y0197992D01*
X0308570Y0198125D01*
X0308485Y0198260D01*
X0308403Y0198397D01*
X0308325Y0198536D01*
X0308251Y0198677D01*
X0308180Y0198820D01*
X0308112Y0198965D01*
X0308049Y0199111D01*
X0307988Y0199259D01*
X0307932Y0199408D01*
X0307879Y0199559D01*
X0307830Y0199711D01*
X0307785Y0199864D01*
X0307744Y0200018D01*
X0307706Y0200173D01*
X0307673Y0200329D01*
X0307643Y0200486D01*
X0307617Y0200643D01*
X0307596Y0200801D01*
X0307578Y0200960D01*
X0307564Y0201119D01*
X0307554Y0201278D01*
X0307548Y0201437D01*
X0307546Y0201597D01*
X0301013Y0205534D02*
X0301016Y0205819D01*
X0301027Y0206105D01*
X0301044Y0206390D01*
X0301068Y0206674D01*
X0301099Y0206958D01*
X0301137Y0207241D01*
X0301182Y0207522D01*
X0301233Y0207803D01*
X0301291Y0208083D01*
X0301356Y0208361D01*
X0301428Y0208637D01*
X0301506Y0208911D01*
X0301591Y0209184D01*
X0301683Y0209454D01*
X0301781Y0209722D01*
X0301885Y0209988D01*
X0301996Y0210251D01*
X0302113Y0210511D01*
X0302236Y0210769D01*
X0302366Y0211023D01*
X0302502Y0211274D01*
X0302643Y0211522D01*
X0302791Y0211766D01*
X0302944Y0212007D01*
X0303104Y0212243D01*
X0303269Y0212476D01*
X0303439Y0212705D01*
X0303615Y0212930D01*
X0303797Y0213150D01*
X0303983Y0213366D01*
X0304175Y0213577D01*
X0304372Y0213784D01*
X0304574Y0213986D01*
X0304781Y0214183D01*
X0304992Y0214375D01*
X0305208Y0214561D01*
X0305428Y0214743D01*
X0305653Y0214919D01*
X0305882Y0215089D01*
X0306115Y0215254D01*
X0306351Y0215414D01*
X0306592Y0215567D01*
X0306836Y0215715D01*
X0307084Y0215856D01*
X0307335Y0215992D01*
X0307589Y0216122D01*
X0307847Y0216245D01*
X0308107Y0216362D01*
X0308370Y0216473D01*
X0308636Y0216577D01*
X0308904Y0216675D01*
X0309174Y0216767D01*
X0309447Y0216852D01*
X0309721Y0216930D01*
X0309997Y0217002D01*
X0310275Y0217067D01*
X0310555Y0217125D01*
X0310836Y0217176D01*
X0311117Y0217221D01*
X0311400Y0217259D01*
X0311684Y0217290D01*
X0311968Y0217314D01*
X0312253Y0217331D01*
X0312539Y0217342D01*
X0312824Y0217345D01*
X0383690Y0217345D01*
X0377391Y0205534D02*
X0377393Y0205692D01*
X0377399Y0205850D01*
X0377409Y0206008D01*
X0377423Y0206166D01*
X0377441Y0206323D01*
X0377462Y0206480D01*
X0377488Y0206636D01*
X0377518Y0206792D01*
X0377551Y0206947D01*
X0377589Y0207100D01*
X0377630Y0207253D01*
X0377675Y0207405D01*
X0377724Y0207556D01*
X0377777Y0207705D01*
X0377833Y0207853D01*
X0377893Y0207999D01*
X0377957Y0208144D01*
X0378025Y0208287D01*
X0378096Y0208429D01*
X0378170Y0208569D01*
X0378248Y0208706D01*
X0378330Y0208842D01*
X0378414Y0208976D01*
X0378503Y0209107D01*
X0378594Y0209236D01*
X0378689Y0209363D01*
X0378786Y0209488D01*
X0378887Y0209610D01*
X0378991Y0209729D01*
X0379098Y0209846D01*
X0379208Y0209960D01*
X0379321Y0210071D01*
X0379436Y0210180D01*
X0379554Y0210285D01*
X0379675Y0210387D01*
X0379798Y0210487D01*
X0379924Y0210583D01*
X0380052Y0210676D01*
X0380182Y0210766D01*
X0380315Y0210852D01*
X0380450Y0210936D01*
X0380586Y0211015D01*
X0380725Y0211092D01*
X0380866Y0211164D01*
X0381008Y0211234D01*
X0381152Y0211299D01*
X0381298Y0211361D01*
X0381445Y0211419D01*
X0381594Y0211474D01*
X0381744Y0211525D01*
X0381895Y0211572D01*
X0382047Y0211615D01*
X0382200Y0211654D01*
X0382355Y0211690D01*
X0382510Y0211721D01*
X0382666Y0211749D01*
X0382822Y0211773D01*
X0382979Y0211793D01*
X0383137Y0211809D01*
X0383294Y0211821D01*
X0383453Y0211829D01*
X0383611Y0211833D01*
X0383769Y0211833D01*
X0383927Y0211829D01*
X0384086Y0211821D01*
X0384243Y0211809D01*
X0384401Y0211793D01*
X0384558Y0211773D01*
X0384714Y0211749D01*
X0384870Y0211721D01*
X0385025Y0211690D01*
X0385180Y0211654D01*
X0385333Y0211615D01*
X0385485Y0211572D01*
X0385636Y0211525D01*
X0385786Y0211474D01*
X0385935Y0211419D01*
X0386082Y0211361D01*
X0386228Y0211299D01*
X0386372Y0211234D01*
X0386514Y0211164D01*
X0386655Y0211092D01*
X0386794Y0211015D01*
X0386930Y0210936D01*
X0387065Y0210852D01*
X0387198Y0210766D01*
X0387328Y0210676D01*
X0387456Y0210583D01*
X0387582Y0210487D01*
X0387705Y0210387D01*
X0387826Y0210285D01*
X0387944Y0210180D01*
X0388059Y0210071D01*
X0388172Y0209960D01*
X0388282Y0209846D01*
X0388389Y0209729D01*
X0388493Y0209610D01*
X0388594Y0209488D01*
X0388691Y0209363D01*
X0388786Y0209236D01*
X0388877Y0209107D01*
X0388966Y0208976D01*
X0389050Y0208842D01*
X0389132Y0208706D01*
X0389210Y0208569D01*
X0389284Y0208429D01*
X0389355Y0208287D01*
X0389423Y0208144D01*
X0389487Y0207999D01*
X0389547Y0207853D01*
X0389603Y0207705D01*
X0389656Y0207556D01*
X0389705Y0207405D01*
X0389750Y0207253D01*
X0389791Y0207100D01*
X0389829Y0206947D01*
X0389862Y0206792D01*
X0389892Y0206636D01*
X0389918Y0206480D01*
X0389939Y0206323D01*
X0389957Y0206166D01*
X0389971Y0206008D01*
X0389981Y0205850D01*
X0389987Y0205692D01*
X0389989Y0205534D01*
X0389987Y0205376D01*
X0389981Y0205218D01*
X0389971Y0205060D01*
X0389957Y0204902D01*
X0389939Y0204745D01*
X0389918Y0204588D01*
X0389892Y0204432D01*
X0389862Y0204276D01*
X0389829Y0204121D01*
X0389791Y0203968D01*
X0389750Y0203815D01*
X0389705Y0203663D01*
X0389656Y0203512D01*
X0389603Y0203363D01*
X0389547Y0203215D01*
X0389487Y0203069D01*
X0389423Y0202924D01*
X0389355Y0202781D01*
X0389284Y0202639D01*
X0389210Y0202499D01*
X0389132Y0202362D01*
X0389050Y0202226D01*
X0388966Y0202092D01*
X0388877Y0201961D01*
X0388786Y0201832D01*
X0388691Y0201705D01*
X0388594Y0201580D01*
X0388493Y0201458D01*
X0388389Y0201339D01*
X0388282Y0201222D01*
X0388172Y0201108D01*
X0388059Y0200997D01*
X0387944Y0200888D01*
X0387826Y0200783D01*
X0387705Y0200681D01*
X0387582Y0200581D01*
X0387456Y0200485D01*
X0387328Y0200392D01*
X0387198Y0200302D01*
X0387065Y0200216D01*
X0386930Y0200132D01*
X0386794Y0200053D01*
X0386655Y0199976D01*
X0386514Y0199904D01*
X0386372Y0199834D01*
X0386228Y0199769D01*
X0386082Y0199707D01*
X0385935Y0199649D01*
X0385786Y0199594D01*
X0385636Y0199543D01*
X0385485Y0199496D01*
X0385333Y0199453D01*
X0385180Y0199414D01*
X0385025Y0199378D01*
X0384870Y0199347D01*
X0384714Y0199319D01*
X0384558Y0199295D01*
X0384401Y0199275D01*
X0384243Y0199259D01*
X0384086Y0199247D01*
X0383927Y0199239D01*
X0383769Y0199235D01*
X0383611Y0199235D01*
X0383453Y0199239D01*
X0383294Y0199247D01*
X0383137Y0199259D01*
X0382979Y0199275D01*
X0382822Y0199295D01*
X0382666Y0199319D01*
X0382510Y0199347D01*
X0382355Y0199378D01*
X0382200Y0199414D01*
X0382047Y0199453D01*
X0381895Y0199496D01*
X0381744Y0199543D01*
X0381594Y0199594D01*
X0381445Y0199649D01*
X0381298Y0199707D01*
X0381152Y0199769D01*
X0381008Y0199834D01*
X0380866Y0199904D01*
X0380725Y0199976D01*
X0380586Y0200053D01*
X0380450Y0200132D01*
X0380315Y0200216D01*
X0380182Y0200302D01*
X0380052Y0200392D01*
X0379924Y0200485D01*
X0379798Y0200581D01*
X0379675Y0200681D01*
X0379554Y0200783D01*
X0379436Y0200888D01*
X0379321Y0200997D01*
X0379208Y0201108D01*
X0379098Y0201222D01*
X0378991Y0201339D01*
X0378887Y0201458D01*
X0378786Y0201580D01*
X0378689Y0201705D01*
X0378594Y0201832D01*
X0378503Y0201961D01*
X0378414Y0202092D01*
X0378330Y0202226D01*
X0378248Y0202362D01*
X0378170Y0202499D01*
X0378096Y0202639D01*
X0378025Y0202781D01*
X0377957Y0202924D01*
X0377893Y0203069D01*
X0377833Y0203215D01*
X0377777Y0203363D01*
X0377724Y0203512D01*
X0377675Y0203663D01*
X0377630Y0203815D01*
X0377589Y0203968D01*
X0377551Y0204121D01*
X0377518Y0204276D01*
X0377488Y0204432D01*
X0377462Y0204588D01*
X0377441Y0204745D01*
X0377423Y0204902D01*
X0377409Y0205060D01*
X0377399Y0205218D01*
X0377393Y0205376D01*
X0377391Y0205534D01*
X0383690Y0217345D02*
X0383975Y0217342D01*
X0384261Y0217331D01*
X0384546Y0217314D01*
X0384830Y0217290D01*
X0385114Y0217259D01*
X0385397Y0217221D01*
X0385678Y0217176D01*
X0385959Y0217125D01*
X0386239Y0217067D01*
X0386517Y0217002D01*
X0386793Y0216930D01*
X0387067Y0216852D01*
X0387340Y0216767D01*
X0387610Y0216675D01*
X0387878Y0216577D01*
X0388144Y0216473D01*
X0388407Y0216362D01*
X0388667Y0216245D01*
X0388925Y0216122D01*
X0389179Y0215992D01*
X0389430Y0215856D01*
X0389678Y0215715D01*
X0389922Y0215567D01*
X0390163Y0215414D01*
X0390399Y0215254D01*
X0390632Y0215089D01*
X0390861Y0214919D01*
X0391086Y0214743D01*
X0391306Y0214561D01*
X0391522Y0214375D01*
X0391733Y0214183D01*
X0391940Y0213986D01*
X0392142Y0213784D01*
X0392339Y0213577D01*
X0392531Y0213366D01*
X0392717Y0213150D01*
X0392899Y0212930D01*
X0393075Y0212705D01*
X0393245Y0212476D01*
X0393410Y0212243D01*
X0393570Y0212007D01*
X0393723Y0211766D01*
X0393871Y0211522D01*
X0394012Y0211274D01*
X0394148Y0211023D01*
X0394278Y0210769D01*
X0394401Y0210511D01*
X0394518Y0210251D01*
X0394629Y0209988D01*
X0394733Y0209722D01*
X0394831Y0209454D01*
X0394923Y0209184D01*
X0395008Y0208911D01*
X0395086Y0208637D01*
X0395158Y0208361D01*
X0395223Y0208083D01*
X0395281Y0207803D01*
X0395332Y0207522D01*
X0395377Y0207241D01*
X0395415Y0206958D01*
X0395446Y0206674D01*
X0395470Y0206390D01*
X0395487Y0206105D01*
X0395498Y0205819D01*
X0395501Y0205534D01*
X0395501Y0032306D01*
X0395498Y0032021D01*
X0395487Y0031735D01*
X0395470Y0031450D01*
X0395446Y0031166D01*
X0395415Y0030882D01*
X0395377Y0030599D01*
X0395332Y0030318D01*
X0395281Y0030037D01*
X0395223Y0029757D01*
X0395158Y0029479D01*
X0395086Y0029203D01*
X0395008Y0028929D01*
X0394923Y0028656D01*
X0394831Y0028386D01*
X0394733Y0028118D01*
X0394629Y0027852D01*
X0394518Y0027589D01*
X0394401Y0027329D01*
X0394278Y0027071D01*
X0394148Y0026817D01*
X0394012Y0026566D01*
X0393871Y0026318D01*
X0393723Y0026074D01*
X0393570Y0025833D01*
X0393410Y0025597D01*
X0393245Y0025364D01*
X0393075Y0025135D01*
X0392899Y0024910D01*
X0392717Y0024690D01*
X0392531Y0024474D01*
X0392339Y0024263D01*
X0392142Y0024056D01*
X0391940Y0023854D01*
X0391733Y0023657D01*
X0391522Y0023465D01*
X0391306Y0023279D01*
X0391086Y0023097D01*
X0390861Y0022921D01*
X0390632Y0022751D01*
X0390399Y0022586D01*
X0390163Y0022426D01*
X0389922Y0022273D01*
X0389678Y0022125D01*
X0389430Y0021984D01*
X0389179Y0021848D01*
X0388925Y0021718D01*
X0388667Y0021595D01*
X0388407Y0021478D01*
X0388144Y0021367D01*
X0387878Y0021263D01*
X0387610Y0021165D01*
X0387340Y0021073D01*
X0387067Y0020988D01*
X0386793Y0020910D01*
X0386517Y0020838D01*
X0386239Y0020773D01*
X0385959Y0020715D01*
X0385678Y0020664D01*
X0385397Y0020619D01*
X0385114Y0020581D01*
X0384830Y0020550D01*
X0384546Y0020526D01*
X0384261Y0020509D01*
X0383975Y0020498D01*
X0383690Y0020495D01*
X0383690Y0020494D02*
X0312824Y0020494D01*
X0306525Y0032306D02*
X0306527Y0032464D01*
X0306533Y0032622D01*
X0306543Y0032780D01*
X0306557Y0032938D01*
X0306575Y0033095D01*
X0306596Y0033252D01*
X0306622Y0033408D01*
X0306652Y0033564D01*
X0306685Y0033719D01*
X0306723Y0033872D01*
X0306764Y0034025D01*
X0306809Y0034177D01*
X0306858Y0034328D01*
X0306911Y0034477D01*
X0306967Y0034625D01*
X0307027Y0034771D01*
X0307091Y0034916D01*
X0307159Y0035059D01*
X0307230Y0035201D01*
X0307304Y0035341D01*
X0307382Y0035478D01*
X0307464Y0035614D01*
X0307548Y0035748D01*
X0307637Y0035879D01*
X0307728Y0036008D01*
X0307823Y0036135D01*
X0307920Y0036260D01*
X0308021Y0036382D01*
X0308125Y0036501D01*
X0308232Y0036618D01*
X0308342Y0036732D01*
X0308455Y0036843D01*
X0308570Y0036952D01*
X0308688Y0037057D01*
X0308809Y0037159D01*
X0308932Y0037259D01*
X0309058Y0037355D01*
X0309186Y0037448D01*
X0309316Y0037538D01*
X0309449Y0037624D01*
X0309584Y0037708D01*
X0309720Y0037787D01*
X0309859Y0037864D01*
X0310000Y0037936D01*
X0310142Y0038006D01*
X0310286Y0038071D01*
X0310432Y0038133D01*
X0310579Y0038191D01*
X0310728Y0038246D01*
X0310878Y0038297D01*
X0311029Y0038344D01*
X0311181Y0038387D01*
X0311334Y0038426D01*
X0311489Y0038462D01*
X0311644Y0038493D01*
X0311800Y0038521D01*
X0311956Y0038545D01*
X0312113Y0038565D01*
X0312271Y0038581D01*
X0312428Y0038593D01*
X0312587Y0038601D01*
X0312745Y0038605D01*
X0312903Y0038605D01*
X0313061Y0038601D01*
X0313220Y0038593D01*
X0313377Y0038581D01*
X0313535Y0038565D01*
X0313692Y0038545D01*
X0313848Y0038521D01*
X0314004Y0038493D01*
X0314159Y0038462D01*
X0314314Y0038426D01*
X0314467Y0038387D01*
X0314619Y0038344D01*
X0314770Y0038297D01*
X0314920Y0038246D01*
X0315069Y0038191D01*
X0315216Y0038133D01*
X0315362Y0038071D01*
X0315506Y0038006D01*
X0315648Y0037936D01*
X0315789Y0037864D01*
X0315928Y0037787D01*
X0316064Y0037708D01*
X0316199Y0037624D01*
X0316332Y0037538D01*
X0316462Y0037448D01*
X0316590Y0037355D01*
X0316716Y0037259D01*
X0316839Y0037159D01*
X0316960Y0037057D01*
X0317078Y0036952D01*
X0317193Y0036843D01*
X0317306Y0036732D01*
X0317416Y0036618D01*
X0317523Y0036501D01*
X0317627Y0036382D01*
X0317728Y0036260D01*
X0317825Y0036135D01*
X0317920Y0036008D01*
X0318011Y0035879D01*
X0318100Y0035748D01*
X0318184Y0035614D01*
X0318266Y0035478D01*
X0318344Y0035341D01*
X0318418Y0035201D01*
X0318489Y0035059D01*
X0318557Y0034916D01*
X0318621Y0034771D01*
X0318681Y0034625D01*
X0318737Y0034477D01*
X0318790Y0034328D01*
X0318839Y0034177D01*
X0318884Y0034025D01*
X0318925Y0033872D01*
X0318963Y0033719D01*
X0318996Y0033564D01*
X0319026Y0033408D01*
X0319052Y0033252D01*
X0319073Y0033095D01*
X0319091Y0032938D01*
X0319105Y0032780D01*
X0319115Y0032622D01*
X0319121Y0032464D01*
X0319123Y0032306D01*
X0319121Y0032148D01*
X0319115Y0031990D01*
X0319105Y0031832D01*
X0319091Y0031674D01*
X0319073Y0031517D01*
X0319052Y0031360D01*
X0319026Y0031204D01*
X0318996Y0031048D01*
X0318963Y0030893D01*
X0318925Y0030740D01*
X0318884Y0030587D01*
X0318839Y0030435D01*
X0318790Y0030284D01*
X0318737Y0030135D01*
X0318681Y0029987D01*
X0318621Y0029841D01*
X0318557Y0029696D01*
X0318489Y0029553D01*
X0318418Y0029411D01*
X0318344Y0029271D01*
X0318266Y0029134D01*
X0318184Y0028998D01*
X0318100Y0028864D01*
X0318011Y0028733D01*
X0317920Y0028604D01*
X0317825Y0028477D01*
X0317728Y0028352D01*
X0317627Y0028230D01*
X0317523Y0028111D01*
X0317416Y0027994D01*
X0317306Y0027880D01*
X0317193Y0027769D01*
X0317078Y0027660D01*
X0316960Y0027555D01*
X0316839Y0027453D01*
X0316716Y0027353D01*
X0316590Y0027257D01*
X0316462Y0027164D01*
X0316332Y0027074D01*
X0316199Y0026988D01*
X0316064Y0026904D01*
X0315928Y0026825D01*
X0315789Y0026748D01*
X0315648Y0026676D01*
X0315506Y0026606D01*
X0315362Y0026541D01*
X0315216Y0026479D01*
X0315069Y0026421D01*
X0314920Y0026366D01*
X0314770Y0026315D01*
X0314619Y0026268D01*
X0314467Y0026225D01*
X0314314Y0026186D01*
X0314159Y0026150D01*
X0314004Y0026119D01*
X0313848Y0026091D01*
X0313692Y0026067D01*
X0313535Y0026047D01*
X0313377Y0026031D01*
X0313220Y0026019D01*
X0313061Y0026011D01*
X0312903Y0026007D01*
X0312745Y0026007D01*
X0312587Y0026011D01*
X0312428Y0026019D01*
X0312271Y0026031D01*
X0312113Y0026047D01*
X0311956Y0026067D01*
X0311800Y0026091D01*
X0311644Y0026119D01*
X0311489Y0026150D01*
X0311334Y0026186D01*
X0311181Y0026225D01*
X0311029Y0026268D01*
X0310878Y0026315D01*
X0310728Y0026366D01*
X0310579Y0026421D01*
X0310432Y0026479D01*
X0310286Y0026541D01*
X0310142Y0026606D01*
X0310000Y0026676D01*
X0309859Y0026748D01*
X0309720Y0026825D01*
X0309584Y0026904D01*
X0309449Y0026988D01*
X0309316Y0027074D01*
X0309186Y0027164D01*
X0309058Y0027257D01*
X0308932Y0027353D01*
X0308809Y0027453D01*
X0308688Y0027555D01*
X0308570Y0027660D01*
X0308455Y0027769D01*
X0308342Y0027880D01*
X0308232Y0027994D01*
X0308125Y0028111D01*
X0308021Y0028230D01*
X0307920Y0028352D01*
X0307823Y0028477D01*
X0307728Y0028604D01*
X0307637Y0028733D01*
X0307548Y0028864D01*
X0307464Y0028998D01*
X0307382Y0029134D01*
X0307304Y0029271D01*
X0307230Y0029411D01*
X0307159Y0029553D01*
X0307091Y0029696D01*
X0307027Y0029841D01*
X0306967Y0029987D01*
X0306911Y0030135D01*
X0306858Y0030284D01*
X0306809Y0030435D01*
X0306764Y0030587D01*
X0306723Y0030740D01*
X0306685Y0030893D01*
X0306652Y0031048D01*
X0306622Y0031204D01*
X0306596Y0031360D01*
X0306575Y0031517D01*
X0306557Y0031674D01*
X0306543Y0031832D01*
X0306533Y0031990D01*
X0306527Y0032148D01*
X0306525Y0032306D01*
X0301013Y0032306D02*
X0301016Y0032021D01*
X0301027Y0031735D01*
X0301044Y0031450D01*
X0301068Y0031166D01*
X0301099Y0030882D01*
X0301137Y0030599D01*
X0301182Y0030318D01*
X0301233Y0030037D01*
X0301291Y0029757D01*
X0301356Y0029479D01*
X0301428Y0029203D01*
X0301506Y0028929D01*
X0301591Y0028656D01*
X0301683Y0028386D01*
X0301781Y0028118D01*
X0301885Y0027852D01*
X0301996Y0027589D01*
X0302113Y0027329D01*
X0302236Y0027071D01*
X0302366Y0026817D01*
X0302502Y0026566D01*
X0302643Y0026318D01*
X0302791Y0026074D01*
X0302944Y0025833D01*
X0303104Y0025597D01*
X0303269Y0025364D01*
X0303439Y0025135D01*
X0303615Y0024910D01*
X0303797Y0024690D01*
X0303983Y0024474D01*
X0304175Y0024263D01*
X0304372Y0024056D01*
X0304574Y0023854D01*
X0304781Y0023657D01*
X0304992Y0023465D01*
X0305208Y0023279D01*
X0305428Y0023097D01*
X0305653Y0022921D01*
X0305882Y0022751D01*
X0306115Y0022586D01*
X0306351Y0022426D01*
X0306592Y0022273D01*
X0306836Y0022125D01*
X0307084Y0021984D01*
X0307335Y0021848D01*
X0307589Y0021718D01*
X0307847Y0021595D01*
X0308107Y0021478D01*
X0308370Y0021367D01*
X0308636Y0021263D01*
X0308904Y0021165D01*
X0309174Y0021073D01*
X0309447Y0020988D01*
X0309721Y0020910D01*
X0309997Y0020838D01*
X0310275Y0020773D01*
X0310555Y0020715D01*
X0310836Y0020664D01*
X0311117Y0020619D01*
X0311400Y0020581D01*
X0311684Y0020550D01*
X0311968Y0020526D01*
X0312253Y0020509D01*
X0312539Y0020498D01*
X0312824Y0020495D01*
X0297076Y0048054D02*
X0296952Y0048056D01*
X0296829Y0048062D01*
X0296705Y0048071D01*
X0296583Y0048085D01*
X0296460Y0048102D01*
X0296338Y0048124D01*
X0296217Y0048149D01*
X0296097Y0048178D01*
X0295978Y0048210D01*
X0295859Y0048247D01*
X0295742Y0048287D01*
X0295627Y0048330D01*
X0295512Y0048378D01*
X0295400Y0048429D01*
X0295289Y0048483D01*
X0295179Y0048541D01*
X0295072Y0048602D01*
X0294966Y0048667D01*
X0294863Y0048735D01*
X0294762Y0048806D01*
X0294663Y0048880D01*
X0294566Y0048957D01*
X0294472Y0049038D01*
X0294381Y0049121D01*
X0294292Y0049207D01*
X0294206Y0049296D01*
X0294123Y0049387D01*
X0294042Y0049481D01*
X0293965Y0049578D01*
X0293891Y0049677D01*
X0293820Y0049778D01*
X0293752Y0049881D01*
X0293687Y0049987D01*
X0293626Y0050094D01*
X0293568Y0050204D01*
X0293514Y0050315D01*
X0293463Y0050427D01*
X0293415Y0050542D01*
X0293372Y0050657D01*
X0293332Y0050774D01*
X0293295Y0050893D01*
X0293263Y0051012D01*
X0293234Y0051132D01*
X0293209Y0051253D01*
X0293187Y0051375D01*
X0293170Y0051498D01*
X0293156Y0051620D01*
X0293147Y0051744D01*
X0293141Y0051867D01*
X0293139Y0051991D01*
X0373353Y0033428D02*
X0373355Y0033588D01*
X0373361Y0033747D01*
X0373371Y0033906D01*
X0373385Y0034065D01*
X0373403Y0034224D01*
X0373424Y0034382D01*
X0373450Y0034539D01*
X0373480Y0034696D01*
X0373513Y0034852D01*
X0373551Y0035007D01*
X0373592Y0035161D01*
X0373637Y0035314D01*
X0373686Y0035466D01*
X0373739Y0035617D01*
X0373795Y0035766D01*
X0373856Y0035914D01*
X0373919Y0036060D01*
X0373987Y0036205D01*
X0374058Y0036348D01*
X0374132Y0036489D01*
X0374210Y0036628D01*
X0374292Y0036765D01*
X0374377Y0036900D01*
X0374465Y0037033D01*
X0374557Y0037164D01*
X0374651Y0037292D01*
X0374749Y0037418D01*
X0374850Y0037542D01*
X0374954Y0037663D01*
X0375061Y0037781D01*
X0375171Y0037897D01*
X0375284Y0038010D01*
X0375400Y0038120D01*
X0375518Y0038227D01*
X0375639Y0038331D01*
X0375763Y0038432D01*
X0375889Y0038530D01*
X0376017Y0038624D01*
X0376148Y0038716D01*
X0376281Y0038804D01*
X0376416Y0038889D01*
X0376553Y0038971D01*
X0376692Y0039049D01*
X0376833Y0039123D01*
X0376976Y0039194D01*
X0377121Y0039262D01*
X0377267Y0039325D01*
X0377415Y0039386D01*
X0377564Y0039442D01*
X0377715Y0039495D01*
X0377867Y0039544D01*
X0378020Y0039589D01*
X0378174Y0039630D01*
X0378329Y0039668D01*
X0378485Y0039701D01*
X0378642Y0039731D01*
X0378799Y0039757D01*
X0378957Y0039778D01*
X0379116Y0039796D01*
X0379275Y0039810D01*
X0379434Y0039820D01*
X0379593Y0039826D01*
X0379753Y0039828D01*
X0379913Y0039826D01*
X0380072Y0039820D01*
X0380231Y0039810D01*
X0380390Y0039796D01*
X0380549Y0039778D01*
X0380707Y0039757D01*
X0380864Y0039731D01*
X0381021Y0039701D01*
X0381177Y0039668D01*
X0381332Y0039630D01*
X0381486Y0039589D01*
X0381639Y0039544D01*
X0381791Y0039495D01*
X0381942Y0039442D01*
X0382091Y0039386D01*
X0382239Y0039325D01*
X0382385Y0039262D01*
X0382530Y0039194D01*
X0382673Y0039123D01*
X0382814Y0039049D01*
X0382953Y0038971D01*
X0383090Y0038889D01*
X0383225Y0038804D01*
X0383358Y0038716D01*
X0383489Y0038624D01*
X0383617Y0038530D01*
X0383743Y0038432D01*
X0383867Y0038331D01*
X0383988Y0038227D01*
X0384106Y0038120D01*
X0384222Y0038010D01*
X0384335Y0037897D01*
X0384445Y0037781D01*
X0384552Y0037663D01*
X0384656Y0037542D01*
X0384757Y0037418D01*
X0384855Y0037292D01*
X0384949Y0037164D01*
X0385041Y0037033D01*
X0385129Y0036900D01*
X0385214Y0036765D01*
X0385296Y0036628D01*
X0385374Y0036489D01*
X0385448Y0036348D01*
X0385519Y0036205D01*
X0385587Y0036060D01*
X0385650Y0035914D01*
X0385711Y0035766D01*
X0385767Y0035617D01*
X0385820Y0035466D01*
X0385869Y0035314D01*
X0385914Y0035161D01*
X0385955Y0035007D01*
X0385993Y0034852D01*
X0386026Y0034696D01*
X0386056Y0034539D01*
X0386082Y0034382D01*
X0386103Y0034224D01*
X0386121Y0034065D01*
X0386135Y0033906D01*
X0386145Y0033747D01*
X0386151Y0033588D01*
X0386153Y0033428D01*
X0386151Y0033268D01*
X0386145Y0033109D01*
X0386135Y0032950D01*
X0386121Y0032791D01*
X0386103Y0032632D01*
X0386082Y0032474D01*
X0386056Y0032317D01*
X0386026Y0032160D01*
X0385993Y0032004D01*
X0385955Y0031849D01*
X0385914Y0031695D01*
X0385869Y0031542D01*
X0385820Y0031390D01*
X0385767Y0031239D01*
X0385711Y0031090D01*
X0385650Y0030942D01*
X0385587Y0030796D01*
X0385519Y0030651D01*
X0385448Y0030508D01*
X0385374Y0030367D01*
X0385296Y0030228D01*
X0385214Y0030091D01*
X0385129Y0029956D01*
X0385041Y0029823D01*
X0384949Y0029692D01*
X0384855Y0029564D01*
X0384757Y0029438D01*
X0384656Y0029314D01*
X0384552Y0029193D01*
X0384445Y0029075D01*
X0384335Y0028959D01*
X0384222Y0028846D01*
X0384106Y0028736D01*
X0383988Y0028629D01*
X0383867Y0028525D01*
X0383743Y0028424D01*
X0383617Y0028326D01*
X0383489Y0028232D01*
X0383358Y0028140D01*
X0383225Y0028052D01*
X0383090Y0027967D01*
X0382953Y0027885D01*
X0382814Y0027807D01*
X0382673Y0027733D01*
X0382530Y0027662D01*
X0382385Y0027594D01*
X0382239Y0027531D01*
X0382091Y0027470D01*
X0381942Y0027414D01*
X0381791Y0027361D01*
X0381639Y0027312D01*
X0381486Y0027267D01*
X0381332Y0027226D01*
X0381177Y0027188D01*
X0381021Y0027155D01*
X0380864Y0027125D01*
X0380707Y0027099D01*
X0380549Y0027078D01*
X0380390Y0027060D01*
X0380231Y0027046D01*
X0380072Y0027036D01*
X0379913Y0027030D01*
X0379753Y0027028D01*
X0379593Y0027030D01*
X0379434Y0027036D01*
X0379275Y0027046D01*
X0379116Y0027060D01*
X0378957Y0027078D01*
X0378799Y0027099D01*
X0378642Y0027125D01*
X0378485Y0027155D01*
X0378329Y0027188D01*
X0378174Y0027226D01*
X0378020Y0027267D01*
X0377867Y0027312D01*
X0377715Y0027361D01*
X0377564Y0027414D01*
X0377415Y0027470D01*
X0377267Y0027531D01*
X0377121Y0027594D01*
X0376976Y0027662D01*
X0376833Y0027733D01*
X0376692Y0027807D01*
X0376553Y0027885D01*
X0376416Y0027967D01*
X0376281Y0028052D01*
X0376148Y0028140D01*
X0376017Y0028232D01*
X0375889Y0028326D01*
X0375763Y0028424D01*
X0375639Y0028525D01*
X0375518Y0028629D01*
X0375400Y0028736D01*
X0375284Y0028846D01*
X0375171Y0028959D01*
X0375061Y0029075D01*
X0374954Y0029193D01*
X0374850Y0029314D01*
X0374749Y0029438D01*
X0374651Y0029564D01*
X0374557Y0029692D01*
X0374465Y0029823D01*
X0374377Y0029956D01*
X0374292Y0030091D01*
X0374210Y0030228D01*
X0374132Y0030367D01*
X0374058Y0030508D01*
X0373987Y0030651D01*
X0373919Y0030796D01*
X0373856Y0030942D01*
X0373795Y0031090D01*
X0373739Y0031239D01*
X0373686Y0031390D01*
X0373637Y0031542D01*
X0373592Y0031695D01*
X0373551Y0031849D01*
X0373513Y0032004D01*
X0373480Y0032160D01*
X0373450Y0032317D01*
X0373424Y0032474D01*
X0373403Y0032632D01*
X0373385Y0032791D01*
X0373371Y0032950D01*
X0373361Y0033109D01*
X0373355Y0033268D01*
X0373353Y0033428D01*
X0373353Y0078428D02*
X0373355Y0078588D01*
X0373361Y0078747D01*
X0373371Y0078906D01*
X0373385Y0079065D01*
X0373403Y0079224D01*
X0373424Y0079382D01*
X0373450Y0079539D01*
X0373480Y0079696D01*
X0373513Y0079852D01*
X0373551Y0080007D01*
X0373592Y0080161D01*
X0373637Y0080314D01*
X0373686Y0080466D01*
X0373739Y0080617D01*
X0373795Y0080766D01*
X0373856Y0080914D01*
X0373919Y0081060D01*
X0373987Y0081205D01*
X0374058Y0081348D01*
X0374132Y0081489D01*
X0374210Y0081628D01*
X0374292Y0081765D01*
X0374377Y0081900D01*
X0374465Y0082033D01*
X0374557Y0082164D01*
X0374651Y0082292D01*
X0374749Y0082418D01*
X0374850Y0082542D01*
X0374954Y0082663D01*
X0375061Y0082781D01*
X0375171Y0082897D01*
X0375284Y0083010D01*
X0375400Y0083120D01*
X0375518Y0083227D01*
X0375639Y0083331D01*
X0375763Y0083432D01*
X0375889Y0083530D01*
X0376017Y0083624D01*
X0376148Y0083716D01*
X0376281Y0083804D01*
X0376416Y0083889D01*
X0376553Y0083971D01*
X0376692Y0084049D01*
X0376833Y0084123D01*
X0376976Y0084194D01*
X0377121Y0084262D01*
X0377267Y0084325D01*
X0377415Y0084386D01*
X0377564Y0084442D01*
X0377715Y0084495D01*
X0377867Y0084544D01*
X0378020Y0084589D01*
X0378174Y0084630D01*
X0378329Y0084668D01*
X0378485Y0084701D01*
X0378642Y0084731D01*
X0378799Y0084757D01*
X0378957Y0084778D01*
X0379116Y0084796D01*
X0379275Y0084810D01*
X0379434Y0084820D01*
X0379593Y0084826D01*
X0379753Y0084828D01*
X0379913Y0084826D01*
X0380072Y0084820D01*
X0380231Y0084810D01*
X0380390Y0084796D01*
X0380549Y0084778D01*
X0380707Y0084757D01*
X0380864Y0084731D01*
X0381021Y0084701D01*
X0381177Y0084668D01*
X0381332Y0084630D01*
X0381486Y0084589D01*
X0381639Y0084544D01*
X0381791Y0084495D01*
X0381942Y0084442D01*
X0382091Y0084386D01*
X0382239Y0084325D01*
X0382385Y0084262D01*
X0382530Y0084194D01*
X0382673Y0084123D01*
X0382814Y0084049D01*
X0382953Y0083971D01*
X0383090Y0083889D01*
X0383225Y0083804D01*
X0383358Y0083716D01*
X0383489Y0083624D01*
X0383617Y0083530D01*
X0383743Y0083432D01*
X0383867Y0083331D01*
X0383988Y0083227D01*
X0384106Y0083120D01*
X0384222Y0083010D01*
X0384335Y0082897D01*
X0384445Y0082781D01*
X0384552Y0082663D01*
X0384656Y0082542D01*
X0384757Y0082418D01*
X0384855Y0082292D01*
X0384949Y0082164D01*
X0385041Y0082033D01*
X0385129Y0081900D01*
X0385214Y0081765D01*
X0385296Y0081628D01*
X0385374Y0081489D01*
X0385448Y0081348D01*
X0385519Y0081205D01*
X0385587Y0081060D01*
X0385650Y0080914D01*
X0385711Y0080766D01*
X0385767Y0080617D01*
X0385820Y0080466D01*
X0385869Y0080314D01*
X0385914Y0080161D01*
X0385955Y0080007D01*
X0385993Y0079852D01*
X0386026Y0079696D01*
X0386056Y0079539D01*
X0386082Y0079382D01*
X0386103Y0079224D01*
X0386121Y0079065D01*
X0386135Y0078906D01*
X0386145Y0078747D01*
X0386151Y0078588D01*
X0386153Y0078428D01*
X0386151Y0078268D01*
X0386145Y0078109D01*
X0386135Y0077950D01*
X0386121Y0077791D01*
X0386103Y0077632D01*
X0386082Y0077474D01*
X0386056Y0077317D01*
X0386026Y0077160D01*
X0385993Y0077004D01*
X0385955Y0076849D01*
X0385914Y0076695D01*
X0385869Y0076542D01*
X0385820Y0076390D01*
X0385767Y0076239D01*
X0385711Y0076090D01*
X0385650Y0075942D01*
X0385587Y0075796D01*
X0385519Y0075651D01*
X0385448Y0075508D01*
X0385374Y0075367D01*
X0385296Y0075228D01*
X0385214Y0075091D01*
X0385129Y0074956D01*
X0385041Y0074823D01*
X0384949Y0074692D01*
X0384855Y0074564D01*
X0384757Y0074438D01*
X0384656Y0074314D01*
X0384552Y0074193D01*
X0384445Y0074075D01*
X0384335Y0073959D01*
X0384222Y0073846D01*
X0384106Y0073736D01*
X0383988Y0073629D01*
X0383867Y0073525D01*
X0383743Y0073424D01*
X0383617Y0073326D01*
X0383489Y0073232D01*
X0383358Y0073140D01*
X0383225Y0073052D01*
X0383090Y0072967D01*
X0382953Y0072885D01*
X0382814Y0072807D01*
X0382673Y0072733D01*
X0382530Y0072662D01*
X0382385Y0072594D01*
X0382239Y0072531D01*
X0382091Y0072470D01*
X0381942Y0072414D01*
X0381791Y0072361D01*
X0381639Y0072312D01*
X0381486Y0072267D01*
X0381332Y0072226D01*
X0381177Y0072188D01*
X0381021Y0072155D01*
X0380864Y0072125D01*
X0380707Y0072099D01*
X0380549Y0072078D01*
X0380390Y0072060D01*
X0380231Y0072046D01*
X0380072Y0072036D01*
X0379913Y0072030D01*
X0379753Y0072028D01*
X0379593Y0072030D01*
X0379434Y0072036D01*
X0379275Y0072046D01*
X0379116Y0072060D01*
X0378957Y0072078D01*
X0378799Y0072099D01*
X0378642Y0072125D01*
X0378485Y0072155D01*
X0378329Y0072188D01*
X0378174Y0072226D01*
X0378020Y0072267D01*
X0377867Y0072312D01*
X0377715Y0072361D01*
X0377564Y0072414D01*
X0377415Y0072470D01*
X0377267Y0072531D01*
X0377121Y0072594D01*
X0376976Y0072662D01*
X0376833Y0072733D01*
X0376692Y0072807D01*
X0376553Y0072885D01*
X0376416Y0072967D01*
X0376281Y0073052D01*
X0376148Y0073140D01*
X0376017Y0073232D01*
X0375889Y0073326D01*
X0375763Y0073424D01*
X0375639Y0073525D01*
X0375518Y0073629D01*
X0375400Y0073736D01*
X0375284Y0073846D01*
X0375171Y0073959D01*
X0375061Y0074075D01*
X0374954Y0074193D01*
X0374850Y0074314D01*
X0374749Y0074438D01*
X0374651Y0074564D01*
X0374557Y0074692D01*
X0374465Y0074823D01*
X0374377Y0074956D01*
X0374292Y0075091D01*
X0374210Y0075228D01*
X0374132Y0075367D01*
X0374058Y0075508D01*
X0373987Y0075651D01*
X0373919Y0075796D01*
X0373856Y0075942D01*
X0373795Y0076090D01*
X0373739Y0076239D01*
X0373686Y0076390D01*
X0373637Y0076542D01*
X0373592Y0076695D01*
X0373551Y0076849D01*
X0373513Y0077004D01*
X0373480Y0077160D01*
X0373450Y0077317D01*
X0373424Y0077474D01*
X0373403Y0077632D01*
X0373385Y0077791D01*
X0373371Y0077950D01*
X0373361Y0078109D01*
X0373355Y0078268D01*
X0373353Y0078428D01*
X0373353Y0104294D02*
X0373355Y0104454D01*
X0373361Y0104613D01*
X0373371Y0104772D01*
X0373385Y0104931D01*
X0373403Y0105090D01*
X0373424Y0105248D01*
X0373450Y0105405D01*
X0373480Y0105562D01*
X0373513Y0105718D01*
X0373551Y0105873D01*
X0373592Y0106027D01*
X0373637Y0106180D01*
X0373686Y0106332D01*
X0373739Y0106483D01*
X0373795Y0106632D01*
X0373856Y0106780D01*
X0373919Y0106926D01*
X0373987Y0107071D01*
X0374058Y0107214D01*
X0374132Y0107355D01*
X0374210Y0107494D01*
X0374292Y0107631D01*
X0374377Y0107766D01*
X0374465Y0107899D01*
X0374557Y0108030D01*
X0374651Y0108158D01*
X0374749Y0108284D01*
X0374850Y0108408D01*
X0374954Y0108529D01*
X0375061Y0108647D01*
X0375171Y0108763D01*
X0375284Y0108876D01*
X0375400Y0108986D01*
X0375518Y0109093D01*
X0375639Y0109197D01*
X0375763Y0109298D01*
X0375889Y0109396D01*
X0376017Y0109490D01*
X0376148Y0109582D01*
X0376281Y0109670D01*
X0376416Y0109755D01*
X0376553Y0109837D01*
X0376692Y0109915D01*
X0376833Y0109989D01*
X0376976Y0110060D01*
X0377121Y0110128D01*
X0377267Y0110191D01*
X0377415Y0110252D01*
X0377564Y0110308D01*
X0377715Y0110361D01*
X0377867Y0110410D01*
X0378020Y0110455D01*
X0378174Y0110496D01*
X0378329Y0110534D01*
X0378485Y0110567D01*
X0378642Y0110597D01*
X0378799Y0110623D01*
X0378957Y0110644D01*
X0379116Y0110662D01*
X0379275Y0110676D01*
X0379434Y0110686D01*
X0379593Y0110692D01*
X0379753Y0110694D01*
X0379913Y0110692D01*
X0380072Y0110686D01*
X0380231Y0110676D01*
X0380390Y0110662D01*
X0380549Y0110644D01*
X0380707Y0110623D01*
X0380864Y0110597D01*
X0381021Y0110567D01*
X0381177Y0110534D01*
X0381332Y0110496D01*
X0381486Y0110455D01*
X0381639Y0110410D01*
X0381791Y0110361D01*
X0381942Y0110308D01*
X0382091Y0110252D01*
X0382239Y0110191D01*
X0382385Y0110128D01*
X0382530Y0110060D01*
X0382673Y0109989D01*
X0382814Y0109915D01*
X0382953Y0109837D01*
X0383090Y0109755D01*
X0383225Y0109670D01*
X0383358Y0109582D01*
X0383489Y0109490D01*
X0383617Y0109396D01*
X0383743Y0109298D01*
X0383867Y0109197D01*
X0383988Y0109093D01*
X0384106Y0108986D01*
X0384222Y0108876D01*
X0384335Y0108763D01*
X0384445Y0108647D01*
X0384552Y0108529D01*
X0384656Y0108408D01*
X0384757Y0108284D01*
X0384855Y0108158D01*
X0384949Y0108030D01*
X0385041Y0107899D01*
X0385129Y0107766D01*
X0385214Y0107631D01*
X0385296Y0107494D01*
X0385374Y0107355D01*
X0385448Y0107214D01*
X0385519Y0107071D01*
X0385587Y0106926D01*
X0385650Y0106780D01*
X0385711Y0106632D01*
X0385767Y0106483D01*
X0385820Y0106332D01*
X0385869Y0106180D01*
X0385914Y0106027D01*
X0385955Y0105873D01*
X0385993Y0105718D01*
X0386026Y0105562D01*
X0386056Y0105405D01*
X0386082Y0105248D01*
X0386103Y0105090D01*
X0386121Y0104931D01*
X0386135Y0104772D01*
X0386145Y0104613D01*
X0386151Y0104454D01*
X0386153Y0104294D01*
X0386151Y0104134D01*
X0386145Y0103975D01*
X0386135Y0103816D01*
X0386121Y0103657D01*
X0386103Y0103498D01*
X0386082Y0103340D01*
X0386056Y0103183D01*
X0386026Y0103026D01*
X0385993Y0102870D01*
X0385955Y0102715D01*
X0385914Y0102561D01*
X0385869Y0102408D01*
X0385820Y0102256D01*
X0385767Y0102105D01*
X0385711Y0101956D01*
X0385650Y0101808D01*
X0385587Y0101662D01*
X0385519Y0101517D01*
X0385448Y0101374D01*
X0385374Y0101233D01*
X0385296Y0101094D01*
X0385214Y0100957D01*
X0385129Y0100822D01*
X0385041Y0100689D01*
X0384949Y0100558D01*
X0384855Y0100430D01*
X0384757Y0100304D01*
X0384656Y0100180D01*
X0384552Y0100059D01*
X0384445Y0099941D01*
X0384335Y0099825D01*
X0384222Y0099712D01*
X0384106Y0099602D01*
X0383988Y0099495D01*
X0383867Y0099391D01*
X0383743Y0099290D01*
X0383617Y0099192D01*
X0383489Y0099098D01*
X0383358Y0099006D01*
X0383225Y0098918D01*
X0383090Y0098833D01*
X0382953Y0098751D01*
X0382814Y0098673D01*
X0382673Y0098599D01*
X0382530Y0098528D01*
X0382385Y0098460D01*
X0382239Y0098397D01*
X0382091Y0098336D01*
X0381942Y0098280D01*
X0381791Y0098227D01*
X0381639Y0098178D01*
X0381486Y0098133D01*
X0381332Y0098092D01*
X0381177Y0098054D01*
X0381021Y0098021D01*
X0380864Y0097991D01*
X0380707Y0097965D01*
X0380549Y0097944D01*
X0380390Y0097926D01*
X0380231Y0097912D01*
X0380072Y0097902D01*
X0379913Y0097896D01*
X0379753Y0097894D01*
X0379593Y0097896D01*
X0379434Y0097902D01*
X0379275Y0097912D01*
X0379116Y0097926D01*
X0378957Y0097944D01*
X0378799Y0097965D01*
X0378642Y0097991D01*
X0378485Y0098021D01*
X0378329Y0098054D01*
X0378174Y0098092D01*
X0378020Y0098133D01*
X0377867Y0098178D01*
X0377715Y0098227D01*
X0377564Y0098280D01*
X0377415Y0098336D01*
X0377267Y0098397D01*
X0377121Y0098460D01*
X0376976Y0098528D01*
X0376833Y0098599D01*
X0376692Y0098673D01*
X0376553Y0098751D01*
X0376416Y0098833D01*
X0376281Y0098918D01*
X0376148Y0099006D01*
X0376017Y0099098D01*
X0375889Y0099192D01*
X0375763Y0099290D01*
X0375639Y0099391D01*
X0375518Y0099495D01*
X0375400Y0099602D01*
X0375284Y0099712D01*
X0375171Y0099825D01*
X0375061Y0099941D01*
X0374954Y0100059D01*
X0374850Y0100180D01*
X0374749Y0100304D01*
X0374651Y0100430D01*
X0374557Y0100558D01*
X0374465Y0100689D01*
X0374377Y0100822D01*
X0374292Y0100957D01*
X0374210Y0101094D01*
X0374132Y0101233D01*
X0374058Y0101374D01*
X0373987Y0101517D01*
X0373919Y0101662D01*
X0373856Y0101808D01*
X0373795Y0101956D01*
X0373739Y0102105D01*
X0373686Y0102256D01*
X0373637Y0102408D01*
X0373592Y0102561D01*
X0373551Y0102715D01*
X0373513Y0102870D01*
X0373480Y0103026D01*
X0373450Y0103183D01*
X0373424Y0103340D01*
X0373403Y0103498D01*
X0373385Y0103657D01*
X0373371Y0103816D01*
X0373361Y0103975D01*
X0373355Y0104134D01*
X0373353Y0104294D01*
X0373353Y0149294D02*
X0373355Y0149454D01*
X0373361Y0149613D01*
X0373371Y0149772D01*
X0373385Y0149931D01*
X0373403Y0150090D01*
X0373424Y0150248D01*
X0373450Y0150405D01*
X0373480Y0150562D01*
X0373513Y0150718D01*
X0373551Y0150873D01*
X0373592Y0151027D01*
X0373637Y0151180D01*
X0373686Y0151332D01*
X0373739Y0151483D01*
X0373795Y0151632D01*
X0373856Y0151780D01*
X0373919Y0151926D01*
X0373987Y0152071D01*
X0374058Y0152214D01*
X0374132Y0152355D01*
X0374210Y0152494D01*
X0374292Y0152631D01*
X0374377Y0152766D01*
X0374465Y0152899D01*
X0374557Y0153030D01*
X0374651Y0153158D01*
X0374749Y0153284D01*
X0374850Y0153408D01*
X0374954Y0153529D01*
X0375061Y0153647D01*
X0375171Y0153763D01*
X0375284Y0153876D01*
X0375400Y0153986D01*
X0375518Y0154093D01*
X0375639Y0154197D01*
X0375763Y0154298D01*
X0375889Y0154396D01*
X0376017Y0154490D01*
X0376148Y0154582D01*
X0376281Y0154670D01*
X0376416Y0154755D01*
X0376553Y0154837D01*
X0376692Y0154915D01*
X0376833Y0154989D01*
X0376976Y0155060D01*
X0377121Y0155128D01*
X0377267Y0155191D01*
X0377415Y0155252D01*
X0377564Y0155308D01*
X0377715Y0155361D01*
X0377867Y0155410D01*
X0378020Y0155455D01*
X0378174Y0155496D01*
X0378329Y0155534D01*
X0378485Y0155567D01*
X0378642Y0155597D01*
X0378799Y0155623D01*
X0378957Y0155644D01*
X0379116Y0155662D01*
X0379275Y0155676D01*
X0379434Y0155686D01*
X0379593Y0155692D01*
X0379753Y0155694D01*
X0379913Y0155692D01*
X0380072Y0155686D01*
X0380231Y0155676D01*
X0380390Y0155662D01*
X0380549Y0155644D01*
X0380707Y0155623D01*
X0380864Y0155597D01*
X0381021Y0155567D01*
X0381177Y0155534D01*
X0381332Y0155496D01*
X0381486Y0155455D01*
X0381639Y0155410D01*
X0381791Y0155361D01*
X0381942Y0155308D01*
X0382091Y0155252D01*
X0382239Y0155191D01*
X0382385Y0155128D01*
X0382530Y0155060D01*
X0382673Y0154989D01*
X0382814Y0154915D01*
X0382953Y0154837D01*
X0383090Y0154755D01*
X0383225Y0154670D01*
X0383358Y0154582D01*
X0383489Y0154490D01*
X0383617Y0154396D01*
X0383743Y0154298D01*
X0383867Y0154197D01*
X0383988Y0154093D01*
X0384106Y0153986D01*
X0384222Y0153876D01*
X0384335Y0153763D01*
X0384445Y0153647D01*
X0384552Y0153529D01*
X0384656Y0153408D01*
X0384757Y0153284D01*
X0384855Y0153158D01*
X0384949Y0153030D01*
X0385041Y0152899D01*
X0385129Y0152766D01*
X0385214Y0152631D01*
X0385296Y0152494D01*
X0385374Y0152355D01*
X0385448Y0152214D01*
X0385519Y0152071D01*
X0385587Y0151926D01*
X0385650Y0151780D01*
X0385711Y0151632D01*
X0385767Y0151483D01*
X0385820Y0151332D01*
X0385869Y0151180D01*
X0385914Y0151027D01*
X0385955Y0150873D01*
X0385993Y0150718D01*
X0386026Y0150562D01*
X0386056Y0150405D01*
X0386082Y0150248D01*
X0386103Y0150090D01*
X0386121Y0149931D01*
X0386135Y0149772D01*
X0386145Y0149613D01*
X0386151Y0149454D01*
X0386153Y0149294D01*
X0386151Y0149134D01*
X0386145Y0148975D01*
X0386135Y0148816D01*
X0386121Y0148657D01*
X0386103Y0148498D01*
X0386082Y0148340D01*
X0386056Y0148183D01*
X0386026Y0148026D01*
X0385993Y0147870D01*
X0385955Y0147715D01*
X0385914Y0147561D01*
X0385869Y0147408D01*
X0385820Y0147256D01*
X0385767Y0147105D01*
X0385711Y0146956D01*
X0385650Y0146808D01*
X0385587Y0146662D01*
X0385519Y0146517D01*
X0385448Y0146374D01*
X0385374Y0146233D01*
X0385296Y0146094D01*
X0385214Y0145957D01*
X0385129Y0145822D01*
X0385041Y0145689D01*
X0384949Y0145558D01*
X0384855Y0145430D01*
X0384757Y0145304D01*
X0384656Y0145180D01*
X0384552Y0145059D01*
X0384445Y0144941D01*
X0384335Y0144825D01*
X0384222Y0144712D01*
X0384106Y0144602D01*
X0383988Y0144495D01*
X0383867Y0144391D01*
X0383743Y0144290D01*
X0383617Y0144192D01*
X0383489Y0144098D01*
X0383358Y0144006D01*
X0383225Y0143918D01*
X0383090Y0143833D01*
X0382953Y0143751D01*
X0382814Y0143673D01*
X0382673Y0143599D01*
X0382530Y0143528D01*
X0382385Y0143460D01*
X0382239Y0143397D01*
X0382091Y0143336D01*
X0381942Y0143280D01*
X0381791Y0143227D01*
X0381639Y0143178D01*
X0381486Y0143133D01*
X0381332Y0143092D01*
X0381177Y0143054D01*
X0381021Y0143021D01*
X0380864Y0142991D01*
X0380707Y0142965D01*
X0380549Y0142944D01*
X0380390Y0142926D01*
X0380231Y0142912D01*
X0380072Y0142902D01*
X0379913Y0142896D01*
X0379753Y0142894D01*
X0379593Y0142896D01*
X0379434Y0142902D01*
X0379275Y0142912D01*
X0379116Y0142926D01*
X0378957Y0142944D01*
X0378799Y0142965D01*
X0378642Y0142991D01*
X0378485Y0143021D01*
X0378329Y0143054D01*
X0378174Y0143092D01*
X0378020Y0143133D01*
X0377867Y0143178D01*
X0377715Y0143227D01*
X0377564Y0143280D01*
X0377415Y0143336D01*
X0377267Y0143397D01*
X0377121Y0143460D01*
X0376976Y0143528D01*
X0376833Y0143599D01*
X0376692Y0143673D01*
X0376553Y0143751D01*
X0376416Y0143833D01*
X0376281Y0143918D01*
X0376148Y0144006D01*
X0376017Y0144098D01*
X0375889Y0144192D01*
X0375763Y0144290D01*
X0375639Y0144391D01*
X0375518Y0144495D01*
X0375400Y0144602D01*
X0375284Y0144712D01*
X0375171Y0144825D01*
X0375061Y0144941D01*
X0374954Y0145059D01*
X0374850Y0145180D01*
X0374749Y0145304D01*
X0374651Y0145430D01*
X0374557Y0145558D01*
X0374465Y0145689D01*
X0374377Y0145822D01*
X0374292Y0145957D01*
X0374210Y0146094D01*
X0374132Y0146233D01*
X0374058Y0146374D01*
X0373987Y0146517D01*
X0373919Y0146662D01*
X0373856Y0146808D01*
X0373795Y0146956D01*
X0373739Y0147105D01*
X0373686Y0147256D01*
X0373637Y0147408D01*
X0373592Y0147561D01*
X0373551Y0147715D01*
X0373513Y0147870D01*
X0373480Y0148026D01*
X0373450Y0148183D01*
X0373424Y0148340D01*
X0373403Y0148498D01*
X0373385Y0148657D01*
X0373371Y0148816D01*
X0373361Y0148975D01*
X0373355Y0149134D01*
X0373353Y0149294D01*
X0352546Y0201597D02*
X0352548Y0201757D01*
X0352554Y0201916D01*
X0352564Y0202075D01*
X0352578Y0202234D01*
X0352596Y0202393D01*
X0352617Y0202551D01*
X0352643Y0202708D01*
X0352673Y0202865D01*
X0352706Y0203021D01*
X0352744Y0203176D01*
X0352785Y0203330D01*
X0352830Y0203483D01*
X0352879Y0203635D01*
X0352932Y0203786D01*
X0352988Y0203935D01*
X0353049Y0204083D01*
X0353112Y0204229D01*
X0353180Y0204374D01*
X0353251Y0204517D01*
X0353325Y0204658D01*
X0353403Y0204797D01*
X0353485Y0204934D01*
X0353570Y0205069D01*
X0353658Y0205202D01*
X0353750Y0205333D01*
X0353844Y0205461D01*
X0353942Y0205587D01*
X0354043Y0205711D01*
X0354147Y0205832D01*
X0354254Y0205950D01*
X0354364Y0206066D01*
X0354477Y0206179D01*
X0354593Y0206289D01*
X0354711Y0206396D01*
X0354832Y0206500D01*
X0354956Y0206601D01*
X0355082Y0206699D01*
X0355210Y0206793D01*
X0355341Y0206885D01*
X0355474Y0206973D01*
X0355609Y0207058D01*
X0355746Y0207140D01*
X0355885Y0207218D01*
X0356026Y0207292D01*
X0356169Y0207363D01*
X0356314Y0207431D01*
X0356460Y0207494D01*
X0356608Y0207555D01*
X0356757Y0207611D01*
X0356908Y0207664D01*
X0357060Y0207713D01*
X0357213Y0207758D01*
X0357367Y0207799D01*
X0357522Y0207837D01*
X0357678Y0207870D01*
X0357835Y0207900D01*
X0357992Y0207926D01*
X0358150Y0207947D01*
X0358309Y0207965D01*
X0358468Y0207979D01*
X0358627Y0207989D01*
X0358786Y0207995D01*
X0358946Y0207997D01*
X0359106Y0207995D01*
X0359265Y0207989D01*
X0359424Y0207979D01*
X0359583Y0207965D01*
X0359742Y0207947D01*
X0359900Y0207926D01*
X0360057Y0207900D01*
X0360214Y0207870D01*
X0360370Y0207837D01*
X0360525Y0207799D01*
X0360679Y0207758D01*
X0360832Y0207713D01*
X0360984Y0207664D01*
X0361135Y0207611D01*
X0361284Y0207555D01*
X0361432Y0207494D01*
X0361578Y0207431D01*
X0361723Y0207363D01*
X0361866Y0207292D01*
X0362007Y0207218D01*
X0362146Y0207140D01*
X0362283Y0207058D01*
X0362418Y0206973D01*
X0362551Y0206885D01*
X0362682Y0206793D01*
X0362810Y0206699D01*
X0362936Y0206601D01*
X0363060Y0206500D01*
X0363181Y0206396D01*
X0363299Y0206289D01*
X0363415Y0206179D01*
X0363528Y0206066D01*
X0363638Y0205950D01*
X0363745Y0205832D01*
X0363849Y0205711D01*
X0363950Y0205587D01*
X0364048Y0205461D01*
X0364142Y0205333D01*
X0364234Y0205202D01*
X0364322Y0205069D01*
X0364407Y0204934D01*
X0364489Y0204797D01*
X0364567Y0204658D01*
X0364641Y0204517D01*
X0364712Y0204374D01*
X0364780Y0204229D01*
X0364843Y0204083D01*
X0364904Y0203935D01*
X0364960Y0203786D01*
X0365013Y0203635D01*
X0365062Y0203483D01*
X0365107Y0203330D01*
X0365148Y0203176D01*
X0365186Y0203021D01*
X0365219Y0202865D01*
X0365249Y0202708D01*
X0365275Y0202551D01*
X0365296Y0202393D01*
X0365314Y0202234D01*
X0365328Y0202075D01*
X0365338Y0201916D01*
X0365344Y0201757D01*
X0365346Y0201597D01*
X0365344Y0201437D01*
X0365338Y0201278D01*
X0365328Y0201119D01*
X0365314Y0200960D01*
X0365296Y0200801D01*
X0365275Y0200643D01*
X0365249Y0200486D01*
X0365219Y0200329D01*
X0365186Y0200173D01*
X0365148Y0200018D01*
X0365107Y0199864D01*
X0365062Y0199711D01*
X0365013Y0199559D01*
X0364960Y0199408D01*
X0364904Y0199259D01*
X0364843Y0199111D01*
X0364780Y0198965D01*
X0364712Y0198820D01*
X0364641Y0198677D01*
X0364567Y0198536D01*
X0364489Y0198397D01*
X0364407Y0198260D01*
X0364322Y0198125D01*
X0364234Y0197992D01*
X0364142Y0197861D01*
X0364048Y0197733D01*
X0363950Y0197607D01*
X0363849Y0197483D01*
X0363745Y0197362D01*
X0363638Y0197244D01*
X0363528Y0197128D01*
X0363415Y0197015D01*
X0363299Y0196905D01*
X0363181Y0196798D01*
X0363060Y0196694D01*
X0362936Y0196593D01*
X0362810Y0196495D01*
X0362682Y0196401D01*
X0362551Y0196309D01*
X0362418Y0196221D01*
X0362283Y0196136D01*
X0362146Y0196054D01*
X0362007Y0195976D01*
X0361866Y0195902D01*
X0361723Y0195831D01*
X0361578Y0195763D01*
X0361432Y0195700D01*
X0361284Y0195639D01*
X0361135Y0195583D01*
X0360984Y0195530D01*
X0360832Y0195481D01*
X0360679Y0195436D01*
X0360525Y0195395D01*
X0360370Y0195357D01*
X0360214Y0195324D01*
X0360057Y0195294D01*
X0359900Y0195268D01*
X0359742Y0195247D01*
X0359583Y0195229D01*
X0359424Y0195215D01*
X0359265Y0195205D01*
X0359106Y0195199D01*
X0358946Y0195197D01*
X0358786Y0195199D01*
X0358627Y0195205D01*
X0358468Y0195215D01*
X0358309Y0195229D01*
X0358150Y0195247D01*
X0357992Y0195268D01*
X0357835Y0195294D01*
X0357678Y0195324D01*
X0357522Y0195357D01*
X0357367Y0195395D01*
X0357213Y0195436D01*
X0357060Y0195481D01*
X0356908Y0195530D01*
X0356757Y0195583D01*
X0356608Y0195639D01*
X0356460Y0195700D01*
X0356314Y0195763D01*
X0356169Y0195831D01*
X0356026Y0195902D01*
X0355885Y0195976D01*
X0355746Y0196054D01*
X0355609Y0196136D01*
X0355474Y0196221D01*
X0355341Y0196309D01*
X0355210Y0196401D01*
X0355082Y0196495D01*
X0354956Y0196593D01*
X0354832Y0196694D01*
X0354711Y0196798D01*
X0354593Y0196905D01*
X0354477Y0197015D01*
X0354364Y0197128D01*
X0354254Y0197244D01*
X0354147Y0197362D01*
X0354043Y0197483D01*
X0353942Y0197607D01*
X0353844Y0197733D01*
X0353750Y0197861D01*
X0353658Y0197992D01*
X0353570Y0198125D01*
X0353485Y0198260D01*
X0353403Y0198397D01*
X0353325Y0198536D01*
X0353251Y0198677D01*
X0353180Y0198820D01*
X0353112Y0198965D01*
X0353049Y0199111D01*
X0352988Y0199259D01*
X0352932Y0199408D01*
X0352879Y0199559D01*
X0352830Y0199711D01*
X0352785Y0199864D01*
X0352744Y0200018D01*
X0352706Y0200173D01*
X0352673Y0200329D01*
X0352643Y0200486D01*
X0352617Y0200643D01*
X0352596Y0200801D01*
X0352578Y0200960D01*
X0352564Y0201119D01*
X0352554Y0201278D01*
X0352548Y0201437D01*
X0352546Y0201597D01*
X0275029Y0205534D02*
X0275031Y0205692D01*
X0275037Y0205850D01*
X0275047Y0206008D01*
X0275061Y0206166D01*
X0275079Y0206323D01*
X0275100Y0206480D01*
X0275126Y0206636D01*
X0275156Y0206792D01*
X0275189Y0206947D01*
X0275227Y0207100D01*
X0275268Y0207253D01*
X0275313Y0207405D01*
X0275362Y0207556D01*
X0275415Y0207705D01*
X0275471Y0207853D01*
X0275531Y0207999D01*
X0275595Y0208144D01*
X0275663Y0208287D01*
X0275734Y0208429D01*
X0275808Y0208569D01*
X0275886Y0208706D01*
X0275968Y0208842D01*
X0276052Y0208976D01*
X0276141Y0209107D01*
X0276232Y0209236D01*
X0276327Y0209363D01*
X0276424Y0209488D01*
X0276525Y0209610D01*
X0276629Y0209729D01*
X0276736Y0209846D01*
X0276846Y0209960D01*
X0276959Y0210071D01*
X0277074Y0210180D01*
X0277192Y0210285D01*
X0277313Y0210387D01*
X0277436Y0210487D01*
X0277562Y0210583D01*
X0277690Y0210676D01*
X0277820Y0210766D01*
X0277953Y0210852D01*
X0278088Y0210936D01*
X0278224Y0211015D01*
X0278363Y0211092D01*
X0278504Y0211164D01*
X0278646Y0211234D01*
X0278790Y0211299D01*
X0278936Y0211361D01*
X0279083Y0211419D01*
X0279232Y0211474D01*
X0279382Y0211525D01*
X0279533Y0211572D01*
X0279685Y0211615D01*
X0279838Y0211654D01*
X0279993Y0211690D01*
X0280148Y0211721D01*
X0280304Y0211749D01*
X0280460Y0211773D01*
X0280617Y0211793D01*
X0280775Y0211809D01*
X0280932Y0211821D01*
X0281091Y0211829D01*
X0281249Y0211833D01*
X0281407Y0211833D01*
X0281565Y0211829D01*
X0281724Y0211821D01*
X0281881Y0211809D01*
X0282039Y0211793D01*
X0282196Y0211773D01*
X0282352Y0211749D01*
X0282508Y0211721D01*
X0282663Y0211690D01*
X0282818Y0211654D01*
X0282971Y0211615D01*
X0283123Y0211572D01*
X0283274Y0211525D01*
X0283424Y0211474D01*
X0283573Y0211419D01*
X0283720Y0211361D01*
X0283866Y0211299D01*
X0284010Y0211234D01*
X0284152Y0211164D01*
X0284293Y0211092D01*
X0284432Y0211015D01*
X0284568Y0210936D01*
X0284703Y0210852D01*
X0284836Y0210766D01*
X0284966Y0210676D01*
X0285094Y0210583D01*
X0285220Y0210487D01*
X0285343Y0210387D01*
X0285464Y0210285D01*
X0285582Y0210180D01*
X0285697Y0210071D01*
X0285810Y0209960D01*
X0285920Y0209846D01*
X0286027Y0209729D01*
X0286131Y0209610D01*
X0286232Y0209488D01*
X0286329Y0209363D01*
X0286424Y0209236D01*
X0286515Y0209107D01*
X0286604Y0208976D01*
X0286688Y0208842D01*
X0286770Y0208706D01*
X0286848Y0208569D01*
X0286922Y0208429D01*
X0286993Y0208287D01*
X0287061Y0208144D01*
X0287125Y0207999D01*
X0287185Y0207853D01*
X0287241Y0207705D01*
X0287294Y0207556D01*
X0287343Y0207405D01*
X0287388Y0207253D01*
X0287429Y0207100D01*
X0287467Y0206947D01*
X0287500Y0206792D01*
X0287530Y0206636D01*
X0287556Y0206480D01*
X0287577Y0206323D01*
X0287595Y0206166D01*
X0287609Y0206008D01*
X0287619Y0205850D01*
X0287625Y0205692D01*
X0287627Y0205534D01*
X0287625Y0205376D01*
X0287619Y0205218D01*
X0287609Y0205060D01*
X0287595Y0204902D01*
X0287577Y0204745D01*
X0287556Y0204588D01*
X0287530Y0204432D01*
X0287500Y0204276D01*
X0287467Y0204121D01*
X0287429Y0203968D01*
X0287388Y0203815D01*
X0287343Y0203663D01*
X0287294Y0203512D01*
X0287241Y0203363D01*
X0287185Y0203215D01*
X0287125Y0203069D01*
X0287061Y0202924D01*
X0286993Y0202781D01*
X0286922Y0202639D01*
X0286848Y0202499D01*
X0286770Y0202362D01*
X0286688Y0202226D01*
X0286604Y0202092D01*
X0286515Y0201961D01*
X0286424Y0201832D01*
X0286329Y0201705D01*
X0286232Y0201580D01*
X0286131Y0201458D01*
X0286027Y0201339D01*
X0285920Y0201222D01*
X0285810Y0201108D01*
X0285697Y0200997D01*
X0285582Y0200888D01*
X0285464Y0200783D01*
X0285343Y0200681D01*
X0285220Y0200581D01*
X0285094Y0200485D01*
X0284966Y0200392D01*
X0284836Y0200302D01*
X0284703Y0200216D01*
X0284568Y0200132D01*
X0284432Y0200053D01*
X0284293Y0199976D01*
X0284152Y0199904D01*
X0284010Y0199834D01*
X0283866Y0199769D01*
X0283720Y0199707D01*
X0283573Y0199649D01*
X0283424Y0199594D01*
X0283274Y0199543D01*
X0283123Y0199496D01*
X0282971Y0199453D01*
X0282818Y0199414D01*
X0282663Y0199378D01*
X0282508Y0199347D01*
X0282352Y0199319D01*
X0282196Y0199295D01*
X0282039Y0199275D01*
X0281881Y0199259D01*
X0281724Y0199247D01*
X0281565Y0199239D01*
X0281407Y0199235D01*
X0281249Y0199235D01*
X0281091Y0199239D01*
X0280932Y0199247D01*
X0280775Y0199259D01*
X0280617Y0199275D01*
X0280460Y0199295D01*
X0280304Y0199319D01*
X0280148Y0199347D01*
X0279993Y0199378D01*
X0279838Y0199414D01*
X0279685Y0199453D01*
X0279533Y0199496D01*
X0279382Y0199543D01*
X0279232Y0199594D01*
X0279083Y0199649D01*
X0278936Y0199707D01*
X0278790Y0199769D01*
X0278646Y0199834D01*
X0278504Y0199904D01*
X0278363Y0199976D01*
X0278224Y0200053D01*
X0278088Y0200132D01*
X0277953Y0200216D01*
X0277820Y0200302D01*
X0277690Y0200392D01*
X0277562Y0200485D01*
X0277436Y0200581D01*
X0277313Y0200681D01*
X0277192Y0200783D01*
X0277074Y0200888D01*
X0276959Y0200997D01*
X0276846Y0201108D01*
X0276736Y0201222D01*
X0276629Y0201339D01*
X0276525Y0201458D01*
X0276424Y0201580D01*
X0276327Y0201705D01*
X0276232Y0201832D01*
X0276141Y0201961D01*
X0276052Y0202092D01*
X0275968Y0202226D01*
X0275886Y0202362D01*
X0275808Y0202499D01*
X0275734Y0202639D01*
X0275663Y0202781D01*
X0275595Y0202924D01*
X0275531Y0203069D01*
X0275471Y0203215D01*
X0275415Y0203363D01*
X0275362Y0203512D01*
X0275313Y0203663D01*
X0275268Y0203815D01*
X0275227Y0203968D01*
X0275189Y0204121D01*
X0275156Y0204276D01*
X0275126Y0204432D01*
X0275100Y0204588D01*
X0275079Y0204745D01*
X0275061Y0204902D01*
X0275047Y0205060D01*
X0275037Y0205218D01*
X0275031Y0205376D01*
X0275029Y0205534D01*
X0271278Y0177384D02*
X0271280Y0177468D01*
X0271286Y0177551D01*
X0271296Y0177634D01*
X0271310Y0177717D01*
X0271327Y0177799D01*
X0271349Y0177880D01*
X0271374Y0177959D01*
X0271403Y0178038D01*
X0271436Y0178115D01*
X0271472Y0178190D01*
X0271512Y0178264D01*
X0271555Y0178336D01*
X0271602Y0178405D01*
X0271652Y0178472D01*
X0271705Y0178537D01*
X0271761Y0178599D01*
X0271819Y0178659D01*
X0271881Y0178716D01*
X0271945Y0178769D01*
X0272012Y0178820D01*
X0272081Y0178867D01*
X0272152Y0178912D01*
X0272225Y0178952D01*
X0272300Y0178989D01*
X0272377Y0179023D01*
X0272455Y0179053D01*
X0272534Y0179079D01*
X0272615Y0179102D01*
X0272697Y0179120D01*
X0272779Y0179135D01*
X0272862Y0179146D01*
X0272945Y0179153D01*
X0273029Y0179156D01*
X0273113Y0179155D01*
X0273196Y0179150D01*
X0273280Y0179141D01*
X0273362Y0179128D01*
X0273444Y0179112D01*
X0273525Y0179091D01*
X0273606Y0179067D01*
X0273684Y0179039D01*
X0273762Y0179007D01*
X0273838Y0178971D01*
X0273912Y0178932D01*
X0273984Y0178890D01*
X0274054Y0178844D01*
X0274122Y0178795D01*
X0274187Y0178743D01*
X0274250Y0178688D01*
X0274310Y0178630D01*
X0274368Y0178569D01*
X0274422Y0178505D01*
X0274474Y0178439D01*
X0274522Y0178371D01*
X0274567Y0178300D01*
X0274608Y0178227D01*
X0274647Y0178153D01*
X0274681Y0178077D01*
X0274712Y0177999D01*
X0274739Y0177920D01*
X0274763Y0177839D01*
X0274782Y0177758D01*
X0274798Y0177676D01*
X0274810Y0177593D01*
X0274818Y0177509D01*
X0274822Y0177426D01*
X0274822Y0177342D01*
X0274818Y0177259D01*
X0274810Y0177175D01*
X0274798Y0177092D01*
X0274782Y0177010D01*
X0274763Y0176929D01*
X0274739Y0176848D01*
X0274712Y0176769D01*
X0274681Y0176691D01*
X0274647Y0176615D01*
X0274608Y0176541D01*
X0274567Y0176468D01*
X0274522Y0176397D01*
X0274474Y0176329D01*
X0274422Y0176263D01*
X0274368Y0176199D01*
X0274310Y0176138D01*
X0274250Y0176080D01*
X0274187Y0176025D01*
X0274122Y0175973D01*
X0274054Y0175924D01*
X0273984Y0175878D01*
X0273912Y0175836D01*
X0273838Y0175797D01*
X0273762Y0175761D01*
X0273684Y0175729D01*
X0273606Y0175701D01*
X0273525Y0175677D01*
X0273444Y0175656D01*
X0273362Y0175640D01*
X0273280Y0175627D01*
X0273196Y0175618D01*
X0273113Y0175613D01*
X0273029Y0175612D01*
X0272945Y0175615D01*
X0272862Y0175622D01*
X0272779Y0175633D01*
X0272697Y0175648D01*
X0272615Y0175666D01*
X0272534Y0175689D01*
X0272455Y0175715D01*
X0272377Y0175745D01*
X0272300Y0175779D01*
X0272225Y0175816D01*
X0272152Y0175856D01*
X0272081Y0175901D01*
X0272012Y0175948D01*
X0271945Y0175999D01*
X0271881Y0176052D01*
X0271819Y0176109D01*
X0271761Y0176169D01*
X0271705Y0176231D01*
X0271652Y0176296D01*
X0271602Y0176363D01*
X0271555Y0176432D01*
X0271512Y0176504D01*
X0271472Y0176578D01*
X0271436Y0176653D01*
X0271403Y0176730D01*
X0271374Y0176809D01*
X0271349Y0176888D01*
X0271327Y0176969D01*
X0271310Y0177051D01*
X0271296Y0177134D01*
X0271286Y0177217D01*
X0271280Y0177300D01*
X0271278Y0177384D01*
X0271278Y0163605D02*
X0271280Y0163689D01*
X0271286Y0163772D01*
X0271296Y0163855D01*
X0271310Y0163938D01*
X0271327Y0164020D01*
X0271349Y0164101D01*
X0271374Y0164180D01*
X0271403Y0164259D01*
X0271436Y0164336D01*
X0271472Y0164411D01*
X0271512Y0164485D01*
X0271555Y0164557D01*
X0271602Y0164626D01*
X0271652Y0164693D01*
X0271705Y0164758D01*
X0271761Y0164820D01*
X0271819Y0164880D01*
X0271881Y0164937D01*
X0271945Y0164990D01*
X0272012Y0165041D01*
X0272081Y0165088D01*
X0272152Y0165133D01*
X0272225Y0165173D01*
X0272300Y0165210D01*
X0272377Y0165244D01*
X0272455Y0165274D01*
X0272534Y0165300D01*
X0272615Y0165323D01*
X0272697Y0165341D01*
X0272779Y0165356D01*
X0272862Y0165367D01*
X0272945Y0165374D01*
X0273029Y0165377D01*
X0273113Y0165376D01*
X0273196Y0165371D01*
X0273280Y0165362D01*
X0273362Y0165349D01*
X0273444Y0165333D01*
X0273525Y0165312D01*
X0273606Y0165288D01*
X0273684Y0165260D01*
X0273762Y0165228D01*
X0273838Y0165192D01*
X0273912Y0165153D01*
X0273984Y0165111D01*
X0274054Y0165065D01*
X0274122Y0165016D01*
X0274187Y0164964D01*
X0274250Y0164909D01*
X0274310Y0164851D01*
X0274368Y0164790D01*
X0274422Y0164726D01*
X0274474Y0164660D01*
X0274522Y0164592D01*
X0274567Y0164521D01*
X0274608Y0164448D01*
X0274647Y0164374D01*
X0274681Y0164298D01*
X0274712Y0164220D01*
X0274739Y0164141D01*
X0274763Y0164060D01*
X0274782Y0163979D01*
X0274798Y0163897D01*
X0274810Y0163814D01*
X0274818Y0163730D01*
X0274822Y0163647D01*
X0274822Y0163563D01*
X0274818Y0163480D01*
X0274810Y0163396D01*
X0274798Y0163313D01*
X0274782Y0163231D01*
X0274763Y0163150D01*
X0274739Y0163069D01*
X0274712Y0162990D01*
X0274681Y0162912D01*
X0274647Y0162836D01*
X0274608Y0162762D01*
X0274567Y0162689D01*
X0274522Y0162618D01*
X0274474Y0162550D01*
X0274422Y0162484D01*
X0274368Y0162420D01*
X0274310Y0162359D01*
X0274250Y0162301D01*
X0274187Y0162246D01*
X0274122Y0162194D01*
X0274054Y0162145D01*
X0273984Y0162099D01*
X0273912Y0162057D01*
X0273838Y0162018D01*
X0273762Y0161982D01*
X0273684Y0161950D01*
X0273606Y0161922D01*
X0273525Y0161898D01*
X0273444Y0161877D01*
X0273362Y0161861D01*
X0273280Y0161848D01*
X0273196Y0161839D01*
X0273113Y0161834D01*
X0273029Y0161833D01*
X0272945Y0161836D01*
X0272862Y0161843D01*
X0272779Y0161854D01*
X0272697Y0161869D01*
X0272615Y0161887D01*
X0272534Y0161910D01*
X0272455Y0161936D01*
X0272377Y0161966D01*
X0272300Y0162000D01*
X0272225Y0162037D01*
X0272152Y0162077D01*
X0272081Y0162122D01*
X0272012Y0162169D01*
X0271945Y0162220D01*
X0271881Y0162273D01*
X0271819Y0162330D01*
X0271761Y0162390D01*
X0271705Y0162452D01*
X0271652Y0162517D01*
X0271602Y0162584D01*
X0271555Y0162653D01*
X0271512Y0162725D01*
X0271472Y0162799D01*
X0271436Y0162874D01*
X0271403Y0162951D01*
X0271374Y0163030D01*
X0271349Y0163109D01*
X0271327Y0163190D01*
X0271310Y0163272D01*
X0271296Y0163355D01*
X0271286Y0163438D01*
X0271280Y0163521D01*
X0271278Y0163605D01*
X0007312Y0205534D02*
X0007314Y0205692D01*
X0007320Y0205850D01*
X0007330Y0206008D01*
X0007344Y0206166D01*
X0007362Y0206323D01*
X0007383Y0206480D01*
X0007409Y0206636D01*
X0007439Y0206792D01*
X0007472Y0206947D01*
X0007510Y0207100D01*
X0007551Y0207253D01*
X0007596Y0207405D01*
X0007645Y0207556D01*
X0007698Y0207705D01*
X0007754Y0207853D01*
X0007814Y0207999D01*
X0007878Y0208144D01*
X0007946Y0208287D01*
X0008017Y0208429D01*
X0008091Y0208569D01*
X0008169Y0208706D01*
X0008251Y0208842D01*
X0008335Y0208976D01*
X0008424Y0209107D01*
X0008515Y0209236D01*
X0008610Y0209363D01*
X0008707Y0209488D01*
X0008808Y0209610D01*
X0008912Y0209729D01*
X0009019Y0209846D01*
X0009129Y0209960D01*
X0009242Y0210071D01*
X0009357Y0210180D01*
X0009475Y0210285D01*
X0009596Y0210387D01*
X0009719Y0210487D01*
X0009845Y0210583D01*
X0009973Y0210676D01*
X0010103Y0210766D01*
X0010236Y0210852D01*
X0010371Y0210936D01*
X0010507Y0211015D01*
X0010646Y0211092D01*
X0010787Y0211164D01*
X0010929Y0211234D01*
X0011073Y0211299D01*
X0011219Y0211361D01*
X0011366Y0211419D01*
X0011515Y0211474D01*
X0011665Y0211525D01*
X0011816Y0211572D01*
X0011968Y0211615D01*
X0012121Y0211654D01*
X0012276Y0211690D01*
X0012431Y0211721D01*
X0012587Y0211749D01*
X0012743Y0211773D01*
X0012900Y0211793D01*
X0013058Y0211809D01*
X0013215Y0211821D01*
X0013374Y0211829D01*
X0013532Y0211833D01*
X0013690Y0211833D01*
X0013848Y0211829D01*
X0014007Y0211821D01*
X0014164Y0211809D01*
X0014322Y0211793D01*
X0014479Y0211773D01*
X0014635Y0211749D01*
X0014791Y0211721D01*
X0014946Y0211690D01*
X0015101Y0211654D01*
X0015254Y0211615D01*
X0015406Y0211572D01*
X0015557Y0211525D01*
X0015707Y0211474D01*
X0015856Y0211419D01*
X0016003Y0211361D01*
X0016149Y0211299D01*
X0016293Y0211234D01*
X0016435Y0211164D01*
X0016576Y0211092D01*
X0016715Y0211015D01*
X0016851Y0210936D01*
X0016986Y0210852D01*
X0017119Y0210766D01*
X0017249Y0210676D01*
X0017377Y0210583D01*
X0017503Y0210487D01*
X0017626Y0210387D01*
X0017747Y0210285D01*
X0017865Y0210180D01*
X0017980Y0210071D01*
X0018093Y0209960D01*
X0018203Y0209846D01*
X0018310Y0209729D01*
X0018414Y0209610D01*
X0018515Y0209488D01*
X0018612Y0209363D01*
X0018707Y0209236D01*
X0018798Y0209107D01*
X0018887Y0208976D01*
X0018971Y0208842D01*
X0019053Y0208706D01*
X0019131Y0208569D01*
X0019205Y0208429D01*
X0019276Y0208287D01*
X0019344Y0208144D01*
X0019408Y0207999D01*
X0019468Y0207853D01*
X0019524Y0207705D01*
X0019577Y0207556D01*
X0019626Y0207405D01*
X0019671Y0207253D01*
X0019712Y0207100D01*
X0019750Y0206947D01*
X0019783Y0206792D01*
X0019813Y0206636D01*
X0019839Y0206480D01*
X0019860Y0206323D01*
X0019878Y0206166D01*
X0019892Y0206008D01*
X0019902Y0205850D01*
X0019908Y0205692D01*
X0019910Y0205534D01*
X0019908Y0205376D01*
X0019902Y0205218D01*
X0019892Y0205060D01*
X0019878Y0204902D01*
X0019860Y0204745D01*
X0019839Y0204588D01*
X0019813Y0204432D01*
X0019783Y0204276D01*
X0019750Y0204121D01*
X0019712Y0203968D01*
X0019671Y0203815D01*
X0019626Y0203663D01*
X0019577Y0203512D01*
X0019524Y0203363D01*
X0019468Y0203215D01*
X0019408Y0203069D01*
X0019344Y0202924D01*
X0019276Y0202781D01*
X0019205Y0202639D01*
X0019131Y0202499D01*
X0019053Y0202362D01*
X0018971Y0202226D01*
X0018887Y0202092D01*
X0018798Y0201961D01*
X0018707Y0201832D01*
X0018612Y0201705D01*
X0018515Y0201580D01*
X0018414Y0201458D01*
X0018310Y0201339D01*
X0018203Y0201222D01*
X0018093Y0201108D01*
X0017980Y0200997D01*
X0017865Y0200888D01*
X0017747Y0200783D01*
X0017626Y0200681D01*
X0017503Y0200581D01*
X0017377Y0200485D01*
X0017249Y0200392D01*
X0017119Y0200302D01*
X0016986Y0200216D01*
X0016851Y0200132D01*
X0016715Y0200053D01*
X0016576Y0199976D01*
X0016435Y0199904D01*
X0016293Y0199834D01*
X0016149Y0199769D01*
X0016003Y0199707D01*
X0015856Y0199649D01*
X0015707Y0199594D01*
X0015557Y0199543D01*
X0015406Y0199496D01*
X0015254Y0199453D01*
X0015101Y0199414D01*
X0014946Y0199378D01*
X0014791Y0199347D01*
X0014635Y0199319D01*
X0014479Y0199295D01*
X0014322Y0199275D01*
X0014164Y0199259D01*
X0014007Y0199247D01*
X0013848Y0199239D01*
X0013690Y0199235D01*
X0013532Y0199235D01*
X0013374Y0199239D01*
X0013215Y0199247D01*
X0013058Y0199259D01*
X0012900Y0199275D01*
X0012743Y0199295D01*
X0012587Y0199319D01*
X0012431Y0199347D01*
X0012276Y0199378D01*
X0012121Y0199414D01*
X0011968Y0199453D01*
X0011816Y0199496D01*
X0011665Y0199543D01*
X0011515Y0199594D01*
X0011366Y0199649D01*
X0011219Y0199707D01*
X0011073Y0199769D01*
X0010929Y0199834D01*
X0010787Y0199904D01*
X0010646Y0199976D01*
X0010507Y0200053D01*
X0010371Y0200132D01*
X0010236Y0200216D01*
X0010103Y0200302D01*
X0009973Y0200392D01*
X0009845Y0200485D01*
X0009719Y0200581D01*
X0009596Y0200681D01*
X0009475Y0200783D01*
X0009357Y0200888D01*
X0009242Y0200997D01*
X0009129Y0201108D01*
X0009019Y0201222D01*
X0008912Y0201339D01*
X0008808Y0201458D01*
X0008707Y0201580D01*
X0008610Y0201705D01*
X0008515Y0201832D01*
X0008424Y0201961D01*
X0008335Y0202092D01*
X0008251Y0202226D01*
X0008169Y0202362D01*
X0008091Y0202499D01*
X0008017Y0202639D01*
X0007946Y0202781D01*
X0007878Y0202924D01*
X0007814Y0203069D01*
X0007754Y0203215D01*
X0007698Y0203363D01*
X0007645Y0203512D01*
X0007596Y0203663D01*
X0007551Y0203815D01*
X0007510Y0203968D01*
X0007472Y0204121D01*
X0007439Y0204276D01*
X0007409Y0204432D01*
X0007383Y0204588D01*
X0007362Y0204745D01*
X0007344Y0204902D01*
X0007330Y0205060D01*
X0007320Y0205218D01*
X0007314Y0205376D01*
X0007312Y0205534D01*
D11*
X0082501Y0132951D03*
X0091824Y0132951D03*
X0091824Y0132369D03*
X0091824Y0131786D03*
X0091824Y0128290D03*
X0091824Y0127707D03*
X0091824Y0127124D03*
X0182721Y0082258D03*
X0228170Y0091581D03*
X0224091Y0053707D03*
D12*
X0224383Y0054872D03*
X0279154Y0065361D03*
X0279154Y0065943D03*
X0279154Y0066526D03*
X0279154Y0067109D03*
X0279154Y0067691D03*
X0279154Y0068274D03*
X0279154Y0068857D03*
X0279154Y0069439D03*
X0279154Y0070022D03*
X0278572Y0075266D03*
X0278572Y0075849D03*
X0278572Y0076431D03*
X0278572Y0077014D03*
X0278572Y0077597D03*
X0278572Y0078180D03*
X0278572Y0078762D03*
X0278572Y0079345D03*
X0278572Y0079928D03*
X0278572Y0080510D03*
X0278572Y0081093D03*
X0278572Y0081676D03*
X0278572Y0082258D03*
X0278572Y0082841D03*
X0278572Y0083424D03*
X0278572Y0084006D03*
X0278572Y0084589D03*
X0278572Y0085172D03*
X0278572Y0085754D03*
X0216808Y0106148D03*
X0172524Y0084006D03*
X0124162Y0074101D03*
X0111926Y0084006D03*
X0095028Y0075266D03*
X0095028Y0074683D03*
X0095028Y0074101D03*
X0095028Y0073518D03*
X0095028Y0072935D03*
X0095028Y0072353D03*
X0095028Y0071770D03*
X0095028Y0071187D03*
X0095028Y0070605D03*
X0095028Y0070022D03*
X0095028Y0069439D03*
X0095028Y0068857D03*
X0095028Y0068274D03*
X0095028Y0067691D03*
X0095028Y0067109D03*
X0095028Y0066526D03*
X0095028Y0065943D03*
X0095028Y0065361D03*
X0095028Y0064778D03*
X0095028Y0064195D03*
X0095028Y0063613D03*
X0095028Y0063030D03*
X0095028Y0062447D03*
X0095028Y0061865D03*
X0095028Y0061282D03*
X0095028Y0060699D03*
X0095028Y0060117D03*
X0095028Y0059534D03*
X0095028Y0058951D03*
X0095028Y0058369D03*
X0095028Y0057786D03*
X0095028Y0057203D03*
X0095028Y0056620D03*
X0095028Y0056038D03*
X0095028Y0055455D03*
X0095028Y0054872D03*
X0095028Y0054290D03*
X0111926Y0053707D03*
X0065312Y0090998D03*
X0065312Y0151597D03*
D13*
X0139312Y0177817D03*
X0211564Y0121298D03*
X0211564Y0120715D03*
X0211564Y0120132D03*
X0211564Y0119550D03*
X0211564Y0118967D03*
X0211564Y0118384D03*
X0211564Y0117802D03*
X0211564Y0117219D03*
X0211564Y0116636D03*
X0211564Y0116054D03*
X0211564Y0115471D03*
X0211564Y0114888D03*
X0211564Y0114306D03*
X0211564Y0113723D03*
X0211564Y0113140D03*
X0211564Y0112557D03*
X0211564Y0111975D03*
X0211564Y0111392D03*
X0211564Y0110809D03*
X0226713Y0092746D03*
X0184178Y0084589D03*
X0223800Y0054290D03*
X0111926Y0084589D03*
D14*
X0157666Y0054290D03*
X0172816Y0054290D03*
X0278280Y0086337D03*
D15*
X0278863Y0074683D03*
X0278863Y0074101D03*
X0278863Y0073518D03*
X0278863Y0072935D03*
X0278863Y0072353D03*
X0278863Y0071770D03*
X0278863Y0071187D03*
X0278863Y0070605D03*
X0279446Y0064778D03*
X0279446Y0064195D03*
X0279446Y0063613D03*
X0279446Y0063030D03*
X0279446Y0062447D03*
X0279446Y0061865D03*
X0279446Y0061282D03*
X0279446Y0060699D03*
X0279446Y0060117D03*
X0279446Y0059534D03*
X0279446Y0058951D03*
X0279446Y0058369D03*
X0279446Y0057786D03*
X0279446Y0057203D03*
X0279446Y0054872D03*
X0261965Y0054872D03*
X0172816Y0054872D03*
X0172816Y0055455D03*
X0172816Y0056038D03*
X0172816Y0056620D03*
X0172816Y0057203D03*
X0172816Y0057786D03*
X0172816Y0058369D03*
X0172816Y0058951D03*
X0172816Y0059534D03*
X0172816Y0060117D03*
X0172816Y0060699D03*
X0172816Y0061282D03*
X0172816Y0061865D03*
X0172816Y0062447D03*
X0172816Y0063030D03*
X0172816Y0063613D03*
X0172816Y0064195D03*
X0172816Y0064778D03*
X0172816Y0065361D03*
X0172816Y0065943D03*
X0172816Y0066526D03*
X0172816Y0067109D03*
X0172816Y0067691D03*
X0172816Y0068274D03*
X0172816Y0068857D03*
X0172816Y0069439D03*
X0172816Y0070022D03*
X0172816Y0070605D03*
X0172816Y0071187D03*
X0172816Y0071770D03*
X0172816Y0072353D03*
X0172816Y0072935D03*
X0172816Y0073518D03*
X0172816Y0074101D03*
X0172816Y0074683D03*
X0172816Y0075266D03*
X0172816Y0075849D03*
X0172816Y0076431D03*
X0172816Y0077014D03*
X0172816Y0077597D03*
X0172816Y0078180D03*
X0172816Y0078762D03*
X0172816Y0079345D03*
X0172816Y0079928D03*
X0172816Y0080510D03*
X0172816Y0081093D03*
X0172816Y0081676D03*
X0172816Y0082258D03*
X0172816Y0082841D03*
X0172816Y0083424D03*
X0157666Y0054872D03*
X0112217Y0054872D03*
X0112217Y0054290D03*
X0112217Y0055455D03*
X0112217Y0056038D03*
X0112217Y0056620D03*
X0112217Y0057203D03*
X0112217Y0057786D03*
X0112217Y0058369D03*
X0112217Y0058951D03*
X0112217Y0059534D03*
X0112217Y0060117D03*
X0112217Y0060699D03*
X0112217Y0061282D03*
X0112217Y0061865D03*
X0112217Y0062447D03*
X0112217Y0063030D03*
X0112217Y0063613D03*
X0112217Y0064195D03*
X0112217Y0064778D03*
X0112217Y0065361D03*
X0112217Y0065943D03*
X0112217Y0066526D03*
X0112217Y0067109D03*
X0112217Y0067691D03*
X0112217Y0068274D03*
X0112217Y0068857D03*
X0112217Y0069439D03*
X0112217Y0070022D03*
X0112217Y0070605D03*
X0112217Y0071187D03*
X0112217Y0071770D03*
X0112217Y0072353D03*
X0112217Y0072935D03*
X0112217Y0073518D03*
X0112217Y0074101D03*
X0112217Y0074683D03*
X0112217Y0075266D03*
X0112217Y0075849D03*
X0112217Y0076431D03*
X0112217Y0077014D03*
X0112217Y0077597D03*
X0112217Y0078180D03*
X0112217Y0078762D03*
X0112217Y0079345D03*
X0112217Y0079928D03*
X0112217Y0080510D03*
X0112217Y0081093D03*
X0112217Y0081676D03*
X0112217Y0082258D03*
X0112217Y0082841D03*
X0112217Y0083424D03*
X0091241Y0088668D03*
X0090658Y0089250D03*
X0090076Y0089833D03*
X0089493Y0090416D03*
X0048123Y0090998D03*
X0024816Y0152180D03*
D16*
X0048414Y0151014D03*
X0065312Y0151014D03*
X0090367Y0153928D03*
X0090950Y0154510D03*
X0091532Y0155093D03*
X0092115Y0155676D03*
X0092698Y0156258D03*
X0093280Y0156841D03*
X0118918Y0121880D03*
X0065312Y0091581D03*
X0092115Y0088085D03*
X0092698Y0087502D03*
X0157375Y0065943D03*
X0157375Y0065361D03*
X0157375Y0064778D03*
X0157375Y0064195D03*
X0157375Y0063613D03*
X0157375Y0063030D03*
X0157375Y0062447D03*
X0157375Y0061865D03*
X0157375Y0061282D03*
X0157375Y0060699D03*
X0157375Y0060117D03*
X0157375Y0059534D03*
X0157375Y0058951D03*
X0157375Y0058369D03*
X0157375Y0057786D03*
X0157375Y0057203D03*
X0157375Y0056620D03*
X0157375Y0056038D03*
X0157375Y0055455D03*
X0224965Y0055455D03*
X0244194Y0055455D03*
X0244194Y0054872D03*
X0244194Y0056038D03*
X0244194Y0056620D03*
X0244194Y0057203D03*
X0244194Y0057786D03*
X0244194Y0058369D03*
X0244194Y0058951D03*
X0244194Y0059534D03*
X0244194Y0060117D03*
X0244194Y0060699D03*
X0244194Y0061282D03*
X0244194Y0061865D03*
X0244194Y0062447D03*
X0244194Y0063030D03*
X0244194Y0063613D03*
X0244194Y0064195D03*
X0244194Y0064778D03*
X0244194Y0065361D03*
X0244194Y0065943D03*
X0244194Y0066526D03*
X0244194Y0067109D03*
X0244194Y0067691D03*
X0244194Y0068274D03*
X0244194Y0068857D03*
X0244194Y0069439D03*
X0244194Y0070022D03*
X0244194Y0070605D03*
X0244194Y0071187D03*
X0244194Y0071770D03*
X0244194Y0072353D03*
X0244194Y0072935D03*
X0244194Y0073518D03*
X0244194Y0074101D03*
X0244194Y0074683D03*
X0244194Y0075266D03*
X0244194Y0075849D03*
X0244194Y0076431D03*
X0244194Y0077014D03*
X0244194Y0077597D03*
X0244194Y0078180D03*
X0244194Y0078762D03*
X0244194Y0079345D03*
X0244194Y0079928D03*
X0262257Y0056038D03*
X0262257Y0055455D03*
X0279737Y0055455D03*
X0279737Y0056038D03*
X0279737Y0056620D03*
X0013454Y0090998D03*
D17*
X0047831Y0130038D03*
X0047831Y0130620D03*
X0014036Y0135865D03*
X0014036Y0136447D03*
X0013454Y0134699D03*
X0013454Y0134117D03*
X0090367Y0090998D03*
X0094446Y0085754D03*
X0095028Y0085172D03*
X0117170Y0114306D03*
X0117753Y0115471D03*
X0117753Y0116054D03*
X0118335Y0116636D03*
X0118335Y0117219D03*
X0118335Y0117802D03*
X0118335Y0118384D03*
X0118335Y0127124D03*
X0118335Y0127707D03*
X0118335Y0128290D03*
X0117753Y0129455D03*
X0117753Y0130038D03*
X0095611Y0158589D03*
X0096194Y0159172D03*
X0210398Y0074101D03*
X0210398Y0073518D03*
X0210398Y0072935D03*
X0210398Y0072353D03*
X0210398Y0071770D03*
X0210398Y0071187D03*
X0210398Y0070605D03*
X0210398Y0070022D03*
X0210398Y0069439D03*
X0210398Y0068857D03*
X0228461Y0067109D03*
X0228461Y0071187D03*
X0224965Y0056038D03*
X0210981Y0055455D03*
X0210981Y0054872D03*
X0262257Y0058951D03*
D18*
X0261965Y0059534D03*
X0261965Y0060117D03*
X0261965Y0060699D03*
X0261965Y0061282D03*
X0228170Y0071770D03*
X0210690Y0068274D03*
X0210690Y0058951D03*
X0210690Y0058369D03*
X0210690Y0057786D03*
X0210690Y0057203D03*
X0210690Y0056620D03*
X0210690Y0056038D03*
X0225257Y0056620D03*
X0225257Y0057203D03*
X0210107Y0090416D03*
X0210107Y0090998D03*
X0210107Y0091581D03*
X0210107Y0092164D03*
X0210107Y0092746D03*
X0117461Y0114888D03*
X0116879Y0113723D03*
X0116879Y0113140D03*
X0117461Y0130620D03*
X0116879Y0131203D03*
X0116879Y0131786D03*
X0097068Y0159754D03*
X0097650Y0160337D03*
X0098233Y0160920D03*
X0098816Y0161502D03*
X0047540Y0132369D03*
X0047540Y0131786D03*
X0047540Y0131203D03*
X0024816Y0151597D03*
X0014328Y0137030D03*
X0095902Y0084589D03*
X0096485Y0084006D03*
D19*
X0093572Y0086337D03*
X0092989Y0086920D03*
X0065020Y0092164D03*
X0065020Y0092746D03*
X0065020Y0093329D03*
X0065020Y0093912D03*
X0065020Y0094494D03*
X0065020Y0095077D03*
X0065020Y0095660D03*
X0065020Y0096243D03*
X0065020Y0096825D03*
X0065020Y0097408D03*
X0065020Y0097991D03*
X0065020Y0098573D03*
X0065020Y0099156D03*
X0048123Y0099156D03*
X0048123Y0099739D03*
X0048123Y0100321D03*
X0048123Y0100904D03*
X0048123Y0101487D03*
X0048123Y0102069D03*
X0048123Y0102652D03*
X0048123Y0103235D03*
X0048123Y0103817D03*
X0048123Y0104400D03*
X0048123Y0104983D03*
X0048123Y0105565D03*
X0048123Y0106148D03*
X0048123Y0106731D03*
X0048123Y0107313D03*
X0048123Y0107896D03*
X0048123Y0108479D03*
X0048123Y0109061D03*
X0048123Y0109644D03*
X0048123Y0110227D03*
X0048123Y0110809D03*
X0048123Y0111392D03*
X0048123Y0111975D03*
X0048123Y0112557D03*
X0048123Y0113140D03*
X0048123Y0113723D03*
X0048123Y0114306D03*
X0048123Y0114888D03*
X0048123Y0115471D03*
X0048123Y0116054D03*
X0048123Y0116636D03*
X0048123Y0117219D03*
X0048123Y0117802D03*
X0048123Y0118384D03*
X0048123Y0118967D03*
X0048123Y0119550D03*
X0048123Y0120132D03*
X0048123Y0120715D03*
X0048123Y0121298D03*
X0048123Y0121880D03*
X0048123Y0122463D03*
X0048123Y0123046D03*
X0048123Y0123628D03*
X0048123Y0124211D03*
X0048123Y0124794D03*
X0048123Y0125376D03*
X0048123Y0125959D03*
X0048123Y0126542D03*
X0048123Y0127124D03*
X0048123Y0127707D03*
X0048123Y0128290D03*
X0048123Y0128872D03*
X0048123Y0129455D03*
X0048123Y0144022D03*
X0048123Y0144605D03*
X0048123Y0145187D03*
X0048123Y0145770D03*
X0048123Y0146353D03*
X0048123Y0146935D03*
X0048123Y0147518D03*
X0048123Y0148101D03*
X0048123Y0148683D03*
X0048123Y0149266D03*
X0048123Y0149849D03*
X0048123Y0150431D03*
X0065020Y0150431D03*
X0065020Y0149849D03*
X0065020Y0149266D03*
X0065020Y0148683D03*
X0065020Y0148101D03*
X0065020Y0147518D03*
X0065020Y0146935D03*
X0065020Y0146353D03*
X0065020Y0145770D03*
X0094154Y0157424D03*
X0094737Y0158006D03*
X0118044Y0128872D03*
X0118627Y0126542D03*
X0118627Y0125959D03*
X0118627Y0125376D03*
X0118627Y0124794D03*
X0118627Y0124211D03*
X0118627Y0123628D03*
X0119209Y0123046D03*
X0119209Y0122463D03*
X0118627Y0121298D03*
X0118627Y0120715D03*
X0118627Y0120132D03*
X0118627Y0119550D03*
X0118627Y0118967D03*
X0048123Y0098573D03*
X0048123Y0097991D03*
X0048123Y0097408D03*
X0048123Y0096825D03*
X0048123Y0096243D03*
X0048123Y0095660D03*
X0048123Y0095077D03*
X0048123Y0094494D03*
X0048123Y0093912D03*
X0048123Y0093329D03*
X0048123Y0092746D03*
X0048123Y0092164D03*
X0048123Y0091581D03*
X0013162Y0091581D03*
X0013162Y0092164D03*
X0013162Y0092746D03*
X0013162Y0093329D03*
X0013162Y0093912D03*
X0013162Y0094494D03*
X0013162Y0095077D03*
X0013162Y0095660D03*
X0013162Y0096243D03*
X0013162Y0096825D03*
X0013162Y0097408D03*
X0013162Y0097991D03*
X0013162Y0098573D03*
X0013162Y0099156D03*
X0013162Y0099739D03*
X0013162Y0100321D03*
X0013162Y0100904D03*
X0013162Y0101487D03*
X0013162Y0102069D03*
X0013162Y0102652D03*
X0013162Y0103235D03*
X0013162Y0103817D03*
X0013162Y0104400D03*
X0013162Y0104983D03*
X0013162Y0105565D03*
X0013162Y0106148D03*
X0013162Y0106731D03*
X0013162Y0107313D03*
X0013162Y0107896D03*
X0013162Y0108479D03*
X0013162Y0109061D03*
X0013162Y0109644D03*
X0013162Y0110227D03*
X0013162Y0110809D03*
X0013162Y0111392D03*
X0013162Y0111975D03*
X0013162Y0112557D03*
X0013162Y0113140D03*
X0013162Y0113723D03*
X0013162Y0114306D03*
X0013162Y0114888D03*
X0013162Y0115471D03*
X0013162Y0116054D03*
X0013162Y0116636D03*
X0013162Y0117219D03*
X0013162Y0117802D03*
X0013162Y0118384D03*
X0013162Y0118967D03*
X0013162Y0119550D03*
X0013162Y0120132D03*
X0013162Y0120715D03*
X0013162Y0121298D03*
X0013162Y0121880D03*
X0013162Y0122463D03*
X0013162Y0123046D03*
X0013162Y0123628D03*
X0013162Y0124211D03*
X0013162Y0124794D03*
X0013162Y0125376D03*
X0013162Y0125959D03*
X0013162Y0126542D03*
X0013162Y0127124D03*
X0013162Y0127707D03*
X0013162Y0128290D03*
X0013162Y0128872D03*
X0013162Y0129455D03*
X0013162Y0130038D03*
X0013162Y0130620D03*
X0013162Y0131203D03*
X0013162Y0131786D03*
X0013162Y0132369D03*
X0013162Y0132951D03*
X0013162Y0133534D03*
X0013745Y0135282D03*
X0228753Y0070605D03*
X0228753Y0070022D03*
X0228753Y0069439D03*
X0228753Y0068857D03*
X0228753Y0068274D03*
X0228753Y0067691D03*
X0243902Y0080510D03*
X0243902Y0081093D03*
X0243902Y0081676D03*
X0243902Y0082258D03*
X0243902Y0082841D03*
X0243902Y0083424D03*
X0243902Y0084006D03*
X0243902Y0084589D03*
X0261965Y0058369D03*
X0261965Y0057786D03*
X0261965Y0057203D03*
X0261965Y0056620D03*
D20*
X0261674Y0061865D03*
X0227879Y0072353D03*
X0210981Y0067691D03*
X0225548Y0057786D03*
X0210398Y0089833D03*
X0217391Y0105565D03*
X0116587Y0112557D03*
X0116005Y0111975D03*
X0116587Y0132369D03*
X0116005Y0133534D03*
X0099690Y0162085D03*
X0047249Y0133534D03*
X0047249Y0132951D03*
X0014619Y0137613D03*
D21*
X0014910Y0138195D03*
X0046957Y0134117D03*
X0101146Y0162668D03*
X0115131Y0134699D03*
X0115713Y0134117D03*
X0116296Y0132951D03*
X0115713Y0111392D03*
X0115131Y0110809D03*
X0115131Y0110227D03*
X0097068Y0083424D03*
X0097068Y0082841D03*
X0210690Y0089250D03*
X0261965Y0064778D03*
X0261965Y0064195D03*
X0261965Y0063613D03*
X0261965Y0063030D03*
X0261965Y0062447D03*
X0225839Y0058951D03*
X0225839Y0058369D03*
D22*
X0218847Y0059534D03*
X0218847Y0060117D03*
X0218847Y0060699D03*
X0218847Y0077014D03*
X0218847Y0077597D03*
X0218265Y0078762D03*
X0186800Y0141109D03*
X0186217Y0141691D03*
X0073761Y0140526D03*
X0073761Y0104983D03*
D23*
X0025107Y0144605D03*
X0183595Y0097408D03*
X0184178Y0097991D03*
X0218556Y0078180D03*
X0219139Y0076431D03*
X0219139Y0075849D03*
X0219139Y0075266D03*
X0219139Y0074683D03*
X0219139Y0064195D03*
X0219139Y0063613D03*
X0219139Y0063030D03*
X0219139Y0062447D03*
X0219139Y0061865D03*
X0219139Y0061282D03*
D24*
X0219430Y0064778D03*
X0219430Y0065361D03*
X0219430Y0065943D03*
X0219430Y0066526D03*
X0093572Y0095077D03*
X0185052Y0142857D03*
X0185635Y0142274D03*
X0093572Y0150431D03*
D25*
X0092115Y0153345D03*
X0102020Y0163250D03*
X0114257Y0136447D03*
X0114839Y0135282D03*
X0114839Y0109644D03*
X0114257Y0109061D03*
X0097359Y0082258D03*
X0097359Y0081676D03*
X0097359Y0081093D03*
X0097359Y0080510D03*
X0097359Y0079928D03*
X0097359Y0079345D03*
X0097359Y0078762D03*
X0097359Y0078180D03*
X0097359Y0077597D03*
X0097359Y0077014D03*
X0097359Y0076431D03*
X0097359Y0075849D03*
X0046666Y0134699D03*
X0046666Y0135282D03*
X0015784Y0139361D03*
X0015202Y0138778D03*
X0211564Y0067109D03*
X0227296Y0072935D03*
X0261674Y0066526D03*
X0261674Y0065943D03*
X0261674Y0065361D03*
D26*
X0261965Y0067109D03*
X0261965Y0067691D03*
X0227005Y0073518D03*
X0226422Y0074101D03*
X0139020Y0065943D03*
X0113383Y0107896D03*
X0113965Y0108479D03*
X0066769Y0118967D03*
X0066769Y0119550D03*
X0066769Y0120132D03*
X0066769Y0120715D03*
X0066769Y0121298D03*
X0066769Y0121880D03*
X0066769Y0122463D03*
X0066769Y0123046D03*
X0066769Y0123628D03*
X0066769Y0124211D03*
X0066769Y0124794D03*
X0066769Y0125376D03*
X0066769Y0125959D03*
X0066769Y0126542D03*
X0046375Y0135865D03*
X0024816Y0151014D03*
X0102894Y0163833D03*
X0113383Y0137613D03*
X0113965Y0137030D03*
X0114548Y0135865D03*
D27*
X0093572Y0097991D03*
X0143682Y0066526D03*
D28*
X0142517Y0067109D03*
X0093572Y0146353D03*
X0139020Y0175487D03*
D29*
X0154753Y0168494D03*
X0174564Y0150431D03*
X0141351Y0067691D03*
D30*
X0211564Y0088668D03*
X0261674Y0070022D03*
X0261674Y0069439D03*
X0261674Y0068857D03*
X0261674Y0068274D03*
X0112509Y0138195D03*
X0103769Y0164416D03*
X0046083Y0136447D03*
X0067060Y0128290D03*
X0067060Y0127707D03*
X0067060Y0127124D03*
X0067060Y0118384D03*
X0067060Y0117802D03*
X0067060Y0117219D03*
X0016367Y0139943D03*
D31*
X0141060Y0068857D03*
X0141060Y0068274D03*
X0171359Y0089833D03*
X0155044Y0167912D03*
D32*
X0155627Y0167329D03*
X0138729Y0174904D03*
X0031517Y0142274D03*
X0031517Y0141691D03*
X0031517Y0141109D03*
X0141643Y0069439D03*
X0260509Y0086920D03*
X0260509Y0087502D03*
X0260509Y0088085D03*
X0260509Y0088668D03*
X0260509Y0089250D03*
X0260509Y0089833D03*
X0260509Y0090416D03*
D33*
X0142225Y0070022D03*
X0156209Y0166746D03*
D34*
X0105225Y0164998D03*
X0045792Y0137030D03*
X0067351Y0130038D03*
X0067351Y0129455D03*
X0067351Y0128872D03*
X0067351Y0116636D03*
X0067351Y0116054D03*
X0067351Y0115471D03*
X0091824Y0091581D03*
X0112217Y0106731D03*
X0112800Y0107313D03*
X0245650Y0121298D03*
X0274202Y0121298D03*
X0261383Y0070605D03*
D35*
X0169902Y0089250D03*
X0142517Y0073518D03*
X0142517Y0072935D03*
X0142517Y0072353D03*
X0142517Y0071770D03*
X0142517Y0071187D03*
X0142517Y0070605D03*
X0156501Y0166164D03*
D36*
X0111926Y0138778D03*
X0106099Y0165581D03*
X0067643Y0131203D03*
X0067643Y0130620D03*
X0045501Y0137613D03*
X0016950Y0140526D03*
X0067643Y0114888D03*
X0067643Y0114306D03*
X0212146Y0088085D03*
X0261674Y0073518D03*
X0261674Y0072935D03*
X0261674Y0072353D03*
X0261674Y0071770D03*
X0261674Y0071187D03*
X0273910Y0116054D03*
X0273910Y0116636D03*
X0273910Y0117219D03*
X0273910Y0117802D03*
X0273910Y0118384D03*
X0273910Y0118967D03*
X0273910Y0119550D03*
X0273910Y0120132D03*
X0273910Y0120715D03*
X0245942Y0120715D03*
X0245942Y0120132D03*
X0245942Y0119550D03*
X0245942Y0118967D03*
D37*
X0246233Y0118384D03*
X0246233Y0117802D03*
X0246233Y0117219D03*
X0246233Y0116636D03*
X0246233Y0116054D03*
X0246233Y0115471D03*
X0273619Y0115471D03*
X0273619Y0114888D03*
X0273619Y0114306D03*
X0273619Y0113723D03*
X0273619Y0113140D03*
X0273619Y0112557D03*
X0273619Y0111975D03*
X0261383Y0074683D03*
X0261383Y0074101D03*
X0111635Y0106148D03*
X0067934Y0113723D03*
X0045209Y0138195D03*
X0024816Y0150431D03*
X0107556Y0166164D03*
D38*
X0093572Y0149266D03*
X0093572Y0096243D03*
X0148926Y0077014D03*
X0148926Y0076431D03*
X0148926Y0075849D03*
X0148926Y0075266D03*
X0148926Y0074683D03*
X0148926Y0074101D03*
X0179808Y0094494D03*
X0254973Y0086337D03*
X0254973Y0085754D03*
X0254973Y0085172D03*
X0182139Y0145770D03*
X0181556Y0146353D03*
D39*
X0104351Y0074101D03*
D40*
X0122706Y0074683D03*
X0183304Y0082841D03*
X0227587Y0092164D03*
D41*
X0230209Y0089833D03*
X0180682Y0078762D03*
X0120083Y0075849D03*
X0103769Y0074683D03*
X0082209Y0135865D03*
D42*
X0068225Y0132369D03*
X0068225Y0131786D03*
X0044918Y0138778D03*
X0068225Y0113140D03*
X0068225Y0112557D03*
X0110761Y0105565D03*
X0217973Y0104983D03*
X0246524Y0112557D03*
X0246524Y0113140D03*
X0246524Y0113723D03*
X0246524Y0114306D03*
X0246524Y0114888D03*
X0273328Y0111392D03*
X0273328Y0110809D03*
X0273328Y0110227D03*
X0273328Y0109644D03*
X0273328Y0109061D03*
X0273328Y0108479D03*
X0261674Y0078762D03*
X0261674Y0078180D03*
X0261674Y0077597D03*
X0261674Y0077014D03*
X0261674Y0076431D03*
X0261674Y0075849D03*
X0261674Y0075266D03*
D43*
X0181847Y0080510D03*
X0121249Y0075266D03*
X0091532Y0125376D03*
X0082209Y0125376D03*
X0082209Y0125959D03*
D44*
X0082209Y0124794D03*
X0103186Y0075266D03*
X0181265Y0079345D03*
X0229627Y0090416D03*
D45*
X0180682Y0095077D03*
X0149217Y0084589D03*
X0149217Y0084006D03*
X0149217Y0083424D03*
X0149217Y0082841D03*
X0149217Y0082258D03*
X0149217Y0081676D03*
X0149217Y0081093D03*
X0149217Y0080510D03*
X0149217Y0079928D03*
X0149217Y0079345D03*
X0149217Y0078762D03*
X0149217Y0078180D03*
X0149217Y0077597D03*
X0075800Y0104400D03*
D46*
X0082209Y0124211D03*
X0180682Y0078180D03*
D47*
X0247690Y0104400D03*
X0247690Y0104983D03*
X0247690Y0105565D03*
X0247690Y0106148D03*
X0247690Y0106731D03*
X0247107Y0109061D03*
X0247107Y0109644D03*
X0272745Y0103817D03*
X0272745Y0103235D03*
X0272745Y0102652D03*
X0272745Y0102069D03*
X0272745Y0101487D03*
X0261674Y0081676D03*
X0261674Y0081093D03*
X0261674Y0080510D03*
X0261674Y0079928D03*
X0261674Y0079345D03*
X0110178Y0167329D03*
X0068808Y0111392D03*
X0068808Y0110809D03*
X0092698Y0092164D03*
D48*
X0184761Y0098573D03*
X0185343Y0099156D03*
X0217973Y0079928D03*
X0217973Y0079345D03*
X0187091Y0140526D03*
X0025107Y0145187D03*
D49*
X0091824Y0134699D03*
X0091824Y0124794D03*
X0181556Y0079928D03*
D50*
X0185635Y0099739D03*
X0186217Y0100321D03*
X0186217Y0100904D03*
X0186800Y0101487D03*
X0217682Y0081093D03*
X0217682Y0080510D03*
X0187383Y0139943D03*
X0093572Y0151014D03*
X0093572Y0094494D03*
D51*
X0091532Y0126542D03*
X0082209Y0126542D03*
X0082209Y0127124D03*
X0182430Y0081676D03*
X0182430Y0081093D03*
X0216225Y0106731D03*
D52*
X0217391Y0094494D03*
X0217391Y0093912D03*
X0217391Y0093329D03*
X0217391Y0081676D03*
X0187091Y0102069D03*
X0187674Y0102652D03*
X0188257Y0138195D03*
X0188257Y0138778D03*
X0187674Y0139361D03*
X0025107Y0145770D03*
D53*
X0044044Y0139943D03*
X0069099Y0110227D03*
X0093572Y0152762D03*
X0247981Y0103817D03*
X0247981Y0103235D03*
X0247981Y0102652D03*
X0247981Y0102069D03*
X0247981Y0101487D03*
X0247981Y0100904D03*
X0247981Y0100321D03*
X0247981Y0099739D03*
X0261383Y0083424D03*
X0261383Y0082841D03*
X0261383Y0082258D03*
X0272454Y0097408D03*
X0272454Y0097991D03*
X0272454Y0098573D03*
X0272454Y0099156D03*
X0272454Y0099739D03*
X0272454Y0100321D03*
X0272454Y0100904D03*
D54*
X0217099Y0097408D03*
X0217099Y0096825D03*
X0217099Y0096243D03*
X0217099Y0095660D03*
X0217099Y0095077D03*
X0217099Y0082258D03*
X0187965Y0103235D03*
X0189131Y0137030D03*
X0188548Y0137613D03*
X0072595Y0139943D03*
X0024816Y0146353D03*
D55*
X0072304Y0105565D03*
X0117753Y0169660D03*
X0189422Y0136447D03*
X0189422Y0135865D03*
X0190005Y0135282D03*
X0190005Y0134699D03*
X0190587Y0133534D03*
X0188257Y0103817D03*
X0217391Y0099156D03*
X0217391Y0098573D03*
X0217391Y0097991D03*
X0216808Y0082841D03*
D56*
X0216517Y0083424D03*
X0217682Y0099739D03*
X0217682Y0100321D03*
X0189131Y0104983D03*
X0188548Y0104400D03*
X0191461Y0130620D03*
X0190879Y0132369D03*
X0190879Y0132951D03*
X0190296Y0134117D03*
X0093572Y0093912D03*
X0072013Y0133534D03*
X0072013Y0134117D03*
X0072013Y0139361D03*
X0024816Y0146935D03*
D57*
X0183595Y0083424D03*
X0222052Y0114306D03*
X0222052Y0114888D03*
X0222052Y0115471D03*
X0222052Y0116054D03*
X0222052Y0116636D03*
D58*
X0248272Y0099156D03*
X0248272Y0098573D03*
X0248272Y0097991D03*
X0248272Y0097408D03*
X0261674Y0084589D03*
X0261674Y0084006D03*
X0272162Y0096825D03*
X0213894Y0086920D03*
X0109595Y0140526D03*
X0069391Y0135865D03*
X0069391Y0109644D03*
X0111343Y0167912D03*
X0139312Y0177235D03*
D59*
X0093863Y0151597D03*
X0071721Y0134699D03*
X0071721Y0106148D03*
X0189422Y0106148D03*
X0189422Y0105565D03*
X0190005Y0106731D03*
X0190005Y0107313D03*
X0190587Y0107896D03*
X0190587Y0108479D03*
X0192335Y0116636D03*
X0192335Y0117219D03*
X0192335Y0117802D03*
X0192335Y0118384D03*
X0192335Y0121880D03*
X0192335Y0122463D03*
X0192335Y0123046D03*
X0192335Y0123628D03*
X0192335Y0124211D03*
X0192335Y0124794D03*
X0192335Y0125376D03*
X0192335Y0125959D03*
X0192335Y0126542D03*
X0192335Y0127124D03*
X0191753Y0129455D03*
X0191753Y0130038D03*
X0191170Y0131203D03*
X0191170Y0131786D03*
X0217391Y0100904D03*
X0216225Y0084006D03*
D60*
X0183887Y0084006D03*
X0211855Y0110227D03*
X0222343Y0110227D03*
X0222343Y0110809D03*
X0222343Y0111392D03*
X0222343Y0111975D03*
X0222343Y0112557D03*
X0222343Y0113140D03*
X0222343Y0113723D03*
X0221761Y0117219D03*
X0221761Y0117802D03*
X0221761Y0118384D03*
X0221761Y0118967D03*
X0221761Y0119550D03*
X0221761Y0120132D03*
X0221761Y0120715D03*
X0221761Y0121298D03*
X0221761Y0121880D03*
X0211272Y0121880D03*
D61*
X0191753Y0112557D03*
X0217973Y0102652D03*
X0217973Y0102069D03*
X0215643Y0084589D03*
X0071139Y0106731D03*
X0115422Y0169077D03*
D62*
X0107556Y0141109D03*
X0070847Y0138195D03*
X0024816Y0148101D03*
X0070847Y0107313D03*
X0093572Y0093329D03*
X0215351Y0085172D03*
X0218265Y0103235D03*
D63*
X0160871Y0085172D03*
X0087454Y0100321D03*
X0087454Y0144605D03*
X0162036Y0157424D03*
D64*
X0093572Y0152180D03*
X0070265Y0137613D03*
X0024816Y0148683D03*
X0070265Y0107896D03*
X0214769Y0085754D03*
D65*
X0161162Y0085754D03*
X0087745Y0100904D03*
X0162328Y0156841D03*
D66*
X0109304Y0104983D03*
X0092989Y0092746D03*
X0069682Y0109061D03*
X0069682Y0136447D03*
X0024816Y0149266D03*
X0214186Y0086337D03*
X0218265Y0104400D03*
X0248564Y0096825D03*
X0248564Y0096243D03*
X0248564Y0095660D03*
X0248564Y0095077D03*
X0248564Y0094494D03*
X0248564Y0093912D03*
X0272454Y0093912D03*
X0272454Y0094494D03*
X0272454Y0095077D03*
X0272454Y0095660D03*
X0272454Y0096243D03*
X0272454Y0093329D03*
D67*
X0165532Y0152762D03*
X0162619Y0156258D03*
X0139312Y0172573D03*
X0088036Y0144022D03*
X0088036Y0101487D03*
X0161454Y0086337D03*
D68*
X0161745Y0086920D03*
X0088328Y0102069D03*
X0088328Y0143439D03*
X0162910Y0155676D03*
D69*
X0111052Y0139361D03*
X0110469Y0139943D03*
X0068517Y0132951D03*
X0044627Y0139361D03*
X0024816Y0149849D03*
X0068517Y0111975D03*
X0108721Y0166746D03*
X0246816Y0111975D03*
X0246816Y0111392D03*
X0246816Y0110809D03*
X0246816Y0110227D03*
X0247398Y0108479D03*
X0247398Y0107896D03*
X0247398Y0107313D03*
X0273036Y0107313D03*
X0273036Y0106731D03*
X0273036Y0106148D03*
X0273036Y0105565D03*
X0273036Y0104983D03*
X0273036Y0104400D03*
X0273036Y0107896D03*
X0213020Y0087502D03*
D70*
X0162619Y0088085D03*
X0162036Y0087502D03*
X0088619Y0102652D03*
X0088619Y0103235D03*
X0088619Y0142274D03*
X0088619Y0142857D03*
X0163202Y0155093D03*
D71*
X0091824Y0135865D03*
X0231083Y0088668D03*
D72*
X0165241Y0088668D03*
X0161162Y0159172D03*
D73*
X0230501Y0089250D03*
D74*
X0172816Y0090416D03*
X0093572Y0099156D03*
X0093572Y0145770D03*
X0154170Y0169077D03*
D75*
X0113091Y0168494D03*
X0069973Y0137030D03*
X0043170Y0140526D03*
X0069973Y0108479D03*
X0248855Y0093329D03*
X0248855Y0092746D03*
X0248855Y0092164D03*
X0248855Y0091581D03*
X0248855Y0090998D03*
X0272162Y0090998D03*
X0272162Y0091581D03*
X0272162Y0092164D03*
X0272162Y0092746D03*
D76*
X0228753Y0090998D03*
X0091824Y0125959D03*
X0091824Y0133534D03*
X0091824Y0134117D03*
D77*
X0093280Y0098573D03*
X0174272Y0090998D03*
X0176603Y0149266D03*
X0153296Y0169660D03*
D78*
X0175146Y0091581D03*
D79*
X0176020Y0092164D03*
X0178351Y0148101D03*
D80*
X0179517Y0147518D03*
X0177186Y0092746D03*
D81*
X0178351Y0093329D03*
X0093863Y0096825D03*
X0180099Y0146935D03*
X0093863Y0148683D03*
D82*
X0179225Y0093912D03*
D83*
X0181265Y0095660D03*
X0183595Y0144605D03*
X0139312Y0176652D03*
X0075217Y0141109D03*
D84*
X0093572Y0149849D03*
X0183887Y0144022D03*
X0182139Y0096243D03*
X0093572Y0095660D03*
D85*
X0025107Y0144022D03*
X0184761Y0143439D03*
X0183013Y0096825D03*
D86*
X0093572Y0097408D03*
X0093572Y0147518D03*
X0093572Y0148101D03*
X0139020Y0176069D03*
D87*
X0161745Y0158006D03*
X0087162Y0145187D03*
X0087162Y0099739D03*
D88*
X0106973Y0104400D03*
X0071430Y0135282D03*
X0071430Y0138778D03*
X0024816Y0147518D03*
X0192044Y0128872D03*
X0192044Y0128290D03*
X0192044Y0127707D03*
X0192627Y0121298D03*
X0192627Y0120715D03*
X0192627Y0120132D03*
X0192627Y0119550D03*
X0192627Y0118967D03*
X0192044Y0116054D03*
X0192044Y0115471D03*
X0192044Y0114888D03*
X0192044Y0114306D03*
X0192044Y0113723D03*
X0192044Y0113140D03*
X0191461Y0111975D03*
X0191461Y0111392D03*
X0191461Y0110809D03*
X0191461Y0110227D03*
X0190879Y0109644D03*
X0190879Y0109061D03*
X0217682Y0101487D03*
D89*
X0218556Y0103817D03*
D90*
X0164076Y0153345D03*
X0163493Y0153928D03*
X0163493Y0154510D03*
X0139020Y0171991D03*
X0088910Y0141691D03*
X0088910Y0103817D03*
D91*
X0091824Y0124211D03*
X0091824Y0135282D03*
D92*
X0091532Y0131203D03*
X0091532Y0130620D03*
X0091532Y0130038D03*
X0091532Y0129455D03*
X0091532Y0128872D03*
X0082209Y0128872D03*
X0082209Y0128290D03*
X0082209Y0127707D03*
X0082209Y0129455D03*
X0082209Y0130038D03*
X0082209Y0130620D03*
X0082209Y0131203D03*
X0082209Y0131786D03*
X0082209Y0132369D03*
X0025107Y0152762D03*
D93*
X0031808Y0143439D03*
X0031808Y0142857D03*
D94*
X0182721Y0145187D03*
D95*
X0177769Y0148683D03*
X0093863Y0146935D03*
D96*
X0175438Y0149849D03*
D97*
X0172816Y0151014D03*
D98*
X0171068Y0151597D03*
X0157083Y0165581D03*
X0139020Y0174321D03*
D99*
X0159123Y0162668D03*
X0169028Y0152180D03*
D100*
X0161454Y0158589D03*
D101*
X0160871Y0159754D03*
X0139312Y0173156D03*
D102*
X0160580Y0160337D03*
D103*
X0160288Y0160920D03*
D104*
X0159706Y0161502D03*
D105*
X0159414Y0162085D03*
X0139020Y0173739D03*
D106*
X0158249Y0163833D03*
X0158831Y0163250D03*
D107*
X0157666Y0164416D03*
D108*
X0157375Y0164998D03*
D109*
X0139020Y0170243D03*
D110*
X0139020Y0170825D03*
D111*
X0139020Y0171408D03*
D112*
X0139300Y0157109D02*
X0139300Y0153880D01*
X0134300Y0153880D02*
X0134300Y0157109D01*
X0129300Y0157109D02*
X0129300Y0153880D01*
X0124300Y0153880D02*
X0124300Y0157109D01*
X0119300Y0157109D02*
X0119300Y0153880D01*
X0114300Y0153880D02*
X0114300Y0157109D01*
X0109300Y0157109D02*
X0109300Y0153880D01*
X0104300Y0153880D02*
X0104300Y0157109D01*
X0099300Y0157109D02*
X0099300Y0153880D01*
X0094300Y0153880D02*
X0094300Y0157109D01*
X0089300Y0157109D02*
X0089300Y0153880D01*
X0084300Y0153880D02*
X0084300Y0157109D01*
X0079300Y0157109D02*
X0079300Y0153880D01*
X0074300Y0153880D02*
X0074300Y0157109D01*
X0069300Y0157109D02*
X0069300Y0153880D01*
X0144300Y0153880D02*
X0144300Y0157109D01*
X0149300Y0157109D02*
X0149300Y0153880D01*
X0154300Y0153880D02*
X0154300Y0157109D01*
X0159300Y0157109D02*
X0159300Y0153880D01*
X0164300Y0153880D02*
X0164300Y0157109D01*
D113*
X0161794Y0158415D03*
X0161794Y0152615D03*
X0151794Y0152615D03*
X0151794Y0158415D03*
X0141794Y0158415D03*
X0141794Y0152615D03*
X0131794Y0152615D03*
X0131794Y0158415D03*
X0121794Y0158415D03*
X0121794Y0152615D03*
X0111794Y0152615D03*
X0111794Y0158415D03*
X0101794Y0158415D03*
X0101794Y0152615D03*
X0091794Y0152615D03*
X0091794Y0158415D03*
X0081794Y0158415D03*
X0081794Y0152615D03*
X0071794Y0152615D03*
X0071794Y0158415D03*
D114*
X0139126Y0164021D02*
X0143730Y0164021D01*
X0143730Y0166323D01*
X0142963Y0167091D01*
X0141428Y0167091D01*
X0140661Y0166323D01*
X0140661Y0164021D01*
X0140661Y0165556D02*
X0139126Y0167091D01*
X0139126Y0168625D02*
X0139893Y0168625D01*
X0142963Y0171694D01*
X0143730Y0171694D01*
X0143730Y0168625D01*
X0148890Y0169122D02*
X0149657Y0168354D01*
X0151192Y0168354D01*
X0151192Y0170656D01*
X0150424Y0171424D01*
X0149657Y0171424D01*
X0148890Y0170656D01*
X0148890Y0169122D01*
X0148890Y0166820D02*
X0150424Y0165285D01*
X0150424Y0166052D02*
X0150424Y0163750D01*
X0148890Y0163750D02*
X0153494Y0163750D01*
X0153494Y0166052D01*
X0152726Y0166820D01*
X0151192Y0166820D01*
X0150424Y0166052D01*
X0151192Y0168354D02*
X0152726Y0169889D01*
X0153494Y0171424D01*
X0159126Y0170927D02*
X0159126Y0169392D01*
X0159893Y0168625D01*
X0161428Y0168625D02*
X0162195Y0170160D01*
X0162195Y0170927D01*
X0161428Y0171694D01*
X0159893Y0171694D01*
X0159126Y0170927D01*
X0161428Y0168625D02*
X0163730Y0168625D01*
X0163730Y0171694D01*
X0162963Y0167091D02*
X0161428Y0167091D01*
X0160661Y0166323D01*
X0160661Y0164021D01*
X0160661Y0165556D02*
X0159126Y0167091D01*
X0162963Y0167091D02*
X0163730Y0166323D01*
X0163730Y0164021D01*
X0159126Y0164021D01*
M02*
